<svg width="99" height="149" viewBox="0 0 99 149" fill="none"
  xmlns="http://www.w3.org/2000/svg">
  <g opacity="0.2" filter="url(#filter0_d_415_15356)">
    <rect x="-0.000488281" y="22.2031" width="65.4723" height="126.784" rx="3.50353" transform="rotate(-9 -0.000488281 22.2031)" fill="#A158ED"/>
    <rect x="2.53442" y="38.2075" width="65.4723" height="3.94148" transform="rotate(-9 2.53442 38.2075)" fill="white"/>
    <rect x="2.73975" y="39.5051" width="65.4723" height="1.31383" transform="rotate(-9 2.73975 39.5051)" fill="#61B9F5"/>
    <rect x="3.14941" y="42.1006" width="65.4723" height="100.07" transform="rotate(-9 3.14941 42.1006)" fill="#4D6ECB"/>
    <path d="M10.0701 85.7881L77.8363 95.1188L81.6728 119.342L17.0066 129.584L10.0701 85.7881Z" fill="#65612E"/>
    <path d="M37.2627 120.168C26.6506 119.543 17.2704 113.136 13.9067 110.011L18.8051 140.938L83.4714 130.696L80.1829 109.934C70.2979 113.605 47.8748 120.793 37.2627 120.168Z" fill="#CDB389"/>
    <path d="M35.2191 96.793C33.5538 95.2164 34.4317 91.8215 34.5179 89.6844C34.7445 87.242 34.0804 86.9224 33.7305 84.7129C33.3805 82.5033 29.6206 78.4273 26.9011 76.4515C24.1816 74.4757 23.323 72.6298 24.7396 70.8483C26.1561 69.0667 33.7403 74.9436 36.2999 76.8032C38.8594 78.6628 40.3128 78.0079 42.9435 76.7419C45.5742 75.4758 43.4633 69.2983 43.0915 66.9507C42.7197 64.603 41.9773 62.5972 44.2812 61.9492C46.5851 61.3011 47.8743 66.7594 49.7665 71.5559C51.6587 76.3525 53.7095 78.5757 55.0549 79.9198C56.4003 81.2639 56.0666 82.7324 55.9654 83.8809C55.8642 85.0294 56.4903 87.1952 56.9853 88.5325C57.4802 89.8697 58.0695 90.9088 58.9062 92.6166C59.7429 94.3244 60.4115 94.0769 61.4151 95.0505C62.4187 96.024 62.0412 97.2163 61.8744 97.9505C61.7076 98.6847 61.1921 99.8989 60.7928 100.953C60.3935 102.007 59.8124 102.807 59.6893 103.817C59.5662 104.828 58.3383 106.013 57.2336 106.188C56.1288 106.363 54.9515 106.974 53.5418 107.906C52.1321 108.837 48.7221 106.97 48.2422 106.621C47.7623 106.273 41.2323 100.795 39.9526 99.8654C38.6728 98.9356 36.8844 98.3695 35.2191 96.793Z" fill="#F29600" stroke="black" stroke-width="0.437942"/>
    <path d="M44.8498 101.763C43.3926 101.661 42.2139 100.518 39.7032 99.3637L39.7374 99.58L44.9589 103.852L47.2308 105.598L48.8935 106.998L50.9203 107.896L53.1686 108.094L54.5969 107.314L56.2415 106.499L58.0456 105.992L59.3143 104.904L59.7748 103.612L59.3422 103.68L60.1442 102.445L61.8327 98.4083L62.048 96.2681L61.4099 95.0389L60.4078 94.3108L59.3714 93.3665L58.3972 91.4146L56.9787 88.7572L56.2314 85.4392L56.0088 84.0334L56.0474 81.4777L55.4264 80.3567L53.2852 78.0355L51.2746 75.1393L49.8497 71.0418L47.2342 65.0267L46.1004 62.7676C44.5855 60.9014 42.5339 62.6452 42.7257 63.8564C42.9655 65.3703 43.1421 65.7857 43.08 66.7932C43.0179 67.8007 44.3175 71.8072 44.5059 72.9967C44.6943 74.1862 44.1996 75.2621 43.8699 75.9795L43.8698 75.9795C43.2753 77.2727 41.5711 77.563 41.0304 77.6486C40.5978 77.7171 39.2092 78.0479 38.5604 78.1507C38.8355 78.2549 39.4359 78.4997 39.6364 78.6453C39.8869 78.8274 42.7274 79.2643 44.3098 79.457C45.8922 79.6498 50.0753 78.7656 51.1685 79.3684C52.2616 79.9712 54.4885 82.8332 54.7625 84.5634C55.0365 86.2936 56.4497 89.6169 56.6949 90.4649C56.94 91.3129 57.6124 92.7583 58.8939 94.5506C60.1754 96.343 60.033 96.1438 59.3221 97.2541C58.6111 98.3643 57.6893 98.8429 56.7449 99.8793C55.8006 100.916 54.5875 99.5558 53.3638 99.528C52.14 99.5001 52.0265 100.183 51.338 100.736C50.6496 101.288 50.1892 102.58 49.1645 102.41C48.1399 102.24 46.307 101.865 44.8498 101.763Z" fill="#D7890A"/>
    <path d="M35.2191 96.793C33.5538 95.2164 34.4317 91.8215 34.5179 89.6844C34.7445 87.242 34.0804 86.9224 33.7305 84.7129C33.3805 82.5033 29.6206 78.4273 26.9011 76.4515C24.1816 74.4757 23.323 72.6298 24.7396 70.8483C26.1561 69.0667 33.7403 74.9436 36.2999 76.8032C38.8594 78.6628 40.3128 78.0079 42.9435 76.7419C45.5742 75.4758 43.4633 69.2983 43.0915 66.9507C42.7197 64.603 41.9773 62.5972 44.2812 61.9492C46.5851 61.3011 47.8743 66.7594 49.7665 71.5559C51.6587 76.3525 53.7095 78.5757 55.0549 79.9198C56.4003 81.2639 56.0666 82.7324 55.9654 83.8809C55.8642 85.0294 56.4903 87.1952 56.9853 88.5325C57.4802 89.8697 58.0695 90.9088 58.9062 92.6166C59.7429 94.3244 60.4115 94.0769 61.4151 95.0505C62.4187 96.024 62.0412 97.2163 61.8744 97.9505C61.7076 98.6847 61.1921 99.8989 60.7928 100.953C60.3935 102.007 59.8124 102.807 59.6893 103.817C59.5662 104.828 58.3383 106.013 57.2336 106.188C56.1288 106.363 54.9515 106.974 53.5418 107.906C52.1321 108.837 48.7221 106.97 48.2422 106.621C47.7623 106.273 41.2323 100.795 39.9526 99.8654C38.6728 98.9356 36.8844 98.3695 35.2191 96.793Z" stroke="black" stroke-width="0.437942"/>
    <path d="M37.709 77.571C38.487 78.0141 39.3087 78.7333 39.8611 78.6458C40.4135 78.5583 42.3837 79.3787 43.5035 80.1923" stroke="black" stroke-width="0.437942"/>
    <path d="M47.6057 104.316C47.7588 105.282 48.3837 104.759 48.6161 104.439L48.8605 103.975C48.5963 103.632 48.3042 103.243 47.9394 102.847C47.7276 102.618 47.4532 102.374 47.1412 102.124C47.245 102.533 47.4832 103.542 47.6057 104.316Z" fill="white"/>
    <path d="M48.9352 87.684C49.2018 87.8778 49.7381 88.4629 49.7501 89.2537M48.5823 94.3933C48.9957 93.7616 49.7878 92.079 49.6489 90.4022M54.0461 89.5642C53.9345 89.1572 53.7634 88.1368 53.9723 87.3109M51.0787 101.218C51.4055 100.6 52.1029 99.6397 52.7934 99.5304C53.4838 99.421 53.8981 99.3554 54.3562 99.566C54.8142 99.7766 55.3885 99.8272 55.9409 99.7397C56.3828 99.6697 56.8323 99.4097 57.0019 99.2885M52.8384 102.496C52.9086 102.343 53.1318 102.025 53.4633 101.972C53.8776 101.907 54.3356 102.117 54.4956 102.234M59.6408 99.8615L60.803 98.2618M39.0098 95.6263C39.1629 96.593 39.2873 98.2721 40.4577 98.5114C41.6281 98.7507 42.1805 98.6632 43.3003 99.4768C44.1888 100.122 45.9424 101.166 47.1412 102.124M60.0563 102.485C59.4971 103.423 58.6835 104.543 57.8987 104.95C57.1138 105.358 56.0159 104.682 55.1217 104.399C54.2275 104.116 53.6026 104.64 52.9122 104.749C52.2217 104.859 51.1606 105.31 50.2883 105.165C49.7263 105.072 49.3391 104.598 48.8605 103.975M47.1412 102.124C47.4532 102.374 47.7276 102.618 47.9394 102.847C48.3042 103.243 48.5963 103.632 48.8605 103.975M47.1412 102.124C47.245 102.533 47.4832 103.542 47.6057 104.316C47.7588 105.282 48.3837 104.759 48.6161 104.439L48.8605 103.975" stroke="black" stroke-width="0.437942"/>
    <path d="M39.4355 88.481C39.9784 88.6309 41.5308 89.1967 43.3979 90.2599C45.7318 91.589 46.7354 92.5625 47.8483 94.2266" stroke="black" stroke-width="0.437942"/>
    <path d="M39.7322 88.5752L40.454 93.1324C41.2757 93.8516 45.6879 94.0022 47.4832 93.7178C45.0626 90.5905 41.3073 88.9863 39.7322 88.5752Z" fill="white" stroke="black" stroke-width="0.437942"/>
    <path d="M44.1069 93.8282C42.9551 92.9914 42.5305 90.7276 42.4622 89.7003C45.0272 90.8795 46.8807 92.8698 47.4868 93.7175C46.5976 93.764 44.6768 93.8512 44.1069 93.8282Z" fill="#008086" stroke="black" stroke-width="0.437942"/>
    <circle cx="44.1912" cy="91.6915" r="0.699093" transform="rotate(-9 44.1912 91.6915)" fill="white"/>
    <circle cx="44.7145" cy="92.3162" r="0.838912" transform="rotate(-9 44.7145 92.3162)" fill="black"/>
    <path d="M54.8542 89.2947C54.8138 89.7541 55.0998 91.1433 55.2479 91.7805C56.1602 90.3902 56.6253 89.1558 56.7438 88.7123L56.0152 85.0056C55.6451 86.2439 54.8947 88.8353 54.8542 89.2947Z" fill="white" stroke="black" stroke-width="0.437942"/>
    <path d="M56.2484 90.0649C56.2419 88.5937 55.7891 87.1649 55.5635 86.6343L54.8524 89.2951L54.9181 89.7094L55.268 91.9189C55.4544 91.6063 55.9115 90.7978 56.2484 90.0649Z" fill="#008086" stroke="black" stroke-width="0.437942"/>
    <path d="M55.6314 89.7379C55.6839 90.0694 55.2221 90.1331 54.9846 90.1235L54.8315 89.1568C54.8871 88.9121 55.0536 88.4138 55.2746 88.3788C55.5508 88.3351 55.5658 89.3236 55.6314 89.7379Z" fill="black" stroke="black" stroke-width="0.437942"/>
    <rect x="-0.000488281" y="22.3877" width="65.4723" height="126.31" rx="3.50353" transform="rotate(-9 -0.000488281 22.3877)" fill="#005BA6"/>
  </g>
  <rect x="3.45996" y="16.2019" width="65.2154" height="126.287" rx="3.48979" transform="rotate(-9 3.45996 16.2019)" fill="#A2F62D"/>
  <rect x="5.98486" y="32.1436" width="65.2154" height="3.92601" transform="rotate(-9 5.98486 32.1436)" fill="white"/>
  <rect x="6.1897" y="33.436" width="65.2154" height="1.30867" transform="rotate(-9 6.1897 33.436)" fill="#61B9F5"/>
  <g opacity="0.7">
    <path fill-rule="evenodd" clip-rule="evenodd" d="M51.4873 77.8805L64.9109 75.7544C62.4564 66.3788 53.2414 60.2123 43.4672 61.7604C33.6929 63.3085 26.8345 72.0208 27.3974 81.696L40.8211 79.5699C41.2496 77.2506 43.095 75.3454 45.5571 74.9554C48.0192 74.5655 50.3631 75.8072 51.4873 77.8805Z" fill="white"/>
    <mask id="path-26-inside-1_415_15356" fill="white">
      <path fill-rule="evenodd" clip-rule="evenodd" d="M41.4182 83.34L27.9946 85.4661C30.449 94.8417 39.664 101.008 49.4383 99.4602C59.2126 97.9121 66.0711 89.1997 65.5081 79.5245L52.0846 81.6506C51.6562 83.97 49.8108 85.8754 47.3485 86.2654C44.8863 86.6554 42.5423 85.4135 41.4182 83.34Z"/>
    </mask>
    <path d="M41.4182 83.34L42.6166 82.6903L42.1571 81.8428L41.2049 81.9936L41.4182 83.34ZM27.9946 85.4661L27.7814 84.1196L26.2947 84.3551L26.6759 85.8113L27.9946 85.4661ZM65.5081 79.5245L66.869 79.4453L66.7816 77.9426L65.2948 78.1781L65.5081 79.5245ZM52.0846 81.6506L51.8714 80.3042L50.9192 80.455L50.7441 81.403L52.0846 81.6506ZM41.2049 81.9936L27.7814 84.1196L28.2079 86.8125L41.6314 84.6864L41.2049 81.9936ZM26.6759 85.8113C29.306 95.858 39.1783 102.465 49.6516 100.807L49.2251 98.1137C40.1498 99.5511 31.5921 93.8254 29.3134 85.1208L26.6759 85.8113ZM49.6516 100.807C60.1249 99.1478 67.4723 89.8131 66.869 79.4453L64.1472 79.6037C64.6699 88.5864 58.3004 96.6764 49.2251 98.1137L49.6516 100.807ZM65.2948 78.1781L51.8714 80.3042L52.2979 82.997L65.7213 80.8709L65.2948 78.1781ZM50.7441 81.403C50.4173 83.1721 49.0092 84.6222 47.1353 84.919L47.5618 87.6118C50.6124 87.1286 52.8951 84.7679 53.4251 81.8982L50.7441 81.403ZM47.1353 84.919C45.2614 85.2158 43.474 84.2718 42.6166 82.6903L40.2198 83.9897C41.6106 86.5552 44.5112 88.095 47.5618 87.6118L47.1353 84.919Z" fill="white" mask="url(#path-26-inside-1_415_15356)"/>
    <path fill-rule="evenodd" clip-rule="evenodd" d="M65.155 76.6818L50.4414 79.0122C49.7137 77.1913 47.8013 76.0488 45.7828 76.3685C43.7643 76.6882 42.2985 78.3657 42.1692 80.3224L27.4553 82.6529L27.7539 84.5378L42.4678 82.2074C43.1955 84.0282 45.1079 85.1706 47.1263 84.8509C49.1447 84.5312 50.6104 82.8538 50.7399 80.8972L65.4535 78.5668L65.155 76.6818ZM46.8276 82.9661C48.1289 82.76 49.0167 81.538 48.8106 80.2367C48.6045 78.9354 47.3825 78.0475 46.0812 78.2536C44.7799 78.4597 43.8921 79.6817 44.0982 80.9831C44.3043 82.2844 45.5263 83.1722 46.8276 82.9661Z" fill="white"/>
  </g>
  <defs>
    <filter id="filter0_d_415_15356" x="0" y="0.124519" width="98.5323" height="148.311" filterUnits="userSpaceOnUse" color-interpolation-filters="sRGB">
      <feFlood flood-opacity="0" result="BackgroundImageFix"/>
      <feColorMatrix in="SourceAlpha" type="matrix" values="0 0 0 0 0 0 0 0 0 0 0 0 0 0 0 0 0 0 127 0" result="hardAlpha"/>
      <feOffset dx="7.82259" dy="-5.21506"/>
      <feGaussianBlur stdDeviation="3.35755"/>
      <feComposite in2="hardAlpha" operator="out"/>
      <feColorMatrix type="matrix" values="0 0 0 0 0.784314 0 0 0 0 0.843137 0 0 0 0 0.909804 0 0 0 0.25 0"/>
      <feBlend mode="normal" in2="BackgroundImageFix" result="effect1_dropShadow_415_15356"/>
      <feBlend mode="normal" in="SourceGraphic" in2="effect1_dropShadow_415_15356" result="shape"/>
    </filter>
  </defs>
</svg>
