<svg width="48" height="80" viewBox="0 0 48 80" fill="none"
  xmlns="http://www.w3.org/2000/svg">
  <g clip-path="url(#clip0_440_16040)">
    <g filter="url(#filter0_d_440_16040)">
      <rect x="-7" y="9.62817" width="50.2178" height="97.2445" rx="2.68724" transform="rotate(-3 -7 9.62817)" fill="#A158ED"/>
      <rect x="-6.34961" y="22.0396" width="50.2178" height="3.02315" transform="rotate(-3 -6.34961 22.0396)" fill="white"/>
      <rect x="-6.29688" y="23.046" width="50.2178" height="1.00772" transform="rotate(-3 -6.29688 23.046)" fill="#61B9F5"/>
      <rect x="-6.19238" y="25.0587" width="50.2178" height="76.7543" transform="rotate(-3 -6.19238 25.0587)" fill="#4D6ECB"/>
      <path d="M-4.41602 58.9385L46.5285 71.4892L47.513 90.2741L-2.63605 92.9023L-4.41602 58.9385Z" fill="#65612E"/>
      <path d="M13.5701 87.3439C5.52525 86.0164 -1.11642 80.3771 -3.43164 77.7234L-2.17468 101.708L47.9743 99.0796L47.1305 82.9782C39.2957 84.9865 21.615 88.6714 13.5701 87.3439Z" fill="#CDB389"/>
      <path d="M12.1507 60.3495C11.0068 59.0134 11.9486 56.4941 12.1857 54.8708C12.5544 53.0259 12.0735 52.7289 11.9837 51.0154C11.8939 49.3018 9.35256 45.8912 7.43653 44.166C5.5205 42.4408 5.01354 40.9639 6.23694 39.7185C7.46035 38.4731 12.7744 43.5641 14.5778 45.1878C16.3811 46.8115 17.5423 46.4285 19.6505 45.6737C21.7588 44.9188 20.6438 40.0374 20.5484 38.2167C20.453 36.3961 20.0475 34.8065 21.8569 34.4969C23.6663 34.1873 24.2121 38.4543 25.2709 42.2648C26.3297 46.0753 27.7159 47.9357 28.6344 49.0688C29.5529 50.202 29.1806 51.2954 29.0113 52.1634C28.8421 53.0314 29.1461 54.7337 29.4164 55.7934C29.6867 56.8531 30.0529 57.693 30.5542 59.0628C31.0556 60.4326 31.5854 60.2975 32.2729 61.1205C32.9604 61.9436 32.5769 62.8228 32.3908 63.3695C32.2046 63.9162 31.7141 64.8011 31.325 65.5732C30.9359 66.3453 30.4285 66.9088 30.2536 67.6697C30.0787 68.4306 29.047 69.2364 28.1902 69.2813C27.3335 69.3262 26.3865 69.698 25.2365 70.2952C24.0865 70.8924 21.635 69.1953 21.2969 68.8909C20.9587 68.5864 16.4167 63.8845 15.5151 63.0727C14.6134 62.2608 13.2946 61.6856 12.1507 60.3495Z" fill="#F29600" stroke="black" stroke-width="0.335905"/>
      <path d="M19.0981 64.9128C17.9948 64.7184 17.1873 63.7516 15.3646 62.6698L15.3734 62.8376L19.0139 66.515L20.6069 68.0292L21.763 69.23L23.237 70.0778L24.9362 70.4092L26.0883 69.9283L27.4081 69.4387L28.825 69.1963L29.88 68.4683L30.3348 67.5194L29.9994 67.537L30.7102 66.6588L32.3218 63.7153L32.6576 62.0999L32.2695 61.1112L31.5634 60.4754L30.8486 59.672L30.2619 58.105L29.3929 55.9641L29.0889 53.3732L29.0318 52.283L29.2661 50.3367L28.8823 49.4318L27.4351 47.4894L26.1336 45.119L25.3751 41.8791L23.8623 37.0811L23.1786 35.2669C22.1726 33.7219 20.4678 34.8876 20.517 35.8269C20.5785 37.0009 20.68 37.332 20.5518 38.0955C20.4236 38.8591 21.0938 42.0194 21.1422 42.9419C21.1905 43.8644 20.7269 44.6455 20.4178 45.1662L20.4178 45.1662C19.8606 46.105 18.5374 46.1898 18.1181 46.2118C17.7826 46.2294 16.6968 46.3703 16.1936 46.3967C16.3952 46.4983 16.8336 46.7332 16.9748 46.8603C17.1513 47.0193 19.283 47.5803 20.4746 47.8542C21.6662 48.1281 24.928 47.789 25.7135 48.3365C26.4991 48.8839 27.9683 51.2456 28.0386 52.5874C28.1089 53.9291 28.9205 56.5775 29.0395 57.244C29.1585 57.9105 29.5555 59.067 30.3893 60.537C31.2232 62.0069 31.1306 61.8436 30.4992 62.6335C29.8679 63.4234 29.1263 63.7145 28.3229 64.4294C27.5194 65.1442 26.7031 64.0097 25.7719 63.8903C24.8406 63.771 24.6993 64.2829 24.1298 64.6491C23.5604 65.0153 23.1055 65.9642 22.3376 65.7522C21.5697 65.5401 20.2015 65.1073 19.0981 64.9128Z" fill="#D7890A"/>
      <path d="M12.1507 60.3495C11.0068 59.0134 11.9486 56.4941 12.1857 54.8708C12.5544 53.0259 12.0735 52.7289 11.9837 51.0154C11.8939 49.3018 9.35256 45.8912 7.43653 44.166C5.5205 42.4408 5.01354 40.9639 6.23694 39.7185C7.46035 38.4731 12.7744 43.5641 14.5778 45.1878C16.3811 46.8115 17.5423 46.4285 19.6505 45.6737C21.7588 44.9188 20.6438 40.0374 20.5484 38.2167C20.453 36.3961 20.0475 34.8065 21.8569 34.4969C23.6663 34.1873 24.2121 38.4543 25.2709 42.2648C26.3297 46.0753 27.7159 47.9357 28.6344 49.0688C29.5529 50.202 29.1806 51.2954 29.0113 52.1634C28.8421 53.0314 29.1461 54.7337 29.4164 55.7934C29.6867 56.8531 30.0529 57.693 30.5542 59.0628C31.0556 60.4326 31.5854 60.2975 32.2729 61.1205C32.9604 61.9436 32.5769 62.8228 32.3908 63.3695C32.2046 63.9162 31.7141 64.8011 31.325 65.5732C30.9359 66.3453 30.4285 66.9088 30.2536 67.6697C30.0787 68.4306 29.047 69.2364 28.1902 69.2813C27.3335 69.3262 26.3865 69.698 25.2365 70.2952C24.0865 70.8924 21.635 69.1953 21.2969 68.8909C20.9587 68.5864 16.4167 63.8845 15.5151 63.0727C14.6134 62.2608 13.2946 61.6856 12.1507 60.3495Z" stroke="black" stroke-width="0.335905"/>
      <path d="M15.5908 45.8865C16.1487 46.2868 16.7179 46.9013 17.1463 46.8788C17.5747 46.8564 19.0118 47.6402 19.8008 48.3506" stroke="black" stroke-width="0.335905"/>
      <path d="M20.9961 67.081C21.0354 67.8307 21.554 67.4813 21.757 67.2559L21.9806 66.922C21.8065 66.6387 21.6149 66.3185 21.3684 65.9876C21.2252 65.7955 21.0354 65.5875 20.8174 65.3722C20.8639 65.6919 20.9647 66.4813 20.9961 67.081Z" fill="white"/>
      <path d="M23.3437 54.5008C23.5316 54.67 23.8937 55.1593 23.8394 55.7635M22.5365 59.5904C22.9025 59.1417 23.6417 57.9217 23.6702 56.6315M27.0916 56.3448C27.039 56.0254 26.9904 55.2333 27.216 54.6201M23.8937 64.9962C24.1926 64.5509 24.8015 63.8747 25.337 63.8466C25.8724 63.8186 26.1937 63.8017 26.5262 63.9991C26.8587 64.1964 27.2927 64.2811 27.7211 64.2586C28.0638 64.2407 28.4276 64.0784 28.5666 63.9995M25.1335 66.1125C25.1993 66.0016 25.3951 65.7766 25.6522 65.7631C25.9735 65.7463 26.306 65.9436 26.4187 66.0451M30.5336 64.6482L31.5485 63.5211M15.1358 59.7635C15.175 60.5132 15.1353 61.8039 16.0089 62.0803C16.8825 62.3567 17.3109 62.3343 18.0998 63.0446C18.7259 63.6083 19.9799 64.5447 20.8174 65.3722M30.6403 66.683C30.1385 67.3536 29.4281 68.1426 28.7968 68.3904C28.1654 68.6383 27.3821 68.035 26.7227 67.7474C26.0633 67.4598 25.5446 67.8092 25.0091 67.8372C24.4737 67.8653 23.6281 68.1244 22.9743 67.9439C22.5531 67.8276 22.2957 67.4352 21.9806 66.922M20.8174 65.3722C21.0354 65.5875 21.2252 65.7955 21.3684 65.9876C21.6149 66.3185 21.8065 66.6387 21.9806 66.922M20.8174 65.3722C20.8639 65.6919 20.9647 66.4813 20.9961 67.081C21.0354 67.8307 21.554 67.4813 21.757 67.2559L21.9806 66.922" stroke="black" stroke-width="0.335905"/>
      <path d="M16.0332 54.347C16.4352 54.5049 17.5741 55.0609 18.9131 56.0217C20.5869 57.2226 21.2743 58.0457 21.9899 59.4043" stroke="black" stroke-width="0.335905"/>
      <path d="M16.252 54.4429L16.4372 57.977C17.0063 58.5915 20.3599 59.0601 21.7522 58.9871C20.1565 56.4075 17.4205 54.8828 16.252 54.4429Z" fill="white" stroke="black" stroke-width="0.335905"/>
      <path d="M19.167ap8 58.8005C18.3563 58.0699 18.2139 56.309 18.2442 55.5199C20.1062 56.6251 21.3606 58.2919 21.755 58.9871C21.073 58.9513 19.6007 58.8638 19.1678 58.8005Z" fill="#008086" stroke="black" stroke-width="0.335905"/>
      <circle cx="19.4034" cy="57.1773" r="0.536211" transform="rotate(-3 19.4034 57.1773)" fill="white"/>
      <circle cx="19.7524" cy="57.6959" r="0.643453" transform="rotate(-3 19.7524 57.6959)" fill="black"/>
      <path d="M27.7296 56.204C27.6619 56.5512 27.7687 57.6338 27.8306 58.1317C28.638 57.1444 29.0918 56.24 29.2177 55.9112L28.9591 53.0253C28.5775 53.9402 27.7973 55.8568 27.7296 56.204Z" fill="white" stroke="black" stroke-width="0.335905"/>
      <path d="M28.7311 56.9032C28.8441 55.7804 28.6133 54.6542 28.4837 54.2314L27.728 56.204L27.7448 56.5253L27.8346 58.2388C28.0019 58.0153 28.4154 57.4352 28.7311 56.9032Z" fill="#008086" stroke="black" stroke-width="0.335905"/>
      <path d="M28.2869 56.6044C28.3004 56.8614 27.943 56.8729 27.7627 56.8466L27.7234 56.0969C27.7854 55.9147 27.9523 55.548 28.1237 55.539C28.3379 55.5278 28.2701 56.2831 28.2869 56.6044Z" fill="black" stroke="black" stroke-width="0.335905"/>
      <g filter="url(#filter1_d_440_16040)">
        <rect x="-4.8252" y="8.19635" width="48.559" height="94.0323" rx="2.59847" transform="rotate(-3 -4.8252 8.19635)" fill="#A158ED"/>
        <rect x="-4.19629" y="20.1978" width="48.559" height="2.92328" transform="rotate(-3 -4.19629 20.1978)" fill="white"/>
        <rect x="-4.14551" y="21.1709" width="48.559" height="0.974428" transform="rotate(-3 -4.14551 21.1709)" fill="#61B9F5"/>
        <g clip-path="url(#clip1_440_16040)">
          <rect x="-4.04297" y="23.1171" width="48.559" height="74.2189" transform="rotate(-3 -4.04297 23.1171)" fill="#D8B8FF"/>
          <path d="M-2.62613 35.1358L-0.393235 34.1528L8.55663 39.5883L10.1653 70.2842L12.7414 69.8367L13.0993 76.6673L25.2391 74.7845L24.2399 68.2894L28.3987 66.0242L28.2635 65.4017L33.3364 49.469L36.2008 49.3189L32.7851 38.9484L36.912 19.9949L44.4243 20.5459L48.7145 89.3062L50.0659 93.6246L38.4912 105.202L39.328 108.988L30.5718 109.447L30.1792 106.895L14.0543 109.337L13.9334 105.202L3.35932 105.756L3.13117 97.9738L-0.111747 98.1438L-2.62613 35.1358Z" fill="url(#paint0_linear_440_16040)"/>
        </g>
        <path d="M9.65801 51.8652C9.85368 50.5256 10.9496 48.607 12.0385 46.5559C12.2014 46.2815 12.6961 45.4047 13.3718 44.0931C14.2164 42.4536 13.289 39.9763 12.6822 38.5458C12.0755 37.1153 13.1083 36.5294 14.0363 36.4808C14.9644 36.4321 16.5691 36.6139 17.7693 36.684C18.9694 36.754 18.7737 38.0936 18.7945 38.4914C18.8154 38.8891 18.8362 39.2868 19.5964 41.1081C21.3059 40.7527 24.2851 41.793 25.7782 42.3794C27.2295 42.1704 28.0255 39.6029 28.4725 37.9842C28.9194 36.3655 30.9914 37.8522 31.8146 38.3408C32.6378 38.8294 32.5609 39.8969 32.5886 40.4272C32.6164 40.9575 32.0578 42.9809 32.169 45.1021C32.2801 47.2233 32.8446 50.3842 33.57 51.5426C34.2954 52.701 34.0227 55.1082 33.7993 55.9176C33.5758 56.7269 32.2078 58.5268 31.7053 59.0849C31.2028 59.643 31.105 60.3128 31.1258 60.7105L31.237 62.8317C31.2717 63.4946 26.5407 64.5401 25.494 64.8609C24.4474 65.1816 23.7497 64.5535 23.2055 64.3161C22.6614 64.0788 14.8823 60.2324 12.1057 57.985C9.3292 55.7377 9.46234 53.2049 9.65801 51.8652Z" fill="#DAD4E0" stroke="black" stroke-width="0.324809"/>
        <path d="M20.3197 52.37C22.8536 54.0451 25.0586 57.3948 25.8445 58.8603L21.3369 59.0965C20.8066 59.1243 19.8369 58.3775 19.614 56.661C19.3911 54.9445 19.8242 53.0606 20.3197 52.37Z" fill="white" stroke="black" stroke-width="0.324809"/>
        <path d="M22.8103 55.9266C22.7743 56.5568 22.6005 57.1111 22.3568 57.4976C22.1097 57.8896 21.8148 58.0768 21.5399 58.0611C21.265 58.0453 20.9934 57.8257 20.7926 57.4081C20.5946 56.9963 20.4851 56.4258 20.5212 55.7957C20.5572 55.1656 20.731 54.6112 20.9747 54.2247C21.2218 53.8327 21.5167 53.6455 21.7916 53.6613C22.0665 53.677 22.3381 53.8966 22.5389 54.3142C22.7369 54.726 22.8464 55.2965 22.8103 55.9266Z" fill="#AE8AAB" stroke="black" stroke-width="0.324809"/>
        <circle cx="21.4986" cy="54.5682" r="0.398268" transform="rotate(-3 21.4986 54.5682)" fill="#F2F3FD"/>
        <path d="M22.0218 55.9526C22.0045 56.2549 21.9211 56.5167 21.8086 56.6952C21.6927 56.8791 21.5695 56.9428 21.476 56.9375C21.3825 56.9321 21.2674 56.8548 21.1732 56.6588C21.0817 56.4687 21.0288 56.1991 21.0461 55.8968C21.0634 55.5945 21.1467 55.3328 21.2592 55.1543C21.3752 54.9703 21.4984 54.9066 21.5919 54.912C21.6854 54.9173 21.8005 54.9946 21.8947 55.1906C21.9861 55.3808 22.0391 55.6503 22.0218 55.9526Z" fill="black" stroke="black" stroke-width="0.324809"/>
        <path d="M24.6502 63.9745C24.4968 63.5838 23.5549 63.3672 23.2828 63.2486L31.2025 62.1688C31.4532 64.4156 30.3995 64.6038 29.7575 65.0363C29.1155 65.4687 27.3851 65.4265 26.8548 65.4543C26.3245 65.482 24.8036 64.3653 24.6502 63.9745Z" fill="#DAD4E0"/>
        <path d="M18.1439 60.6556C16.1599 60.2431 13.5141 58.5314 12.4391 57.7271C12.9924 58.4296 14.6122 59.3947 15.1488 59.7797C15.6853 60.1647 19.2254 62.4062 21.1179 63.2107L24.4371 64.7891L25.3323 64.7973C25.7726 64.9893 26.8865 65.3871 27.8189 65.4415C28.7513 65.4959 30.2268 64.5838 30.8481 64.1209C31.1167 63.4633 31.0542 62.2704 30.9934 61.1116C30.9571 60.4183 30.8622 59.7986 31.5359 59.0504C32.3043 58.197 33.5168 56.5071 33.6407 55.7688C33.7287 55.2446 34.3925 53.0461 33.0614 50.9204C32.4049 49.8721 32.3258 47.3904 32.0851 46.2553C31.761 44.7273 32.2012 42.2649 32.244 41.5308C32.2535 41.3687 29.1405 43.8558 27.7558 44.5309C28.2571 45.064 29.4033 46.4068 29.9777 47.5128C30.6956 48.8953 30.8103 51.0839 30.7828 53.0218C30.7607 54.5722 30.3441 55.3256 30.1385 55.5085L30.0643 54.0923C30.0575 53.9635 29.0883 55.1762 28.5936 55.5895C28.0988 56.0027 26.8041 58.3943 26.8446 59.1668L27.0132 62.3854C27.051 63.1064 26.8843 63.2098 26.7962 63.1714C26.663 63.0923 26.2109 62.8406 25.4683 62.4664C24.5401 61.9986 20.6238 61.1711 18.1439 60.6556Z" fill="#C6C0C8"/>
        <path d="M27.2957 58.6513C27.6679 58.1443 28.3413 56.7885 28.0569 55.4208M31.0286 58.8544C31.2356 58.5777 31.6052 57.681 31.4269 56.3077" stroke="black" stroke-width="0.324809"/>
        <path d="M28.2158 63.5218L28.3831 64.1777" stroke="black" stroke-width="0.324809" stroke-linejoin="round"/>
        <path d="M19.3243 40.9894C21.3548 40.8387 26.2389 41.531 29.5314 45.5062" stroke="black" stroke-width="0.324809" stroke-linejoin="round"/>
        <path d="M18.2365 42.6715C18.2161 42.2822 18.7532 40.6387 18.9027 39.8719L22.5715 47.811C22.2756 47.8536 21.2997 47.7475 19.7634 46.9824C17.8431 46.026 18.262 43.158 18.2365 42.6715Z" fill="#C6C0C8"/>
        <path d="M18.7881 38.3588C18.8321 39.1985 19.0905 40.0712 19.4643 41.1151C19.9315 42.42 21.3331 46.3347 22.4423 47.2071" stroke="black" stroke-width="0.324809" stroke-linejoin="round"/>
        <path d="M25.494 64.8609C24.4473 65.1816 23.7497 64.5535 23.2055 64.3161C22.6614 64.0788 14.8823 60.2324 12.1057 57.985C9.3292 55.7377 9.46234 53.2049 9.65801 51.8652C9.85368 50.5256 10.9496 48.607 12.0385 46.5559C12.2014 46.2815 12.6961 45.4047 13.3718 44.0931C14.2164 42.4536 13.289 39.9763 12.6822 38.5458C12.0755 37.1153 13.1083 36.5294 14.0363 36.4808C14.9644 36.4321 16.5691 36.6139 17.7693 36.684C18.9694 36.754 18.7737 38.0936 18.7945 38.4914C18.8154 38.8891 18.8362 39.2868 19.5964 41.1081C21.3059 40.7527 24.2851 41.793 25.7782 42.3794C27.2295 42.1704 28.0255 39.6029 28.4725 37.9842C28.9194 36.3655 30.9914 37.8522 31.8146 38.3408C32.6378 38.8294 32.5609 39.8969 32.5886 40.4272C32.6164 40.9575 32.0578 42.9809 32.169 45.1021C32.2801 47.2233 32.8446 50.3842 33.57 51.5426C34.2954 52.701 34.0227 55.1082 33.7993 55.9176C33.5758 56.7269 32.2078 58.5268 31.7053 59.0849C31.2028 59.643 31.105 60.3128 31.1258 60.7105C31.1467 61.1082 31.2022 62.1688 31.237 62.8317" stroke="black" stroke-width="0.324809"/>
        <path d="M23.2828 63.2486C23.5549 63.3672 24.4968 63.5838 24.6502 63.9745C24.8036 64.3653 26.3245 65.482 26.8548 65.4543C27.3851 65.4265 29.1155 65.4687 29.7575 65.0363C30.3995 64.6038 31.4532 64.4156 31.2025 62.1688" stroke="black" stroke-width="0.324809"/>
      </g>
    </g>
  </g>
  <defs>
    <filter id="filter0_d_440_16040" x="-7" y="-3.49558" width="66.7394" height="111.386" filterUnits="userSpaceOnUse" color-interpolation-filters="sRGB">
      <feFlood flood-opacity="0" result="BackgroundImageFix"/>
      <feColorMatrix in="SourceAlpha" type="matrix" values="0 0 0 0 0 0 0 0 0 0 0 0 0 0 0 0 0 0 127 0" result="hardAlpha"/>
      <feOffset dx="6" dy="-4"/>
      <feGaussianBlur stdDeviation="2.57527"/>
      <feComposite in2="hardAlpha" operator="out"/>
      <feColorMatrix type="matrix" values="0 0 0 0 0.784314 0 0 0 0 0.843137 0 0 0 0 0.909804 0 0 0 0.25 0"/>
      <feBlend mode="normal" in2="BackgroundImageFix" result="effect1_dropShadow_440_16040"/>
      <feBlend mode="normal" in="SourceGraphic" in2="effect1_dropShadow_440_16040" result="shape"/>
    </filter>
    <filter id="filter1_d_440_16040" x="-35.4919" y="5.65497" width="114.747" height="157.778" filterUnits="userSpaceOnUse" color-interpolation-filters="sRGB">
      <feFlood flood-opacity="0" result="BackgroundImageFix"/>
      <feColorMatrix in="SourceAlpha" type="matrix" values="0 0 0 0 0 0 0 0 0 0 0 0 0 0 0 0 0 0 127 0" result="hardAlpha"/>
      <feOffset dy="30.6667"/>
      <feGaussianBlur stdDeviation="15.3333"/>
      <feComposite in2="hardAlpha" operator="out"/>
      <feColorMatrix type="matrix" values="0 0 0 0 0.784314 0 0 0 0 0.843137 0 0 0 0 0.909804 0 0 0 0.25 0"/>
      <feBlend mode="normal" in2="BackgroundImageFix" result="effect1_dropShadow_440_16040"/>
      <feBlend mode="normal" in="SourceGraphic" in2="effect1_dropShadow_440_16040" result="shape"/>
    </filter>
    <linearGradient id="paint0_linear_440_16040" x1="21.0435" y1="20.8265" x2="25.7013" y2="109.702" gradientUnits="userSpaceOnUse">
      <stop stop-color="#97A5D2"/>
      <stop offset="0.345" stop-color="#8BB0E6"/>
      <stop offset="1" stop-color="#4652AA"/>
    </linearGradient>
    <clipPath id="clip0_440_16040">
      <rect width="48" height="80" fill="white"/>
    </clipPath>
    <clipPath id="clip1_440_16040">
      <rect width="48.559" height="74.2189" fill="white" transform="translate(-4.04297 23.1171) rotate(-3)"/>
    </clipPath>
  </defs>
</svg>
