<svg width="100" height="149" viewBox="0 0 100 149" fill="none" xmlns="http://www.w3.org/2000/svg">
<g opacity="0.2" filter="url(#filter0_d_40000647_58684)">
<rect x="0.838379" y="22.2031" width="65.4723" height="126.784" rx="3.50353" transform="rotate(-9 0.838379 22.2031)" fill="#A158ED"/>
<rect x="3.37335" y="38.2075" width="65.4723" height="3.94148" transform="rotate(-9 3.37335 38.2075)" fill="white"/>
<rect x="3.57861" y="39.5054" width="65.4723" height="1.31383" transform="rotate(-9 3.57861 39.5054)" fill="#61B9F5"/>
<rect x="3.98828" y="42.1006" width="65.4723" height="100.07" transform="rotate(-9 3.98828 42.1006)" fill="#4D6ECB"/>
<path d="M10.9089 85.7881L78.6752 95.1188L82.5117 119.342L17.8455 129.584L10.9089 85.7881Z" fill="#65612E"/>
<path d="M38.1016 120.168C27.4895 119.543 18.1092 113.136 14.7456 110.011L19.644 140.938L84.3102 130.696L81.0218 109.934C71.1367 113.605 48.7137 120.793 38.1016 120.168Z" fill="#CDB389"/>
<path d="M36.0579 96.793C34.3926 95.2164 35.2705 91.8215 35.3567 89.6844C35.5833 87.242 34.9193 86.9224 34.5693 84.7129C34.2194 82.5033 30.4594 78.4273 27.74 76.4515C25.0205 74.4757 24.1619 72.6298 25.5784 70.8483C26.995 69.0667 34.5792 74.9436 37.1387 76.8032C39.6982 78.6628 41.1517 78.0079 43.7824 76.7419C46.4131 75.4758 44.3022 69.2983 43.9304 66.9507C43.5585 64.603 42.8162 62.5972 45.1201 61.9492C47.424 61.3011 48.7132 66.7594 50.6053 71.5559C52.4975 76.3525 54.5484 78.5757 55.8938 79.9198C57.2392 81.2639 56.9055 82.7324 56.8043 83.8809C56.7031 85.0294 57.3292 87.1952 57.8241 88.5325C58.319 89.8697 58.9083 90.9088 59.7451 92.6166C60.5818 94.3244 61.2504 94.0769 62.254 95.0505C63.2575 96.024 62.8801 97.2163 62.7133 97.9505C62.5464 98.6847 62.0309 99.8989 61.6317 100.953C61.2324 102.007 60.6513 102.807 60.5282 103.817C60.4051 104.828 59.1772 106.013 58.0724 106.188C56.9677 106.363 55.7904 106.974 54.3807 107.906C52.971 108.837 49.561 106.97 49.0811 106.621C48.6012 106.273 42.0712 100.795 40.7914 99.8654C39.5117 98.9356 37.7233 98.3695 36.0579 96.793Z" fill="#F29600" stroke="black" stroke-width="0.437942"/>
<path d="M45.6887 101.763C44.2315 101.661 43.0527 100.518 40.5421 99.3635L40.5763 99.5798L45.7978 103.852L48.0697 105.598L49.7324 106.998L51.7591 107.896L54.0075 108.094L55.4358 107.314L57.0804 106.499L58.8844 105.991L60.1532 104.904L60.6136 103.611L60.1811 103.68L60.9831 102.444L62.6716 98.4081L62.8869 96.2678L62.2488 95.0387L61.2467 94.3106L60.2103 93.3662L59.2361 91.4144L57.8175 88.757L57.0703 85.439L56.8476 84.0332L56.8863 81.4775L56.2653 80.3565L54.1241 78.0352L52.1134 75.139L50.6885 71.0416L48.0731 65.0265L46.9393 62.7674C45.4244 60.9011 43.3727 62.645 43.5645 63.8561C43.8043 65.3701 43.981 65.7855 43.9188 66.793C43.8567 67.8005 45.1564 71.8069 45.3448 72.9964C45.5332 74.1859 45.0385 75.2619 44.7087 75.9792L44.7087 75.9793C44.1142 77.2725 42.41 77.5627 41.8693 77.6483C41.4367 77.7169 40.0481 78.0476 39.3992 78.1504C39.6744 78.2546 40.2748 78.4995 40.4752 78.6451C40.7258 78.8271 43.5662 79.264 45.1487 79.4568C46.7311 79.6496 50.9142 78.7653 52.0073 79.3681C53.1004 79.971 55.3273 82.8329 55.6014 84.5631C55.8754 86.2933 57.2886 89.6167 57.5337 90.4647C57.7789 91.3126 58.4512 92.7581 59.7328 94.5504C61.0143 96.3427 60.8719 96.1436 60.1609 97.2538C59.45 98.3641 58.5281 98.8426 57.5838 99.879C56.6394 100.915 55.4264 99.5556 54.2026 99.5277C52.9789 99.4999 52.8654 100.183 52.1769 100.735C51.4884 101.288 51.028 102.58 50.0034 102.41C48.9788 102.24 47.1458 101.865 45.6887 101.763Z" fill="#D7890A"/>
<path d="M36.0579 96.793C34.3926 95.2164 35.2705 91.8215 35.3567 89.6844C35.5833 87.242 34.9193 86.9224 34.5693 84.7129C34.2194 82.5033 30.4594 78.4273 27.74 76.4515C25.0205 74.4757 24.1619 72.6298 25.5784 70.8483C26.995 69.0667 34.5792 74.9436 37.1387 76.8032C39.6982 78.6628 41.1517 78.0079 43.7824 76.7419C46.4131 75.4758 44.3022 69.2983 43.9304 66.9507C43.5585 64.603 42.8162 62.5972 45.1201 61.9492C47.424 61.3011 48.7132 66.7594 50.6053 71.5559C52.4975 76.3525 54.5484 78.5757 55.8938 79.9198C57.2392 81.2639 56.9055 82.7324 56.8043 83.8809C56.7031 85.0294 57.3292 87.1952 57.8241 88.5325C58.319 89.8697 58.9083 90.9088 59.7451 92.6166C60.5818 94.3244 61.2504 94.0769 62.254 95.0505C63.2575 96.024 62.8801 97.2163 62.7133 97.9505C62.5464 98.6847 62.0309 99.8989 61.6317 100.953C61.2324 102.007 60.6513 102.807 60.5282 103.817C60.4051 104.828 59.1772 106.013 58.0724 106.188C56.9677 106.363 55.7904 106.974 54.3807 107.906C52.971 108.837 49.561 106.97 49.0811 106.621C48.6012 106.273 42.0712 100.795 40.7914 99.8654C39.5117 98.9356 37.7233 98.3695 36.0579 96.793Z" stroke="black" stroke-width="0.437942"/>
<path d="M38.548 77.5708C39.3259 78.0138 40.1477 78.733 40.7001 78.6456C41.2524 78.5581 43.2227 79.3785 44.3425 80.1921" stroke="black" stroke-width="0.437942"/>
<path d="M48.4445 104.316C48.5976 105.282 49.2224 104.759 49.4549 104.439L49.6993 103.975C49.435 103.632 49.1429 103.242 48.7781 102.847C48.5663 102.617 48.2919 102.374 47.9799 102.124C48.0837 102.532 48.322 103.542 48.4445 104.316Z" fill="white"/>
<path d="M49.774 87.6838C50.0406 87.8775 50.5768 88.4626 50.5888 89.2535M49.421 94.3931C49.8344 93.7614 50.6265 92.0787 50.4876 90.402M54.8849 89.564C54.7732 89.157 54.6021 88.1365 54.8111 87.3107M51.9175 101.217C52.2443 100.599 52.9416 99.6395 53.6321 99.5301C54.3226 99.4208 54.7369 99.3552 55.1949 99.5657C55.653 99.7763 56.2272 99.8269 56.7796 99.7394C57.2215 99.6694 57.6711 99.4095 57.8406 99.2883M53.6771 102.496C53.7473 102.343 53.9706 102.025 54.302 101.972C54.7163 101.907 55.1743 102.117 55.3343 102.233M60.4795 99.8612L61.6417 98.2615M39.8485 95.6261C40.0017 96.5928 40.126 98.2718 41.2964 98.5111C42.4668 98.7504 43.0192 98.663 44.139 99.4765C45.0275 100.122 46.7812 101.165 47.9799 102.124M60.8951 102.485C60.3358 103.423 59.5223 104.543 58.7374 104.95C57.9526 105.358 56.8547 104.682 55.9605 104.399C55.0663 104.116 54.4414 104.64 53.7509 104.749C53.0604 104.858 51.9994 105.31 51.1271 105.165C50.565 105.071 50.1778 104.598 49.6993 103.975M47.9799 102.124C48.2919 102.374 48.5663 102.617 48.7781 102.847C49.1429 103.242 49.435 103.632 49.6993 103.975M47.9799 102.124C48.0837 102.532 48.322 103.542 48.4445 104.316C48.5976 105.282 49.2224 104.759 49.4549 104.439L49.6993 103.975" stroke="black" stroke-width="0.437942"/>
<path d="M40.2745 88.481C40.8173 88.6309 42.3698 89.1967 44.2369 90.2599C46.5708 91.589 47.5744 92.5625 48.6873 94.2266" stroke="black" stroke-width="0.437942"/>
<path d="M40.5709 88.5752L41.2927 93.1324C42.1144 93.8516 46.5267 94.0022 48.3219 93.7178C45.9014 90.5905 42.146 88.9863 40.5709 88.5752Z" fill="white" stroke="black" stroke-width="0.437942"/>
<path d="M44.9456 93.8282C43.7939 92.9914 43.3692 90.7276 43.3009 89.7003C45.8659 90.8795 47.7194 92.8698 48.3256 93.7175C47.4364 93.764 45.5155 93.8512 44.9456 93.8282Z" fill="#008086" stroke="black" stroke-width="0.437942"/>
<circle cx="45.0301" cy="91.6915" r="0.699093" transform="rotate(-9 45.0301 91.6915)" fill="white"/>
<circle cx="45.5533" cy="92.3165" r="0.838912" transform="rotate(-9 45.5533 92.3165)" fill="black"/>
<path d="M55.693 89.295C55.6525 89.7544 55.9386 91.1435 56.0867 91.7807C56.999 90.3905 57.4641 89.156 57.5826 88.7126L56.8539 85.0058C56.4838 86.2441 55.7335 88.8356 55.693 89.295Z" fill="white" stroke="black" stroke-width="0.437942"/>
<path d="M57.0873 90.0647C57.0808 88.5935 56.628 87.1646 56.4024 86.6341L55.6913 89.2948L55.7569 89.7091L56.1069 91.9187C56.2933 91.606 56.7504 90.7975 57.0873 90.0647Z" fill="#008086" stroke="black" stroke-width="0.437942"/>
<path d="M56.4704 89.7379C56.5229 90.0694 56.0611 90.1331 55.8236 90.1235L55.6705 89.1568C55.7261 88.9121 55.8926 88.4138 56.1135 88.3788C56.3897 88.3351 56.4048 89.3236 56.4704 89.7379Z" fill="black" stroke="black" stroke-width="0.437942"/>
<rect x="0.838379" y="22.3877" width="65.4723" height="126.31" rx="3.50353" transform="rotate(-9 0.838379 22.3877)" fill="#005BA6"/>
</g>
<rect x="4.29877" y="16.2021" width="65.2154" height="126.287" rx="3.48979" transform="rotate(-9 4.29877 16.2021)" fill="#EB9318"/>
<rect x="6.82373" y="32.1436" width="65.2154" height="3.92601" transform="rotate(-9 6.82373 32.1436)" fill="white"/>
<rect x="7.02844" y="33.436" width="65.2154" height="1.30867" transform="rotate(-9 7.02844 33.436)" fill="#61B9F5"/>
<g clip-path="url(#clip0_40000647_58684)">
<rect x="7.43787" y="36.0215" width="65.2154" height="99.677" transform="rotate(-9 7.43787 36.0215)" fill="url(#paint0_linear_40000647_58684)"/>
<path d="M20.9897 97.0325L13.1571 100.32L16.9261 135.293L90.6346 124.615L84.4216 93.071L67.5541 91.7043L66.1376 93.5882L57.5166 93.294L50.9606 93.1154L41.9206 95.7642L20.9897 97.0325Z" fill="#4C3826"/>
<path d="M56.8623 97.5466L87.2922 96.8759L89.1726 108.748L90.3778 116.357L73.8657 109.9L31.9441 106.472L20.8141 104.307L44.3815 98.0297L56.8623 97.5466Z" fill="#625953"/>
<path d="M81.3078 121.611L92.6372 124.684L15.1282 135.467L11.6067 113.233L17.4338 115.796L24.0918 115.571L41.452 113.762L58.5331 116.478L60.7895 118.499L72.4057 121.638L81.3078 121.611Z" fill="#625953"/>
<g filter="url(#filter1_iif_40000647_58684)">
<path d="M104.074 40.5724C96.2766 35.5707 45.1362 41.7903 17.8786 78.9351C-9.37904 116.08 35.6719 124.022 54.1927 115.775C73.46 107.195 84.6541 85.8811 86.316 73.6001C87.9779 61.3191 82.743 51.6556 63.0617 61.3347" stroke="#FEF28E" stroke-width="3.48979" stroke-linecap="round" stroke-linejoin="bevel"/>
</g>
<g filter="url(#filter2_f_40000647_58684)">
<circle cx="46.8537" cy="86.2005" r="23.6651" transform="rotate(-9 46.8537 86.2005)" fill="#FEF28E"/>
</g>
<path d="M30.0305 65.158C30.1964 66.2051 31.5699 76.6954 32.676 81.861L38.4545 74.8719C36.6375 72.1053 32.6924 66.1292 31.4484 64.3575C29.8933 62.1428 29.8647 64.1109 30.0305 65.158Z" fill="#E3E2E0" stroke="#413226" stroke-width="0.436223"/>
<path d="M35.9312 102.577C35.8994 100.724 36.6884 97.7712 37.11 96.631L43.4296 96.8606L43.4763 98.9738C41.2986 101.038 36.947 105.38 36.6201 105.432C36.2115 105.496 35.963 104.431 35.9312 102.577Z" fill="#E3E2E0" stroke="#413226" stroke-width="0.436223"/>
<path d="M48.2067 104.377C48.9111 101.386 45.9409 100.154 44.93 100.053L63.351 77.8402C63.2455 80.2044 62.6927 85.9818 61.3257 90.1778C59.6169 95.4227 60.8772 94.1235 60.9178 97.5205C58.3391 105.207 50.4638 104.412 48.2067 104.377Z" fill="#E3E2E0" stroke="#413226" stroke-width="0.436223"/>
<path d="M29.9075 83.0585C28.8519 85.3201 28.4551 87.6083 28.0808 89.2123C27.2412 101.598 34.7566 94.8309 35.997 93.9014C36.9892 93.1578 43.3683 87.6026 46.4338 84.9179L69.6435 68.8061L75.9357 42.4145L92.0624 29.519C95.8634 28.0618 103.602 25.1152 104.147 24.987C104.828 24.8267 104.937 24.5215 104.552 24.2421C104.168 23.9626 101.335 22.6049 89.3091 26.1851C77.2833 29.7654 70.5179 36.3086 67.7798 39.5174C65.0416 42.7262 63.5773 50.341 60.7012 57.4726C57.8251 64.6041 46.0454 68.2501 40.7731 70.9963C35.5007 73.7426 30.963 80.7969 29.9075 83.0585Z" fill="#EEE9E3" stroke="#413226" stroke-width="0.436223"/>
<path d="M36.6591 98.247L37.869 101.092C76.2235 82.0844 72.5953 65.4585 74.9907 50.994C77.386 36.5296 91.4843 30.8197 96.3331 27.8787C94.0912 28.6003 86.5984 30.7245 79.7301 35.7918C72.8618 40.859 71.3562 52.0148 70.8519 54.4509C70.3476 56.887 70.6231 62.2627 63.8607 66.8419C57.0984 71.4211 54.5421 75.2818 48.5203 82.388C37.4272 93.6746 33.1251 95.7698 32.1588 96.4464C33.886 96.508 35.7667 97.8472 36.6591 98.247Z" fill="#4C4B50"/>
<path d="M51.3576 79.0832C51.7202 78.5841 56.1739 73.2412 58.7015 71.0743C61.2291 68.9073 66.5455 65.5257 67.6728 63.5805C68.8001 61.6353 70.5791 58.9244 70.8885 53.9067C71.1979 48.889 74.5682 42.2824 75.384 41.1595" stroke="#413226" stroke-width="0.436223"/>
<path d="M35.0335 97.4049C37.095 95.8741 44.3707 89.2558 48.8326 85.8467C53.7604 82.0817 64.5207 71.9997 66.219 70.1599C67.9173 68.32 69.4192 62.0919 70.2938 58.0263M37.2269 99.021C42.057 96.2925 53.13 88.0197 55.851 85.3634C58.5719 82.7072 66.8231 76.9496 70.05 69.5531C73.2768 62.1566 74.1151 52.5727 75.0082 50.9389" stroke="black" stroke-width="0.436223"/>
<ellipse cx="43.1311" cy="94.38" rx="1.9135" ry="2.14622" transform="rotate(-1.96777 43.1311 94.38)" fill="#4C863A"/>
<ellipse cx="39.9624" cy="90.3411" rx="2.97368" ry="3.15469" transform="rotate(-9 39.9624 90.3411)" fill="#4C863A"/>
<circle cx="39.9261" cy="90.6085" r="1.55149" transform="rotate(-9 39.9261 90.6085)" fill="#913E3A"/>
<ellipse cx="39.9423" cy="90.7109" rx="0.206865" ry="0.362013" transform="rotate(-9 39.9423 90.7109)" fill="black"/>
<path d="M33.8274 86.9144C32.7719 89.176 29.0075 87.3719 28.6332 88.9759C27.7935 101.361 34.5412 94.8649 35.7815 93.9354C36.7738 93.1918 43.1529 87.6366 46.2184 84.9519L42.4232 82.8091L39.1242 82.0143C33.8518 84.7605 34.883 84.6528 33.8274 86.9144Z" fill="#EEE9E3"/>
<path d="M30.9714 95.6548C31.0806 96.3444 31.9732 96.3601 32.6224 95.9955C31.3806 96.7507 28.7492 97.7242 28.1578 95.5769C26.9667 89.8749 28.7113 86.5093 29.6234 85.1605C30.5356 83.8118 30.5656 84.828 30.6427 85.8107C30.7198 86.7933 30.8622 94.9653 30.9714 95.6548Z" fill="#D4B54F" stroke="#413226" stroke-width="0.436223"/>
<path d="M32.4125 96.1064C35.2579 94.5516 44.9838 85.9667 45.5324 85.5264" stroke="#413226" stroke-width="0.436223"/>
<path d="M46.917 100.367C40.0915 102.233 38.0412 104.495 36.7242 105.437C36.8012 103.278 39.6088 101.995 42.3836 99.5138C46.2473 94.3202 45.7653 87.1446 45.5133 85.7184C45.3116 84.5775 44.7416 84.7585 44.4818 84.9917C42.2934 87.1534 38.5767 90.1891 41.2165 85.0376C44.5164 78.5982 43.6984 60.3752 43.6737 59.2272C43.6489 58.0792 44.1597 57.9983 44.714 58.853C45.2683 59.7077 47.7545 66.6445 51.1453 78.962C54.5362 91.2795 50.8876 96.6746 49.9434 98.3164C48.9991 99.9583 48.413 99.894 46.917 100.367Z" fill="#EEE9E3" stroke="#413226" stroke-width="0.436223"/>
<g filter="url(#filter3_if_40000647_58684)">
<path d="M4.00101 57.5446C5.96561 51.8231 13.3513 36.4097 20.1299 31.8028" stroke="#FEF28E" stroke-width="3.48979" stroke-linecap="round" stroke-linejoin="bevel"/>
</g>
<g filter="url(#filter4_if_40000647_58684)">
<path d="M29.0688 43.9618C33.582 39.9336 66.3809 16.6944 74.5468 15.9941" stroke="#FEF28E" stroke-width="2.18112" stroke-linecap="round" stroke-linejoin="bevel"/>
</g>
<g filter="url(#filter5_if_40000647_58684)">
<path d="M96.6578 92.1368C93.2793 97.1549 67.2366 127.775 59.4967 130.471" stroke="#FEF28E" stroke-width="2.18112" stroke-linecap="round" stroke-linejoin="bevel"/>
</g>
</g>
<defs>
<filter id="filter0_d_40000647_58684" x="0.838867" y="0.124519" width="98.5325" height="148.311" filterUnits="userSpaceOnUse" color-interpolation-filters="sRGB">
<feFlood flood-opacity="0" result="BackgroundImageFix"/>
<feColorMatrix in="SourceAlpha" type="matrix" values="0 0 0 0 0 0 0 0 0 0 0 0 0 0 0 0 0 0 127 0" result="hardAlpha"/>
<feOffset dx="7.82259" dy="-5.21506"/>
<feGaussianBlur stdDeviation="3.35755"/>
<feComposite in2="hardAlpha" operator="out"/>
<feColorMatrix type="matrix" values="0 0 0 0 0.784314 0 0 0 0 0.843137 0 0 0 0 0.909804 0 0 0 0.25 0"/>
<feBlend mode="normal" in2="BackgroundImageFix" result="effect1_dropShadow_40000647_58684"/>
<feBlend mode="normal" in="SourceGraphic" in2="effect1_dropShadow_40000647_58684" result="shape"/>
</filter>
<filter id="filter1_iif_40000647_58684" x="3.66335" y="33.4011" width="106.081" height="91.0078" filterUnits="userSpaceOnUse" color-interpolation-filters="sRGB">
<feFlood flood-opacity="0" result="BackgroundImageFix"/>
<feBlend mode="normal" in="SourceGraphic" in2="BackgroundImageFix" result="shape"/>
<feColorMatrix in="SourceAlpha" type="matrix" values="0 0 0 0 0 0 0 0 0 0 0 0 0 0 0 0 0 0 127 0" result="hardAlpha"/>
<feOffset dy="0.872447"/>
<feGaussianBlur stdDeviation="0.436223"/>
<feComposite in2="hardAlpha" operator="arithmetic" k2="-1" k3="1"/>
<feColorMatrix type="matrix" values="0 0 0 0 1 0 0 0 0 1 0 0 0 0 1 0 0 0 0.7 0"/>
<feBlend mode="normal" in2="shape" result="effect1_innerShadow_40000647_58684"/>
<feColorMatrix in="SourceAlpha" type="matrix" values="0 0 0 0 0 0 0 0 0 0 0 0 0 0 0 0 0 0 127 0" result="hardAlpha"/>
<feOffset dy="0.872447"/>
<feGaussianBlur stdDeviation="0.436223"/>
<feComposite in2="hardAlpha" operator="arithmetic" k2="-1" k3="1"/>
<feColorMatrix type="matrix" values="0 0 0 0 1 0 0 0 0 0.9 0 0 0 0 0 0 0 0 0.85 0"/>
<feBlend mode="normal" in2="effect1_innerShadow_40000647_58684" result="effect2_innerShadow_40000647_58684"/>
<feGaussianBlur stdDeviation="1.963" result="effect3_foregroundBlur_40000647_58684"/>
</filter>
<filter id="filter2_f_40000647_58684" x="3.55513" y="42.9017" width="86.5973" height="86.5975" filterUnits="userSpaceOnUse" color-interpolation-filters="sRGB">
<feFlood flood-opacity="0" result="BackgroundImageFix"/>
<feBlend mode="normal" in="SourceGraphic" in2="BackgroundImageFix" result="shape"/>
<feGaussianBlur stdDeviation="9.81502" result="effect1_foregroundBlur_40000647_58684"/>
</filter>
<filter id="filter3_if_40000647_58684" x="-2.10656" y="25.6954" width="28.3438" height="37.9569" filterUnits="userSpaceOnUse" color-interpolation-filters="sRGB">
<feFlood flood-opacity="0" result="BackgroundImageFix"/>
<feBlend mode="normal" in="SourceGraphic" in2="BackgroundImageFix" result="shape"/>
<feColorMatrix in="SourceAlpha" type="matrix" values="0 0 0 0 0 0 0 0 0 0 0 0 0 0 0 0 0 0 127 0" result="hardAlpha"/>
<feOffset dy="0.872447"/>
<feGaussianBlur stdDeviation="0.436223"/>
<feComposite in2="hardAlpha" operator="arithmetic" k2="-1" k3="1"/>
<feColorMatrix type="matrix" values="0 0 0 0 1 0 0 0 0 1 0 0 0 0 1 0 0 0 0.25 0"/>
<feBlend mode="normal" in2="shape" result="effect1_innerShadow_40000647_58684"/>
<feGaussianBlur stdDeviation="2.18112" result="effect2_foregroundBlur_40000647_58684"/>
</filter>
<filter id="filter4_if_40000647_58684" x="23.6159" y="10.5411" width="56.3838" height="38.8734" filterUnits="userSpaceOnUse" color-interpolation-filters="sRGB">
<feFlood flood-opacity="0" result="BackgroundImageFix"/>
<feBlend mode="normal" in="SourceGraphic" in2="BackgroundImageFix" result="shape"/>
<feColorMatrix in="SourceAlpha" type="matrix" values="0 0 0 0 0 0 0 0 0 0 0 0 0 0 0 0 0 0 127 0" result="hardAlpha"/>
<feOffset dy="0.872447"/>
<feGaussianBlur stdDeviation="0.436223"/>
<feComposite in2="hardAlpha" operator="arithmetic" k2="-1" k3="1"/>
<feColorMatrix type="matrix" values="0 0 0 0 1 0 0 0 0 1 0 0 0 0 1 0 0 0 0.25 0"/>
<feBlend mode="normal" in2="shape" result="effect1_innerShadow_40000647_58684"/>
<feGaussianBlur stdDeviation="2.18112" result="effect2_foregroundBlur_40000647_58684"/>
</filter>
<filter id="filter5_if_40000647_58684" x="54.0435" y="86.6837" width="48.0671" height="49.2401" filterUnits="userSpaceOnUse" color-interpolation-filters="sRGB">
<feFlood flood-opacity="0" result="BackgroundImageFix"/>
<feBlend mode="normal" in="SourceGraphic" in2="BackgroundImageFix" result="shape"/>
<feColorMatrix in="SourceAlpha" type="matrix" values="0 0 0 0 0 0 0 0 0 0 0 0 0 0 0 0 0 0 127 0" result="hardAlpha"/>
<feOffset dy="0.872447"/>
<feGaussianBlur stdDeviation="0.436223"/>
<feComposite in2="hardAlpha" operator="arithmetic" k2="-1" k3="1"/>
<feColorMatrix type="matrix" values="0 0 0 0 1 0 0 0 0 1 0 0 0 0 1 0 0 0 0.25 0"/>
<feBlend mode="normal" in2="shape" result="effect1_innerShadow_40000647_58684"/>
<feGaussianBlur stdDeviation="2.18112" result="effect2_foregroundBlur_40000647_58684"/>
</filter>
<linearGradient id="paint0_linear_40000647_58684" x1="40.0456" y1="36.0215" x2="40.0456" y2="135.699" gradientUnits="userSpaceOnUse">
<stop stop-color="#142F48"/>
<stop offset="0.178715" stop-color="#473458"/>
<stop offset="0.346152" stop-color="#5B3152"/>
<stop offset="0.547474" stop-color="#A25E3A"/>
<stop offset="1" stop-color="#9B5331"/>
</linearGradient>
<clipPath id="clip0_40000647_58684">
<rect width="65.2154" height="99.677" fill="white" transform="translate(7.43787 36.0215) rotate(-9)"/>
</clipPath>
</defs>
</svg>
