<svg width="99" height="149" viewBox="0 0 99 149" fill="none"
  xmlns="http://www.w3.org/2000/svg">
  <g opacity="0.2" filter="url(#filter0_d_415_15311)">
    <rect x="-0.000488281" y="22.2031" width="65.4723" height="126.784" rx="3.50353" transform="rotate(-9 -0.000488281 22.2031)" fill="#A158ED"/>
    <rect x="2.53455" y="38.2075" width="65.4723" height="3.94148" transform="rotate(-9 2.53455 38.2075)" fill="white"/>
    <rect x="2.73975" y="39.5051" width="65.4723" height="1.31383" transform="rotate(-9 2.73975 39.5051)" fill="#61B9F5"/>
    <rect x="3.14941" y="42.1006" width="65.4723" height="100.07" transform="rotate(-9 3.14941 42.1006)" fill="#4D6ECB"/>
    <path d="M10.0701 85.7881L77.8363 95.1188L81.6728 119.342L17.0066 129.584L10.0701 85.7881Z" fill="#65612E"/>
    <path d="M37.2627 120.168C26.6506 119.543 17.2704 113.136 13.9067 110.011L18.8051 140.938L83.4714 130.696L80.1829 109.934C70.2979 113.605 47.8748 120.793 37.2627 120.168Z" fill="#CDB389"/>
    <path d="M35.2191 96.793C33.5538 95.2164 34.4317 91.8215 34.5179 89.6844C34.7445 87.242 34.0804 86.9224 33.7305 84.7129C33.3805 82.5033 29.6206 78.4273 26.9011 76.4515C24.1816 74.4757 23.323 72.6298 24.7396 70.8483C26.1561 69.0667 33.7403 74.9436 36.2999 76.8032C38.8594 78.6628 40.3128 78.0079 42.9435 76.7419C45.5742 75.4758 43.4633 69.2983 43.0915 66.9507C42.7197 64.603 41.9773 62.5972 44.2812 61.9492C46.5851 61.3011 47.8743 66.7594 49.7665 71.5559C51.6587 76.3525 53.7095 78.5757 55.0549 79.9198C56.4003 81.2639 56.0666 82.7324 55.9654 83.8809C55.8642 85.0294 56.4903 87.1952 56.9853 88.5325C57.4802 89.8697 58.0695 90.9088 58.9062 92.6166C59.7429 94.3244 60.4115 94.0769 61.4151 95.0505C62.4187 96.024 62.0412 97.2163 61.8744 97.9505C61.7076 98.6847 61.1921 99.8989 60.7928 100.953C60.3935 102.007 59.8124 102.807 59.6893 103.817C59.5662 104.828 58.3383 106.013 57.2336 106.188C56.1288 106.363 54.9515 106.974 53.5418 107.906C52.1321 108.837 48.7221 106.97 48.2422 106.621C47.7623 106.273 41.2323 100.795 39.9526 99.8654C38.6728 98.9356 36.8844 98.3695 35.2191 96.793Z" fill="#F29600" stroke="black" stroke-width="0.437942"/>
    <path d="M44.8498 101.763C43.3926 101.661 42.2139 100.518 39.7032 99.3637L39.7374 99.58L44.9589 103.852L47.2308 105.598L48.8935 106.998L50.9203 107.896L53.1686 108.094L54.5969 107.314L56.2415 106.499L58.0456 105.992L59.3143 104.904L59.7748 103.612L59.3422 103.68L60.1442 102.445L61.8327 98.4083L62.048 96.2681L61.4099 95.0389L60.4078 94.3108L59.3714 93.3665L58.3972 91.4146L56.9787 88.7572L56.2314 85.4392L56.0088 84.0334L56.0474 81.4777L55.4264 80.3567L53.2852 78.0355L51.2746 75.1393L49.8497 71.0418L47.2342 65.0267L46.1004 62.7676C44.5855 60.9014 42.5339 62.6452 42.7257 63.8564C42.9655 65.3703 43.1421 65.7857 43.08 66.7932C43.0179 67.8007 44.3175 71.8072 44.5059 72.9967C44.6943 74.1862 44.1996 75.2621 43.8699 75.9795L43.8698 75.9795C43.2753 77.2727 41.5711 77.563 41.0304 77.6486C40.5978 77.7171 39.2092 78.0479 38.5604 78.1507C38.8355 78.2549 39.4359 78.4997 39.6364 78.6453C39.8869 78.8274 42.7274 79.2643 44.3098 79.457C45.8922 79.6498 50.0753 78.7656 51.1685 79.3684C52.2616 79.9712 54.4885 82.8332 54.7625 84.5634C55.0365 86.2936 56.4497 89.6169 56.6949 90.4649C56.94 91.3129 57.6124 92.7583 58.8939 94.5506C60.1754 96.343 60.033 96.1438 59.3221 97.2541C58.6111 98.3643 57.6893 98.8429 56.7449 99.8793C55.8006 100.916 54.5875 99.5558 53.3638 99.528C52.14 99.5001 52.0265 100.183 51.338 100.736C50.6496 101.288 50.1892 102.58 49.1645 102.41C48.1399 102.24 46.307 101.865 44.8498 101.763Z" fill="#D7890A"/>
    <path d="M35.2191 96.793C33.5538 95.2164 34.4317 91.8215 34.5179 89.6844C34.7445 87.242 34.0804 86.9224 33.7305 84.7129C33.3805 82.5033 29.6206 78.4273 26.9011 76.4515C24.1816 74.4757 23.323 72.6298 24.7396 70.8483C26.1561 69.0667 33.7403 74.9436 36.2999 76.8032C38.8594 78.6628 40.3128 78.0079 42.9435 76.7419C45.5742 75.4758 43.4633 69.2983 43.0915 66.9507C42.7197 64.603 41.9773 62.5972 44.2812 61.9492C46.5851 61.3011 47.8743 66.7594 49.7665 71.5559C51.6587 76.3525 53.7095 78.5757 55.0549 79.9198C56.4003 81.2639 56.0666 82.7324 55.9654 83.8809C55.8642 85.0294 56.4903 87.1952 56.9853 88.5325C57.4802 89.8697 58.0695 90.9088 58.9062 92.6166C59.7429 94.3244 60.4115 94.0769 61.4151 95.0505C62.4187 96.024 62.0412 97.2163 61.8744 97.9505C61.7076 98.6847 61.1921 99.8989 60.7928 100.953C60.3935 102.007 59.8124 102.807 59.6893 103.817C59.5662 104.828 58.3383 106.013 57.2336 106.188C56.1288 106.363 54.9515 106.974 53.5418 107.906C52.1321 108.837 48.7221 106.97 48.2422 106.621C47.7623 106.273 41.2323 100.795 39.9526 99.8654C38.6728 98.9356 36.8844 98.3695 35.2191 96.793Z" stroke="black" stroke-width="0.437942"/>
    <path d="M37.7091 77.571C38.4871 78.0141 39.3088 78.7333 39.8612 78.6458C40.4136 78.5583 42.3838 79.3787 43.5036 80.1923" stroke="black" stroke-width="0.437942"/>
    <path d="M47.6056 104.316C47.7587 105.282 48.3836 104.759 48.616 104.439L48.8604 103.975C48.5961 103.632 48.304 103.243 47.9393 102.847C47.7275 102.618 47.4531 102.374 47.141 102.124C47.2449 102.533 47.4831 103.542 47.6056 104.316Z" fill="white"/>
    <path d="M48.9351 87.684C49.2017 87.8778 49.738 88.4629 49.75 89.2537M48.5821 94.3933C48.9955 93.7616 49.7876 92.079 49.6487 90.4022M54.046 89.5642C53.9343 89.1572 53.7633 88.1368 53.9722 87.3109M51.0786 101.218C51.4054 100.6 52.1028 99.6397 52.7932 99.5304C53.4837 99.421 53.898 99.3554 54.3561 99.566C54.8141 99.7766 55.3884 99.8272 55.9407 99.7397C56.3827 99.6697 56.8322 99.4097 57.0018 99.2885M52.8383 102.496C52.9085 102.343 53.1317 102.025 53.4631 101.972C53.8774 101.907 54.3355 102.117 54.4954 102.234M59.6406 99.8615L60.8029 98.2618M39.0097 95.6263C39.1628 96.593 39.2872 98.2721 40.4576 98.5114C41.628 98.7507 42.1803 98.6632 43.3001 99.4768C44.1887 100.122 45.9423 101.166 47.141 102.124M60.0562 102.485C59.4969 103.423 58.6834 104.543 57.8985 104.95C57.1137 105.358 56.0158 104.682 55.1216 104.399C54.2274 104.116 53.6025 104.64 52.912 104.749C52.2216 104.859 51.1605 105.31 50.2882 105.165C49.7262 105.072 49.339 104.598 48.8604 103.975M47.141 102.124C47.4531 102.374 47.7275 102.618 47.9393 102.847C48.304 103.243 48.5961 103.632 48.8604 103.975M47.141 102.124C47.2449 102.533 47.4831 103.542 47.6056 104.316C47.7587 105.282 48.3836 104.759 48.616 104.439L48.8604 103.975" stroke="black" stroke-width="0.437942"/>
    <path d="M39.4357 88.481C39.9785 88.6309 41.5309 89.1967 43.398 90.2599C45.732 91.589 46.7355 92.5625 47.8484 94.2266" stroke="black" stroke-width="0.437942"/>
    <path d="M39.7321 88.5752L40.4538 93.1324C41.2756 93.8516 45.6878 94.0022 47.4831 93.7178C45.0625 90.5905 41.3072 88.9863 39.7321 88.5752Z" fill="white" stroke="black" stroke-width="0.437942"/>
    <path d="M44.1068 93.8282C42.955 92.9914 42.5304 90.7276 42.462 89.7003C45.027 90.8795 46.8806 92.8698 47.4867 93.7175C46.5975 93.764 44.6767 93.8512 44.1068 93.8282Z" fill="#008086" stroke="black" stroke-width="0.437942"/>
    <circle cx="44.1912" cy="91.6915" r="0.699093" transform="rotate(-9 44.1912 91.6915)" fill="white"/>
    <circle cx="44.7145" cy="92.3162" r="0.838912" transform="rotate(-9 44.7145 92.3162)" fill="black"/>
    <path d="M54.8541 89.2947C54.8136 89.7541 55.0997 91.1433 55.2478 91.7805C56.1601 90.3902 56.6252 89.1558 56.7437 88.7123L56.0151 85.0056C55.645 86.2439 54.8946 88.8353 54.8541 89.2947Z" fill="white" stroke="black" stroke-width="0.437942"/>
    <path d="M56.2484 90.0649C56.2419 88.5937 55.7891 87.1649 55.5635 86.6343L54.8524 89.2951L54.9181 89.7094L55.268 91.9189C55.4544 91.6063 55.9115 90.7978 56.2484 90.0649Z" fill="#008086" stroke="black" stroke-width="0.437942"/>
    <path d="M55.6315 89.7379C55.684 90.0694 55.2222 90.1331 54.9848 90.1235L54.8317 89.1568C54.8873 88.9121 55.0537 88.4138 55.2747 88.3788C55.5509 88.3351 55.5659 89.3236 55.6315 89.7379Z" fill="black" stroke="black" stroke-width="0.437942"/>
    <rect x="-0.000488281" y="22.3877" width="65.4723" height="126.31" rx="3.50353" transform="rotate(-9 -0.000488281 22.3877)" fill="#005BA6"/>
  </g>
  <rect x="3.45996" y="16.2019" width="65.2154" height="126.287" rx="3.48979" transform="rotate(-9 3.45996 16.2019)" fill="#F370FA"/>
  <rect x="5.98486" y="32.1436" width="65.2154" height="3.92601" transform="rotate(-9 5.98486 32.1436)" fill="white"/>
  <rect x="6.18958" y="33.436" width="65.2154" height="1.30867" transform="rotate(-9 6.18958 33.436)" fill="#61B9F5"/>
  <g opacity="0.7">
    <path fill-rule="evenodd" clip-rule="evenodd" d="M51.4193 77.4498L64.8427 75.3238C62.3883 65.9482 53.1733 59.7817 43.3991 61.3298C33.6248 62.8779 26.7664 71.5901 27.3293 81.2653L40.753 79.1392C41.1814 76.8199 43.0268 74.9145 45.489 74.5246C47.9512 74.1346 50.2951 75.3764 51.4193 77.4498Z" fill="white"/>
    <mask id="path-26-inside-1_415_15311" fill="white">
      <path fill-rule="evenodd" clip-rule="evenodd" d="M41.3502 82.9093L27.9265 85.0354C30.3809 94.411 39.5959 100.578 49.3702 99.0295C59.1445 97.4814 66.0029 88.7691 65.44 79.0939L52.0165 81.2199C51.588 83.5392 49.7426 85.4446 47.2804 85.8346C44.8182 86.2245 42.4743 84.9827 41.3502 82.9093Z"/>
    </mask>
    <path d="M41.3502 82.9093L42.5486 82.2595L42.0891 81.4121L41.1369 81.5629L41.3502 82.9093ZM27.9265 85.0354L27.7133 83.689L26.2266 83.9245L26.6078 85.3806L27.9265 85.0354ZM65.44 79.0939L66.8009 79.0147L66.7134 77.512L65.2267 77.7474L65.44 79.0939ZM52.0165 81.2199L51.8032 79.8735L50.8511 80.0243L50.676 80.9723L52.0165 81.2199ZM41.1369 81.5629L27.7133 83.689L28.1398 86.3818L41.5634 84.2557L41.1369 81.5629ZM26.6078 85.3806C29.2378 95.4274 39.1102 102.035 49.5835 100.376L49.157 97.6831C40.0817 99.1205 31.524 93.3947 29.2453 84.6902L26.6078 85.3806ZM49.5835 100.376C60.0567 98.7171 67.4041 89.3824 66.8009 79.0147L64.0791 79.173C64.6018 88.1557 58.2323 96.2457 49.157 97.6831L49.5835 100.376ZM65.2267 77.7474L51.8032 79.8735L52.2297 82.5663L65.6532 80.4403L65.2267 77.7474ZM50.676 80.9723C50.3492 82.7413 48.941 84.1914 47.0672 84.4881L47.4937 87.181C50.5442 86.6978 52.8269 84.3372 53.357 81.4676L50.676 80.9723ZM47.0672 84.4881C45.1933 84.7849 43.406 83.841 42.5486 82.2595L40.1518 83.5591C41.5427 86.1244 44.4431 87.6641 47.4937 87.181L47.0672 84.4881Z" fill="white" mask="url(#path-26-inside-1_415_15311)"/>
    <path fill-rule="evenodd" clip-rule="evenodd" d="M65.0868 76.2512L50.3733 78.5816C49.6456 76.7606 47.7332 75.6181 45.7147 75.9378C43.6962 76.2575 42.2304 77.9351 42.101 79.8918L27.3872 82.2222L27.6858 84.1072L42.3996 81.7767C43.1274 83.5975 45.0398 84.7399 47.0582 84.4202C49.0765 84.1005 50.5423 82.4231 50.6718 80.4665L65.3854 78.1361L65.0868 76.2512ZM46.7595 82.5352C48.0608 82.3291 48.9486 81.1071 48.7425 79.8058C48.5364 78.5045 47.3144 77.6167 46.0131 77.8228C44.7118 78.0289 43.8239 79.2509 44.03 80.5522C44.2361 81.8535 45.4582 82.7414 46.7595 82.5352Z" fill="white"/>
  </g>
  <defs>
    <filter id="filter0_d_415_15311" x="0" y="0.124519" width="98.5325" height="148.311" filterUnits="userSpaceOnUse" color-interpolation-filters="sRGB">
      <feFlood flood-opacity="0" result="BackgroundImageFix"/>
      <feColorMatrix in="SourceAlpha" type="matrix" values="0 0 0 0 0 0 0 0 0 0 0 0 0 0 0 0 0 0 127 0" result="hardAlpha"/>
      <feOffset dx="7.82259" dy="-5.21506"/>
      <feGaussianBlur stdDeviation="3.35755"/>
      <feComposite in2="hardAlpha" operator="out"/>
      <feColorMatrix type="matrix" values="0 0 0 0 0.784314 0 0 0 0 0.843137 0 0 0 0 0.909804 0 0 0 0.25 0"/>
      <feBlend mode="normal" in2="BackgroundImageFix" result="effect1_dropShadow_415_15311"/>
      <feBlend mode="normal" in="SourceGraphic" in2="effect1_dropShadow_415_15311" result="shape"/>
    </filter>
  </defs>
</svg>
