<svg width="48" height="80" viewBox="0 0 48 80" fill="none"
  xmlns="http://www.w3.org/2000/svg">
  <g clip-path="url(#clip0_40000007_23069)">
    <g filter="url(#filter0_d_40000007_23069)">
      <rect x="-7" y="9.62842" width="50.2178" height="97.2445" rx="2.68724" transform="rotate(-3 -7 9.62842)" fill="#A158ED"/>
      <rect x="-6.34961" y="22.04" width="50.2178" height="3.02315" transform="rotate(-3 -6.34961 22.04)" fill="white"/>
      <rect x="-6.29688" y="23.0464" width="50.2178" height="1.00772" transform="rotate(-3 -6.29688 23.0464)" fill="#61B9F5"/>
      <rect x="-6.19238" y="25.0591" width="50.2178" height="76.7543" transform="rotate(-3 -6.19238 25.0591)" fill="#4D6ECB"/>
      <path d="M-4.41602 58.939L46.5285 71.4896L47.513 90.2746L-2.63605 92.9028L-4.41602 58.939Z" fill="#65612E"/>
      <path d="M13.5701 87.344C5.52525 86.0166 -1.11642 80.3773 -3.43164 77.7236L-2.17468 101.708L47.9743 99.0797L47.1305 82.9784C39.2957 84.9867 21.615 88.6715 13.5701 87.344Z" fill="#CDB389"/>
      <path d="M12.1507 60.3497C11.0068 59.0136 11.9486 56.4942 12.1857 54.871C12.5544 53.026 12.0735 52.7291 11.9837 51.0155C11.8939 49.302 9.35256 45.8914 7.43653 44.1662C5.5205 42.441 5.01354 40.9641 6.23694 39.7187C7.46035 38.4733 12.7744 43.5642 14.5778 45.188C16.3811 46.8117 17.5423 46.4287 19.6505 45.6738C21.7588 44.919 20.6438 40.0375 20.5484 38.2169C20.453 36.3963 20.0475 34.8067 21.8569 34.4971C23.6663 34.1875 24.2121 38.4545 25.2709 42.265C26.3297 46.0755 27.7159 47.9359 28.6344 49.069C29.5529 50.2022 29.1806 51.2956 29.0113 52.1636C28.8421 53.0316 29.1461 54.7338 29.4164 55.7936C29.6867 56.8533 30.0529 57.6932 30.5542 59.063C31.0556 60.4328 31.5854 60.2976 32.2729 61.1207C32.9604 61.9438 32.5769 62.823 32.3908 63.3697C32.2046 63.9164 31.7141 64.8012 31.325 65.5734C30.9359 66.3455 30.4285 66.909 30.2536 67.6699C30.0787 68.4308 29.047 69.2366 28.1902 69.2815C27.3335 69.3264 26.3865 69.6982 25.2365 70.2954C24.0865 70.8926 21.635 69.1955 21.2969 68.891C20.9587 68.5866 16.4167 63.8847 15.5151 63.0729C14.6134 62.261 13.2946 61.6858 12.1507 60.3497Z" fill="#F29600" stroke="black" stroke-width="0.335905"/>
      <path d="M19.0981 64.9128C17.9948 64.7183 17.1873 63.7515 15.3646 62.6698L15.3734 62.8375L19.0139 66.5149L20.6069 68.0292L21.763 69.23L23.237 70.0777L24.9362 70.4091L26.0883 69.9283L27.4081 69.4387L28.825 69.1962L29.88 68.4682L30.3348 67.5194L29.9994 67.5369L30.7102 66.6588L32.3218 63.7152L32.6576 62.0999L32.2695 61.1111L31.5634 60.4754L30.8486 59.6719L30.2619 58.1049L29.3929 55.9641L29.0889 53.3732L29.0318 52.283L29.2661 50.3366L28.8823 49.4317L27.4351 47.4893L26.1336 45.1189L25.3751 41.8791L23.8623 37.0811L23.1786 35.2669C22.1726 33.7219 20.4678 34.8876 20.517 35.8268C20.5785 37.0009 20.68 37.3319 20.5518 38.0955C20.4236 38.859 21.0938 42.0194 21.1422 42.9418C21.1905 43.8643 20.7269 44.6454 20.4178 45.1662L20.4178 45.1662C19.8606 46.105 18.5374 46.1897 18.1181 46.2117C17.7826 46.2293 16.6968 46.3703 16.1936 46.3967C16.3952 46.4982 16.8336 46.7331 16.9748 46.8603C17.1513 47.0192 19.283 47.5802 20.4746 47.8541C21.6662 48.128 24.928 47.7889 25.7135 48.3364C26.4991 48.8839 27.9683 51.2455 28.0386 52.5873C28.1089 53.9291 28.9205 56.5775 29.0395 57.244C29.1585 57.9105 29.5555 59.067 30.3893 60.5369C31.2232 62.0068 31.1306 61.8435 30.4992 62.6334C29.8679 63.4233 29.1263 63.7145 28.3229 64.4293C27.5194 65.1442 26.7031 64.0097 25.7719 63.8903C24.8406 63.7709 24.6993 64.2829 24.1298 64.6491C23.5604 65.0153 23.1055 65.9641 22.3376 65.7521C21.5697 65.5401 20.2015 65.1072 19.0981 64.9128Z" fill="#D7890A"/>
      <path d="M12.1507 60.3497C11.0068 59.0136 11.9486 56.4942 12.1857 54.871C12.5544 53.026 12.0735 52.7291 11.9837 51.0155C11.8939 49.302 9.35256 45.8914 7.43653 44.1662C5.5205 42.441 5.01354 40.9641 6.23694 39.7187C7.46035 38.4733 12.7744 43.5642 14.5778 45.188C16.3811 46.8117 17.5423 46.4287 19.6505 45.6738C21.7588 44.919 20.6438 40.0375 20.5484 38.2169C20.453 36.3963 20.0475 34.8067 21.8569 34.4971C23.6663 34.1875 24.2121 38.4545 25.2709 42.265C26.3297 46.0755 27.7159 47.9359 28.6344 49.069C29.5529 50.2022 29.1806 51.2956 29.0113 52.1636C28.8421 53.0316 29.1461 54.7338 29.4164 55.7936C29.6867 56.8533 30.0529 57.6932 30.5542 59.063C31.0556 60.4328 31.5854 60.2976 32.2729 61.1207C32.9604 61.9438 32.5769 62.823 32.3908 63.3697C32.2046 63.9164 31.7141 64.8012 31.325 65.5734C30.9359 66.3455 30.4285 66.909 30.2536 67.6699C30.0787 68.4308 29.047 69.2366 28.1902 69.2815C27.3335 69.3264 26.3865 69.6982 25.2365 70.2954C24.0865 70.8926 21.635 69.1955 21.2969 68.891C20.9587 68.5866 16.4167 63.8847 15.5151 63.0729C14.6134 62.261 13.2946 61.6858 12.1507 60.3497Z" stroke="black" stroke-width="0.335905"/>
      <path d="M15.5908 45.8867C16.1487 46.287 16.7179 46.9015 17.1463 46.8791C17.5747 46.8566 19.0118 47.6404 19.8008 48.3508" stroke="black" stroke-width="0.335905"/>
      <path d="M20.9961 67.0814C21.0354 67.8311 21.554 67.4817 21.757 67.2563L21.9806 66.9224C21.8065 66.6391 21.6149 66.3189 21.3684 65.988C21.2252 65.7959 21.0354 65.5879 20.8174 65.3725C20.8639 65.6923 20.9647 66.4817 20.9961 67.0814Z" fill="white"/>
      <path d="M23.3437 54.5012C23.5316 54.6703 23.8937 55.1597 23.8394 55.7639M22.5365 59.5908C22.9025 59.1421 23.6417 57.922 23.6702 56.6319M27.0916 56.3452C27.039 56.0258 26.9904 55.2336 27.216 54.6204M23.8937 64.9965C24.1926 64.5513 24.8015 63.8751 25.337 63.847C25.8724 63.8189 26.1937 63.8021 26.5262 63.9995C26.8587 64.1968 27.2927 64.2814 27.7211 64.259C28.0638 64.241 28.4276 64.0788 28.5666 63.9999M25.1335 66.1128C25.1993 66.002 25.3951 65.777 25.6522 65.7635C25.9735 65.7466 26.306 65.944 26.4187 66.0455M30.5336 64.6485L31.5485 63.5215M15.1358 59.7639C15.175 60.5135 15.1353 61.8043 16.0089 62.0807C16.8825 62.3571 17.3109 62.3346 18.0998 63.045C18.7259 63.6087 19.9799 64.5451 20.8174 65.3725M30.6403 66.6834C30.1385 67.354 29.4281 68.1429 28.7968 68.3908C28.1654 68.6387 27.3821 68.0354 26.7227 67.7478C26.0633 67.4602 25.5446 67.8095 25.0091 67.8376C24.4737 67.8656 23.6281 68.1247 22.9743 67.9442C22.5531 67.8279 22.2957 67.4356 21.9806 66.9224M20.8174 65.3725C21.0354 65.5879 21.2252 65.7959 21.3684 65.988C21.6149 66.3189 21.8065 66.6391 21.9806 66.9224M20.8174 65.3725C20.8639 65.6923 20.9647 66.4817 20.9961 67.0814C21.0354 67.8311 21.554 67.4817 21.757 67.2563L21.9806 66.9224" stroke="black" stroke-width="0.335905"/>
      <path d="M16.0332 54.3472C16.4352 54.5051 17.5741 55.0611 18.9131 56.0219C20.5869 57.2228 21.2743 58.0459 21.9899 59.4045" stroke="black" stroke-width="0.335905"/>
      <path d="M16.252 54.4429L16.4372 57.977C17.0063 58.5915 20.3599 59.0601 21.7522 58.9871C20.1565 56.4075 17.4205 54.8828 16.252 54.4429Z" fill="white" stroke="black" stroke-width="0.335905"/>
      <path d="M19.1678 58.8009C18.3563 58.0702 18.2139 56.3094 18.2442 55.5203C20.1062 56.6254 21.3606 58.2922 21.755 58.9875C21.073 58.9516 19.6007 58.8641 19.1678 58.8009Z" fill="#008086" stroke="black" stroke-width="0.335905"/>
      <circle cx="19.4034" cy="57.1773" r="0.536211" transform="rotate(-3 19.4034 57.1773)" fill="white"/>
      <circle cx="19.7524" cy="57.6963" r="0.643453" transform="rotate(-3 19.7524 57.6963)" fill="black"/>
      <path d="M27.7296 56.2044C27.6619 56.5515 27.7687 57.6342 27.8306 58.1321C28.638 57.1447 29.0918 56.2404 29.2177 55.9116L28.9591 53.0256C28.5775 53.9405 27.7973 55.8572 27.7296 56.2044Z" fill="white" stroke="black" stroke-width="0.335905"/>
      <path d="M28.7311 56.9032C28.8441 55.7805 28.6133 54.6542 28.4837 54.2315L27.728 56.2041L27.7448 56.5254L27.8346 58.2389C28.0019 58.0153 28.4154 57.4352 28.7311 56.9032Z" fill="#008086" stroke="black" stroke-width="0.335905"/>
      <path d="M28.2869 56.6044C28.3004 56.8614 27.943 56.873 27.7627 56.8467L27.7234 56.097C27.7854 55.9148 27.9523 55.5481 28.1237 55.5391C28.3379 55.5278 28.2701 56.2831 28.2869 56.6044Z" fill="black" stroke="black" stroke-width="0.335905"/>
      <g filter="url(#filter1_d_40000007_23069)">
        <rect x="-4.8252" y="8.19678" width="48.559" height="94.0323" rx="2.59847" transform="rotate(-3 -4.8252 8.19678)" fill="#28BA90"/>
        <rect x="-4.19629" y="20.1982" width="48.559" height="2.92328" transform="rotate(-3 -4.19629 20.1982)" fill="white"/>
        <rect x="-4.14551" y="21.1714" width="48.559" height="0.974428" transform="rotate(-3 -4.14551 21.1714)" fill="#61B9F5"/>
        <g clip-path="url(#clip1_40000007_23069)">
          <rect x="-4.04297" y="23.1177" width="48.559" height="74.2189" transform="rotate(-3 -4.04297 23.1177)" fill="#4D6ECB"/>
          <rect x="-4.83691" y="20.3945" width="50.8326" height="17.0525" transform="rotate(-3 -4.83691 20.3945)" fill="#39C3FF"/>
          <rect x="-2.9834" y="55.75" width="50.8326" height="11.6931" transform="rotate(-3 -2.9834 55.75)" fill="#266DB7"/>
          <path d="M-5.4375 36.8516L46.2387 34.5499L48.1028 39.0871L48.4045 44.8446L-4.83828 48.2854L-5.4375 36.8516Z" fill="#266DB7"/>
          <path d="M42.242 42.0773L43.0058 42.6878L45.8351 43.9219L46.4626 43.4824L46.8043 42.2448L47.1634 39.7866L45.5801 39.0564L39.7972 38.8716L36.6261 38.8752L32.6314 38.678L30.3095 39.3688L26.9848 39.5431L26.6133 40.2131L25.9646 40.2471L24.9742 41.5187L26.0284 41.4634L27.0825 41.4082L28.3074 41.5066L29.8609 41.6691L31.1583 41.6011L32.0631 41.7977L32.7929 41.7594L33.8556 41.8664L34.9909 41.8069L35.7207 41.7686L36.7961 42.1188L37.6881 42.0721L38.7551 42.2601L39.8092 42.2048L40.6201 42.1623L41.5805 41.8681L42.242 42.0773Z" fill="#95768B"/>
          <path d="M44.1638 35.309L45.7856 35.224L46.416 41.0455L45.7672 41.0795L44.457 40.9043L43.4712 40.712L42.5579 40.3533L41.9007 40.2251L40.9917 39.9475L40.4241 39.9772L40.2449 39.6614L39.434 39.7039L38.3798 39.7591L37.8848 39.6224L36.4124 39.4557L34.9527 39.5322L34.765 39.0541L34.1974 39.0839L33.3054 39.1306L32.4304 39.5017L31.628 39.7064L30.8982 39.7446L29.5196 39.8169L26.9803 39.4621L29.0759 39.1083L30.8387 38.6094C31.1332 38.5397 31.7708 38.3979 31.9654 38.3877C32.1601 38.3775 32.6355 38.2442 32.849 38.1788L34.4793 38.2559L37.2364 38.1114L38.0473 38.069L39.9935 37.967L40.3008 37.6256L40.2371 36.4092L40.5958 35.496L41.1422 35.0608C41.4694 35.0978 42.1562 35.1703 42.2859 35.1635L43.1779 35.1167C43.4525 35.1836 44.034 35.3158 44.1638 35.309Z" fill="#FEF8D9"/>
          <path d="M45.4257 42.3169C46.0095 42.2863 46.4029 42.862 46.5266 43.1537L47.7402 55.4498L-2.86058 58.1017L-3.68504 42.37L0.126237 42.1703L2.02992 41.2573L3.81393 41.1639L4.86811 41.1086L5.70452 41.5527L6.45134 41.8388L7.54802 42.5944L8.50411 42.2191L9.5583 42.1638L12.9 42.3139L14.3253 43.1337L15.9086 43.8639L18.2602 43.7406L20.5307 43.6216L21.7128 44.4541L23.3516 44.6935L24.3633 43.8273L26.3905 43.7211L29.3098 43.5681L30.6328 43.9866L32.6771 44.2048L34.2178 44.124L36.0018 44.0305L37.3803 43.9583L39.8517 43.0156L40.9657 42.5507L42.3442 42.4784L43.3046 42.1842C43.7683 42.2412 44.8418 42.3475 45.4257 42.3169Z" fill="#3FA47E"/>
          <path d="M48.6221 62.9661L-3.05414 65.2678L-2.57484 97.6869L51.0773 95.8508L48.6221 62.9661Z" fill="#D6E99F"/>
          <path d="M0.464343 37.7616L-3.26584 37.9571L-3.44434 34.5513L4.01604 34.1603L0.464343 37.7616Z" fill="#AFBEB9"/>
          <path d="M-4.9096 59.3476L47.2319 56.615L48.7178 53.9351L47.9925 52.5095L46.2896 52.5987L45.5598 52.637L44.9624 52.0991L44.3434 52.7007L43.6009 52.4957L43.1143 52.5212L42.342 51.7485L40.8013 51.8293L40.0159 52.3583L39.0428 52.4093L37.7453 52.4773L36.6656 52.046L34.8005 52.1438L33.6908 52.6898L32.2481 53.0907L31.7616 53.1162L31.3689 53.3807L30.4769 53.4274L30.0587 53.2054L29.1667 53.2522L28.1766 52.9788L27.3143 53.5932L25.9616 52.607L24.4209 52.6877L24.4039 52.3634L23.1064 52.4314L21.6638 52.8322L20.2297 53.3953L19.3932 52.9512L18.4842 52.6736L17.2849 53.0617L16.6192 52.7714L15.7272 52.8181L14.9332 53.185L13.7169 53.2487L12.8504 53.782L12.2016 53.816L11.5274 53.3635L10.1489 53.4357L9.52564 53.9562L8.68923 53.5122L7.63505 53.5674L7.25509 54.0752L6.7172 54.6726L5.55218 54.1645L4.95904 53.7077L4.22922 53.7459L3.28163 54.2835L2.74374 54.8809L1.77065 54.9319L1.41654 54.3812L0.848898 54.411L0.281261 54.4407L-0.529649 54.4832L-1.3919 55.0976L-2.01938 55.5371L-2.83029 55.5796L-3.41918 55.2039L-4.23009 55.2464L-5.10084 55.6986L-4.9096 59.3476Z" fill="#4B6369"/>
          <path d="M40.2111 76.2542L38.3199 97.5762L50.5774 97.1778L48.0645 74.0537L46.3616 74.143C45.648 74.1804 43.2899 75.0087 42.2001 75.4181L40.2111 76.2542Z" fill="#7C8C87"/>
          <path d="M16.2216 69.984C16.2758 70.6546 16.8633 71.1542 17.5338 71.1C18.2043 71.0458 18.704 70.4583 18.6498 69.7878L16.2216 69.984ZM18.6498 69.7878C17.5074 55.6553 19.8926 51.5097 12.5535 25.3951L10.2083 26.0542C17.4623 51.866 15.0514 55.5068 16.2216 69.984L18.6498 69.7878Z" fill="#947673"/>
          <path d="M-3.37739 28.2515C-3.29419 28.1955 -3.61273 28.0342 -3.94213 27.8849C-4.27153 27.7356 -4.60575 27.6038 -4.51743 27.536C-3.64955 26.8933 -2.71025 26.2986 -1.70138 25.9356C-1.09311 25.7085 -0.0662542 25.7983 0.736333 25.9916C0.939768 26.0384 1.12602 26.0861 1.2951 26.1346C1.37677 26.1591 1.45845 26.1835 1.55127 26.2016L1.68509 26.2348L1.77881 26.2701C2.01328 26.3611 2.15343 26.4055 2.13385 26.3606C2.04077 26.1185 1.87534 25.9205 1.67766 25.7643C1.62402 25.7269 1.59328 25.6883 1.51131 25.6582C1.43506 25.6277 1.36484 25.6027 1.28919 25.5837C1.17166 25.5324 1.06045 25.4923 0.954968 25.4519C0.528517 25.3134 0.194569 25.2965 0.409782 25.2393C0.596662 25.1893 0.784141 25.1507 0.971622 25.1122L1.30679 25.0429L1.42073 25.0255L1.48945 25.0219L1.62026 24.9978C1.96266 24.9569 2.28818 24.9226 2.60858 24.9001C3.24906 24.8493 3.85639 24.8232 4.42453 24.8164C4.58518 24.8137 5.0719 25.0064 5.55379 25.2166C6.03539 25.4211 6.5007 25.6436 6.64477 25.6533C7.00795 25.6802 6.07469 24.8562 6.40352 24.8849C8.3876 25.0509 9.88064 25.4894 10.7582 26.1268C11.2 26.4482 11.3907 26.8 11.4443 27.0556C11.4921 27.3115 11.4478 27.4516 11.4535 27.4513C11.4535 27.4513 11.4291 27.4239 11.3746 27.3693C11.32 27.3147 11.2239 27.2336 11.0657 27.173C10.9071 27.1067 10.6871 27.0723 10.4406 27.0794C10.194 27.0866 9.89173 27.1254 9.53335 27.1902C8.81659 27.3196 7.87616 27.5641 6.68797 27.902C5.51122 28.2393 4.0635 28.6655 2.39664 29.1835C2.23297 29.238 2.70055 28.7369 3.20882 28.2452C3.71137 27.7537 4.24344 27.2779 4.06199 27.3219C3.97127 27.3438 3.69786 27.496 3.34789 27.721C3.17576 27.8334 2.9759 27.9645 2.77634 28.1013L2.46615 28.3185L2.31121 28.43L2.23374 28.4858C2.23374 28.4858 2.17827 28.5231 2.17344 28.5406C2.15354 28.5991 2.03175 28.6858 1.94976 28.7648L1.68658 29.0025C1.51686 29.1607 1.36371 29.3066 1.23287 29.4398C0.965472 29.7064 0.780368 29.8999 0.707722 29.9382C0.333038 30.1301 -0.023564 30.3383 -0.374141 30.5519C-0.518533 30.6456 -0.224826 30.0043 0.178889 29.3802C0.57085 28.7509 1.06799 28.1564 0.88774 28.2232C0.780734 28.2633 0.0089867 28.9871 -0.586758 29.7821C-1.19998 30.5722 -1.61007 31.4034 -1.68152 31.4645L-1.96248 31.6917C-2.39748 32.0476 -2.78606 32.4125 -3.14572 32.7816C-3.2654 32.9085 -3.2502 32.322 -3.14457 31.7077C-3.04467 31.0938 -2.85917 30.4696 -3.01412 30.5811C-3.14736 30.6685 -3.60236 31.5193 -3.86778 32.3716C-4.15581 33.2308 -4.26119 34.069 -4.33626 34.1705C-4.81925 34.816 -5.21633 35.457 -5.55133 36.0775C-5.6246 36.2134 -5.76529 35.9394 -5.89543 35.6476C-6.02557 35.3558 -6.13371 35.0457 -6.21873 35.1765C-6.28778 35.2834 -6.32196 35.8365 -6.3052 36.3754C-6.28844 36.9143 -6.21562 37.4273 -6.26175 37.5331C-6.46651 38.009 -6.64354 38.4662 -6.7883 38.8815C-6.83324 39.0101 -7.01702 38.681 -7.17939 38.322C-7.34177 37.963 -7.48214 37.5856 -7.53943 37.6977C-7.6329 37.8863 -7.6201 38.569 -7.53434 39.2192C-7.45974 39.8756 -7.31249 40.4938 -7.35653 40.6397C-7.6105 41.4914 -7.75317 41.9468 -7.75889 41.9471C-7.75889 41.9471 -8.06986 41.6016 -8.46963 40.7669C-8.52115 40.6605 -8.47216 39.9517 -8.35356 39.2564C-8.24098 38.5556 -8.05275 37.8739 -8.08286 37.7377C-8.09912 37.6466 -8.33944 38.1014 -8.54389 38.583C-8.75438 39.0591 -8.92297 39.5676 -8.95731 39.4603C-9.13409 38.8264 -9.28311 38.0647 -9.32481 37.1596C-9.33231 37.0164 -8.93187 36.2202 -8.44073 35.5111C-7.95592 34.7909 -7.39096 34.1756 -7.35807 34.036C-7.31976 33.8904 -7.82588 34.2041 -8.31122 34.5856C-8.79686 34.9613 -9.2563 35.3988 -9.23124 35.2195C-9.19351 34.9534 -9.14462 34.6809 -9.07885 34.4018C-9.05259 34.2454 -8.36822 33.3884 -7.64471 32.7303C-6.92211 32.055 -6.18417 31.5627 -6.2996 31.5515C-6.75561 31.5065 -7.35969 31.8138 -7.81939 32.1365C-8.2791 32.4592 -8.58932 32.7855 -8.53353 32.6448C-8.04559 31.4363 -7.28517 30.1676 -6.19716 29.0137C-6.02321 28.8266 -5.40621 28.6564 -4.79163 28.5496C-4.18307 28.4373 -3.58267 28.3886 -3.37769 28.2458L-3.37739 28.2515Z" fill="#45AA3D"/>
          <path d="M4.73279 33.8616C4.7524 33.7974 4.41995 33.8091 4.0878 33.8265C3.75565 33.8439 3.41838 33.8731 3.44341 33.8028C3.65485 33.1256 3.88286 32.4361 4.27602 31.8298C4.50939 31.4615 5.20329 31.115 5.80764 30.9226C6.41139 30.7187 6.93012 30.6455 6.84152 30.5985C6.38103 30.3585 5.89456 30.3897 5.54311 30.477C5.19136 30.5587 4.98547 30.6843 5.0708 30.5592C5.69157 29.694 6.38465 29.0031 7.08643 28.4782C7.1859 28.4041 7.613 28.3358 8.03648 28.3078C8.45965 28.2742 8.86805 28.2872 8.9636 28.2477C9.08146 28.1956 8.88558 28.0738 8.68457 27.9638C8.48356 27.8537 8.27169 27.7557 8.38353 27.6982C9.07863 27.3746 9.73632 27.2138 10.2969 27.173C10.8576 27.1321 11.3087 27.1946 11.6526 27.2914C12.3292 27.4914 12.5664 27.7431 12.5715 27.7314L12.2281 27.9733C12.0066 28.1285 11.6919 28.3689 11.3479 28.7085C10.6491 29.3998 9.87906 30.4853 9.07361 32.3191C9.0326 32.4131 8.87537 31.9333 8.77361 31.416C8.661 30.9109 8.61531 30.3677 8.55139 30.463C8.48205 30.5642 8.42311 31.3023 8.4769 32.0001C8.51955 32.7042 8.65774 33.3688 8.62848 33.4679C8.53861 33.7253 8.45446 33.9824 8.37031 34.2395C8.33563 34.3446 8.09733 33.8518 7.90244 33.3107C7.70213 32.7757 7.56301 32.203 7.50572 32.3151C7.46894 32.3802 7.53719 33.1346 7.69466 33.8384C7.84671 34.5483 8.08708 35.1903 8.07321 35.2542L8.01076 35.4872C7.91484 35.8482 7.82374 36.1918 7.74349 36.5233C7.71513 36.6397 7.39784 36.283 7.1125 35.8788C6.82174 35.4806 6.56294 35.0348 6.5174 35.152C6.47669 35.2517 6.66642 35.9137 6.92128 36.5033C7.171 37.1046 7.4964 37.6159 7.4777 37.6972C7.37239 38.2081 7.2873 38.6662 7.2236 39.0945C7.21123 39.187 6.97706 39.1016 6.74109 38.9819C6.50542 38.868 6.27427 38.7308 6.25647 38.8293C6.23776 38.9107 6.4327 39.2335 6.65899 39.4973C6.88016 39.7728 7.12093 39.9842 7.11308 40.0535C7.0889 40.3591 7.081 40.6467 7.08365 40.9164C7.08815 41.0023 6.82685 40.9471 6.56315 40.8461C6.29944 40.745 6.03334 40.5982 6.02639 40.6847C6.01098 40.8291 6.26559 41.1947 6.56783 41.4832C6.86464 41.7778 7.19101 41.9789 7.21329 42.0753C7.33553 42.6546 7.46868 43.0037 7.46295 43.004C7.46235 42.9925 7.1109 43.0799 6.44032 42.8853C6.35292 42.8612 6.07151 42.4223 5.89771 41.9548C5.71818 41.4876 5.63057 41.0213 5.55795 40.9504C5.50974 40.907 5.46023 41.2771 5.47491 41.6668C5.47814 42.0572 5.55128 42.4668 5.48559 42.4185C5.07484 42.1415 4.62856 41.7342 4.23747 41.1747C4.16967 41.0863 4.22016 40.4061 4.38938 39.8C4.54684 39.1888 4.78266 38.6482 4.75495 38.5577C4.72122 38.4619 4.4119 38.8054 4.13392 39.199C3.85022 39.5928 3.61503 40.0358 3.56291 39.918C3.49031 39.738 3.42314 39.5521 3.3614 39.36C3.32133 39.253 3.58011 38.493 3.90395 37.8788C4.22146 37.2534 4.57934 36.7408 4.47173 36.7695C4.06421 36.8827 3.70999 37.2458 3.46367 37.586C3.22277 37.9202 3.09461 38.2141 3.07806 38.1173C2.95136 37.2339 2.95188 36.2576 3.1221 35.2323C3.14776 35.0644 3.52849 34.7688 3.91706 34.513C4.30532 34.2515 4.70081 34.0183 4.756 33.8661L4.73279 33.8616Z" fill="#45AA3D"/>
          <path d="M11.4251 34.6709C11.433 34.6015 10.1592 34.8406 10.1667 34.7655C10.2003 34.4192 10.1874 34.0639 10.2954 33.7137C10.3647 33.5033 10.819 33.1866 11.2347 32.9007C11.645 32.6208 12.017 32.3773 11.9199 32.3882C10.899 32.5221 10.3901 33.1115 10.4164 32.9551C10.503 32.4165 10.6035 31.9231 10.7118 31.4695C10.7459 31.3529 11.6671 30.6328 11.6892 30.5053C11.7272 30.354 10.8789 30.8234 10.9175 30.6835C11.379 29.0802 11.9573 28.1713 11.9691 28.1764C11.9691 28.1764 12.4036 28.3604 12.9873 28.9787C13.5653 29.5973 14.3041 30.6553 14.7226 32.3963C14.7443 32.4813 14.3396 32.2097 13.9361 31.9609C13.5323 31.7065 13.1182 31.4755 13.1396 31.5548C13.1612 31.6398 13.6187 32.0407 14.055 32.4773C14.4971 32.9135 14.9123 33.3856 14.9288 33.4823C14.9586 33.7219 14.9827 33.9619 14.9956 34.2081C15.0007 34.3055 14.609 33.9527 14.2073 33.6292C13.8053 33.3 13.3933 33 13.3981 33.0917C13.4011 33.1489 13.8266 33.5975 14.2255 34.0877C14.6245 34.5778 15.0026 35.1093 14.9999 35.1669L14.9827 35.386C14.9549 35.732 14.903 36.0563 14.8393 36.3754C14.8164 36.4858 14.4942 36.1466 14.1619 35.831C13.8295 35.5153 13.4811 35.2235 13.4627 35.3106C13.4437 35.3862 13.7495 35.8526 14.0231 36.3608C14.2964 36.8633 14.5374 37.4077 14.5069 37.4839C14.3193 37.9589 14.0887 38.3787 13.8378 38.7421C13.7844 38.8196 13.6193 38.6272 13.4488 38.4409C13.2782 38.2546 13.1022 38.0744 13.0483 38.1403C13.0052 38.1943 13.0844 38.5002 13.147 38.8185C13.2093 39.1311 13.2496 39.462 13.2005 39.5106C12.9768 39.7347 12.7453 39.9191 12.5294 40.074C12.4571 40.118 12.3697 39.8757 12.2598 39.6402C12.1555 39.4045 12.0402 39.1751 11.979 39.2128C11.8846 39.2752 11.8436 39.5874 11.7856 39.9063C11.7277 40.2251 11.6408 40.5398 11.5561 40.5672C11.0651 40.7307 10.7604 40.7237 10.7661 40.7234C10.7661 40.7234 10.6938 40.4401 10.6065 39.9796C10.5978 39.9226 10.8299 39.7496 11.0545 39.5426C11.2794 39.3413 11.497 39.1117 11.476 39.0382C11.4621 38.993 11.2216 39.1147 10.9795 39.2077C10.7378 39.3066 10.4945 39.3767 10.4864 39.3312C10.4313 39.047 10.375 38.7398 10.3229 38.4038C10.3202 38.3522 10.6681 38.1962 11.0193 37.994C11.3705 37.7919 11.7141 37.5556 11.699 37.4875C11.6897 37.4191 11.3226 37.536 10.9597 37.6239C10.5968 37.7118 10.2324 37.7711 10.2291 37.7081L10.1972 37.4284C10.1945 37.3769 10.6023 37.1602 10.9794 36.905C11.3568 36.6556 11.6981 36.3735 11.6007 36.3786C10.8002 36.4436 10.1596 36.9308 10.1542 36.8277C10.1323 36.4097 10.1261 35.9621 10.1518 35.4669C10.1591 35.3861 10.4792 35.2487 10.8098 35.0936C11.1348 34.9387 11.4588 34.7667 11.4652 34.6688L11.4251 34.6709Z" fill="#45AA3D"/>
          <path d="M20.2514 29.8609C20.2044 29.8404 20.1696 30.1638 20.1292 30.4875C20.0887 30.8112 20.0362 31.124 19.9952 31.109C19.5896 30.9292 19.1408 30.8035 18.7153 30.5731C18.4609 30.4314 18.1738 29.8837 17.9015 29.3984C17.6348 28.9127 17.3998 28.4829 17.3935 28.5808C17.327 29.6122 17.9649 30.2794 17.766 30.2094L15.8809 29.5215C15.7989 29.4913 15.5889 29.2095 15.362 28.9342C15.1351 28.659 14.8967 28.3844 14.8151 28.3599C14.6225 28.3011 15.0608 29.2142 14.8851 29.1487C13.8719 28.7711 13.098 28.4672 12.5639 28.2482C12.0302 28.035 11.7363 27.9069 11.7363 27.9069C11.7366 27.9126 12.021 27.4211 12.9973 26.876C13.9686 26.3428 15.6198 25.7452 18.0952 25.8624C18.216 25.8675 17.7497 26.1733 17.3075 26.5009C16.8652 26.8284 16.4525 27.1716 16.5674 27.1713C16.6876 27.165 17.3417 26.8264 18.0444 26.5369C18.7467 26.2417 19.4981 26.0071 19.6256 26.0291C19.9617 26.0861 20.2929 26.1606 20.6247 26.2466C20.7646 26.2852 20.1735 26.5114 19.6249 26.7814C19.0759 27.0456 18.5635 27.3481 18.691 27.3701C18.7663 27.3834 19.4762 27.1222 20.2475 26.9382C21.0125 26.7431 21.8399 26.6423 21.9222 26.6782L22.216 26.8064C22.6747 27.012 23.1005 27.2481 23.5049 27.514C23.6417 27.6045 23.0775 27.6857 22.557 27.8336C22.0301 27.9703 21.5406 28.1625 21.659 28.231C21.7539 28.2892 22.4568 28.2236 23.2124 28.2874C23.9614 28.3343 24.7712 28.556 24.8571 28.6606C25.3988 29.2466 25.8185 29.9137 26.0773 30.5778C26.1312 30.73 25.8335 30.6365 25.5381 30.5888C25.2424 30.5354 24.9489 30.522 24.995 30.6345C25.0341 30.7243 25.4084 30.9631 25.7531 31.2953C26.103 31.6158 26.4001 32.0252 26.4004 32.14C26.415 32.6388 26.3459 33.0731 26.2328 33.4351C26.1984 33.546 25.995 33.281 25.7651 33.0576C25.5406 32.8282 25.2899 32.6461 25.2715 32.7332C25.2443 32.8724 25.4151 33.2827 25.5018 33.7318C25.5997 34.1746 25.6122 34.6333 25.542 34.7174C25.1085 35.211 24.7941 35.348 24.7944 35.3538C24.7944 35.3538 24.663 35.0391 24.4353 34.5284C24.4091 34.4667 24.581 34.1303 24.682 33.7575C24.7945 33.3841 24.8247 32.9748 24.7582 32.9094C24.7217 32.8711 24.6053 33.1701 24.4464 33.4253C24.2935 33.686 24.0979 33.8972 24.0723 33.8469C23.9026 33.5687 23.6929 33.2925 23.4449 33.0529C23.4085 33.0146 23.5975 32.6774 23.6606 32.2376C23.7354 31.803 23.6689 31.3012 23.5981 31.2647C23.527 31.2225 23.4627 31.6393 23.3149 31.9973C23.1735 32.3665 22.9591 32.6591 22.9115 32.6272L22.6855 32.4782C22.6442 32.4574 22.7351 31.999 22.6511 31.4923C22.5849 30.9962 22.3867 30.5013 22.3517 30.6007C22.2229 30.9922 22.2331 31.4051 22.2261 31.7099C22.2188 32.0088 22.2115 32.1987 22.1702 32.1779C21.7974 31.9678 21.3432 31.7389 20.7957 31.4805C20.7074 31.4392 20.6592 31.0684 20.5701 30.6826C20.4813 30.3025 20.3632 29.9125 20.246 29.867L20.2514 29.8609Z" fill="#45AA3D"/>
          <path d="M18.9369 23.1941C18.8465 23.2218 19.6597 24.2759 19.5524 24.3103C19.0831 24.4497 18.6337 24.6398 18.156 24.728C17.8657 24.7777 17.3015 24.5316 16.7913 24.3286C16.2808 24.12 15.8296 23.9484 15.8854 24.0258C16.5082 24.8431 17.3934 24.969 17.2074 25.0361C16.5473 25.2602 15.9788 25.4795 15.4902 25.6889C15.4226 25.7154 15.0977 25.652 14.7629 25.6179C14.428 25.5838 14.0838 25.5903 14.0172 25.634C13.9398 25.6897 14.1447 25.7651 14.3445 25.8523C14.5443 25.9394 14.7444 26.0323 14.6775 26.0703C14.2862 26.2745 13.9697 26.4806 13.7056 26.7012C13.4416 26.9218 13.2414 27.1562 13.0864 27.3768C12.7882 27.8231 12.6673 28.1453 12.661 28.1341C12.661 28.1341 12.548 28.0596 12.3699 27.8393C12.1975 27.6186 11.9538 27.2409 11.8626 26.5968C11.7663 25.9644 11.8741 25.063 12.3427 24.1426C12.8055 23.2225 13.5897 22.2971 14.6448 21.501C14.7497 21.4209 14.5603 21.9706 14.4287 22.5288C14.2912 23.0815 14.2166 23.6309 14.304 23.546C14.3914 23.461 14.6638 22.7404 15.041 22.0488C15.4122 21.3517 15.8713 20.6902 15.9883 20.6209C16.2952 20.4498 16.6029 20.2959 16.9113 20.1534C17.0403 20.0949 16.73 20.6395 16.4665 21.1988C16.2026 21.7524 15.9852 22.3151 16.1028 22.2573C16.1697 22.2193 16.5719 21.5666 17.0555 20.9325C17.5333 20.2988 18.076 19.6961 18.1496 19.675L18.4377 19.5853C18.8901 19.4525 19.3269 19.3492 19.7537 19.2751C19.9017 19.2501 19.6032 19.6907 19.3282 20.1416C19.0532 20.5924 18.8132 21.0529 18.9383 21.0291C19.0405 21.0065 19.5313 20.5099 20.0637 20.0398C20.59 19.5644 21.1697 19.1205 21.2845 19.1202C21.9552 19.0966 22.5778 19.1443 23.1396 19.2355C23.2671 19.2575 23.101 19.4844 22.9466 19.7165C22.7923 19.9485 22.6379 20.1806 22.7482 20.2035C22.8353 20.2219 23.1868 20.0255 23.5566 19.851C23.9262 19.6709 24.3084 19.513 24.3961 19.5429C24.7876 19.6717 25.1399 19.8198 25.4413 19.982C25.5359 20.0344 25.2745 20.1974 25.0258 20.3827C24.7769 20.5623 24.5456 20.7525 24.6225 20.7944C24.7466 20.8625 25.1731 20.7827 25.6132 20.7424C26.0472 20.6967 26.5072 20.7071 26.5864 20.7948C27.0646 21.2636 27.1631 21.6087 27.1628 21.603C27.1628 21.603 26.834 21.6834 26.3158 21.8771C26.2537 21.8976 25.9222 21.7082 25.541 21.5559C25.1597 21.4036 24.7514 21.2815 24.6733 21.3257C24.623 21.3514 24.9026 21.5377 25.1542 21.737C25.4116 21.9359 25.6295 22.1485 25.5731 22.1687L24.443 22.6299C24.3755 22.6564 23.9765 22.3844 23.5275 22.1438C23.0839 21.8971 22.6017 21.6812 22.529 21.7195C22.445 21.7584 22.7701 22.0457 23.0615 22.3462C23.3586 22.6465 23.6274 22.954 23.5487 22.9868L23.177 23.1269C23.1095 23.1534 22.6005 22.8642 22.0828 22.6272C21.5704 22.3842 21.0551 22.193 21.1057 22.2822C21.5218 22.9897 22.5007 23.3691 22.3653 23.4163C21.7956 23.6127 21.169 23.8178 20.4908 24.0257C20.3777 24.0603 20.061 23.8242 19.722 23.6008C19.3887 23.3771 19.0328 23.1603 18.9086 23.2013L18.9369 23.1941Z" fill="#45AA3D"/>
          <path d="M2.54777 19.0171C2.63969 19.018 2.4969 18.7039 2.34808 18.3844C2.19353 18.0652 2.02783 17.7523 2.13121 17.7526C3.09689 17.7709 4.11139 17.8441 5.06345 18.1502C5.6415 18.3324 6.36621 19.0122 6.83023 19.6482C7.31142 20.2834 7.56537 20.8558 7.59493 20.7624C7.76413 20.2654 7.55809 19.7307 7.3261 19.3581C7.0941 18.9855 6.85875 18.7682 7.05284 18.8556C8.41804 19.4846 9.5255 20.3454 10.3195 21.2513C10.4295 21.3776 10.6114 21.8906 10.7246 22.4072C10.8432 22.9178 10.8868 23.4209 10.9507 23.5439C11.0278 23.7006 11.1313 23.4827 11.2226 23.254C11.314 23.0252 11.3991 22.7853 11.4759 22.9364C11.942 23.8307 12.169 24.6572 12.2795 25.3405C12.3902 26.0295 12.3853 26.5926 12.3566 27.0305C12.2877 27.9069 12.1185 28.2948 12.1302 28.2999C12.1302 28.2999 12.0139 28.1625 11.8036 27.8749C11.5876 27.5876 11.2775 27.1502 10.8409 26.5988C9.96288 25.5136 8.59005 23.9719 6.10669 23.1546C5.98402 23.1151 6.53141 22.9313 7.13544 22.8423C7.73314 22.742 8.38265 22.7539 8.24614 22.6692C8.10902 22.573 7.18285 22.4321 6.31962 22.506C5.44976 22.5631 4.65763 22.7884 4.51869 22.7669C4.15944 22.7054 3.80138 22.6667 3.4379 22.6341C3.2881 22.6247 3.84427 22.2797 4.46762 22.0116C5.08465 21.7323 5.7755 21.5468 5.61216 21.498C5.5127 21.463 4.56657 21.5987 3.70932 21.8963C2.84545 22.177 2.07467 22.5907 1.98847 22.5894L1.65 22.5957C1.12797 22.6058 0.618596 22.6383 0.127002 22.6813C-0.0444986 22.696 0.340787 22.2681 0.773087 21.8607C1.20539 21.4533 1.69675 21.0772 1.51833 21.0694C1.37426 21.0597 0.567024 21.4351 -0.149509 21.8975C-0.878095 22.3492 -1.51085 22.8762 -1.63624 22.8942C-2.40544 23.0092 -3.1216 23.1501 -3.78019 23.2937C-3.92788 23.3244 -3.82203 23.0433 -3.699 22.7612C-3.58169 22.4794 -3.44177 22.1907 -3.58404 22.2154C-3.7037 22.2331 -4.10554 22.5643 -4.4664 22.9105C-4.83298 23.257 -5.1643 23.6189 -5.26618 23.6472C-5.73639 23.7695 -6.17224 23.89 -6.56831 24.0026C-6.69279 24.0378 -6.56071 23.7093 -6.40029 23.3736C-6.24529 23.0439 -6.05624 22.7067 -6.1756 22.7302C-6.36338 22.763 -6.84209 23.1613 -7.26776 23.5856C-7.69344 24.0099 -8.06637 24.4544 -8.19628 24.4956C-8.96973 24.7486 -9.39926 24.8803 -9.39956 24.8745C-9.39956 24.8745 -9.33587 24.4463 -8.96286 23.6744C-8.91642 23.5744 -8.36569 23.2354 -7.78935 22.9468C-7.2133 22.6525 -6.62281 22.4148 -6.54201 22.313C-6.48804 22.247 -6.95523 22.3174 -7.42634 22.4225C-7.89203 22.5215 -8.36164 22.6552 -8.30828 22.5778C-7.96608 22.0947 -7.51175 21.5598 -6.90882 21.0114C-6.81597 20.9204 -6.02477 20.7871 -5.25226 20.7351C-4.47464 20.6714 -3.71571 20.689 -3.60448 20.62C-3.48752 20.5507 -4.01313 20.3831 -4.56527 20.2569C-5.11198 20.1248 -5.68522 20.0343 -5.55228 19.9412C-5.35815 19.8104 -5.15257 19.679 -4.93523 19.5528C-4.81857 19.4778 -3.85499 19.456 -2.97823 19.5306C-2.10177 19.5995 -1.30761 19.7417 -1.38113 19.6536C-1.66317 19.3124 -2.24814 19.1076 -2.74181 19.0014C-3.23548 18.8952 -3.6267 18.8813 -3.50884 18.8291C-2.446 18.4002 -1.23067 18.0321 0.14978 17.8564C0.37222 17.8275 0.891474 18.0932 1.37787 18.3893C1.86969 18.6793 2.32322 19.0059 2.54747 19.0113L2.54777 19.0171Z" fill="#45AA3D"/>
          <path d="M40.2026 76.0921L40.5652 76.8049L43.079 76.6731L46.0794 76.5159L49.1867 75.296L48.8202 72.9571L47.5659 70.746L45.5896 71.8254L43.5493 73.2333L42.6573 73.2801L42.1151 73.7964L41.2614 74.5729L40.1686 75.4433L40.2026 76.0921Z" fill="#AFBEB9"/>
          <path d="M12.0265 75.2919L-3.54297 76.1079L-2.20853 101.57L18.7735 96.9744L21.9325 93.6376L25.1644 88.5894L26.6123 83.6347L29.857 78.8297L27.25 75.6325L21.9791 75.9087L17.6813 76.134L15.9784 76.2232L12.0265 75.2919Z" fill="#82A096"/>
          <path d="M9.00728 81.3045L1.88518 38.5001L-3.3135 40.1549L-0.852861 87.1066C5.07777 87.3162 8.19166 83.3259 9.00728 81.3045Z" fill="#7C8C87"/>
          <path d="M7.68559 56.0852L10.2257 71.9709C10.2895 73.1872 11.3734 73.6996 13.8061 73.5721C15.7523 73.4701 17.1041 72.3693 17.5367 71.8316L16.2848 58.8057C15.8893 59.0162 15.0017 59.4584 14.6159 59.5437C14.1336 59.6503 12.1407 58.8603 11.795 58.4718C11.4494 58.0834 10.3783 57.8143 9.47775 57.6988C8.75735 57.6065 7.98281 56.5846 7.68559 56.0852Z" fill="#7C8C87"/>
          <path d="M12.1548 52.9238C11.5659 52.5481 10.9983 52.5778 10.1916 52.7014C8.64829 53.0425 8.262 55.1877 8.26177 56.2177L8.45795 56.8579L9.79756 59.1458L16.0242 60.0392L16.7714 58.7804L16.6481 56.4287C16.6269 56.0233 15.8673 55.4939 15.6198 55.4255C15.3723 55.3572 14.0196 54.371 13.4434 54.2386C12.8673 54.1061 12.7437 53.2995 12.1548 52.9238Z" fill="#445053"/>
          <path d="M0.497455 41.5004L-2.90837 41.6789L-3.09961 38.0298L0.549487 37.8385L0.497455 41.5004Z" fill="#636C69"/>
          <path d="M4.27169 37.4806L4.09745 34.1559L0.37932 37.6846L0.579061 41.4959L4.27169 37.4806Z" fill="#AFBEB9"/>
        </g>
        <path d="M6.50054 44.2788C11.3648 43.2753 12.2658 43.7668 15.8551 44.4959C19.2342 42.2145 23.0759 42.1401 26.8017 43.3333C31.204 41.4183 32.8275 41.4646 35.9107 41.8576C36.6311 45.6802 35.6671 48.7696 35.0951 49.8364C35.135 49.9282 35.3071 50.2939 35.6767 51.0231C38.06 57.4795 32.7355 60.8101 30.6541 62.0428C28.5726 63.2754 23.4919 65.0602 16.1411 63.8078C8.79032 62.5554 7.72187 55.887 7.62954 54.8474C7.55569 54.0157 7.94059 52.6288 8.14227 52.0394C6.64504 49.1241 5.85973 46.7171 6.50054 44.2788Z" fill="#EFC5CD" stroke="black" stroke-width="0.324809"/>
        <path d="M22.828 66.1669C20.1817 66.4019 17.7035 64.2405 15.8428 62.5959L22.2741 59.9291C22.8607 60.0993 25.2123 60.6208 29.9252 61.3453C28.2867 64.3486 25.4743 65.9319 22.828 66.1669Z" fill="#EFC5CD"/>
        <path d="M15.8428 62.5957C17.7035 64.2404 19.2281 66.3912 22.914 66.0638C25.5604 65.8288 28.2867 64.3484 29.9251 61.3452" stroke="black" stroke-width="0.324809"/>
        <path d="M13.008 58.561C14.9822 59.3382 17.8785 58.7 18.3342 58.469C18.0869 53.5376 15.512 52.4326 15.1088 52.1827C14.7055 51.9327 13.6933 51.2605 12.746 52.3925C11.7987 53.5244 12.0231 57.1243 12.1512 57.494C12.2792 57.8636 12.4073 58.2333 13.008 58.561Z" fill="#FFFEFF" stroke="black" stroke-width="0.379537"/>
        <path d="M18.7444 55.5749C18.6346 54.6956 18.1474 52.713 17.0771 51.8174" stroke="black" stroke-width="0.324809" stroke-linecap="round" stroke-linejoin="round"/>
        <path d="M14.7979 57.2589C14.9259 57.6286 15.663 58.4205 16.2721 58.8427L17.3117 58.7504L18.24 58.4774C18.3327 55.2304 16.8584 53.6467 15.4178 52.441C13.7312 53.8291 14.6698 56.8893 14.7979 57.2589Z" fill="#5C8CB5"/>
        <path d="M16.2721 58.8427L16.1639 58.9986C16.2004 59.0239 16.2446 59.0356 16.2888 59.0317L16.2721 58.8427ZM14.7979 57.2589L14.6185 57.3211L14.7979 57.2589ZM15.4178 52.441L15.5396 52.2955L15.4188 52.1944L15.2972 52.2945L15.4178 52.441ZM18.24 58.4774L18.2935 58.6595L18.4258 58.6206L18.4297 58.4828L18.24 58.4774ZM17.3117 58.7504L17.3285 58.9394L17.3472 58.9377L17.3652 58.9324L17.3117 58.7504ZM16.3802 58.6867C16.0894 58.4852 15.7631 58.1914 15.4935 57.9018C15.3591 57.7574 15.2411 57.6165 15.15 57.4913C15.0566 57.363 14.9999 57.2623 14.9772 57.1968L14.6185 57.3211C14.6599 57.4404 14.7433 57.5774 14.8431 57.7146C14.9453 57.8551 15.0737 58.0078 15.2157 58.1604C15.499 58.4647 15.8457 58.778 16.1639 58.9986L16.3802 58.6867ZM14.9772 57.1968C14.9164 57.0214 14.6557 56.1835 14.6169 55.2242C14.5778 54.2582 14.7652 53.2239 15.5384 52.5875L15.2972 52.2945C14.3838 53.0463 14.1971 54.2361 14.2377 55.2396C14.2786 56.2499 14.5512 57.1268 14.6185 57.3211L14.9772 57.1968ZM15.296 52.5865C16.01 53.1841 16.7182 53.864 17.2386 54.7869C17.7574 55.7071 18.0958 56.8803 18.0503 58.472L18.4297 58.4828C18.477 56.8275 18.1245 55.5853 17.5692 54.6005C17.0154 53.6184 16.2662 52.9036 15.5396 52.2955L15.296 52.5865ZM16.2888 59.0317L17.3285 58.9394L17.2949 58.5613L16.2553 58.6536L16.2888 59.0317ZM17.3652 58.9324L18.2935 58.6595L18.1865 58.2953L17.2581 58.5683L17.3652 58.9324Z" fill="black"/>
        <path d="M16.2422 56.3687C15.3832 56.3498 15.1606 55.9885 14.4319 55.2912L14.5034 53.9512L15.4171 52.4412C15.5284 52.6218 17.0212 53.7577 17.0888 54.1026C17.4373 55.8816 16.9328 56.384 16.2422 56.3687Z" fill="#181818" stroke="black" stroke-width="0.189769"/>
        <ellipse cx="15.5323" cy="53.8791" rx="0.66419" ry="0.948843" transform="rotate(6.48416 15.5323 53.8791)" fill="#FFFEFF"/>
        <path d="M13.008 58.561C14.9822 59.3382 17.8785 58.7 18.3342 58.469C18.0869 53.5376 15.512 52.4326 15.1088 52.1827C14.7055 51.9327 13.6933 51.2605 12.746 52.3925C11.7987 53.5244 12.0231 57.1243 12.1512 57.494C12.2792 57.8636 12.4073 58.2333 13.008 58.561Z" stroke="black" stroke-width="0.324809"/>
        <path d="M31.8152 56.8912C30.0089 58.0042 27.0455 57.8863 26.5561 57.7392C25.9306 52.8414 28.2705 51.3 28.6234 50.9829C28.9762 50.6658 29.8542 49.8257 30.9862 50.7731C32.1181 51.7204 32.5316 55.3035 32.4706 55.6899C32.4097 56.0763 32.3487 56.4628 31.8152 56.8912Z" fill="#FFFEFF" stroke="black" stroke-width="0.379537"/>
        <path d="M25.643 54.9627C25.5962 54.0778 25.7264 52.0404 26.6221 50.9702" stroke="black" stroke-width="0.324809" stroke-linecap="round" stroke-linejoin="round"/>
        <path d="M29.8246 55.9247C29.7637 56.3112 29.1777 57.2205 28.6526 57.7434L27.613 57.8358L26.6511 57.7307C25.9877 54.5508 27.1598 52.7321 28.3654 51.2914C30.2703 52.3606 29.8856 55.5383 29.8246 55.9247Z" fill="#5C8CB5"/>
        <path d="M28.6526 57.7434L28.7865 57.8779C28.755 57.9092 28.7136 57.9285 28.6694 57.9325L28.6526 57.7434ZM29.8246 55.9247L30.0121 55.9543L29.8246 55.9247ZM28.3654 51.2914L28.2199 51.1696L28.321 51.0488L28.4583 51.1259L28.3654 51.2914ZM26.6511 57.7307L26.6304 57.9193L26.4934 57.9043L26.4653 57.7694L26.6511 57.7307ZM27.613 57.8358L27.6298 58.0248L27.611 58.0264L27.5924 58.0244L27.613 57.8358ZM28.5187 57.609C28.7694 57.3593 29.0388 57.0126 29.2532 56.6801C29.36 56.5143 29.4513 56.3548 29.5189 56.2155C29.5882 56.0727 29.6264 55.9636 29.6372 55.8952L30.0121 55.9543C29.9924 56.079 29.9345 56.2285 29.8604 56.3812C29.7845 56.5375 29.6851 56.7105 29.5722 56.8857C29.347 57.2352 29.0609 57.6046 28.7865 57.8779L28.5187 57.609ZM29.6372 55.8952C29.6661 55.7118 29.775 54.841 29.6442 53.89C29.5124 52.9322 29.1458 51.947 28.2725 51.4569L28.4583 51.1259C29.4899 51.705 29.8833 52.8433 30.0202 53.8382C30.158 54.8399 30.0441 55.7512 30.0121 55.9543L29.6372 55.8952ZM28.5109 51.4132C27.9134 52.1273 27.3361 52.9213 26.9865 53.9215C26.6379 54.9187 26.5116 56.1331 26.8368 57.6919L26.4653 57.7694C26.1271 56.1483 26.2552 54.8635 26.6282 53.7962C27.0002 52.7319 27.6118 51.8962 28.2199 51.1696L28.5109 51.4132ZM28.6694 57.9325L27.6298 58.0248L27.5962 57.6467L28.6358 57.5544L28.6694 57.9325ZM27.5924 58.0244L26.6304 57.9193L26.6717 57.542L27.6336 57.6471L27.5924 58.0244Z" fill="black"/>
        <path d="M28.245 55.3032C29.0872 55.1332 29.2427 54.7383 29.8371 53.9235L29.5306 52.6171L28.3651 51.2917C28.2874 51.4891 27.0181 52.8703 27.0124 53.2217C26.9828 55.0343 27.5679 55.4399 28.245 55.3032Z" fill="#181818" stroke="black" stroke-width="0.189769"/>
        <ellipse cx="0.66419" cy="0.948843" rx="0.66419" ry="0.948843" transform="matrix(-0.958155 0.286249 0.286249 0.958155 28.8701 51.6279)" fill="#FFFEFF"/>
        <path d="M31.8152 56.8912C30.0089 58.0042 27.0455 57.8863 26.5561 57.7392C25.9306 52.8414 28.2705 51.3 28.6234 50.9829C28.9762 50.6658 29.8542 49.8257 30.9862 50.7731C32.1181 51.7204 32.5316 55.3035 32.4706 55.6899C32.4097 56.0763 32.3487 56.4628 31.8152 56.8912Z" stroke="black" stroke-width="0.324809"/>
        <path d="M9.43829 50.3248C9.49585 50.256 9.48676 50.1536 9.41797 50.0961C9.34919 50.0385 9.24676 50.0476 9.1892 50.1164L9.43829 50.3248ZM8.07846 52.8745C8.45313 51.8087 9.10792 50.7196 9.43829 50.3248L9.1892 50.1164C8.83061 50.5449 8.15784 51.6693 7.77203 52.7667L8.07846 52.8745Z" fill="black"/>
        <path d="M14.2095 46.3514C14.879 45.4207 15.8277 44.5458 16.2742 44.2479" stroke="black" stroke-width="0.324809" stroke-linecap="round"/>
        <path d="M33.5292 48.2619C33.4616 48.203 33.4545 48.1004 33.5134 48.0328C33.5724 47.9652 33.6749 47.9581 33.7426 48.017L33.5292 48.2619ZM35.2715 50.5672C34.7346 49.5732 33.9173 48.6001 33.5292 48.2619L33.7426 48.017C34.1638 48.3841 35.0044 49.3893 35.5573 50.4128L35.2715 50.5672Z" fill="black"/>
        <path d="M29.0016 44.7921C28.1292 44.0482 26.9991 43.4251 26.4944 43.2424" stroke="black" stroke-width="0.324809" stroke-linecap="round"/>
      </g>
    </g>
  </g>
  <defs>
    <filter id="filter0_d_40000007_23069" x="-7" y="-3.49527" width="66.7394" height="111.386" filterUnits="userSpaceOnUse" color-interpolation-filters="sRGB">
      <feFlood flood-opacity="0" result="BackgroundImageFix"/>
      <feColorMatrix in="SourceAlpha" type="matrix" values="0 0 0 0 0 0 0 0 0 0 0 0 0 0 0 0 0 0 127 0" result="hardAlpha"/>
      <feOffset dx="6" dy="-4"/>
      <feGaussianBlur stdDeviation="2.57527"/>
      <feComposite in2="hardAlpha" operator="out"/>
      <feColorMatrix type="matrix" values="0 0 0 0 0.784314 0 0 0 0 0.843137 0 0 0 0 0.909804 0 0 0 0.25 0"/>
      <feBlend mode="normal" in2="BackgroundImageFix" result="effect1_dropShadow_40000007_23069"/>
      <feBlend mode="normal" in="SourceGraphic" in2="effect1_dropShadow_40000007_23069" result="shape"/>
    </filter>
    <filter id="filter1_d_40000007_23069" x="-35.4919" y="5.65527" width="114.747" height="157.778" filterUnits="userSpaceOnUse" color-interpolation-filters="sRGB">
      <feFlood flood-opacity="0" result="BackgroundImageFix"/>
      <feColorMatrix in="SourceAlpha" type="matrix" values="0 0 0 0 0 0 0 0 0 0 0 0 0 0 0 0 0 0 127 0" result="hardAlpha"/>
      <feOffset dy="30.6667"/>
      <feGaussianBlur stdDeviation="15.3333"/>
      <feComposite in2="hardAlpha" operator="out"/>
      <feColorMatrix type="matrix" values="0 0 0 0 0.784314 0 0 0 0 0.843137 0 0 0 0 0.909804 0 0 0 0.25 0"/>
      <feBlend mode="normal" in2="BackgroundImageFix" result="effect1_dropShadow_40000007_23069"/>
      <feBlend mode="normal" in="SourceGraphic" in2="effect1_dropShadow_40000007_23069" result="shape"/>
    </filter>
    <clipPath id="clip0_40000007_23069">
      <rect width="48" height="80" fill="white"/>
    </clipPath>
    <clipPath id="clip1_40000007_23069">
      <rect width="48.559" height="74.2189" fill="white" transform="translate(-4.04297 23.1177) rotate(-3)"/>
    </clipPath>
  </defs>
</svg>
