<svg width="52" height="104" viewBox="0 0 52 104" fill="none" xmlns="http://www.w3.org/2000/svg">
<g clip-path="url(#clip0_40000850_50765)">
<g filter="url(#filter0_d_40000850_50765)">
<rect x="-7" y="10.6289" width="50.2178" height="97.2445" rx="2.68724" transform="rotate(-3 -7 10.6289)" fill="#A158ED"/>
<rect x="-6.34961" y="23.041" width="50.2178" height="3.02315" transform="rotate(-3 -6.34961 23.041)" fill="white"/>
<rect x="-6.29688" y="24.0469" width="50.2178" height="1.00772" transform="rotate(-3 -6.29688 24.0469)" fill="#61B9F5"/>
<rect x="-6.19238" y="26.0586" width="50.2178" height="76.7543" transform="rotate(-3 -6.19238 26.0586)" fill="#4D6ECB"/>
<path d="M-4.41602 59.9395L46.5285 72.4901L47.513 91.275L-2.63605 93.9032L-4.41602 59.9395Z" fill="#65612E"/>
<path d="M13.5701 88.345C5.52525 87.0175 -1.11642 81.3783 -3.43164 78.7246L-2.17468 102.709L47.9743 100.081L47.1305 83.9794C39.2957 85.9877 21.615 89.6725 13.5701 88.345Z" fill="#CDB389"/>
<path d="M12.1507 61.3502C11.0068 60.014 11.9486 57.4947 12.1857 55.8715C12.5544 54.0265 12.0735 53.7296 11.9837 52.016C11.8939 50.3025 9.35256 46.8919 7.43653 45.1666C5.5205 43.4414 5.01354 41.9646 6.23694 40.7192C7.46035 39.4738 12.7744 44.5647 14.5778 46.1885C16.3811 47.8122 17.5423 47.4291 19.6505 46.6743C21.7588 45.9195 20.6438 41.038 20.5484 39.2174C20.453 37.3968 20.0475 35.8072 21.8569 35.4976C23.6663 35.188 24.2121 39.455 25.2709 43.2655C26.3297 47.076 27.7159 48.9364 28.6344 50.0695C29.5529 51.2027 29.1806 52.2961 29.0113 53.1641C28.8421 54.032 29.1461 55.7343 29.4164 56.7941C29.6867 57.8538 30.0529 58.6937 30.5542 60.0635C31.0556 61.4333 31.5854 61.2981 32.2729 62.1212C32.9604 62.9443 32.5769 63.8235 32.3908 64.3702C32.2046 64.9169 31.7141 65.8017 31.325 66.5739C30.9359 67.346 30.4285 67.9095 30.2536 68.6704C30.0787 69.4313 29.047 70.2371 28.1902 70.282C27.3335 70.3269 26.3865 70.6987 25.2365 71.2959C24.0865 71.8931 21.635 70.196 21.2969 69.8915C20.9587 69.5871 16.4167 64.8852 15.5151 64.0733C14.6134 63.2615 13.2946 62.6863 12.1507 61.3502Z" fill="#F29600" stroke="black" stroke-width="0.335905"/>
<path d="M19.0981 65.9133C17.9948 65.7188 17.1873 64.752 15.3646 63.6703L15.3734 63.838L19.0139 67.5154L20.6069 69.0297L21.763 70.2304L23.237 71.0782L24.9362 71.4096L26.0883 70.9288L27.4081 70.4391L28.825 70.1967L29.88 69.4687L30.3348 68.5198L29.9994 68.5374L30.7102 67.6593L32.3218 64.7157L32.6576 63.1003L32.2695 62.1116L31.5634 61.4759L30.8486 60.6724L30.2619 59.1054L29.3929 56.9646L29.0889 54.3737L29.0318 53.2835L29.2661 51.3371L28.8823 50.4322L27.4351 48.4898L26.1336 46.1194L25.3751 42.8796L23.8623 38.0815L23.1786 36.2674C22.1726 34.7223 20.4678 35.8881 20.517 36.8273C20.5785 38.0014 20.68 38.3324 20.5518 39.096C20.4236 39.8595 21.0938 43.0199 21.1422 43.9423C21.1905 44.8648 20.7269 45.6459 20.4178 46.1666L20.4178 46.1667C19.8606 47.1055 18.5374 47.1902 18.1181 47.2122C17.7826 47.2298 16.6968 47.3708 16.1936 47.3971C16.3952 47.4987 16.8336 47.7336 16.9748 47.8608C17.1513 48.0197 19.283 48.5807 20.4746 48.8546C21.6662 49.1285 24.928 48.7894 25.7135 49.3369C26.4991 49.8844 27.9683 52.246 28.0386 53.5878C28.1089 54.9296 28.9205 57.578 29.0395 58.2445C29.1585 58.911 29.5555 60.0674 30.3893 61.5374C31.2232 63.0073 31.1306 62.844 30.4992 63.6339C29.8679 64.4238 29.1263 64.715 28.3229 65.4298C27.5194 66.1446 26.7031 65.0101 25.7719 64.8908C24.8406 64.7714 24.6993 65.2833 24.1298 65.6496C23.5604 66.0158 23.1055 66.9646 22.3376 66.7526C21.5697 66.5405 20.2015 66.1077 19.0981 65.9133Z" fill="#D7890A"/>
<path d="M12.1507 61.3502C11.0068 60.014 11.9486 57.4947 12.1857 55.8715C12.5544 54.0265 12.0735 53.7296 11.9837 52.016C11.8939 50.3025 9.35256 46.8919 7.43653 45.1666C5.5205 43.4414 5.01354 41.9646 6.23694 40.7192C7.46035 39.4738 12.7744 44.5647 14.5778 46.1885C16.3811 47.8122 17.5423 47.4291 19.6505 46.6743C21.7588 45.9195 20.6438 41.038 20.5484 39.2174C20.453 37.3968 20.0475 35.8072 21.8569 35.4976C23.6663 35.188 24.2121 39.455 25.2709 43.2655C26.3297 47.076 27.7159 48.9364 28.6344 50.0695C29.5529 51.2027 29.1806 52.2961 29.0113 53.1641C28.8421 54.032 29.1461 55.7343 29.4164 56.7941C29.6867 57.8538 30.0529 58.6937 30.5542 60.0635C31.0556 61.4333 31.5854 61.2981 32.2729 62.1212C32.9604 62.9443 32.5769 63.8235 32.3908 64.3702C32.2046 64.9169 31.7141 65.8017 31.325 66.5739C30.9359 67.346 30.4285 67.9095 30.2536 68.6704C30.0787 69.4313 29.047 70.2371 28.1902 70.282C27.3335 70.3269 26.3865 70.6987 25.2365 71.2959C24.0865 71.8931 21.635 70.196 21.2969 69.8915C20.9587 69.5871 16.4167 64.8852 15.5151 64.0733C14.6134 63.2615 13.2946 62.6863 12.1507 61.3502Z" stroke="black" stroke-width="0.335905"/>
<path d="M15.5908 46.8867C16.1487 47.287 16.7179 47.9015 17.1463 47.8791C17.5747 47.8566 19.0118 48.6404 19.8008 49.3508" stroke="black" stroke-width="0.335905"/>
<path d="M20.9961 68.0819C21.0354 68.8315 21.554 68.4822 21.757 68.2568L21.9806 67.9229C21.8065 67.6396 21.6149 67.3194 21.3684 66.9885C21.2252 66.7964 21.0354 66.5884 20.8174 66.373C20.8639 66.6927 20.9647 67.4821 20.9961 68.0819Z" fill="white"/>
<path d="M23.3437 55.5017C23.5316 55.6708 23.8937 56.1602 23.8394 56.7644M22.5365 60.5913C22.9025 60.1426 23.6417 58.9225 23.6702 57.6324M27.0916 57.3457C27.039 57.0263 26.9904 56.2341 27.216 55.6209M23.8937 65.997C24.1926 65.5518 24.8015 64.8756 25.337 64.8475C25.8724 64.8194 26.1937 64.8026 26.5262 64.9999C26.8587 65.1973 27.2927 65.2819 27.7211 65.2595C28.0638 65.2415 28.4276 65.0793 28.5666 65.0004M25.1335 67.1133C25.1993 67.0025 25.3951 66.7774 25.6522 66.764C25.9735 66.7471 26.306 66.9445 26.4187 67.046M30.5336 65.649L31.5485 64.522M15.1358 60.7644C15.175 61.514 15.1353 62.8048 16.0089 63.0812C16.8825 63.3576 17.3109 63.3351 18.0998 64.0455C18.7259 64.6092 19.9799 65.5456 20.8174 66.373M30.6403 67.6838C30.1385 68.3545 29.4281 69.1434 28.7968 69.3913C28.1654 69.6392 27.3821 69.0359 26.7227 68.7483C26.0633 68.4607 25.5446 68.81 25.0091 68.8381C24.4737 68.8661 23.6281 69.1252 22.9743 68.9447C22.5531 68.8284 22.2957 68.4361 21.9806 67.9229M20.8174 66.373C21.0354 66.5884 21.2252 66.7964 21.3684 66.9885C21.6149 67.3194 21.8065 67.6396 21.9806 67.9229M20.8174 66.373C20.8639 66.6927 20.9647 67.4821 20.9961 68.0819C21.0354 68.8315 21.554 68.4822 21.757 68.2568L21.9806 67.9229" stroke="black" stroke-width="0.335905"/>
<path d="M16.0332 55.3477C16.4352 55.5056 17.5741 56.0616 18.9131 57.0223C20.5869 58.2233 21.2743 59.0464 21.9899 60.4049" stroke="black" stroke-width="0.335905"/>
<path d="M16.252 55.4434L16.4372 58.9775C17.0063 59.592 20.3599 60.0606 21.7522 59.9876C20.1565 57.408 17.4205 55.8833 16.252 55.4434Z" fill="white" stroke="black" stroke-width="0.335905"/>
<path d="M19.1678 59.8009C18.3563 59.0702 18.2139 57.3094 18.2442 56.5203C20.1062 57.6254 21.3606 59.2922 21.755 59.9875C21.073 59.9516 19.6007 59.8641 19.1678 59.8009Z" fill="#008086" stroke="black" stroke-width="0.335905"/>
<circle cx="19.4034" cy="58.1773" r="0.536211" transform="rotate(-3 19.4034 58.1773)" fill="white"/>
<circle cx="19.7524" cy="58.6968" r="0.643453" transform="rotate(-3 19.7524 58.6968)" fill="black"/>
<path d="M27.7296 57.2048C27.6619 57.552 27.7687 58.6346 27.8306 59.1326C28.638 58.1452 29.0918 57.2408 29.2177 56.9121L28.9591 54.0261C28.5775 54.941 27.7973 56.8576 27.7296 57.2048Z" fill="white" stroke="black" stroke-width="0.335905"/>
<path d="M28.7311 57.9042C28.8441 56.7814 28.6133 55.6552 28.4837 55.2324L27.728 57.2051L27.7448 57.5263L27.8346 59.2399C28.0019 59.0163 28.4154 58.4362 28.7311 57.9042Z" fill="#008086" stroke="black" stroke-width="0.335905"/>
<path d="M28.2869 57.6054C28.3004 57.8624 27.943 57.874 27.7627 57.8476L27.7234 57.098C27.7854 56.9157 27.9523 56.549 28.1237 56.54C28.3379 56.5288 28.2701 57.2841 28.2869 57.6054Z" fill="black" stroke="black" stroke-width="0.335905"/>
<rect x="-7" y="10.6211" width="50.0915" height="97" rx="2.68048" transform="rotate(-3 -7 10.6211)" fill="#D5743C"/>
<rect x="-6.35156" y="23.002" width="50.0915" height="3.01554" transform="rotate(-3 -6.35156 23.002)" fill="white"/>
<rect x="-6.29883" y="24.0059" width="50.0915" height="1.00518" transform="rotate(-3 -6.29883 24.0059)" fill="#61B9F5"/>
<g clip-path="url(#clip1_40000850_50765)">
<rect x="-6.19434" y="26.0117" width="50.0915" height="76.5613" transform="rotate(-3 -6.19434 26.0117)" fill="url(#paint0_linear_40000850_50765)"/>
<path d="M-12.8104 31.0153L-13.0427 26.5819L1.40636 17.3935L3.13291 50.338L-1.35762 51.7614L-7.40993 52.0786L-11.7929 50.4304L-9.97541 47.1926L-10.5583 36.071L-12.8104 31.0153Z" fill="#7CA07C"/>
<path d="M0.280056 21.5184L-0.044541 15.3248L14.2296 2.79779L16.6417 48.8233L12.1758 50.7171L6.1235 51.0342L1.70157 48.6425L3.45384 44.1604L2.63955 28.6228L0.280056 21.5184Z" fill="#7CA07C"/>
<path d="M15.5388 27.7645L15.2142 21.5709L29.4884 9.04388L31.9005 55.0694L27.4346 56.9631L21.3823 57.2803L16.9604 54.8886L18.7126 50.4064L17.8983 34.8688L15.5388 27.7645Z" fill="#7CA07C"/>
<path d="M25.7367 28.7003L25.2281 18.9968L47.5185 -0.624982L51.2974 71.4816L44.323 74.4474L34.8705 74.9428L27.9637 71.1946L30.6993 64.1731L29.4236 39.8308L25.7367 28.7003Z" fill="#3D4128"/>
<ellipse cx="0.066402" cy="101.141" rx="2.2528" ry="1.72889" transform="rotate(-34.1748 0.066402 101.141)" fill="#FEFF98"/>
<ellipse cx="-0.51934" cy="93.7286" rx="1.29834" ry="0.996404" transform="rotate(37.4094 -0.51934 93.7286)" fill="#FEFF98"/>
<ellipse cx="7.25214" cy="97.7052" rx="1.29834" ry="0.996404" transform="rotate(37.4094 7.25214 97.7052)" fill="#FEFF98"/>
<ellipse cx="36.0305" cy="83.4474" rx="1.29834" ry="0.996404" transform="rotate(37.4094 36.0305 83.4474)" fill="#FEFF98"/>
<ellipse cx="21.2531" cy="95.965" rx="1.29834" ry="0.996404" transform="rotate(37.4094 21.2531 95.965)" fill="#FEFF98"/>
<ellipse cx="5.35021" cy="86.8809" rx="1.29834" ry="0.996404" transform="rotate(79.1334 5.35021 86.8809)" fill="#FEFF98"/>
<ellipse cx="14.6715" cy="100.996" rx="1.29834" ry="0.996404" transform="rotate(79.1334 14.6715 100.996)" fill="#FEFF98"/>
<ellipse cx="46.5221" cy="87.752" rx="1.29834" ry="0.996404" transform="rotate(79.1334 46.5221 87.752)" fill="#FEFF98"/>
<ellipse cx="8.07379" cy="97.4066" rx="1.29834" ry="0.996404" transform="rotate(102 8.07379 97.4066)" fill="#FEFF98"/>
<ellipse cx="36.8531" cy="83.1487" rx="1.29834" ry="0.996404" transform="rotate(102 36.8531 83.1487)" fill="#FEFF98"/>
<ellipse cx="22.0748" cy="95.6663" rx="1.29834" ry="0.996404" transform="rotate(102 22.0748 95.6663)" fill="#FEFF98"/>
<ellipse cx="15.4839" cy="101.32" rx="1.29834" ry="0.996404" transform="rotate(143.724 15.4839 101.32)" fill="#FEFF98"/>
<ellipse cx="6.16356" cy="87.2032" rx="1.29834" ry="0.996404" transform="rotate(143.724 6.16356 87.2032)" fill="#FEFF98"/>
<ellipse cx="47.3354" cy="88.0762" rx="1.29834" ry="0.996404" transform="rotate(143.724 47.3354 88.0762)" fill="#FEFF98"/>
<ellipse cx="0.317929" cy="93.4515" rx="1.29834" ry="0.996404" transform="rotate(102 0.317929 93.4515)" fill="#FEFF98"/>
<ellipse cx="40.5069" cy="89.1528" rx="2.02628" ry="1.55505" transform="rotate(102 40.5069 89.1528)" fill="#DF8678"/>
<ellipse cx="36.2275" cy="94.6634" rx="1.21845" ry="0.935091" transform="rotate(102 36.2275 94.6634)" fill="#DF8678"/>
<ellipse cx="38.7983" cy="89.876" rx="2.02628" ry="1.55505" transform="rotate(34.7433 38.7983 89.876)" fill="#DF8678"/>
<ellipse cx="35.2007" cy="95.0975" rx="1.21845" ry="0.935091" transform="rotate(34.7433 35.2007 95.0975)" fill="#DF8678"/>
<ellipse cx="43.1872" cy="98.5991" rx="3.68403" ry="2.82728" transform="rotate(37.4094 43.1872 98.5991)" fill="#FEFF98"/>
<ellipse cx="46.4523" cy="97.2329" rx="3.68403" ry="2.82728" transform="rotate(94.4137 46.4523 97.2329)" fill="#FEFF98"/>
<path d="M2.15097 60.2866C4.43247 61.775 8.20668 62.674 9.80859 62.9374C10.1473 62.7708 10.7473 62.0992 10.4381 60.7456C4.00854 46.0154 -3.75366 40.4222 -6.83105 39.4668L-6.45366 46.6679C-6.31359 49.3405 -0.700905 58.4261 2.15097 60.2866Z" fill="#C08C5E"/>
<path d="M9.80859 62.9374C8.20668 62.674 4.43247 61.775 2.15097 60.2866C-0.700905 58.4261 -6.31359 49.3405 -6.45366 46.6679C-6.56571 44.5299 -6.75194 40.9763 -6.83105 39.4668C-3.75366 40.4222 4.00854 46.0154 10.4381 60.7456" stroke="black" stroke-width="0.16753"/>
<path d="M8.46904 60.1035L7.03127 59.6577L7.7539 60.6621L6.71456 60.7165L7.14021 61.7364C-5.45543 55.7711 -5.80044 43.5062 -5.87436 42.0957C1.56094 46.4703 6.78594 55.9236 8.46904 60.1035Z" fill="#623918" stroke="black" stroke-width="0.16753"/>
<path d="M9.41136 56.7792L11.0482 58.1822C8.97308 59.7798 8.48033 61.7412 8.52702 62.632C8.57371 63.5229 8.24825 68.6765 8.94721 70.6498C9.64617 72.6231 9.1184 73.9163 9.15731 74.6587C9.19621 75.4011 8.8756 76.3856 13.2278 78.4652C17.58 80.5449 22.8863 79.5224 25.176 79.179C27.4657 78.8357 33.5815 74.7931 33.4687 72.6401C33.3558 70.4872 33.0799 63.8019 32.8306 60.465C32.6311 57.7955 29.7085 55.3432 28.2722 54.4507L24.5842 52.2619L24.6348 53.227L21.4273 51.6829L22.4819 53.3398L16.9422 49.908L18.176 53.5654L14.8943 52.0253L14.9838 53.7327L11.7883 50.997L13.0533 55.2483L9.26741 54.0323L12.084 56.6391L9.41136 56.7792Z" fill="#C08C5E" stroke="black" stroke-width="0.16753"/>
<path d="M32.5944 48.8642C30.4278 50.7048 28.5959 54.9547 27.9508 56.8496C28.3593 57.3001 29.061 58.0309 29.8375 58.7589C30.6127 59.4856 31.4625 60.2094 32.1698 60.6484C42.2477 55.5048 43.8346 53.1139 44.5147 51.8872C45.1949 50.6605 49.8897 40.8113 50.2845 39.8229C50.6794 38.8344 50.492 38.0998 48.8976 38.9278C42.3407 41.6536 35.3026 46.5635 32.5944 48.8642Z" fill="#C08C5E"/>
<path d="M27.9508 56.8496C28.5959 54.9547 30.4278 50.7048 32.5944 48.8642C35.3026 46.5635 42.3407 41.6536 48.8976 38.9278C50.492 38.0998 50.6794 38.8344 50.2845 39.8229C49.8897 40.8113 45.1949 50.6605 44.5147 51.8872C43.8346 53.1139 42.2477 55.5048 32.1698 60.6484" stroke="black" stroke-width="0.16753"/>
<path d="M39.1179 55.4453C37.9674 56.2202 33.4492 58.0749 31.3338 58.9054L32.1508 57.4481L30.619 58.0495L31.1743 55.8616C30.7718 56.2301 29.8393 57.0928 29.3297 57.596C29.8351 51.6141 35.6772 48.0325 37.9634 46.2005C39.7923 44.7349 45.4389 42.0618 48.0335 40.9084C47.5084 42.2511 46.2391 45.3052 45.3636 46.7804C44.2691 48.6244 40.5559 54.4766 39.1179 55.4453Z" fill="#623918" stroke="black" stroke-width="0.16753"/>
<path d="M14.5534 73.9305C16.6243 73.6731 14.7776 66.8467 14.0981 65.2446C12.2817 63.2554 11.3357 65.0916 10.9292 65.8573C10.5227 66.623 10.901 69.5809 11.1899 70.8313C11.4788 72.0817 12.4825 74.1879 14.5534 73.9305Z" fill="#08090B" stroke="black" stroke-width="0.16753"/>
<path d="M13.4558 71.4557C12.7173 71.5689 12.5183 70.6116 12.409 69.9473L12.3115 69.5058L12.1708 69.662C11.8541 70.2493 11.3834 71.6835 12.0333 72.7214C12.8457 74.0188 15.0181 74.2771 15.3387 73.2926C15.6593 72.308 15.4097 70.3856 15.1481 69.6549C14.9388 69.0703 14.5009 69.1429 14.3081 69.2522C14.7143 69.9009 14.1943 71.3426 13.4558 71.4557Z" fill="#62401D" stroke="black" stroke-width="0.16753"/>
<ellipse cx="12.3827" cy="66.5982" rx="0.743405" ry="1.56115" transform="rotate(-3 12.3827 66.5982)" fill="#EFFCFF"/>
<path d="M21.118 72.7668L19.3362 72.8602C18.9986 72.8779 19.3635 73.3798 19.9846 73.8684C20.6058 74.3569 20.8871 74.0444 21.1724 73.8061C21.4577 73.5678 21.6376 72.7395 21.118 72.7668Z" fill="#08090B" stroke="black" stroke-width="0.16753"/>
<path d="M25.201 69.7234C24.8146 68.0315 25.0143 66.16 25.7103 63.8158C26.1504 62.0805 28.0745 62.0541 28.8831 63.2773C29.6916 64.5004 30.3202 66.5519 30.4486 69.0018C30.577 71.4516 28.6779 72.1467 27.5682 72.2793C26.4585 72.4119 25.5875 71.4153 25.201 69.7234Z" fill="#08090B" stroke="black" stroke-width="0.16753"/>
<ellipse cx="27.4491" cy="64.3209" rx="0.743405" ry="1.56115" transform="rotate(-3 27.4491 64.3209)" fill="#D9D9D9"/>
<path d="M26.8233 69.4162C26.9326 70.0804 27.5459 70.4205 28.1399 70.3894C29.3863 70.0263 28.8437 68.1937 28.5273 67.838C28.2741 67.5535 28.0572 67.3912 27.9803 67.3456L28.797 67.3028C29.6097 67.1858 30.0587 68.6511 30.1952 69.835C30.3317 71.0189 29.683 71.4251 28.2293 72.0969C26.7757 72.7686 25.9749 71.6939 25.5571 70.8225C25.2228 70.1254 25.9756 68.8651 26.3938 68.3221C26.5005 68.4653 26.7359 68.8848 26.8233 69.4162Z" fill="#62401D" stroke="black" stroke-width="0.16753"/>
<path d="M17.1786 75.7267C18.0889 76.0512 18.5421 76.1763 19.6285 75.5983C20.7148 75.0203 21.3165 75.1376 22.0041 75.4738C22.6917 75.81 23.2153 75.857 24.501 74.8219" stroke="black" stroke-width="0.16753"/>
</g>
</g>
</g>
<defs>
<filter id="filter0_d_40000850_50765" x="-7" y="-1.15055" width="66.3888" height="110.041" filterUnits="userSpaceOnUse" color-interpolation-filters="sRGB">
<feFlood flood-opacity="0" result="BackgroundImageFix"/>
<feColorMatrix in="SourceAlpha" type="matrix" values="0 0 0 0 0 0 0 0 0 0 0 0 0 0 0 0 0 0 127 0" result="hardAlpha"/>
<feOffset dx="6" dy="-4"/>
<feGaussianBlur stdDeviation="2.57527"/>
<feComposite in2="hardAlpha" operator="out"/>
<feColorMatrix type="matrix" values="0 0 0 0 0.784314 0 0 0 0 0.843137 0 0 0 0 0.909804 0 0 0 0.25 0"/>
<feBlend mode="normal" in2="BackgroundImageFix" result="effect1_dropShadow_40000850_50765"/>
<feBlend mode="normal" in="SourceGraphic" in2="effect1_dropShadow_40000850_50765" result="shape"/>
</filter>
<linearGradient id="paint0_linear_40000850_50765" x1="18.8514" y1="26.0117" x2="18.7677" y2="93.5264" gradientUnits="userSpaceOnUse">
<stop stop-color="#BBDABA"/>
<stop offset="1" stop-color="#488539"/>
</linearGradient>
<clipPath id="clip0_40000850_50765">
<rect width="52" height="104" fill="white"/>
</clipPath>
<clipPath id="clip1_40000850_50765">
<rect width="50.0915" height="76.5613" fill="white" transform="translate(-6.19434 26.0117) rotate(-3)"/>
</clipPath>
</defs>
</svg>
