<svg width="100" height="149" viewBox="0 0 100 149" fill="none" xmlns="http://www.w3.org/2000/svg">
<g opacity="0.2" filter="url(#filter0_d_40001101_48628)">
<rect x="0.838379" y="22.2031" width="65.4723" height="126.784" rx="3.50353" transform="rotate(-9 0.838379 22.2031)" fill="#A158ED"/>
<rect x="3.37335" y="38.2075" width="65.4723" height="3.94148" transform="rotate(-9 3.37335 38.2075)" fill="white"/>
<rect x="3.57861" y="39.5054" width="65.4723" height="1.31383" transform="rotate(-9 3.57861 39.5054)" fill="#61B9F5"/>
<rect x="3.98828" y="42.1006" width="65.4723" height="100.07" transform="rotate(-9 3.98828 42.1006)" fill="#4D6ECB"/>
<path d="M10.9089 85.7881L78.6752 95.1188L82.5117 119.342L17.8455 129.584L10.9089 85.7881Z" fill="#65612E"/>
<path d="M38.1016 120.168C27.4895 119.543 18.1092 113.136 14.7456 110.011L19.644 140.938L84.3102 130.696L81.0218 109.934C71.1367 113.605 48.7137 120.793 38.1016 120.168Z" fill="#CDB389"/>
<path d="M36.0579 96.793C34.3926 95.2164 35.2705 91.8215 35.3567 89.6844C35.5833 87.242 34.9193 86.9224 34.5693 84.7129C34.2194 82.5033 30.4594 78.4273 27.74 76.4515C25.0205 74.4757 24.1619 72.6298 25.5784 70.8483C26.995 69.0667 34.5792 74.9436 37.1387 76.8032C39.6982 78.6628 41.1517 78.0079 43.7824 76.7419C46.4131 75.4758 44.3022 69.2983 43.9304 66.9507C43.5585 64.603 42.8162 62.5972 45.1201 61.9492C47.424 61.3011 48.7132 66.7594 50.6053 71.5559C52.4975 76.3525 54.5484 78.5757 55.8938 79.9198C57.2392 81.2639 56.9055 82.7324 56.8043 83.8809C56.7031 85.0294 57.3292 87.1952 57.8241 88.5325C58.319 89.8697 58.9083 90.9088 59.7451 92.6166C60.5818 94.3244 61.2504 94.0769 62.254 95.0505C63.2575 96.024 62.8801 97.2163 62.7133 97.9505C62.5464 98.6847 62.0309 99.8989 61.6317 100.953C61.2324 102.007 60.6513 102.807 60.5282 103.817C60.4051 104.828 59.1772 106.013 58.0724 106.188C56.9677 106.363 55.7904 106.974 54.3807 107.906C52.971 108.837 49.561 106.97 49.0811 106.621C48.6012 106.273 42.0712 100.795 40.7914 99.8654C39.5117 98.9356 37.7233 98.3695 36.0579 96.793Z" fill="#F29600" stroke="black" stroke-width="0.437942"/>
<path d="M45.6887 101.763C44.2315 101.661 43.0527 100.518 40.5421 99.3635L40.5763 99.5798L45.7978 103.852L48.0697 105.598L49.7324 106.998L51.7591 107.896L54.0075 108.094L55.4358 107.314L57.0804 106.499L58.8844 105.991L60.1532 104.904L60.6136 103.611L60.1811 103.68L60.9831 102.444L62.6716 98.4081L62.8869 96.2678L62.2488 95.0387L61.2467 94.3106L60.2103 93.3662L59.2361 91.4144L57.8175 88.757L57.0703 85.439L56.8476 84.0332L56.8863 81.4775L56.2653 80.3565L54.1241 78.0352L52.1134 75.139L50.6885 71.0416L48.0731 65.0265L46.9393 62.7674C45.4244 60.9011 43.3727 62.645 43.5645 63.8561C43.8043 65.3701 43.981 65.7855 43.9188 66.793C43.8567 67.8005 45.1564 71.8069 45.3448 72.9964C45.5332 74.1859 45.0385 75.2619 44.7087 75.9792L44.7087 75.9793C44.1142 77.2725 42.41 77.5627 41.8693 77.6483C41.4367 77.7169 40.0481 78.0476 39.3992 78.1504C39.6744 78.2546 40.2748 78.4995 40.4752 78.6451C40.7258 78.8271 43.5662 79.264 45.1487 79.4568C46.7311 79.6496 50.9142 78.7653 52.0073 79.3681C53.1004 79.971 55.3273 82.8329 55.6014 84.5631C55.8754 86.2933 57.2886 89.6167 57.5337 90.4647C57.7789 91.3126 58.4512 92.7581 59.7328 94.5504C61.0143 96.3427 60.8719 96.1436 60.1609 97.2538C59.45 98.3641 58.5281 98.8426 57.5838 99.879C56.6394 100.915 55.4264 99.5556 54.2026 99.5277C52.9789 99.4999 52.8654 100.183 52.1769 100.735C51.4884 101.288 51.028 102.58 50.0034 102.41C48.9788 102.24 47.1458 101.865 45.6887 101.763Z" fill="#D7890A"/>
<path d="M36.0579 96.793C34.3926 95.2164 35.2705 91.8215 35.3567 89.6844C35.5833 87.242 34.9193 86.9224 34.5693 84.7129C34.2194 82.5033 30.4594 78.4273 27.74 76.4515C25.0205 74.4757 24.1619 72.6298 25.5784 70.8483C26.995 69.0667 34.5792 74.9436 37.1387 76.8032C39.6982 78.6628 41.1517 78.0079 43.7824 76.7419C46.4131 75.4758 44.3022 69.2983 43.9304 66.9507C43.5585 64.603 42.8162 62.5972 45.1201 61.9492C47.424 61.3011 48.7132 66.7594 50.6053 71.5559C52.4975 76.3525 54.5484 78.5757 55.8938 79.9198C57.2392 81.2639 56.9055 82.7324 56.8043 83.8809C56.7031 85.0294 57.3292 87.1952 57.8241 88.5325C58.319 89.8697 58.9083 90.9088 59.7451 92.6166C60.5818 94.3244 61.2504 94.0769 62.254 95.0505C63.2575 96.024 62.8801 97.2163 62.7133 97.9505C62.5464 98.6847 62.0309 99.8989 61.6317 100.953C61.2324 102.007 60.6513 102.807 60.5282 103.817C60.4051 104.828 59.1772 106.013 58.0724 106.188C56.9677 106.363 55.7904 106.974 54.3807 107.906C52.971 108.837 49.561 106.97 49.0811 106.621C48.6012 106.273 42.0712 100.795 40.7914 99.8654C39.5117 98.9356 37.7233 98.3695 36.0579 96.793Z" stroke="black" stroke-width="0.437942"/>
<path d="M38.548 77.5708C39.3259 78.0138 40.1477 78.733 40.7001 78.6456C41.2524 78.5581 43.2227 79.3785 44.3425 80.1921" stroke="black" stroke-width="0.437942"/>
<path d="M48.4445 104.316C48.5976 105.282 49.2224 104.759 49.4549 104.439L49.6993 103.975C49.435 103.632 49.1429 103.242 48.7781 102.847C48.5663 102.617 48.2919 102.374 47.9799 102.124C48.0837 102.532 48.322 103.542 48.4445 104.316Z" fill="white"/>
<path d="M49.774 87.6838C50.0406 87.8775 50.5768 88.4626 50.5888 89.2535M49.421 94.3931C49.8344 93.7614 50.6265 92.0787 50.4876 90.402M54.8849 89.564C54.7732 89.157 54.6021 88.1365 54.8111 87.3107M51.9175 101.217C52.2443 100.599 52.9416 99.6395 53.6321 99.5301C54.3226 99.4208 54.7369 99.3552 55.1949 99.5657C55.653 99.7763 56.2272 99.8269 56.7796 99.7394C57.2215 99.6694 57.6711 99.4095 57.8406 99.2883M53.6771 102.496C53.7473 102.343 53.9706 102.025 54.302 101.972C54.7163 101.907 55.1743 102.117 55.3343 102.233M60.4795 99.8612L61.6417 98.2615M39.8485 95.6261C40.0017 96.5928 40.126 98.2718 41.2964 98.5111C42.4668 98.7504 43.0192 98.663 44.139 99.4765C45.0275 100.122 46.7812 101.165 47.9799 102.124M60.8951 102.485C60.3358 103.423 59.5223 104.543 58.7374 104.95C57.9526 105.358 56.8547 104.682 55.9605 104.399C55.0663 104.116 54.4414 104.64 53.7509 104.749C53.0604 104.858 51.9994 105.31 51.1271 105.165C50.565 105.071 50.1778 104.598 49.6993 103.975M47.9799 102.124C48.2919 102.374 48.5663 102.617 48.7781 102.847C49.1429 103.242 49.435 103.632 49.6993 103.975M47.9799 102.124C48.0837 102.532 48.322 103.542 48.4445 104.316C48.5976 105.282 49.2224 104.759 49.4549 104.439L49.6993 103.975" stroke="black" stroke-width="0.437942"/>
<path d="M40.2745 88.481C40.8173 88.6309 42.3698 89.1967 44.2369 90.2599C46.5708 91.589 47.5744 92.5625 48.6873 94.2266" stroke="black" stroke-width="0.437942"/>
<path d="M40.5709 88.5752L41.2927 93.1324C42.1144 93.8516 46.5267 94.0022 48.3219 93.7178C45.9014 90.5905 42.146 88.9863 40.5709 88.5752Z" fill="white" stroke="black" stroke-width="0.437942"/>
<path d="M44.9456 93.8282C43.7939 92.9914 43.3692 90.7276 43.3009 89.7003C45.8659 90.8795 47.7194 92.8698 48.3256 93.7175C47.4364 93.764 45.5155 93.8512 44.9456 93.8282Z" fill="#008086" stroke="black" stroke-width="0.437942"/>
<circle cx="45.0301" cy="91.6915" r="0.699093" transform="rotate(-9 45.0301 91.6915)" fill="white"/>
<circle cx="45.5533" cy="92.3165" r="0.838912" transform="rotate(-9 45.5533 92.3165)" fill="black"/>
<path d="M55.693 89.295C55.6525 89.7544 55.9386 91.1435 56.0867 91.7807C56.999 90.3905 57.4641 89.156 57.5826 88.7126L56.8539 85.0058C56.4838 86.2441 55.7335 88.8356 55.693 89.295Z" fill="white" stroke="black" stroke-width="0.437942"/>
<path d="M57.0873 90.0647C57.0808 88.5935 56.628 87.1646 56.4024 86.6341L55.6913 89.2948L55.7569 89.7091L56.1069 91.9187C56.2933 91.606 56.7504 90.7975 57.0873 90.0647Z" fill="#008086" stroke="black" stroke-width="0.437942"/>
<path d="M56.4704 89.7379C56.5229 90.0694 56.0611 90.1331 55.8236 90.1235L55.6705 89.1568C55.7261 88.9121 55.8926 88.4138 56.1135 88.3788C56.3897 88.3351 56.4048 89.3236 56.4704 89.7379Z" fill="black" stroke="black" stroke-width="0.437942"/>
<rect x="0.838379" y="22.3877" width="65.4723" height="126.31" rx="3.50353" transform="rotate(-9 0.838379 22.3877)" fill="#005BA6"/>
</g>
<rect x="4.29877" y="16.2021" width="65.2154" height="126.287" rx="3.48979" transform="rotate(-9 4.29877 16.2021)" fill="#2D4DDE"/>
<rect x="6.82373" y="32.1436" width="65.2154" height="3.92601" transform="rotate(-9 6.82373 32.1436)" fill="white"/>
<rect x="7.02844" y="33.436" width="65.2154" height="1.30867" transform="rotate(-9 7.02844 33.436)" fill="#61B9F5"/>
<g clip-path="url(#clip0_40001101_48628)">
<rect x="7.43787" y="36.0215" width="65.2154" height="99.677" transform="rotate(-9 7.43787 36.0215)" fill="url(#paint0_radial_40001101_48628)"/>
<path d="M35.6067 124.64L20.6524 125.032L22.5328 136.905L23.738 144.514L66.6134 143.137L90.2457 128.021L88.8468 119.189L65.9039 122.822L35.6067 124.64Z" fill="#CAA2C5"/>
<path fill-rule="evenodd" clip-rule="evenodd" d="M13.956 132.357C13.2465 131.572 12.6606 130.651 12.2414 129.612C10.3251 124.865 12.6202 119.463 17.3676 117.547C21.1711 116.012 25.3948 117.18 27.9094 120.146C30.4472 119.983 32.9386 120.88 34.7885 122.584C35.0745 122.42 35.375 122.274 35.6892 122.147C38.4458 121.034 41.4825 121.723 43.4944 123.659C43.9326 123.356 44.411 123.096 44.9261 122.888C48.1612 121.582 51.782 122.757 53.6796 125.518C57.2197 124.522 61.0164 126.331 62.4246 129.82C63.9351 133.562 62.126 137.82 58.384 139.33C56.5185 140.083 54.5249 140.011 52.8073 139.286C49.1849 142.167 43.816 145.21 37.5515 147.739C24.9849 152.811 13.5732 153.89 12.0627 150.148C11.3952 148.494 12.7734 146.175 15.6045 143.664C11.8359 143.763 9.137 142.899 8.38898 141.046C7.46514 138.757 9.73092 135.489 13.956 132.357Z" fill="#F5ECF5"/>
<g filter="url(#filter1_d_40001101_48628)">
<circle cx="68.5587" cy="42.6821" r="37.2971" transform="rotate(-9 68.5587 42.6821)" fill="#FFE5FF"/>
</g>
<mask id="path-29-inside-1_40001101_48628" fill="white">
<path fill-rule="evenodd" clip-rule="evenodd" d="M35.5858 45.0338C23.6634 49.5845 16.0787 61.2984 18.0198 73.5539C20.2717 87.7716 34.491 97.3343 49.7795 94.9129C65.068 92.4914 75.6362 79.0027 73.3844 64.785C71.466 52.6727 60.8621 43.9388 48.3109 43.1148L48.3528 43.3792C57.7822 44.753 65.6342 52.1028 67.2033 62.0097C69.1349 74.2048 60.8146 85.6567 48.6195 87.5882C36.4244 89.5198 24.9725 81.1995 23.0409 69.0044C21.4469 58.9397 26.8355 49.3814 35.6221 45.2631L35.5858 45.0338Z"/>
</mask>
<path fill-rule="evenodd" clip-rule="evenodd" d="M35.5858 45.0338C23.6634 49.5845 16.0787 61.2984 18.0198 73.5539C20.2717 87.7716 34.491 97.3343 49.7795 94.9129C65.068 92.4914 75.6362 79.0027 73.3844 64.785C71.466 52.6727 60.8621 43.9388 48.3109 43.1148L48.3528 43.3792C57.7822 44.753 65.6342 52.1028 67.2033 62.0097C69.1349 74.2048 60.8146 85.6567 48.6195 87.5882C36.4244 89.5198 24.9725 81.1995 23.0409 69.0044C21.4469 58.9397 26.8355 49.3814 35.6221 45.2631L35.5858 45.0338Z" fill="#FFF5A0"/>
<path d="M35.5858 45.0338L35.8012 44.9996L35.7592 44.7341L35.508 44.83L35.5858 45.0338ZM48.3109 43.1148L48.3252 42.8972L48.0528 42.8793L48.0955 43.149L48.3109 43.1148ZM48.3528 43.3792L48.1373 43.4133L48.1624 43.5719L48.3213 43.5951L48.3528 43.3792ZM35.6221 45.2631L35.7147 45.4605L35.8632 45.3909L35.8376 45.2289L35.6221 45.2631ZM18.2352 73.5198C16.3123 61.3785 23.8253 49.7562 35.6636 45.2375L35.508 44.83C23.5014 49.4129 15.8452 61.2183 17.8044 73.588L18.2352 73.5198ZM49.7453 94.6975C34.5608 97.1024 20.466 87.604 18.2352 73.5198L17.8044 73.588C20.0774 87.9391 34.4211 97.5662 49.8136 95.1283L49.7453 94.6975ZM73.169 64.8191C75.3997 78.9034 64.9299 92.2925 49.7453 94.6975L49.8136 95.1283C65.2061 92.6904 75.8728 79.102 73.5998 64.7509L73.169 64.8191ZM48.2966 43.3325C60.7589 44.1506 71.2684 52.8196 73.169 64.8191L73.5998 64.7509C71.6635 52.5257 60.9652 43.7269 48.3252 42.8972L48.2966 43.3325ZM48.0955 43.149L48.1373 43.4133L48.5682 43.3451L48.5263 43.0807L48.0955 43.149ZM67.4188 61.9756C65.8343 51.9717 57.9054 44.5505 48.3842 43.1634L48.3213 43.5951C57.6589 44.9554 65.4342 52.2339 66.9879 62.0438L67.4188 61.9756ZM48.6536 87.8037C60.9677 85.8533 69.3691 74.2897 67.4188 61.9756L66.9879 62.0438C68.9006 74.12 60.6615 85.4601 48.5853 87.3728L48.6536 87.8037ZM22.8255 69.0385C24.7759 81.3526 36.3395 89.754 48.6536 87.8037L48.5853 87.3728C36.5092 89.2855 25.169 81.0464 23.2564 68.9702L22.8255 69.0385ZM35.5296 45.0656C26.6573 49.224 21.2158 58.8754 22.8255 69.0385L23.2564 68.9702C21.6779 59.0041 27.0137 49.5387 35.7147 45.4605L35.5296 45.0656ZM35.8376 45.2289L35.8012 44.9996L35.3704 45.0679L35.4067 45.2972L35.8376 45.2289Z" fill="black" mask="url(#path-29-inside-1_40001101_48628)"/>
<mask id="path-31-outside-2_40001101_48628" maskUnits="userSpaceOnUse" x="18.3313" y="38.4649" width="52.7861" height="53.6173" fill="black">
<rect fill="white" x="18.3313" y="38.4649" width="52.7861" height="53.6173"/>
<path fill-rule="evenodd" clip-rule="evenodd" d="M27.3004 74.8538C25.1119 72.8394 23.5492 70.3567 22.8576 67.5406C22.9025 68.0268 22.9635 68.5147 23.041 69.0039C24.9725 81.199 36.4244 89.5193 48.6195 87.5878C60.8146 85.6563 69.1349 74.2044 67.2034 62.0093C67.1259 61.5201 67.0331 61.0371 66.9255 60.5608C67.1381 63.4529 66.419 66.2971 64.96 68.8892C65.2549 67.0418 65.2678 65.1257 64.9612 63.1899C64.2614 58.7713 62.01 54.9646 58.8124 52.1866L58.4185 52.249C60.3797 54.2077 61.7186 56.659 62.1588 59.4379C62.9075 64.165 60.8898 68.7942 57.1487 72.1324C58.8807 68.5036 59.565 63.9763 58.8168 59.2526C57.6428 51.8405 53.2642 45.9782 47.9323 43.7862C51.1093 45.1693 53.4979 47.9785 54.0564 51.5046C54.9515 57.156 50.8064 62.5088 44.798 63.4604C38.7897 64.412 33.1934 60.6021 32.2983 54.9507C31.7398 51.4243 33.1437 48.0142 35.7382 45.717C31.3442 49.4493 28.9911 56.3781 30.1651 63.7905C30.9132 68.5141 32.9629 72.6083 35.7313 75.5242C31.1421 73.5053 27.7929 69.7263 27.0443 64.9994C26.6041 62.2205 27.12 59.4755 28.38 57.0066L27.9859 57.0691C25.8032 60.6992 24.8383 65.0153 25.5382 69.4339C25.8448 71.3696 26.4491 73.188 27.3004 74.8538ZM41.5566 42.9949L41.5566 42.9949L41.4929 43.0051L41.5566 42.9949Z"/>
</mask>
<path fill-rule="evenodd" clip-rule="evenodd" d="M27.3004 74.8538C25.1119 72.8394 23.5492 70.3567 22.8576 67.5406C22.9025 68.0268 22.9635 68.5147 23.041 69.0039C24.9725 81.199 36.4244 89.5193 48.6195 87.5878C60.8146 85.6563 69.1349 74.2044 67.2034 62.0093C67.1259 61.5201 67.0331 61.0371 66.9255 60.5608C67.1381 63.4529 66.419 66.2971 64.96 68.8892C65.2549 67.0418 65.2678 65.1257 64.9612 63.1899C64.2614 58.7713 62.01 54.9646 58.8124 52.1866L58.4185 52.249C60.3797 54.2077 61.7186 56.659 62.1588 59.4379C62.9075 64.165 60.8898 68.7942 57.1487 72.1324C58.8807 68.5036 59.565 63.9763 58.8168 59.2526C57.6428 51.8405 53.2642 45.9782 47.9323 43.7862C51.1093 45.1693 53.4979 47.9785 54.0564 51.5046C54.9515 57.156 50.8064 62.5088 44.798 63.4604C38.7897 64.412 33.1934 60.6021 32.2983 54.9507C31.7398 51.4243 33.1437 48.0142 35.7382 45.717C31.3442 49.4493 28.9911 56.3781 30.1651 63.7905C30.9132 68.5141 32.9629 72.6083 35.7313 75.5242C31.1421 73.5053 27.7929 69.7263 27.0443 64.9994C26.6041 62.2205 27.12 59.4755 28.38 57.0066L27.9859 57.0691C25.8032 60.6992 24.8383 65.0153 25.5382 69.4339C25.8448 71.3696 26.4491 73.188 27.3004 74.8538ZM41.5566 42.9949L41.5566 42.9949L41.4929 43.0051L41.5566 42.9949Z" fill="#F9FDFF"/>
<path d="M27.3004 74.8538L27.1527 75.0143L27.4946 74.7545L27.3004 74.8538ZM22.8576 67.5406L23.0694 67.4885L22.6404 67.5606L22.8576 67.5406ZM66.9255 60.5608L67.1383 60.5128L66.708 60.5768L66.9255 60.5608ZM64.96 68.8892L64.7447 68.8548L65.1501 68.9962L64.96 68.8892ZM58.8124 52.1866L58.9554 52.022L58.8787 51.9553L58.7782 51.9712L58.8124 52.1866ZM58.4185 52.249L58.3843 52.0336L57.9612 52.1006L58.2643 52.4033L58.4185 52.249ZM57.1487 72.1324L56.9519 72.0385L57.2939 72.2951L57.1487 72.1324ZM47.9323 43.7862L48.0152 43.5844L47.8452 43.9862L47.9323 43.7862ZM35.7382 45.717L35.8828 45.8803L35.597 45.5508L35.7382 45.717ZM35.7313 75.5242L35.6435 75.7238L35.8895 75.374L35.7313 75.5242ZM28.38 57.0066L28.5743 57.1058L28.7691 56.7242L28.3459 56.7912L28.38 57.0066ZM27.9859 57.0691L27.9517 56.8536L27.8513 56.8695L27.7989 56.9567L27.9859 57.0691ZM41.5566 42.9949L41.6129 42.7842L41.5679 42.7721L41.5219 42.7795L41.5566 42.9949ZM41.5566 42.9949L41.5913 43.2102L41.6129 42.7842L41.5566 42.9949ZM41.4929 43.0051L41.4582 42.7898L41.5276 43.2205L41.4929 43.0051ZM27.4481 74.6933C25.2875 72.7046 23.7496 70.2584 23.0694 67.4885L22.6458 67.5926C23.3487 70.455 24.9364 72.9742 27.1527 75.0143L27.4481 74.6933ZM22.6404 67.5606C22.6858 68.0515 22.7473 68.5442 22.8255 69.038L23.2564 68.9698C23.1797 68.4853 23.1193 68.002 23.0748 67.5205L22.6404 67.5606ZM22.8255 69.038C24.7759 81.3521 36.3395 89.7536 48.6536 87.8032L48.5854 87.3724C36.5092 89.285 25.1691 81.0459 23.2564 68.9698L22.8255 69.038ZM48.6536 87.8032C60.9677 85.8529 69.3692 74.2892 67.4188 61.9752L66.9879 62.0434C68.9006 74.1195 60.6615 85.4597 48.5854 87.3724L48.6536 87.8032ZM67.4188 61.9752C67.3406 61.4813 67.2469 60.9937 67.1383 60.5128L66.7128 60.6089C66.8193 61.0806 66.9112 61.5589 66.9879 62.0434L67.4188 61.9752ZM66.708 60.5768C66.917 63.4213 66.2103 66.2231 64.77 68.7822L65.1501 68.9962C66.6276 66.3711 67.3591 63.4845 67.1431 60.5448L66.708 60.5768ZM65.1754 68.9236C65.4738 67.0539 65.4869 65.1146 65.1766 63.1558L64.7458 63.224C65.0487 65.1367 65.0359 67.0297 64.7447 68.8548L65.1754 68.9236ZM65.1766 63.1558C64.4683 58.6836 62.1894 54.8316 58.9554 52.022L58.6693 52.3513C61.8305 55.0976 64.0544 58.859 64.7458 63.224L65.1766 63.1558ZM58.7782 51.9712L58.3843 52.0336L58.4526 52.4644L58.8465 52.402L58.7782 51.9712ZM58.2643 52.4033C60.1959 54.3324 61.511 56.7426 61.9433 59.472L62.3742 59.4037C61.9262 56.5753 60.5635 54.083 58.5726 52.0947L58.2643 52.4033ZM61.9433 59.472C62.6783 64.1123 60.7002 68.671 57.0035 71.9697L57.2939 72.2951C61.0794 68.9173 63.1366 64.2176 62.3742 59.4037L61.9433 59.472ZM57.3455 72.2264C59.0978 68.5551 59.7868 63.9827 59.0322 59.2184L58.6014 59.2867C59.3431 63.9698 58.6636 68.4521 56.9519 72.0385L57.3455 72.2264ZM59.0322 59.2184C57.849 51.7476 53.4316 45.8112 48.0152 43.5844L47.8494 43.9879C53.0968 46.1452 57.4367 51.9334 58.6014 59.2867L59.0322 59.2184ZM47.8452 43.9862C50.9605 45.3424 53.2952 48.093 53.8409 51.5387L54.2718 51.4704C53.7006 47.8639 51.258 44.9961 48.0194 43.5862L47.8452 43.9862ZM53.8409 51.5387C54.7153 57.0589 50.6659 62.3102 44.7639 63.245L44.8322 63.6758C50.9468 62.7073 55.1877 57.2531 54.2718 51.4704L53.8409 51.5387ZM44.7639 63.245C38.862 64.1797 33.388 60.4368 32.5137 54.9166L32.0829 54.9848C32.9988 60.7674 38.7175 64.6443 44.8322 63.6758L44.7639 63.245ZM32.5137 54.9166C31.9679 51.4706 33.3387 48.1329 35.8828 45.8803L35.5936 45.5537C32.9487 47.8955 31.5116 51.378 32.0829 54.9848L32.5137 54.9166ZM35.597 45.5508C31.1333 49.3422 28.7664 56.3535 29.9497 63.8247L30.3805 63.7564C29.2158 56.4027 31.555 49.5564 35.8794 45.8833L35.597 45.5508ZM29.9497 63.8247C30.7042 68.5888 32.7723 72.7243 35.5732 75.6744L35.8895 75.374C33.1535 72.4922 31.1222 68.4394 30.3805 63.7564L29.9497 63.8247ZM35.8192 75.3246C31.2843 73.3296 27.9946 69.6055 27.2597 64.9653L26.8289 65.0336C27.5913 69.8472 30.9998 73.681 35.6435 75.7238L35.8192 75.3246ZM27.2597 64.9653C26.8274 62.2359 27.3334 59.5373 28.5743 57.1058L28.1858 56.9075C26.9067 59.4137 26.3809 62.2052 26.8289 65.0336L27.2597 64.9653ZM28.3459 56.7912L27.9517 56.8536L28.02 57.2845L28.4142 57.2221L28.3459 56.7912ZM27.7989 56.9567C25.5914 60.6282 24.6144 64.9959 25.3228 69.468L25.7536 69.3998C25.0623 65.0348 26.015 60.7702 28.1728 57.1815L27.7989 56.9567ZM25.3228 69.468C25.633 71.4268 26.2446 73.2671 27.1062 74.953L27.4946 74.7545C26.6537 73.1088 26.0565 71.3125 25.7536 69.3998L25.3228 69.468ZM41.5003 43.2056L41.5003 43.2056L41.6129 42.7842L41.6129 42.7842L41.5003 43.2056ZM41.5277 43.2205L41.5913 43.2102L41.5219 42.7795L41.4582 42.7898L41.5277 43.2205ZM41.5219 42.7795L41.4582 42.7898L41.5276 43.2205L41.5913 43.2102L41.5219 42.7795Z" fill="black" mask="url(#path-31-outside-2_40001101_48628)"/>
<path fill-rule="evenodd" clip-rule="evenodd" d="M53.2651 116.223L49.5289 92.6339L45.6512 93.2481L46.0266 95.6178C46.0311 95.6465 46.0361 95.6768 46.0413 95.7086C46.1721 96.5081 46.4492 98.2008 44.0663 98.5782L39.2192 99.3459C48.2293 101.799 50.7812 109.381 52.2097 113.625C52.6107 114.816 52.9231 115.745 53.2651 116.223ZM53.2651 116.223L49.5289 92.6339L53.4066 92.0198L53.7819 94.3895C53.7865 94.4182 53.7911 94.4486 53.796 94.4803C53.9186 95.2812 54.1781 96.9767 56.561 96.5992L61.4081 95.8315C53.597 100.948 53.513 108.948 53.466 113.426C53.4528 114.683 53.4425 115.663 53.2651 116.223Z" fill="#CAA561"/>
<path d="M49.5289 92.6339L49.6366 92.6169L49.6196 92.5092L49.5118 92.5262L49.5289 92.6339ZM53.2651 116.223L53.1764 116.287L53.3728 116.206L53.2651 116.223ZM45.6512 93.2481L45.6342 93.1404L45.5265 93.1574L45.5435 93.2651L45.6512 93.2481ZM46.0266 95.6178L46.1343 95.6007L46.0266 95.6178ZM46.0413 95.7086L45.9336 95.7262L45.9336 95.7262L46.0413 95.7086ZM39.2192 99.3459L39.2022 99.2382L39.1906 99.4511L39.2192 99.3459ZM52.2097 113.625L52.3131 113.59L52.2097 113.625ZM49.5289 92.6339L49.5119 92.5262L49.4041 92.5433L49.4212 92.651L49.5289 92.6339ZM53.2651 116.223L53.1574 116.24L53.369 116.256L53.2651 116.223ZM53.4066 92.0198L53.5143 92.0027L53.4972 91.895L53.3895 91.912L53.4066 92.0198ZM53.7819 94.3895L53.8896 94.3724L53.7819 94.3895ZM53.796 94.4803L53.9038 94.4638L53.9038 94.4638L53.796 94.4803ZM61.4081 95.8315L61.4679 95.9228L61.3911 95.7238L61.4081 95.8315ZM53.466 113.426L53.3569 113.425L53.466 113.426ZM49.4212 92.651L53.1574 116.24L53.3728 116.206L49.6366 92.6169L49.4212 92.651ZM45.6683 93.3558L49.546 92.7416L49.5118 92.5262L45.6342 93.1404L45.6683 93.3558ZM46.1343 95.6007L45.7589 93.231L45.5435 93.2651L45.9188 95.6348L46.1343 95.6007ZM46.1489 95.6909C46.1437 95.6592 46.1388 95.6291 46.1343 95.6007L45.9188 95.6348C45.9234 95.6639 45.9285 95.6945 45.9336 95.7262L46.1489 95.6909ZM44.0834 98.6859C45.3041 98.4926 45.8696 97.9552 46.0987 97.3397C46.3224 96.7384 46.2137 96.087 46.1489 95.6909L45.9336 95.7262C45.9997 96.1296 46.0949 96.7244 45.8942 97.2636C45.6988 97.7888 45.2114 98.2864 44.0492 98.4705L44.0834 98.6859ZM39.2363 99.4536L44.0834 98.6859L44.0492 98.4705L39.2022 99.2382L39.2363 99.4536ZM52.3131 113.59C50.8851 109.348 48.3184 101.71 39.2479 99.2407L39.1906 99.4511C48.1402 101.887 50.6772 109.414 52.1063 113.66L52.3131 113.59ZM53.3538 116.16C53.1913 115.932 53.0317 115.592 52.8612 115.152C52.6913 114.714 52.5138 114.187 52.3131 113.59L52.1063 113.66C52.3066 114.255 52.4858 114.787 52.6578 115.231C52.8293 115.673 52.9969 116.036 53.1764 116.287L53.3538 116.16ZM49.4212 92.651L53.1574 116.24L53.3728 116.206L49.6366 92.6169L49.4212 92.651ZM53.3895 91.912L49.5119 92.5262L49.546 92.7416L53.4236 92.1275L53.3895 91.912ZM53.8896 94.3724L53.5143 92.0027L53.2989 92.0368L53.6742 94.4065L53.8896 94.3724ZM53.9038 94.4638C53.8989 94.4321 53.8942 94.4015 53.8896 94.3724L53.6742 94.4065C53.6787 94.4349 53.6833 94.465 53.6882 94.4968L53.9038 94.4638ZM56.544 96.4915C55.3818 96.6756 54.7645 96.3529 54.4163 95.9139C54.0588 95.463 53.9656 94.868 53.9038 94.4638L53.6882 94.4968C53.7489 94.8936 53.8468 95.5467 54.2454 96.0494C54.6535 96.564 55.3574 96.9003 56.5781 96.707L56.544 96.4915ZM61.3911 95.7238L56.544 96.4915L56.5781 96.707L61.4252 95.9393L61.3911 95.7238ZM53.575 113.427C53.622 108.947 53.7091 101.005 61.4679 95.9228L61.3484 95.7403C53.4848 100.892 53.4039 108.949 53.3569 113.425L53.575 113.427ZM53.369 116.256C53.4621 115.962 53.5095 115.565 53.536 115.092C53.5626 114.617 53.5684 114.055 53.575 113.427L53.3569 113.425C53.3503 114.054 53.3444 114.611 53.3182 115.08C53.2919 115.55 53.2454 115.924 53.1611 116.19L53.369 116.256Z" fill="black"/>
<path fill-rule="evenodd" clip-rule="evenodd" d="M51.6273 105.883L49.5289 92.6339L45.6512 93.2481L46.0266 95.6178C46.0311 95.6465 46.0361 95.6768 46.0413 95.7086C46.1721 96.5081 46.4492 98.2008 44.0663 98.5782L39.2192 99.3459C49.2546 102.078 50.0396 103.352 51.1 105.073C51.2589 105.33 51.424 105.598 51.6273 105.883ZM51.6273 105.883L49.5289 92.6339L53.4066 92.0198L53.7819 94.3895C53.7865 94.4182 53.7911 94.4486 53.796 94.4803C53.9186 95.2812 54.1781 96.9767 56.561 96.5992L61.4081 95.8315C52.7081 101.531 52.3552 102.985 51.8784 104.949C51.807 105.244 51.7328 105.549 51.6273 105.883Z" fill="#FFF5A0"/>
<path d="M49.5289 92.6339L49.6366 92.6169L49.6196 92.5092L49.5118 92.5262L49.5289 92.6339ZM51.6273 105.883L51.5386 105.946L51.735 105.866L51.6273 105.883ZM45.6512 93.2481L45.6342 93.1404L45.5265 93.1574L45.5435 93.2651L45.6512 93.2481ZM46.0266 95.6178L46.1343 95.6007L46.0266 95.6178ZM46.0413 95.7086L45.9336 95.7262L45.9336 95.7262L46.0413 95.7086ZM39.2192 99.3459L39.2022 99.2382L39.1906 99.4511L39.2192 99.3459ZM51.1 105.073L51.0072 105.13L51.1 105.073ZM49.5289 92.6339L49.5119 92.5262L49.4041 92.5433L49.4212 92.651L49.5289 92.6339ZM51.6273 105.883L51.5196 105.9L51.7313 105.916L51.6273 105.883ZM53.4066 92.0198L53.5143 92.0027L53.4972 91.895L53.3895 91.912L53.4066 92.0198ZM53.7819 94.3895L53.8896 94.3724L53.7819 94.3895ZM53.796 94.4803L53.9038 94.4638L53.9038 94.4638L53.796 94.4803ZM61.4081 95.8315L61.4679 95.9228L61.3911 95.7238L61.4081 95.8315ZM51.8784 104.949L51.9844 104.975L51.8784 104.949ZM49.4212 92.651L51.5196 105.9L51.735 105.866L49.6366 92.6169L49.4212 92.651ZM45.6683 93.3558L49.546 92.7416L49.5118 92.5262L45.6342 93.1404L45.6683 93.3558ZM46.1343 95.6007L45.7589 93.231L45.5435 93.2651L45.9188 95.6348L46.1343 95.6007ZM46.1489 95.6909C46.1437 95.6592 46.1388 95.6291 46.1343 95.6007L45.9188 95.6348C45.9234 95.6639 45.9285 95.6945 45.9336 95.7262L46.1489 95.6909ZM44.0834 98.6859C45.3041 98.4926 45.8696 97.9552 46.0987 97.3397C46.3224 96.7384 46.2137 96.087 46.1489 95.6909L45.9336 95.7262C45.9997 96.1296 46.0949 96.7244 45.8942 97.2636C45.6988 97.7888 45.2114 98.2864 44.0492 98.4705L44.0834 98.6859ZM39.2363 99.4536L44.0834 98.6859L44.0492 98.4705L39.2022 99.2382L39.2363 99.4536ZM51.1929 105.015C50.9281 104.586 50.675 104.174 50.287 103.761C49.8983 103.347 49.3775 102.935 48.578 102.493C46.9824 101.611 44.2663 100.607 39.2479 99.2407L39.1906 99.4511C44.2075 100.817 46.9016 101.816 48.4725 102.684C49.2561 103.117 49.7577 103.516 50.128 103.911C50.499 104.306 50.7417 104.699 51.0072 105.13L51.1929 105.015ZM51.716 105.819C51.5152 105.538 51.3519 105.273 51.1929 105.015L51.0072 105.13C51.1659 105.387 51.3328 105.658 51.5386 105.946L51.716 105.819ZM49.4212 92.651L51.5196 105.9L51.735 105.866L49.6366 92.6169L49.4212 92.651ZM53.3895 91.912L49.5119 92.5262L49.546 92.7416L53.4236 92.1275L53.3895 91.912ZM53.8896 94.3724L53.5143 92.0027L53.2989 92.0368L53.6742 94.4065L53.8896 94.3724ZM53.9038 94.4638C53.8989 94.4321 53.8942 94.4015 53.8896 94.3724L53.6742 94.4065C53.6787 94.4349 53.6833 94.465 53.6882 94.4968L53.9038 94.4638ZM56.544 96.4915C55.3818 96.6756 54.7645 96.3529 54.4163 95.9139C54.0588 95.463 53.9656 94.868 53.9038 94.4638L53.6882 94.4968C53.7489 94.8936 53.8468 95.5467 54.2454 96.0494C54.6535 96.564 55.3574 96.9003 56.5781 96.707L56.544 96.4915ZM61.3911 95.7238L56.544 96.4915L56.5781 96.707L61.4252 95.9393L61.3911 95.7238ZM51.9844 104.975C52.1038 104.483 52.2131 104.034 52.4438 103.544C52.6741 103.054 53.0277 102.52 53.6392 101.865C54.8649 100.554 57.1185 98.7719 61.4679 95.9228L61.3484 95.7403C56.9977 98.5903 54.7248 100.385 53.4799 101.716C52.856 102.384 52.4882 102.937 52.2465 103.451C52.0051 103.964 51.8915 104.433 51.7725 104.924L51.9844 104.975ZM51.7313 105.916C51.838 105.578 51.9131 105.269 51.9844 104.975L51.7725 104.924C51.701 105.218 51.6275 105.521 51.5233 105.85L51.7313 105.916Z" fill="black"/>
<path d="M45.4348 66.7828C52.1433 65.7204 58.5969 71.1094 59.8241 78.8572C60.4357 82.7186 59.122 86.517 57.0608 89.4462C54.997 92.379 52.1998 94.4191 49.8705 94.7882C47.5411 95.1571 44.2504 94.0811 41.3813 91.9296C38.5157 89.7807 36.0927 86.5742 35.4811 82.7128C34.254 74.9648 38.7263 67.8453 45.4348 66.7828Z" fill="url(#paint1_linear_40001101_48628)" stroke="black" stroke-width="0.218112"/>
<path fill-rule="evenodd" clip-rule="evenodd" d="M40.3958 71.3017L40.4072 71.2924L40.4077 71.2954L40.3958 71.3017ZM46.2473 90.4216C41.5543 90.3403 36.8427 87.8263 36.0705 82.9507C35.478 79.2101 36.7276 74.9706 39.5393 72.0867C39.8061 71.8131 40.0928 71.5507 40.3958 71.3017C35.7495 73.7999 34.6759 78.3287 35.5436 83.8071C36.6837 91.0052 45.1478 95.6462 49.8872 94.8955C54.6266 94.1449 61.2423 87.1155 60.1022 79.9174C59.2864 74.7668 57.0981 70.9447 52.5254 69.7245L52.5257 69.7264C52.6891 69.7987 52.8485 69.8746 53.0034 69.9542C56.6322 71.8181 58.9595 75.491 59.5519 79.2316C60.3298 84.143 56.537 87.8315 51.9449 89.4455C50.8862 86.0123 48.3436 79.7746 46.987 76.5841L49.1366 90.1561C49.1366 90.1561 49.1366 90.1562 49.1365 90.1562L46.987 76.5844C46.6806 80.0615 46.1854 86.848 46.2473 90.4216Z" fill="white"/>
<path d="M40.4072 71.2924L40.5149 71.2753L40.4852 71.0873L40.3381 71.2081L40.4072 71.2924ZM40.4077 71.2954L40.4593 71.3914L40.5275 71.3548L40.5154 71.2783L40.4077 71.2954ZM46.2473 90.4216L46.2454 90.5306L46.3583 90.5326L46.3563 90.4197L46.2473 90.4216ZM39.5393 72.0867L39.4612 72.0106L39.5393 72.0867ZM52.5254 69.7245L52.5535 69.6191L52.3915 69.5759L52.4177 69.7416L52.5254 69.7245ZM52.5257 69.7264L52.418 69.7435L52.4273 69.8021L52.4816 69.8261L52.5257 69.7264ZM53.0034 69.9542L53.0533 69.8572L53.0533 69.8572L53.0034 69.9542ZM51.9449 89.4455L51.8407 89.4777L51.8741 89.586L51.9811 89.5484L51.9449 89.4455ZM46.987 76.5841L47.0874 76.5415L46.8793 76.6012L46.987 76.5841ZM49.1366 90.1561L49.1537 90.2639L49.2614 90.2468L49.2443 90.1391L49.1366 90.1561ZM49.1365 90.1562L49.0288 90.1732L49.0459 90.2809L49.1536 90.2639L49.1365 90.1562ZM46.987 76.5844L47.0947 76.5673L46.8783 76.5748L46.987 76.5844ZM40.3381 71.2081L40.3266 71.2174L40.465 71.386L40.4764 71.3767L40.3381 71.2081ZM40.5154 71.2783L40.5149 71.2753L40.2995 71.3094L40.3 71.3124L40.5154 71.2783ZM40.4474 71.3978L40.4593 71.3914L40.3561 71.1993L40.3442 71.2057L40.4474 71.3978ZM46.2492 90.3125C41.5838 90.2317 36.9387 87.7354 36.1782 82.9337L35.9628 82.9678C36.7467 87.9173 41.5249 90.4489 46.2454 90.5306L46.2492 90.3125ZM36.1782 82.9337C35.591 79.2262 36.8302 75.0215 39.6174 72.1628L39.4612 72.0106C36.6249 74.9197 35.365 79.194 35.9628 82.9678L36.1782 82.9337ZM39.6174 72.1628C39.8812 71.8922 40.165 71.6325 40.465 71.386L40.3266 71.2175C40.0206 71.4689 39.7309 71.7339 39.4612 72.0106L39.6174 72.1628ZM40.3442 71.2057C37.9975 72.4674 36.5488 74.2454 35.7989 76.401C35.0502 78.5533 35.0005 81.0749 35.4359 83.8242L35.6513 83.79C35.2191 81.0609 35.2722 78.5789 36.0049 76.4727C36.7365 74.3697 38.1478 72.6342 40.4475 71.3978L40.3442 71.2057ZM35.4359 83.8242C36.012 87.4613 38.4365 90.4444 41.3037 92.4219C44.1684 94.3975 47.4974 95.3845 49.9042 95.0033L49.8701 94.7878C47.5376 95.1573 44.2649 94.1991 41.4276 92.2423C38.5929 90.2874 36.2153 87.351 35.6513 83.79L35.4359 83.8242ZM49.9042 95.0033C52.3111 94.622 55.1722 92.6546 57.2861 89.8905C59.402 87.1238 60.786 83.5375 60.2099 79.9003L59.9945 79.9345C60.5585 83.4954 59.2047 87.0228 57.1129 89.758C55.0191 92.4958 52.2026 94.4184 49.8701 94.7878L49.9042 95.0033ZM60.2099 79.9003C59.3911 74.7306 57.1868 70.8555 52.5535 69.6191L52.4973 69.8299C57.0095 71.0339 59.1818 74.803 59.9945 79.9345L60.2099 79.9003ZM52.4177 69.7416L52.418 69.7435L52.6334 69.7094L52.6331 69.7075L52.4177 69.7416ZM52.4816 69.8261C52.6431 69.8976 52.8007 69.9726 52.9536 70.0512L53.0533 69.8572C52.8964 69.7766 52.735 69.6997 52.5698 69.6267L52.4816 69.8261ZM52.9536 70.0512C56.5477 71.8973 58.8565 75.5381 59.4442 79.2487L59.6597 79.2146C59.0624 75.4438 56.7166 71.7388 53.0533 69.8572L52.9536 70.0512ZM59.4442 79.2487C60.2099 84.0828 56.48 87.736 51.9088 89.3426L51.9811 89.5484C56.594 87.9271 60.4498 84.2032 59.6597 79.2146L59.4442 79.2487ZM46.8866 76.6268C48.2435 79.8177 50.7839 86.0505 51.8407 89.4777L52.0492 89.4134C50.9885 85.974 48.4438 79.7315 47.0874 76.5415L46.8866 76.6268ZM49.2443 90.1391L47.0947 76.5671L46.8793 76.6012L49.0289 90.1732L49.2443 90.1391ZM49.1195 90.0484C49.1195 90.0484 49.1195 90.0484 49.1195 90.0484C49.1195 90.0484 49.1195 90.0484 49.1195 90.0484C49.1195 90.0484 49.1195 90.0484 49.1195 90.0484L49.1195 90.0484L49.1195 90.0484L49.1195 90.0484L49.1195 90.0484L49.1195 90.0484C49.1195 90.0484 49.1195 90.0484 49.1195 90.0484C49.1195 90.0484 49.1195 90.0484 49.1195 90.0484C49.1195 90.0484 49.1195 90.0484 49.1195 90.0484C49.1195 90.0484 49.1195 90.0484 49.1195 90.0484C49.1195 90.0484 49.1195 90.0484 49.1195 90.0484C49.1195 90.0484 49.1195 90.0484 49.1195 90.0484C49.1195 90.0484 49.1195 90.0484 49.1195 90.0484C49.1195 90.0484 49.1195 90.0484 49.1195 90.0484C49.1195 90.0484 49.1195 90.0484 49.1195 90.0484C49.1195 90.0484 49.1195 90.0484 49.1195 90.0484C49.1195 90.0484 49.1195 90.0484 49.1195 90.0484L49.1195 90.0484L49.1195 90.0484L49.1195 90.0484L49.1195 90.0484L49.1195 90.0484L49.1195 90.0484L49.1195 90.0484C49.1195 90.0484 49.1195 90.0484 49.1195 90.0484C49.1195 90.0484 49.1195 90.0484 49.1195 90.0484C49.1195 90.0484 49.1195 90.0484 49.1195 90.0484C49.1195 90.0484 49.1195 90.0484 49.1195 90.0484C49.1195 90.0484 49.1195 90.0484 49.1195 90.0484C49.1195 90.0484 49.1195 90.0484 49.1195 90.0484C49.1195 90.0484 49.1195 90.0484 49.1195 90.0484C49.1195 90.0484 49.1195 90.0484 49.1195 90.0484C49.1195 90.0484 49.1195 90.0484 49.1195 90.0484C49.1195 90.0484 49.1195 90.0484 49.1195 90.0484C49.1195 90.0484 49.1195 90.0484 49.1195 90.0484C49.1195 90.0484 49.1195 90.0484 49.1195 90.0484L49.1195 90.0484L49.1195 90.0484L49.1195 90.0484L49.1195 90.0484L49.1195 90.0484L49.1195 90.0484L49.1195 90.0484C49.1195 90.0484 49.1195 90.0484 49.1195 90.0484C49.1195 90.0484 49.1195 90.0484 49.1195 90.0484C49.1195 90.0484 49.1195 90.0484 49.1195 90.0484C49.1195 90.0484 49.1195 90.0484 49.1195 90.0484C49.1195 90.0484 49.1195 90.0484 49.1195 90.0484C49.1195 90.0484 49.1195 90.0484 49.1195 90.0484C49.1195 90.0484 49.1195 90.0484 49.1195 90.0484C49.1195 90.0484 49.1195 90.0484 49.1195 90.0484C49.1195 90.0484 49.1195 90.0484 49.1195 90.0484C49.1195 90.0484 49.1195 90.0484 49.1195 90.0484C49.1195 90.0484 49.1195 90.0484 49.1195 90.0484L49.1195 90.0484L49.1195 90.0484L49.1195 90.0484L49.1195 90.0484L49.1195 90.0484C49.1195 90.0484 49.1195 90.0484 49.1195 90.0484C49.1195 90.0484 49.1195 90.0484 49.1195 90.0484C49.1195 90.0484 49.1195 90.0484 49.1195 90.0484L49.1536 90.2639C49.1536 90.2639 49.1536 90.2639 49.1536 90.2639C49.1536 90.2639 49.1536 90.2639 49.1536 90.2639C49.1536 90.2639 49.1536 90.2639 49.1536 90.2639L49.1536 90.2639L49.1536 90.2639L49.1536 90.2639L49.1536 90.2639L49.1536 90.2639C49.1536 90.2639 49.1536 90.2639 49.1536 90.2639C49.1536 90.2639 49.1536 90.2639 49.1536 90.2639C49.1536 90.2639 49.1536 90.2639 49.1536 90.2639C49.1536 90.2639 49.1536 90.2639 49.1536 90.2639C49.1536 90.2639 49.1536 90.2639 49.1536 90.2639C49.1536 90.2639 49.1536 90.2639 49.1536 90.2639C49.1536 90.2639 49.1536 90.2639 49.1536 90.2639C49.1536 90.2639 49.1536 90.2639 49.1536 90.2639C49.1536 90.2639 49.1536 90.2639 49.1536 90.2639C49.1536 90.2639 49.1536 90.2639 49.1536 90.2639C49.1536 90.2639 49.1536 90.2639 49.1536 90.2639L49.1536 90.2639L49.1536 90.2639L49.1536 90.2639L49.1536 90.2639L49.1536 90.2639L49.1536 90.2639L49.1536 90.2639C49.1536 90.2639 49.1536 90.2639 49.1536 90.2639C49.1536 90.2639 49.1536 90.2639 49.1536 90.2639C49.1536 90.2639 49.1536 90.2639 49.1536 90.2639C49.1536 90.2639 49.1536 90.2639 49.1536 90.2639C49.1536 90.2639 49.1536 90.2639 49.1536 90.2639C49.1536 90.2639 49.1536 90.2639 49.1536 90.2639C49.1536 90.2639 49.1536 90.2639 49.1536 90.2639C49.1536 90.2639 49.1536 90.2639 49.1536 90.2639C49.1536 90.2639 49.1536 90.2639 49.1536 90.2639C49.1536 90.2639 49.1536 90.2639 49.1536 90.2639C49.1536 90.2639 49.1536 90.2639 49.1536 90.2639C49.1536 90.2639 49.1536 90.2639 49.1536 90.2639L49.1536 90.2639L49.1536 90.2639L49.1536 90.2639L49.1536 90.2639L49.1536 90.2639L49.1536 90.2639L49.1536 90.2639C49.1536 90.2639 49.1536 90.2639 49.1536 90.2639C49.1536 90.2639 49.1536 90.2639 49.1536 90.2639C49.1536 90.2639 49.1536 90.2639 49.1536 90.2639C49.1536 90.2639 49.1536 90.2639 49.1536 90.2639C49.1536 90.2639 49.1536 90.2639 49.1536 90.2639C49.1536 90.2639 49.1536 90.2639 49.1536 90.2639C49.1536 90.2639 49.1536 90.2639 49.1536 90.2639C49.1536 90.2639 49.1536 90.2639 49.1536 90.2639C49.1536 90.2639 49.1536 90.2639 49.1536 90.2639C49.1537 90.2639 49.1537 90.2639 49.1537 90.2639C49.1537 90.2639 49.1537 90.2639 49.1537 90.2639L49.1537 90.2639L49.1537 90.2639L49.1537 90.2639L49.1537 90.2639L49.1537 90.2639C49.1537 90.2639 49.1537 90.2639 49.1537 90.2639C49.1537 90.2639 49.1537 90.2639 49.1537 90.2639C49.1537 90.2639 49.1537 90.2639 49.1537 90.2639L49.1195 90.0484ZM49.2443 90.1391L47.0947 76.5673L46.8793 76.6014L49.0288 90.1732L49.2443 90.1391ZM46.8783 76.5748C46.572 80.0513 46.0762 86.8433 46.1382 90.4235L46.3563 90.4197C46.2945 86.8527 46.7891 80.0716 47.0956 76.5939L46.8783 76.5748Z" fill="black"/>
<mask id="path-40-outside-3_40001101_48628" maskUnits="userSpaceOnUse" x="49.8414" y="70.9975" width="10.4045" height="17.0545" fill="black">
<rect fill="white" x="49.8414" y="70.9975" width="10.4045" height="17.0545"/>
<path fill-rule="evenodd" clip-rule="evenodd" d="M54.1346 78.6442C53.1596 80.2557 52.469 82.8238 53.3187 86.8438C56.4424 86.349 60.2158 80.8931 56.704 76.1494C56.6786 76.1729 56.6177 76.2105 56.529 76.2654C56.203 76.467 55.5014 76.9009 54.8039 77.7168C53.6912 75.9443 51.1504 73.6995 50.4211 73.1696C52.2157 74.7098 53.6024 77.445 54.1346 78.6442Z"/>
</mask>
<path fill-rule="evenodd" clip-rule="evenodd" d="M54.1346 78.6442C53.1596 80.2557 52.469 82.8238 53.3187 86.8438C56.4424 86.349 60.2158 80.8931 56.704 76.1494C56.6786 76.1729 56.6177 76.2105 56.529 76.2654C56.203 76.467 55.5014 76.9009 54.8039 77.7168C53.6912 75.9443 51.1504 73.6995 50.4211 73.1696C52.2157 74.7098 53.6024 77.445 54.1346 78.6442Z" fill="#E94F97"/>
<path d="M53.3187 86.8438L53.3529 87.0592C53.2382 87.0774 53.1294 87.0025 53.1053 86.8889L53.3187 86.8438ZM54.1346 78.6442L54.334 78.5557C54.3629 78.6209 54.3581 78.6961 54.3212 78.7571L54.1346 78.6442ZM56.704 76.1494L56.5561 75.9891C56.6016 75.9471 56.6629 75.9264 56.7245 75.9323C56.7862 75.9381 56.8425 75.9698 56.8793 76.0196L56.704 76.1494ZM56.529 76.2654L56.4143 76.0799L56.4143 76.0799L56.529 76.2654ZM54.8039 77.7168L54.9697 77.8585C54.9246 77.9113 54.8571 77.9394 54.7879 77.9343C54.7187 77.9292 54.656 77.8915 54.6191 77.8327L54.8039 77.7168ZM50.4211 73.1696L50.279 73.3351C50.1902 73.2589 50.1774 73.1262 50.2499 73.0344C50.3225 72.9426 50.4546 72.9244 50.5493 72.9932L50.4211 73.1696ZM53.1053 86.8889C52.2461 82.8239 52.9398 80.1976 53.948 78.5313L54.3212 78.7571C53.3794 80.3138 52.6919 82.8237 53.5321 86.7987L53.1053 86.8889ZM56.8793 76.0196C58.6884 78.4633 58.621 81.0983 57.6991 83.1783C56.7843 85.242 55.0093 86.7968 53.3529 87.0592L53.2846 86.6283C54.7518 86.396 56.4253 84.9755 57.3003 83.0016C58.1679 81.044 58.2314 78.5792 56.5287 76.2792L56.8793 76.0196ZM56.4143 76.0799C56.4594 76.052 56.4943 76.0304 56.5212 76.0129C56.5514 75.9932 56.5586 75.9868 56.5561 75.9891L56.8519 76.3097C56.824 76.3354 56.788 76.3597 56.7593 76.3784C56.7271 76.3993 56.6873 76.4239 56.6437 76.4509L56.4143 76.0799ZM54.6381 77.575C55.3581 76.7329 56.083 76.2847 56.4143 76.0799L56.6437 76.4509C56.323 76.6492 55.6448 77.0689 54.9697 77.8585L54.6381 77.575ZM54.6191 77.8327C54.0767 76.9687 53.1781 75.9787 52.3159 75.1329C51.4546 74.2879 50.6455 73.6023 50.2928 73.3461L50.5493 72.9932C50.9259 73.2668 51.7519 73.9685 52.6214 74.8215C53.4901 75.6737 54.4183 76.6924 54.9886 77.6008L54.6191 77.8327ZM50.5631 73.0041C52.3978 74.5786 53.8006 77.3539 54.334 78.5557L53.9352 78.7327C53.4042 77.5361 52.0337 74.841 50.279 73.3351L50.5631 73.0041Z" fill="black" mask="url(#path-40-outside-3_40001101_48628)"/>
<path fill-rule="evenodd" clip-rule="evenodd" d="M54.082 78.622C54.6298 79.0909 55.1532 80.3 55.3857 81.7683C55.6966 83.7314 55.37 85.4145 54.6561 85.5276C54.0347 85.626 53.3246 84.5021 52.9461 82.9142C52.9917 81.8384 53.1747 80.9251 53.4373 80.1517C53.462 80.6038 53.52 81.1429 53.6111 81.7182C53.8561 83.2649 54.2476 84.4882 54.4855 84.4505C54.7235 84.4128 54.7178 83.1284 54.4728 81.5817C54.3038 80.5146 54.0651 79.6014 53.8551 79.1501C53.937 78.9869 54.0223 78.832 54.1099 78.6849C54.1009 78.6644 54.0916 78.6434 54.082 78.622Z" fill="#F6FFFF"/>
<path d="M43.5696 91.2588C44.0175 91.2983 45.6108 91.598 46.513 93.1113C46.4448 92.6805 46.3708 92.2137 46.3424 92.0342C46.3424 92.0342 48.2562 92.3935 49.4607 92.2027C50.6653 92.012 52.3743 91.0788 52.3743 91.0788L52.5449 92.156C52.9225 91.2865 53.8964 89.5349 54.7718 89.4846" stroke="black" stroke-width="0.218112" stroke-linejoin="round"/>
<mask id="path-44-outside-4_40001101_48628" maskUnits="userSpaceOnUse" x="35.0589" y="73.3391" width="10.4045" height="17.0545" fill="black">
<rect fill="white" x="35.0589" y="73.3391" width="10.4045" height="17.0545"/>
<path fill-rule="evenodd" clip-rule="evenodd" d="M40.8535 80.7481C42.2788 81.9794 43.7292 84.2085 44.1633 88.2942C41.0396 88.789 35.7649 84.7661 37.6389 79.1694C37.6704 79.1839 37.7399 79.2009 37.8412 79.2256C38.2135 79.3166 39.0149 79.5125 39.9304 80.0729C40.4409 78.0433 42.1637 75.1232 42.6936 74.3939C41.4627 76.4132 40.9891 79.4431 40.8535 80.7481Z"/>
</mask>
<path fill-rule="evenodd" clip-rule="evenodd" d="M40.8535 80.7481C42.2788 81.9794 43.7292 84.2085 44.1633 88.2942C41.0396 88.789 35.7649 84.7661 37.6389 79.1694C37.6704 79.1839 37.7399 79.2009 37.8412 79.2256C38.2135 79.3166 39.0149 79.5125 39.9304 80.0729C40.4409 78.0433 42.1637 75.1232 42.6936 74.3939C41.4627 76.4132 40.9891 79.4431 40.8535 80.7481Z" fill="#E94F97"/>
<path d="M44.1633 88.2942L44.1974 88.5097C44.3121 88.4915 44.3924 88.3867 44.3802 88.2712L44.1633 88.2942ZM40.8535 80.7481L40.6366 80.7256C40.6292 80.7965 40.657 80.8665 40.7109 80.9132L40.8535 80.7481ZM37.6389 79.1694L37.73 78.9712C37.6738 78.9454 37.6092 78.9446 37.5523 78.9692C37.4955 78.9938 37.4518 79.0414 37.4321 79.1001L37.6389 79.1694ZM37.8412 79.2256L37.7894 79.4375L37.8412 79.2256ZM39.9304 80.0729L39.8165 80.2589C39.8757 80.2951 39.9486 80.301 40.0128 80.2748C40.0771 80.2486 40.125 80.1934 40.1419 80.1261L39.9304 80.0729ZM42.6936 74.3939L42.8798 74.5074C42.9407 74.4075 42.9119 74.2773 42.8145 74.2124C42.7172 74.1475 42.5859 74.171 42.5171 74.2657L42.6936 74.3939ZM44.3802 88.2712C43.9412 84.1397 42.4699 81.8563 40.9961 80.5831L40.7109 80.9132C42.0877 82.1026 43.5171 84.2772 43.9464 88.3173L44.3802 88.2712ZM37.4321 79.1001C36.4667 81.9832 37.345 84.4685 38.8646 86.1618C40.3723 87.8418 42.5409 88.772 44.1974 88.5097L44.1291 88.0788C42.6619 88.3112 40.6314 87.4774 39.1893 85.8704C37.7592 84.2768 36.9371 81.9523 37.8458 79.2386L37.4321 79.1001ZM37.893 79.0137C37.8414 79.0011 37.8016 78.9914 37.7706 78.983C37.7358 78.9736 37.727 78.9698 37.73 78.9712L37.5478 79.3676C37.5823 79.3834 37.6241 79.3953 37.6572 79.4043C37.6942 79.4142 37.7397 79.4253 37.7894 79.4375L37.893 79.0137ZM40.0443 79.8869C39.0993 79.3084 38.2713 79.1062 37.893 79.0137L37.7894 79.4375C38.1557 79.527 38.9305 79.7165 39.8165 80.2589L40.0443 79.8869ZM40.1419 80.1261C40.3908 79.1367 40.9395 77.9175 41.4981 76.8467C42.0562 75.7768 42.6138 74.8748 42.87 74.5221L42.5171 74.2657C42.2435 74.6423 41.6747 75.565 41.1114 76.6449C40.5485 77.7238 39.9805 78.9795 39.7189 80.0197L40.1419 80.1261ZM42.5073 74.2803C41.249 76.3447 40.7725 79.4178 40.6366 80.7256L41.0705 80.7706C41.2058 79.4685 41.6763 76.4818 42.8798 74.5074L42.5073 74.2803Z" fill="black" mask="url(#path-44-outside-4_40001101_48628)"/>
<path fill-rule="evenodd" clip-rule="evenodd" d="M40.8967 80.711C40.5207 81.3262 40.3966 82.6379 40.6291 84.1062C40.9401 86.0694 41.7708 87.5691 42.4847 87.4561C43.1061 87.3576 43.4341 86.0693 43.3035 84.4421C42.9277 83.4331 42.4714 82.6212 41.9827 81.9668C42.0989 82.4043 42.2103 82.9348 42.3014 83.5101C42.5464 85.0568 42.552 86.3412 42.3141 86.3788C42.0761 86.4165 41.6846 85.1932 41.4397 83.6465C41.2707 82.5795 41.2156 81.6373 41.2757 81.1432C41.1474 81.0133 41.0185 80.8923 40.8896 80.7795C40.8919 80.7572 40.8943 80.7344 40.8967 80.711Z" fill="#F6FFFF"/>
</g>
<defs>
<filter id="filter0_d_40001101_48628" x="0.838867" y="0.124519" width="98.5325" height="148.311" filterUnits="userSpaceOnUse" color-interpolation-filters="sRGB">
<feFlood flood-opacity="0" result="BackgroundImageFix"/>
<feColorMatrix in="SourceAlpha" type="matrix" values="0 0 0 0 0 0 0 0 0 0 0 0 0 0 0 0 0 0 127 0" result="hardAlpha"/>
<feOffset dx="7.82259" dy="-5.21506"/>
<feGaussianBlur stdDeviation="3.35755"/>
<feComposite in2="hardAlpha" operator="out"/>
<feColorMatrix type="matrix" values="0 0 0 0 0.784314 0 0 0 0 0.843137 0 0 0 0 0.909804 0 0 0 0.25 0"/>
<feBlend mode="normal" in2="BackgroundImageFix" result="effect1_dropShadow_40001101_48628"/>
<feBlend mode="normal" in="SourceGraphic" in2="effect1_dropShadow_40001101_48628" result="shape"/>
</filter>
<filter id="filter1_d_40001101_48628" x="14.1562" y="-9.53944" width="108.805" height="108.805" filterUnits="userSpaceOnUse" color-interpolation-filters="sRGB">
<feFlood flood-opacity="0" result="BackgroundImageFix"/>
<feColorMatrix in="SourceAlpha" type="matrix" values="0 0 0 0 0 0 0 0 0 0 0 0 0 0 0 0 0 0 127 0" result="hardAlpha"/>
<feMorphology radius="14.1773" operator="dilate" in="SourceAlpha" result="effect1_dropShadow_40001101_48628"/>
<feOffset dy="2.18112"/>
<feGaussianBlur stdDeviation="1.46135"/>
<feComposite in2="hardAlpha" operator="out"/>
<feColorMatrix type="matrix" values="0 0 0 0 1 0 0 0 0 0.45098 0 0 0 0 0.996078 0 0 0 0.2 0"/>
<feBlend mode="normal" in2="BackgroundImageFix" result="effect1_dropShadow_40001101_48628"/>
<feBlend mode="normal" in="SourceGraphic" in2="effect1_dropShadow_40001101_48628" result="shape"/>
</filter>
<radialGradient id="paint0_radial_40001101_48628" cx="0" cy="0" r="1" gradientUnits="userSpaceOnUse" gradientTransform="translate(39.9365 74.7363) rotate(90) scale(69.7957 45.665)">
<stop stop-color="#C464F2"/>
<stop offset="0.670074" stop-color="#809EEA"/>
<stop offset="1" stop-color="#5874E1"/>
</radialGradient>
<linearGradient id="paint1_linear_40001101_48628" x1="45.4175" y1="66.6748" x2="49.8872" y2="94.8956" gradientUnits="userSpaceOnUse">
<stop offset="0.125" stop-color="#2C2778"/>
<stop offset="1" stop-color="#4C4EA3"/>
</linearGradient>
<clipPath id="clip0_40001101_48628">
<rect width="65.2154" height="99.677" fill="white" transform="translate(7.43787 36.0215) rotate(-9)"/>
</clipPath>
</defs>
</svg>
