<svg width="99" height="149" viewBox="0 0 99 149" fill="none" xmlns="http://www.w3.org/2000/svg">
<g opacity="0.2" filter="url(#filter0_d_40001101_49759)">
<rect y="22.2129" width="65.4723" height="126.784" rx="3.50353" transform="rotate(-9 0 22.2129)" fill="#A158ED"/>
<rect x="2.53418" y="38.2168" width="65.4723" height="3.94148" transform="rotate(-9 2.53418 38.2168)" fill="white"/>
<rect x="2.74023" y="39.5156" width="65.4723" height="1.31383" transform="rotate(-9 2.74023 39.5156)" fill="#61B9F5"/>
<rect x="3.14941" y="42.1094" width="65.4723" height="100.07" transform="rotate(-9 3.14941 42.1094)" fill="#4D6ECB"/>
<path d="M10.0703 85.7969L77.8366 95.1276L81.6731 119.35L17.0069 129.593L10.0703 85.7969Z" fill="#65612E"/>
<path d="M37.2622 120.179C26.6501 119.554 17.2699 113.147 13.9062 110.021L18.8047 140.949L83.4709 130.707L80.1824 109.944C70.2974 113.616 47.8743 120.803 37.2622 120.179Z" fill="#CDB389"/>
<path d="M35.2188 96.8032C33.5535 95.2267 34.4314 91.8317 34.5176 89.6946C34.7442 87.2522 34.0802 86.9327 33.7302 84.7231C33.3803 82.5136 29.6203 78.4376 26.9008 76.4618C24.1814 74.4859 23.3228 72.6401 24.7393 70.8585C26.1559 69.077 33.7401 74.9538 36.2996 76.8134C38.8591 78.673 40.3126 78.0181 42.9433 76.7521C45.574 75.4861 43.4631 69.3086 43.0913 66.9609C42.7194 64.6133 41.977 62.6074 44.281 61.9594C46.5849 61.3114 47.874 66.7697 49.7662 71.5662C51.6584 76.3627 53.7093 78.586 55.0547 79.9301C56.4 81.2742 56.0664 82.7426 55.9652 83.8911C55.8639 85.0397 56.4901 87.2055 56.985 88.5427C57.4799 89.8799 58.0692 90.9191 58.9059 92.6269C59.7427 94.3346 60.4113 94.0872 61.4148 95.0607C62.4184 96.0343 62.041 97.2265 61.8742 97.9608C61.7073 98.695 61.1918 99.9091 60.7925 100.963C60.3933 102.017 59.8121 102.817 59.6891 103.828C59.566 104.838 58.3381 106.024 57.2333 106.199C56.1285 106.374 54.9513 106.985 53.5416 107.916C52.1319 108.847 48.7219 106.98 48.242 106.632C47.7621 106.283 41.2321 100.805 39.9523 99.8757C38.6725 98.9459 36.8841 98.3798 35.2188 96.8032Z" fill="#F29600" stroke="black" stroke-width="0.437942"/>
<path d="M44.8491 101.774C43.3919 101.672 42.2131 100.529 39.7025 99.3747L39.7367 99.591L44.9582 103.863L47.2301 105.609L48.8928 107.009L50.9195 107.907L53.1679 108.105L54.5962 107.325L56.2408 106.51L58.0448 106.003L59.3136 104.915L59.774 103.623L59.3415 103.691L60.1435 102.456L61.832 98.4193L62.0473 96.2791L61.4092 95.0499L60.4071 94.3218L59.3707 93.3775L58.3965 91.4256L56.9779 88.7682L56.2307 85.4502L56.008 84.0444L56.0467 81.4887L55.4257 80.3677L53.2845 78.0465L51.2738 75.1503L49.8489 71.0528L47.2335 65.0377L46.0997 62.7786C44.5848 60.9124 42.5331 62.6562 42.7249 63.8674C42.9647 65.3813 43.1414 65.7967 43.0792 66.8042C43.0171 67.8117 44.3168 71.8181 44.5052 73.0077C44.6936 74.1972 44.1989 75.2731 43.8691 75.9905L43.8691 75.9905C43.2746 77.2837 41.5704 77.5739 41.0297 77.6596C40.5971 77.7281 39.2085 78.0589 38.5596 78.1616C38.8348 78.2659 39.4352 78.5107 39.6356 78.6563C39.8862 78.8383 42.7266 79.2753 44.3091 79.468C45.8915 79.6608 50.0746 78.7766 51.1677 79.3794C52.2608 79.9822 54.4877 82.8441 54.7618 84.5743C55.0358 86.3045 56.449 89.6279 56.6941 90.4759C56.9393 91.3239 57.6116 92.7693 58.8932 94.5616C60.1747 96.3539 60.0323 96.1548 59.3213 97.2651C58.6104 98.3753 57.6885 98.8539 56.7442 99.8902C55.7998 100.927 54.5868 99.5668 53.363 99.539C52.1393 99.5111 52.0258 100.194 51.3373 100.747C50.6488 101.299 50.1884 102.591 49.1638 102.421C48.1392 102.251 46.3062 101.876 44.8491 101.774Z" fill="#D7890A"/>
<path d="M35.2188 96.8032C33.5535 95.2267 34.4314 91.8317 34.5176 89.6946C34.7442 87.2522 34.0802 86.9327 33.7302 84.7231C33.3803 82.5136 29.6203 78.4376 26.9008 76.4618C24.1814 74.4859 23.3228 72.6401 24.7393 70.8585C26.1559 69.077 33.7401 74.9538 36.2996 76.8134C38.8591 78.673 40.3126 78.0181 42.9433 76.7521C45.574 75.4861 43.4631 69.3086 43.0913 66.9609C42.7194 64.6133 41.977 62.6074 44.281 61.9594C46.5849 61.3114 47.874 66.7697 49.7662 71.5662C51.6584 76.3627 53.7093 78.586 55.0547 79.9301C56.4 81.2742 56.0664 82.7426 55.9652 83.8911C55.8639 85.0397 56.4901 87.2055 56.985 88.5427C57.4799 89.8799 58.0692 90.9191 58.9059 92.6269C59.7427 94.3346 60.4113 94.0872 61.4148 95.0607C62.4184 96.0343 62.041 97.2265 61.8742 97.9608C61.7073 98.695 61.1918 99.9091 60.7925 100.963C60.3933 102.017 59.8121 102.817 59.6891 103.828C59.566 104.838 58.3381 106.024 57.2333 106.199C56.1285 106.374 54.9513 106.985 53.5416 107.916C52.1319 108.847 48.7219 106.98 48.242 106.632C47.7621 106.283 41.2321 100.805 39.9523 99.8757C38.6725 98.9459 36.8841 98.3798 35.2188 96.8032Z" stroke="black" stroke-width="0.437942"/>
<path d="M37.709 77.582C38.487 78.0251 39.3087 78.7443 39.8611 78.6568C40.4135 78.5693 42.3837 79.3897 43.5035 80.2033" stroke="black" stroke-width="0.437942"/>
<path d="M47.6052 104.327C47.7583 105.293 48.3832 104.77 48.6156 104.45L48.86 103.986C48.5958 103.643 48.3037 103.254 47.9389 102.858C47.7271 102.629 47.4527 102.385 47.1407 102.135C47.2445 102.544 47.4827 103.553 47.6052 104.327Z" fill="white"/>
<path d="M48.9347 87.695C49.2014 87.8887 49.7376 88.4739 49.7496 89.2647M48.5818 94.4043C48.9952 93.7726 49.7873 92.09 49.6484 90.4132M54.0456 89.5752C53.934 89.1682 53.7629 88.1478 53.9719 87.3219M51.0782 101.229C51.405 100.611 52.1024 99.6507 52.7929 99.5414C53.4834 99.432 53.8977 99.3664 54.3557 99.577C54.8137 99.7875 55.388 99.8382 55.9404 99.7507C56.3823 99.6807 56.8319 99.4207 57.0014 99.2995M52.8379 102.507C52.9081 102.354 53.1313 102.036 53.4628 101.983C53.8771 101.918 54.3351 102.128 54.4951 102.245M59.6403 99.8725L60.8025 98.2728M39.0093 95.6373C39.1624 96.604 39.2868 98.283 40.4572 98.5224C41.6276 98.7617 42.18 98.6742 43.2998 99.4878C44.1883 100.133 45.9419 101.177 47.1407 102.135M60.0558 102.496C59.4966 103.434 58.683 104.554 57.8982 104.961C57.1133 105.369 56.0154 104.693 55.1212 104.41C54.227 104.127 53.6022 104.651 52.9117 104.76C52.2212 104.87 51.1602 105.321 50.2878 105.176C49.7258 105.083 49.3386 104.609 48.86 103.986M47.1407 102.135C47.4527 102.385 47.7271 102.629 47.9389 102.858C48.3037 103.254 48.5958 103.643 48.86 103.986M47.1407 102.135C47.2445 102.544 47.4827 103.553 47.6052 104.327C47.7583 105.293 48.3832 104.77 48.6156 104.45L48.86 103.986" stroke="black" stroke-width="0.437942"/>
<path d="M39.4355 88.4902C39.9784 88.6402 41.5308 89.2059 43.3979 90.2692C45.7318 91.5983 46.7354 92.5718 47.8483 94.2359" stroke="black" stroke-width="0.437942"/>
<path d="M39.7314 88.5859L40.4532 93.1431C41.275 93.8624 45.6872 94.0129 47.4825 93.7286C45.0619 90.6012 41.3066 88.9971 39.7314 88.5859Z" fill="white" stroke="black" stroke-width="0.437942"/>
<path d="M44.1066 93.838C42.9549 93.0011 42.5302 90.7373 42.4619 89.71C45.0269 90.8893 46.8805 92.8796 47.4866 93.7273C46.5974 93.7738 44.6765 93.8609 44.1066 93.838Z" fill="#008086" stroke="black" stroke-width="0.437942"/>
<circle cx="44.1914" cy="91.7022" r="0.699093" transform="rotate(-9 44.1914 91.7022)" fill="white"/>
<circle cx="44.7137" cy="92.3263" r="0.838912" transform="rotate(-9 44.7137 92.3263)" fill="black"/>
<path d="M54.8535 89.3057C54.813 89.7651 55.0991 91.1543 55.2472 91.7915C56.1595 90.4012 56.6246 89.1668 56.7431 88.7233L56.0145 85.0165C55.6443 86.2548 54.894 88.8463 54.8535 89.3057Z" fill="white" stroke="black" stroke-width="0.437942"/>
<path d="M56.2477 90.0759C56.2412 88.6047 55.7884 87.1758 55.5628 86.6453L54.8517 89.3061L54.9173 89.7204L55.2673 91.9299C55.4537 91.6173 55.9108 90.8087 56.2477 90.0759Z" fill="#008086" stroke="black" stroke-width="0.437942"/>
<path d="M55.6309 89.7482C55.6834 90.0796 55.2216 90.1433 54.9841 90.1337L54.831 89.167C54.8867 88.9223 55.0531 88.4241 55.2741 88.3891C55.5503 88.3453 55.5653 89.3339 55.6309 89.7482Z" fill="black" stroke="black" stroke-width="0.437942"/>
<rect y="22.3965" width="65.4723" height="126.31" rx="3.50353" transform="rotate(-9 0 22.3965)" fill="#005BA6"/>
</g>
<rect x="3.45996" y="16.2012" width="65.2154" height="126.287" rx="3.48979" transform="rotate(-9 3.45996 16.2012)" fill="#C9B18B"/>
<rect x="5.98438" y="32.1426" width="65.2154" height="3.92601" transform="rotate(-9 5.98438 32.1426)" fill="white"/>
<rect x="6.18945" y="33.4355" width="65.2154" height="1.30867" transform="rotate(-9 6.18945 33.4355)" fill="#61B9F5"/>
<rect width="65.2154" height="99.677" transform="translate(6.59863 36.0195) rotate(-9)" fill="url(#paint0_linear_40001101_49759)"/>
<path d="M25.1512 60.9269L27.4963 68.4133L31.637 68.5304L29.3095 56.2749L25.1512 60.9269Z" fill="#77C658" stroke="black" stroke-width="0.254464"/>
<path d="M30.6926 71.5138L23.8298 63.97L21.6759 69.0774L29.4507 75.0597L30.6926 71.5138Z" fill="#77C658" stroke="black" stroke-width="0.254464"/>
<path d="M29.0399 74.0937L21.4976 70.3932L20.5344 75.6985L28.3206 77.6857L29.0399 74.0937Z" fill="#77C658" stroke="black" stroke-width="0.254464"/>
<path d="M27.8504 76.3421L20.6875 77.4766L21.6429 83.5085L28.8058 82.374L27.8504 76.3421Z" fill="#77C658" stroke="black" stroke-width="0.254464"/>
<path d="M27.515 81.5482L21.7157 84.7854C21.9545 86.2934 22.9896 88.4911 23.4773 89.4015L29.3762 86.7926L27.515 81.5482Z" fill="#77C658" stroke="black" stroke-width="0.254464"/>
<path d="M26.7814 94.8042L32.0246 90.4956L30.5803 85.4429L23.7432 90.2615L26.7814 94.8042Z" fill="#77C658" stroke="black" stroke-width="0.254464"/>
<path d="M30.9568 98.3936L34.5589 92.6703L33.9618 88.9004L26.8013 94.9296L30.9568 98.3936Z" fill="#77C658" stroke="black" stroke-width="0.254464"/>
<path d="M30.9762 98.5189C33.7184 100.867 37.1993 100.668 38.597 100.275L41.3257 93.9169L35.2789 91.5254C34.3889 92.9545 32.2822 96.3541 30.9762 98.5189Z" fill="#77C658" stroke="black" stroke-width="0.254464"/>
<path d="M29.8325 58.7671L25.9455 63.5049L26.7006 65.8328L29.1031 68.8016L31.6363 68.5292L29.8325 58.7671Z" fill="white"/>
<path d="M23.5676 70.4512L24.9277 65.2119L26.1718 66.5607L29.21 71.1034L29.0594 74.2189L23.5676 70.4512Z" fill="white"/>
<path d="M22.9354 76.2194C22.7602 75.1135 23.2225 72.6099 23.4755 71.4964L26.2475 72.732L27.7314 77.3686L30.087 79.08L26.4177 82.7528L23.3818 83.1048L22.6118 77.43L25.5125 76.9705C24.6048 76.7367 23.6466 76.4684 22.9354 76.2194Z" fill="white"/>
<path d="M34.3689 97.9821C25.1794 93.6408 23.8458 85.2212 23.4813 83.7331L25.6176 83.3948L29.9164 82.0698L38.9963 92.2253L38.2197 100.335L36.7117 100.574C36.5794 100.552 36.2777 100.436 36.1294 100.151C35.5932 99.2052 34.9512 98.4052 34.3689 97.9821Z" fill="white"/>
<path d="M29.8325 58.7671L25.9455 63.5049L26.7006 65.8328L29.1031 68.8016L31.6363 68.5292L29.8325 58.7671Z" stroke="black" stroke-width="0.254464"/>
<path d="M23.5676 70.4512L24.9277 65.2119L26.1718 66.5607L29.21 71.1034L29.0594 74.2189L23.5676 70.4512Z" stroke="black" stroke-width="0.254464"/>
<path d="M22.9354 76.2194C22.7602 75.1135 23.2225 72.6099 23.4755 71.4964L26.2475 72.732L27.7314 77.3686L30.087 79.08L26.4177 82.7528L23.3818 83.1048L22.6118 77.43L25.5125 76.9705C24.6048 76.7367 23.6466 76.4684 22.9354 76.2194Z" stroke="black" stroke-width="0.254464"/>
<path d="M34.3689 97.9821C25.1794 93.6408 23.8458 85.2212 23.4813 83.7331L25.6176 83.3948L29.9164 82.0698L38.9963 92.2253L38.2197 100.335L36.7117 100.574C36.5794 100.552 36.2777 100.436 36.1294 100.151C35.5932 99.2052 34.9512 98.4052 34.3689 97.9821Z" stroke="black" stroke-width="0.254464"/>
<path d="M34.9458 57.7C32.742 68.9986 34.8272 72.4041 35.443 73.8523L38.3107 81.3848L38.7794 93.2907C37.7766 94.0077 35.5143 95.6113 34.4881 96.2891C27.9138 91.8684 25.9378 87.0373 25.7715 85.1743L29.5142 82.7781L25.1955 83.9774L24.4989 79.5791L28.4604 78.5652L24.5375 77.3831L24.9582 71.9061C25.4235 72.1329 26.8213 72.7704 28.6895 73.505C26.8369 72.3814 25.2482 69.6702 25.1885 69.2932C25.1288 68.9163 26.7078 65.0593 27.1968 64.0801C27.6735 65.1382 29.4383 67.1173 30.2611 67.9745C30.0704 65.686 29.6863 60.9291 29.6754 60.2094C29.867 59.7926 33.5636 57.919 34.9458 57.7Z" fill="#FE6643" stroke="black" stroke-width="0.254464"/>
<path d="M27.6583 89.7704L31.2355 87.1428" stroke="black" stroke-width="0.254464"/>
<path d="M31.0998 93.6044L33.612 90.759" stroke="black" stroke-width="0.254464"/>
<path d="M62.9229 95.264L59.5151 92.4545L65.5912 73.0712C66.8611 72.956 69.6774 72.6817 70.7833 72.5065C73.148 82.2313 66.5283 91.7302 62.9229 95.264Z" fill="#77C658" stroke="black" stroke-width="0.254464"/>
<path d="M68.9178 72.9308C71.4248 81.6025 64.9685 90.5603 61.427 93.9552L59.3492 92.2232L59.0706 90.4639L63.0115 73.8663C63.6199 73.6411 65.653 73.1388 68.9178 72.9308Z" fill="white" stroke="black" stroke-width="0.254464"/>
<path d="M70.5241 70.8727L65.8222 72.9056L61.1725 73.642L62.6918 69.408L68.7425 66.1309L70.5241 70.8727Z" fill="#77C658" stroke="black" stroke-width="0.254464"/>
<path d="M68.8242 71.5285C68.7387 69.6871 67.795 67.7411 67.3338 66.9983L64.4771 68.4813L60.7282 71.6514L61.1263 74.1648C63.2514 73.4847 67.7662 72.0053 68.8242 71.5285Z" fill="white" stroke="black" stroke-width="0.254464"/>
<path d="M67.2999 63.5255L62.3217 68.6937L60.1854 69.0321L59.2124 67.7692C60.5517 65.1095 63.3412 59.515 63.7852 58.4141C65.9132 60.1382 67.015 62.54 67.2999 63.5255Z" fill="#77C658" stroke="black" stroke-width="0.254464"/>
<path d="M62.9524 60.4773C64.1806 61.7255 65.4896 64.0259 65.9906 65.02L60.6416 69.4741L59.2593 69.693C60.1511 67.1901 62.1381 61.8429 62.9524 60.4773Z" fill="white" stroke="black" stroke-width="0.254464"/>
<path d="M61.6278 56.1787L61.3066 62.284L58.451 66.2144L56.4209 53.3965C59.7444 54.2098 61.277 55.5902 61.6278 56.1787Z" fill="#77C658" stroke="black" stroke-width="0.254464"/>
<path d="M56.6133 55.4277C58.6575 56.1345 60.9007 58.0979 61.6684 58.8781L61.0213 61.2993L58.325 66.235L56.6133 55.4277Z" fill="white" stroke="black" stroke-width="0.254464"/>
<path d="M66.8535 72.0983C68.6897 83.0404 62.9333 90.4531 59.8256 92.7917C60.9851 96.8591 56.405 104.541 47.8597 105.894C39.3145 107.248 37.5516 100.184 37.4123 99.3045C36.8289 96.4341 37.6551 95.1439 37.9325 94.4558C38.0184 94.1846 37.1836 91.354 42.9233 87.7398C48.6629 84.1255 52.6057 85.4333 53.3597 85.3139C56.0863 77.153 52.9602 61.3741 51.0564 54.5048C52.5316 54.8723 55.7321 55.7222 56.7324 56.1821C57.4898 57.711 57.8441 61.8458 57.9266 63.7221C58.3891 62.5753 59.4964 59.9696 60.2261 58.7204C61.2742 59.4819 63.0499 62.1806 63.8067 63.4348L60.6077 68.4501L64.8331 65.8486L66.555 70.2133L62.0783 72.8547L66.8535 72.0983Z" fill="#FE6643" stroke="black" stroke-width="0.254464"/>
<path d="M47.8598 105.892C39.3145 107.246 37.5517 100.182 37.4124 99.3028C40.1173 98.4879 40.3573 102.443 44.5043 101.786C48.6512 101.13 48.3515 96.7973 52.4985 96.1405C55.816 95.6151 58.1824 97.2155 58.9509 98.0814C57.2054 101.539 53.3514 105.023 47.8598 105.892Z" fill="white"/>
<path d="M36.5045 82.1855C34.8595 86.4394 37.1972 92.2524 38.4351 94.375L39.6843 92.5025L43.7841 89.9209C44.9793 90.4186 47.4915 91.369 47.9782 91.1888C45.9826 89.6499 44.4461 86.5097 43.9273 85.1319C44.291 84.9884 45.2407 84.6405 46.1296 84.3967C47.2407 84.0919 53.5341 76.6542 53.3549 75.5232C53.1758 74.3922 51.9777 72.521 50.6937 70.9209C49.4098 69.3208 40.2475 66.7786 38.2505 67.9966C36.2535 69.2146 34.0786 71.749 33.4912 74.5472C32.9039 77.3454 35.7169 81.2797 36.5045 82.1855Z" fill="#FE6643" stroke="black" stroke-width="0.254464"/>
<path d="M37.5015 77.9069C38.376 80.9888 42.4048 82.0254 44.7202 82.818L47.2335 82.4199C49.4462 80.3948 53.2113 76.2431 50.5707 75.8369C47.2698 75.3292 45.5889 73.6631 43.3394 72.4736C41.09 71.2841 39.0532 72.2508 38.3589 72.7472C37.6646 73.2436 36.6269 74.825 37.5015 77.9069Z" fill="#0E385C" stroke="black" stroke-width="0.254464"/>
<path d="M40.7766 79.0614C42.3915 81.1243 44.7331 81.2687 47.9345 81.1481C49.2766 79.8621 51.609 77.3457 50.2015 77.5686C48.4422 77.8473 44.1548 75.1771 42.7588 74.4964C41.3628 73.8158 40.5827 74.5835 40.1198 74.9144C39.657 75.2453 39.1617 76.9984 40.7766 79.0614Z" fill="white" stroke="black" stroke-width="0.254464"/>
<path d="M44.7126 81.1428C42.371 80.9984 42.1833 75.7466 42.487 74.4103C43.2347 75.0648 48.0907 77.2584 49.3013 77.582C48.4428 80.2943 47.0542 81.2872 44.7126 81.1428Z" fill="#FE656E" stroke="black" stroke-width="0.254464"/>
<path d="M45.4987 77.1544C45.6393 77.1322 45.811 77.2142 45.975 77.427C46.1357 77.6356 46.2679 77.9469 46.3257 78.3117C46.3835 78.6765 46.3539 79.0134 46.2655 79.2615C46.1754 79.5146 46.0374 79.6455 45.8969 79.668C45.7562 79.6902 45.5837 79.6085 45.4196 79.3955C45.259 79.1869 45.1267 78.8755 45.0689 78.5108C45.0112 78.146 45.0407 77.809 45.1291 77.5609C45.2193 77.3077 45.3581 77.1766 45.4987 77.1544Z" fill="black" stroke="black" stroke-width="0.254464"/>
<path d="M50.4905 88.3438C50.4706 88.2181 48.2734 85.7321 48.0283 84.998L50.416 84.6199C50.4474 85.9031 50.5064 88.4443 50.4905 88.3438Z" fill="#94300D" stroke="black" stroke-width="0.254464"/>
<path d="M51.7049 82.9988C50.2492 81.9412 48.4438 82.7424 47.3327 83.0472L46.9432 84.6547C47.0249 84.8994 47.4185 85.3781 48.3392 85.3353C50.5813 84.8514 54.2603 87.7468 54.6373 87.6871C54.4246 85.5309 53.1605 84.0564 51.7049 82.9988Z" fill="#F57281" stroke="black" stroke-width="0.254464"/>
<path d="M43.239 82.4079C43.2004 84.6039 47.9444 87.7171 50.6568 88.5756C49.7833 87.9411 47.6186 84.0329 47.4792 83.1532C49.9129 82.2525 50.224 82.5897 53.3133 83.3886C55.7848 84.0277 58.8288 85.9501 60.0419 86.8315C60.5068 86.2426 61.1214 84.213 59.8604 80.8058C58.2841 76.5468 56.439 77.0967 54.6063 76.0988C52.7736 75.1009 52.5746 73.8443 52.0719 73.9239C51.5692 74.0035 49.5648 73.5481 49.4802 76.2667C49.3955 78.9853 47.5838 80.5604 46.4068 81.2621C45.2298 81.9638 43.4705 82.2424 43.239 82.4079Z" fill="#FEC90E" stroke="black" stroke-width="0.254464"/>
<path d="M50.9961 80.1484C51.8496 80.6573 52.1009 80.6175 52.3062 81.1003" stroke="black" stroke-width="0.254464"/>
<path d="M45.7792 83.808C46.4934 83.4373 47.1877 82.9408 47.9417 82.8214" stroke="black" stroke-width="0.254464"/>
<path d="M37.6827 68.4734C39.1185 69.4053 40.3155 68.8293 40.9239 68.6041L42.7792 61.6118C42.9443 61.0274 42.7427 59.9171 40.6156 60.151C37.9567 60.4433 37.0123 63.4269 37.006 64.2008C36.9998 64.9747 37.4041 66.7141 37.6827 68.4734Z" fill="#FEC90E" stroke="black" stroke-width="0.254464"/>
<path d="M40.6918 68.7689C42.5245 69.7668 43.8471 69.1709 44.8126 68.7603C46.0088 66.5527 48.2528 61.8519 47.6596 60.7092C46.9181 59.2808 45.6216 59.2285 44.2194 59.3218C38.3268 61.1568 40.4331 67.1353 40.6918 68.7689Z" fill="#FEC90E" stroke="black" stroke-width="0.254464"/>
<path d="M44.0982 69.1324C45.1569 70.1241 47.0158 70.4738 48.2525 70.1491L49.6797 66.9602C51.3475 64.2056 53.4514 58.8914 48.5253 59.6716C42.3677 60.6469 43.8394 67.4988 44.0982 69.1324Z" fill="#FEC90E" stroke="black" stroke-width="0.254464"/>
<path d="M47.6839 70.6231C48.7166 72.263 50.6214 72.0901 51.5011 71.9508C51.3019 70.6934 52.0822 69.9265 52.274 69.5105C52.5651 69.722 53.604 70.588 55.112 70.3492C58.329 69.8396 58.8056 67.1014 58.6418 65.7959C58.5224 65.042 57.6891 59.7808 52.554 60.7057C46.6677 61.7668 47.3456 68.4868 47.6839 70.6231Z" fill="#FEC90E" stroke="black" stroke-width="0.254464"/>
<path d="M54.9659 67.7964C55.8456 67.6571 55.9974 66.989 55.878 66.235C55.7585 65.481 55.3082 64.2641 53.6745 64.5229C52.0409 64.7816 51.3404 66.0519 51.4797 66.9316C51.619 67.8112 51.7458 70.2387 54.5901 70.3035" stroke="black" stroke-width="0.254464"/>
<path d="M41.2119 89.9418C40.3919 90.4581 38.487 90.631 36.6282 90.2813C37.4232 92.8606 37.7342 93.1978 38.2704 94.1434C40.0298 93.8648 41.2665 93.5401 42.232 93.1295C43.0044 92.801 43.8761 91.5809 44.2154 91.0119C44.4028 91.111 45.0913 91.3369 46.3454 91.4475C47.5996 91.558 48.0409 91.3077 48.1047 91.1688L45.9474 88.9341L44.8164 89.1133C44.3137 89.1929 43.5925 88.706 43.2947 88.4526C42.8738 88.7769 41.8678 89.5288 41.2119 89.9418Z" fill="#77C658" stroke="black" stroke-width="0.254464"/>
<path d="M30.9764 98.5202L33.0319 95.2318M26.8009 94.9305L29.8754 92.3825M23.7428 90.2622L26.7514 88.111L23.4778 89.4024" stroke="black" stroke-width="0.254464"/>
<path d="M56.4179 89.9806L62.6513 95.1766M59.1814 87.0953L62.8206 89.7394M62.2719 90.3416L65.0576 92.4767M64.6646 86.7421L68.0389 88.5264M60.5688 83.6551L65.0877 86.1599M62.062 80.0694L66.5473 81.5489M62.5299 76.5172L67.233 76.9317M67.3723 77.8113L71.2816 78.0939M66.2897 82.3626L70.2326 83.6704" stroke="black" stroke-width="0.254464"/>
<defs>
<filter id="filter0_d_40001101_49759" x="0" y="0.134284" width="98.5328" height="148.311" filterUnits="userSpaceOnUse" color-interpolation-filters="sRGB">
<feFlood flood-opacity="0" result="BackgroundImageFix"/>
<feColorMatrix in="SourceAlpha" type="matrix" values="0 0 0 0 0 0 0 0 0 0 0 0 0 0 0 0 0 0 127 0" result="hardAlpha"/>
<feOffset dx="7.82259" dy="-5.21506"/>
<feGaussianBlur stdDeviation="3.35755"/>
<feComposite in2="hardAlpha" operator="out"/>
<feColorMatrix type="matrix" values="0 0 0 0 0.784314 0 0 0 0 0.843137 0 0 0 0 0.909804 0 0 0 0.25 0"/>
<feBlend mode="normal" in2="BackgroundImageFix" result="effect1_dropShadow_40001101_49759"/>
<feBlend mode="normal" in="SourceGraphic" in2="effect1_dropShadow_40001101_49759" result="shape"/>
</filter>
<linearGradient id="paint0_linear_40001101_49759" x1="32.6077" y1="0" x2="32.6077" y2="99.677" gradientUnits="userSpaceOnUse">
<stop stop-color="#FAB917"/>
<stop offset="1" stop-color="#CB8527"/>
</linearGradient>
</defs>
</svg>
