<svg width="48" height="80" viewBox="0 0 48 80" fill="none" xmlns="http://www.w3.org/2000/svg">
<g clip-path="url(#clip0_40000647_59278)">
<rect x="-5.50977" y="7.38086" width="50.0915" height="97" rx="2.68048" transform="rotate(-3 -5.50977 7.38086)" fill="url(#paint0_linear_40000647_59278)"/>
<rect x="-4.86133" y="19.7617" width="50.0915" height="3.01554" transform="rotate(-3 -4.86133 19.7617)" fill="white"/>
<rect x="-4.80859" y="20.7656" width="50.0915" height="1.00518" transform="rotate(-3 -4.80859 20.7656)" fill="#61B9F5"/>
<g clip-path="url(#clip1_40000647_59278)">
<rect x="-4.70312" y="22.7715" width="50.0915" height="76.5613" transform="rotate(-3 -4.70312 22.7715)" fill="url(#paint1_radial_40000647_59278)"/>
<g filter="url(#filter0_f_40000647_59278)">
<mask id="path-5-outside-1_40000647_59278" maskUnits="userSpaceOnUse" x="-3.55677" y="36.9715" width="7.35676" height="7.35676" fill="black">
<rect fill="white" x="-3.55677" y="36.9715" width="7.35676" height="7.35676"/>
<path fill-rule="evenodd" clip-rule="evenodd" d="M0.0307542 41.0629L0.316943 43.1431L0.384118 41.0444L1.46294 41.8605L0.5365 40.8758L2.62189 40.5898L0.517818 40.5233L1.33644 39.4468L0.348817 40.3712L0.0626757 38.2914L-0.00449465 40.3899L-1.08346 39.5737L-0.156789 40.5587L-2.24227 40.8447L-0.13853 40.9111L-0.95696 41.9874L0.0307542 41.0629Z"/>
</mask>
<path fill-rule="evenodd" clip-rule="evenodd" d="M0.0307542 41.0629L0.316943 43.1431L0.384118 41.0444L1.46294 41.8605L0.5365 40.8758L2.62189 40.5898L0.517818 40.5233L1.33644 39.4468L0.348817 40.3712L0.0626757 38.2914L-0.00449465 40.3899L-1.08346 39.5737L-0.156789 40.5587L-2.24227 40.8447L-0.13853 40.9111L-0.95696 41.9874L0.0307542 41.0629Z" fill="white"/>
<path d="M0.316943 43.1431L-0.289174 43.2265C-0.245844 43.5414 0.0314811 43.7707 0.348963 43.7541C0.666446 43.7374 0.918285 43.4804 0.928456 43.1627L0.316943 43.1431ZM0.0307542 41.0629L0.636871 40.9795C0.605705 40.7529 0.450806 40.5627 0.235288 40.4862C0.0197696 40.4098 -0.220391 40.4599 -0.387342 40.6162L0.0307542 41.0629ZM0.384118 41.0444L0.753233 40.5565C0.570862 40.4185 0.326778 40.3938 0.120431 40.4924C-0.0859157 40.5909 -0.220079 40.7963 -0.227394 41.0249L0.384118 41.0444ZM1.46294 41.8605L1.09382 42.3485C1.3474 42.5403 1.70566 42.5059 1.91813 42.2694C2.13059 42.0328 2.12643 41.6729 1.90856 41.4413L1.46294 41.8605ZM0.5365 40.8758L0.453373 40.2696C0.226497 40.3007 0.035989 40.4559 -0.0403395 40.6718C-0.116668 40.8877 -0.0660372 41.1282 0.0908735 41.295L0.5365 40.8758ZM2.62189 40.5898L2.70502 41.1959C3.02009 41.1527 3.24952 40.8753 3.23288 40.5577C3.21623 40.2402 2.95906 39.9883 2.6412 39.9782L2.62189 40.5898ZM0.517818 40.5233L0.0308123 40.153C-0.107804 40.3353 -0.133023 40.5797 -0.0345448 40.7864C0.0639337 40.9932 0.269621 41.1276 0.498507 41.1348L0.517818 40.5233ZM1.33644 39.4468L1.82345 39.8172C2.01592 39.5641 1.98243 39.2057 1.7464 38.9927C1.51038 38.7796 1.15049 38.7829 0.918342 39.0001L1.33644 39.4468ZM0.348817 40.3712L-0.2573 40.4546C-0.226134 40.6812 -0.0712355 40.8714 0.144283 40.9479C0.359801 41.0243 0.599962 40.9742 0.766913 40.8179L0.348817 40.3712ZM0.0626757 38.2914L0.668793 38.208C0.625463 37.893 0.348137 37.6637 0.0306552 37.6804C-0.286827 37.697 -0.538666 37.954 -0.548837 38.2718L0.0626757 38.2914ZM-0.00449465 40.3899L-0.37361 40.8778C-0.191238 41.0158 0.0528454 41.0405 0.259192 40.942C0.465539 40.8434 0.599702 40.638 0.607018 40.4094L-0.00449465 40.3899ZM-1.08346 39.5737L-0.714342 39.0857C-0.967927 38.8939 -1.32619 38.9283 -1.53865 39.1648C-1.75111 39.4014 -1.74696 39.7613 -1.52908 39.9929L-1.08346 39.5737ZM-0.156789 40.5587L-0.073662 41.1648C0.153214 41.1337 0.343722 40.9785 0.420051 40.7626C0.496379 40.5467 0.445748 40.3063 0.288838 40.1395L-0.156789 40.5587ZM-2.24227 40.8447L-2.3254 40.2385C-2.64047 40.2817 -2.8699 40.5591 -2.85326 40.8767C-2.83661 41.1943 -2.57944 41.4462 -2.26158 41.4562L-2.24227 40.8447ZM-0.13853 40.9111L0.348476 41.2815C0.487093 41.0992 0.512312 40.8548 0.413833 40.648C0.315355 40.4413 0.109667 40.3068 -0.119218 40.2996L-0.13853 40.9111ZM-0.95696 41.9874L-1.44397 41.617C-1.63644 41.8701 -1.60295 42.2285 -1.36693 42.4415C-1.1309 42.6546 -0.771007 42.6513 -0.538864 42.434L-0.95696 41.9874ZM0.92306 43.0597L0.636871 40.9795L-0.575363 41.1462L-0.289174 43.2265L0.92306 43.0597ZM-0.227394 41.0249L-0.29457 43.1235L0.928456 43.1627L0.995631 41.064L-0.227394 41.0249ZM1.83205 41.3726L0.753233 40.5565L0.0150033 41.5324L1.09382 42.3485L1.83205 41.3726ZM0.0908735 41.295L1.01731 42.2798L1.90856 41.4413L0.982127 40.4565L0.0908735 41.295ZM2.53876 39.9836L0.453373 40.2696L0.619627 41.4819L2.70502 41.1959L2.53876 39.9836ZM0.498507 41.1348L2.60258 41.2013L2.6412 39.9782L0.53713 39.9118L0.498507 41.1348ZM0.849433 39.0765L0.0308123 40.153L1.00482 40.8937L1.82345 39.8172L0.849433 39.0765ZM0.766913 40.8179L1.75454 39.8935L0.918342 39.0001L-0.0692798 39.9246L0.766913 40.8179ZM-0.543441 38.3748L-0.2573 40.4546L0.954934 40.2879L0.668793 38.208L-0.543441 38.3748ZM0.607018 40.4094L0.674189 38.3109L-0.548837 38.2718L-0.616007 40.3703L0.607018 40.4094ZM-1.45257 40.0616L-0.37361 40.8778L0.36462 39.9019L-0.714342 39.0857L-1.45257 40.0616ZM0.288838 40.1395L-0.637831 39.1544L-1.52908 39.9929L-0.602415 40.9779L0.288838 40.1395ZM-2.15914 41.4508L-0.073662 41.1648L-0.239916 39.9525L-2.3254 40.2385L-2.15914 41.4508ZM-0.119218 40.2996L-2.22296 40.2332L-2.26158 41.4562L-0.157841 41.5226L-0.119218 40.2996ZM-0.469954 42.3577L0.348476 41.2815L-0.625536 40.5408L-1.44397 41.617L-0.469954 42.3577ZM-0.387342 40.6162L-1.37506 41.5407L-0.538864 42.434L0.448851 41.5095L-0.387342 40.6162Z" fill="url(#paint2_linear_40000647_59278)" mask="url(#path-5-outside-1_40000647_59278)"/>
</g>
<path fill-rule="evenodd" clip-rule="evenodd" d="M0.0307542 41.0629L0.316943 43.1431L0.384118 41.0444L1.46294 41.8605L0.5365 40.8758L2.62189 40.5898L0.517818 40.5233L1.33644 39.4468L0.348817 40.3712L0.0626757 38.2914L-0.00449465 40.3899L-1.08346 39.5737L-0.156789 40.5587L-2.24227 40.8447L-0.13853 40.9111L-0.95696 41.9874L0.0307542 41.0629Z" fill="white"/>
<path d="M54.0147 58.0289C53.0971 40.5195 38.1591 27.0693 20.6498 27.9869C3.14042 28.9046 -10.3098 43.8426 -9.3922 61.3519" stroke="white" stroke-opacity="0.8" stroke-width="2.01036"/>
<g filter="url(#filter1_f_40000647_59278)">
<mask id="path-9-outside-2_40000647_59278" maskUnits="userSpaceOnUse" x="-0.432009" y="19.8142" width="14.7135" height="14.7135" fill="black">
<rect fill="white" x="-0.432009" y="19.8142" width="14.7135" height="14.7135"/>
<path fill-rule="evenodd" clip-rule="evenodd" d="M7.20015 26.412L6.61795 22.1801L6.48129 26.4496L4.28632 24.7892L6.17139 26.793L1.92857 27.3748L6.20894 27.51L4.54368 29.6998L6.55305 27.819L7.13525 32.0509L7.27191 27.7813L9.46691 29.4418L7.58187 27.438L11.8246 26.8562L7.54427 26.721L9.20956 24.5312L7.20015 26.412Z"/>
</mask>
<path fill-rule="evenodd" clip-rule="evenodd" d="M7.20015 26.412L6.61795 22.1801L6.48129 26.4496L4.28632 24.7892L6.17139 26.793L1.92857 27.3748L6.20894 27.51L4.54368 29.6998L6.55305 27.819L7.13525 32.0509L7.27191 27.7813L9.46691 29.4418L7.58187 27.438L11.8246 26.8562L7.54427 26.721L9.20956 24.5312L7.20015 26.412Z" fill="white"/>
<path d="M6.61795 22.1801L7.85108 22.0105C7.76293 21.3697 7.19871 20.9032 6.5528 20.9371C5.90689 20.9709 5.39453 21.4938 5.37383 22.1403L6.61795 22.1801ZM7.20015 26.412L5.96701 26.5816C6.03042 27.0425 6.34556 27.4296 6.78402 27.5851C7.22249 27.7406 7.7111 27.6387 8.05076 27.3207L7.20015 26.412ZM6.48129 26.4496L5.73033 27.4423C6.10136 27.723 6.59794 27.7733 7.01775 27.5728C7.43756 27.3723 7.71052 26.9544 7.7254 26.4894L6.48129 26.4496ZM4.28632 24.7892L5.03728 23.7965C4.52137 23.4062 3.7925 23.4762 3.36024 23.9574C2.92799 24.4387 2.93644 25.1709 3.3797 25.6421L4.28632 24.7892ZM6.17139 26.793L6.34051 28.0262C6.80208 27.9629 7.18967 27.6471 7.34496 27.2079C7.50025 26.7686 7.39724 26.2794 7.07801 25.9401L6.17139 26.793ZM1.92857 27.3748L1.75945 26.1416C1.11845 26.2295 0.651668 26.7938 0.68553 27.44C0.719392 28.0861 1.2426 28.5985 1.88928 28.619L1.92857 27.3748ZM6.20894 27.51L7.19975 28.2635C7.48176 27.8926 7.53307 27.3953 7.33271 26.9747C7.13236 26.5541 6.71389 26.2806 6.24823 26.2659L6.20894 27.51ZM4.54368 29.6998L3.55287 28.9464C3.16129 29.4613 3.22942 30.1903 3.70961 30.6238C4.1898 31.0573 4.922 31.0507 5.39429 30.6086L4.54368 29.6998ZM6.55305 27.819L7.78619 27.6494C7.72278 27.1885 7.40764 26.8014 6.96917 26.6459C6.5307 26.4904 6.0421 26.5923 5.70244 26.9103L6.55305 27.819ZM7.13525 32.0509L5.90212 32.2205C5.99027 32.8613 6.55448 33.3278 7.2004 33.2939C7.84631 33.2601 8.35867 32.7372 8.37936 32.0907L7.13525 32.0509ZM7.27191 27.7813L8.02287 26.7886C7.65184 26.508 7.15525 26.4576 6.73545 26.6581C6.31564 26.8586 6.04268 27.2765 6.0278 27.7415L7.27191 27.7813ZM9.46691 29.4418L8.71596 30.4345C9.23187 30.8248 9.96074 30.7548 10.393 30.2735C10.8252 29.7922 10.8168 29.0601 10.3735 28.5889L9.46691 29.4418ZM7.58187 27.438L7.41275 26.2048C6.95118 26.2681 6.56359 26.5839 6.4083 27.0231C6.25301 27.4624 6.35602 27.9516 6.67525 28.2909L7.58187 27.438ZM11.8246 26.8562L11.9937 28.0894C12.6347 28.0015 13.1015 27.4372 13.0677 26.791C13.0338 26.1449 12.5106 25.6325 11.8639 25.6121L11.8246 26.8562ZM7.54427 26.721L6.55346 25.9676C6.27145 26.3384 6.22014 26.8357 6.4205 27.2563C6.62085 27.6769 7.03932 27.9504 7.50498 27.9652L7.54427 26.721ZM9.20956 24.5312L10.2004 25.2846C10.5919 24.7697 10.5238 24.0407 10.0436 23.6072C9.56343 23.1737 8.83124 23.1803 8.35895 23.6224L9.20956 24.5312ZM5.38481 22.3498L5.96701 26.5816L8.43328 26.2423L7.85108 22.0105L5.38481 22.3498ZM7.7254 26.4894L7.86206 22.22L5.37383 22.1403L5.23717 26.4098L7.7254 26.4894ZM3.53536 25.7819L5.73033 27.4423L7.23224 25.4569L5.03728 23.7965L3.53536 25.7819ZM7.07801 25.9401L5.19294 23.9363L3.3797 25.6421L5.26477 27.6459L7.07801 25.9401ZM2.09769 28.608L6.34051 28.0262L6.00227 25.5598L1.75945 26.1416L2.09769 28.608ZM6.24823 26.2659L1.96786 26.1307L1.88928 28.619L6.16965 28.7541L6.24823 26.2659ZM5.53448 30.4533L7.19975 28.2635L5.21813 26.7565L3.55287 28.9464L5.53448 30.4533ZM5.70244 26.9103L3.69307 28.791L5.39429 30.6086L7.40366 28.7278L5.70244 26.9103ZM8.36838 31.8812L7.78619 27.6494L5.31992 27.9887L5.90212 32.2205L8.36838 31.8812ZM6.0278 27.7415L5.89114 32.0111L8.37936 32.0907L8.51602 27.8212L6.0278 27.7415ZM10.2179 28.4491L8.02287 26.7886L6.52096 28.774L8.71596 30.4345L10.2179 28.4491ZM6.67525 28.2909L8.5603 30.2947L10.3735 28.5889L8.48849 26.5851L6.67525 28.2909ZM11.6555 25.623L7.41275 26.2048L7.75099 28.6712L11.9937 28.0894L11.6555 25.623ZM7.50498 27.9652L11.7853 28.1003L11.8639 25.6121L7.58356 25.4769L7.50498 27.9652ZM8.21875 23.7777L6.55346 25.9676L8.53508 27.4745L10.2004 25.2846L8.21875 23.7777ZM8.05076 27.3207L10.0602 25.4399L8.35895 23.6224L6.34953 25.5032L8.05076 27.3207Z" fill="url(#paint3_linear_40000647_59278)" mask="url(#path-9-outside-2_40000647_59278)"/>
</g>
<path fill-rule="evenodd" clip-rule="evenodd" d="M7.20015 26.412L6.61795 22.1801L6.48129 26.4496L4.28632 24.7892L6.17139 26.793L1.92857 27.3748L6.20894 27.51L4.54368 29.6998L6.55305 27.819L7.13525 32.0509L7.27191 27.7813L9.46691 29.4418L7.58187 27.438L11.8246 26.8562L7.54427 26.721L9.20956 24.5312L7.20015 26.412Z" fill="white"/>
<g filter="url(#filter2_f_40000647_59278)">
<mask id="path-12-outside-3_40000647_59278" maskUnits="userSpaceOnUse" x="30.6129" y="28.0837" width="14.7135" height="14.7135" fill="black">
<rect fill="white" x="30.6129" y="28.0837" width="14.7135" height="14.7135"/>
<path fill-rule="evenodd" clip-rule="evenodd" d="M38.2451 34.6814L37.6629 30.4497L37.5262 34.7194L35.331 33.0588L37.216 35.0625L32.9735 35.6444L37.2537 35.7795L35.5884 37.9695L37.598 36.0885L38.1802 40.3204L38.3168 36.0512L40.5116 37.7115L38.6265 35.7076L42.8695 35.1257L38.5891 34.9905L40.2542 32.8008L38.2451 34.6814Z"/>
</mask>
<path fill-rule="evenodd" clip-rule="evenodd" d="M38.2451 34.6814L37.6629 30.4497L37.5262 34.7194L35.331 33.0588L37.216 35.0625L32.9735 35.6444L37.2537 35.7795L35.5884 37.9695L37.598 36.0885L38.1802 40.3204L38.3168 36.0512L40.5116 37.7115L38.6265 35.7076L42.8695 35.1257L38.5891 34.9905L40.2542 32.8008L38.2451 34.6814Z" fill="white"/>
<path d="M37.6629 30.4497L38.896 30.28C38.8078 29.6393 38.2436 29.1728 37.5977 29.2066C36.9518 29.2405 36.4394 29.7634 36.4188 30.4098L37.6629 30.4497ZM38.2451 34.6814L37.0119 34.8511C37.0753 35.312 37.3905 35.699 37.8289 35.8546C38.2674 36.0101 38.756 35.9081 39.0957 35.5902L38.2451 34.6814ZM37.5262 34.7194L36.7752 35.7122C37.1463 35.9928 37.6429 36.0432 38.0627 35.8427C38.4825 35.6421 38.7554 35.2243 38.7703 34.7593L37.5262 34.7194ZM35.331 33.0588L36.082 32.0661C35.5661 31.6759 34.8372 31.7458 34.4049 32.2271C33.9727 32.7084 33.9811 33.4406 34.4244 33.9117L35.331 33.0588ZM37.216 35.0625L37.3851 36.2957C37.8467 36.2324 38.2343 35.9167 38.3896 35.4774C38.5449 35.0382 38.4418 34.549 38.1226 34.2096L37.216 35.0625ZM32.9735 35.6444L32.8044 34.4111C32.1634 34.4991 31.6966 35.0634 31.7305 35.7095C31.7643 36.3556 32.2875 36.8681 32.9342 36.8885L32.9735 35.6444ZM37.2537 35.7795L38.2445 36.533C38.5266 36.1621 38.5779 35.6648 38.3775 35.2442C38.1772 34.8236 37.7587 34.5501 37.293 34.5354L37.2537 35.7795ZM35.5884 37.9695L34.5976 37.216C34.206 37.7309 34.2741 38.46 34.7543 38.8935C35.2345 39.3269 35.9667 39.3203 36.439 38.8783L35.5884 37.9695ZM37.598 36.0885L38.8311 35.9188C38.7677 35.458 38.4526 35.0709 38.0141 34.9154C37.5756 34.7598 37.087 34.8618 36.7474 35.1797L37.598 36.0885ZM38.1802 40.3204L36.947 40.4901C37.0352 41.1308 37.5994 41.5973 38.2453 41.5635C38.8912 41.5296 39.4036 41.0067 39.4243 40.3602L38.1802 40.3204ZM38.3168 36.0512L39.0678 35.0585C38.6968 34.7778 38.2002 34.7274 37.7804 34.928C37.3605 35.1285 37.0876 35.5463 37.0727 36.0113L38.3168 36.0512ZM40.5116 37.7115L39.7606 38.7042C40.2766 39.0944 41.0054 39.0245 41.4377 38.5432C41.8699 38.0619 41.8615 37.3297 41.4182 36.8586L40.5116 37.7115ZM38.6265 35.7076L38.4574 34.4744C37.9958 34.5377 37.6082 34.8535 37.4529 35.2927C37.2976 35.732 37.4006 36.2212 37.7199 36.5605L38.6265 35.7076ZM42.8695 35.1257L43.0387 36.3589C43.6797 36.271 44.1465 35.7067 44.1126 35.0606C44.0787 34.4145 43.5555 33.902 42.9088 33.8816L42.8695 35.1257ZM38.5891 34.9905L37.5983 34.2371C37.3162 34.6079 37.2649 35.1052 37.4653 35.5258C37.6656 35.9465 38.0841 36.22 38.5498 36.2347L38.5891 34.9905ZM40.2542 32.8008L41.2451 33.5543C41.6366 33.0394 41.5685 32.3103 41.0883 31.8768C40.6081 31.4434 39.8759 31.45 39.4036 31.8921L40.2542 32.8008ZM36.4297 30.6193L37.0119 34.8511L39.4782 34.5118L38.896 30.28L36.4297 30.6193ZM38.7703 34.7593L38.907 30.4895L36.4188 30.4098L36.2821 34.6796L38.7703 34.7593ZM34.5801 34.0515L36.7752 35.7122L38.2772 33.7267L36.082 32.0661L34.5801 34.0515ZM38.1226 34.2096L36.2376 32.2059L34.4244 33.9117L36.3094 35.9154L38.1226 34.2096ZM33.1426 36.8776L37.3851 36.2957L37.0469 33.8293L32.8044 34.4111L33.1426 36.8776ZM37.293 34.5354L33.0128 34.4002L32.9342 36.8885L37.2144 37.0236L37.293 34.5354ZM36.5792 38.7229L38.2445 36.533L36.2629 35.0261L34.5976 37.216L36.5792 38.7229ZM36.7474 35.1797L34.7378 37.0607L36.439 38.8783L38.4486 36.9973L36.7474 35.1797ZM39.4133 40.1508L38.8311 35.9188L36.3648 36.2581L36.947 40.4901L39.4133 40.1508ZM37.0727 36.0113L36.9361 40.2806L39.4243 40.3602L39.5609 36.091L37.0727 36.0113ZM41.2626 36.7188L39.0678 35.0585L37.5659 37.0439L39.7606 38.7042L41.2626 36.7188ZM37.7199 36.5605L39.605 38.5644L41.4182 36.8586L39.5331 34.8547L37.7199 36.5605ZM42.7004 33.8925L38.4574 34.4744L38.7956 36.9408L43.0387 36.3589L42.7004 33.8925ZM38.5498 36.2347L42.8303 36.3699L42.9088 33.8816L38.6284 33.7464L38.5498 36.2347ZM39.2634 32.0474L37.5983 34.2371L39.5799 35.744L41.2451 33.5543L39.2634 32.0474ZM39.0957 35.5902L41.1049 33.7096L39.4036 31.8921L37.3944 33.7727L39.0957 35.5902Z" fill="url(#paint4_linear_40000647_59278)" mask="url(#path-12-outside-3_40000647_59278)"/>
</g>
<path fill-rule="evenodd" clip-rule="evenodd" d="M38.2451 34.6814L37.6629 30.4497L37.5262 34.7194L35.331 33.0588L37.216 35.0625L32.9735 35.6444L37.2537 35.7795L35.5884 37.9695L37.598 36.0885L38.1802 40.3204L38.3168 36.0512L40.5116 37.7115L38.6265 35.7076L42.8695 35.1257L38.5891 34.9905L40.2542 32.8008L38.2451 34.6814Z" fill="white"/>
<g opacity="0.7">
<circle cx="39.7009" cy="24.9766" r="1.00518" transform="rotate(-3 39.7009 24.9766)" fill="white"/>
<circle cx="41.866" cy="27.8828" r="1.00518" transform="rotate(-3 41.866 27.8828)" fill="white"/>
<circle cx="17.782" cy="38.875" r="1.00518" transform="rotate(-3 17.782 38.875)" fill="white"/>
<circle cx="11.1345" cy="33.6856" r="1.00518" transform="rotate(-3 11.1345 33.6856)" fill="white"/>
<circle cx="4.27223" cy="46.7969" r="1.00518" transform="rotate(-3 4.27223 46.7969)" fill="white"/>
<circle cx="30.5252" cy="67.5645" r="1.00518" transform="rotate(-3 30.5252 67.5645)" fill="white"/>
<circle cx="16.3992" cy="79.7129" r="1.00518" transform="rotate(-3 16.3992 79.7129)" fill="white"/>
<circle cx="2.02028" cy="77.4473" r="1.00518" transform="rotate(-3 2.02028 77.4473)" fill="white"/>
<circle cx="4.25856" cy="72.1289" r="1.00518" transform="rotate(-3 4.25856 72.1289)" fill="white"/>
<circle cx="35.1433" cy="46.8555" r="1.00518" transform="rotate(-3 35.1433 46.8555)" fill="white"/>
<circle cx="14.6277" cy="45.918" r="1.00518" transform="rotate(-3 14.6277 45.918)" fill="white"/>
<circle cx="8.08375" cy="52.3008" r="1.00518" transform="rotate(-3 8.08375 52.3008)" fill="white"/>
<circle cx="39.6111" cy="71.2813" r="1.00518" transform="rotate(-3 39.6111 71.2813)" fill="white"/>
<circle cx="43.909" cy="66.8633" r="1.00518" transform="rotate(-3 43.909 66.8633)" fill="white"/>
<circle cx="38.531" cy="57.0781" r="1.00518" transform="rotate(-3 38.531 57.0781)" fill="white"/>
<circle cx="40.2058" cy="50.6172" r="1.00518" transform="rotate(-3 40.2058 50.6172)" fill="white"/>
<circle cx="44.6892" cy="43.336" r="1.00518" transform="rotate(-3 44.6892 43.336)" fill="white"/>
<circle cx="47.0027" cy="52.2735" r="1.00518" transform="rotate(-3 47.0027 52.2735)" fill="white"/>
<circle cx="26.2468" cy="21.1524" r="1.00518" transform="rotate(-3 26.2468 21.1524)" fill="white"/>
<circle cx="18.0134" cy="24.0996" r="1.00518" transform="rotate(-3 18.0134 24.0996)" fill="white"/>
<circle cx="-0.221909" cy="25.0547" r="1.00518" transform="rotate(-3 -0.221909 25.0547)" fill="white"/>
<circle cx="-0.176011" cy="54.7461" r="1.00518" transform="rotate(-3 -0.176011 54.7461)" fill="white"/>
<circle cx="4.56911" cy="58.8594" r="1.00518" transform="rotate(-3 4.56911 58.8594)" fill="white" fill-opacity="0.5"/>
<circle cx="6.83473" cy="47.668" r="1.00518" transform="rotate(-3 6.83473 47.668)" fill="white" fill-opacity="0.5"/>
<circle cx="12.4802" cy="40.1582" r="1.00518" transform="rotate(-3 12.4802 40.1582)" fill="white" fill-opacity="0.5"/>
<circle cx="22.1316" cy="38.6465" r="1.00518" transform="rotate(-3 22.1316 38.6465)" fill="white" fill-opacity="0.5"/>
<circle cx="26.8777" cy="36.3848" r="1.00518" transform="rotate(-3 26.8777 36.3848)" fill="white" fill-opacity="0.5"/>
<circle cx="15.4841" cy="33.459" r="1.00518" transform="rotate(-3 15.4841 33.459)" fill="white" fill-opacity="0.5"/>
<circle cx="13.9988" cy="24.3106" r="1.00518" transform="rotate(-3 13.9988 24.3106)" fill="white" fill-opacity="0.5"/>
<circle cx="34.8494" cy="25.2305" r="1.00518" transform="rotate(-3 34.8494 25.2305)" fill="white" fill-opacity="0.5"/>
<circle cx="40.7263" cy="44.5508" r="1.00518" transform="rotate(-3 40.7263 44.5508)" fill="white" fill-opacity="0.5"/>
<circle cx="45.5388" cy="62.752" r="1.00518" transform="rotate(-3 45.5388 62.752)" fill="white" fill-opacity="0.5"/>
<circle cx="1.69606" cy="71.2559" r="1.00518" transform="rotate(-3 1.69606 71.2559)" fill="white" fill-opacity="0.5"/>
<circle cx="31.3679" cy="80.4375" r="1.00518" transform="rotate(-3 31.3679 80.4375)" fill="white" fill-opacity="0.5"/>
</g>
<g filter="url(#filter3_f_40000647_59278)">
<mask id="path-49-outside-4_40000647_59278" maskUnits="userSpaceOnUse" x="42.1893" y="69.7268" width="8.40772" height="8.40772" fill="black">
<rect fill="white" x="42.1893" y="69.7268" width="8.40772" height="8.40772"/>
<path fill-rule="evenodd" clip-rule="evenodd" d="M46.7083 73.583L46.3432 70.9292L46.2575 73.6065L44.8811 72.5652L46.0633 73.8219L43.4024 74.1869L46.0867 74.2716L45.0425 75.6448L46.3025 74.4654L46.6676 77.1193L46.7534 74.4416L48.1299 75.483L46.9479 74.2265L49.6084 73.8616L46.9241 73.7768L47.9685 72.4034L46.7083 73.583Z"/>
</mask>
<path fill-rule="evenodd" clip-rule="evenodd" d="M46.7083 73.583L46.3432 70.9292L46.2575 73.6065L44.8811 72.5652L46.0633 73.8219L43.4024 74.1869L46.0867 74.2716L45.0425 75.6448L46.3025 74.4654L46.6676 77.1193L46.7534 74.4416L48.1299 75.483L46.9479 74.2265L49.6084 73.8616L46.9241 73.7768L47.9685 72.4034L46.7083 73.583Z" fill="white"/>
<path d="M46.3432 70.9292L47.1166 70.8228C47.0613 70.421 46.7074 70.1284 46.3024 70.1496C45.8973 70.1709 45.576 70.4988 45.563 70.9042L46.3432 70.9292ZM46.7083 73.583L45.935 73.6894C45.9748 73.9784 46.1724 74.2212 46.4474 74.3187C46.7223 74.4162 47.0288 74.3523 47.2418 74.1529L46.7083 73.583ZM46.2575 73.6065L45.7866 74.229C46.0193 74.405 46.3307 74.4366 46.594 74.3109C46.8572 74.1851 47.0284 73.9231 47.0377 73.6315L46.2575 73.6065ZM44.8811 72.5652L45.352 71.9427C45.0285 71.6979 44.5714 71.7418 44.3003 72.0436C44.0293 72.3455 44.0346 72.8046 44.3125 73.1001L44.8811 72.5652ZM46.0633 73.8219L46.1694 74.5953C46.4589 74.5556 46.7019 74.3576 46.7993 74.0821C46.8967 73.8067 46.8321 73.4999 46.6319 73.2871L46.0633 73.8219ZM43.4024 74.1869L43.2964 73.4135C42.8944 73.4686 42.6017 73.8225 42.6229 74.2277C42.6441 74.6329 42.9723 74.9543 43.3778 74.9671L43.4024 74.1869ZM46.0867 74.2716L46.7081 74.7441C46.8849 74.5116 46.9171 74.1997 46.7915 73.9359C46.6658 73.6722 46.4034 73.5006 46.1114 73.4914L46.0867 74.2716ZM45.0425 75.6448L44.4211 75.1723C44.1756 75.4952 44.2183 75.9524 44.5194 76.2242C44.8206 76.4961 45.2797 76.4919 45.5759 76.2147L45.0425 75.6448ZM46.3025 74.4654L47.0759 74.359C47.0361 74.07 46.8385 73.8272 46.5635 73.7297C46.2885 73.6322 45.9821 73.6961 45.7691 73.8955L46.3025 74.4654ZM46.6676 77.1193L45.8943 77.2257C45.9496 77.6275 46.3034 77.9201 46.7085 77.8988C47.1136 77.8776 47.4349 77.5497 47.4478 77.1443L46.6676 77.1193ZM46.7534 74.4416L47.2243 73.8191C46.9916 73.6431 46.6802 73.6115 46.4169 73.7372C46.1537 73.863 45.9825 74.125 45.9731 74.4167L46.7534 74.4416ZM48.1299 75.483L47.659 76.1055C47.9825 76.3503 48.4396 76.3064 48.7107 76.0046C48.9818 75.7028 48.9765 75.2436 48.6985 74.9481L48.1299 75.483ZM46.9479 74.2265L46.8418 73.4531C46.5524 73.4928 46.3093 73.6908 46.2119 73.9663C46.1145 74.2418 46.1791 74.5485 46.3793 74.7614L46.9479 74.2265ZM49.6084 73.8616L49.7145 74.635C50.1165 74.5799 50.4092 74.226 50.388 73.8208C50.3667 73.4156 50.0386 73.0942 49.6331 73.0814L49.6084 73.8616ZM46.9241 73.7768L46.3028 73.3043C46.1259 73.5369 46.0937 73.8488 46.2194 74.1125C46.345 74.3763 46.6075 74.5478 46.8995 74.5571L46.9241 73.7768ZM47.9685 72.4034L48.5899 72.8759C48.8355 72.553 48.7927 72.0958 48.4916 71.824C48.1905 71.5522 47.7313 71.5563 47.4351 71.8335L47.9685 72.4034ZM45.5699 71.0356L45.935 73.6894L47.4817 73.4766L47.1166 70.8228L45.5699 71.0356ZM47.0377 73.6315L47.1234 70.9541L45.563 70.9042L45.4773 73.5815L47.0377 73.6315ZM44.4102 73.1878L45.7866 74.229L46.7285 72.9839L45.352 71.9427L44.4102 73.1878ZM46.6319 73.2871L45.4497 72.0304L44.3125 73.1001L45.4948 74.3568L46.6319 73.2871ZM43.5085 74.9602L46.1694 74.5953L45.9573 73.0486L43.2964 73.4135L43.5085 74.9602ZM46.1114 73.4914L43.4271 73.4066L43.3778 74.9671L46.0621 75.0518L46.1114 73.4914ZM45.6638 76.1173L46.7081 74.7441L45.4654 73.7991L44.4211 75.1723L45.6638 76.1173ZM45.7691 73.8955L44.5091 75.0749L45.5759 76.2147L46.836 75.0353L45.7691 73.8955ZM47.441 77.0129L47.0759 74.359L45.5292 74.5718L45.8943 77.2257L47.441 77.0129ZM45.9731 74.4167L45.8874 77.0943L47.4478 77.1443L47.5336 74.4666L45.9731 74.4167ZM48.6009 74.8604L47.2243 73.8191L46.2824 75.0642L47.659 76.1055L48.6009 74.8604ZM46.3793 74.7614L47.5614 76.0179L48.6985 74.9481L47.5164 73.6916L46.3793 74.7614ZM49.5024 73.0882L46.8418 73.4531L47.0539 74.9998L49.7145 74.635L49.5024 73.0882ZM46.8995 74.5571L49.5838 74.6418L49.6331 73.0814L46.9488 72.9966L46.8995 74.5571ZM47.3472 71.9309L46.3028 73.3043L47.5455 74.2494L48.5899 72.8759L47.3472 71.9309ZM47.2418 74.1529L48.502 72.9733L47.4351 71.8335L46.1749 73.0131L47.2418 74.1529Z" fill="url(#paint5_linear_40000647_59278)" mask="url(#path-49-outside-4_40000647_59278)"/>
</g>
<path fill-rule="evenodd" clip-rule="evenodd" d="M46.7083 73.583L46.3432 70.9292L46.2575 73.6065L44.8811 72.5652L46.0633 73.8219L43.4024 74.1869L46.0867 74.2716L45.0425 75.6448L46.3025 74.4654L46.6676 77.1193L46.7534 74.4416L48.1299 75.483L46.9479 74.2265L49.6084 73.8616L46.9241 73.7768L47.9685 72.4034L46.7083 73.583Z" fill="white"/>
<g filter="url(#filter4_f_40000647_59278)">
<mask id="path-52-outside-5_40000647_59278" maskUnits="userSpaceOnUse" x="34.8149" y="75.3484" width="7.07041" height="7.05233" fill="black">
<rect fill="white" x="34.8149" y="75.3484" width="7.07041" height="7.05233"/>
<path fill-rule="evenodd" clip-rule="evenodd" d="M38.146 79.0567L37.4001 80.0375L38.3 79.1952L38.4079 79.9796L38.4333 79.1882L39.4164 79.9319L38.5721 79.0344L39.3586 78.9265L38.5652 78.9015L39.311 77.9208L38.411 78.7631L38.3031 77.9786L38.2777 78.7701L37.2947 78.0264L38.1389 78.9238L37.3524 79.0317L38.146 79.0567Z"/>
</mask>
<path fill-rule="evenodd" clip-rule="evenodd" d="M38.146 79.0567L37.4001 80.0375L38.3 79.1952L38.4079 79.9796L38.4333 79.1882L39.4164 79.9319L38.5721 79.0344L39.3586 78.9265L38.5652 78.9015L39.311 77.9208L38.411 78.7631L38.3031 77.9786L38.2777 78.7701L37.2947 78.0264L38.1389 78.9238L37.3524 79.0317L38.146 79.0567Z" fill="white"/>
<path d="M37.4001 80.0375L37.114 79.8211C37.0012 79.9694 37.0211 80.1792 37.1598 80.3037C37.2985 80.4283 37.5097 80.4261 37.6458 80.2987L37.4001 80.0375ZM38.146 79.0567L38.4321 79.2731C38.5132 79.1664 38.5279 79.0234 38.4701 78.9025C38.4123 78.7816 38.2917 78.7029 38.1574 78.6987L38.146 79.0567ZM38.3 79.1952L38.6558 79.1464C38.6376 79.0137 38.5466 78.9022 38.42 78.8575C38.2933 78.8128 38.1523 78.8423 38.0543 78.934L38.3 79.1952ZM38.4079 79.9796L38.0522 80.0284C38.0775 80.2128 38.2403 80.3471 38.4267 80.3373C38.6131 80.3275 38.7609 80.177 38.7669 79.9909L38.4079 79.9796ZM38.4333 79.1882L38.6503 78.9028C38.5433 78.8218 38.4 78.8072 38.2787 78.8649C38.1575 78.9226 38.0786 79.0429 38.0744 79.1768L38.4333 79.1882ZM39.4164 79.9319L39.1993 80.2173C39.348 80.3298 39.5583 80.3099 39.6832 80.1715C39.8081 80.0331 39.806 79.8224 39.6783 79.6867L39.4164 79.9319ZM38.5721 79.0344L38.5232 78.6795C38.3902 78.6978 38.2784 78.7886 38.2336 78.9149C38.1887 79.0412 38.2183 79.1818 38.3102 79.2795L38.5721 79.0344ZM39.3586 78.9265L39.4074 79.2814C39.5923 79.256 39.727 79.0936 39.7172 78.9077C39.7075 78.7218 39.5566 78.5744 39.37 78.5685L39.3586 78.9265ZM38.5652 78.9015L38.2791 78.685C38.1979 78.7918 38.1832 78.9348 38.241 79.0557C38.2988 79.1766 38.4195 79.2553 38.5537 79.2595L38.5652 78.9015ZM39.311 77.9208L39.5971 78.1372C39.7099 77.9889 39.69 77.7791 39.5513 77.6545C39.4126 77.53 39.2014 77.5322 39.0653 77.6596L39.311 77.9208ZM38.411 78.7631L38.0552 78.8119C38.0735 78.9446 38.1645 79.0561 38.2911 79.1008C38.4177 79.1455 38.5588 79.116 38.6567 79.0243L38.411 78.7631ZM38.3031 77.9786L38.6589 77.9298C38.6335 77.7454 38.4707 77.6111 38.2843 77.6209C38.098 77.6306 37.9501 77.7812 37.9441 77.9673L38.3031 77.9786ZM38.2777 78.7701L38.0607 79.0555C38.1677 79.1364 38.3111 79.151 38.4323 79.0934C38.5535 79.0357 38.6324 78.9153 38.6367 78.7814L38.2777 78.7701ZM37.2947 78.0264L37.5118 77.741C37.3631 77.6285 37.1528 77.6484 37.0279 77.7868C36.903 77.9251 36.9051 78.1358 37.0328 78.2716L37.2947 78.0264ZM38.1389 78.9238L38.1877 79.2787C38.3208 79.2604 38.4326 79.1696 38.4774 79.0433C38.5223 78.917 38.4927 78.7763 38.4008 78.6787L38.1389 78.9238ZM37.3524 79.0317L37.3036 78.6768C37.1187 78.7022 36.9841 78.8646 36.9938 79.0505C37.0036 79.2364 37.1544 79.3838 37.341 79.3897L37.3524 79.0317ZM37.6862 80.2539L38.4321 79.2731L37.8599 78.8403L37.114 79.8211L37.6862 80.2539ZM38.0543 78.934L37.1544 79.7763L37.6458 80.2987L38.5457 79.4564L38.0543 78.934ZM38.7637 79.9308L38.6558 79.1464L37.9443 79.244L38.0522 80.0284L38.7637 79.9308ZM38.0744 79.1768L38.049 79.9683L38.7669 79.9909L38.7922 79.1995L38.0744 79.1768ZM39.6334 79.6464L38.6503 78.9028L38.2162 79.4736L39.1993 80.2173L39.6334 79.6464ZM38.3102 79.2795L39.1545 80.177L39.6783 79.6867L38.834 78.7892L38.3102 79.2795ZM39.3098 78.5717L38.5232 78.6795L38.6209 79.3892L39.4074 79.2814L39.3098 78.5717ZM38.5537 79.2595L39.3471 79.2845L39.37 78.5685L38.5766 78.5434L38.5537 79.2595ZM39.0249 77.7043L38.2791 78.685L38.8513 79.1179L39.5971 78.1372L39.0249 77.7043ZM38.6567 79.0243L39.5567 78.1819L39.0653 77.6596L38.1653 78.5019L38.6567 79.0243ZM37.9473 78.0274L38.0552 78.8119L38.7668 78.7143L38.6589 77.9298L37.9473 78.0274ZM38.6367 78.7814L38.662 77.9899L37.9441 77.9673L37.9188 78.7587L38.6367 78.7814ZM37.0777 78.3119L38.0607 79.0555L38.4948 78.4846L37.5118 77.741L37.0777 78.3119ZM38.4008 78.6787L37.5566 77.7813L37.0328 78.2716L37.877 79.1689L38.4008 78.6787ZM37.4013 79.3865L38.1877 79.2787L38.0901 78.5689L37.3036 78.6768L37.4013 79.3865ZM38.1574 78.6987L37.3639 78.6736L37.341 79.3897L38.1345 79.4147L38.1574 78.6987Z" fill="url(#paint6_linear_40000647_59278)" mask="url(#path-52-outside-5_40000647_59278)"/>
</g>
<path fill-rule="evenodd" clip-rule="evenodd" d="M38.146 79.0567L37.4001 80.0375L38.3 79.1952L38.4079 79.9796L38.4333 79.1882L39.4164 79.9319L38.5721 79.0344L39.3586 78.9265L38.5652 78.9015L39.311 77.9208L38.411 78.7631L38.3031 77.9786L38.2777 78.7701L37.2947 78.0264L38.1389 78.9238L37.3524 79.0317L38.146 79.0567Z" fill="white"/>
<g filter="url(#filter5_f_40000647_59278)">
<mask id="path-55-outside-6_40000647_59278" maskUnits="userSpaceOnUse" x="25.0125" y="40.585" width="5.25483" height="5.25483" fill="black">
<rect fill="white" x="25.0125" y="40.585" width="5.25483" height="5.25483"/>
<path fill-rule="evenodd" clip-rule="evenodd" d="M27.6569 42.9375L27.4892 41.7183L27.4498 42.9483L26.8174 42.4699L27.3607 43.0473L26.138 43.215L27.3713 43.254L26.8916 43.8848L27.4705 43.3429L27.6382 44.5624L27.6776 43.332L28.3101 43.8105L27.7671 43.2332L28.9894 43.0656L27.756 43.0266L28.236 42.3955L27.6569 42.9375Z"/>
</mask>
<path fill-rule="evenodd" clip-rule="evenodd" d="M27.6569 42.9375L27.4892 41.7183L27.4498 42.9483L26.8174 42.4699L27.3607 43.0473L26.138 43.215L27.3713 43.254L26.8916 43.8848L27.4705 43.3429L27.6382 44.5624L27.6776 43.332L28.3101 43.8105L27.7671 43.2332L28.9894 43.0656L27.756 43.0266L28.236 42.3955L27.6569 42.9375Z" fill="white"/>
<path d="M27.4892 41.7183L27.8445 41.6694C27.8191 41.4847 27.6565 41.3503 27.4704 41.3601C27.2843 41.3698 27.1367 41.5205 27.1307 41.7068L27.4892 41.7183ZM27.6569 42.9375L27.3016 42.9864C27.3199 43.1192 27.4107 43.2307 27.537 43.2755C27.6634 43.3204 27.8041 43.291 27.902 43.1994L27.6569 42.9375ZM27.4498 42.9483L27.2334 43.2343C27.3403 43.3152 27.4834 43.3297 27.6044 43.2719C27.7253 43.2141 27.804 43.0937 27.8083 42.9597L27.4498 42.9483ZM26.8174 42.4699L27.0338 42.1838C26.8851 42.0714 26.6751 42.0915 26.5506 42.2302C26.426 42.3689 26.4285 42.5799 26.5562 42.7156L26.8174 42.4699ZM27.3607 43.0473L27.4094 43.4027C27.5424 43.3844 27.6541 43.2935 27.6988 43.1669C27.7436 43.0403 27.7139 42.8994 27.6219 42.8016L27.3607 43.0473ZM26.138 43.215L26.0893 42.8597C25.9046 42.885 25.7701 43.0476 25.7798 43.2338C25.7896 43.42 25.9404 43.5676 26.1267 43.5735L26.138 43.215ZM27.3713 43.254L27.6568 43.4711C27.738 43.3642 27.7528 43.2209 27.6951 43.0997C27.6374 42.9785 27.5168 42.8997 27.3826 42.8955L27.3713 43.254ZM26.8916 43.8848L26.6061 43.6677C26.4932 43.8161 26.5129 44.0261 26.6512 44.151C26.7896 44.2759 27.0006 44.274 27.1367 44.1467L26.8916 43.8848ZM27.4705 43.3429L27.8258 43.2941C27.8075 43.1613 27.7167 43.0497 27.5904 43.0049C27.464 42.9601 27.3232 42.9895 27.2254 43.0811L27.4705 43.3429ZM27.6382 44.5624L27.2829 44.6112C27.3083 44.7959 27.4709 44.9303 27.657 44.9205C27.8431 44.9108 27.9907 44.7601 27.9967 44.5738L27.6382 44.5624ZM27.6776 43.332L27.894 43.046C27.7871 42.9651 27.644 42.9506 27.523 43.0083C27.4021 43.0661 27.3234 43.1865 27.3191 43.3205L27.6776 43.332ZM28.3101 43.8105L28.0937 44.0965C28.2424 44.2089 28.4524 44.1888 28.577 44.0501C28.7015 43.9114 28.6991 43.7005 28.5713 43.5647L28.3101 43.8105ZM27.7671 43.2332L27.7183 42.8779C27.5854 42.8961 27.4737 42.9871 27.4289 43.1137C27.3842 43.2402 27.4139 43.3812 27.5058 43.479L27.7671 43.2332ZM28.9894 43.0656L29.0381 43.4209C29.2228 43.3956 29.3573 43.233 29.3476 43.0468C29.3378 42.8606 29.1871 42.713 29.0007 42.7071L28.9894 43.0656ZM27.756 43.0266L27.4706 42.8095C27.3893 42.9164 27.3745 43.0597 27.4322 43.1809C27.49 43.3021 27.6105 43.3809 27.7447 43.3851L27.756 43.0266ZM28.236 42.3955L28.5215 42.6126C28.6343 42.4643 28.6147 42.2542 28.4763 42.1293C28.3379 42.0044 28.127 42.0063 27.9909 42.1337L28.236 42.3955ZM27.1339 41.7671L27.3016 42.9864L28.0122 42.8886L27.8445 41.6694L27.1339 41.7671ZM27.8083 42.9597L27.8477 41.7297L27.1307 41.7068L27.0913 42.9368L27.8083 42.9597ZM26.601 42.7559L27.2334 43.2343L27.6662 42.6622L27.0338 42.1838L26.601 42.7559ZM27.6219 42.8016L27.0786 42.2241L26.5562 42.7156L27.0994 43.2931L27.6219 42.8016ZM26.1867 43.5704L27.4094 43.4027L27.3119 42.692L26.0893 42.8597L26.1867 43.5704ZM27.3826 42.8955L26.1493 42.8565L26.1267 43.5735L27.36 43.6124L27.3826 42.8955ZM27.177 44.1019L27.6568 43.4711L27.0858 43.0369L26.6061 43.6677L27.177 44.1019ZM27.2254 43.0811L26.6465 43.623L27.1367 44.1467L27.7156 43.6048L27.2254 43.0811ZM27.9935 44.5135L27.8258 43.2941L27.1152 43.3918L27.2829 44.6112L27.9935 44.5135ZM27.3191 43.3205L27.2798 44.5509L27.9967 44.5738L28.0361 43.3435L27.3191 43.3205ZM28.5265 43.5244L27.894 43.046L27.4612 43.618L28.0937 44.0965L28.5265 43.5244ZM27.5058 43.479L28.0489 44.0562L28.5713 43.5647L28.0283 42.9875L27.5058 43.479ZM28.9407 42.7103L27.7183 42.8779L27.8158 43.5885L29.0381 43.4209L28.9407 42.7103ZM27.7447 43.3851L28.9781 43.4241L29.0007 42.7071L27.7674 42.6682L27.7447 43.3851ZM27.9505 42.1784L27.4706 42.8095L28.0415 43.2437L28.5215 42.6126L27.9505 42.1784ZM27.902 43.1994L28.4811 42.6574L27.9909 42.1337L27.4118 42.6757L27.902 43.1994Z" fill="url(#paint7_linear_40000647_59278)" mask="url(#path-55-outside-6_40000647_59278)"/>
</g>
<path fill-rule="evenodd" clip-rule="evenodd" d="M27.6569 42.9375L27.4892 41.7183L27.4498 42.9483L26.8174 42.4699L27.3607 43.0473L26.138 43.215L27.3713 43.254L26.8916 43.8848L27.4705 43.3429L27.6382 44.5624L27.6776 43.332L28.3101 43.8105L27.7671 43.2332L28.9894 43.0656L27.756 43.0266L28.236 42.3955L27.6569 42.9375Z" fill="white"/>
<path d="M11.1719 57.777C9.74067 56.1095 10.9197 52.9649 11.2166 50.9388C11.6783 48.6359 11.0765 48.2654 10.9644 46.1266C10.8523 43.9879 7.6729 39.7313 5.2756 37.5784C2.87829 35.4254 2.24417 33.5821 3.77526 32.0274C5.30635 30.4728 11.9552 36.8262 14.2115 38.8525C16.4678 40.8789 17.9209 40.4006 20.5591 39.4581C23.1973 38.5156 21.803 32.423 21.6839 30.1506C21.5648 27.8782 21.0577 25.8943 23.3219 25.5075C25.5861 25.1208 26.2683 30.4465 27.5926 35.2024C28.9169 39.9584 30.6512 42.2801 31.8003 43.6943C32.9495 45.1085 32.4835 46.4733 32.2715 47.5567C32.0595 48.6401 32.4396 50.7648 32.7777 52.0874C33.1158 53.4101 33.5739 54.4584 34.201 56.168C34.8281 57.8776 35.4912 57.7088 36.3513 58.736C37.2114 59.7632 36.7314 60.8607 36.4984 61.5431C36.2654 62.2255 35.6514 63.3299 35.1644 64.2937C34.6774 65.2575 34.0423 65.961 33.8233 66.9107C33.6043 67.8604 32.3133 68.8664 31.2412 68.9225C30.1691 68.9787 28.984 69.4429 27.5449 70.1886C26.1057 70.9342 23.0384 68.8163 22.6153 68.4363C22.1923 68.0564 16.5095 62.1885 15.3814 61.1754C14.2532 60.1622 12.6031 59.4445 11.1719 57.777Z" fill="#414141" stroke="url(#paint8_linear_40000647_59278)" stroke-width="0.419257"/>
<path d="M19.8645 63.4724C18.4839 63.2299 17.4736 62.0233 15.1931 60.6734L15.2041 60.8828L19.7589 65.4721L21.752 67.3619L23.1985 68.8604L25.0428 69.9183L27.169 70.3317L28.6107 69.7313L30.2623 69.12L32.0353 68.8171L33.3556 67.9083L33.9249 66.7239L33.5052 66.7459L34.3948 65.6497L36.412 61.9754L36.8325 59.9592L36.3469 58.7251L35.4635 57.9318L34.5691 56.9291L33.8353 54.9733L32.7482 52.3014L32.3682 49.0676L32.2969 47.7069L32.5905 45.2775L32.1104 44.1481L30.2998 41.724L28.6715 38.7655L27.723 34.7219L25.8308 28.7335L24.9755 26.4692C23.717 24.541 21.5835 25.9963 21.6449 27.1686C21.7217 28.634 21.8486 29.0472 21.6881 30.0002C21.5276 30.9532 22.3656 34.8977 22.426 36.0491C22.4863 37.2004 21.9061 38.1755 21.5192 38.8255L21.5192 38.8255C20.8218 39.9973 19.166 40.1034 18.6413 40.1309C18.2215 40.1529 16.8628 40.329 16.2332 40.362C16.4853 40.4888 17.0338 40.7819 17.2105 40.9406C17.4314 41.1389 20.0987 41.8388 21.5898 42.1805C23.0809 42.5221 27.1626 42.0983 28.1454 42.7815C29.1283 43.4647 30.9664 46.4122 31.0541 48.0869C31.1419 49.7616 32.1569 53.0671 32.3058 53.8989C32.4546 54.7308 32.9511 56.1742 33.9943 58.0088C35.0375 59.8433 34.9216 59.6395 34.1315 60.6255C33.3413 61.6116 32.4133 61.9751 31.4078 62.8674C30.4023 63.7598 29.3811 62.3439 28.2158 62.1951C27.0505 62.0462 26.8735 62.6852 26.1609 63.1424C25.4483 63.5996 24.879 64.784 23.9181 64.5194C22.9571 64.2549 21.2452 63.7149 19.8645 63.4724Z" fill="#333333"/>
<path d="M11.1719 57.777C9.74067 56.1095 10.9197 52.9649 11.2166 50.9388C11.6783 48.6359 11.0765 48.2654 10.9644 46.1266C10.8523 43.9879 7.6729 39.7313 5.2756 37.5784C2.87829 35.4254 2.24417 33.5821 3.77526 32.0274C5.30635 30.4728 11.9552 36.8262 14.2115 38.8525C16.4678 40.8789 17.9209 40.4006 20.5591 39.4581C23.1973 38.5156 21.803 32.423 21.6839 30.1506C21.5648 27.8782 21.0577 25.8943 23.3219 25.5075C25.5861 25.1208 26.2683 30.4465 27.5926 35.2024C28.9169 39.9584 30.6512 42.2801 31.8003 43.6943C32.9495 45.1085 32.4835 46.4733 32.2715 47.5567C32.0595 48.6401 32.4396 50.7648 32.7777 52.0874C33.1158 53.4101 33.5739 54.4583 34.201 56.168C34.8281 57.8776 35.4912 57.7088 36.3513 58.736C37.2114 59.7632 36.7314 60.8607 36.4984 61.5431C36.2654 62.2255 35.6514 63.3299 35.1644 64.2937C34.6774 65.2575 34.0423 65.961 33.8233 66.9107C33.6043 67.8604 32.3133 68.8664 31.2412 68.9225C30.1691 68.9787 28.984 69.4429 27.5448 70.1885C26.1057 70.9341 23.0384 68.8163 22.6153 68.4363C22.1923 68.0564 16.5095 62.1885 15.3814 61.1754C14.2532 60.1622 12.6031 59.4444 11.1719 57.777Z" stroke="url(#paint9_linear_40000647_59278)" stroke-width="0.419257"/>
<path d="M15.4775 39.7246C16.1756 40.2242 16.8877 40.9911 17.4238 40.963C17.9598 40.9349 19.758 41.9129 20.7451 42.7995" stroke="url(#paint10_linear_40000647_59278)" stroke-width="0.419257"/>
<path d="M22.2395 66.1785C22.2886 67.1142 22.9376 66.678 23.1916 66.3966L23.4714 65.9799C23.2537 65.6262 23.014 65.2266 22.7055 64.8137C22.5264 64.5739 22.289 64.3144 22.0163 64.0456C22.0743 64.4446 22.2003 65.4299 22.2395 66.1785Z" fill="white"/>
<path d="M25.1793 50.4761C25.4143 50.6872 25.8674 51.2979 25.7994 52.0521M24.1684 56.8288C24.6264 56.2687 25.5515 54.7458 25.5874 53.1355M29.8688 52.7771C29.8031 52.3784 29.7423 51.3897 30.0247 50.6243M25.8658 63.5758C26.2398 63.02 27.0018 62.1759 27.6719 62.1407C28.342 62.1056 28.744 62.0845 29.1601 62.3308C29.5761 62.5771 30.1192 62.6827 30.6552 62.6546C31.084 62.6321 31.5393 62.4295 31.7133 62.331M27.417 64.9689C27.4993 64.8305 27.7444 64.5496 28.066 64.5327C28.4681 64.5117 28.8841 64.7579 29.0251 64.8846M34.1746 63.1403L35.4446 61.7334M14.9075 57.0461C14.9566 57.9818 14.9066 59.5929 15.9997 59.9377C17.0928 60.2825 17.6289 60.2544 18.616 61.1409C19.3993 61.8444 20.9684 63.0129 22.0163 64.0456M34.3077 65.68C33.6796 66.5172 32.7906 67.502 32.0005 67.8115C31.2104 68.121 30.2303 67.3681 29.4052 67.0093C28.5801 66.6504 27.9311 67.0865 27.261 67.1216C26.591 67.1567 25.5329 67.4803 24.7148 67.2551C24.1877 67.11 23.8657 66.6203 23.4714 65.9799M22.0163 64.0456C22.289 64.3144 22.5264 64.5739 22.7055 64.8137C23.014 65.2266 23.2537 65.6262 23.4714 65.9799M22.0163 64.0456C22.0743 64.4446 22.2003 65.4299 22.2395 66.1785C22.2886 67.1142 22.9376 66.678 23.1916 66.3966L23.4714 65.9799" stroke="url(#paint11_linear_40000647_59278)" stroke-width="0.419257"/>
<path d="M16.3066 50.4043L16.5378 54.8154C17.2499 55.5823 21.4463 56.1666 23.1885 56.0753C21.1922 52.8558 17.7688 50.9532 16.3066 50.4043Z" fill="white" stroke="url(#paint12_linear_40000647_59278)" stroke-width="0.419257"/>
<path d="M19.9512 55.8431C18.9359 54.9312 18.758 52.7334 18.796 51.7485C21.1259 53.1276 22.6951 55.2078 23.1885 56.0755C22.3351 56.0309 20.4929 55.9219 19.9512 55.8431Z" fill="#A64C4D" stroke="black" stroke-width="0.419257"/>
<path d="M20.7088 53.7927C20.722 54.0457 20.5271 54.2625 20.2721 54.2758C20.0172 54.2892 19.8006 54.094 19.7873 53.841C19.7741 53.588 19.969 53.3712 20.224 53.3578C20.479 53.3445 20.6955 53.5397 20.7088 53.7927Z" fill="white" stroke="white" stroke-width="0.419257"/>
<path d="M21.2797 54.4318C21.2968 54.7587 21.045 55.0384 20.716 55.0557C20.3871 55.0729 20.1074 54.821 20.0902 54.4942C20.0731 54.1674 20.3249 53.8876 20.6539 53.8703C20.9829 53.8531 21.2626 54.105 21.2797 54.4318Z" fill="black" stroke="black" stroke-width="0.419257"/>
<path d="M16.3066 50.4043L16.5378 54.8154C17.2499 55.5823 21.4463 56.1666 23.1885 56.0753C21.1922 52.8558 17.7688 50.9532 16.3066 50.4043Z" stroke="url(#paint13_linear_40000647_59278)" stroke-width="0.419257"/>
<path d="M30.6657 52.5999C30.5809 53.0332 30.7144 54.3845 30.7918 55.0059C31.8022 53.7735 32.3702 52.6446 32.5278 52.2342L32.2047 48.6322C31.727 49.7742 30.7505 52.1665 30.6657 52.5999Z" fill="white" stroke="url(#paint14_linear_40000647_59278)" stroke-width="0.419257"/>
<path d="M31.9213 53.4719C32.0629 52.0705 31.7742 50.6648 31.6121 50.1372L30.6661 52.5994L30.6872 53.0004L30.7992 55.1391C31.0086 54.8601 31.5261 54.136 31.9213 53.4719Z" fill="#A64C4D"/>
<path d="M31.3641 53.1004C31.381 53.4212 30.9338 53.4357 30.7081 53.4029L30.6591 52.4672C30.7367 52.2397 30.9457 51.782 31.1601 51.7707C31.4281 51.7567 31.3431 52.6994 31.3641 53.1004Z" fill="black" stroke="black" stroke-width="0.419257"/>
<path d="M30.6657 52.5999C30.5809 53.0332 30.7144 54.3845 30.7918 55.0059C31.8022 53.7735 32.3702 52.6446 32.5278 52.2342L32.2047 48.6322C31.727 49.7742 30.7505 52.1665 30.6657 52.5999Z" stroke="url(#paint15_linear_40000647_59278)" stroke-width="0.419257"/>
<g filter="url(#filter6_f_40000647_59278)">
<path d="M13.6767 81.4485L9.90369 81.9659L9.78216 85.7627L9.26442 81.9994L5.45797 81.8792L9.23101 81.3618L9.35254 77.565L9.87028 81.3283L13.6767 81.4485Z" fill="white"/>
<path d="M13.6767 81.4485L9.90369 81.9659L9.78216 85.7627L9.26442 81.9994L5.45797 81.8792L9.23101 81.3618L9.35254 77.565L9.87028 81.3283L13.6767 81.4485Z" fill="white"/>
<path d="M13.6767 81.4485L9.90369 81.9659L9.78216 85.7627L9.26442 81.9994L5.45797 81.8792L9.23101 81.3618L9.35254 77.565L9.87028 81.3283L13.6767 81.4485Z" fill="white"/>
</g>
<g filter="url(#filter7_f_40000647_59278)">
<path d="M13.7777 85.4449L9.5745 82.2653L5.72668 85.8669L8.91554 81.6735L5.30583 77.8364L9.50903 81.0161L13.3568 77.4145L10.168 81.6079L13.7777 85.4449Z" fill="white"/>
<path d="M13.7777 85.4449L9.5745 82.2653L5.72668 85.8669L8.91554 81.6735L5.30583 77.8364L9.50903 81.0161L13.3568 77.4145L10.168 81.6079L13.7777 85.4449Z" fill="white"/>
<path d="M13.7777 85.4449L9.5745 82.2653L5.72668 85.8669L8.91554 81.6735L5.30583 77.8364L9.50903 81.0161L13.3568 77.4145L10.168 81.6079L13.7777 85.4449Z" fill="white"/>
</g>
<g filter="url(#filter8_f_40000647_59278)">
<mask id="path-75-outside-7_40000647_59278" maskUnits="userSpaceOnUse" x="0.319392" y="59.7983" width="6.30579" height="6.30579" fill="black">
<rect fill="white" x="0.319392" y="59.7983" width="6.30579" height="6.30579"/>
<path fill-rule="evenodd" clip-rule="evenodd" d="M3.51209 63.3624L3.72919 64.9404L3.78016 63.3483L4.59868 63.9675L3.89586 63.2204L5.47777 63.0034L3.88168 62.953L4.50272 62.1364L3.75338 62.8378L3.5363 61.2598L3.48535 62.8517L2.66693 62.2326L3.36992 62.9798L1.78772 63.1968L3.38376 63.2472L2.7629 64.0637L3.51209 63.3624Z"/>
</mask>
<path fill-rule="evenodd" clip-rule="evenodd" d="M3.51209 63.3624L3.72919 64.9404L3.78016 63.3483L4.59868 63.9675L3.89586 63.2204L5.47777 63.0034L3.88168 62.953L4.50272 62.1364L3.75338 62.8378L3.5363 61.2598L3.48535 62.8517L2.66693 62.2326L3.36992 62.9798L1.78772 63.1968L3.38376 63.2472L2.7629 64.0637L3.51209 63.3624Z" fill="white"/>
<path d="M3.72919 64.9404L3.26938 65.0037C3.30225 65.2426 3.51263 65.4166 3.75348 65.404C3.99433 65.3913 4.18538 65.1963 4.1931 64.9553L3.72919 64.9404ZM3.51209 63.3624L3.97191 63.2992C3.94826 63.1273 3.83076 62.983 3.66726 62.925C3.50376 62.867 3.32157 62.905 3.19492 63.0236L3.51209 63.3624ZM3.78016 63.3483L4.06017 62.9781C3.92182 62.8735 3.73666 62.8547 3.58012 62.9294C3.42358 63.0042 3.3218 63.16 3.31625 63.3334L3.78016 63.3483ZM4.59868 63.9675L4.31866 64.3376C4.51103 64.4832 4.78282 64.4571 4.944 64.2776C5.10518 64.0981 5.10202 63.8251 4.93674 63.6494L4.59868 63.9675ZM3.89586 63.2204L3.8328 62.7605C3.66069 62.7841 3.51616 62.9019 3.45826 63.0657C3.40036 63.2295 3.43876 63.4119 3.5578 63.5384L3.89586 63.2204ZM5.47777 63.0034L5.54083 63.4633C5.77985 63.4305 5.95391 63.2201 5.94128 62.9792C5.92865 62.7382 5.73356 62.5471 5.49242 62.5395L5.47777 63.0034ZM3.88168 62.953L3.51223 62.6721C3.40707 62.8104 3.38794 62.9958 3.46265 63.1526C3.53736 63.3095 3.69339 63.4115 3.86703 63.417L3.88168 62.953ZM4.50272 62.1364L4.87217 62.4173C5.01818 62.2253 4.99278 61.9535 4.81372 61.7918C4.63467 61.6302 4.36165 61.6327 4.18554 61.7975L4.50272 62.1364ZM3.75338 62.8378L3.29357 62.901C3.31721 63.0729 3.43472 63.2172 3.59822 63.2752C3.76172 63.3332 3.94391 63.2952 4.07056 63.1766L3.75338 62.8378ZM3.5363 61.2598L3.99611 61.1966C3.96324 60.9576 3.75286 60.7837 3.51201 60.7963C3.27116 60.8089 3.08011 61.0039 3.07239 61.245L3.5363 61.2598ZM3.48535 62.8517L3.20533 63.2219C3.34368 63.3265 3.52885 63.3453 3.68538 63.2705C3.84192 63.1958 3.9437 63.0399 3.94925 62.8665L3.48535 62.8517ZM2.66693 62.2326L2.94695 61.8624C2.75458 61.7169 2.48279 61.743 2.32161 61.9225C2.16043 62.1019 2.16359 62.3749 2.32887 62.5506L2.66693 62.2326ZM3.36992 62.9798L3.43298 63.4397C3.60509 63.4161 3.74962 63.2983 3.80752 63.1346C3.86543 62.9708 3.82702 62.7884 3.70798 62.6618L3.36992 62.9798ZM1.78772 63.1968L1.72466 62.737C1.48564 62.7698 1.31159 62.9802 1.32421 63.2211C1.33684 63.462 1.53193 63.6531 1.77307 63.6607L1.78772 63.1968ZM3.38376 63.2472L3.75322 63.5282C3.85837 63.3899 3.8775 63.2045 3.8028 63.0476C3.72809 62.8908 3.57205 62.7888 3.39841 62.7833L3.38376 63.2472ZM2.7629 64.0637L2.39344 63.7827C2.24743 63.9747 2.27283 64.2466 2.45189 64.4082C2.63094 64.5698 2.90396 64.5674 3.08007 64.4025L2.7629 64.0637ZM4.189 64.8772L3.97191 63.2992L3.05228 63.4257L3.26938 65.0037L4.189 64.8772ZM3.31625 63.3334L3.26529 64.9256L4.1931 64.9553L4.24406 63.3631L3.31625 63.3334ZM4.8787 63.5973L4.06017 62.9781L3.50014 63.7184L4.31866 64.3376L4.8787 63.5973ZM3.5578 63.5384L4.26062 64.2855L4.93674 63.6494L4.23392 62.9024L3.5578 63.5384ZM5.41471 62.5436L3.8328 62.7605L3.95892 63.6802L5.54083 63.4633L5.41471 62.5436ZM3.86703 63.417L5.46312 63.4674L5.49242 62.5395L3.89633 62.4891L3.86703 63.417ZM4.13326 61.8554L3.51223 62.6721L4.25114 63.234L4.87217 62.4173L4.13326 61.8554ZM4.07056 63.1766L4.81989 62.4752L4.18554 61.7975L3.43621 62.4989L4.07056 63.1766ZM3.07649 61.3231L3.29357 62.901L4.2132 62.7745L3.99611 61.1966L3.07649 61.3231ZM3.94925 62.8665L4.00021 61.2747L3.07239 61.245L3.02144 62.8368L3.94925 62.8665ZM2.38691 62.6027L3.20533 63.2219L3.76536 62.4815L2.94695 61.8624L2.38691 62.6027ZM3.70798 62.6618L3.00499 61.9146L2.32887 62.5506L3.03186 63.2979L3.70798 62.6618ZM1.85078 63.6567L3.43298 63.4397L3.30686 62.52L1.72466 62.737L1.85078 63.6567ZM3.39841 62.7833L1.80237 62.7329L1.77307 63.6607L3.36911 63.7111L3.39841 62.7833ZM3.13235 64.3446L3.75322 63.5282L3.01431 62.9663L2.39344 63.7827L3.13235 64.3446ZM3.19492 63.0236L2.44572 63.7248L3.08007 64.4025L3.82927 63.7013L3.19492 63.0236Z" fill="url(#paint16_linear_40000647_59278)" mask="url(#path-75-outside-7_40000647_59278)"/>
</g>
<path fill-rule="evenodd" clip-rule="evenodd" d="M3.51209 63.3624L3.72919 64.9404L3.78016 63.3483L4.59868 63.9675L3.89586 63.2204L5.47777 63.0034L3.88168 62.953L4.50272 62.1364L3.75338 62.8378L3.5363 61.2598L3.48535 62.8517L2.66693 62.2326L3.36992 62.9798L1.78772 63.1968L3.38376 63.2472L2.7629 64.0637L3.51209 63.3624Z" fill="white"/>
<g filter="url(#filter9_f_40000647_59278)">
<path d="M11.7483 83.621L10.0824 82.955L9.36418 84.5959L8.84793 82.8814L7.11402 83.3447L8.13619 81.8727L6.69228 80.8096L8.48316 80.6886L8.41655 78.8995L9.62756 80.2207L10.9884 79.0528L10.7076 80.8213L12.4712 81.1541L10.9101 82.0381L11.7483 83.621Z" fill="white"/>
<path d="M11.7483 83.621L10.0824 82.955L9.36418 84.5959L8.84793 82.8814L7.11402 83.3447L8.13619 81.8727L6.69228 80.8096L8.48316 80.6886L8.41655 78.8995L9.62756 80.2207L10.9884 79.0528L10.7076 80.8213L12.4712 81.1541L10.9101 82.0381L11.7483 83.621Z" fill="white"/>
<path d="M11.7483 83.621L10.0824 82.955L9.36418 84.5959L8.84793 82.8814L7.11402 83.3447L8.13619 81.8727L6.69228 80.8096L8.48316 80.6886L8.41655 78.8995L9.62756 80.2207L10.9884 79.0528L10.7076 80.8213L12.4712 81.1541L10.9101 82.0381L11.7483 83.621Z" fill="white"/>
</g>
</g>
</g>
<defs>
<filter id="filter0_f_40000647_59278" x="-3.35708" y="37.1771" width="7.09307" height="7.08135" filterUnits="userSpaceOnUse" color-interpolation-filters="sRGB">
<feFlood flood-opacity="0" result="BackgroundImageFix"/>
<feBlend mode="normal" in="SourceGraphic" in2="BackgroundImageFix" result="shape"/>
<feGaussianBlur stdDeviation="0.251295" result="effect1_foregroundBlur_40000647_59278"/>
</filter>
<filter id="filter1_f_40000647_59278" x="-0.338918" y="19.913" width="14.4308" height="14.4044" filterUnits="userSpaceOnUse" color-interpolation-filters="sRGB">
<feFlood flood-opacity="0" result="BackgroundImageFix"/>
<feBlend mode="normal" in="SourceGraphic" in2="BackgroundImageFix" result="shape"/>
<feGaussianBlur stdDeviation="0.511256" result="effect1_foregroundBlur_40000647_59278"/>
</filter>
<filter id="filter2_f_40000647_59278" x="30.706" y="28.1826" width="14.4308" height="14.4044" filterUnits="userSpaceOnUse" color-interpolation-filters="sRGB">
<feFlood flood-opacity="0" result="BackgroundImageFix"/>
<feBlend mode="normal" in="SourceGraphic" in2="BackgroundImageFix" result="shape"/>
<feGaussianBlur stdDeviation="0.511256" result="effect1_foregroundBlur_40000647_59278"/>
</filter>
<filter id="filter3_f_40000647_59278" x="41.9808" y="69.5072" width="9.04907" height="9.03443" filterUnits="userSpaceOnUse" color-interpolation-filters="sRGB">
<feFlood flood-opacity="0" result="BackgroundImageFix"/>
<feBlend mode="normal" in="SourceGraphic" in2="BackgroundImageFix" result="shape"/>
<feGaussianBlur stdDeviation="0.320618" result="effect1_foregroundBlur_40000647_59278"/>
</filter>
<filter id="filter4_f_40000647_59278" x="36.6409" y="77.2679" width="3.42909" height="3.42323" filterUnits="userSpaceOnUse" color-interpolation-filters="sRGB">
<feFlood flood-opacity="0" result="BackgroundImageFix"/>
<feBlend mode="normal" in="SourceGraphic" in2="BackgroundImageFix" result="shape"/>
<feGaussianBlur stdDeviation="0.147311" result="effect1_foregroundBlur_40000647_59278"/>
</filter>
<filter id="filter5_f_40000647_59278" x="25.4847" y="41.0648" width="4.1576" height="4.15174" filterUnits="userSpaceOnUse" color-interpolation-filters="sRGB">
<feFlood flood-opacity="0" result="BackgroundImageFix"/>
<feBlend mode="normal" in="SourceGraphic" in2="BackgroundImageFix" result="shape"/>
<feGaussianBlur stdDeviation="0.147311" result="effect1_foregroundBlur_40000647_59278"/>
</filter>
<filter id="filter6_f_40000647_59278" x="5.29048" y="77.3969" width="8.55381" height="8.53428" filterUnits="userSpaceOnUse" color-interpolation-filters="sRGB">
<feFlood flood-opacity="0" result="BackgroundImageFix"/>
<feBlend mode="normal" in="SourceGraphic" in2="BackgroundImageFix" result="shape"/>
<feGaussianBlur stdDeviation="0.0837651" result="effect1_foregroundBlur_40000647_59278"/>
</filter>
<filter id="filter7_f_40000647_59278" x="5.13813" y="77.2465" width="8.80674" height="8.78819" filterUnits="userSpaceOnUse" color-interpolation-filters="sRGB">
<feFlood flood-opacity="0" result="BackgroundImageFix"/>
<feBlend mode="normal" in="SourceGraphic" in2="BackgroundImageFix" result="shape"/>
<feGaussianBlur stdDeviation="0.0837651" result="effect1_foregroundBlur_40000647_59278"/>
</filter>
<filter id="filter8_f_40000647_59278" x="0.941967" y="60.4136" width="5.38169" height="5.37193" filterUnits="userSpaceOnUse" color-interpolation-filters="sRGB">
<feFlood flood-opacity="0" result="BackgroundImageFix"/>
<feBlend mode="normal" in="SourceGraphic" in2="BackgroundImageFix" result="shape"/>
<feGaussianBlur stdDeviation="0.190638" result="effect1_foregroundBlur_40000647_59278"/>
</filter>
<filter id="filter9_f_40000647_59278" x="6.02226" y="78.2303" width="7.11856" height="7.03555" filterUnits="userSpaceOnUse" color-interpolation-filters="sRGB">
<feFlood flood-opacity="0" result="BackgroundImageFix"/>
<feBlend mode="normal" in="SourceGraphic" in2="BackgroundImageFix" result="shape"/>
<feGaussianBlur stdDeviation="0.33506" result="effect1_foregroundBlur_40000647_59278"/>
</filter>
<linearGradient id="paint0_linear_40000647_59278" x1="53.0421" y1="61.2418" x2="-7.68766" y2="40.3843" gradientUnits="userSpaceOnUse">
<stop stop-color="#B0D0D0"/>
<stop offset="0.235" stop-color="#B1D2F6"/>
<stop offset="0.6175" stop-color="#E1B8D1"/>
<stop offset="0.80875" stop-color="white"/>
<stop offset="1" stop-color="#FDE6DB"/>
</linearGradient>
<radialGradient id="paint1_radial_40000647_59278" cx="0" cy="0" r="1" gradientUnits="userSpaceOnUse" gradientTransform="translate(20.3426 61.1359) rotate(90) scale(42.3014 42.3014)">
<stop offset="0.29" stop-color="#FCFFFE"/>
<stop offset="0.775" stop-color="#B8BEEB"/>
<stop offset="1" stop-color="#85BDDB"/>
</radialGradient>
<linearGradient id="paint2_linear_40000647_59278" x1="1.87238" y1="42.3346" x2="-1.33077" y2="39.3632" gradientUnits="userSpaceOnUse">
<stop stop-color="#D688F5"/>
<stop offset="0.265" stop-color="#AB6EE7"/>
<stop offset="0.524755" stop-color="#8EF2F8"/>
<stop offset="0.75" stop-color="#C1F8D4"/>
<stop offset="1" stop-color="#FAFEAD"/>
</linearGradient>
<linearGradient id="paint3_linear_40000647_59278" x1="3.45344" y1="23.825" x2="9.97018" y2="29.8703" gradientUnits="userSpaceOnUse">
<stop stop-color="#D688F5"/>
<stop offset="0.265" stop-color="#AB6EE7"/>
<stop offset="0.524755" stop-color="#8EF2F8"/>
<stop offset="0.75" stop-color="#C1F8D4"/>
<stop offset="1" stop-color="#FAFEAD"/>
</linearGradient>
<linearGradient id="paint4_linear_40000647_59278" x1="34.4984" y1="32.0945" x2="41.0151" y2="38.1399" gradientUnits="userSpaceOnUse">
<stop stop-color="#F2EE31"/>
<stop offset="0.21" stop-color="#C1F8D4"/>
<stop offset="0.54" stop-color="#8EF2F8"/>
<stop offset="0.8" stop-color="#D688F5"/>
<stop offset="1" stop-color="#AB6EE7"/>
</linearGradient>
<linearGradient id="paint5_linear_40000647_59278" x1="44.3587" y1="71.9607" x2="48.4455" y2="75.7518" gradientUnits="userSpaceOnUse">
<stop stop-color="#D688F5"/>
<stop offset="0.265" stop-color="#AB6EE7"/>
<stop offset="0.524755" stop-color="#8EF2F8"/>
<stop offset="0.75" stop-color="#C1F8D4"/>
<stop offset="1" stop-color="#FAFEAD"/>
</linearGradient>
<linearGradient id="paint6_linear_40000647_59278" x1="38.3807" y1="80.3454" x2="38.2814" y2="77.7893" gradientUnits="userSpaceOnUse">
<stop stop-color="#D688F5"/>
<stop offset="0.265" stop-color="#AB6EE7"/>
<stop offset="0.524755" stop-color="#8EF2F8"/>
<stop offset="0.75" stop-color="#C1F8D4"/>
<stop offset="1" stop-color="#FAFEAD"/>
</linearGradient>
<linearGradient id="paint7_linear_40000647_59278" x1="26.5774" y1="42.1922" x2="28.4551" y2="43.9341" gradientUnits="userSpaceOnUse">
<stop stop-color="#D688F5"/>
<stop offset="0.265" stop-color="#AB6EE7"/>
<stop offset="0.524755" stop-color="#8EF2F8"/>
<stop offset="0.75" stop-color="#C1F8D4"/>
<stop offset="1" stop-color="#FAFEAD"/>
</linearGradient>
<linearGradient id="paint8_linear_40000647_59278" x1="18.7818" y1="25.7358" x2="21.1355" y2="70.647" gradientUnits="userSpaceOnUse">
<stop stop-color="#E741D8"/>
<stop offset="0.11" stop-color="#A751D0"/>
<stop offset="0.205" stop-color="#447FE2"/>
<stop offset="0.295" stop-color="#E7F953"/>
<stop offset="0.365" stop-color="#8FFC7C"/>
<stop offset="0.415" stop-color="#2AF2FE"/>
<stop offset="0.475" stop-color="#5583ED"/>
<stop offset="0.53" stop-color="#ED2EE2"/>
<stop offset="0.565" stop-color="#EAA175"/>
<stop offset="0.635" stop-color="#F8F35D"/>
<stop offset="0.7" stop-color="#72F489"/>
<stop offset="0.755" stop-color="#3EE1E9"/>
<stop offset="0.8" stop-color="#577BEF"/>
<stop offset="0.875" stop-color="#C840D9"/>
<stop offset="0.945" stop-color="#F154B0"/>
<stop offset="1" stop-color="#FDFB64"/>
</linearGradient>
<linearGradient id="paint9_linear_40000647_59278" x1="18.7818" y1="25.7358" x2="21.1355" y2="70.647" gradientUnits="userSpaceOnUse">
<stop stop-color="#E741D8"/>
<stop offset="0.11" stop-color="#A751D0"/>
<stop offset="0.205" stop-color="#447FE2"/>
<stop offset="0.295" stop-color="#E7F953"/>
<stop offset="0.365" stop-color="#8FFC7C"/>
<stop offset="0.415" stop-color="#2AF2FE"/>
<stop offset="0.475" stop-color="#5583ED"/>
<stop offset="0.53" stop-color="#ED2EE2"/>
<stop offset="0.565" stop-color="#EAA175"/>
<stop offset="0.635" stop-color="#F8F35D"/>
<stop offset="0.7" stop-color="#72F489"/>
<stop offset="0.755" stop-color="#3EE1E9"/>
<stop offset="0.8" stop-color="#577BEF"/>
<stop offset="0.875" stop-color="#C840D9"/>
<stop offset="0.945" stop-color="#F154B0"/>
<stop offset="1" stop-color="#FDFB64"/>
</linearGradient>
<linearGradient id="paint10_linear_40000647_59278" x1="18.0238" y1="39.5912" x2="18.1989" y2="42.9329" gradientUnits="userSpaceOnUse">
<stop stop-color="#D9F95A"/>
<stop offset="1" stop-color="#8AFB83"/>
</linearGradient>
<linearGradient id="paint11_linear_40000647_59278" x1="24.7075" y1="50.5009" x2="25.635" y2="68.1987" gradientUnits="userSpaceOnUse">
<stop stop-color="#E741D8"/>
<stop offset="0.11" stop-color="#A751D0"/>
<stop offset="0.205" stop-color="#447FE2"/>
<stop offset="0.295" stop-color="#E7F953"/>
<stop offset="0.365" stop-color="#8FFC7C"/>
<stop offset="0.415" stop-color="#2AF2FE"/>
<stop offset="0.475" stop-color="#5583ED"/>
<stop offset="0.53" stop-color="#ED2EE2"/>
<stop offset="0.565" stop-color="#EAA175"/>
<stop offset="0.635" stop-color="#F8F35D"/>
<stop offset="0.7" stop-color="#72F489"/>
<stop offset="0.755" stop-color="#3EE1E9"/>
<stop offset="0.8" stop-color="#577BEF"/>
<stop offset="0.875" stop-color="#C840D9"/>
<stop offset="0.945" stop-color="#F154B0"/>
<stop offset="1" stop-color="#FDFB64"/>
</linearGradient>
<linearGradient id="paint12_linear_40000647_59278" x1="19.5899" y1="50.2322" x2="19.9052" y2="56.2474" gradientUnits="userSpaceOnUse">
<stop stop-color="#E741D8"/>
<stop offset="0.11" stop-color="#A751D0"/>
<stop offset="0.205" stop-color="#447FE2"/>
<stop offset="0.295" stop-color="#E7F953"/>
<stop offset="0.365" stop-color="#8FFC7C"/>
<stop offset="0.415" stop-color="#2AF2FE"/>
<stop offset="0.475" stop-color="#5583ED"/>
<stop offset="0.53" stop-color="#ED2EE2"/>
<stop offset="0.565" stop-color="#EAA175"/>
<stop offset="0.635" stop-color="#F8F35D"/>
<stop offset="0.7" stop-color="#72F489"/>
<stop offset="0.755" stop-color="#3EE1E9"/>
<stop offset="0.8" stop-color="#577BEF"/>
<stop offset="0.875" stop-color="#C840D9"/>
<stop offset="0.945" stop-color="#F154B0"/>
<stop offset="1" stop-color="#FDFB64"/>
</linearGradient>
<linearGradient id="paint13_linear_40000647_59278" x1="16.0854" y1="50.3705" x2="23.4313" y2="56.0427" gradientUnits="userSpaceOnUse">
<stop stop-color="#E741D8"/>
<stop offset="0.23" stop-color="#ED2EE2"/>
<stop offset="0.505" stop-color="#EAA175"/>
<stop offset="0.755" stop-color="#F8F35D"/>
<stop offset="1" stop-color="#72F489"/>
</linearGradient>
<linearGradient id="paint14_linear_40000647_59278" x1="31.371" y1="48.6758" x2="31.7003" y2="54.9583" gradientUnits="userSpaceOnUse">
<stop stop-color="#E741D8"/>
<stop offset="0.11" stop-color="#A751D0"/>
<stop offset="0.205" stop-color="#447FE2"/>
<stop offset="0.295" stop-color="#E7F953"/>
<stop offset="0.365" stop-color="#8FFC7C"/>
<stop offset="0.415" stop-color="#2AF2FE"/>
<stop offset="0.475" stop-color="#5583ED"/>
<stop offset="0.53" stop-color="#ED2EE2"/>
<stop offset="0.565" stop-color="#EAA175"/>
<stop offset="0.635" stop-color="#F8F35D"/>
<stop offset="0.7" stop-color="#72F489"/>
<stop offset="0.755" stop-color="#3EE1E9"/>
<stop offset="0.8" stop-color="#577BEF"/>
<stop offset="0.875" stop-color="#C840D9"/>
<stop offset="0.945" stop-color="#F154B0"/>
<stop offset="1" stop-color="#FDFB64"/>
</linearGradient>
<linearGradient id="paint15_linear_40000647_59278" x1="32.3109" y1="48.6807" x2="30.8299" y2="55.5549" gradientUnits="userSpaceOnUse">
<stop stop-color="#E741D8"/>
<stop offset="0.11" stop-color="#A751D0"/>
<stop offset="0.4" stop-color="#447FE2"/>
<stop offset="0.69" stop-color="#F154B0"/>
<stop offset="1" stop-color="#FDFB64"/>
</linearGradient>
<linearGradient id="paint16_linear_40000647_59278" x1="4.90918" y1="64.3271" x2="2.47921" y2="62.0729" gradientUnits="userSpaceOnUse">
<stop stop-color="#D688F5"/>
<stop offset="0.265" stop-color="#AB6EE7"/>
<stop offset="0.524755" stop-color="#8EF2F8"/>
<stop offset="0.75" stop-color="#C1F8D4"/>
<stop offset="1" stop-color="#FAFEAD"/>
</linearGradient>
<clipPath id="clip0_40000647_59278">
<rect width="48" height="80" fill="white"/>
</clipPath>
<clipPath id="clip1_40000647_59278">
<rect width="50.22" height="76.5613" fill="white" transform="translate(-4.70312 22.7715) rotate(-3)"/>
</clipPath>
</defs>
</svg>
