<svg width="100" height="149" viewBox="0 0 100 149" fill="none" xmlns="http://www.w3.org/2000/svg">
<g opacity="0.2" filter="url(#filter0_d_40001101_48478)">
<rect x="0.838379" y="22.2031" width="65.4723" height="126.784" rx="3.50353" transform="rotate(-9 0.838379 22.2031)" fill="#A158ED"/>
<rect x="3.37335" y="38.2075" width="65.4723" height="3.94148" transform="rotate(-9 3.37335 38.2075)" fill="white"/>
<rect x="3.57861" y="39.5054" width="65.4723" height="1.31383" transform="rotate(-9 3.57861 39.5054)" fill="#61B9F5"/>
<rect x="3.98828" y="42.1006" width="65.4723" height="100.07" transform="rotate(-9 3.98828 42.1006)" fill="#4D6ECB"/>
<path d="M10.9089 85.7881L78.6752 95.1188L82.5117 119.342L17.8455 129.584L10.9089 85.7881Z" fill="#65612E"/>
<path d="M38.1016 120.168C27.4895 119.543 18.1092 113.136 14.7456 110.011L19.644 140.938L84.3102 130.696L81.0218 109.934C71.1367 113.605 48.7137 120.793 38.1016 120.168Z" fill="#CDB389"/>
<path d="M36.0579 96.793C34.3926 95.2164 35.2705 91.8215 35.3567 89.6844C35.5833 87.242 34.9193 86.9224 34.5693 84.7129C34.2194 82.5033 30.4594 78.4273 27.74 76.4515C25.0205 74.4757 24.1619 72.6298 25.5784 70.8483C26.995 69.0667 34.5792 74.9436 37.1387 76.8032C39.6982 78.6628 41.1517 78.0079 43.7824 76.7419C46.4131 75.4758 44.3022 69.2983 43.9304 66.9507C43.5585 64.603 42.8162 62.5972 45.1201 61.9492C47.424 61.3011 48.7132 66.7594 50.6053 71.5559C52.4975 76.3525 54.5484 78.5757 55.8938 79.9198C57.2392 81.2639 56.9055 82.7324 56.8043 83.8809C56.7031 85.0294 57.3292 87.1952 57.8241 88.5325C58.319 89.8697 58.9083 90.9088 59.7451 92.6166C60.5818 94.3244 61.2504 94.0769 62.254 95.0505C63.2575 96.024 62.8801 97.2163 62.7133 97.9505C62.5464 98.6847 62.0309 99.8989 61.6317 100.953C61.2324 102.007 60.6513 102.807 60.5282 103.817C60.4051 104.828 59.1772 106.013 58.0724 106.188C56.9677 106.363 55.7904 106.974 54.3807 107.906C52.971 108.837 49.561 106.97 49.0811 106.621C48.6012 106.273 42.0712 100.795 40.7914 99.8654C39.5117 98.9356 37.7233 98.3695 36.0579 96.793Z" fill="#F29600" stroke="black" stroke-width="0.437942"/>
<path d="M45.6887 101.763C44.2315 101.661 43.0527 100.518 40.5421 99.3635L40.5763 99.5798L45.7978 103.852L48.0697 105.598L49.7324 106.998L51.7591 107.896L54.0075 108.094L55.4358 107.314L57.0804 106.499L58.8844 105.991L60.1532 104.904L60.6136 103.611L60.1811 103.68L60.9831 102.444L62.6716 98.4081L62.8869 96.2678L62.2488 95.0387L61.2467 94.3106L60.2103 93.3662L59.2361 91.4144L57.8175 88.757L57.0703 85.439L56.8476 84.0332L56.8863 81.4775L56.2653 80.3565L54.1241 78.0352L52.1134 75.139L50.6885 71.0416L48.0731 65.0265L46.9393 62.7674C45.4244 60.9011 43.3727 62.645 43.5645 63.8561C43.8043 65.3701 43.981 65.7855 43.9188 66.793C43.8567 67.8005 45.1564 71.8069 45.3448 72.9964C45.5332 74.1859 45.0385 75.2619 44.7087 75.9792L44.7087 75.9793C44.1142 77.2725 42.41 77.5627 41.8693 77.6483C41.4367 77.7169 40.0481 78.0476 39.3992 78.1504C39.6744 78.2546 40.2748 78.4995 40.4752 78.6451C40.7258 78.8271 43.5662 79.264 45.1487 79.4568C46.7311 79.6496 50.9142 78.7653 52.0073 79.3681C53.1004 79.971 55.3273 82.8329 55.6014 84.5631C55.8754 86.2933 57.2886 89.6167 57.5337 90.4647C57.7789 91.3126 58.4512 92.7581 59.7328 94.5504C61.0143 96.3427 60.8719 96.1436 60.1609 97.2538C59.45 98.3641 58.5281 98.8426 57.5838 99.879C56.6394 100.915 55.4264 99.5556 54.2026 99.5277C52.9789 99.4999 52.8654 100.183 52.1769 100.735C51.4884 101.288 51.028 102.58 50.0034 102.41C48.9788 102.24 47.1458 101.865 45.6887 101.763Z" fill="#D7890A"/>
<path d="M36.0579 96.793C34.3926 95.2164 35.2705 91.8215 35.3567 89.6844C35.5833 87.242 34.9193 86.9224 34.5693 84.7129C34.2194 82.5033 30.4594 78.4273 27.74 76.4515C25.0205 74.4757 24.1619 72.6298 25.5784 70.8483C26.995 69.0667 34.5792 74.9436 37.1387 76.8032C39.6982 78.6628 41.1517 78.0079 43.7824 76.7419C46.4131 75.4758 44.3022 69.2983 43.9304 66.9507C43.5585 64.603 42.8162 62.5972 45.1201 61.9492C47.424 61.3011 48.7132 66.7594 50.6053 71.5559C52.4975 76.3525 54.5484 78.5757 55.8938 79.9198C57.2392 81.2639 56.9055 82.7324 56.8043 83.8809C56.7031 85.0294 57.3292 87.1952 57.8241 88.5325C58.319 89.8697 58.9083 90.9088 59.7451 92.6166C60.5818 94.3244 61.2504 94.0769 62.254 95.0505C63.2575 96.024 62.8801 97.2163 62.7133 97.9505C62.5464 98.6847 62.0309 99.8989 61.6317 100.953C61.2324 102.007 60.6513 102.807 60.5282 103.817C60.4051 104.828 59.1772 106.013 58.0724 106.188C56.9677 106.363 55.7904 106.974 54.3807 107.906C52.971 108.837 49.561 106.97 49.0811 106.621C48.6012 106.273 42.0712 100.795 40.7914 99.8654C39.5117 98.9356 37.7233 98.3695 36.0579 96.793Z" stroke="black" stroke-width="0.437942"/>
<path d="M38.548 77.5708C39.3259 78.0138 40.1477 78.733 40.7001 78.6456C41.2524 78.5581 43.2227 79.3785 44.3425 80.1921" stroke="black" stroke-width="0.437942"/>
<path d="M48.4445 104.316C48.5976 105.282 49.2224 104.759 49.4549 104.439L49.6993 103.975C49.435 103.632 49.1429 103.242 48.7781 102.847C48.5663 102.617 48.2919 102.374 47.9799 102.124C48.0837 102.532 48.322 103.542 48.4445 104.316Z" fill="white"/>
<path d="M49.774 87.6838C50.0406 87.8775 50.5768 88.4626 50.5888 89.2535M49.421 94.3931C49.8344 93.7614 50.6265 92.0787 50.4876 90.402M54.8849 89.564C54.7732 89.157 54.6021 88.1365 54.8111 87.3107M51.9175 101.217C52.2443 100.599 52.9416 99.6395 53.6321 99.5301C54.3226 99.4208 54.7369 99.3552 55.1949 99.5657C55.653 99.7763 56.2272 99.8269 56.7796 99.7394C57.2215 99.6694 57.6711 99.4095 57.8406 99.2883M53.6771 102.496C53.7473 102.343 53.9706 102.025 54.302 101.972C54.7163 101.907 55.1743 102.117 55.3343 102.233M60.4795 99.8612L61.6417 98.2615M39.8485 95.6261C40.0017 96.5928 40.126 98.2718 41.2964 98.5111C42.4668 98.7504 43.0192 98.663 44.139 99.4765C45.0275 100.122 46.7812 101.165 47.9799 102.124M60.8951 102.485C60.3358 103.423 59.5223 104.543 58.7374 104.95C57.9526 105.358 56.8547 104.682 55.9605 104.399C55.0663 104.116 54.4414 104.64 53.7509 104.749C53.0604 104.858 51.9994 105.31 51.1271 105.165C50.565 105.071 50.1778 104.598 49.6993 103.975M47.9799 102.124C48.2919 102.374 48.5663 102.617 48.7781 102.847C49.1429 103.242 49.435 103.632 49.6993 103.975M47.9799 102.124C48.0837 102.532 48.322 103.542 48.4445 104.316C48.5976 105.282 49.2224 104.759 49.4549 104.439L49.6993 103.975" stroke="black" stroke-width="0.437942"/>
<path d="M40.2745 88.481C40.8173 88.6309 42.3698 89.1967 44.2369 90.2599C46.5708 91.589 47.5744 92.5625 48.6873 94.2266" stroke="black" stroke-width="0.437942"/>
<path d="M40.5709 88.5752L41.2927 93.1324C42.1144 93.8516 46.5267 94.0022 48.3219 93.7178C45.9014 90.5905 42.146 88.9863 40.5709 88.5752Z" fill="white" stroke="black" stroke-width="0.437942"/>
<path d="M44.9456 93.8282C43.7939 92.9914 43.3692 90.7276 43.3009 89.7003C45.8659 90.8795 47.7194 92.8698 48.3256 93.7175C47.4364 93.764 45.5155 93.8512 44.9456 93.8282Z" fill="#008086" stroke="black" stroke-width="0.437942"/>
<circle cx="45.0301" cy="91.6915" r="0.699093" transform="rotate(-9 45.0301 91.6915)" fill="white"/>
<circle cx="45.5533" cy="92.3165" r="0.838912" transform="rotate(-9 45.5533 92.3165)" fill="black"/>
<path d="M55.693 89.295C55.6525 89.7544 55.9386 91.1435 56.0867 91.7807C56.999 90.3905 57.4641 89.156 57.5826 88.7126L56.8539 85.0058C56.4838 86.2441 55.7335 88.8356 55.693 89.295Z" fill="white" stroke="black" stroke-width="0.437942"/>
<path d="M57.0873 90.0647C57.0808 88.5935 56.628 87.1646 56.4024 86.6341L55.6913 89.2948L55.7569 89.7091L56.1069 91.9187C56.2933 91.606 56.7504 90.7975 57.0873 90.0647Z" fill="#008086" stroke="black" stroke-width="0.437942"/>
<path d="M56.4704 89.7379C56.5229 90.0694 56.0611 90.1331 55.8236 90.1235L55.6705 89.1568C55.7261 88.9121 55.8926 88.4138 56.1135 88.3788C56.3897 88.3351 56.4048 89.3236 56.4704 89.7379Z" fill="black" stroke="black" stroke-width="0.437942"/>
<rect x="0.838379" y="22.3877" width="65.4723" height="126.31" rx="3.50353" transform="rotate(-9 0.838379 22.3877)" fill="#005BA6"/>
</g>
<rect x="4.29877" y="16.2021" width="65.2154" height="126.287" rx="3.48979" transform="rotate(-9 4.29877 16.2021)" fill="#2D4DDE"/>
<rect x="6.82373" y="32.1436" width="65.2154" height="3.92601" transform="rotate(-9 6.82373 32.1436)" fill="white"/>
<rect x="7.02844" y="33.436" width="65.2154" height="1.30867" transform="rotate(-9 7.02844 33.436)" fill="#61B9F5"/>
<g clip-path="url(#clip0_40001101_48478)">
<rect x="7.43787" y="36.0215" width="65.2154" height="99.677" transform="rotate(-9 7.43787 36.0215)" fill="url(#paint0_linear_40001101_48478)"/>
<path d="M20.9897 97.0325L13.1571 100.32L16.9261 135.293L90.6346 124.615L84.4216 93.071L67.5541 91.7043L66.1376 93.5882L57.5166 93.294L50.9606 93.1154L41.9206 95.7642L20.9897 97.0325Z" fill="#4C3826"/>
<path d="M45.5351 89.3385L16.3874 98.104L18.2678 109.976L19.4729 117.585L62.3484 116.209L85.9807 101.093L84.5817 92.2604L57.5545 85.9412L45.5351 89.3385Z" fill="#625953"/>
<path d="M25.8698 106.941L30.2313 111.025C30.5635 111.092 30.9303 111.191 31.2542 111.322C31.5859 111.456 31.8963 111.631 32.0655 111.856C32.1528 111.972 32.2069 112.107 32.1994 112.258C32.1919 112.407 32.1242 112.553 32.0053 112.693C31.801 112.933 31.4248 113.179 30.8375 113.435L30.5732 113.546C27.5797 114.743 24.3816 113.986 23.1505 113.457L23.0231 113.402L23.0759 113.273L25.6414 106.991L25.7189 106.8L25.8698 106.941Z" fill="#FFF5A0" stroke="black" stroke-width="0.284033"/>
<path d="M25.3823 112.447L25.7728 107.044L30.1628 111.156C31.5098 111.417 30.5204 113.414 30.5204 113.414C29.9719 113.323 26.5923 112.968 25.3823 112.447Z" fill="#F15850"/>
<path d="M76.3145 98.9516L73.4285 104.183C73.1331 104.349 72.8151 104.557 72.5474 104.782C72.2732 105.011 72.0322 105.274 71.9408 105.54C71.8936 105.677 71.8839 105.823 71.9377 105.964C71.9911 106.104 72.1004 106.222 72.2567 106.318C72.5252 106.483 72.9591 106.601 73.5968 106.663L73.8822 106.686C76.8985 106.887 79.5546 105.398 80.7045 104.482L80.9141 104.308L81.0183 104.216L80.9282 104.11L76.5472 98.9286L76.4144 98.7706L76.3145 98.9516Z" fill="#FFF5A0" stroke="black" stroke-width="0.284033"/>
<path d="M78.4798 104.038L76.4388 99.0197L73.5342 104.287C72.3339 104.952 73.8918 106.545 73.8918 106.545C74.3853 106.288 77.4898 104.907 78.4798 104.038Z" fill="#F15850"/>
<path fill-rule="evenodd" clip-rule="evenodd" d="M46.8115 75.7601L24.6164 78.3853L14.2316 79.1399C14.8598 80.1086 16.7745 82.1555 19.4076 82.593C17.1844 82.9451 14.7027 82.8634 13.7397 82.7786C14.3496 83.6315 15.9222 85.3171 17.3336 85.236C14.2074 85.7311 11.2273 86.0251 10.4775 85.7878C9.72778 85.5504 13.7446 92.926 21.2404 91.9168C20.3726 92.4632 19.5384 93.0565 18.7905 93.5884C17.5849 94.4458 16.6036 95.1437 16.0676 95.2286C15.1992 95.3662 19.3142 97.7411 23.921 96.4773C22.5894 97.619 21.6169 98.6277 21.0135 99.2536C20.6935 99.5854 20.4773 99.8096 20.3665 99.8889C20.0466 100.118 24.5264 100.298 27.9449 99.4007C30.6797 98.6827 38.36 98.4633 41.8582 98.4434C42.2887 100.037 43.1643 103.542 43.2234 104.815C43.2973 106.405 43.6101 110.629 44.6075 112.429C44.5697 109.942 45.108 107.721 45.2542 107.52C45.2491 107.577 45.2435 107.636 45.2379 107.695C45.1026 109.116 44.923 111.004 50.1032 115.653L49.3055 110.617C49.9004 112.125 52.507 115.094 53.0557 115.186L53.0557 115.186C53.5493 114.93 55.1108 111.3 55.2106 109.682L56.0083 114.718C59.4984 108.696 58.7442 106.956 58.1762 105.646C58.1526 105.591 58.1292 105.537 58.1065 105.484C58.3077 105.63 59.5062 107.577 60.2387 109.953C60.6309 107.933 59.6233 103.819 59.202 102.284C58.865 101.055 58.6146 97.4512 58.5316 95.8026C61.8648 94.7406 69.2369 92.5759 72.0598 92.4137C75.5884 92.2109 79.793 90.6548 79.4181 90.5361C79.2882 90.495 79.0134 90.3485 78.6065 90.1318C77.8392 89.723 76.6025 89.0642 74.9833 88.3899C79.7552 88.1682 82.9349 84.6379 82.0665 84.7755C81.5306 84.8604 80.3816 84.4999 78.97 84.057C78.0944 83.7822 77.1176 83.4757 76.1235 83.2242C83.5643 81.8677 85.1053 73.6119 84.4656 74.0693C83.8259 74.5267 80.9008 75.168 77.7746 75.6631C79.142 75.3041 80.1168 73.2151 80.4332 72.2154C79.5436 72.5937 77.2085 73.4383 74.9854 73.7904C77.3544 72.5606 78.5428 70.0223 78.8409 68.9068L68.7313 71.3982L46.8115 75.7601Z" fill="#EEF0E3"/>
<path d="M24.6164 78.3853L24.6267 78.5271L24.6331 78.5263L24.6164 78.3853ZM46.8115 75.7601L46.8282 75.9016L46.8392 75.8994L46.8115 75.7601ZM14.2316 79.1399L14.2213 78.9982L13.9818 79.0156L14.1125 79.2171L14.2316 79.1399ZM19.4076 82.593L19.4298 82.7333L19.4308 82.4529L19.4076 82.593ZM13.7397 82.7786L13.7522 82.6371L13.4446 82.61L13.6242 82.8612L13.7397 82.7786ZM17.3336 85.236L17.3558 85.3763L17.3255 85.0942L17.3336 85.236ZM10.4775 85.7878L10.5204 85.6524L10.5204 85.6524L10.4775 85.7878ZM21.2404 91.9168L21.316 92.037L21.2214 91.7761L21.2404 91.9168ZM18.7905 93.5884L18.8728 93.7041L18.7905 93.5884ZM23.921 96.4773L24.0135 96.5851L23.8835 96.3403L23.921 96.4773ZM21.0135 99.2536L20.9112 99.155L21.0135 99.2536ZM20.3665 99.8889L20.4491 100.004L20.4491 100.004L20.3665 99.8889ZM27.9449 99.4007L27.981 99.5381L27.9449 99.4007ZM41.8582 98.4434L41.9953 98.4063L41.9668 98.3007L41.8574 98.3013L41.8582 98.4434ZM43.2234 104.815L43.3653 104.808L43.3653 104.808L43.2234 104.815ZM44.6075 112.429L44.4832 112.498L44.7495 112.427L44.6075 112.429ZM45.2542 107.52L45.3957 107.532L45.4407 107.021L45.1393 107.436L45.2542 107.52ZM45.2379 107.695L45.0965 107.681L45.0965 107.681L45.2379 107.695ZM50.1032 115.653L50.0084 115.759L50.3061 116.026L50.2435 115.631L50.1032 115.653ZM49.3055 110.617L49.4376 110.565L49.1652 110.639L49.3055 110.617ZM53.0557 115.186L53.196 115.164L53.18 115.063L53.0791 115.046L53.0557 115.186ZM53.0557 115.186L52.9155 115.208L52.9463 115.403L53.1212 115.312L53.0557 115.186ZM55.2106 109.682L55.3509 109.659L55.0688 109.673L55.2106 109.682ZM56.0083 114.718L55.8681 114.74L55.9306 115.136L56.1312 114.789L56.0083 114.718ZM58.1762 105.646L58.0459 105.702L58.0459 105.702L58.1762 105.646ZM58.1065 105.484L58.19 105.369L57.7752 105.068L57.9758 105.54L58.1065 105.484ZM60.2387 109.953L60.103 109.995L60.3781 109.98L60.2387 109.953ZM59.202 102.284L59.0651 102.321L59.202 102.284ZM58.5316 95.8026L58.4885 95.6673L58.3842 95.7005L58.3897 95.8098L58.5316 95.8026ZM72.0598 92.4137L72.0679 92.5555L72.0598 92.4137ZM78.6065 90.1318L78.5397 90.2571L78.6065 90.1318ZM74.9833 88.3899L74.9767 88.248L74.9287 88.521L74.9833 88.3899ZM78.97 84.057L78.9275 84.1925L78.9275 84.1925L78.97 84.057ZM76.1235 83.2242L76.098 83.0845L76.0887 83.3619L76.1235 83.2242ZM84.4656 74.0693L84.383 73.9538L84.4656 74.0693ZM77.7746 75.6631L77.7385 75.5258L77.7968 75.8034L77.7746 75.6631ZM80.4332 72.2154L80.5686 72.2583L80.6618 71.9639L80.3776 72.0847L80.4332 72.2154ZM74.9854 73.7904L74.92 73.6644L75.0076 73.9307L74.9854 73.7904ZM78.8409 68.9068L78.9781 68.9435L79.0401 68.7115L78.807 68.7689L78.8409 68.9068ZM68.7313 71.3982L68.759 71.5377L68.7652 71.5361L68.7313 71.3982ZM24.6331 78.5263L46.8282 75.9012L46.7948 75.6191L24.5997 78.2443L24.6331 78.5263ZM14.2419 79.2815L24.6267 78.5269L24.6061 78.2436L14.2213 78.9982L14.2419 79.2815ZM19.4308 82.4529C16.8519 82.0244 14.967 80.0129 14.3508 79.0626L14.1125 79.2171C14.7526 80.2043 16.6971 82.2866 19.3843 82.7331L19.4308 82.4529ZM13.7272 82.92C14.6973 83.0055 17.1914 83.0878 19.4298 82.7333L19.3853 82.4527C17.1774 82.8024 14.7081 82.7213 13.7522 82.6371L13.7272 82.92ZM17.3255 85.0942C16.6744 85.1316 15.9639 84.7592 15.3249 84.2468C14.6911 83.7385 14.1541 83.1139 13.8552 82.696L13.6242 82.8612C13.9352 83.2961 14.4895 83.9409 15.1472 84.4683C15.7998 84.9917 16.5814 85.4215 17.3418 85.3778L17.3255 85.0942ZM10.4347 85.9232C10.6456 85.9899 10.9928 86.0153 11.4261 86.0133C11.8651 86.0114 12.4098 85.9811 13.0265 85.9281C14.2604 85.822 15.7905 85.6242 17.3558 85.3763L17.3114 85.0957C15.7504 85.343 14.2274 85.5397 13.0022 85.6451C12.3895 85.6978 11.8532 85.7274 11.4248 85.7293C10.9908 85.7312 10.6843 85.7043 10.5204 85.6524L10.4347 85.9232ZM21.2214 91.7761C17.5275 92.2734 14.6896 90.7062 12.8627 89.0369C11.949 88.202 11.2916 87.3444 10.9104 86.7138C10.7187 86.3968 10.6011 86.144 10.5534 85.9838C10.5417 85.9444 10.5351 85.9136 10.5322 85.8908C10.5291 85.8663 10.5313 85.8589 10.5305 85.8622C10.5292 85.8673 10.5196 85.8972 10.4838 85.9148C10.4519 85.9305 10.4288 85.9213 10.4347 85.9232L10.5204 85.6524C10.4793 85.6394 10.4188 85.6303 10.3585 85.6599C10.2943 85.6915 10.2657 85.7491 10.2545 85.7949C10.2348 85.8757 10.2543 85.9747 10.2812 86.0649C10.3389 86.2588 10.4706 86.5354 10.6673 86.8607C11.0626 87.5147 11.7373 88.3934 12.6711 89.2466C14.539 90.9534 17.4574 92.5694 21.2593 92.0575L21.2214 91.7761ZM18.8728 93.7041C19.6212 93.1719 20.4522 92.5809 21.316 92.037L21.1647 91.7966C20.293 92.3455 19.4557 92.9411 18.7082 93.4727L18.8728 93.7041ZM16.0898 95.3689C16.3906 95.3212 16.7931 95.109 17.2537 94.8183C17.7208 94.5235 18.2711 94.1321 18.8728 93.7041L18.7082 93.4727C18.1043 93.9021 17.5611 94.2884 17.1021 94.5781C16.6367 94.8719 16.2805 95.0511 16.0454 95.0884L16.0898 95.3689ZM23.8835 96.3403C21.6118 96.9635 19.4593 96.6897 17.9822 96.2425C17.2429 96.0187 16.6797 95.7534 16.3589 95.5411C16.2791 95.4882 16.2166 95.4401 16.1709 95.3984C16.1236 95.3551 16.1014 95.325 16.0934 95.3093C16.0853 95.2934 16.1045 95.3216 16.0802 95.358C16.0629 95.384 16.0471 95.3756 16.0898 95.3689L16.0454 95.0884C15.9795 95.0988 15.8942 95.1251 15.844 95.2004C15.7868 95.2861 15.8098 95.3782 15.8402 95.4379C15.8706 95.4979 15.9214 95.5551 15.9793 95.6081C16.0389 95.6626 16.1141 95.7196 16.2021 95.7779C16.5526 96.01 17.1433 96.2853 17.8999 96.5144C19.415 96.9731 21.6234 97.2548 23.9586 96.6143L23.8835 96.3403ZM21.1157 99.3521C21.7186 98.7268 22.6873 97.7221 24.0135 96.5851L23.8286 96.3695C22.4916 97.5158 21.5151 98.5286 20.9112 99.155L21.1157 99.3521ZM20.4491 100.004C20.5153 99.9571 20.6049 99.8731 20.7118 99.7666C20.8209 99.6579 20.9561 99.5177 21.1157 99.3521L20.9112 99.155C20.7509 99.3213 20.618 99.4591 20.5113 99.5653C20.4025 99.6737 20.3285 99.7415 20.2839 99.7734L20.4491 100.004ZM27.9088 99.2634C26.2141 99.7083 24.2515 99.8869 22.7502 99.9252C21.9999 99.9443 21.3684 99.9283 20.9465 99.8938C20.7337 99.8764 20.5815 99.8548 20.4951 99.8328C20.4741 99.8274 20.4597 99.8227 20.4508 99.8192C20.44 99.8149 20.4442 99.815 20.4533 99.8228C20.4616 99.8298 20.4984 99.8653 20.4915 99.9262C20.4854 99.9797 20.45 100.004 20.4491 100.004L20.2839 99.7734C20.263 99.7883 20.217 99.8266 20.2093 99.8941C20.2007 99.9691 20.245 100.018 20.2693 100.039C20.2946 100.061 20.3235 100.074 20.3457 100.083C20.3698 100.093 20.3968 100.101 20.4251 100.108C20.5358 100.136 20.7078 100.159 20.9234 100.177C21.3583 100.212 22.0005 100.228 22.7574 100.209C24.2707 100.171 26.2572 99.9907 27.981 99.5381L27.9088 99.2634ZM41.8574 98.3013C40.1065 98.3113 37.3095 98.3712 34.6076 98.5185C31.9109 98.6654 29.2925 98.9001 27.9088 99.2634L27.981 99.5381C29.3321 99.1834 31.9213 98.9493 34.623 98.8021C37.3195 98.6551 40.1117 98.5953 41.859 98.5854L41.8574 98.3013ZM43.3653 104.808C43.335 104.157 43.0981 102.95 42.8186 101.718C42.5379 100.481 42.2109 99.2045 41.9953 98.4063L41.7211 98.4804C41.936 99.2757 42.262 100.548 42.5416 101.781C42.8222 103.018 43.0527 104.2 43.0815 104.821L43.3653 104.808ZM44.7317 112.36C44.247 111.485 43.9219 110.003 43.7097 108.523C43.4985 107.049 43.4021 105.601 43.3653 104.808L43.0815 104.821C43.1186 105.619 43.2156 107.077 43.4286 108.563C43.6406 110.043 43.9706 111.572 44.4832 112.498L44.7317 112.36ZM45.1393 107.436C45.1064 107.481 45.0761 107.559 45.0483 107.641C45.0182 107.73 44.9843 107.847 44.9486 107.987C44.877 108.267 44.7964 108.645 44.7218 109.094C44.5725 109.992 44.4464 111.178 44.4655 112.431L44.7495 112.427C44.7307 111.194 44.8549 110.025 45.0019 109.141C45.0755 108.698 45.1545 108.328 45.2237 108.057C45.2584 107.921 45.2903 107.812 45.3174 107.732C45.331 107.691 45.343 107.66 45.353 107.636C45.3639 107.611 45.3696 107.602 45.3691 107.603L45.1393 107.436ZM45.3793 107.708C45.3849 107.649 45.3905 107.59 45.3957 107.532L45.1127 107.507C45.1077 107.564 45.1022 107.622 45.0965 107.681L45.3793 107.708ZM50.1981 115.548C47.6135 113.228 46.3794 111.609 45.8055 110.403C45.2363 109.207 45.3125 108.41 45.3793 107.708L45.0965 107.681C45.028 108.401 44.9468 109.259 45.549 110.525C46.1465 111.781 47.4127 113.43 50.0084 115.759L50.1981 115.548ZM49.1652 110.639L49.963 115.676L50.2435 115.631L49.4458 110.594L49.1652 110.639ZM53.0791 115.046C53.0678 115.044 53.0418 115.036 52.9981 115.012C52.9563 114.989 52.9055 114.955 52.8462 114.911C52.7276 114.823 52.5831 114.698 52.4198 114.542C52.0938 114.232 51.7015 113.809 51.3065 113.341C50.5127 112.4 49.7259 111.295 49.4376 110.565L49.1734 110.669C49.48 111.446 50.2939 112.581 51.0894 113.524C51.489 113.998 51.8884 114.429 52.224 114.748C52.3916 114.908 52.5454 115.041 52.6767 115.139C52.7423 115.188 52.8044 115.229 52.8613 115.26C52.9164 115.291 52.9751 115.316 53.0324 115.326L53.0791 115.046ZM52.9155 115.208L52.9155 115.208L53.196 115.164L53.196 115.164L52.9155 115.208ZM53.1212 115.312C53.1728 115.285 53.2206 115.243 53.2637 115.197C53.3081 115.15 53.3544 115.091 53.4017 115.024C53.4965 114.891 53.6014 114.716 53.7115 114.513C53.932 114.105 54.1787 113.572 54.4124 112.998C54.8774 111.855 55.3009 110.524 55.3523 109.69L55.0688 109.673C55.0205 110.457 54.6133 111.75 54.1493 112.891C53.9184 113.458 53.6759 113.982 53.4617 114.378C53.3545 114.576 53.2557 114.74 53.1701 114.86C53.1274 114.92 53.0894 114.968 53.0567 115.002C53.0226 115.039 53.0004 115.055 52.9903 115.06L53.1212 115.312ZM55.0703 109.704L55.8681 114.74L56.1486 114.696L55.3509 109.659L55.0703 109.704ZM56.1312 114.789C57.88 111.772 58.5746 109.812 58.7549 108.433C58.9365 107.044 58.5941 106.253 58.3065 105.589L58.0459 105.702C58.3263 106.349 58.6449 107.083 58.4732 108.397C58.3001 109.721 57.6268 111.642 55.8855 114.647L56.1312 114.789ZM58.3065 105.589C58.2828 105.535 58.2597 105.481 58.2372 105.428L57.9758 105.54C57.9988 105.593 58.0223 105.648 58.0459 105.702L58.3065 105.589ZM58.0231 105.599C58.0224 105.598 58.0304 105.605 58.0487 105.626C58.0654 105.645 58.0866 105.671 58.1119 105.705C58.1626 105.773 58.2267 105.868 58.3016 105.986C58.4512 106.222 58.6407 106.55 58.8473 106.948C59.2606 107.744 59.7398 108.817 60.103 109.995L60.3744 109.912C60.0052 108.713 59.5188 107.625 59.0994 106.817C58.8897 106.413 58.6962 106.078 58.5415 105.834C58.4643 105.712 58.3961 105.611 58.3398 105.536C58.288 105.466 58.2353 105.402 58.19 105.369L58.0231 105.599ZM60.3781 109.98C60.5797 108.942 60.4208 107.385 60.1653 105.912C59.9087 104.434 59.5503 103.017 59.339 102.246L59.0651 102.321C59.275 103.087 59.631 104.494 59.8855 105.961C60.1411 107.434 60.2899 108.944 60.0993 109.926L60.3781 109.98ZM59.339 102.246C59.1744 101.646 59.0283 100.451 58.913 99.1878C58.7981 97.9295 58.7149 96.6183 58.6734 95.7955L58.3897 95.8098C58.4313 96.6355 58.5148 97.9507 58.6301 99.2137C58.745 100.472 58.8926 101.693 59.0651 102.321L59.339 102.246ZM58.5747 95.9379C60.2396 95.4075 62.9137 94.6015 65.5235 93.908C68.1385 93.2131 70.6733 92.6356 72.0679 92.5555L72.0516 92.2719C70.6234 92.354 68.0607 92.9399 65.4506 93.6335C62.8354 94.3284 60.1568 95.1357 58.4885 95.6673L58.5747 95.9379ZM72.0679 92.5555C73.8472 92.4532 75.7921 92.0104 77.2432 91.5795C77.969 91.3639 78.5748 91.1503 78.9775 90.9821C79.1771 90.8986 79.3336 90.8236 79.4301 90.7626C79.4548 90.747 79.4779 90.7309 79.4979 90.7143C79.5163 90.699 79.5396 90.6772 79.557 90.649C79.5737 90.6218 79.6005 90.5611 79.5692 90.4925C79.5411 90.4306 79.4855 90.4085 79.461 90.4007L79.3753 90.6715C79.3742 90.6712 79.3331 90.6592 79.3108 90.6102C79.2854 90.5545 79.3094 90.5093 79.3151 90.5C79.3214 90.4898 79.3253 90.4884 79.3164 90.4959C79.309 90.502 79.2968 90.5109 79.2785 90.5225C79.2031 90.5701 79.065 90.6376 78.868 90.72C78.4775 90.8832 77.8818 91.0935 77.1623 91.3072C75.7227 91.7347 73.8009 92.1714 72.0516 92.2719L72.0679 92.5555ZM79.461 90.4007C79.4087 90.3842 79.3174 90.3426 79.1804 90.2731C79.0462 90.2051 78.8772 90.1151 78.6733 90.0064L78.5397 90.2571C78.7427 90.3652 78.9146 90.4568 79.052 90.5265C79.1865 90.5947 79.2976 90.6469 79.3753 90.6715L79.461 90.4007ZM78.6733 90.0064C77.9053 89.5973 76.6637 88.9358 75.0379 88.2588L74.9287 88.521C76.5414 89.1925 77.7731 89.8487 78.5397 90.2571L78.6733 90.0064ZM74.9899 88.5318C77.4087 88.4194 79.422 87.469 80.7212 86.5645C81.37 86.1128 81.8467 85.6685 82.1083 85.3394C82.174 85.2568 82.2279 85.1793 82.2677 85.1091C82.3065 85.0408 82.3371 84.9707 82.3475 84.9042C82.3579 84.8381 82.3514 84.7433 82.2705 84.6795C82.1995 84.6235 82.1102 84.6248 82.0443 84.6352L82.0887 84.9158C82.1314 84.909 82.119 84.9218 82.0945 84.9024C82.0601 84.8753 82.0697 84.8425 82.0669 84.8602C82.0642 84.8776 82.0524 84.9131 82.0207 84.9689C81.9902 85.0227 81.9456 85.0877 81.886 85.1627C81.6466 85.4637 81.1929 85.89 80.5589 86.3314C79.2924 87.2131 77.3298 88.1387 74.9767 88.248L74.9899 88.5318ZM82.0443 84.6352C81.8091 84.6725 81.4151 84.6121 80.8816 84.4765C80.3555 84.3428 79.7196 84.1433 79.0125 83.9215L78.9275 84.1925C79.632 84.4135 80.2763 84.6157 80.8116 84.7518C81.3395 84.886 81.7879 84.9634 82.0887 84.9158L82.0443 84.6352ZM79.0125 83.9215C78.1374 83.6469 77.1569 83.3392 76.1583 83.0865L76.0887 83.3619C77.0783 83.6123 78.0513 83.9175 78.9275 84.1925L79.0125 83.9215ZM76.149 83.3639C79.923 82.6759 82.1992 80.2371 83.4483 78.0366C84.0727 76.9366 84.4428 75.8924 84.6167 75.1483C84.7032 74.7782 84.743 74.4744 84.738 74.2722C84.7357 74.1781 84.7236 74.0779 84.6799 74.0072C84.6551 73.967 84.6101 73.9211 84.5393 73.9109C84.4728 73.9013 84.418 73.9287 84.383 73.9538L84.5482 74.1848C84.5532 74.1812 84.5341 74.1971 84.4989 74.192C84.4594 74.1863 84.441 74.1609 84.4383 74.1564C84.4365 74.1535 84.4408 74.1599 84.4455 74.1841C84.4498 74.2067 84.453 74.2381 84.4541 74.2792C84.4582 74.4462 84.4244 74.723 84.3401 75.0837C84.1724 75.8013 83.8122 76.8201 83.2012 77.8964C81.9796 80.0486 79.7648 82.416 76.098 83.0845L76.149 83.3639ZM84.383 73.9538C84.2431 74.0538 83.96 74.1741 83.5466 74.3064C83.1387 74.437 82.6194 74.5745 82.0204 74.7137C80.8227 74.9921 79.3133 75.2756 77.7524 75.5229L77.7968 75.8034C79.3621 75.5555 80.8784 75.2708 82.0847 74.9904C82.6877 74.8502 83.2151 74.7107 83.6332 74.5769C84.0459 74.4448 84.3682 74.3135 84.5482 74.1848L84.383 73.9538ZM77.8106 75.8005C78.5473 75.6071 79.1578 74.9568 79.6167 74.2574C80.0793 73.5525 80.4072 72.7681 80.5686 72.2583L80.2978 72.1726C80.1427 72.6624 79.825 73.4223 79.3793 74.1016C78.9299 74.7864 78.3693 75.3602 77.7385 75.5258L77.8106 75.8005ZM80.3776 72.0847C79.4945 72.4602 77.1711 73.3004 74.9632 73.6501L75.0076 73.9307C77.246 73.5762 79.5926 72.7272 80.4888 72.3461L80.3776 72.0847ZM75.0508 73.9165C77.4685 72.6614 78.6744 70.0802 78.9781 68.9435L78.7037 68.8702C78.4113 69.9644 77.2402 72.4599 74.92 73.6644L75.0508 73.9165ZM78.807 68.7689L68.6973 71.2603L68.7652 71.5361L78.8749 69.0447L78.807 68.7689ZM68.7036 71.259L46.7838 75.6208L46.8392 75.8994L68.759 71.5375L68.7036 71.259Z" fill="black"/>
<path fill-rule="evenodd" clip-rule="evenodd" d="M45.3535 66.5549L38.91 69.7119L32.4595 77.3209L34.6208 85.3464L43.033 88.9991L48.7645 88.0914L45.3535 66.5549ZM45.3535 66.5551L52.4572 67.5664L60.9433 72.8098L61.3678 81.1104L54.4961 87.1838L48.7646 88.0916L45.3535 66.5551Z" fill="url(#paint1_radial_40001101_48478)"/>
<path fill-rule="evenodd" clip-rule="evenodd" d="M42.3339 46.5615C42.2859 46.5675 42.2379 46.5743 42.1901 46.5819L42.1915 46.5908C37.1261 47.7158 33.5009 57.3505 34.6355 64.5142L37.1237 67.859L45.6341 66.5111L45.634 66.5109L53.864 65.2074L55.1968 61.2575C54.0622 54.0937 47.6371 46.0508 42.4719 46.5461L42.4706 46.5377C42.4249 46.5449 42.3794 46.5528 42.3339 46.5615Z" fill="#EEF0E3"/>
<path d="M42.1901 46.5819L42.1679 46.4416L42.0276 46.4638L42.0499 46.6041L42.1901 46.5819ZM42.3339 46.5615L42.3517 46.7026L42.3604 46.701L42.3339 46.5615ZM42.1915 46.5908L42.2223 46.7294L42.3527 46.7004L42.3318 46.5685L42.1915 46.5908ZM34.6355 64.5142L34.4952 64.5365L34.5007 64.571L34.5216 64.599L34.6355 64.5142ZM37.1237 67.859L37.0097 67.9437L37.061 68.0127L37.1459 67.9992L37.1237 67.859ZM45.6341 66.5111L45.6563 66.6513L45.7966 66.6291L45.7743 66.4888L45.6341 66.5111ZM45.634 66.5109L45.6118 66.3706L45.4716 66.3928L45.4938 66.5331L45.634 66.5109ZM53.864 65.2074L53.8862 65.3476L53.9711 65.3342L53.9986 65.2528L53.864 65.2074ZM55.1968 61.2575L55.3314 61.3029L55.3425 61.2698L55.3371 61.2352L55.1968 61.2575ZM42.4719 46.5461L42.3317 46.5684L42.3526 46.7003L42.4855 46.6875L42.4719 46.5461ZM42.4706 46.5377L42.6109 46.5155L42.5887 46.3752L42.4484 46.3974L42.4706 46.5377ZM42.2123 46.7222C42.2587 46.7148 42.3051 46.7082 42.3517 46.7024L42.3162 46.4206C42.2666 46.4268 42.2172 46.4338 42.1679 46.4416L42.2123 46.7222ZM42.3318 46.5685L42.3304 46.5597L42.0499 46.6041L42.0513 46.613L42.3318 46.5685ZM42.1607 46.4521C40.8558 46.742 39.6549 47.577 38.6078 48.7646C37.5603 49.9529 36.6601 51.5014 35.9569 53.2346C34.551 56.6996 33.9233 60.9254 34.4952 64.5365L34.7758 64.492C34.2131 60.9394 34.8307 56.7659 36.2201 53.3414C36.9145 51.6299 37.7995 50.111 38.8209 48.9525C39.8428 47.7933 40.9945 47.0021 42.2223 46.7294L42.1607 46.4521ZM34.5216 64.599L37.0097 67.9437L37.2376 67.7742L34.7495 64.4295L34.5216 64.599ZM37.1459 67.9992L45.6563 66.6513L45.6119 66.3708L37.1015 67.7187L37.1459 67.9992ZM45.7743 66.4888L45.7743 66.4886L45.4938 66.5331L45.4938 66.5333L45.7743 66.4888ZM53.8418 65.0671L45.6118 66.3706L45.6563 66.6511L53.8862 65.3476L53.8418 65.0671ZM55.0622 61.212L53.7294 65.162L53.9986 65.2528L55.3314 61.3029L55.0622 61.212ZM42.4855 46.6875C43.7375 46.5675 45.0774 46.964 46.4074 47.7507C47.7368 48.5369 49.0479 49.7079 50.2372 51.1211C52.6168 53.9487 54.4939 57.727 55.0565 61.2797L55.3371 61.2352C54.7651 57.6242 52.8623 53.7992 50.4545 50.9382C49.2501 49.5071 47.9154 48.3126 46.552 47.5062C45.1892 46.7002 43.789 46.2772 42.4584 46.4048L42.4855 46.6875ZM42.6122 46.5239L42.6109 46.5155L42.3303 46.5599L42.3317 46.5684L42.6122 46.5239ZM42.4484 46.3974C42.4013 46.4049 42.3543 46.413 42.3075 46.4219L42.3604 46.701C42.4044 46.6926 42.4486 46.685 42.4928 46.6779L42.4484 46.3974Z" fill="black"/>
<path fill-rule="evenodd" clip-rule="evenodd" d="M43.1529 52.6608C43.1529 52.6608 46.052 55.2282 46.2721 56.6177C46.3785 57.6691 44.4458 60.8238 44.4458 60.8238L43.1529 52.6608ZM43.1529 52.661C43.1529 52.661 41.189 55.9987 41.4091 57.3881C41.6328 58.4209 44.4458 60.824 44.4458 60.824L43.1529 52.661Z" fill="#F15850"/>
<path d="M22.9863 72.5903C18.6875 67.9301 17.2743 56.7594 17.209 54.0992C22.262 52.7292 28.7126 54.4137 31.3063 55.4272L37.9229 70.2246L34.4698 75.4005L31.3074 76.7916C29.9667 76.9446 26.4254 76.3186 22.9863 72.5903Z" fill="#EEF0E3" stroke="black" stroke-width="0.284033"/>
<path d="M68.3172 65.4105C70.9656 59.6499 68.8577 48.5893 68.0977 46.0391C62.8687 46.2975 57.2543 49.893 55.1007 51.6584L53.3806 67.7762L58.2642 71.6317L61.7017 71.9775C63.0241 71.7087 66.1985 70.019 68.3172 65.4105Z" fill="#EEF0E3" stroke="black" stroke-width="0.284033"/>
<path fill-rule="evenodd" clip-rule="evenodd" d="M45.216 65.6869L45.2159 65.6868L50.6087 63.7644L56.7329 42.8541L56.7819 69.018C56.7819 69.018 57.9337 70.6248 59.05 70.9733C60.2955 71.362 62.35 70.4506 62.35 70.4506L75.6879 51.2464L65.8285 80.0479L61.268 82.7286L60.1849 73.6422L56.0149 70.9199L52.1405 74.5602L49.7694 67.4581L45.5186 67.5973L45.5186 67.5974L41.4328 68.7787L41.3723 76.2659L36.5627 74.001L33.438 77.8786L35.2158 86.855L30.0501 85.7148L11.7731 61.3697L30.3926 75.5123C30.3926 75.5123 32.6282 75.7443 33.6926 74.9897C34.6466 74.3133 35.2455 72.4292 35.2455 72.4292L27.2071 47.5307L39.4931 65.5251L45.216 65.6869Z" fill="#FFF5A0"/>
<path d="M45.2159 65.6868L45.1682 65.553L45.0572 65.5926L45.0757 65.709L45.2159 65.6868ZM45.216 65.6869L45.2119 65.8289L45.383 65.8337L45.3562 65.6647L45.216 65.6869ZM50.6087 63.7644L50.6564 63.8982L50.7246 63.8739L50.745 63.8043L50.6087 63.7644ZM56.7329 42.8541L56.8749 42.8539L56.5966 42.8142L56.7329 42.8541ZM56.7819 69.018L56.6399 69.0183L56.64 69.0638L56.6665 69.1008L56.7819 69.018ZM59.05 70.9733L59.0077 71.1088L59.05 70.9733ZM62.35 70.4506L62.4076 70.5804L62.4439 70.5643L62.4666 70.5316L62.35 70.4506ZM75.6879 51.2464L75.8222 51.2924L75.5712 51.1654L75.6879 51.2464ZM65.8285 80.0479L65.9004 80.1703L65.9458 80.1436L65.9628 80.0939L65.8285 80.0479ZM61.268 82.7286L61.127 82.7454L61.1527 82.9611L61.3399 82.851L61.268 82.7286ZM60.1849 73.6422L60.3259 73.6253L60.3181 73.5595L60.2625 73.5232L60.1849 73.6422ZM56.0149 70.9199L56.0926 70.801L55.9991 70.7399L55.9177 70.8164L56.0149 70.9199ZM52.1405 74.5602L52.0058 74.6052L52.0761 74.8156L52.2378 74.6637L52.1405 74.5602ZM49.7694 67.4581L49.9041 67.4131L49.8706 67.3127L49.7648 67.3162L49.7694 67.4581ZM45.5186 67.5973L45.5139 67.4553L45.3531 67.4606L45.3783 67.6195L45.5186 67.5973ZM45.5186 67.5974L45.558 67.7339L45.6785 67.699L45.6589 67.5752L45.5186 67.5974ZM41.4328 68.7787L41.3933 68.6423L41.2916 68.6717L41.2907 68.7775L41.4328 68.7787ZM41.3723 76.2659L41.3118 76.3943L41.5126 76.4889L41.5144 76.267L41.3723 76.2659ZM36.5627 74.001L36.6232 73.8725L36.5221 73.8249L36.4521 73.9119L36.5627 74.001ZM33.438 77.8786L33.3274 77.7895L33.2858 77.8411L33.2987 77.9062L33.438 77.8786ZM35.2158 86.855L35.1852 86.9937L35.3973 87.0405L35.3551 86.8274L35.2158 86.855ZM30.0501 85.7148L29.9366 85.8L29.9681 85.8421L30.0195 85.8535L30.0501 85.7148ZM11.7731 61.3697L11.859 61.2566L11.6596 61.455L11.7731 61.3697ZM30.3926 75.5123L30.3067 75.6254L30.3384 75.6495L30.378 75.6536L30.3926 75.5123ZM33.6926 74.9897L33.6105 74.8738L33.6926 74.9897ZM35.2455 72.4292L35.3808 72.4722L35.3946 72.4289L35.3806 72.3856L35.2455 72.4292ZM27.2071 47.5307L27.3244 47.4507L27.0719 47.5744L27.2071 47.5307ZM39.4931 65.5251L39.3758 65.6052L39.4167 65.665L39.4891 65.6671L39.4931 65.5251ZM45.0757 65.709L45.0757 65.7092L45.3562 65.6647L45.3562 65.6646L45.0757 65.709ZM50.561 63.6306L45.1682 65.553L45.2636 65.8205L50.6564 63.8982L50.561 63.6306ZM56.5966 42.8142L50.4724 63.7245L50.745 63.8043L56.8691 42.8941L56.5966 42.8142ZM56.9239 69.0178L56.8749 42.8539L56.5908 42.8544L56.6399 69.0183L56.9239 69.0178ZM59.0923 70.8377C58.5711 70.675 58.0253 70.2098 57.5998 69.7666C57.3896 69.5477 57.2136 69.3393 57.09 69.1856C57.0283 69.1088 56.9799 69.0458 56.9469 69.0022C56.9305 68.9804 56.9179 68.9635 56.9096 68.9521C56.9054 68.9464 56.9023 68.9421 56.9002 68.9392C56.8992 68.9378 56.8984 68.9368 56.898 68.9361C56.8977 68.9358 56.8975 68.9356 56.8974 68.9354C56.8974 68.9353 56.8974 68.9353 56.8973 68.9353C56.8973 68.9353 56.8973 68.9353 56.8973 68.9353C56.8973 68.9353 56.8973 68.9353 56.7819 69.018C56.6665 69.1008 56.6665 69.1008 56.6665 69.1008C56.6666 69.1008 56.6666 69.1009 56.6666 69.1009C56.6667 69.101 56.6667 69.1011 56.6668 69.1012C56.667 69.1015 56.6673 69.1018 56.6676 69.1022C56.6682 69.1031 56.6691 69.1044 56.6703 69.106C56.6727 69.1093 56.6762 69.1141 56.6807 69.1202C56.6897 69.1326 56.703 69.1505 56.7202 69.1733C56.7547 69.2189 56.8049 69.2842 56.8686 69.3635C56.9959 69.5219 57.1776 69.737 57.3949 69.9633C57.8244 70.4107 58.4127 70.9231 59.0077 71.1088L59.0923 70.8377ZM62.35 70.4506C62.2924 70.3208 62.2924 70.3208 62.2924 70.3208C62.2924 70.3208 62.2924 70.3208 62.2924 70.3208C62.2924 70.3208 62.2923 70.3208 62.2922 70.3209C62.292 70.321 62.2917 70.3211 62.2913 70.3213C62.2904 70.3217 62.2891 70.3223 62.2873 70.3231C62.2836 70.3247 62.278 70.3271 62.2707 70.3302C62.2559 70.3366 62.2338 70.3459 62.2051 70.3577C62.1478 70.3814 62.0641 70.4149 61.9597 70.454C61.7507 70.5322 61.4595 70.6324 61.1303 70.7206C60.4637 70.8991 59.6734 71.0191 59.0923 70.8377L59.0077 71.1088C59.6722 71.3162 60.5318 71.1749 61.2038 70.9949C61.544 70.9038 61.8442 70.8005 62.0593 70.72C62.1669 70.6797 62.2535 70.645 62.3134 70.6203C62.3433 70.608 62.3666 70.5981 62.3826 70.5913C62.3905 70.5879 62.3966 70.5852 62.4008 70.5834C62.4029 70.5825 62.4046 70.5818 62.4057 70.5813C62.4062 70.581 62.4067 70.5808 62.407 70.5807C62.4072 70.5806 62.4073 70.5806 62.4074 70.5805C62.4074 70.5805 62.4075 70.5805 62.4075 70.5805C62.4075 70.5805 62.4076 70.5804 62.35 70.4506ZM75.5712 51.1654L62.2333 70.3696L62.4666 70.5316L75.8045 51.3274L75.5712 51.1654ZM65.9628 80.0939L75.8222 51.2924L75.5535 51.2004L65.6941 80.0019L65.9628 80.0939ZM61.3399 82.851L65.9004 80.1703L65.7565 79.9254L61.196 82.6062L61.3399 82.851ZM60.0439 73.659L61.127 82.7454L61.409 82.7118L60.3259 73.6253L60.0439 73.659ZM55.9373 71.0388L60.1073 73.7611L60.2625 73.5232L56.0926 70.801L55.9373 71.0388ZM52.2378 74.6637L56.1122 71.0234L55.9177 70.8164L52.0433 74.4567L52.2378 74.6637ZM49.6347 67.5031L52.0058 74.6052L52.2752 74.5152L49.9041 67.4131L49.6347 67.5031ZM45.5232 67.7392L49.774 67.6001L49.7648 67.3162L45.5139 67.4553L45.5232 67.7392ZM45.3783 67.6195L45.3783 67.6197L45.6589 67.5752L45.6588 67.5751L45.3783 67.6195ZM45.4791 67.461L41.3933 68.6423L41.4722 68.9151L45.558 67.7339L45.4791 67.461ZM41.2907 68.7775L41.2303 76.2647L41.5144 76.267L41.5748 68.7798L41.2907 68.7775ZM41.4328 76.1374L36.6232 73.8725L36.5022 74.1295L41.3118 76.3943L41.4328 76.1374ZM36.4521 73.9119L33.3274 77.7895L33.5486 77.9677L36.6732 74.0901L36.4521 73.9119ZM33.2987 77.9062L35.0765 86.8826L35.3551 86.8274L33.5773 77.851L33.2987 77.9062ZM35.2464 86.7164L30.0807 85.5761L30.0195 85.8535L35.1852 86.9937L35.2464 86.7164ZM30.1637 85.6295L11.8867 61.2844L11.6596 61.455L29.9366 85.8L30.1637 85.6295ZM11.6872 61.4828L30.3067 75.6254L30.4785 75.3992L11.859 61.2566L11.6872 61.4828ZM30.3926 75.5123C30.378 75.6536 30.378 75.6536 30.3781 75.6536C30.3781 75.6536 30.3781 75.6536 30.3782 75.6536C30.3783 75.6536 30.3784 75.6536 30.3786 75.6537C30.379 75.6537 30.3794 75.6537 30.38 75.6538C30.3813 75.6539 30.383 75.6541 30.3853 75.6543C30.3899 75.6548 30.3965 75.6554 30.4051 75.6562C30.4224 75.6578 30.4476 75.6599 30.4799 75.6624C30.5445 75.6674 30.6375 75.6736 30.7523 75.6787C30.9818 75.6888 31.2993 75.6943 31.6509 75.6758C32.3456 75.6393 33.2069 75.5081 33.7747 75.1055L33.6105 74.8738C33.1139 75.2259 32.3252 75.356 31.636 75.3922C31.2957 75.41 30.9878 75.4047 30.7648 75.3949C30.6534 75.39 30.5635 75.384 30.5017 75.3792C30.4708 75.3769 30.4469 75.3748 30.4309 75.3733C30.4229 75.3726 30.4169 75.372 30.4129 75.3716C30.4109 75.3714 30.4094 75.3713 30.4085 75.3712C30.408 75.3712 30.4077 75.3711 30.4075 75.3711C30.4074 75.3711 30.4073 75.3711 30.4073 75.3711C30.4073 75.3711 30.4073 75.3711 30.4073 75.3711C30.4073 75.3711 30.4073 75.3711 30.3926 75.5123ZM33.7747 75.1055C34.2833 74.745 34.6844 74.0759 34.9546 73.5177C35.0914 73.2353 35.1977 72.9746 35.2698 72.7846C35.3059 72.6895 35.3335 72.6119 35.3521 72.5578C35.3615 72.5308 35.3686 72.5097 35.3734 72.4951C35.3758 72.4879 35.3776 72.4823 35.3788 72.4784C35.3795 72.4765 35.3799 72.475 35.3803 72.474C35.3804 72.4735 35.3806 72.4731 35.3807 72.4728C35.3807 72.4726 35.3807 72.4725 35.3808 72.4724C35.3808 72.4724 35.3808 72.4723 35.3808 72.4723C35.3808 72.4723 35.3808 72.4722 35.2455 72.4292C35.1101 72.3862 35.1101 72.3862 35.1101 72.3862C35.1101 72.3862 35.1101 72.3862 35.1101 72.3862C35.1101 72.3862 35.1101 72.3863 35.1101 72.3864C35.11 72.3865 35.11 72.3868 35.1098 72.3872C35.1096 72.388 35.1092 72.3892 35.1086 72.3909C35.1076 72.3942 35.1059 72.3992 35.1037 72.406C35.0993 72.4194 35.0926 72.4394 35.0836 72.4652C35.0658 72.5168 35.0392 72.5917 35.0042 72.6838C34.9343 72.8682 34.8312 73.1208 34.699 73.3939C34.4313 73.9469 34.056 74.558 33.6105 74.8738L33.7747 75.1055ZM35.3806 72.3856L27.3422 47.4871L27.0719 47.5744L35.1103 72.4729L35.3806 72.3856ZM27.0898 47.6108L39.3758 65.6052L39.6104 65.445L27.3244 47.4507L27.0898 47.6108ZM39.4891 65.6671L45.2119 65.8289L45.22 65.545L39.4971 65.3832L39.4891 65.6671Z" fill="black"/>
<path d="M26.4881 111.56C24.5193 104.75 26.2082 99.6757 27.0027 97.9475L35.3188 92.0013L42.4241 96.3952C41.978 100.323 40.8028 108.865 39.6705 111.608C29.241 114.329 28.3624 112.153 26.4881 111.56Z" fill="#EEF0E3" stroke="black" stroke-width="0.284033"/>
<path d="M31.5113 101.684C30.7254 102.343 29.8862 106.037 29.9687 106.558C32.0167 107.123 36.2023 104.324 36.4947 103.922C36.787 103.519 36.3744 100.914 36.1819 99.6983C34.2714 100.001 32.2972 101.026 31.5113 101.684Z" fill="#F15850"/>
<path d="M77.0293 103.555C76.7973 96.4704 73.6231 92.1661 72.3334 90.768L62.5868 87.6827L57.1871 94.0572C58.8252 97.6552 62.5825 105.416 64.507 107.675C75.2666 107.039 75.4301 104.699 77.0293 103.555Z" fill="#EEF0E3" stroke="black" stroke-width="0.284033"/>
<path d="M69.2002 95.7155C70.1511 96.099 72.0908 99.3525 72.1733 99.8736C70.4003 101.045 65.5545 99.6756 65.1521 99.3833C64.7497 99.0909 64.3371 96.4857 64.1446 95.2699C66.0551 94.9673 68.2493 95.332 69.2002 95.7155Z" fill="#F15850"/>
<path d="M34.8426 90.1186L20.4044 102.376L36.6549 94.8167C36.6549 94.8167 38.6443 95.5688 39.5902 96.4882C40.4502 97.3242 41.2461 99.0746 41.2461 99.0746L38.5028 116.601L46.2004 97.7558L45.5127 93.4137L40.9214 89.1558L34.8426 90.1186Z" fill="#FFF5A0" stroke="black" stroke-width="0.284033" stroke-linejoin="round"/>
<path d="M38.9575 92.4934L41.3513 89.6217L44.9091 92.975L42.6339 95.4718C42.6339 95.4718 40.6665 96.0621 39.7725 95.3909C38.8325 94.6852 38.9575 92.4934 38.9575 92.4934Z" fill="#3A3E41"/>
<path d="M62.4578 85.7446L79.977 92.94L62.186 90.7728C62.186 90.7728 60.5263 92.1028 59.9109 93.2696C59.3513 94.3303 59.1352 96.241 59.1352 96.241L67.1602 112.062L54.0159 96.5177L53.3282 92.1757L56.379 86.7074L62.4578 85.7446Z" fill="#FFF5A0" stroke="black" stroke-width="0.284033" stroke-linejoin="round"/>
<path d="M59.2782 89.275L56.1142 87.2836L53.7668 91.5722L56.7021 93.2438C56.7021 93.2438 58.7556 93.1972 59.3985 92.2826C60.0744 91.3209 59.2782 89.275 59.2782 89.275Z" fill="#3A3E41"/>
<path d="M24.4448 63.8135C23.8412 63.375 23.1363 61.1721 22.7236 58.5669C22.9248 58.7131 27.2582 59.095 28.0544 60.7492C28.6913 62.0727 28.8149 64.4269 28.7971 65.4386C27.5475 65.0431 24.9277 64.1643 24.4448 63.8135Z" fill="#F15850"/>
<path d="M64.2744 57.5051C64.7129 56.9015 64.7027 54.5886 64.29 51.9834C64.1439 52.1846 60.1406 53.8869 59.8946 55.7062C59.6978 57.1617 60.3078 59.4389 60.6373 60.3956C61.7035 59.6333 63.9236 57.9879 64.2744 57.5051Z" fill="#F15850"/>
<path d="M44.7793 84.4502C42.8758 80.3007 39.1099 81.2532 37.373 81.5283C37.2544 81.9033 37.3471 84.7369 37.7495 85.0293C38.1519 85.3216 41.2884 87.1394 41.8369 87.2305C42.3855 87.3217 46.6828 88.5996 44.7793 84.4502Z" fill="#52ADFF"/>
<path fill-rule="evenodd" clip-rule="evenodd" d="M44.1732 83.3764C44.0011 84.4213 43.4875 85.1882 42.7776 85.3006C41.7225 85.4678 40.6331 84.1258 40.3445 82.3033C40.2868 81.9395 40.2655 81.5841 40.2766 81.2468C40.4858 81.258 40.6976 81.2789 40.9101 81.3123C40.922 81.4307 40.9376 81.5508 40.9568 81.6722C41.1999 83.207 41.9413 84.3649 42.6127 84.2586C43.0907 84.1829 43.4044 83.4868 43.4578 82.5382C43.7087 82.7754 43.9485 83.0528 44.1732 83.3764Z" fill="white"/>
<path d="M51.4346 83.3962C51.9626 78.8616 55.8386 78.6037 57.5755 78.3287C57.8042 78.6487 58.5916 81.3722 58.2993 81.7746C58.0069 82.177 55.5856 84.875 55.0921 85.1312C54.5986 85.3874 50.9065 87.9308 51.4346 83.3962Z" fill="#52ADFF"/>
<path fill-rule="evenodd" clip-rule="evenodd" d="M52.1009 81.1691C52.4448 82.0547 52.9582 82.6198 53.4363 82.5441C54.1077 82.4377 54.455 81.1074 54.2119 79.5726C54.1927 79.4513 54.1703 79.3323 54.1452 79.2162C54.3369 79.1188 54.5317 79.0334 54.7272 78.9582C54.842 79.2755 54.9315 79.6201 54.9891 79.9838C55.2777 81.8063 54.6564 83.4192 53.6013 83.5863C52.8914 83.6988 52.166 83.1281 51.6794 82.1876C51.7932 81.8103 51.9355 81.4723 52.1009 81.1691Z" fill="white"/>
<path d="M46.0858 96.7058C45.7198 96.1941 45.4381 93.3663 45.343 92.0164L48.3129 89.4096L53.3875 91.0984C53.5949 91.659 53.9425 93.2538 53.6728 95.1481C53.4031 97.0424 51.7146 97.7727 50.9041 97.9011C50.9924 97.7091 51.1525 97.2208 51.0864 96.804C50.6479 97.4076 49.6609 97.92 49.4872 97.9475C49.3135 97.975 48.1614 97.4453 47.5028 96.6594C47.5688 97.0763 47.8111 97.8569 47.924 98.195C47.4637 97.9119 46.4517 97.2176 46.0858 96.7058Z" fill="#EEF0E3" stroke="black" stroke-width="0.284033"/>
<path fill-rule="evenodd" clip-rule="evenodd" d="M48.2144 84.6179C49.0481 84.4859 50.4924 81.7646 51.1104 80.4205C50.916 81.8162 50.7925 84.7081 51.8531 85.1099C53.1789 85.612 54.9346 86.5802 55.1547 87.9697C55.3747 89.3591 55.2663 92.0469 52.9259 91.8834C51.3095 91.5697 49.7166 90.7301 49.1222 90.3494L48.2144 84.6179ZM48.2144 84.618C47.3807 84.75 45.1661 82.6082 44.1631 81.5208C44.7792 82.7882 45.7904 85.5004 44.9058 86.2102C43.8001 87.0975 42.4295 88.5608 42.6495 89.9503C42.8696 91.3397 43.8033 93.8624 45.9786 92.9838C47.419 92.1859 48.6745 90.8951 49.1221 90.3494L48.2144 84.618Z" fill="#EEF0E3"/>
<path d="M51.1104 80.4205L51.251 80.44C51.2607 80.3703 51.2179 80.3039 51.1503 80.2842C51.0827 80.2644 51.0108 80.2971 50.9813 80.3611L51.1104 80.4205ZM48.2144 84.6179L48.1922 84.4777C48.155 84.4836 48.1217 84.504 48.0995 84.5345C48.0774 84.5649 48.0683 84.603 48.0742 84.6402L48.2144 84.6179ZM51.8531 85.1099L51.8028 85.2427L51.8531 85.1099ZM52.9259 91.8834L52.8989 92.0228C52.9045 92.0239 52.9103 92.0247 52.916 92.0251L52.9259 91.8834ZM49.1222 90.3494L48.9819 90.3716C48.9883 90.4117 49.0115 90.4471 49.0456 90.469L49.1222 90.3494ZM44.1631 81.5208L44.2674 81.4245C44.2197 81.3727 44.1412 81.3638 44.083 81.4035C44.0248 81.4432 44.0045 81.5196 44.0353 81.5829L44.1631 81.5208ZM48.2144 84.618L48.3546 84.5957C48.3424 84.5183 48.2696 84.4654 48.1922 84.4777L48.2144 84.618ZM44.9058 86.2102L44.8169 86.0994L44.9058 86.2102ZM45.9786 92.9838L46.0318 93.1155C46.0372 93.1133 46.0424 93.1108 46.0474 93.108L45.9786 92.9838ZM49.1221 90.3494L49.2319 90.4395C49.2577 90.4082 49.2688 90.3673 49.2624 90.3272L49.1221 90.3494ZM50.9813 80.3611C50.674 81.0296 50.1613 82.0401 49.623 82.8983C49.3536 83.3277 49.0804 83.7148 48.8256 84.001C48.6983 84.1441 48.5782 84.2589 48.4681 84.3409C48.3565 84.4239 48.2644 84.4662 48.1922 84.4777L48.2366 84.7582C48.3729 84.7366 48.5082 84.6651 48.6377 84.5687C48.7685 84.4713 48.9029 84.3414 49.0378 84.1898C49.3076 83.8866 49.5905 83.4846 49.8636 83.0492C50.4103 82.1776 50.9288 81.1555 51.2394 80.4798L50.9813 80.3611ZM51.9034 84.977C51.6941 84.8978 51.5236 84.6874 51.3948 84.3529C51.2672 84.0215 51.1908 83.594 51.1527 83.1263C51.0764 82.1923 51.1548 81.1314 51.251 80.44L50.9697 80.4009C50.8716 81.1052 50.7911 82.1882 50.8696 83.1495C50.9088 83.6295 50.9882 84.0875 51.1297 84.455C51.27 84.8193 51.4818 85.1211 51.8028 85.2427L51.9034 84.977ZM55.2949 87.9475C55.1765 87.1997 54.6486 86.5815 54.0042 86.0938C53.3574 85.6042 52.5734 85.2308 51.9034 84.977L51.8028 85.2427C52.4586 85.491 53.2154 85.8529 53.8328 86.3203C54.4528 86.7896 54.9128 87.3502 55.0144 87.9919L55.2949 87.9475ZM52.916 92.0251C53.53 92.068 54.0105 91.924 54.3774 91.6501C54.7422 91.3777 54.982 90.9866 55.1343 90.5563C55.4376 89.6996 55.4068 88.6535 55.2949 87.9475L55.0144 87.9919C55.1226 88.6753 55.1476 89.6678 54.8666 90.4615C54.7268 90.8563 54.5144 91.1933 54.2075 91.4224C53.9028 91.6499 53.4921 91.7806 52.9358 91.7418L52.916 92.0251ZM49.0456 90.469C49.6492 90.8555 51.259 91.7046 52.8989 92.0228L52.953 91.744C51.36 91.4349 49.784 90.6046 49.1988 90.2298L49.0456 90.469ZM48.0742 84.6402L48.9819 90.3716L49.2625 90.3272L48.3547 84.5957L48.0742 84.6402ZM44.0587 81.6171C44.5629 82.1638 45.3718 82.9757 46.1611 83.6356C46.5554 83.9653 46.9487 84.2603 47.299 84.4652C47.4741 84.5677 47.6421 84.6497 47.7966 84.7019C47.9495 84.7536 48.1004 84.7798 48.2366 84.7582L48.1922 84.4777C48.12 84.4891 48.0192 84.4773 47.8875 84.4328C47.7575 84.3889 47.6078 84.3168 47.4424 84.2201C47.1117 84.0266 46.7323 83.7429 46.3433 83.4177C45.5662 82.7679 44.7663 81.9653 44.2674 81.4245L44.0587 81.6171ZM44.9947 86.321C45.2624 86.1062 45.3706 85.7537 45.3914 85.3638C45.4124 84.9706 45.3464 84.5105 45.2354 84.0418C45.013 83.1033 44.6017 82.0983 44.2908 81.4587L44.0353 81.5829C44.3406 82.2107 44.7429 83.1954 44.959 84.1073C45.0672 84.5639 45.1267 84.9941 45.1078 85.3487C45.0886 85.7066 44.9915 85.9594 44.8169 86.0994L44.9947 86.321ZM42.7898 89.9281C42.6882 89.2863 42.9524 88.6111 43.397 87.9731C43.8398 87.3378 44.4478 86.7598 44.9947 86.321L44.8169 86.0994C44.2581 86.5479 43.6279 87.1452 43.164 87.8107C42.7019 88.4737 42.3908 89.2248 42.5093 89.9725L42.7898 89.9281ZM45.9254 92.8521C45.4084 93.0609 44.9774 93.0636 44.6173 92.9414C44.2546 92.8183 43.9485 92.5635 43.6935 92.2311C43.181 91.5631 42.898 90.6114 42.7898 89.9281L42.5093 89.9725C42.6211 90.6786 42.915 91.683 43.4682 92.404C43.7461 92.7662 44.095 93.0641 44.526 93.2104C44.9597 93.3575 45.4612 93.346 46.0318 93.1155L45.9254 92.8521ZM49.0124 90.2594C48.5716 90.7966 47.3293 92.0733 45.9098 92.8596L46.0474 93.108C47.5087 92.2986 48.7774 90.9936 49.2319 90.4395L49.0124 90.2594ZM48.0741 84.6402L48.9819 90.3717L49.2624 90.3272L48.3546 84.5957L48.0741 84.6402Z" fill="black"/>
<path fill-rule="evenodd" clip-rule="evenodd" d="M48.4761 86.3571C49.1708 86.247 50.1304 85.5609 50.2766 85.3597C50.4057 85.1819 49.5008 87.2534 48.948 87.9145C48.936 88.0405 48.8814 88.1114 48.7645 88.0919C48.7621 88.0915 48.7597 88.0911 48.7572 88.0906C48.7552 88.0917 48.7532 88.0928 48.7512 88.0939C48.6462 88.1484 48.5724 88.098 48.5221 87.9823C47.7921 87.5245 46.2911 85.8338 46.4689 85.963C46.6688 86.1082 47.7804 86.4606 48.4761 86.3572C48.4761 86.3571 48.4761 86.3571 48.4761 86.3571Z" fill="#52ADFF"/>
<path fill-rule="evenodd" clip-rule="evenodd" d="M46.6649 72.5867L46.4161 71.0157L46.0687 71.0708L46.3176 72.6417C45.0738 72.9561 44.292 74.4662 44.5536 76.1177C44.5628 76.176 44.5732 76.2337 44.5848 76.2909L42.6706 76.594L42.7256 76.9414L44.6697 76.6335C45.0762 78.0113 46.163 78.9547 47.3054 78.8785L47.5817 80.6232L47.9291 80.5682L47.6527 78.8235C48.7627 78.543 49.5048 77.3099 49.4656 75.8739L51.4097 75.566L51.3547 75.2186L49.4405 75.5218C49.4338 75.4639 49.4259 75.4058 49.4167 75.3475C49.1551 73.696 47.9449 72.5014 46.6649 72.5867ZM47.3152 77.8166C48.0826 77.695 48.5569 76.6634 48.3746 75.5123C48.1922 74.3613 47.4224 73.5267 46.655 73.6482C45.8876 73.7697 45.4133 74.8014 45.5957 75.9525C45.778 77.1035 46.5478 77.9381 47.3152 77.8166ZM47.6798 75.6226C47.771 76.1981 47.5338 76.714 47.1501 76.7747C46.7664 76.8355 46.3815 76.4182 46.2904 75.8427C46.1992 75.2671 46.4363 74.7513 46.82 74.6906C47.2037 74.6298 47.5887 75.0471 47.6798 75.6226Z" fill="#6BE5FF"/>
<path d="M15.0389 52.5192C16.1023 52.3508 18.4169 52.1672 21.7019 53.6233C21.7571 53.648 21.7909 53.705 21.7856 53.7653C21.7803 53.8257 21.7369 53.8765 21.678 53.8911L17.6841 54.8687L18.3421 61.2269C18.3491 61.2937 18.3083 61.3564 18.2443 61.3768C18.1803 61.3973 18.1108 61.3697 18.0777 61.3113C17.5809 60.4352 16.8282 58.9554 16.1818 57.357C15.5368 55.7618 14.9913 54.0333 14.9199 52.6666L14.9264 52.6142C14.9427 52.5652 14.9852 52.5278 15.0389 52.5192Z" fill="#FFF5A0" stroke="black" stroke-width="0.284033" stroke-linejoin="round"/>
<path d="M16.4971 53.8558C16.6373 56.5398 17.2128 59.499 18.201 61.2416L17.5305 54.7604L21.6438 53.7528C17.8865 53.6357 17.5391 53.6908 16.4971 53.8558Z" fill="#F15850"/>
<path d="M69.5375 43.8871C68.4741 44.0555 66.2161 44.5962 63.5419 46.9961C63.497 47.0367 63.4824 47.1013 63.506 47.157C63.5298 47.2128 63.5868 47.2478 63.6473 47.2434L67.7478 46.939L69.0868 53.1893C69.1009 53.255 69.159 53.302 69.2262 53.3017C69.2934 53.3014 69.3509 53.2537 69.3644 53.1879C69.5661 52.2011 69.8247 50.5612 69.9455 48.8413C70.066 47.1249 70.0506 45.3123 69.6963 43.9905L69.6739 43.9426C69.6432 43.9011 69.5912 43.8787 69.5375 43.8871Z" fill="#FFF5A0" stroke="black" stroke-width="0.284033" stroke-linejoin="round"/>
<path d="M68.5636 45.609C69.2596 48.205 69.6267 51.1972 69.2254 53.1599L67.8603 46.7887L63.6369 47.1015C67.1742 45.8291 67.5216 45.7741 68.5636 45.609Z" fill="#F15850"/>
</g>
<defs>
<filter id="filter0_d_40001101_48478" x="0.838867" y="0.124519" width="98.5325" height="148.311" filterUnits="userSpaceOnUse" color-interpolation-filters="sRGB">
<feFlood flood-opacity="0" result="BackgroundImageFix"/>
<feColorMatrix in="SourceAlpha" type="matrix" values="0 0 0 0 0 0 0 0 0 0 0 0 0 0 0 0 0 0 127 0" result="hardAlpha"/>
<feOffset dx="7.82259" dy="-5.21506"/>
<feGaussianBlur stdDeviation="3.35755"/>
<feComposite in2="hardAlpha" operator="out"/>
<feColorMatrix type="matrix" values="0 0 0 0 0.784314 0 0 0 0 0.843137 0 0 0 0 0.909804 0 0 0 0.25 0"/>
<feBlend mode="normal" in2="BackgroundImageFix" result="effect1_dropShadow_40001101_48478"/>
<feBlend mode="normal" in="SourceGraphic" in2="effect1_dropShadow_40001101_48478" result="shape"/>
</filter>
<linearGradient id="paint0_linear_40001101_48478" x1="40.0456" y1="36.0215" x2="40.0456" y2="135.699" gradientUnits="userSpaceOnUse">
<stop stop-color="#6BBEFF"/>
<stop offset="0.547474" stop-color="#CAFDFF"/>
<stop offset="1" stop-color="#5F849D"/>
</linearGradient>
<radialGradient id="paint1_radial_40001101_48478" cx="0" cy="0" r="1" gradientUnits="userSpaceOnUse" gradientTransform="translate(46.6739 74.8916) rotate(81) scale(13.3643 17.6754)">
<stop stop-color="#9AC4FF"/>
<stop offset="0.759615" stop-color="#1E2E4F"/>
</radialGradient>
<clipPath id="clip0_40001101_48478">
<rect width="65.2154" height="99.677" fill="white" transform="translate(7.43787 36.0215) rotate(-9)"/>
</clipPath>
</defs>
</svg>
