<svg width="99" height="149" viewBox="0 0 99 149" fill="none" xmlns="http://www.w3.org/2000/svg">
<g opacity="0.2" filter="url(#filter0_d_40001101_49759)">
<rect y="22.2109" width="65.4723" height="126.784" rx="3.50353" transform="rotate(-9 0 22.2109)" fill="#A158ED"/>
<rect x="2.53418" y="38.2148" width="65.4723" height="3.94148" transform="rotate(-9 2.53418 38.2148)" fill="white"/>
<rect x="2.74023" y="39.5137" width="65.4723" height="1.31383" transform="rotate(-9 2.74023 39.5137)" fill="#61B9F5"/>
<rect x="3.14941" y="42.1074" width="65.4723" height="100.07" transform="rotate(-9 3.14941 42.1074)" fill="#4D6ECB"/>
<path d="M10.0703 85.7949L77.8366 95.1257L81.6731 119.348L17.0069 129.591L10.0703 85.7949Z" fill="#65612E"/>
<path d="M37.2622 120.177C26.6501 119.552 17.2699 113.145 13.9062 110.02L18.8047 140.947L83.4709 130.705L80.1824 109.942C70.2974 113.614 47.8743 120.801 37.2622 120.177Z" fill="#CDB389"/>
<path d="M35.2188 96.8013C33.5535 95.2247 34.4314 91.8298 34.5176 89.6927C34.7442 87.2503 34.0802 86.9307 33.7302 84.7212C33.3803 82.5116 29.6203 78.4356 26.9008 76.4598C24.1814 74.484 23.3228 72.6381 24.7393 70.8566C26.1559 69.075 33.7401 74.9519 36.2996 76.8115C38.8591 78.6711 40.3126 78.0162 42.9433 76.7502C45.574 75.4841 43.4631 69.3066 43.0913 66.959C42.7194 64.6113 41.977 62.6055 44.281 61.9575C46.5849 61.3094 47.874 66.7677 49.7662 71.5642C51.6584 76.3608 53.7093 78.584 55.0547 79.9281C56.4 81.2722 56.0664 82.7407 55.9652 83.8892C55.8639 85.0377 56.4901 87.2035 56.985 88.5408C57.4799 89.878 58.0692 90.9171 58.9059 92.6249C59.7427 94.3327 60.4113 94.0852 61.4148 95.0588C62.4184 96.0323 62.041 97.2246 61.8742 97.9588C61.7073 98.693 61.1918 99.9072 60.7925 100.961C60.3933 102.016 59.8121 102.815 59.6891 103.826C59.566 104.836 58.3381 106.022 57.2333 106.197C56.1285 106.372 54.9513 106.983 53.5416 107.914C52.1319 108.845 48.7219 106.978 48.242 106.63C47.7621 106.281 41.2321 100.804 39.9523 99.8737C38.6725 98.9439 36.8841 98.3778 35.2188 96.8013Z" fill="#F29600" stroke="black" stroke-width="0.437942"/>
<path d="M44.8491 101.772C43.3919 101.671 42.2131 100.527 39.7025 99.3728L39.7367 99.5891L44.9582 103.861L47.2301 105.607L48.8928 107.007L50.9195 107.905L53.1679 108.103L54.5962 107.323L56.2408 106.508L58.0448 106.001L59.3136 104.913L59.774 103.621L59.3415 103.689L60.1435 102.454L61.832 98.4174L62.0473 96.2771L61.4092 95.048L60.4071 94.3199L59.3707 93.3755L58.3965 91.4237L56.9779 88.7662L56.2307 85.4482L56.008 84.0424L56.0467 81.4868L55.4257 80.3658L53.2845 78.0445L51.2738 75.1483L49.8489 71.0508L47.2335 65.0358L46.0997 62.7766C44.5848 60.9104 42.5331 62.6543 42.7249 63.8654C42.9647 65.3793 43.1414 65.7947 43.0792 66.8022C43.0171 67.8097 44.3168 71.8162 44.5052 73.0057C44.6936 74.1952 44.1989 75.2712 43.8691 75.9885L43.8691 75.9885C43.2746 77.2817 41.5704 77.572 41.0297 77.6576C40.5971 77.7261 39.2085 78.0569 38.5596 78.1597C38.8348 78.2639 39.4352 78.5088 39.6356 78.6544C39.8862 78.8364 42.7266 79.2733 44.3091 79.4661C45.8915 79.6588 50.0746 78.7746 51.1677 79.3774C52.2608 79.9802 54.4877 82.8422 54.7618 84.5724C55.0358 86.3026 56.449 89.626 56.6941 90.4739C56.9393 91.3219 57.6116 92.7673 58.8932 94.5597C60.1747 96.352 60.0323 96.1528 59.3213 97.2631C58.6104 98.3734 57.6885 98.8519 56.7442 99.8883C55.7998 100.925 54.5868 99.5649 53.363 99.537C52.1393 99.5091 52.0258 100.192 51.3373 100.745C50.6488 101.297 50.1884 102.589 49.1638 102.419C48.1392 102.249 46.3062 101.874 44.8491 101.772Z" fill="#D7890A"/>
<path d="M35.2188 96.8013C33.5535 95.2247 34.4314 91.8298 34.5176 89.6927C34.7442 87.2503 34.0802 86.9307 33.7302 84.7212C33.3803 82.5116 29.6203 78.4356 26.9008 76.4598C24.1814 74.484 23.3228 72.6381 24.7393 70.8566C26.1559 69.075 33.7401 74.9519 36.2996 76.8115C38.8591 78.6711 40.3126 78.0162 42.9433 76.7502C45.574 75.4841 43.4631 69.3066 43.0913 66.959C42.7194 64.6113 41.977 62.6055 44.281 61.9575C46.5849 61.3094 47.874 66.7677 49.7662 71.5642C51.6584 76.3608 53.7093 78.584 55.0547 79.9281C56.4 81.2722 56.0664 82.7407 55.9652 83.8892C55.8639 85.0377 56.4901 87.2035 56.985 88.5408C57.4799 89.878 58.0692 90.9171 58.9059 92.6249C59.7427 94.3327 60.4113 94.0852 61.4148 95.0588C62.4184 96.0323 62.041 97.2246 61.8742 97.9588C61.7073 98.693 61.1918 99.9072 60.7925 100.961C60.3933 102.016 59.8121 102.815 59.6891 103.826C59.566 104.836 58.3381 106.022 57.2333 106.197C56.1285 106.372 54.9513 106.983 53.5416 107.914C52.1319 108.845 48.7219 106.978 48.242 106.63C47.7621 106.281 41.2321 100.804 39.9523 99.8737C38.6725 98.9439 36.8841 98.3778 35.2188 96.8013Z" stroke="black" stroke-width="0.437942"/>
<path d="M37.709 77.5801C38.487 78.0231 39.3087 78.7423 39.8611 78.6548C40.4135 78.5673 42.3837 79.3878 43.5035 80.2014" stroke="black" stroke-width="0.437942"/>
<path d="M47.6052 104.325C47.7583 105.291 48.3832 104.768 48.6156 104.448L48.86 103.984C48.5958 103.641 48.3037 103.252 47.9389 102.856C47.7271 102.627 47.4527 102.383 47.1407 102.133C47.2445 102.542 47.4827 103.551 47.6052 104.325Z" fill="white"/>
<path d="M48.9347 87.6931C49.2014 87.8868 49.7376 88.4719 49.7496 89.2628M48.5818 94.4024C48.9952 93.7706 49.7873 92.088 49.6484 90.4113M54.0456 89.5733C53.934 89.1663 53.7629 88.1458 53.9719 87.32M51.0782 101.227C51.405 100.609 52.1024 99.6488 52.7929 99.5394C53.4834 99.4301 53.8977 99.3644 54.3557 99.575C54.8137 99.7856 55.388 99.8362 55.9404 99.7487C56.3823 99.6787 56.8319 99.4188 57.0014 99.2975M52.8379 102.505C52.9081 102.352 53.1313 102.034 53.4628 101.981C53.8771 101.916 54.3351 102.126 54.4951 102.243M59.6403 99.8705L60.8025 98.2708M39.0093 95.6354C39.1624 96.6021 39.2868 98.2811 40.4572 98.5204C41.6276 98.7597 42.18 98.6722 43.2998 99.4858C44.1883 100.131 45.9419 101.175 47.1407 102.133M60.0558 102.494C59.4966 103.432 58.683 104.552 57.8982 104.96C57.1133 105.367 56.0154 104.691 55.1212 104.408C54.227 104.125 53.6022 104.649 52.9117 104.758C52.2212 104.868 51.1602 105.319 50.2878 105.174C49.7258 105.081 49.3386 104.607 48.86 103.984M47.1407 102.133C47.4527 102.383 47.7271 102.627 47.9389 102.856C48.3037 103.252 48.5958 103.641 48.86 103.984M47.1407 102.133C47.2445 102.542 47.4827 103.551 47.6052 104.325C47.7583 105.291 48.3832 104.768 48.6156 104.448L48.86 103.984" stroke="black" stroke-width="0.437942"/>
<path d="M39.4355 88.4883C39.9784 88.6382 41.5308 89.204 43.3979 90.2673C45.7318 91.5963 46.7354 92.5699 47.8483 94.2339" stroke="black" stroke-width="0.437942"/>
<path d="M39.7314 88.584L40.4532 93.1412C41.275 93.8604 45.6872 94.0109 47.4825 93.7266C45.0619 90.5993 41.3066 88.9951 39.7314 88.584Z" fill="white" stroke="black" stroke-width="0.437942"/>
<path d="M44.1066 93.836C42.9549 92.9992 42.5302 90.7354 42.4619 89.7081C45.0269 90.8873 46.8805 92.8776 47.4866 93.7254C46.5974 93.7718 44.6765 93.859 44.1066 93.836Z" fill="#008086" stroke="black" stroke-width="0.437942"/>
<circle cx="44.1914" cy="91.7003" r="0.699093" transform="rotate(-9 44.1914 91.7003)" fill="white"/>
<circle cx="44.7137" cy="92.3243" r="0.838912" transform="rotate(-9 44.7137 92.3243)" fill="black"/>
<path d="M54.8535 89.3038C54.813 89.7632 55.0991 91.1523 55.2472 91.7895C56.1595 90.3993 56.6246 89.1648 56.7431 88.7213L56.0145 85.0146C55.6443 86.2529 54.894 88.8443 54.8535 89.3038Z" fill="white" stroke="black" stroke-width="0.437942"/>
<path d="M56.2477 90.0739C56.2412 88.6027 55.7884 87.1739 55.5628 86.6434L54.8517 89.3041L54.9173 89.7184L55.2673 91.928C55.4537 91.6153 55.9108 90.8068 56.2477 90.0739Z" fill="#008086" stroke="black" stroke-width="0.437942"/>
<path d="M55.6309 89.7462C55.6834 90.0777 55.2216 90.1414 54.9841 90.1318L54.831 89.1651C54.8867 88.9204 55.0531 88.4221 55.2741 88.3871C55.5503 88.3434 55.5653 89.3319 55.6309 89.7462Z" fill="black" stroke="black" stroke-width="0.437942"/>
<rect y="22.3945" width="65.4723" height="126.31" rx="3.50353" transform="rotate(-9 0 22.3945)" fill="#005BA6"/>
</g>
<rect x="3.45996" y="16.2012" width="65.2154" height="126.287" rx="3.48979" transform="rotate(-9 3.45996 16.2012)" fill="#D5743C"/>
<rect x="5.98438" y="32.1426" width="65.2154" height="3.92601" transform="rotate(-9 5.98438 32.1426)" fill="white"/>
<rect x="6.18945" y="33.4355" width="65.2154" height="1.30867" transform="rotate(-9 6.18945 33.4355)" fill="#61B9F5"/>
<g clip-path="url(#clip0_40001101_49759)">
<rect x="6.59863" y="36.0195" width="65.2154" height="99.677" transform="rotate(-9 6.59863 36.0195)" fill="url(#paint0_linear_40001101_49759)"/>
<path d="M-1.28631 43.3988L-2.19048 37.6901L15.2677 23.8266L21.9866 66.248L16.366 68.702L8.57264 69.9364L2.67331 68.3988L4.58595 63.9592L2.31775 49.6383L-1.28631 43.3988Z" fill="#7CA07C"/>
<path d="M14.3708 29.3198L13.1076 21.3444L29.8849 3.18205L39.2715 62.4472L33.7469 65.507L25.9536 66.7414L19.9026 64.2463L21.5614 58.2044L18.3926 38.1973L14.3708 29.3198Z" fill="#7CA07C"/>
<path d="M34.9772 35.3315L33.714 27.3561L50.4913 9.19377L59.878 68.4589L54.3533 71.5188L46.56 72.7531L40.509 70.2581L42.1679 64.2162L38.9991 44.209L34.9772 35.3315Z" fill="#7CA07C"/>
<path d="M48.3093 35.1565L46.3304 22.6617L72.5214 -5.77786L87.2272 87.0709L78.6004 91.8601L66.4289 93.7879L56.9759 89.8748L59.5623 80.4111L54.5978 49.0665L48.3093 35.1565Z" fill="#3D4128"/>
<ellipse cx="24.9295" cy="132.445" rx="2.93297" ry="2.25089" transform="rotate(-40.1748 24.9295 132.445)" fill="#FEFF98"/>
<ellipse cx="21.7121" cy="132.46" rx="2.93297" ry="2.25089" transform="rotate(-113.015 21.7121 132.46)" fill="#FEFF98"/>
<ellipse cx="23.1631" cy="122.928" rx="1.69035" ry="1.29724" transform="rotate(31.4094 23.1631 122.928)" fill="#FEFF98"/>
<ellipse cx="33.7656" cy="127.017" rx="1.69035" ry="1.29724" transform="rotate(31.4094 33.7656 127.017)" fill="#FEFF98"/>
<ellipse cx="69.0879" cy="104.64" rx="1.69035" ry="1.29724" transform="rotate(31.4094 69.0879 104.64)" fill="#FEFF98"/>
<ellipse cx="51.6572" cy="122.859" rx="1.69035" ry="1.29724" transform="rotate(31.4094 51.6572 122.859)" fill="#FEFF98"/>
<ellipse cx="29.8301" cy="113.26" rx="1.69035" ry="1.29724" transform="rotate(73.1334 29.8301 113.26)" fill="#FEFF98"/>
<ellipse cx="19.5393" cy="114.918" rx="1.69035" ry="1.29724" transform="rotate(28.5301 19.5393 114.918)" fill="#FEFF98"/>
<ellipse cx="43.8203" cy="130.269" rx="1.69035" ry="1.29724" transform="rotate(73.1334 43.8203 130.269)" fill="#FEFF98"/>
<ellipse cx="83.2588" cy="108.787" rx="1.69035" ry="1.29724" transform="rotate(73.1334 83.2588 108.787)" fill="#FEFF98"/>
<ellipse cx="34.79" cy="126.518" rx="1.69035" ry="1.29724" transform="rotate(96 34.79 126.518)" fill="#FEFF98"/>
<ellipse cx="70.1113" cy="104.141" rx="1.69035" ry="1.29724" transform="rotate(96 70.1113 104.141)" fill="#FEFF98"/>
<ellipse cx="52.6806" cy="122.36" rx="1.69035" ry="1.29724" transform="rotate(96 52.6806 122.36)" fill="#FEFF98"/>
<ellipse cx="44.9167" cy="130.578" rx="1.69035" ry="1.29724" transform="rotate(137.724 44.9167 130.578)" fill="#FEFF98"/>
<ellipse cx="30.9274" cy="113.568" rx="1.69035" ry="1.29724" transform="rotate(137.724 30.9274 113.568)" fill="#FEFF98"/>
<ellipse cx="20.5365" cy="114.367" rx="1.69035" ry="1.29724" transform="rotate(93.1207 20.5365 114.367)" fill="#FEFF98"/>
<ellipse cx="84.3551" cy="109.095" rx="1.69035" ry="1.29724" transform="rotate(137.724 84.3551 109.095)" fill="#FEFF98"/>
<ellipse cx="24.208" cy="122.452" rx="1.69035" ry="1.29724" transform="rotate(96 24.208 122.452)" fill="#FEFF98"/>
<ellipse cx="75.66" cy="111.42" rx="2.63807" ry="2.02456" transform="rotate(96 75.66 111.42)" fill="#DF8678"/>
<ellipse cx="70.8695" cy="119.136" rx="1.58633" ry="1.21742" transform="rotate(96 70.8695 119.136)" fill="#DF8678"/>
<ellipse cx="73.5465" cy="112.589" rx="2.63807" ry="2.02456" transform="rotate(28.7433 73.5465 112.589)" fill="#DF8678"/>
<ellipse cx="69.5984" cy="119.838" rx="1.58633" ry="1.21742" transform="rotate(28.7433 69.5984 119.838)" fill="#DF8678"/>
<ellipse cx="80.4164" cy="123.284" rx="4.79633" ry="3.68091" transform="rotate(31.4094 80.4164 123.284)" fill="#FEFF98"/>
<ellipse cx="84.4582" cy="121.072" rx="4.79633" ry="3.68091" transform="rotate(88.4137 84.4582 121.072)" fill="#FEFF98"/>
<path d="M22.0687 79.2623C25.2253 80.879 30.2344 81.5294 32.3444 81.6525C32.7602 81.3907 33.4458 80.4393 32.8613 78.7289C22.5317 60.5313 11.7201 54.3455 7.60547 53.5273L9.07411 62.8C9.61917 66.2414 18.1229 77.2415 22.0687 79.2623Z" fill="#C08C5E"/>
<path d="M32.3444 81.6525C30.2344 81.5294 25.2253 80.879 22.0687 79.2623C18.1229 77.2415 9.61917 66.2414 9.07411 62.8C8.63806 60.0469 7.91333 55.4711 7.60547 53.5273C11.7201 54.3455 22.5317 60.5313 32.8613 78.7289" stroke="black" stroke-width="0.218112"/>
<path d="M30.2244 78.167L28.3021 77.7855L29.3744 78.9876L28.0361 79.1995L28.726 80.4621C11.6055 74.4525 9.48966 58.6189 9.20199 56.8026C19.4245 61.455 27.4763 72.984 30.2244 78.167Z" fill="#623918" stroke="black" stroke-width="0.218112"/>
<path d="M30.9923 73.7335L33.3026 75.3274C30.8332 77.6784 30.4621 80.285 30.6438 81.4321C30.8254 82.5792 31.1054 89.2963 32.2789 91.7562C33.4525 94.2162 32.9451 95.9624 33.0965 96.9183C33.2479 97.8743 32.9668 99.1927 38.885 101.293C44.8032 103.393 51.5346 101.347 54.4526 100.591C57.3706 99.8351 64.7391 93.7685 64.3 90.9963C63.8609 88.224 62.5939 79.6054 61.8169 75.3188C61.1954 71.8896 57.0775 69.112 55.0963 68.1519L50.0232 65.8197L50.2201 67.0624L45.8569 65.4996L47.4478 67.5015L39.808 63.8119L41.9034 68.3796L37.4446 66.832L37.7928 69.0307L33.283 65.9233L35.4995 71.2558L30.4321 70.1965L34.4337 73.1884L30.9923 73.7335Z" fill="#C08C5E" stroke="black" stroke-width="0.218112"/>
<path d="M59.9326 60.3306C57.3778 63.0086 55.5843 68.7607 55.0068 71.3019C55.5971 71.8296 56.6051 72.6804 57.7095 73.5173C58.8121 74.3528 60.011 75.1743 60.9865 75.6464C73.3354 67.615 75.0647 64.3034 75.7784 62.6225C76.4921 60.9415 81.2305 47.5501 81.6072 46.2165C81.984 44.883 81.6414 43.9573 79.6897 45.2463C71.5708 49.668 63.1261 56.983 59.9326 60.3306Z" fill="#C08C5E"/>
<path d="M55.0068 71.3019C55.5843 68.7607 57.3778 63.0086 59.9326 60.3306C63.1261 56.983 71.5708 49.668 79.6897 45.2463C81.6414 43.9573 81.984 44.883 81.6072 46.2165C81.2305 47.5501 76.4921 60.9415 75.7784 62.6225C75.0647 64.3034 73.3354 67.615 60.9865 75.6464" stroke="black" stroke-width="0.218112"/>
<path d="M69.2748 67.9637C67.8907 69.1237 62.2929 72.14 59.667 73.5031L60.5265 71.5052L58.625 72.4923L59.0462 69.5838C58.5752 70.1157 57.4853 71.3597 56.8939 72.0805C56.7342 64.2664 63.8111 58.8339 66.5219 56.1507C68.6905 54.0042 75.6379 49.7746 78.8405 47.9282C78.3432 49.7381 77.1154 53.8653 76.1825 55.8945C75.0164 58.4311 71.005 66.5138 69.2748 67.9637Z" fill="#623918" stroke="black" stroke-width="0.218112"/>
<path d="M39.9831 95.2393C42.6295 94.6242 39.3095 86.0368 38.2117 84.0548C35.5891 81.7264 34.6141 84.2327 34.192 85.2794C33.7698 86.3262 34.6622 90.1046 35.2064 91.6842C35.7506 93.2639 37.3368 95.8545 39.9831 95.2393Z" fill="#08090B" stroke="black" stroke-width="0.218112"/>
<path d="M38.226 92.1868C37.2852 92.4338 36.8972 91.2213 36.6653 90.3761L36.4789 89.8177L36.318 90.0392C35.988 90.8427 35.5736 92.7637 36.5564 94.0191C37.7849 95.5884 40.6328 95.6273 40.9139 94.3089C41.1951 92.9904 40.6102 90.5353 40.172 89.6247C39.8215 88.8963 39.2644 89.0499 39.0297 89.2177C39.6439 90.0024 39.1668 91.9398 38.226 92.1868Z" fill="#62401D" stroke="black" stroke-width="0.218112"/>
<ellipse cx="36.1753" cy="86.0436" rx="0.967857" ry="2.0325" transform="rotate(-9 36.1753 86.0436)" fill="#EFFCFF"/>
<path d="M48.3253 92.8397L46.0311 93.2031C45.5962 93.272 46.137 93.8723 47.0078 94.4203C47.8785 94.9683 48.2003 94.5254 48.5373 94.1781C48.8742 93.8307 48.9945 92.7338 48.3253 92.8397Z" fill="#08090B" stroke="black" stroke-width="0.218112"/>
<path d="M53.1984 88.3441C52.4677 86.206 52.4716 83.7556 53.0538 80.6257C53.3875 78.319 55.8753 78.023 57.0886 79.4967C58.3019 80.9703 59.395 83.541 59.8947 86.6956C60.3943 89.8502 58.03 91.0086 56.6112 91.3313C55.1924 91.654 53.929 90.4822 53.1984 88.3441Z" fill="#08090B" stroke="black" stroke-width="0.218112"/>
<ellipse cx="55.3735" cy="81.0416" rx="0.967857" ry="2.0325" transform="rotate(-9 55.3735 81.0416)" fill="#D9D9D9"/>
<path d="M55.2557 87.7248C55.4876 88.57 56.328 88.9268 57.0928 88.8057C58.6573 88.1659 57.7053 85.8669 57.2472 85.4495C56.8807 85.1156 56.5777 84.935 56.472 84.8864L57.5236 84.7198C58.56 84.4577 59.3408 86.2938 59.6786 87.8082C60.0165 89.3226 59.2318 89.9368 57.441 91.0044C55.6502 92.072 54.4672 90.7894 53.8076 89.718C53.2798 88.8609 54.0831 87.1266 54.5506 86.3666C54.7084 86.5376 55.0702 87.0486 55.2557 87.7248Z" fill="#62401D" stroke="black" stroke-width="0.218112"/>
<path d="M43.6275 97.2102C44.8503 97.5065 45.4541 97.6068 46.7821 96.7105C48.11 95.8143 48.905 95.8843 49.8411 96.226C50.7771 96.5677 51.4614 96.5573 52.9853 95.0421" stroke="black" stroke-width="0.218112"/>
</g>
<defs>
<filter id="filter0_d_40001101_49759" x="0" y="0.132331" width="98.5328" height="148.311" filterUnits="userSpaceOnUse" color-interpolation-filters="sRGB">
<feFlood flood-opacity="0" result="BackgroundImageFix"/>
<feColorMatrix in="SourceAlpha" type="matrix" values="0 0 0 0 0 0 0 0 0 0 0 0 0 0 0 0 0 0 127 0" result="hardAlpha"/>
<feOffset dx="7.82259" dy="-5.21506"/>
<feGaussianBlur stdDeviation="3.35755"/>
<feComposite in2="hardAlpha" operator="out"/>
<feColorMatrix type="matrix" values="0 0 0 0 0.784314 0 0 0 0 0.843137 0 0 0 0 0.909804 0 0 0 0.25 0"/>
<feBlend mode="normal" in2="BackgroundImageFix" result="effect1_dropShadow_40001101_49759"/>
<feBlend mode="normal" in="SourceGraphic" in2="effect1_dropShadow_40001101_49759" result="shape"/>
</filter>
<linearGradient id="paint0_linear_40001101_49759" x1="39.2063" y1="36.0195" x2="39.0973" y2="123.919" gradientUnits="userSpaceOnUse">
<stop stop-color="#BBDABA"/>
<stop offset="1" stop-color="#488539"/>
</linearGradient>
<clipPath id="clip0_40001101_49759">
<rect width="65.2154" height="99.677" fill="white" transform="translate(6.59863 36.0195) rotate(-9)"/>
</clipPath>
</defs>
</svg>
