<svg width="48" height="80" viewBox="0 0 48 80" fill="none"
  xmlns="http://www.w3.org/2000/svg">
  <g clip-path="url(#clip0_440_16263)">
    <g filter="url(#filter0_d_440_16263)">
      <rect x="-7" y="9.63" width="50.2178" height="97.2445" rx="2.68724" transform="rotate(-3 -7 9.63)" fill="#A2F62D"/>
      <rect x="-6.34961" y="22.0414" width="50.2178" height="3.02315" transform="rotate(-3 -6.34961 22.0414)" fill="white"/>
      <rect x="-6.29688" y="23.0478" width="50.2178" height="1.00772" transform="rotate(-3 -6.29688 23.0478)" fill="#61B9F5"/>
      <rect x="-6.19238" y="25.0605" width="50.2178" height="76.7543" transform="rotate(-3 -6.19238 25.0605)" fill="#A2F62D"/>
      <path d="M13.5701 87.3457C5.52525 86.0182 -1.11642 80.379 -3.43164 77.7253L-2.17468 101.71L47.9743 99.0814L47.1305 82.98C39.2957 84.9884 21.615 88.6732 13.5701 87.3457Z" fill="#CDB389"/>
      <g opacity="0.7">
        <path fill-rule="evenodd" clip-rule="evenodd" d="M17.683 57.5246L7.72682 58.0464C8.05801 50.9447 13.7296 45.1145 20.9792 44.7346C28.2287 44.3547 34.4787 49.5601 35.5504 56.5882L25.5942 57.11C24.933 55.5112 23.3183 54.4255 21.4921 54.5212C19.6659 54.6169 18.1734 55.8654 17.683 57.5246Z" fill="white"/>
        <mask id="path-7-inside-1_440_16263" fill="white">
          <path fill-rule="evenodd" clip-rule="evenodd" d="M17.8302 60.3209L7.87402 60.8427C8.94573 67.8708 15.1957 73.0762 22.4452 72.6963C29.6948 72.3164 35.3664 66.4862 35.6976 59.3845L25.7414 59.9063C25.251 61.5655 23.7585 62.814 21.9323 62.9097C20.1061 63.0054 18.4914 61.9197 17.8302 60.3209Z"/>
        </mask>
        <path d="M17.8302 60.3209L18.7543 59.9387L18.4841 59.2852L17.7779 59.3222L17.8302 60.3209ZM7.87402 60.8427L7.82169 59.844L6.719 59.9018L6.88545 60.9934L7.87402 60.8427ZM35.6976 59.3845L36.6965 59.4311L36.7479 58.3281L35.6453 58.3859L35.6976 59.3845ZM25.7414 59.9063L25.6891 58.9076L24.9828 58.9446L24.7824 59.6228L25.7414 59.9063ZM17.7779 59.3222L7.82169 59.844L7.92636 61.8413L17.8826 61.3195L17.7779 59.3222ZM6.88545 60.9934C8.03387 68.5247 14.7296 74.102 22.4976 73.6949L22.3929 71.6977C15.6618 72.0504 9.85759 67.217 8.8626 60.6919L6.88545 60.9934ZM22.4976 73.6949C30.2655 73.2878 36.3416 67.0411 36.6965 59.4311L34.6987 59.3379C34.3912 65.9313 29.124 71.3449 22.3929 71.6977L22.4976 73.6949ZM35.6453 58.3859L25.6891 58.9076L25.7937 60.9049L35.7499 60.3831L35.6453 58.3859ZM24.7824 59.6228C24.4084 60.8883 23.2698 61.8383 21.88 61.9111L21.9847 63.9084C24.2473 63.7898 26.0936 62.2426 26.7004 60.1897L24.7824 59.6228ZM21.88 61.9111C20.4902 61.9839 19.2586 61.1582 18.7543 59.9387L16.9061 60.703C17.7241 62.6812 19.7221 64.0269 21.9847 63.9084L21.88 61.9111Z" fill="white" mask="url(#path-7-inside-1_440_16263)"/>
        <path fill-rule="evenodd" clip-rule="evenodd" d="M35.6572 57.2836L24.7442 57.8555C24.3529 56.4713 23.0453 55.4912 21.5482 55.5697C20.0511 55.6481 18.8531 56.7596 18.6087 58.1771L7.69561 58.749L7.76888 60.1471L18.682 59.5752C19.0732 60.9594 20.3809 61.9395 21.8779 61.861C23.375 61.7826 24.573 60.6711 24.8174 59.2536L35.7305 58.6817L35.6572 57.2836ZM21.8046 60.4629C22.7698 60.4124 23.5112 59.5889 23.4607 58.6238C23.4101 57.6586 22.5866 56.9172 21.6215 56.9677C20.6563 57.0183 19.9149 57.8418 19.9655 58.8069C20.016 59.7721 20.8395 60.5135 21.8046 60.4629Z" fill="white"/>
      </g>
    </g>
  </g>
  <defs>
    <filter id="filter0_d_440_16263" x="-7" y="-2.14872" width="66.3888" height="110.041" filterUnits="userSpaceOnUse" color-interpolation-filters="sRGB">
      <feFlood flood-opacity="0" result="BackgroundImageFix"/>
      <feColorMatrix in="SourceAlpha" type="matrix" values="0 0 0 0 0 0 0 0 0 0 0 0 0 0 0 0 0 0 127 0" result="hardAlpha"/>
      <feOffset dx="6" dy="-4"/>
      <feGaussianBlur stdDeviation="2.57527"/>
      <feComposite in2="hardAlpha" operator="out"/>
      <feColorMatrix type="matrix" values="0 0 0 0 0.784314 0 0 0 0 0.843137 0 0 0 0 0.909804 0 0 0 0.25 0"/>
      <feBlend mode="normal" in2="BackgroundImageFix" result="effect1_dropShadow_440_16263"/>
      <feBlend mode="normal" in="SourceGraphic" in2="effect1_dropShadow_440_16263" result="shape"/>
    </filter>
    <clipPath id="clip0_440_16263">
      <rect width="48" height="80" fill="white"/>
    </clipPath>
  </defs>
</svg>
