<svg width="100" height="149" viewBox="0 0 100 149" fill="none"
  xmlns="http://www.w3.org/2000/svg">
  <g opacity="0.2" filter="url(#filter0_d_40000078_1760)">
    <rect x="0.838867" y="22.2031" width="65.4723" height="126.784" rx="3.50353" transform="rotate(-9 0.838867 22.2031)" fill="#A158ED"/>
    <rect x="3.37305" y="38.2075" width="65.4723" height="3.94148" transform="rotate(-9 3.37305 38.2075)" fill="white"/>
    <rect x="3.5791" y="39.5054" width="65.4723" height="1.31383" transform="rotate(-9 3.5791 39.5054)" fill="#61B9F5"/>
    <rect x="3.98828" y="42.1006" width="65.4723" height="100.07" transform="rotate(-9 3.98828 42.1006)" fill="#4D6ECB"/>
    <path d="M10.9092 85.7881L78.6754 95.1188L82.5119 119.342L17.8457 129.584L10.9092 85.7881Z" fill="#65612E"/>
    <path d="M38.1011 120.168C27.489 119.543 18.1087 113.136 14.7451 110.011L19.6435 140.938L84.3097 130.696L81.0213 109.934C71.1363 113.605 48.7132 120.793 38.1011 120.168Z" fill="#CDB389"/>
    <path d="M36.0577 96.793C34.3924 95.2164 35.2703 91.8215 35.3565 89.6844C35.5831 87.242 34.919 86.9224 34.5691 84.7129C34.2191 82.5033 30.4592 78.4273 27.7397 76.4515C25.0202 74.4757 24.1616 72.6298 25.5782 70.8483C26.9948 69.0667 34.579 74.9436 37.1385 76.8032C39.698 78.6628 41.1514 78.0079 43.7822 76.7419C46.4129 75.4758 44.3019 69.2983 43.9301 66.9507C43.5583 64.603 42.8159 62.5972 45.1198 61.9492C47.4237 61.3011 48.7129 66.7594 50.6051 71.5559C52.4973 76.3525 54.5482 78.5757 55.8935 79.9198C57.2389 81.2639 56.9052 82.7324 56.804 83.8809C56.7028 85.0294 57.329 87.1952 57.8239 88.5325C58.3188 89.8697 58.9081 90.9088 59.7448 92.6166C60.5815 94.3244 61.2502 94.0769 62.2537 95.0505C63.2573 96.024 62.8799 97.2163 62.713 97.9505C62.5462 98.6847 62.0307 99.8989 61.6314 100.953C61.2321 102.007 60.651 102.807 60.5279 103.817C60.4048 104.828 59.177 106.013 58.0722 106.188C56.9674 106.363 55.7902 106.974 54.3804 107.906C52.9707 108.837 49.5608 106.97 49.0809 106.621C48.601 106.273 42.0709 100.795 40.7912 99.8654C39.5114 98.9356 37.723 98.3695 36.0577 96.793Z" fill="#F29600" stroke="black" stroke-width="0.437942"/>
    <path d="M45.6879 101.763C44.2308 101.661 43.052 100.518 40.5413 99.3635L40.5756 99.5798L45.7971 103.852L48.069 105.598L49.7317 106.998L51.7584 107.896L54.0068 108.094L55.4351 107.314L57.0796 106.499L58.8837 105.991L60.1525 104.904L60.6129 103.611L60.1804 103.68L60.9823 102.444L62.6709 98.4081L62.8861 96.2678L62.2481 95.0387L61.246 94.3106L60.2096 93.3662L59.2353 91.4144L57.8168 88.757L57.0696 85.439L56.8469 84.0332L56.8855 81.4775L56.2646 80.3565L54.1233 78.0352L52.1127 75.139L50.6878 71.0416L48.0723 65.0265L46.9386 62.7674C45.4236 60.9011 43.372 62.645 43.5638 63.8561C43.8036 65.3701 43.9802 65.7855 43.9181 66.793C43.856 67.8005 45.1556 71.8069 45.344 72.9964C45.5324 74.1859 45.0378 75.2619 44.708 75.9792L44.708 75.9793C44.1135 77.2725 42.4092 77.5627 41.8685 77.6483C41.436 77.7169 40.0473 78.0476 39.3985 78.1504C39.6737 78.2546 40.2741 78.4995 40.4745 78.6451C40.725 78.8271 43.5655 79.264 45.1479 79.4568C46.7304 79.6496 50.9135 78.7653 52.0066 79.3681C53.0997 79.971 55.3266 82.8329 55.6006 84.5631C55.8747 86.2933 57.2879 89.6167 57.533 90.4647C57.7782 91.3126 58.4505 92.7581 59.732 94.5504C61.0136 96.3427 60.8712 96.1436 60.1602 97.2538C59.4493 98.3641 58.5274 98.8426 57.583 99.879C56.6387 100.915 55.4257 99.5556 54.2019 99.5277C52.9781 99.4999 52.8646 100.183 52.1762 100.735C51.4877 101.288 51.0273 102.58 50.0027 102.41C48.9781 102.24 47.1451 101.865 45.6879 101.763Z" fill="#D7890A"/>
    <path d="M36.0577 96.793C34.3924 95.2164 35.2703 91.8215 35.3565 89.6844C35.5831 87.242 34.919 86.9224 34.5691 84.7129C34.2191 82.5033 30.4592 78.4273 27.7397 76.4515C25.0202 74.4757 24.1616 72.6298 25.5782 70.8483C26.9948 69.0667 34.579 74.9436 37.1385 76.8032C39.698 78.6628 41.1514 78.0079 43.7822 76.7419C46.4129 75.4758 44.3019 69.2983 43.9301 66.9507C43.5583 64.603 42.8159 62.5972 45.1198 61.9492C47.4237 61.3011 48.7129 66.7594 50.6051 71.5559C52.4973 76.3525 54.5482 78.5757 55.8935 79.9198C57.2389 81.2639 56.9052 82.7324 56.804 83.8809C56.7028 85.0294 57.329 87.1952 57.8239 88.5325C58.3188 89.8697 58.9081 90.9088 59.7448 92.6166C60.5815 94.3244 61.2502 94.0769 62.2537 95.0505C63.2573 96.024 62.8799 97.2163 62.713 97.9505C62.5462 98.6847 62.0307 99.8989 61.6314 100.953C61.2321 102.007 60.651 102.807 60.5279 103.817C60.4048 104.828 59.177 106.013 58.0722 106.188C56.9674 106.363 55.7902 106.974 54.3804 107.906C52.9707 108.837 49.5608 106.97 49.0809 106.621C48.601 106.273 42.0709 100.795 40.7912 99.8654C39.5114 98.9356 37.723 98.3695 36.0577 96.793Z" stroke="black" stroke-width="0.437942"/>
    <path d="M38.5479 77.5708C39.3258 78.0138 40.1475 78.733 40.6999 78.6456C41.2523 78.5581 43.2226 79.3785 44.3424 80.1921" stroke="black" stroke-width="0.437942"/>
    <path d="M48.4441 104.316C48.5972 105.282 49.2221 104.759 49.4545 104.439L49.6989 103.975C49.4346 103.632 49.1425 103.242 48.7778 102.847C48.566 102.617 48.2916 102.374 47.9795 102.124C48.0834 102.532 48.3216 103.542 48.4441 104.316Z" fill="white"/>
    <path d="M49.7736 87.6838C50.0402 87.8775 50.5765 88.4626 50.5885 89.2535M49.4206 94.3931C49.834 93.7614 50.6261 92.0787 50.4872 90.402M54.8845 89.564C54.7728 89.157 54.6018 88.1365 54.8107 87.3107M51.9171 101.217C52.2439 100.599 52.9413 99.6395 53.6317 99.5301C54.3222 99.4208 54.7365 99.3552 55.1946 99.5657C55.6526 99.7763 56.2269 99.8269 56.7792 99.7394C57.2212 99.6694 57.6707 99.4095 57.8403 99.2883M53.6768 102.496C53.747 102.343 53.9702 102.025 54.3016 101.972C54.7159 101.907 55.174 102.117 55.3339 102.233M60.4791 99.8612L61.6414 98.2615M39.8482 95.6261C40.0013 96.5928 40.1257 98.2718 41.2961 98.5111C42.4665 98.7504 43.0188 98.663 44.1386 99.4765C45.0272 100.122 46.7808 101.165 47.9795 102.124M60.8947 102.485C60.3354 103.423 59.5219 104.543 58.737 104.95C57.9522 105.358 56.8543 104.682 55.9601 104.399C55.0659 104.116 54.441 104.64 53.7505 104.749C53.0601 104.858 51.999 105.31 51.1267 105.165C50.5647 105.071 50.1775 104.598 49.6989 103.975M47.9795 102.124C48.2916 102.374 48.566 102.617 48.7778 102.847C49.1425 103.242 49.4346 103.632 49.6989 103.975M47.9795 102.124C48.0834 102.532 48.3216 103.542 48.4441 104.316C48.5972 105.282 49.2221 104.759 49.4545 104.439L49.6989 103.975" stroke="black" stroke-width="0.437942"/>
    <path d="M40.2744 88.481C40.8172 88.6309 42.3696 89.1967 44.2368 90.2599C46.5707 91.589 47.5743 92.5625 48.6872 94.2266" stroke="black" stroke-width="0.437942"/>
    <path d="M40.5703 88.5752L41.2921 93.1324C42.1138 93.8516 46.5261 94.0022 48.3213 93.7178C45.9008 90.5905 42.1454 88.9863 40.5703 88.5752Z" fill="white" stroke="black" stroke-width="0.437942"/>
    <path d="M44.9455 93.8282C43.7937 92.9914 43.3691 90.7276 43.3008 89.7003C45.8658 90.8795 47.7193 92.8698 48.3255 93.7175C47.4363 93.764 45.5154 93.8512 44.9455 93.8282Z" fill="#008086" stroke="black" stroke-width="0.437942"/>
    <circle cx="45.0303" cy="91.6915" r="0.699093" transform="rotate(-9 45.0303 91.6915)" fill="white"/>
    <circle cx="45.5526" cy="92.3165" r="0.838912" transform="rotate(-9 45.5526 92.3165)" fill="black"/>
    <path d="M55.6924 89.295C55.6519 89.7544 55.938 91.1435 56.0861 91.7807C56.9984 90.3905 57.4635 89.156 57.582 88.7126L56.8533 85.0058C56.4832 86.2441 55.7329 88.8356 55.6924 89.295Z" fill="white" stroke="black" stroke-width="0.437942"/>
    <path d="M57.0866 90.0647C57.08 88.5935 56.6272 87.1646 56.4017 86.6341L55.6906 89.2948L55.7562 89.7091L56.1062 91.9187C56.2926 91.606 56.7496 90.7975 57.0866 90.0647Z" fill="#008086" stroke="black" stroke-width="0.437942"/>
    <path d="M56.4698 89.7379C56.5223 90.0694 56.0605 90.1331 55.823 90.1235L55.6699 89.1568C55.7255 88.9121 55.892 88.4138 56.1129 88.3788C56.3891 88.3351 56.4041 89.3236 56.4698 89.7379Z" fill="black" stroke="black" stroke-width="0.437942"/>
    <rect x="0.838867" y="22.3877" width="65.4723" height="126.31" rx="3.50353" transform="rotate(-9 0.838867 22.3877)" fill="#005BA6"/>
  </g>
  <rect x="4.29883" y="16.2021" width="65.2154" height="126.287" rx="3.48979" transform="rotate(-9 4.29883 16.2021)" fill="#28BA90"/>
  <rect x="6.82324" y="32.1436" width="65.2154" height="3.92601" transform="rotate(-9 6.82324 32.1436)" fill="white"/>
  <rect x="7.02832" y="33.436" width="65.2154" height="1.30867" transform="rotate(-9 7.02832 33.436)" fill="#61B9F5"/>
  <g clip-path="url(#clip0_40000078_1760)">
    <rect x="7.4375" y="36.0215" width="65.2154" height="99.677" transform="rotate(-9 7.4375 36.0215)" fill="#4D6ECB"/>
    <rect x="5.99609" y="32.4956" width="68.2689" height="22.9017" transform="rotate(-9 5.99609 32.4956)" fill="#39C3FF"/>
    <rect x="13.4336" y="79.4585" width="68.2689" height="15.704" transform="rotate(-9 13.4336 79.4585)" fill="#266DB7"/>
    <path d="M7.50293 54.5605L76.2015 44.2318L79.3282 50.0303L80.5395 57.6779L9.9084 69.7481L7.50293 54.5605Z" fill="#266DB7"/>
    <path d="M71.9207 54.8474L73.0266 55.5556L76.9788 56.8067L77.7552 56.1316L78.0379 54.4306L78.1724 51.0969L75.9552 50.3439L68.2052 50.9089L63.9703 51.3588L58.6071 51.6562L55.6028 52.9049L51.1866 53.6044L50.7845 54.5514L49.9228 54.6879L48.7784 56.5253L50.1787 56.3036L51.5789 56.0818L53.2288 56.0413L55.3265 56.0403L57.0499 55.7673L58.2859 55.9028L59.2553 55.7493L60.6897 55.7429L62.1977 55.5041L63.1671 55.3505L64.6527 55.6673L65.8376 55.4797L67.289 55.581L68.6893 55.3592L69.7664 55.1886L71.0078 54.6608L71.9207 54.8474Z" fill="#95768B"/>
    <path d="M73.5373 45.5371L75.6915 45.1959L77.3507 52.883L76.489 53.0195L74.7144 52.9693L73.3707 52.8509L72.1005 52.5L71.2047 52.4211L69.9516 52.1779L69.1976 52.2973L68.914 51.9006L67.8368 52.0712L66.4366 52.2929L65.7562 52.1799L63.7662 52.1638L61.8273 52.4709L61.5095 51.8587L60.7555 51.9782L59.5707 52.1658L58.4541 52.7843L57.4111 53.1704L56.4417 53.3239L54.6105 53.6139L51.1691 53.4965L53.9184 52.7298L56.2028 51.8159C56.5864 51.6816 57.4182 51.4026 57.6767 51.3616C57.9352 51.3207 58.5515 51.0759 58.8274 50.9586L61.0158 50.8328L64.678 50.2527L65.7552 50.0821L68.3403 49.6727L68.7029 49.1736L68.447 47.5579L68.7979 46.2878L69.4666 45.6298C69.9088 45.6333 70.8364 45.6337 71.0087 45.6064L72.1935 45.4187C72.5696 45.4695 73.3649 45.5644 73.5373 45.5371Z" fill="#FEF8D9"/>
    <path d="M76.2065 54.7208C76.982 54.598 77.5882 55.3117 77.7944 55.6839L81.1415 71.9369L13.9285 82.5824L10.6188 61.686L15.6814 60.8842L18.0959 59.3976L20.4656 59.0223L21.8658 58.8005L23.0453 59.2762L24.083 59.5535L25.6539 60.4089L26.8782 59.7733L28.2784 59.5515L32.7629 59.2829L34.7817 60.1777L36.9989 60.9307L40.1225 60.436L43.1385 59.9583L44.8342 60.9043L47.0567 60.9939L48.2863 59.695L50.9792 59.2685L54.8568 58.6544L56.6826 59.0277L59.4437 59.032L61.4902 58.7079L63.8599 58.3326L65.691 58.0425L68.8595 56.4365L70.2822 55.6591L72.1134 55.3691L73.3547 54.8413C73.9822 54.8523 75.4309 54.8437 76.2065 54.7208Z" fill="#3FA47E"/>
    <path d="M83.3748 81.8519L14.6762 92.1806L19.8675 135.414L91.2706 125.43L83.3748 81.8519Z" fill="#D6E99F"/>
    <path d="M15.5141 54.9482L10.5593 55.7329L9.84277 51.209L19.7524 49.6395L15.5141 54.9482Z" fill="#AFBEB9"/>
    <path d="M11.3667 84.5337L80.6262 73.564L82.2346 69.776L81.0658 67.9737L78.8038 68.3319L77.8344 68.4855L76.961 67.8509L76.2187 68.7414L75.1981 68.5718L74.5518 68.6741L73.4118 67.7505L71.3652 68.0747L70.3905 68.8916L69.0979 69.0963L67.3745 69.3692L65.8719 68.9447L63.3945 69.3371L61.9888 70.2222L60.1182 70.9602L59.472 71.0625L58.9846 71.471L57.7997 71.6586L57.21 71.4208L56.0251 71.6085L54.6643 71.3823L53.5989 72.324L51.6537 71.1967L49.6072 71.5208L49.5389 71.09L47.8155 71.3629L45.9449 72.1009L44.1085 73.0542L42.929 72.5785L41.6759 72.3353L40.1284 73.0221L39.1985 72.7277L38.0136 72.9154L37.0047 73.5168L35.389 73.7727L34.3066 74.6067L33.4448 74.7432L32.4808 74.2334L30.6497 74.5234L29.8903 75.3062L28.7108 74.8305L27.3106 75.0523L26.8743 75.7838L26.2398 76.6572L24.6124 76.1421L23.756 75.6152L22.7866 75.7688L21.5964 76.6198L20.9618 77.4932L19.6693 77.6979L19.119 77.0122L18.365 77.1316L17.611 77.251L16.5339 77.4216L15.4685 78.3633L14.6921 79.0383L13.6149 79.2089L12.7756 78.7898L11.6985 78.9604L10.599 79.6866L11.3667 84.5337Z" fill="#4B6369"/>
    <path d="M74.0062 100.781L74.4735 129.525L90.7894 127.272L84.1868 96.7394L81.9248 97.0976C80.9769 97.2478 77.9437 98.6851 76.5455 99.385L74.0062 100.781Z" fill="#7C8C87"/>
    <path d="M41.0832 95.7737C41.2497 96.6617 42.1045 97.2466 42.9925 97.08C43.8804 96.9135 44.4653 96.0587 44.2988 95.1707L41.0832 95.7737ZM44.2988 95.1707C40.7891 76.455 43.3929 70.5831 29.9242 36.7331L26.8844 37.9427C40.1968 71.4001 37.4878 76.6014 41.0832 95.7737L44.2988 95.1707Z" fill="#947673"/>
    <path d="M9.04857 42.7857C9.15183 42.6991 8.70371 42.5284 8.2428 42.3753C7.78188 42.2221 7.31697 42.093 7.42543 41.9901C8.49439 41.0098 9.66547 40.0836 10.962 39.4572C11.7426 39.0684 13.1267 39.0441 14.2258 39.1897C14.5041 39.2236 14.7596 39.2612 14.9922 39.3023C15.1047 39.3235 15.2173 39.3446 15.3438 39.3558L15.5272 39.3813L15.6573 39.4153C15.9833 39.504 16.1767 39.5436 16.1442 39.4863C15.9859 39.1761 15.7372 38.9348 15.4512 38.7539C15.3743 38.7115 15.3278 38.6643 15.2141 38.6355C15.108 38.6056 15.0107 38.582 14.907 38.5672C14.7428 38.5153 14.5886 38.4773 14.4421 38.4381C13.8531 38.3131 13.4046 38.3373 13.6841 38.2307C13.9266 38.1377 14.1716 38.0599 14.4166 37.9821L14.8546 37.8426L15.0043 37.8032L15.0956 37.7888L15.2669 37.7383C15.7185 37.6355 16.1485 37.544 16.5733 37.469C17.4216 37.3112 18.2291 37.1911 18.987 37.1023C19.2012 37.0761 19.8784 37.2652 20.5515 37.4783C21.2234 37.6838 21.8762 37.9157 22.07 37.9084C22.5588 37.8933 21.1967 36.9238 21.6399 36.916C24.3132 36.8591 26.369 37.2353 27.6305 37.9634C28.2657 38.3306 28.5698 38.7737 28.6773 39.1076C28.7772 39.4426 28.7376 39.6361 28.7452 39.6348C28.7452 39.6348 28.7088 39.6016 28.6283 39.5364C28.5477 39.4712 28.408 39.3764 28.1881 39.3176C27.9671 39.2512 27.6684 39.2362 27.3401 39.2804C27.0118 39.3246 26.6135 39.4189 26.1439 39.5556C25.2047 39.8291 23.9829 40.2877 22.4434 40.9059C20.919 41.5216 19.0452 42.294 16.8915 43.22C16.6806 43.3157 17.2347 42.5808 17.8446 41.8526C18.4468 41.1256 19.0907 40.4154 18.8545 40.4996C18.7364 40.5417 18.3926 40.7833 17.9568 41.133C17.7426 41.3073 17.4941 41.5104 17.2467 41.7211L16.8629 42.0548L16.6716 42.2255L16.576 42.3108C16.576 42.3108 16.5071 42.3685 16.5032 42.3925C16.4848 42.4734 16.3343 42.6064 16.2359 42.7234L15.9177 43.0779C15.7132 43.313 15.5292 43.5293 15.3731 43.7256C15.0534 44.1193 14.8333 44.4037 14.7416 44.465C14.2681 44.7739 13.8211 45.102 13.3828 45.4366C13.2031 45.582 13.5054 44.6842 13.957 43.7939C14.3922 42.8984 14.9727 42.0345 14.7413 42.1492C14.604 42.2177 13.6749 43.2928 12.9907 44.4382C12.2826 45.5796 11.8516 46.7474 11.7647 46.8391L11.4213 47.182C10.8903 47.7183 10.4225 48.2603 9.99395 48.8038C9.8519 48.9901 9.78987 48.2045 9.84472 47.3693C9.89197 46.5353 10.0521 45.6756 9.86081 45.8462C9.69511 45.9816 9.20682 47.1818 8.97195 48.3575C8.70786 49.5455 8.68478 50.6798 8.59877 50.826C8.04428 51.756 7.60389 52.6679 7.24356 53.5437C7.16478 53.7355 6.9384 53.3893 6.72361 53.0178C6.50883 52.6464 6.32086 52.2473 6.22565 52.4339C6.14845 52.5865 6.18044 53.33 6.27848 54.0474C6.37651 54.7649 6.5458 55.4399 6.49902 55.5876C6.29234 56.252 6.12008 56.8874 5.98502 57.4625C5.94307 57.6407 5.65139 57.2268 5.38411 56.7701C5.11684 56.3134 4.87638 55.829 4.81559 55.9868C4.71722 56.2519 4.83017 57.1619 5.03597 58.0183C5.22777 58.8846 5.51123 59.6896 5.47289 59.8906C5.25324 61.0639 5.12662 61.6921 5.11901 61.6933C5.11901 61.6933 4.65516 61.2756 4.00403 60.2169C3.92029 60.082 3.8862 59.1283 3.94701 58.1829C3.999 57.2312 4.1547 56.2942 4.09536 56.1165C4.06087 55.9972 3.80373 56.6383 3.59825 57.3103C3.38396 57.9758 3.23015 58.6786 3.16923 58.54C2.84412 57.7182 2.53815 56.7218 2.3554 55.5187C2.32528 55.3286 2.74836 54.2089 3.30481 53.1928C3.85124 52.1628 4.51945 51.2616 4.54379 51.0706C4.57452 50.8708 3.94255 51.3608 3.34785 51.9384C2.75195 52.5084 2.19973 53.1573 2.20802 52.9143C2.22106 52.5535 2.24811 52.1828 2.29677 51.8008C2.30988 51.5882 3.10365 50.3474 3.97763 49.3668C4.84799 48.3635 5.76451 47.6023 5.60876 47.6036C4.99337 47.6075 4.22967 48.1027 3.66096 48.5982C3.09224 49.0938 2.72372 49.5732 2.77848 49.3774C3.26054 47.6948 4.09809 45.8934 5.38932 44.1996C5.59539 43.9252 6.39561 43.6113 7.20147 43.3823C7.99853 43.1469 8.79362 42.9976 9.04736 42.7781L9.04857 42.7857Z" fill="#45AA3D"/>
    <path d="M20.668 49.1407C20.6852 49.0522 20.2428 49.1145 19.8016 49.1844C19.3604 49.2543 18.914 49.3406 18.9376 49.2433C19.1249 48.3091 19.3326 47.356 19.7727 46.491C20.0327 45.9664 20.9108 45.4062 21.691 45.0643C22.4688 44.7072 23.1514 44.5367 23.0264 44.4863C22.3777 44.2304 21.7323 44.3404 21.2752 44.5064C20.8168 44.6647 20.5594 44.8615 20.6558 44.6824C21.3635 43.4397 22.1922 42.4195 23.0559 41.6199C23.1784 41.507 23.7392 41.3558 24.3009 41.259C24.8614 41.1546 25.4087 41.1147 25.5308 41.0486C25.6809 40.9625 25.4022 40.8273 25.1182 40.7085C24.8343 40.5897 24.5376 40.4886 24.6789 40.396C25.5619 39.8663 26.4177 39.5592 27.1608 39.4259C27.9038 39.2926 28.5152 39.3127 28.9881 39.3938C29.9199 39.5659 30.272 39.8688 30.2772 39.8524L29.8526 40.2238C29.5784 40.4621 29.1918 40.8275 28.7801 41.3293C27.9437 42.3507 27.0676 43.9086 26.2493 46.4711C26.2077 46.6024 25.9303 45.9836 25.7218 45.307C25.5005 44.6481 25.3632 43.9291 25.2912 44.0652C25.2128 44.2102 25.2377 45.2044 25.4075 46.1288C25.5633 47.0632 25.8412 47.9315 25.816 48.068C25.7321 48.4244 25.6558 48.7796 25.5795 49.1348C25.5479 49.2801 25.1605 48.6553 24.8242 47.96C24.4816 47.2735 24.2154 46.5281 24.1546 46.6859C24.1146 46.778 24.3116 47.7761 24.6208 48.694C24.9235 49.6208 25.3347 50.4446 25.3251 50.5318L25.2744 50.8518C25.197 51.3475 25.1236 51.8192 25.0629 52.2732C25.0414 52.4326 24.5675 52.0008 24.1296 51.5009C23.6854 51.0099 23.2771 50.4507 23.2328 50.6137C23.1924 50.7527 23.5387 51.6101 23.9619 52.3619C24.3799 53.13 24.8863 53.7672 24.8727 53.8785C24.8038 54.5756 24.7544 55.1994 24.7295 55.7804C24.7259 55.9057 24.4012 55.8246 24.0692 55.6978C23.7384 55.5787 23.4104 55.4279 23.4005 55.562C23.3869 55.6733 23.6926 56.0772 24.0319 56.3977C24.366 56.7347 24.7172 56.9831 24.7165 57.0768C24.7271 57.4884 24.7569 57.8736 24.7983 58.2335C24.8164 58.3476 24.4596 58.3105 24.0932 58.2126C23.7268 58.1147 23.3508 57.9559 23.3536 58.0724C23.3533 58.2674 23.7447 58.7201 24.1889 59.063C24.6267 59.4147 25.0909 59.6375 25.1342 59.7632C25.3787 60.5198 25.6056 60.9674 25.598 60.9686C25.5956 60.9533 25.1384 61.1193 24.2154 60.9536C24.0953 60.9336 23.6578 60.3869 23.3601 59.7869C23.0547 59.1881 22.8722 58.5776 22.7653 58.4931C22.6948 58.4419 22.6806 58.9432 22.7549 59.4617C22.814 59.9825 22.9692 60.5194 22.8747 60.4642C22.2872 60.1517 21.6339 59.6704 21.033 58.978C20.9301 58.8696 20.902 57.9539 21.043 57.1206C21.1675 56.2822 21.4065 55.5269 21.3568 55.41C21.2983 55.2867 20.9334 55.789 20.6174 56.3537C20.2937 56.9196 20.0418 57.5443 19.9556 57.3942C19.8334 57.164 19.7176 56.9251 19.6082 56.6773C19.5396 56.54 19.7786 55.4885 20.1249 54.6227C20.4612 53.7429 20.8672 53.008 20.7275 53.0613C20.1991 53.2697 19.777 53.8044 19.4957 54.2934C19.2209 54.7736 19.091 55.1841 19.0553 55.0572C18.762 53.895 18.6257 52.591 18.7091 51.1976C18.7198 50.9698 19.1868 50.5216 19.6699 50.1254C20.1518 49.7215 20.6473 49.3545 20.6996 49.1435L20.668 49.1407Z" fill="#45AA3D"/>
    <path d="M29.7191 49.2822C29.7199 49.1885 28.0521 49.6866 28.0517 49.5853C28.0478 49.118 27.9807 48.6452 28.0758 48.1623C28.1389 47.8716 28.7012 47.3849 29.2163 46.9446C29.725 46.5131 30.1877 46.1358 30.0596 46.1638C28.7148 46.486 28.1179 47.3447 28.131 47.1321C28.1711 46.4006 28.236 45.7275 28.317 45.1065C28.3461 44.9459 29.4755 43.8547 29.487 43.6813C29.5166 43.4739 28.4495 44.2199 28.4814 44.0277C28.8727 41.8214 29.5175 40.5263 29.534 40.5315C29.534 40.5315 30.1402 40.7162 31.0066 41.4601C31.8654 42.2052 33.0007 43.5147 33.8042 45.7813C33.8451 45.8918 33.2664 45.5858 32.6925 45.3102C32.1174 45.027 31.5319 44.7766 31.5716 44.8795C31.6125 44.99 32.2798 45.4613 32.9238 45.9831C33.5755 46.5037 34.1964 47.0759 34.2321 47.2028C34.3055 47.5187 34.3713 47.8358 34.4231 48.1629C34.4436 48.2922 33.8708 47.8761 33.2889 47.5004C32.7058 47.1171 32.1134 46.7742 32.1327 46.896C32.1448 46.972 32.776 47.5114 33.3777 48.1101C33.9793 48.7088 34.559 49.3656 34.5635 49.4428L34.5712 49.7379C34.5826 50.204 34.5588 50.6444 34.5186 51.0796C34.5035 51.2302 34.0256 50.8224 33.5374 50.4475C33.0491 50.0726 32.5429 49.7317 32.5305 49.8506C32.5157 49.9543 32.9897 50.5342 33.4264 51.1747C33.8619 51.8075 34.2602 52.5007 34.2303 52.6069C34.0464 53.2676 33.7972 53.8607 33.5132 54.3813C33.4528 54.4922 33.2053 54.2585 32.9513 54.0336C32.6973 53.8087 32.437 53.5927 32.3742 53.6884C32.3242 53.7665 32.4729 54.164 32.6012 54.5803C32.7283 54.9891 32.8286 55.4254 32.7698 55.4971C32.5025 55.828 32.2192 56.1068 31.9526 56.3439C31.8622 56.4128 31.7115 56.1014 31.5316 55.8024C31.3593 55.5022 31.173 55.212 31.0965 55.2709C30.9792 55.3675 30.9682 55.7903 30.9356 56.2243C30.903 56.6583 30.8311 57.0908 30.7218 57.1393C30.089 57.4267 29.681 57.4601 29.6886 57.4589C29.6886 57.4589 29.5523 57.0906 29.371 56.4877C29.3514 56.4128 29.6371 56.1493 29.908 55.8412C30.1802 55.5408 30.4386 55.2036 30.4002 55.1083C30.3753 55.0498 30.0711 55.2462 29.7609 55.4045C29.4519 55.5704 29.1368 55.6983 29.1196 55.6386C29.0061 55.2667 28.8878 54.8644 28.7711 54.4228C28.7602 54.3543 29.2029 54.0971 29.6436 53.7778C30.0843 53.4584 30.5101 53.0947 30.4804 53.0058C30.4584 52.9157 29.9844 53.1234 29.512 53.2918C29.0397 53.4601 28.5613 53.5905 28.548 53.5068L28.4662 53.1377C28.4553 53.0693 28.9696 52.7227 29.4375 52.3289C29.9066 51.9427 30.3228 51.5181 30.1935 51.5385C29.1333 51.7376 28.3461 52.4783 28.3244 52.3414C28.2365 51.7861 28.1653 51.1892 28.1302 50.5242C28.1285 50.4153 28.5368 50.1868 28.9567 49.9332C29.369 49.6808 29.7776 49.4055 29.7724 49.2738L29.7191 49.2822Z" fill="#45AA3D"/>
    <path d="M40.8335 41.6186C40.7678 41.5978 40.7668 42.0346 40.7582 42.4726C40.7496 42.9107 40.7234 43.3359 40.6665 43.3215C40.0995 43.1384 39.4824 43.0334 38.8817 42.7854C38.5221 42.6319 38.0618 41.9406 37.6298 41.3306C37.2055 40.7194 36.8313 40.1783 36.8366 40.31C36.8925 41.6969 37.8382 42.4984 37.5627 42.4329L34.9483 41.7787C34.8346 41.75 34.5145 41.403 34.1728 41.0672C33.8311 40.7315 33.4742 40.3981 33.3617 40.3769C33.0962 40.3254 33.8098 41.4834 33.566 41.4207C32.1597 41.0586 31.0833 40.7612 30.3393 40.5437C29.5964 40.3339 29.186 40.204 29.186 40.204C29.1872 40.2116 29.498 39.5152 30.7255 38.6501C31.9479 37.8015 34.0694 36.7715 37.3922 36.5806C37.5543 36.5705 36.9744 37.0444 36.4297 37.544C35.885 38.0435 35.382 38.5598 35.5353 38.5433C35.695 38.518 36.5212 37.9739 37.419 37.4886C38.3156 36.9957 39.2864 36.5769 39.4597 36.5884C39.9166 36.6174 40.3695 36.6704 40.8247 36.7387C41.0169 36.7706 40.2592 37.1558 39.5643 37.5933C38.8683 38.0233 38.2263 38.4992 38.3996 38.5107C38.5021 38.5179 39.4136 38.0694 40.418 37.7154C41.4124 37.3474 42.5033 37.0966 42.6182 37.133L43.0287 37.2629C43.6702 37.4732 44.2721 37.7288 44.8496 38.0272C45.0451 38.1288 44.3028 38.3165 43.6283 38.5871C42.9438 38.8437 42.3169 39.1691 42.4847 39.2439C42.6197 39.3083 43.5493 39.1221 44.5675 39.1012C45.5744 39.0586 46.6872 39.2411 46.8166 39.3688C47.6225 40.0754 48.2767 40.9075 48.7155 41.7581C48.8089 41.9539 48.3981 41.8708 47.9969 41.8486C47.5945 41.8187 47.2005 41.8421 47.2778 41.9859C47.3428 42.1003 47.8762 42.3667 48.3833 42.7621C48.8956 43.141 49.3498 43.6461 49.3663 43.7994C49.4559 44.4636 49.4246 45.0534 49.3243 45.5527C49.294 45.7057 48.9851 45.3803 48.6467 45.1142C48.3146 44.8393 47.9542 44.6313 47.9418 44.7502C47.9251 44.94 48.2108 45.464 48.3897 46.0516C48.5825 46.6293 48.6637 47.2402 48.5817 47.3624C48.0719 48.0825 47.6712 48.3098 47.6724 48.3174C47.6724 48.3174 47.4528 47.9155 47.077 47.2654C47.0333 47.1866 47.2156 46.7132 47.2983 46.2011C47.3961 45.6866 47.379 45.1356 47.2809 45.0576C47.2268 45.0116 47.1133 45.4272 46.9369 45.7905C46.7693 46.1601 46.5377 46.4697 46.4964 46.4061C46.2308 46.0583 45.9119 45.7189 45.547 45.4336C45.493 45.3876 45.6981 44.9106 45.7207 44.3144C45.7596 43.7234 45.6003 43.0625 45.5006 43.0237C45.3997 42.9773 45.3724 43.5431 45.2253 44.042C45.0882 44.555 44.8429 44.9759 44.7748 44.9399L44.4521 44.7727C44.394 44.7507 44.4509 44.1257 44.2677 43.4607C44.1096 42.8074 43.7754 42.1741 43.7426 42.3119C43.6255 42.8528 43.6971 43.4029 43.7305 43.8109C43.7627 44.2113 43.7797 44.4659 43.7216 44.4439C43.1942 44.2155 42.5555 43.9736 41.7878 43.7053C41.664 43.6625 41.5477 43.1741 41.3745 42.6713C41.2025 42.1761 40.99 41.6717 40.8271 41.6274L40.8335 41.6186Z" fill="#45AA3D"/>
    <path d="M38.1423 32.8985C38.0254 32.9482 39.2596 34.2421 39.1211 34.303C38.5139 34.5551 37.9403 34.8721 37.3146 35.057C36.9339 35.1641 36.1458 34.9146 35.4358 34.7152C34.7246 34.5081 34.0979 34.3423 34.1833 34.4379C35.1298 35.442 36.3298 35.4859 36.0908 35.6017C35.2406 35.9937 34.5121 36.3664 33.8889 36.7146C33.8024 36.7595 33.3596 36.7205 32.9075 36.7219C32.4555 36.7233 31.9967 36.7804 31.9138 36.8481C31.8182 36.9334 32.1025 37.0054 32.3816 37.0937C32.6607 37.1821 32.941 37.278 32.857 37.3381C32.363 37.6659 31.9692 37.9856 31.6475 38.3172C31.3257 38.6489 31.0913 38.9902 30.9152 39.3065C30.5796 39.9445 30.4633 40.3918 30.4533 40.3778C30.4533 40.3778 30.2919 40.2942 30.0231 40.0249C29.7619 39.7543 29.3833 39.2841 29.1711 38.4365C28.9537 37.6054 28.9712 36.3863 29.4678 35.0912C29.9569 33.7973 30.8743 32.4512 32.1718 31.2398C32.3007 31.118 32.1249 31.8788 32.0275 32.6428C31.9214 33.4004 31.8989 34.1447 32.0038 34.0189C32.1086 33.8932 32.3712 32.8925 32.7779 31.9157C33.1758 30.9326 33.6963 29.9846 33.8428 29.8757C34.2286 29.604 34.618 29.3552 35.0099 29.1216C35.174 29.0254 34.8361 29.7963 34.5626 30.5804C34.2879 31.3569 34.0765 32.1389 34.2254 32.0452C34.3094 31.9851 34.755 31.0568 35.3119 30.142C35.8612 29.2285 36.5014 28.3473 36.5967 28.3089L36.9689 28.1485C37.5546 27.9076 38.1234 27.7083 38.6831 27.5495C38.8773 27.4954 38.5404 28.1257 38.2364 28.7665C37.9325 29.4073 37.6765 30.056 37.8403 30.0067C37.9736 29.9622 38.5594 29.23 39.2045 28.5274C39.8407 27.8184 40.5527 27.1442 40.706 27.1278C41.5984 27.002 42.4368 26.9784 43.2 27.0213C43.3734 27.0328 43.1833 27.3592 43.0097 27.6908C42.8361 28.0224 42.6625 28.354 42.8131 28.3691C42.932 28.3815 43.3739 28.0698 43.8434 27.7849C44.3117 27.4924 44.8 27.2279 44.9214 27.2555C45.4623 27.3725 45.9537 27.5208 46.379 27.6952C46.5127 27.752 46.1865 28.0064 45.8804 28.2888C45.573 28.5636 45.2909 28.85 45.3994 28.8952C45.5748 28.9688 46.1333 28.8024 46.7154 28.6868C47.2887 28.5648 47.9044 28.5141 48.0226 28.6201C48.7271 29.1791 48.9071 29.6262 48.9059 29.6186C48.9059 29.6186 48.478 29.7722 47.8131 30.1036C47.733 30.1397 47.2637 29.9333 46.7331 29.7834C46.2025 29.6335 45.6399 29.5277 45.5419 29.5978C45.4782 29.6391 45.8779 29.8487 46.242 30.0796C46.6136 30.3092 46.9345 30.5625 46.862 30.5974L45.4174 31.372C45.3309 31.4169 44.7598 31.1097 44.1263 30.8513C43.4992 30.5841 42.8248 30.3635 42.7332 30.4248C42.6263 30.4885 43.1009 30.8266 43.5323 31.1871C43.9713 31.5464 44.3735 31.9194 44.273 31.9743L43.7962 32.2136C43.7098 32.2585 42.9893 31.9437 42.2645 31.6998C41.5461 31.4471 40.8309 31.2641 40.9111 31.3761C41.5661 32.2627 42.9268 32.632 42.7527 32.7142C42.0193 33.0564 41.2111 33.4184 40.3345 33.7911C40.1884 33.8533 39.7322 33.5824 39.248 33.3316C38.7714 33.0796 38.2656 32.84 38.1055 32.9122L38.1423 32.8985Z" fill="#45AA3D"/>
    <path d="M15.6649 29.6202C15.7878 29.6085 15.553 29.209 15.3094 28.8032C15.0582 28.3985 14.7929 28.0038 14.931 27.9898C16.2234 27.8786 17.5887 27.8339 18.9033 28.1092C19.701 28.2714 20.7644 29.0776 21.4734 29.862C22.2053 30.6428 22.6249 31.3717 22.6512 31.2428C22.8074 30.5553 22.4572 29.87 22.095 29.4049C21.7328 28.9398 21.388 28.6825 21.6595 28.7721C23.5712 29.4206 25.1713 30.4148 26.3589 31.5133C26.5236 31.6666 26.8386 32.3262 27.0623 33.0004C27.2924 33.6657 27.4213 34.3315 27.5239 34.4868C27.6489 34.6853 27.7564 34.3798 27.8464 34.0614C27.9363 33.7431 28.0162 33.4107 28.14 33.6017C28.8881 34.7308 29.3074 35.8028 29.5509 36.7C29.7955 37.6047 29.868 38.3574 29.8911 38.9464C29.9221 40.1267 29.7506 40.6685 29.767 40.6737C29.767 40.6737 29.5923 40.5064 29.271 40.1518C28.9422 39.7984 28.4666 39.2577 27.8061 38.5826C26.481 37.2564 24.4309 35.3899 20.9993 34.6469C20.8299 34.6113 21.5352 34.2891 22.3295 34.0853C23.1137 33.8675 23.9829 33.7922 23.7887 33.6982C23.5921 33.589 22.3352 33.5308 21.1926 33.7507C20.0388 33.9491 19.0124 34.3611 18.8238 34.352C18.3353 34.3202 17.8517 34.3189 17.3616 34.3263C17.1602 34.3348 17.8546 33.796 18.6496 33.3503C19.4345 32.8907 20.3312 32.546 20.1062 32.5036C19.9684 32.4709 18.7238 32.785 17.6206 33.3028C16.5061 33.799 15.5347 34.4597 15.4194 34.4702L14.9682 34.526C14.2724 34.6128 13.5966 34.7277 12.946 34.8541C12.719 34.8979 13.1736 34.2722 13.6938 33.6674C14.214 33.0626 14.8175 32.4913 14.5781 32.5059C14.3843 32.5132 13.3588 33.1279 12.4667 33.8462C11.5569 34.5517 10.7858 35.3444 10.6208 35.3861C9.60958 35.6477 8.67281 35.9364 7.81332 36.2207C7.62037 36.2824 7.72228 35.892 7.84701 35.498C7.96414 35.1051 8.11048 34.6999 7.92393 34.7528C7.7666 34.7933 7.27636 35.292 6.84299 35.8051C6.40201 36.3194 6.01029 36.8493 5.87819 36.9015C5.26731 37.1308 4.70207 37.3529 4.18887 37.5589C4.02755 37.6234 4.15786 37.1661 4.32499 36.6952C4.48573 36.2331 4.6909 35.7561 4.53477 35.8042C4.28857 35.8744 3.70509 36.4737 3.1961 37.1001C2.68711 37.7266 2.2514 38.3726 2.08367 38.446C1.08612 38.8925 0.530903 39.1286 0.529698 39.1209C0.529698 39.1209 0.554645 38.54 0.944503 37.4567C0.992482 37.3166 1.68049 36.7865 2.40977 36.3202C3.13785 35.8461 3.89318 35.4458 3.9868 35.2984C4.04962 35.2027 3.4355 35.3623 2.82101 35.5688C2.21292 35.7665 1.60445 36.011 1.66485 35.9001C2.0541 35.2068 2.58584 34.4286 3.31415 33.6115C3.42539 33.4769 4.46345 33.1878 5.48795 33.0099C6.51765 32.8156 7.53379 32.7327 7.67267 32.6249C7.81916 32.5159 7.09359 32.3657 6.33842 32.2748C5.58965 32.175 4.81128 32.1346 4.97577 31.9916C5.21671 31.7897 5.47286 31.5853 5.74543 31.3862C5.89071 31.2696 7.17467 31.1053 8.35619 31.0819C9.53651 31.0509 10.6172 31.1292 10.5066 31.022C10.082 30.6058 9.27195 30.4144 8.59767 30.3418C7.92339 30.2693 7.3989 30.3056 7.549 30.2194C8.90837 29.4973 10.48 28.8351 12.2991 28.4066C12.5922 28.3368 13.323 28.6187 14.0142 28.9459C14.7118 29.2643 15.3634 29.6367 15.6637 29.6126L15.6649 29.6202Z" fill="#45AA3D"/>
    <path d="M73.9723 100.566L74.5567 101.467L77.8958 100.938L81.8812 100.307L85.8602 98.2411L85.0423 95.1686L83.0567 92.3915L80.5686 94.1105L78.041 96.2775L76.8561 96.4652L76.2045 97.2309L75.1732 98.3879L73.8358 99.7039L73.9723 100.566Z" fill="#AFBEB9"/>
    <path d="M36.2258 103.452L15.5449 106.728L20.9018 140.55L48.2813 131.466L52.0322 126.565L55.6403 119.369L56.8787 112.548L60.5379 105.675L56.607 101.77L49.6057 102.879L43.8969 103.783L41.6349 104.142L36.2258 103.452Z" fill="#82A096"/>
    <path d="M33.0377 111.907L17.516 55.7353L10.8047 58.6754L20.6825 121.041C28.6332 120.489 32.2321 114.722 33.0377 111.907Z" fill="#7C8C87"/>
    <path d="M27.732 78.4086L33.3548 99.2699C33.6107 100.886 35.1304 101.418 38.3618 100.906C40.9469 100.497 42.5979 98.8364 43.1002 98.0576L39.5995 80.8352C39.1008 81.1718 37.9774 81.8871 37.474 82.0552C36.8448 82.2652 34.072 81.4898 33.5559 81.0195C33.0397 80.5492 31.5712 80.3401 30.3523 80.3123C29.3771 80.2901 28.1991 79.0339 27.732 78.4086Z" fill="#7C8C87"/>
    <path d="M33.2577 73.5584C32.4184 73.1393 31.6645 73.2587 30.6044 73.537C28.5909 74.2093 28.3761 77.1288 28.5204 78.5045L28.8723 79.3321L30.9827 82.1999L39.4248 82.519L40.246 80.7327L39.7513 77.6091C39.666 77.0705 38.5772 76.47 38.237 76.4135C37.8968 76.357 35.9516 75.2297 35.1635 75.1337C34.3753 75.0377 34.097 73.9776 33.2577 73.5584Z" fill="#445053"/>
    <path d="M16.0836 59.9372L11.5597 60.6537L10.792 55.8066L15.6391 55.0389L16.0836 59.9372Z" fill="#636C69"/>
    <path d="M20.5601 54.0388L19.8607 49.6225L15.3899 54.8576L16.1917 59.9202L20.5601 54.0388Z" fill="#AFBEB9"/>
  </g>
  <path d="M26.0424 69.1189C32.4676 67.3271 33.72 67.9029 38.5962 68.5498C42.914 65.1823 48.0546 64.7294 53.1563 65.9856C58.8787 63.015 61.0582 62.9278 65.2253 63.171C66.5421 68.2264 65.5345 72.4544 64.8661 73.9365C64.928 74.0557 65.1923 74.5299 65.7546 75.473C69.5414 83.9046 62.7135 88.8566 60.038 90.6996C57.3625 92.5425 50.7191 95.401 40.7549 94.3988C30.7907 93.3966 28.7461 84.56 28.5268 83.1756C28.3514 82.068 28.7396 80.1744 28.9556 79.3661C26.6815 75.5976 25.408 72.4449 26.0424 69.1189Z" fill="#EFC5CD" stroke="black" stroke-width="0.436223"/>
  <path d="M49.9317 96.9452C46.4076 97.5033 42.8885 94.8352 40.2442 92.8027L48.616 88.6383C49.4177 88.8123 52.6164 89.2949 58.9977 89.8324C57.0785 94.007 53.4558 96.387 49.9317 96.9452Z" fill="#EFC5CD"/>
  <path d="M40.2441 92.8022C42.8884 94.8348 45.1289 97.5764 50.0375 96.799C53.5617 96.2408 57.0784 94.0065 58.9976 89.832" stroke="black" stroke-width="0.436223"/>
  <path d="M36.0745 87.6568C38.7911 88.5167 42.6131 87.3953 43.2025 87.0439C42.4177 80.4593 38.8661 79.2155 38.3029 78.9176C37.7396 78.6198 36.3215 77.8122 35.1563 79.416C33.9911 81.0197 34.6228 85.8224 34.8284 86.306C35.034 86.7895 35.2396 87.273 36.0745 87.6568Z" fill="#FFFEFF" stroke="black" stroke-width="0.509724"/>
  <path d="M43.4856 83.1288C43.2576 81.9607 42.4225 79.3492 40.9062 78.2476" stroke="black" stroke-width="0.436223" stroke-linecap="round" stroke-linejoin="round"/>
  <path d="M38.3523 85.7477C38.5579 86.2312 39.6182 87.2245 40.4731 87.7342L41.8575 87.5149L43.0763 87.0638C42.902 82.7048 40.781 80.7184 38.7399 79.2354C36.6077 81.2503 38.1467 85.2642 38.3523 85.7477Z" fill="#5C8CB5"/>
  <path d="M40.4731 87.7342L40.3426 87.9531C40.3938 87.9836 40.4541 87.9952 40.513 87.9859L40.4731 87.7342ZM38.3523 85.7477L38.5868 85.648L38.5868 85.648L38.3523 85.7477ZM38.7399 79.2354L38.8897 79.0292L38.7186 78.9048L38.5649 79.0501L38.7399 79.2354ZM43.0763 87.0638L43.1647 87.3028L43.3383 87.2386L43.3309 87.0536L43.0763 87.0638ZM41.8575 87.5149L41.8974 87.7666L41.9223 87.7627L41.946 87.7539L41.8575 87.5149ZM40.6036 87.5153C40.1955 87.2719 39.7312 86.9083 39.3434 86.5451C39.1501 86.364 38.979 86.1861 38.8455 86.0267C38.7086 85.8633 38.6232 85.7337 38.5868 85.648L38.1177 85.8475C38.1841 86.0035 38.3084 86.1794 38.4548 86.3541C38.6046 86.5329 38.7907 86.7258 38.995 86.9171C39.4025 87.2988 39.8958 87.6867 40.3426 87.9531L40.6036 87.5153ZM38.5868 85.648C38.4892 85.4186 38.0629 84.3198 37.9228 83.0381C37.7816 81.7474 37.9375 80.3443 38.915 79.4206L38.5649 79.0501C37.4101 80.1414 37.2694 81.7527 37.4161 83.0936C37.5637 84.4435 38.0097 85.5934 38.1177 85.8475L38.5868 85.648ZM38.5901 79.4416C39.6018 80.1766 40.6132 81.0224 41.3952 82.2112C42.175 83.3964 42.7362 84.9372 42.8216 87.074L43.3309 87.0536C43.2421 84.8314 42.6556 83.1995 41.8211 81.931C40.9888 80.666 39.9192 79.7771 38.8897 79.0292L38.5901 79.4416ZM40.513 87.9859L41.8974 87.7666L41.8177 87.2632L40.4332 87.4825L40.513 87.9859ZM41.946 87.7539L43.1647 87.3028L42.9878 86.8248L41.7691 87.2759L41.946 87.7539Z" fill="black"/>
  <path d="M40.2073 84.422C39.0546 84.4756 38.7231 84.012 37.6826 83.1446L37.6552 81.3427L38.7407 79.2355C38.9064 79.4673 41.011 80.852 41.1332 81.3079C41.7637 83.6594 41.134 84.379 40.2073 84.422Z" fill="#181818" stroke="black" stroke-width="0.254862"/>
  <ellipse cx="39.0256" cy="81.1512" rx="0.892016" ry="1.27431" transform="rotate(2.55883 39.0256 81.1512)" fill="#FFFEFF"/>
  <path d="M36.0745 87.6568C38.7911 88.5167 42.6131 87.3953 43.2025 87.0439C42.4177 80.4593 38.8661 79.2155 38.3029 78.9176C37.7396 78.6198 36.3215 77.8122 35.1563 79.416C33.9911 81.0197 34.6228 85.8224 34.8284 86.306C35.034 86.7895 35.2396 87.273 36.0745 87.6568Z" stroke="black" stroke-width="0.436223"/>
  <path d="M61.1212 83.6898C58.8033 85.3472 54.8218 85.4617 54.1526 85.3096C52.8643 78.8047 55.8577 76.5243 56.3013 76.067C56.745 75.6097 57.8441 74.4034 59.4478 75.5686C61.0516 76.7338 61.935 81.4966 61.8889 82.02C61.8427 82.5434 61.7966 83.0668 61.1212 83.6898Z" fill="#FFFEFF" stroke="black" stroke-width="0.509724"/>
  <path d="M52.6734 81.6733C52.5293 80.492 52.5165 77.7502 53.6182 76.2339" stroke="black" stroke-width="0.436223" stroke-linecap="round" stroke-linejoin="round"/>
  <path d="M58.3648 82.5782C58.3187 83.1016 57.6172 84.3739 56.9617 85.1228L55.5772 85.3421L54.2787 85.2897C53.0975 81.0901 54.5008 78.5455 55.9837 76.5044C58.6342 77.7618 58.411 82.0548 58.3648 82.5782Z" fill="#5C8CB5"/>
  <path d="M56.9617 85.1228L57.1534 85.2907C57.1142 85.3355 57.0604 85.3652 57.0015 85.3745L56.9617 85.1228ZM58.3648 82.5782L58.111 82.5558L58.111 82.5558L58.3648 82.5782ZM55.9837 76.5044L55.7775 76.3546L55.9018 76.1835L56.093 76.2741L55.9837 76.5044ZM54.2787 85.2897L54.2684 85.5444L54.0835 85.5369L54.0334 85.3587L54.2787 85.2897ZM55.5772 85.3421L55.6171 85.5938L55.5921 85.5978L55.5669 85.5967L55.5772 85.3421ZM56.7699 84.9549C57.0828 84.5974 57.412 84.1081 57.6686 83.6429C57.7965 83.4109 57.9042 83.1888 57.9819 82.996C58.0617 82.7982 58.1028 82.6486 58.111 82.5558L58.6187 82.6006C58.6038 82.7695 58.5399 82.9752 58.4547 83.1866C58.3674 83.4029 58.2501 83.6439 58.1149 83.889C57.8453 84.378 57.496 84.8993 57.1534 85.2907L56.7699 84.9549ZM58.111 82.5558C58.1328 82.3075 58.1987 81.1308 57.936 79.8685C57.6714 78.5973 57.0895 77.3111 55.8745 76.7346L56.093 76.2741C57.5284 76.9551 58.1602 78.4441 58.435 79.7646C58.7118 81.0941 58.643 82.3255 58.6187 82.6006L58.111 82.5558ZM56.1899 76.6542C55.4549 77.6659 54.7544 78.7829 54.3779 80.1551C54.0026 81.5233 53.945 83.162 54.5241 85.2207L54.0334 85.3587C53.4312 83.2178 53.4847 81.4845 53.8864 80.0202C54.287 78.5599 55.0296 77.384 55.7775 76.3546L56.1899 76.6542ZM57.0015 85.3745L55.6171 85.5938L55.5373 85.0904L56.9218 84.8711L57.0015 85.3745ZM55.5669 85.5967L54.2684 85.5444L54.289 85.035L55.5875 85.0874L55.5669 85.5967Z" fill="black"/>
  <path d="M56.1919 81.8906C57.3047 81.5854 57.4767 81.042 58.1982 79.8956L57.6674 78.1734L55.9839 76.5048C55.8979 76.7764 54.3242 78.7437 54.3489 79.2151C54.4759 81.6463 55.2972 82.1361 56.1919 81.8906Z" fill="#181818" stroke="black" stroke-width="0.254862"/>
  <ellipse cx="0.892016" cy="1.27431" rx="0.892016" ry="1.27431" transform="matrix(-0.936312 0.351169 0.351169 0.936312 56.6914 76.9082)" fill="#FFFEFF"/>
  <path d="M61.1212 83.6898C58.8033 85.3472 54.8218 85.4617 54.1526 85.3096C52.8643 78.8047 55.8577 76.5243 56.3013 76.067C56.745 75.6097 57.8441 74.4034 59.4478 75.5686C61.0516 76.7338 61.935 81.4966 61.8889 82.02C61.8427 82.5434 61.7966 83.0668 61.1212 83.6898Z" stroke="black" stroke-width="0.436223"/>
  <path d="M30.5349 76.95C30.6057 76.8525 30.5841 76.7161 30.4866 76.6453C30.3892 76.5745 30.2528 76.5961 30.1819 76.6936L30.5349 76.95ZM28.9473 80.4911C29.3513 79.0287 30.1285 77.5093 30.5349 76.95L30.1819 76.6936C29.7409 77.3006 28.9428 78.8691 28.5268 80.375L28.9473 80.4911Z" fill="black"/>
  <path d="M36.5627 71.1873C37.3742 69.8787 38.5649 68.6192 39.1358 68.179" stroke="black" stroke-width="0.436223" stroke-linecap="round"/>
  <path d="M62.6227 71.9721C62.5267 71.8993 62.5078 71.7625 62.5805 71.6665C62.6533 71.5705 62.7901 71.5516 62.8861 71.6243L62.6227 71.9721ZM65.1691 74.9006C64.3583 73.6182 63.1738 72.3895 62.6227 71.9721L62.8861 71.6243C63.4843 72.0774 64.7029 73.347 65.5378 74.6675L65.1691 74.9006Z" fill="black"/>
  <path d="M56.2365 67.7389C54.9992 66.8223 53.4277 66.0913 52.7347 65.8929" stroke="black" stroke-width="0.436223" stroke-linecap="round"/>
  <defs>
    <filter id="filter0_d_40000078_1760" x="0.838867" y="0.124519" width="98.5328" height="148.311" filterUnits="userSpaceOnUse" color-interpolation-filters="sRGB">
      <feFlood flood-opacity="0" result="BackgroundImageFix"/>
      <feColorMatrix in="SourceAlpha" type="matrix" values="0 0 0 0 0 0 0 0 0 0 0 0 0 0 0 0 0 0 127 0" result="hardAlpha"/>
      <feOffset dx="7.82259" dy="-5.21506"/>
      <feGaussianBlur stdDeviation="3.35755"/>
      <feComposite in2="hardAlpha" operator="out"/>
      <feColorMatrix type="matrix" values="0 0 0 0 0.784314 0 0 0 0 0.843137 0 0 0 0 0.909804 0 0 0 0.25 0"/>
      <feBlend mode="normal" in2="BackgroundImageFix" result="effect1_dropShadow_40000078_1760"/>
      <feBlend mode="normal" in="SourceGraphic" in2="effect1_dropShadow_40000078_1760" result="shape"/>
    </filter>
    <clipPath id="clip0_40000078_1760">
      <rect width="65.2154" height="99.677" fill="white" transform="translate(7.4375 36.0215) rotate(-9)"/>
    </clipPath>
  </defs>
</svg>
