<svg width="99" height="149" viewBox="0 0 99 149" fill="none" xmlns="http://www.w3.org/2000/svg">
<g opacity="0.2" filter="url(#filter0_d_40001101_49759)">
<rect y="22.2305" width="65.4723" height="126.784" rx="3.50353" transform="rotate(-9 0 22.2305)" fill="#A158ED"/>
<rect x="2.53418" y="38.2344" width="65.4723" height="3.94148" transform="rotate(-9 2.53418 38.2344)" fill="white"/>
<rect x="2.74023" y="39.5332" width="65.4723" height="1.31383" transform="rotate(-9 2.74023 39.5332)" fill="#61B9F5"/>
<rect x="3.14941" y="42.127" width="65.4723" height="100.07" transform="rotate(-9 3.14941 42.127)" fill="#4D6ECB"/>
<path d="M10.0703 85.8145L77.8366 95.1452L81.6731 119.368L17.0069 129.61L10.0703 85.8145Z" fill="#65612E"/>
<path d="M37.2622 120.196C26.6501 119.571 17.2699 113.164 13.9062 110.039L18.8047 140.966L83.4709 130.724L80.1824 109.962C70.2974 113.634 47.8743 120.821 37.2622 120.196Z" fill="#CDB389"/>
<path d="M35.2188 96.8208C33.5535 95.2443 34.4314 91.8493 34.5176 89.7122C34.7442 87.2698 34.0802 86.9503 33.7302 84.7407C33.3803 82.5312 29.6203 78.4552 26.9008 76.4793C24.1814 74.5035 23.3228 72.6576 24.7393 70.8761C26.1559 69.0946 33.7401 74.9714 36.2996 76.831C38.8591 78.6906 40.3126 78.0357 42.9433 76.7697C45.574 75.5037 43.4631 69.3262 43.0913 66.9785C42.7194 64.6309 41.977 62.625 44.281 61.977C46.5849 61.329 47.874 66.7872 49.7662 71.5838C51.6584 76.3803 53.7093 78.6036 55.0547 79.9477C56.4 81.2917 56.0664 82.7602 55.9652 83.9087C55.8639 85.0573 56.4901 87.2231 56.985 88.5603C57.4799 89.8975 58.0692 90.9367 58.9059 92.6444C59.7427 94.3522 60.4113 94.1048 61.4148 95.0783C62.4184 96.0518 62.041 97.2441 61.8742 97.9783C61.7073 98.7126 61.1918 99.9267 60.7925 100.981C60.3933 102.035 59.8121 102.835 59.6891 103.845C59.566 104.856 58.3381 106.041 57.2333 106.216C56.1285 106.391 54.9513 107.002 53.5416 107.933C52.1319 108.864 48.7219 106.998 48.242 106.649C47.7621 106.301 41.2321 100.823 39.9523 99.8932C38.6725 98.9634 36.8841 98.3973 35.2188 96.8208Z" fill="#F29600" stroke="black" stroke-width="0.437942"/>
<path d="M44.8491 101.792C43.3919 101.69 42.2131 100.547 39.7025 99.3923L39.7367 99.6086L44.9582 103.881L47.2301 105.627L48.8928 107.026L50.9195 107.925L53.1679 108.123L54.5962 107.342L56.2408 106.528L58.0448 106.02L59.3136 104.933L59.774 103.64L59.3415 103.709L60.1435 102.473L61.832 98.4369L62.0473 96.2966L61.4092 95.0675L60.4071 94.3394L59.3707 93.3951L58.3965 91.4432L56.9779 88.7858L56.2307 85.4678L56.008 84.062L56.0467 81.5063L55.4257 80.3853L53.2845 78.064L51.2738 75.1678L49.8489 71.0704L47.2335 65.0553L46.0997 62.7962C44.5848 60.93 42.5331 62.6738 42.7249 63.8849C42.9647 65.3989 43.1414 65.8143 43.0792 66.8218C43.0171 67.8293 44.3168 71.8357 44.5052 73.0252C44.6936 74.2147 44.1989 75.2907 43.8691 76.008L43.8691 76.0081C43.2746 77.3013 41.5704 77.5915 41.0297 77.6772C40.5971 77.7457 39.2085 78.0765 38.5596 78.1792C38.8348 78.2834 39.4352 78.5283 39.6356 78.6739C39.8862 78.8559 42.7266 79.2928 44.3091 79.4856C45.8915 79.6784 50.0746 78.7941 51.1677 79.397C52.2608 79.9998 54.4877 82.8617 54.7618 84.5919C55.0358 86.3221 56.449 89.6455 56.6941 90.4935C56.9393 91.3414 57.6116 92.7869 58.8932 94.5792C60.1747 96.3715 60.0323 96.1724 59.3213 97.2826C58.6104 98.3929 57.6885 98.8714 56.7442 99.9078C55.7998 100.944 54.5868 99.5844 53.363 99.5565C52.1393 99.5287 52.0258 100.212 51.3373 100.764C50.6488 101.317 50.1884 102.609 49.1638 102.439C48.1392 102.268 46.3062 101.894 44.8491 101.792Z" fill="#D7890A"/>
<path d="M35.2188 96.8208C33.5535 95.2443 34.4314 91.8493 34.5176 89.7122C34.7442 87.2698 34.0802 86.9503 33.7302 84.7407C33.3803 82.5312 29.6203 78.4552 26.9008 76.4793C24.1814 74.5035 23.3228 72.6576 24.7393 70.8761C26.1559 69.0946 33.7401 74.9714 36.2996 76.831C38.8591 78.6906 40.3126 78.0357 42.9433 76.7697C45.574 75.5037 43.4631 69.3262 43.0913 66.9785C42.7194 64.6309 41.977 62.625 44.281 61.977C46.5849 61.329 47.874 66.7872 49.7662 71.5838C51.6584 76.3803 53.7093 78.6036 55.0547 79.9477C56.4 81.2917 56.0664 82.7602 55.9652 83.9087C55.8639 85.0573 56.4901 87.2231 56.985 88.5603C57.4799 89.8975 58.0692 90.9367 58.9059 92.6444C59.7427 94.3522 60.4113 94.1048 61.4148 95.0783C62.4184 96.0518 62.041 97.2441 61.8742 97.9783C61.7073 98.7126 61.1918 99.9267 60.7925 100.981C60.3933 102.035 59.8121 102.835 59.6891 103.845C59.566 104.856 58.3381 106.041 57.2333 106.216C56.1285 106.391 54.9513 107.002 53.5416 107.933C52.1319 108.864 48.7219 106.998 48.242 106.649C47.7621 106.301 41.2321 100.823 39.9523 99.8932C38.6725 98.9634 36.8841 98.3973 35.2188 96.8208Z" stroke="black" stroke-width="0.437942"/>
<path d="M37.709 77.5996C38.487 78.0426 39.3087 78.7619 39.8611 78.6744C40.4135 78.5869 42.3837 79.4073 43.5035 80.2209" stroke="black" stroke-width="0.437942"/>
<path d="M47.6052 104.344C47.7583 105.311 48.3832 104.787 48.6156 104.467L48.86 104.004C48.5958 103.66 48.3037 103.271 47.9389 102.876C47.7271 102.646 47.4527 102.402 47.1407 102.153C47.2445 102.561 47.4827 103.571 47.6052 104.344Z" fill="white"/>
<path d="M48.9347 87.7126C49.2014 87.9063 49.7376 88.4914 49.7496 89.2823M48.5818 94.4219C48.9952 93.7902 49.7873 92.1075 49.6484 90.4308M54.0456 89.5928C53.934 89.1858 53.7629 88.1653 53.9719 87.3395M51.0782 101.246C51.405 100.628 52.1024 99.6683 52.7929 99.5589C53.4834 99.4496 53.8977 99.384 54.3557 99.5945C54.8137 99.8051 55.388 99.8557 55.9404 99.7682C56.3823 99.6982 56.8319 99.4383 57.0014 99.3171M52.8379 102.525C52.9081 102.372 53.1313 102.053 53.4628 102.001C53.8771 101.935 54.3351 102.146 54.4951 102.262M59.6403 99.89L60.8025 98.2903M39.0093 95.6549C39.1624 96.6216 39.2868 98.3006 40.4572 98.5399C41.6276 98.7792 42.18 98.6918 43.2998 99.5053C44.1883 100.151 45.9419 101.194 47.1407 102.153M60.0558 102.514C59.4966 103.452 58.683 104.572 57.8982 104.979C57.1133 105.386 56.0154 104.711 55.1212 104.428C54.227 104.145 53.6022 104.669 52.9117 104.778C52.2212 104.887 51.1602 105.338 50.2878 105.193C49.7258 105.1 49.3386 104.626 48.86 104.004M47.1407 102.153C47.4527 102.402 47.7271 102.646 47.9389 102.876C48.3037 103.271 48.5958 103.66 48.86 104.004M47.1407 102.153C47.2445 102.561 47.4827 103.571 47.6052 104.344C47.7583 105.311 48.3832 104.787 48.6156 104.467L48.86 104.004" stroke="black" stroke-width="0.437942"/>
<path d="M39.4355 88.5078C39.9784 88.6578 41.5308 89.2235 43.3979 90.2868C45.7318 91.6159 46.7354 92.5894 47.8483 94.2534" stroke="black" stroke-width="0.437942"/>
<path d="M39.7314 88.6035L40.4532 93.1607C41.275 93.8799 45.6872 94.0305 47.4825 93.7461C45.0619 90.6188 41.3066 89.0147 39.7314 88.6035Z" fill="white" stroke="black" stroke-width="0.437942"/>
<path d="M44.1066 93.8555C42.9549 93.0187 42.5302 90.7549 42.4619 89.7276C45.0269 90.9069 46.8805 92.8971 47.4866 93.7449C46.5974 93.7913 44.6765 93.8785 44.1066 93.8555Z" fill="#008086" stroke="black" stroke-width="0.437942"/>
<circle cx="44.1914" cy="91.7198" r="0.699093" transform="rotate(-9 44.1914 91.7198)" fill="white"/>
<circle cx="44.7137" cy="92.3438" r="0.838912" transform="rotate(-9 44.7137 92.3438)" fill="black"/>
<path d="M54.8535 89.3233C54.813 89.7827 55.0991 91.1719 55.2472 91.809C56.1595 90.4188 56.6246 89.1843 56.7431 88.7409L56.0145 85.0341C55.6443 86.2724 54.894 88.8639 54.8535 89.3233Z" fill="white" stroke="black" stroke-width="0.437942"/>
<path d="M56.2477 90.0935C56.2412 88.6223 55.7884 87.1934 55.5628 86.6629L54.8517 89.3236L54.9173 89.7379L55.2673 91.9475C55.4537 91.6348 55.9108 90.8263 56.2477 90.0935Z" fill="#008086" stroke="black" stroke-width="0.437942"/>
<path d="M55.6309 89.7658C55.6834 90.0972 55.2216 90.1609 54.9841 90.1513L54.831 89.1846C54.8867 88.9399 55.0531 88.4416 55.2741 88.4067C55.5503 88.3629 55.5653 89.3515 55.6309 89.7658Z" fill="black" stroke="black" stroke-width="0.437942"/>
<rect y="22.4141" width="65.4723" height="126.31" rx="3.50353" transform="rotate(-9 0 22.4141)" fill="#005BA6"/>
</g>
<rect x="3.45996" y="16.2012" width="65.2154" height="126.287" rx="3.48979" transform="rotate(-9 3.45996 16.2012)" fill="#56DEFF"/>
<rect x="5.98438" y="32.1426" width="65.2154" height="3.92601" transform="rotate(-9 5.98438 32.1426)" fill="white"/>
<rect x="6.18945" y="33.4355" width="65.2154" height="1.30867" transform="rotate(-9 6.18945 33.4355)" fill="#61B9F5"/>
<path d="M42.5447 92.6935C44.8802 92.1027 46.2069 92.1135 49.0416 91.8853L59.575 90.769C61.0201 89.436 62.5139 85.6219 62.4184 85.0188C62.299 84.2648 61.5547 80.9597 57.8583 81.3243C54.1619 81.6889 52.2913 82.4269 47.1211 83.2458C41.9509 84.0647 35.9637 83.909 33.8948 84.7888C31.8258 85.6685 33.6078 89.2507 34.2722 91.3537C34.9365 93.4568 36.3314 93.8984 37.5163 93.7107C38.7011 93.5231 40.2091 93.2842 42.5447 92.6935Z" fill="#560D5F" stroke="black" stroke-width="0.218112"/>
<path d="M45.41 97.5401C38.8918 96.5409 37.2804 86.6453 37.2894 81.8224C40.4813 81.7585 48.6984 81.0753 56.0315 78.8539C59.945 93.8026 53.5451 95.9204 52.8423 96.363C52.28 96.717 51.924 96.8397 51.8163 96.8567C52.0001 97.7845 51.8075 99.7289 49.567 100.084C47.3266 100.439 46.6144 98.6375 46.5384 97.6927C46.3116 97.655 45.7684 97.5717 45.41 97.5401Z" fill="#24D7ED" stroke="black" stroke-width="0.218112"/>
<path d="M45.41 97.5401C38.8918 96.5409 37.2804 86.6453 37.2894 81.8224C40.4813 81.7585 48.6984 81.0753 56.0315 78.8539C59.945 93.8026 53.5451 95.9204 52.8423 96.363C52.28 96.717 51.924 96.8397 51.8163 96.8567C52.0001 97.7845 51.8075 99.7289 49.567 100.084C47.3266 100.439 46.6144 98.6375 46.5384 97.6927C46.3116 97.655 45.7684 97.5717 45.41 97.5401Z" fill="#43C3E7" stroke="black" stroke-width="0.436223"/>
<path d="M55.9106 87.1538C55.8468 83.9619 54.8369 82.4656 54.213 82.0123L49.0277 86.919L50.2477 89.0445C51.9067 88.5977 55.362 87.594 55.9106 87.1538Z" fill="white" stroke="black" stroke-width="0.218112"/>
<path d="M39.879 89.8042C38.7604 86.2272 39.5251 84.7811 40.1032 84.2479L46.0805 87.8282L46.3535 89.5516C44.5682 90.8281 40.7739 92.6657 39.879 89.8042Z" fill="white" stroke="black" stroke-width="0.436223"/>
<path d="M41.4466 84.3673C41.8002 84.3113 42.1956 84.5453 42.5474 85.0373C42.8949 85.5234 43.1778 86.2339 43.3077 87.0536C43.4375 87.8733 43.3879 88.6364 43.2076 89.2061C43.0251 89.7827 42.7214 90.1275 42.3678 90.1835C42.0142 90.2392 41.6196 90.005 41.2679 89.5133C40.9204 89.0272 40.6375 88.3167 40.5076 87.4971C40.3778 86.6774 40.4274 85.9142 40.6077 85.3445C40.7901 84.7681 41.0931 84.4235 41.4466 84.3673Z" fill="#C92F28" stroke="black" stroke-width="0.218112"/>
<path d="M52.4329 82.6271C52.7865 82.5711 53.1819 82.8051 53.5337 83.2971C53.8812 83.7832 54.1642 84.4937 54.294 85.3133C54.4238 86.133 54.3743 86.8962 54.1939 87.4658C54.0114 88.0424 53.7077 88.3872 53.3541 88.4432C53.0006 88.499 52.6059 88.2648 52.2543 87.7731C51.9067 87.287 51.6238 86.5765 51.4939 85.7568C51.3641 84.9371 51.4137 84.174 51.594 83.6043C51.7765 83.0279 52.0794 82.6833 52.4329 82.6271Z" fill="#C92F28" stroke="black" stroke-width="0.218112"/>
<ellipse cx="41.9298" cy="86.719" rx="0.327167" ry="0.981502" transform="rotate(-9 41.9298 86.719)" fill="black"/>
<ellipse cx="52.7003" cy="85.0139" rx="0.327167" ry="0.981502" transform="rotate(-9 52.7003 85.0139)" fill="black"/>
<path d="M35.489 62.7865C40.7663 63.3411 41.4132 61.8482 43.4598 61.524C44.6392 61.9997 48.6929 61.7993 51.5382 60.2445C54.3836 58.6897 56.0057 59.8682 56.67 61.9712C57.3343 64.0743 58.0776 65.2816 60.4537 66.3407C65.6761 67.9426 65.4894 68.8555 66.1089 72.0699C66.7285 75.2842 65.743 77.4278 63.674 78.3075C61.6051 79.1873 61.6168 79.9583 61.1645 82.6799C60.7122 85.4015 59.4933 85.3738 58.5068 85.4196C57.5203 85.4654 56.8506 84.0257 54.033 84.3615C51.7789 84.6302 48.5777 85.704 47.2588 86.2074C44.2955 86.0878 38.2295 86.2242 37.2415 87.794C36.0064 89.7562 34.7534 89.513 33.6869 88.3569C32.6205 87.2009 31.9786 84.5422 30.782 83.9588C26.3029 83.564 25.2642 81.189 24.9572 79.2502C24.6501 77.3113 24.1383 74.0799 27.165 72.2756C30.1916 70.4712 30.6332 69.0763 30.7345 67.6249C30.8359 66.1734 30.2116 62.2318 35.489 62.7865Z" fill="#EAD0FE" stroke="black" stroke-width="0.436223"/>
<path d="M34.5251 75.5249C35.5126 77.5768 40.7916 78.8385 46.1772 77.9855C60.6897 74.8037 56.4977 69.9469 54.3424 68.1903C52.1871 66.4338 50.9789 65.0794 49.1638 63.3794C47.7118 62.0194 44.3393 59.8741 42.8345 58.9715C41.2422 60.7695 37.9388 64.8702 37.4635 66.8887C36.8694 69.412 33.5377 73.4729 34.5251 75.5249Z" fill="#AD6BB1"/>
<path d="M59.12 76.0474C57.2665 76.8931 56.5808 77.4433 55.0289 80.8912C54.5757 81.515 54.3792 83.2023 57.2193 84.9608C60.7695 87.1589 61.657 81.608 61.5205 80.7463C61.384 79.8846 61.2529 78.3595 62.9134 76.9924C66.0478 75.171 67.4129 72.636 66.017 70.0967C64.6211 67.5574 61.8771 67.6608 59.0648 67.3333C56.815 67.0713 55.5218 64.2508 55.1564 62.8733C54.9353 62.8715 54.5432 63.3237 54.7436 65.147C54.9942 67.426 57.8917 68.2921 60.4554 70.536C63.0191 72.7799 60.9736 75.2018 59.12 76.0474Z" fill="#AD6BB1"/>
<path d="M27.2449 73.477C26.219 73.9707 25.4202 75.2014 24.6672 77.4185C24.9124 80.3609 26.1089 80.9443 28.292 81.4819C30.475 82.0194 31.7227 82.926 32.0917 83.8613C32.4607 84.7965 32.9266 87.0415 33.2956 87.9768C33.6646 88.9121 36.0577 90.0788 37.4399 87.6516C38.8143 85.238 36.4938 81.5536 36.0325 80.8213L36.0249 80.8092C35.5823 80.1063 34.454 79.9538 32.0331 80.006C28.6194 78.6696 29.4119 76.0045 32.0696 73.2649C34.7273 70.5252 33.7793 68.0254 33.6087 66.9483C33.4381 65.8711 32.843 66.2966 32.8035 66.7446C32.7641 67.1925 32.651 67.8729 32.1529 69.608C31.6548 71.3431 28.2709 72.9832 27.2449 73.477Z" fill="#AD6BB1"/>
<path d="M38.1398 94.1653L33.5252 95.0066C31.4087 91.4036 27.5964 84.0649 29.2789 83.5334C31.382 82.8691 32.0517 84.3088 33.664 88.9117C34.9539 92.5941 37.1853 93.9484 38.1398 94.1653Z" fill="#B0CCE0" stroke="black" stroke-width="0.436223"/>
<path d="M58.8631 90.8823L63.5118 90.2565C64.4113 86.1759 65.7692 78.0182 64.0049 78.0327C61.7994 78.0508 61.6074 79.627 61.4964 84.5028C61.4075 88.4035 59.7038 90.3811 58.8631 90.8823Z" fill="#B0CCE0" stroke="black" stroke-width="0.436223"/>
<path d="M46.1315 76.9994C45.5514 73.3371 42.4385 72.5052 41.3613 72.6758L43.1955 78.679L45.6866 83.2531L47.3535 83.3203L50.0219 79.254L48.3627 71.5669C47.4199 72.1211 45.6538 73.9834 46.1315 76.9994Z" fill="#CEBEDC" stroke="black" stroke-width="0.436223"/>
<path d="M46.9679 82.2781L46.6097 80.0161M46.6097 80.0161L43.8188 77.0353L42.0275 65.7254L43.8801 62.782M46.6097 80.0161L48.1274 76.3529L46.3019 64.8276L43.8801 62.782M43.8801 62.782L43.5559 60.7355" stroke="black" stroke-width="0.218112"/>
<path d="M41.9905 56.2366C42.6085 55.8515 43.1637 55.797 43.6995 55.9462C44.2266 56.0931 44.729 56.436 45.2482 56.8221C45.7723 57.2119 46.3181 57.6502 46.9487 58.0141C49.5029 59.4883 51.2191 61.0119 51.5519 63.1117C51.8118 64.7527 52.8442 74.0665 53.328 78.5147L53.3333 78.5544L53.3109 78.5876L51.1603 81.8272C51.9991 80.7432 52.9104 79.588 53.7784 78.5244C54.6107 77.5047 55.4051 76.5672 56.0592 75.8574C56.386 75.5029 56.6794 75.2036 56.9256 74.9787C57.1679 74.7574 57.3764 74.5974 57.5316 74.5347C57.8682 74.3987 58.1284 74.3005 58.3294 74.2471C58.5263 74.1949 58.691 74.1785 58.8226 74.2333C58.9623 74.2917 59.036 74.4167 59.0839 74.5657C59.1312 74.7134 59.1624 74.9119 59.2002 75.1504C59.2809 75.6603 59.1719 76.2491 58.9787 76.7981C58.7848 77.3486 58.5017 77.8715 58.2236 78.2544C58.0017 78.5597 57.3427 79.3122 56.6152 80.1228C55.887 80.9341 55.0837 81.8106 54.5648 82.3716L49.4765 88.5879L49.4509 88.6196L46.7839 89.042L46.7498 89.0198C45.1772 88.0361 42.7581 86.5312 40.6131 85.2142C38.4649 83.8952 36.5989 82.7703 36.1257 82.5394C34.9028 81.9432 33.68 80.5685 33.0368 79.3298C32.8762 79.0206 32.8164 78.7766 32.8749 78.5951C32.9389 78.3976 33.1228 78.321 33.3134 78.2983C33.5059 78.2754 33.7439 78.3013 33.9827 78.3416C34.2225 78.382 34.4779 78.4397 34.7026 78.4856C34.8993 78.5259 35.2308 78.6591 35.6278 78.8403C36.0288 79.0234 36.5084 79.2611 37.0066 79.5178C37.5052 79.7746 38.0248 80.051 38.5048 80.3117L39.7705 81.012L39.7771 81.0159L42.9978 83.1536C42.552 82.8066 42.106 82.4559 41.6858 82.1176C41.0133 81.5761 40.4026 81.0658 39.9548 80.6585C39.7312 80.4552 39.5455 80.2754 39.4132 80.1293C39.3473 80.0565 39.2924 79.9896 39.2523 79.9313C39.2146 79.8764 39.1807 79.816 39.1715 79.7582C39.1207 79.4375 38.5278 76.3882 37.9057 73.1582C37.2843 69.9318 36.6338 66.526 36.4713 65.5002C36.3895 64.9836 36.3661 64.5672 36.4294 64.1622C36.4929 63.7563 36.6429 63.3692 36.8992 62.9082C37.4073 61.9943 38.3529 60.7584 39.9167 58.4753C40.7045 57.3252 41.3781 56.6184 41.9905 56.2366ZM43.4481 60.7517L43.7659 62.7579L41.9135 65.7011L43.7164 77.0846L43.74 77.1086L46.5069 80.0637L46.8602 82.2947L47.0763 82.2605L46.7226 80.0276L48.2284 76.3938L48.2406 76.3651L46.4041 64.7694L46.3723 64.7438L43.982 62.7237L43.6642 60.7175L43.4481 60.7517Z" fill="#24D7ED"/>
<path d="M41.9905 56.2366L41.8751 56.0515L41.8751 56.0516L41.9905 56.2366ZM43.6995 55.9462L43.7581 55.7361L43.758 55.7361L43.6995 55.9462ZM45.2482 56.8221L45.3783 56.6471L45.3783 56.6471L45.2482 56.8221ZM46.9487 58.0141L47.0578 57.8252L47.0578 57.8252L46.9487 58.0141ZM51.5519 63.1117L51.7673 63.0776L51.7673 63.0775L51.5519 63.1117ZM53.328 78.5147L53.1111 78.5383L53.1118 78.5435L53.328 78.5147ZM53.3333 78.5544L53.5141 78.6764L53.5605 78.6077L53.5495 78.5255L53.3333 78.5544ZM53.3109 78.5876L53.1301 78.4655L53.1292 78.467L53.3109 78.5876ZM51.1603 81.8272L50.9786 81.7066L51.3328 81.9607L51.1603 81.8272ZM53.7784 78.5244L53.6095 78.3865L53.6095 78.3865L53.7784 78.5244ZM56.0592 75.8574L55.8989 75.7096L55.8989 75.7096L56.0592 75.8574ZM56.9256 74.9787L56.7785 74.8176L56.7785 74.8176L56.9256 74.9787ZM57.5316 74.5347L57.4499 74.3324L57.4498 74.3325L57.5316 74.5347ZM58.3294 74.2471L58.2735 74.0363L58.2735 74.0363L58.3294 74.2471ZM58.8226 74.2333L58.9067 74.0321L58.9064 74.0319L58.8226 74.2333ZM59.0839 74.5657L59.2915 74.4991L59.2915 74.499L59.0839 74.5657ZM59.2002 75.1504L59.4156 75.1163L59.4156 75.1162L59.2002 75.1504ZM58.9787 76.7981L59.1844 76.8705L59.1844 76.8705L58.9787 76.7981ZM58.2236 78.2544L58.4 78.3827L58.4 78.3826L58.2236 78.2544ZM56.6152 80.1228L56.7775 80.2685L56.7775 80.2685L56.6152 80.1228ZM54.5648 82.3716L54.4043 82.2233L54.396 82.2335L54.5648 82.3716ZM49.4765 88.5879L49.3077 88.4497L49.3068 88.4509L49.4765 88.5879ZM49.4509 88.6196L49.485 88.8351L49.5679 88.8219L49.6206 88.7566L49.4509 88.6196ZM46.7839 89.042L46.6649 89.2248L46.7352 89.2706L46.8181 89.2575L46.7839 89.042ZM46.7498 89.0198L46.8689 88.837L46.8654 88.8348L46.7498 89.0198ZM40.6131 85.2142L40.7272 85.0283L40.6131 85.2142ZM36.1257 82.5394L36.2214 82.3434L36.2213 82.3434L36.1257 82.5394ZM33.0368 79.3298L32.8432 79.4303L32.8432 79.4303L33.0368 79.3298ZM32.8749 78.5951L32.6674 78.5279L32.6673 78.5282L32.8749 78.5951ZM33.3134 78.2983L33.2877 78.0817L33.2875 78.0817L33.3134 78.2983ZM33.9827 78.3416L34.0189 78.1265L34.0189 78.1265L33.9827 78.3416ZM34.7026 78.4856L34.7464 78.2719L34.7463 78.2719L34.7026 78.4856ZM35.6278 78.8403L35.7184 78.6419L35.7184 78.6419L35.6278 78.8403ZM37.0066 79.5178L37.1065 79.3239L37.1065 79.3239L37.0066 79.5178ZM38.5048 80.3117L38.6104 80.1209L38.6089 80.1201L38.5048 80.3117ZM39.7705 81.012L39.8823 80.8246L39.8761 80.8211L39.7705 81.012ZM39.7771 81.0159L39.8978 80.834L39.8888 80.8286L39.7771 81.0159ZM42.9978 83.1536L42.8772 83.3353L43.1318 82.9815L42.9978 83.1536ZM41.6858 82.1176L41.549 82.2875L41.549 82.2875L41.6858 82.1176ZM39.9548 80.6585L39.808 80.8199L39.808 80.8199L39.9548 80.6585ZM39.4132 80.1293L39.2515 80.2757L39.2515 80.2757L39.4132 80.1293ZM39.2523 79.9313L39.0726 80.0549L39.0726 80.055L39.2523 79.9313ZM39.1715 79.7582L38.9561 79.7924L38.9561 79.7926L39.1715 79.7582ZM37.9057 73.1582L37.6915 73.1994L37.9057 73.1582ZM36.4713 65.5002L36.2559 65.5343L36.2559 65.5343L36.4713 65.5002ZM36.4294 64.1622L36.2139 64.1285L36.2139 64.1285L36.4294 64.1622ZM36.8992 62.9082L36.7086 62.8022L36.7086 62.8022L36.8992 62.9082ZM39.9167 58.4753L39.7368 58.3521L39.7368 58.3521L39.9167 58.4753ZM43.4481 60.7517L43.414 60.5363L43.1986 60.5704L43.2327 60.7858L43.4481 60.7517ZM43.7659 62.7579L43.9505 62.8741L43.9941 62.8048L43.9813 62.7238L43.7659 62.7579ZM41.9135 65.7011L41.7289 65.585L41.6852 65.6543L41.698 65.7353L41.9135 65.7011ZM43.7164 77.0846L43.501 77.1188L43.512 77.1878L43.561 77.2376L43.7164 77.0846ZM43.74 77.1086L43.8993 76.9595L43.8955 76.9556L43.74 77.1086ZM46.5069 80.0637L46.7223 80.0296L46.7118 79.9635L46.6661 79.9146L46.5069 80.0637ZM46.8602 82.2947L46.6448 82.3288L46.6789 82.5442L46.8943 82.5101L46.8602 82.2947ZM47.0763 82.2605L47.1104 82.4759L47.3258 82.4418L47.2917 82.2263L47.0763 82.2605ZM46.7226 80.0276L46.5211 79.9441L46.4976 80.0009L46.5072 80.0617L46.7226 80.0276ZM48.2284 76.3938L48.0279 76.3078L48.0269 76.3103L48.2284 76.3938ZM48.2406 76.3651L48.4411 76.451L48.4659 76.3932L48.4561 76.331L48.2406 76.3651ZM46.4041 64.7694L46.6195 64.7353L46.6064 64.6524L46.5411 64.5997L46.4041 64.7694ZM46.3723 64.7438L46.2315 64.9104L46.2353 64.9135L46.3723 64.7438ZM43.982 62.7237L43.7665 62.7578L43.7792 62.838L43.8412 62.8903L43.982 62.7237ZM43.6642 60.7175L43.8796 60.6834L43.8455 60.4679L43.6301 60.5021L43.6642 60.7175ZM41.9905 56.2366L42.1058 56.4218C42.6743 56.0676 43.1667 56.0242 43.641 56.1563L43.6995 55.9462L43.758 55.7361C43.1608 55.5698 42.5428 55.6355 41.8751 56.0515L41.9905 56.2366ZM43.6995 55.9462L43.6409 56.1563C44.1242 56.291 44.5971 56.6097 45.118 56.9971L45.2482 56.8221L45.3783 56.6471C44.8608 56.2622 44.3289 55.8952 43.7581 55.7361L43.6995 55.9462ZM45.2482 56.8221L45.118 56.9971C45.6338 57.3807 46.1948 57.8308 46.8397 58.203L46.9487 58.0141L47.0578 57.8252C46.4415 57.4695 45.9108 57.0432 45.3783 56.6471L45.2482 56.8221ZM46.9487 58.0141L46.8397 58.203C49.3888 59.6743 51.0207 61.1532 51.3364 63.1458L51.5519 63.1117L51.7673 63.0775C51.4175 60.8706 49.6171 59.3024 47.0578 57.8252L46.9487 58.0141ZM51.5519 63.1117L51.3364 63.1458C51.5952 64.78 52.6269 74.0857 53.1112 78.5383L53.328 78.5147L53.5449 78.4911C53.0615 74.0473 52.0283 64.7255 51.7673 63.0776L51.5519 63.1117ZM53.328 78.5147L53.1118 78.5435L53.1171 78.5832L53.3333 78.5544L53.5495 78.5255L53.5442 78.4858L53.328 78.5147ZM53.3333 78.5544L53.1525 78.4323L53.1301 78.4656L53.3109 78.5876L53.4917 78.7096L53.5141 78.6764L53.3333 78.5544ZM53.3109 78.5876L53.1292 78.467L50.9786 81.7066L51.1603 81.8272L51.3421 81.9478L53.4926 78.7082L53.3109 78.5876ZM51.1603 81.8272L51.3328 81.9607C52.1708 80.8777 53.0809 79.7241 53.9474 78.6623L53.7784 78.5244L53.6095 78.3865C52.7399 79.452 51.8274 80.6086 50.9878 81.6937L51.1603 81.8272ZM53.7784 78.5244L53.9474 78.6623C54.7787 77.6439 55.5699 76.7103 56.2196 76.0053L56.0592 75.8574L55.8989 75.7096C55.2404 76.4241 54.4428 77.3655 53.6095 78.3865L53.7784 78.5244ZM56.0592 75.8574L56.2196 76.0053C56.5444 75.6529 56.833 75.3587 57.0727 75.1397L56.9256 74.9787L56.7785 74.8176C56.5257 75.0485 56.2276 75.3529 55.8989 75.7096L56.0592 75.8574ZM56.9256 74.9787L57.0727 75.1397C57.3159 74.9176 57.4986 74.7833 57.6133 74.7369L57.5316 74.5347L57.4498 74.3325C57.2542 74.4115 57.0199 74.5971 56.7785 74.8176L56.9256 74.9787ZM57.5316 74.5347L57.6133 74.7369C57.9507 74.6006 58.1992 74.5073 58.3854 74.4579L58.3294 74.2471L58.2735 74.0363C58.0576 74.0936 57.7856 74.1968 57.4499 74.3324L57.5316 74.5347ZM58.3294 74.2471L58.3853 74.458C58.5752 74.4076 58.6782 74.4094 58.7387 74.4346L58.8226 74.2333L58.9064 74.0319C58.7039 73.9476 58.4774 73.9823 58.2735 74.0363L58.3294 74.2471ZM58.8226 74.2333L58.7384 74.4345C58.7906 74.4563 58.8358 74.5064 58.8762 74.6323L59.0839 74.5657L59.2915 74.499C59.2363 74.3269 59.134 74.1271 58.9067 74.0321L58.8226 74.2333ZM59.0839 74.5657L58.8762 74.6322C58.9172 74.7603 58.9459 74.9391 58.9848 75.1845L59.2002 75.1504L59.4156 75.1162C59.3789 74.8846 59.3452 74.6665 59.2915 74.4991L59.0839 74.5657ZM59.2002 75.1504L58.9848 75.1845C59.0575 75.6439 58.9603 76.1932 58.7729 76.7257L58.9787 76.7981L59.1844 76.8705C59.3835 76.3049 59.5043 75.6767 59.4156 75.1163L59.2002 75.1504ZM58.9787 76.7981L58.7729 76.7256C58.5861 77.2564 58.3128 77.7605 58.0471 78.1262L58.2236 78.2544L58.4 78.3826C58.6907 77.9826 58.9836 77.4409 59.1844 76.8705L58.9787 76.7981ZM58.2236 78.2544L58.0471 78.1262C57.8335 78.4201 57.1839 79.1626 56.4528 79.9771L56.6152 80.1228L56.7775 80.2685C57.5014 79.4619 58.1699 78.6993 58.4 78.3827L58.2236 78.2544ZM56.6152 80.1228L56.4528 79.9771C55.7256 80.7873 54.923 81.663 54.4046 82.2235L54.5648 82.3716L54.7249 82.5197C55.2443 81.9581 56.0484 81.0808 56.7775 80.2685L56.6152 80.1228ZM54.5648 82.3716L54.396 82.2335L49.3077 88.4497L49.4765 88.5879L49.6453 88.726L54.7335 82.5098L54.5648 82.3716ZM49.4765 88.5879L49.3068 88.4509L49.2812 88.4826L49.4509 88.6196L49.6206 88.7566L49.6462 88.7249L49.4765 88.5879ZM49.4509 88.6196L49.4168 88.4042L46.7498 88.8266L46.7839 89.042L46.8181 89.2575L49.485 88.8351L49.4509 88.6196ZM46.7839 89.042L46.903 88.8593L46.8688 88.837L46.7498 89.0198L46.6307 89.2025L46.6649 89.2248L46.7839 89.042ZM46.7498 89.0198L46.8654 88.8348C45.2925 87.8509 42.8729 86.3458 40.7272 85.0283L40.6131 85.2142L40.4989 85.4C42.6433 86.7167 45.0619 88.2212 46.6341 89.2047L46.7498 89.0198ZM40.6131 85.2142L40.7272 85.0283C38.5856 83.7133 36.7068 82.5802 36.2214 82.3434L36.1257 82.5394L36.0301 82.7355C36.491 82.9603 38.3442 84.077 40.4989 85.4L40.6131 85.2142ZM36.1257 82.5394L36.2213 82.3434C35.0516 81.7731 33.8585 80.4389 33.2303 79.2293L33.0368 79.3298L32.8432 79.4303C33.5015 80.698 34.7541 82.1133 36.0301 82.7355L36.1257 82.5394ZM33.0368 79.3298L33.2304 79.2293C33.0731 78.9265 33.0531 78.7534 33.0825 78.6621L32.8749 78.5951L32.6673 78.5282C32.5798 78.7997 32.6793 79.1147 32.8432 79.4303L33.0368 79.3298ZM32.8749 78.5951L33.0824 78.6623C33.1063 78.5885 33.1768 78.5342 33.3392 78.5148L33.3134 78.2983L33.2875 78.0817C33.0687 78.1078 32.7715 78.2067 32.6674 78.5279L32.8749 78.5951ZM33.3134 78.2983L33.3391 78.5149C33.4986 78.4959 33.7104 78.5169 33.9464 78.5566L33.9827 78.3416L34.0189 78.1265C33.7773 78.0858 33.5131 78.0549 33.2877 78.0817L33.3134 78.2983ZM33.9827 78.3416L33.9464 78.5566C34.1813 78.5962 34.4279 78.6521 34.6589 78.6993L34.7026 78.4856L34.7463 78.2719C34.5278 78.2273 34.2636 78.1677 34.0189 78.1265L33.9827 78.3416ZM34.7026 78.4856L34.6587 78.6993C34.8274 78.7338 35.137 78.856 35.5373 79.0388L35.6278 78.8403L35.7184 78.6419C35.3246 78.4622 34.9711 78.318 34.7464 78.2719L34.7026 78.4856ZM35.6278 78.8403L35.5373 79.0388C35.9338 79.2198 36.41 79.4557 36.9068 79.7117L37.0066 79.5178L37.1065 79.3239C36.6068 79.0664 36.1238 78.827 35.7184 78.6419L35.6278 78.8403ZM37.0066 79.5178L36.9068 79.7117C37.4036 79.9676 37.9218 80.2433 38.4006 80.5034L38.5048 80.3117L38.6089 80.1201C38.1278 79.8587 37.6068 79.5816 37.1065 79.3239L37.0066 79.5178ZM38.5048 80.3117L38.3992 80.5026L39.6649 81.2028L39.7705 81.012L39.8761 80.8211L38.6103 80.1209L38.5048 80.3117ZM39.7705 81.012L39.6588 81.1993L39.6654 81.2032L39.7771 81.0159L39.8888 80.8286L39.8822 80.8247L39.7705 81.012ZM39.7771 81.0159L39.6564 81.1976L42.8772 83.3353L42.9978 83.1536L43.1184 82.9719L39.8977 80.8342L39.7771 81.0159ZM42.9978 83.1536L43.1318 82.9815C42.6865 82.6348 42.2415 82.285 41.8226 81.9477L41.6858 82.1176L41.549 82.2875C41.9705 82.6268 42.4175 82.9783 42.8638 83.3257L42.9978 83.1536ZM41.6858 82.1176L41.8226 81.9477C41.1512 81.4072 40.5445 80.9 40.1015 80.4971L39.9548 80.6585L39.808 80.8199C40.2607 81.2315 40.8753 81.7451 41.549 82.2875L41.6858 82.1176ZM39.9548 80.6585L40.1015 80.4971C39.8798 80.2955 39.7001 80.1212 39.5749 79.9829L39.4132 80.1293L39.2515 80.2757C39.3909 80.4296 39.5827 80.6149 39.808 80.8199L39.9548 80.6585ZM39.4132 80.1293L39.5749 79.9829C39.5123 79.9138 39.4645 79.855 39.432 79.8077L39.2523 79.9313L39.0726 80.055C39.1204 80.1243 39.1822 80.1991 39.2515 80.2757L39.4132 80.1293ZM39.2523 79.9313L39.432 79.8077C39.4167 79.7854 39.405 79.7661 39.397 79.7497C39.3931 79.7417 39.3905 79.7354 39.3889 79.7307C39.3872 79.726 39.3869 79.7238 39.3869 79.7239L39.1715 79.7582L38.9561 79.7926C38.9734 79.901 39.0315 79.9951 39.0726 80.0549L39.2523 79.9313ZM39.1715 79.7582L39.3869 79.7241C39.3354 79.3986 38.741 76.3422 38.1198 73.1169L37.9057 73.1582L37.6915 73.1994C38.3145 76.4343 38.906 79.4764 38.9561 79.7924L39.1715 79.7582ZM37.9057 73.1582L38.1198 73.1169C37.498 69.888 36.8485 66.4872 36.6867 65.4661L36.4713 65.5002L36.2559 65.5343C36.4191 66.5647 37.0706 69.9757 37.6915 73.1994L37.9057 73.1582ZM36.4713 65.5002L36.6867 65.4661C36.6066 64.9602 36.5866 64.5692 36.6449 64.1959L36.4294 64.1622L36.2139 64.1285C36.1456 64.5653 36.1724 65.007 36.2559 65.5343L36.4713 65.5002ZM36.4294 64.1622L36.6449 64.1959C36.7032 63.8234 36.8414 63.4611 37.0898 63.0142L36.8992 62.9082L36.7086 62.8022C36.4444 63.2773 36.2826 63.6893 36.2139 64.1285L36.4294 64.1622ZM36.8992 62.9082L37.0898 63.0142C37.5915 62.1119 38.5219 60.8977 40.0967 58.5986L39.9167 58.4753L39.7368 58.3521C38.184 60.6192 37.2231 61.8768 36.7086 62.8022L36.8992 62.9082ZM39.9167 58.4753L40.0967 58.5986C40.8782 57.4576 41.5313 56.7799 42.1059 56.4217L41.9905 56.2366L41.8751 56.0516C41.2249 56.4569 40.5309 57.1928 39.7368 58.3521L39.9167 58.4753ZM43.4481 60.7517L43.2327 60.7858L43.5505 62.7921L43.7659 62.7579L43.9813 62.7238L43.6636 60.7176L43.4481 60.7517ZM43.7659 62.7579L43.5813 62.6418L41.7289 65.585L41.9135 65.7011L42.0981 65.8173L43.9505 62.8741L43.7659 62.7579ZM41.9135 65.7011L41.698 65.7353L43.501 77.1188L43.7164 77.0846L43.9319 77.0505L42.1289 65.667L41.9135 65.7011ZM43.7164 77.0846L43.561 77.2376L43.5845 77.2616L43.74 77.1086L43.8955 76.9556L43.8719 76.9317L43.7164 77.0846ZM43.74 77.1086L43.5808 77.2577L46.3476 80.2128L46.5069 80.0637L46.6661 79.9146L43.8992 76.9595L43.74 77.1086ZM46.5069 80.0637L46.2914 80.0978L46.6448 82.3288L46.8602 82.2947L47.0756 82.2606L46.7223 80.0296L46.5069 80.0637ZM46.8602 82.2947L46.8943 82.5101L47.1104 82.4759L47.0763 82.2605L47.0422 82.045L46.8261 82.0793L46.8602 82.2947ZM47.0763 82.2605L47.2917 82.2263L46.938 79.9934L46.7226 80.0276L46.5072 80.0617L46.8608 82.2946L47.0763 82.2605ZM46.7226 80.0276L46.9241 80.1111L48.4299 76.4772L48.2284 76.3938L48.0269 76.3103L46.5211 79.9441L46.7226 80.0276ZM48.2284 76.3938L48.4288 76.4797L48.4411 76.451L48.2406 76.3651L48.0402 76.2792L48.0279 76.3078L48.2284 76.3938ZM48.2406 76.3651L48.4561 76.331L46.6195 64.7353L46.4041 64.7694L46.1886 64.8035L48.0252 76.3992L48.2406 76.3651ZM46.4041 64.7694L46.5411 64.5997L46.5093 64.5741L46.3723 64.7438L46.2353 64.9135L46.2671 64.9391L46.4041 64.7694ZM46.3723 64.7438L46.5131 64.5772L44.1227 62.5571L43.982 62.7237L43.8412 62.8903L46.2315 64.9104L46.3723 64.7438ZM43.982 62.7237L44.1974 62.6896L43.8796 60.6834L43.6642 60.7175L43.4488 60.7516L43.7665 62.7578L43.982 62.7237ZM43.6642 60.7175L43.6301 60.5021L43.414 60.5363L43.4481 60.7517L43.4823 60.9671L43.6983 60.9329L43.6642 60.7175Z" fill="black"/>
<path d="M41.6223 60.3776C38.9593 63.7806 38.8004 63.4745 39.0509 65.7536C39.3015 68.0326 40.7228 76.3095 41.047 78.356C41.3063 79.9933 43.386 81.0404 44.3934 81.3593" stroke="#A1FFFF" stroke-width="0.436223"/>
<path d="M26.2364 87.3271C25.9635 85.6037 27.8565 84.3101 29.2791 83.5327C30.0639 88.4875 30.8754 90.1256 32.9293 93.3336C34.9832 96.5416 40.7101 97.8429 43.1086 98.3463C45.507 98.8497 44.5376 99.0033 41.2497 99.8553C28.3348 100.576 26.5094 89.0505 26.2364 87.3271Z" fill="#F1F1F3" stroke="black" stroke-width="0.436223"/>
<path d="M68.0714 80.7021C67.7984 78.9787 65.5983 78.3334 64.005 78.0337C64.7898 82.9885 64.5242 84.7972 63.5621 88.4829C62.6001 92.1685 57.5556 95.1758 55.4301 96.3958C53.3046 97.6157 54.274 97.4622 57.6643 97.2565C70.1698 93.9508 68.3443 82.4255 68.0714 80.7021Z" fill="#F1F1F3" stroke="black" stroke-width="0.436223"/>
<path d="M46.5223 97.6965C46.2955 97.6588 45.7523 97.5755 45.3939 97.544C41.4217 96.935 39.2717 93.0221 38.2002 88.9668C39.5052 89.1282 42.3805 89.453 43.4419 89.4616C44.7686 89.4723 45.5961 89.1204 45.9417 88.5136C46.2872 87.9068 49.2265 87.7357 49.4962 87.9506C50.537 88.7795 50.7354 88.6376 52.0589 88.0968C52.9473 87.7337 55.9029 86.6046 57.2325 85.9524C57.7408 94.5378 53.3979 96.0068 52.8261 96.3668C52.2639 96.7209 51.9079 96.8435 51.8002 96.8606C51.984 97.7884 51.7914 99.7327 49.5509 100.088C47.3105 100.442 46.5983 98.6414 46.5223 97.6965Z" fill="#F1F1F3" stroke="black" stroke-width="0.436223"/>
<path d="M42.0918 93.3184C43.0953 93.3802 43.9346 93.7994 44.2524 94.4115C44.5702 95.0237 45.3988 96.7695 49.061 96.1895C52.7233 95.6094 53.1137 93.8914 53.119 93.228C53.1244 92.5647 53.6683 91.8161 54.8019 91.3053" stroke="black" stroke-width="0.436223"/>
<defs>
<filter id="filter0_d_40001101_49759" x="0" y="0.151863" width="98.5328" height="148.311" filterUnits="userSpaceOnUse" color-interpolation-filters="sRGB">
<feFlood flood-opacity="0" result="BackgroundImageFix"/>
<feColorMatrix in="SourceAlpha" type="matrix" values="0 0 0 0 0 0 0 0 0 0 0 0 0 0 0 0 0 0 127 0" result="hardAlpha"/>
<feOffset dx="7.82259" dy="-5.21506"/>
<feGaussianBlur stdDeviation="3.35755"/>
<feComposite in2="hardAlpha" operator="out"/>
<feColorMatrix type="matrix" values="0 0 0 0 0.784314 0 0 0 0 0.843137 0 0 0 0 0.909804 0 0 0 0.25 0"/>
<feBlend mode="normal" in2="BackgroundImageFix" result="effect1_dropShadow_40001101_49759"/>
<feBlend mode="normal" in="SourceGraphic" in2="effect1_dropShadow_40001101_49759" result="shape"/>
</filter>
</defs>
</svg>
