<svg width="48" height="80" viewBox="0 0 48 80" fill="none"
  xmlns="http://www.w3.org/2000/svg">
  <g clip-path="url(#clip0_440_15705)">
    <g filter="url(#filter0_d_440_15705)">
      <rect x="-7" y="9.62817" width="50.2178" height="97.2445" rx="2.68724" transform="rotate(-3 -7 9.62817)" fill="#A158ED"/>
      <rect x="-6.34961" y="22.0396" width="50.2178" height="3.02315" transform="rotate(-3 -6.34961 22.0396)" fill="white"/>
      <rect x="-6.29688" y="23.046" width="50.2178" height="1.00772" transform="rotate(-3 -6.29688 23.046)" fill="#61B9F5"/>
      <rect x="-6.19238" y="25.0587" width="50.2178" height="76.7543" transform="rotate(-3 -6.19238 25.0587)" fill="#4D6ECB"/>
      <path d="M-4.41602 58.9385L46.5285 71.4892L47.513 90.2741L-2.63605 92.9023L-4.41602 58.9385Z" fill="#65612E"/>
      <path d="M13.5701 87.3439C5.52525 86.0164 -1.11642 80.3771 -3.43164 77.7234L-2.17468 101.708L47.9743 99.0796L47.1305 82.9782C39.2957 84.9865 21.615 88.6714 13.5701 87.3439Z" fill="#CDB389"/>
      <path d="M12.1507 60.3495C11.0068 59.0134 11.9486 56.4941 12.1857 54.8708C12.5544 53.0259 12.0735 52.7289 11.9837 51.0154C11.8939 49.3018 9.35256 45.8912 7.43653 44.166C5.5205 42.4408 5.01354 40.9639 6.23694 39.7185C7.46035 38.4731 12.7744 43.5641 14.5778 45.1878C16.3811 46.8115 17.5423 46.4285 19.6505 45.6737C21.7588 44.9188 20.6438 40.0374 20.5484 38.2167C20.453 36.3961 20.0475 34.8065 21.8569 34.4969C23.6663 34.1873 24.2121 38.4543 25.2709 42.2648C26.3297 46.0753 27.7159 47.9357 28.6344 49.0688C29.5529 50.202 29.1806 51.2954 29.0113 52.1634C28.8421 53.0314 29.1461 54.7337 29.4164 55.7934C29.6867 56.8531 30.0529 57.693 30.5542 59.0628C31.0556 60.4326 31.5854 60.2975 32.2729 61.1205C32.9604 61.9436 32.5769 62.8228 32.3908 63.3695C32.2046 63.9162 31.7141 64.8011 31.325 65.5732C30.9359 66.3453 30.4285 66.9088 30.2536 67.6697C30.0787 68.4306 29.047 69.2364 28.1902 69.2813C27.3335 69.3262 26.3865 69.698 25.2365 70.2952C24.0865 70.8924 21.635 69.1953 21.2969 68.8909C20.9587 68.5864 16.4167 63.8845 15.5151 63.0727C14.6134 62.2608 13.2946 61.6856 12.1507 60.3495Z" fill="#F29600" stroke="black" stroke-width="0.335905"/>
      <path d="M19.0981 64.9128C17.9948 64.7184 17.1873 63.7516 15.3646 62.6698L15.3734 62.8376L19.0139 66.515L20.6069 68.0292L21.763 69.23L23.237 70.0778L24.9362 70.4092L26.0883 69.9283L27.4081 69.4387L28.825 69.1963L29.88 68.4683L30.3348 67.5194L29.9994 67.537L30.7102 66.6588L32.3218 63.7153L32.6576 62.0999L32.2695 61.1112L31.5634 60.4754L30.8486 59.672L30.2619 58.105L29.3929 55.9641L29.0889 53.3732L29.0318 52.283L29.2661 50.3367L28.8823 49.4318L27.4351 47.4894L26.1336 45.119L25.3751 41.8791L23.8623 37.0811L23.1786 35.2669C22.1726 33.7219 20.4678 34.8876 20.517 35.8269C20.5785 37.0009 20.68 37.332 20.5518 38.0955C20.4236 38.8591 21.0938 42.0194 21.1422 42.9419C21.1905 43.8644 20.7269 44.6455 20.4178 45.1662L20.4178 45.1662C19.8606 46.105 18.5374 46.1898 18.1181 46.2118C17.7826 46.2294 16.6968 46.3703 16.1936 46.3967C16.3952 46.4983 16.8336 46.7332 16.9748 46.8603C17.1513 47.0193 19.283 47.5803 20.4746 47.8542C21.6662 48.1281 24.928 47.789 25.7135 48.3365C26.4991 48.8839 27.9683 51.2456 28.0386 52.5874C28.1089 53.9291 28.9205 56.5775 29.0395 57.244C29.1585 57.9105 29.5555 59.067 30.3893 60.537C31.2232 62.0069 31.1306 61.8436 30.4992 62.6335C29.8679 63.4234 29.1263 63.7145 28.3229 64.4294C27.5194 65.1442 26.7031 64.0097 25.7719 63.8903C24.8406 63.771 24.6993 64.2829 24.1298 64.6491C23.5604 65.0153 23.1055 65.9642 22.3376 65.7522C21.5697 65.5401 20.2015 65.1073 19.0981 64.9128Z" fill="#D7890A"/>
      <path d="M12.1507 60.3495C11.0068 59.0134 11.9486 56.4941 12.1857 54.8708C12.5544 53.0259 12.0735 52.7289 11.9837 51.0154C11.8939 49.3018 9.35256 45.8912 7.43653 44.166C5.5205 42.4408 5.01354 40.9639 6.23694 39.7185C7.46035 38.4731 12.7744 43.5641 14.5778 45.1878C16.3811 46.8115 17.5423 46.4285 19.6505 45.6737C21.7588 44.9188 20.6438 40.0374 20.5484 38.2167C20.453 36.3961 20.0475 34.8065 21.8569 34.4969C23.6663 34.1873 24.2121 38.4543 25.2709 42.2648C26.3297 46.0753 27.7159 47.9357 28.6344 49.0688C29.5529 50.202 29.1806 51.2954 29.0113 52.1634C28.8421 53.0314 29.1461 54.7337 29.4164 55.7934C29.6867 56.8531 30.0529 57.693 30.5542 59.0628C31.0556 60.4326 31.5854 60.2975 32.2729 61.1205C32.9604 61.9436 32.5769 62.8228 32.3908 63.3695C32.2046 63.9162 31.7141 64.8011 31.325 65.5732C30.9359 66.3453 30.4285 66.9088 30.2536 67.6697C30.0787 68.4306 29.047 69.2364 28.1902 69.2813C27.3335 69.3262 26.3865 69.698 25.2365 70.2952C24.0865 70.8924 21.635 69.1953 21.2969 68.8909C20.9587 68.5864 16.4167 63.8845 15.5151 63.0727C14.6134 62.2608 13.2946 61.6856 12.1507 60.3495Z" stroke="black" stroke-width="0.335905"/>
      <path d="M15.5908 45.8865C16.1487 46.2868 16.7179 46.9013 17.1463 46.8788C17.5747 46.8564 19.0118 47.6402 19.8008 48.3506" stroke="black" stroke-width="0.335905"/>
      <path d="M20.9961 67.081C21.0354 67.8307 21.554 67.4813 21.757 67.2559L21.9806 66.922C21.8065 66.6387 21.6149 66.3185 21.3684 65.9876C21.2252 65.7955 21.0354 65.5875 20.8174 65.3722C20.8639 65.6919 20.9647 66.4813 20.9961 67.081Z" fill="white"/>
      <path d="M23.3437 54.5008C23.5316 54.67 23.8937 55.1593 23.8394 55.7635M22.5365 59.5904C22.9025 59.1417 23.6417 57.9217 23.6702 56.6315M27.0916 56.3448C27.039 56.0254 26.9904 55.2333 27.216 54.6201M23.8937 64.9962C24.1926 64.5509 24.8015 63.8747 25.337 63.8466C25.8724 63.8186 26.1937 63.8017 26.5262 63.9991C26.8587 64.1964 27.2927 64.2811 27.7211 64.2586C28.0638 64.2407 28.4276 64.0784 28.5666 63.9995M25.1335 66.1125C25.1993 66.0016 25.3951 65.7766 25.6522 65.7631C25.9735 65.7463 26.306 65.9436 26.4187 66.0451M30.5336 64.6482L31.5485 63.5211M15.1358 59.7635C15.175 60.5132 15.1353 61.8039 16.0089 62.0803C16.8825 62.3567 17.3109 62.3343 18.0998 63.0446C18.7259 63.6083 19.9799 64.5447 20.8174 65.3722M30.6403 66.683C30.1385 67.3536 29.4281 68.1426 28.7968 68.3904C28.1654 68.6383 27.3821 68.035 26.7227 67.7474C26.0633 67.4598 25.5446 67.8092 25.0091 67.8372C24.4737 67.8653 23.6281 68.1244 22.9743 67.9439C22.5531 67.8276 22.2957 67.4352 21.9806 66.922M20.8174 65.3722C21.0354 65.5875 21.2252 65.7955 21.3684 65.9876C21.6149 66.3185 21.8065 66.6387 21.9806 66.922M20.8174 65.3722C20.8639 65.6919 20.9647 66.4813 20.9961 67.081C21.0354 67.8307 21.554 67.4813 21.757 67.2559L21.9806 66.922" stroke="black" stroke-width="0.335905"/>
      <path d="M16.0332 54.347C16.4352 54.5049 17.5741 55.0609 18.9131 56.0217C20.5869 57.2226 21.2743 58.0457 21.9899 59.4043" stroke="black" stroke-width="0.335905"/>
      <path d="M16.252 54.4429L16.4372 57.977C17.0063 58.5915 20.3599 59.0601 21.7522 58.9871C20.1565 56.4075 17.4205 54.8828 16.252 54.4429Z" fill="white" stroke="black" stroke-width="0.335905"/>
      <path d="M19.1678 58.8005C18.3563 58.0699 18.2139 56.309 18.2442 55.5199C20.1062 56.6251 21.3606 58.2919 21.755 58.9871C21.073 58.9513 19.6007 58.8638 19.1678 58.8005Z" fill="#008086" stroke="black" stroke-width="0.335905"/>
      <circle cx="19.4034" cy="57.1773" r="0.536211" transform="rotate(-3 19.4034 57.1773)" fill="white"/>
      <circle cx="19.7524" cy="57.6959" r="0.643453" transform="rotate(-3 19.7524 57.6959)" fill="black"/>
      <path d="M27.7296 56.204C27.6619 56.5512 27.7687 57.6338 27.8306 58.1317C28.638 57.1444 29.0918 56.24 29.2177 55.9112L28.9591 53.0253C28.5775 53.9402 27.7973 55.8568 27.7296 56.204Z" fill="white" stroke="black" stroke-width="0.335905"/>
      <path d="M28.7311 56.9032C28.8441 55.7804 28.6133 54.6542 28.4837 54.2314L27.728 56.204L27.7448 56.5253L27.8346 58.2388C28.0019 58.0153 28.4154 57.4352 28.7311 56.9032Z" fill="#008086" stroke="black" stroke-width="0.335905"/>
      <path d="M28.2869 56.6044C28.3004 56.8614 27.943 56.8729 27.7627 56.8466L27.7234 56.0969C27.7854 55.9147 27.9523 55.548 28.1237 55.539C28.3379 55.5278 28.2701 56.2831 28.2869 56.6044Z" fill="black" stroke="black" stroke-width="0.335905"/>
      <g filter="url(#filter1_d_440_15705)">
        <rect x="-4.8252" y="8.19635" width="48.559" height="94.0323" rx="2.59847" transform="rotate(-3 -4.8252 8.19635)" fill="#A158ED"/>
        <rect x="-4.19629" y="20.1978" width="48.559" height="2.92328" transform="rotate(-3 -4.19629 20.1978)" fill="white"/>
        <rect x="-4.14551" y="21.1709" width="48.559" height="0.974428" transform="rotate(-3 -4.14551 21.1709)" fill="#61B9F5"/>
        <rect x="-4.04297" y="23.1171" width="48.559" height="74.2189" transform="rotate(-3 -4.04297 23.1171)" fill="#4D6ECB"/>
        <path d="M-2.32617 55.8779L46.9355 68.014L47.8874 86.1784L-0.605003 88.7197L-2.32617 55.8779Z" fill="#65612E"/>
        <path d="M15.0661 83.3449C7.287 82.0613 0.864723 76.6083 -1.37402 74.0423L-0.15858 97.2343L48.3339 94.693L47.5179 79.1235C39.9419 81.0655 22.8452 84.6286 15.0661 83.3449Z" fill="#CDB389"/>
        <path d="M13.5131 56.6314C12.407 55.3395 13.3177 52.9034 13.547 51.3337C13.9035 49.5497 13.4384 49.2626 13.3516 47.6057C13.2648 45.9487 10.8074 42.6507 8.95466 40.9825C7.10192 39.3143 6.61171 37.8862 7.7947 36.682C8.97769 35.4777 14.1163 40.4005 15.86 41.9706C17.6038 43.5407 18.7266 43.1703 20.7652 42.4404C22.8038 41.7105 21.7257 36.9903 21.6334 35.2298C21.5412 33.4693 21.1491 31.9323 22.8987 31.6329C24.6483 31.3335 25.1761 35.4595 26.1999 39.1442C27.2238 42.8288 28.5641 44.6277 29.4523 45.7234C30.3405 46.8192 29.9805 47.8764 29.8168 48.7158C29.6531 49.5551 29.9471 51.2011 30.2084 52.2259C30.4698 53.2506 30.8239 54.0628 31.3087 55.3873C31.7935 56.7118 32.3058 56.5811 32.9706 57.377C33.6354 58.1729 33.2646 59.0231 33.0846 59.5517C32.9046 60.0804 32.4302 60.936 32.054 61.6826C31.6778 62.4292 31.1871 62.9741 31.018 63.7099C30.8489 64.4456 29.8513 65.2248 29.0228 65.2682C28.1943 65.3117 27.2786 65.6712 26.1666 66.2487C25.0546 66.8261 22.6841 65.1851 22.3571 64.8907C22.0302 64.5963 17.6382 60.0497 16.7664 59.2647C15.8945 58.4796 14.6192 57.9234 13.5131 56.6314Z" fill="#F29600" stroke="black" stroke-width="0.324809"/>
        <path d="M20.2305 61.044C19.1636 60.856 18.3828 59.9212 16.6203 58.8751L16.6288 59.0373L20.1491 62.5933L21.6895 64.0575L22.8074 65.2186L24.2327 66.0384L25.8757 66.3588L26.9898 65.8939L28.266 65.4204L29.636 65.186L30.6562 64.482L31.096 63.5645L30.7716 63.5815L31.459 62.7324L33.0174 59.886L33.3421 58.324L32.9667 57.3679L32.284 56.7532L31.5928 55.9763L31.0255 54.4611L30.1852 52.391L29.8912 49.8856L29.836 48.8314L30.0626 46.9494L29.6915 46.0743L28.2921 44.1962L27.0335 41.904L26.3002 38.7712L24.8373 34.1317L24.1762 32.3774C23.2034 30.8835 21.5549 32.0107 21.6025 32.9189C21.662 34.0542 21.7601 34.3743 21.6362 35.1126C21.5122 35.8509 22.1603 38.9069 22.207 39.7989C22.2538 40.6909 21.8055 41.4462 21.5066 41.9497L21.5066 41.9497C20.9678 42.8575 19.6883 42.9395 19.2828 42.9607C18.9584 42.9777 17.9085 43.1141 17.422 43.1396C17.6168 43.2378 18.0407 43.4649 18.1773 43.5879C18.348 43.7415 20.4092 44.284 21.5615 44.5489C22.7138 44.8138 25.8678 44.4858 26.6274 45.0152C27.387 45.5446 28.8077 47.8283 28.8757 49.1257C28.9437 50.4232 29.7284 52.9841 29.8435 53.6286C29.9586 54.273 30.3424 55.3913 31.1487 56.8127C31.955 58.2341 31.8655 58.0762 31.255 58.84C30.6445 59.6038 29.9274 59.8853 29.1505 60.5766C28.3736 61.2678 27.5843 60.1708 26.6838 60.0553C25.7833 59.9399 25.6466 60.4349 25.096 60.789C24.5453 61.1432 24.1055 62.0607 23.363 61.8556C22.6204 61.6506 21.2974 61.2321 20.2305 61.044Z" fill="#D7890A"/>
        <path d="M13.5131 56.6314C12.407 55.3395 13.3177 52.9034 13.547 51.3337C13.9035 49.5497 13.4384 49.2626 13.3516 47.6057C13.2648 45.9487 10.8074 42.6507 8.95466 40.9825C7.10192 39.3143 6.61171 37.8862 7.7947 36.682C8.97769 35.4777 14.1163 40.4005 15.86 41.9706C17.6038 43.5407 18.7266 43.1703 20.7652 42.4404C22.8038 41.7105 21.7257 36.9903 21.6334 35.2298C21.5412 33.4693 21.1491 31.9323 22.8987 31.6329C24.6483 31.3335 25.1761 35.4595 26.1999 39.1442C27.2238 42.8288 28.5641 44.6277 29.4523 45.7234C30.3405 46.8192 29.9805 47.8764 29.8168 48.7158C29.6531 49.5551 29.9471 51.2011 30.2084 52.2259C30.4698 53.2506 30.8239 54.0628 31.3087 55.3873C31.7935 56.7118 32.3058 56.5811 32.9706 57.377C33.6354 58.1729 33.2646 59.0231 33.0846 59.5517C32.9046 60.0804 32.4302 60.936 32.054 61.6826C31.6778 62.4292 31.1871 62.9741 31.018 63.7099C30.8489 64.4456 29.8513 65.2248 29.0228 65.2682C28.1943 65.3117 27.2786 65.6712 26.1666 66.2487C25.0546 66.8261 22.6841 65.1851 22.3571 64.8907C22.0302 64.5963 17.6382 60.0497 16.7664 59.2647C15.8945 58.4796 14.6192 57.9234 13.5131 56.6314Z" stroke="black" stroke-width="0.324809"/>
        <path d="M16.8389 42.6462C17.3784 43.0333 17.9287 43.6275 18.3429 43.6058C18.7572 43.5841 20.1468 44.342 20.9097 45.0289" stroke="black" stroke-width="0.324809"/>
        <path d="M22.0665 63.1406C22.1045 63.8655 22.606 63.5277 22.8023 63.3097L23.0184 62.9868C22.8502 62.7129 22.6649 62.4032 22.4265 62.0833C22.288 61.8975 22.1045 61.6964 21.8937 61.4882C21.9387 61.7973 22.0361 62.5606 22.0665 63.1406Z" fill="white"/>
        <path d="M24.3366 50.9759C24.5182 51.1395 24.8684 51.6127 24.8159 52.1969M23.5561 55.8974C23.91 55.4635 24.6247 54.2838 24.6522 53.0362M27.9606 52.759C27.9098 52.4501 27.8628 51.6842 28.0809 51.0912M24.8684 61.1246C25.1574 60.6941 25.7462 60.0402 26.264 60.013C26.7817 59.9859 27.0924 59.9696 27.4139 60.1604C27.7355 60.3513 28.1551 60.4331 28.5694 60.4114C28.9007 60.394 29.2525 60.2371 29.387 60.1609M26.0673 62.204C26.1309 62.0968 26.3202 61.8792 26.5688 61.8662C26.8794 61.8499 27.201 62.0407 27.3099 62.1389M31.289 60.7881L32.2703 59.6982M16.3997 56.0648C16.4377 56.7897 16.3993 58.0378 17.244 58.3051C18.0888 58.5723 18.503 58.5506 19.2659 59.2375C19.8712 59.7826 21.0839 60.688 21.8937 61.4882M31.3921 62.7557C30.9069 63.4042 30.22 64.1671 29.6095 64.4067C28.999 64.6464 28.2415 64.0631 27.6039 63.7849C26.9663 63.5068 26.4648 63.8446 25.947 63.8718C25.4292 63.8989 24.6116 64.1494 23.9794 63.9749C23.5721 63.8624 23.3232 63.4831 23.0184 62.9868M21.8937 61.4882C22.1045 61.6964 22.288 61.8975 22.4265 62.0833C22.6649 62.4032 22.8502 62.7129 23.0184 62.9868M21.8937 61.4882C21.9387 61.7973 22.0361 62.5606 22.0665 63.1406C22.1045 63.8655 22.606 63.5277 22.8023 63.3097L23.0184 62.9868" stroke="black" stroke-width="0.324809"/>
        <path d="M17.2676 50.8272C17.6563 50.9799 18.7575 51.5176 20.0523 52.4466C21.6708 53.6079 22.3356 54.4038 23.0275 55.7174" stroke="black" stroke-width="0.324809"/>
        <path d="M17.4795 50.9199L17.6586 54.3373C18.2089 54.9315 21.4518 55.3846 22.798 55.3141C21.2551 52.8197 18.6094 51.3453 17.4795 50.9199Z" fill="white" stroke="black" stroke-width="0.324809"/>
        <path d="M20.2967 55.1337C19.512 54.4271 19.3743 52.7244 19.4036 51.9614C21.2041 53.0301 22.417 54.6418 22.7984 55.3141C22.1389 55.2794 20.7153 55.1948 20.2967 55.1337Z" fill="#008086" stroke="black" stroke-width="0.324809"/>
        <circle cx="20.5264" cy="53.564" r="0.518498" transform="rotate(-3 20.5264 53.564)" fill="white"/>
        <circle cx="20.8639" cy="54.0655" r="0.622198" transform="rotate(-3 20.8639 54.0655)" fill="black"/>
        <path d="M28.5762 52.6229C28.5107 52.9586 28.614 54.0055 28.6739 54.4869C29.4546 53.5322 29.8933 52.6577 30.0151 52.3398L29.765 49.5492C29.396 50.4339 28.6417 52.2872 28.5762 52.6229Z" fill="white" stroke="black" stroke-width="0.324809"/>
        <path d="M29.5462 53.299C29.6555 52.2133 29.4322 51.1243 29.307 50.7155L28.5762 52.6229L28.5925 52.9336L28.6793 54.5905C28.8411 54.3744 29.2409 53.8134 29.5462 53.299Z" fill="#008086" stroke="black" stroke-width="0.324809"/>
        <path d="M29.116 53.01C29.129 53.2586 28.7835 53.2698 28.6091 53.2443L28.5711 52.5194C28.6311 52.3432 28.7925 51.9886 28.9582 51.9799C29.1653 51.969 29.0997 52.6994 29.116 53.01Z" fill="black" stroke="black" stroke-width="0.324809"/>
      </g>
    </g>
  </g>
  <defs>
    <filter id="filter0_d_440_15705" x="-7" y="-3.49558" width="66.7394" height="111.386" filterUnits="userSpaceOnUse" color-interpolation-filters="sRGB">
      <feFlood flood-opacity="0" result="BackgroundImageFix"/>
      <feColorMatrix in="SourceAlpha" type="matrix" values="0 0 0 0 0 0 0 0 0 0 0 0 0 0 0 0 0 0 127 0" result="hardAlpha"/>
      <feOffset dx="6" dy="-4"/>
      <feGaussianBlur stdDeviation="2.57527"/>
      <feComposite in2="hardAlpha" operator="out"/>
      <feColorMatrix type="matrix" values="0 0 0 0 0.784314 0 0 0 0 0.843137 0 0 0 0 0.909804 0 0 0 0.25 0"/>
      <feBlend mode="normal" in2="BackgroundImageFix" result="effect1_dropShadow_440_15705"/>
      <feBlend mode="normal" in="SourceGraphic" in2="effect1_dropShadow_440_15705" result="shape"/>
    </filter>
    <filter id="filter1_d_440_15705" x="-9.8056" y="5.65497" width="63.3749" height="106.406" filterUnits="userSpaceOnUse" color-interpolation-filters="sRGB">
      <feFlood flood-opacity="0" result="BackgroundImageFix"/>
      <feColorMatrix in="SourceAlpha" type="matrix" values="0 0 0 0 0 0 0 0 0 0 0 0 0 0 0 0 0 0 127 0" result="hardAlpha"/>
      <feOffset dy="4.98041"/>
      <feGaussianBlur stdDeviation="2.4902"/>
      <feComposite in2="hardAlpha" operator="out"/>
      <feColorMatrix type="matrix" values="0 0 0 0 0.784314 0 0 0 0 0.843137 0 0 0 0 0.909804 0 0 0 0.25 0"/>
      <feBlend mode="normal" in2="BackgroundImageFix" result="effect1_dropShadow_440_15705"/>
      <feBlend mode="normal" in="SourceGraphic" in2="effect1_dropShadow_440_15705" result="shape"/>
    </filter>
    <clipPath id="clip0_440_15705">
      <rect width="48" height="80" fill="white"/>
    </clipPath>
  </defs>
</svg>
