<svg width="52" height="104" viewBox="0 0 52 104" fill="none" xmlns="http://www.w3.org/2000/svg">
<g clip-path="url(#clip0_40000850_50765)">
<g filter="url(#filter0_d_40000850_50765)">
<rect x="-7" y="10.6289" width="50.2178" height="97.2445" rx="2.68724" transform="rotate(-3 -7 10.6289)" fill="#A158ED"/>
<rect x="-6.34961" y="23.041" width="50.2178" height="3.02315" transform="rotate(-3 -6.34961 23.041)" fill="white"/>
<rect x="-6.29688" y="24.0469" width="50.2178" height="1.00772" transform="rotate(-3 -6.29688 24.0469)" fill="#61B9F5"/>
<rect x="-6.19238" y="26.0586" width="50.2178" height="76.7543" transform="rotate(-3 -6.19238 26.0586)" fill="#4D6ECB"/>
<path d="M-4.41602 59.9395L46.5285 72.4901L47.513 91.275L-2.63605 93.9032L-4.41602 59.9395Z" fill="#65612E"/>
<path d="M13.5701 88.345C5.52525 87.0175 -1.11642 81.3783 -3.43164 78.7246L-2.17468 102.709L47.9743 100.081L47.1305 83.9794C39.2957 85.9877 21.615 89.6725 13.5701 88.345Z" fill="#CDB389"/>
<path d="M12.1507 61.3502C11.0068 60.014 11.9486 57.4947 12.1857 55.8715C12.5544 54.0265 12.0735 53.7296 11.9837 52.016C11.8939 50.3025 9.35256 46.8919 7.43653 45.1666C5.5205 43.4414 5.01354 41.9646 6.23694 40.7192C7.46035 39.4738 12.7744 44.5647 14.5778 46.1885C16.3811 47.8122 17.5423 47.4291 19.6505 46.6743C21.7588 45.9195 20.6438 41.038 20.5484 39.2174C20.453 37.3968 20.0475 35.8072 21.8569 35.4976C23.6663 35.188 24.2121 39.455 25.2709 43.2655C26.3297 47.076 27.7159 48.9364 28.6344 50.0695C29.5529 51.2027 29.1806 52.2961 29.0113 53.1641C28.8421 54.032 29.1461 55.7343 29.4164 56.7941C29.6867 57.8538 30.0529 58.6937 30.5542 60.0635C31.0556 61.4333 31.5854 61.2981 32.2729 62.1212C32.9604 62.9443 32.5769 63.8235 32.3908 64.3702C32.2046 64.9169 31.7141 65.8017 31.325 66.5739C30.9359 67.346 30.4285 67.9095 30.2536 68.6704C30.0787 69.4313 29.047 70.2371 28.1902 70.282C27.3335 70.3269 26.3865 70.6987 25.2365 71.2959C24.0865 71.8931 21.635 70.196 21.2969 69.8915C20.9587 69.5871 16.4167 64.8852 15.5151 64.0733C14.6134 63.2615 13.2946 62.6863 12.1507 61.3502Z" fill="#F29600" stroke="black" stroke-width="0.335905"/>
<path d="M19.0981 65.9133C17.9948 65.7188 17.1873 64.752 15.3646 63.6703L15.3734 63.838L19.0139 67.5154L20.6069 69.0297L21.763 70.2304L23.237 71.0782L24.9362 71.4096L26.0883 70.9288L27.4081 70.4391L28.825 70.1967L29.88 69.4687L30.3348 68.5198L29.9994 68.5374L30.7102 67.6593L32.3218 64.7157L32.6576 63.1003L32.2695 62.1116L31.5634 61.4759L30.8486 60.6724L30.2619 59.1054L29.3929 56.9646L29.0889 54.3737L29.0318 53.2835L29.2661 51.3371L28.8823 50.4322L27.4351 48.4898L26.1336 46.1194L25.3751 42.8796L23.8623 38.0815L23.1786 36.2674C22.1726 34.7223 20.4678 35.8881 20.517 36.8273C20.5785 38.0014 20.68 38.3324 20.5518 39.096C20.4236 39.8595 21.0938 43.0199 21.1422 43.9423C21.1905 44.8648 20.7269 45.6459 20.4178 46.1666L20.4178 46.1667C19.8606 47.1055 18.5374 47.1902 18.1181 47.2122C17.7826 47.2298 16.6968 47.3708 16.1936 47.3971C16.3952 47.4987 16.8336 47.7336 16.9748 47.8608C17.1513 48.0197 19.283 48.5807 20.4746 48.8546C21.6662 49.1285 24.928 48.7894 25.7135 49.3369C26.4991 49.8844 27.9683 52.246 28.0386 53.5878C28.1089 54.9296 28.9205 57.578 29.0395 58.2445C29.1585 58.911 29.5555 60.0674 30.3893 61.5374C31.2232 63.0073 31.1306 62.844 30.4992 63.6339C29.8679 64.4238 29.1263 64.715 28.3229 65.4298C27.5194 66.1446 26.7031 65.0101 25.7719 64.8908C24.8406 64.7714 24.6993 65.2833 24.1298 65.6496C23.5604 66.0158 23.1055 66.9646 22.3376 66.7526C21.5697 66.5405 20.2015 66.1077 19.0981 65.9133Z" fill="#D7890A"/>
<path d="M12.1507 61.3502C11.0068 60.014 11.9486 57.4947 12.1857 55.8715C12.5544 54.0265 12.0735 53.7296 11.9837 52.016C11.8939 50.3025 9.35256 46.8919 7.43653 45.1666C5.5205 43.4414 5.01354 41.9646 6.23694 40.7192C7.46035 39.4738 12.7744 44.5647 14.5778 46.1885C16.3811 47.8122 17.5423 47.4291 19.6505 46.6743C21.7588 45.9195 20.6438 41.038 20.5484 39.2174C20.453 37.3968 20.0475 35.8072 21.8569 35.4976C23.6663 35.188 24.2121 39.455 25.2709 43.2655C26.3297 47.076 27.7159 48.9364 28.6344 50.0695C29.5529 51.2027 29.1806 52.2961 29.0113 53.1641C28.8421 54.032 29.1461 55.7343 29.4164 56.7941C29.6867 57.8538 30.0529 58.6937 30.5542 60.0635C31.0556 61.4333 31.5854 61.2981 32.2729 62.1212C32.9604 62.9443 32.5769 63.8235 32.3908 64.3702C32.2046 64.9169 31.7141 65.8017 31.325 66.5739C30.9359 67.346 30.4285 67.9095 30.2536 68.6704C30.0787 69.4313 29.047 70.2371 28.1902 70.282C27.3335 70.3269 26.3865 70.6987 25.2365 71.2959C24.0865 71.8931 21.635 70.196 21.2969 69.8915C20.9587 69.5871 16.4167 64.8852 15.5151 64.0733C14.6134 63.2615 13.2946 62.6863 12.1507 61.3502Z" stroke="black" stroke-width="0.335905"/>
<path d="M15.5908 46.8867C16.1487 47.287 16.7179 47.9015 17.1463 47.8791C17.5747 47.8566 19.0118 48.6404 19.8008 49.3508" stroke="black" stroke-width="0.335905"/>
<path d="M20.9961 68.0819C21.0354 68.8315 21.554 68.4822 21.757 68.2568L21.9806 67.9229C21.8065 67.6396 21.6149 67.3194 21.3684 66.9885C21.2252 66.7964 21.0354 66.5884 20.8174 66.373C20.8639 66.6927 20.9647 67.4821 20.9961 68.0819Z" fill="white"/>
<path d="M23.3437 55.5017C23.5316 55.6708 23.8937 56.1602 23.8394 56.7644M22.5365 60.5913C22.9025 60.1426 23.6417 58.9225 23.6702 57.6324M27.0916 57.3457C27.039 57.0263 26.9904 56.2341 27.216 55.6209M23.8937 65.997C24.1926 65.5518 24.8015 64.8756 25.337 64.8475C25.8724 64.8194 26.1937 64.8026 26.5262 64.9999C26.8587 65.1973 27.2927 65.2819 27.7211 65.2595C28.0638 65.2415 28.4276 65.0793 28.5666 65.0004M25.1335 67.1133C25.1993 67.0025 25.3951 66.7774 25.6522 66.764C25.9735 66.7471 26.306 66.9445 26.4187 67.046M30.5336 65.649L31.5485 64.522M15.1358 60.7644C15.175 61.514 15.1353 62.8048 16.0089 63.0812C16.8825 63.3576 17.3109 63.3351 18.0998 64.0455C18.7259 64.6092 19.9799 65.5456 20.8174 66.373M30.6403 67.6838C30.1385 68.3545 29.4281 69.1434 28.7968 69.3913C28.1654 69.6392 27.3821 69.0359 26.7227 68.7483C26.0633 68.4607 25.5446 68.81 25.0091 68.8381C24.4737 68.8661 23.6281 69.1252 22.9743 68.9447C22.5531 68.8284 22.2957 68.4361 21.9806 67.9229M20.8174 66.373C21.0354 66.5884 21.2252 66.7964 21.3684 66.9885C21.6149 67.3194 21.8065 67.6396 21.9806 67.9229M20.8174 66.373C20.8639 66.6927 20.9647 67.4821 20.9961 68.0819C21.0354 68.8315 21.554 68.4822 21.757 68.2568L21.9806 67.9229" stroke="black" stroke-width="0.335905"/>
<path d="M16.0332 55.3477C16.4352 55.5056 17.5741 56.0616 18.9131 57.0223C20.5869 58.2233 21.2743 59.0464 21.9899 60.4049" stroke="black" stroke-width="0.335905"/>
<path d="M16.252 55.4434L16.4372 58.9775C17.0063 59.592 20.3599 60.0606 21.7522 59.9876C20.1565 57.408 17.4205 55.8833 16.252 55.4434Z" fill="white" stroke="black" stroke-width="0.335905"/>
<path d="M19.1678 59.8009C18.3563 59.0702 18.2139 57.3094 18.2442 56.5203C20.1062 57.6254 21.3606 59.2922 21.755 59.9875C21.073 59.9516 19.6007 59.8641 19.1678 59.8009Z" fill="#008086" stroke="black" stroke-width="0.335905"/>
<circle cx="19.4034" cy="58.1773" r="0.536211" transform="rotate(-3 19.4034 58.1773)" fill="white"/>
<circle cx="19.7524" cy="58.6968" r="0.643453" transform="rotate(-3 19.7524 58.6968)" fill="black"/>
<path d="M27.7296 57.2048C27.6619 57.552 27.7687 58.6346 27.8306 59.1326C28.638 58.1452 29.0918 57.2408 29.2177 56.9121L28.9591 54.0261C28.5775 54.941 27.7973 56.8576 27.7296 57.2048Z" fill="white" stroke="black" stroke-width="0.335905"/>
<path d="M28.7311 57.9042C28.8441 56.7814 28.6133 55.6552 28.4837 55.2324L27.728 57.2051L27.7448 57.5263L27.8346 59.2399C28.0019 59.0163 28.4154 58.4362 28.7311 57.9042Z" fill="#008086" stroke="black" stroke-width="0.335905"/>
<path d="M28.2869 57.6054C28.3004 57.8624 27.943 57.874 27.7627 57.8476L27.7234 57.098C27.7854 56.9157 27.9523 56.549 28.1237 56.54C28.3379 56.5288 28.2701 57.2841 28.2869 57.6054Z" fill="black" stroke="black" stroke-width="0.335905"/>
<rect x="-7" y="10.6211" width="50.0915" height="97" rx="2.68048" transform="rotate(-3 -7 10.6211)" fill="#C9B18B"/>
<rect x="-6.35156" y="23.002" width="50.0915" height="3.01554" transform="rotate(-3 -6.35156 23.002)" fill="white"/>
<rect x="-6.29883" y="24.0059" width="50.0915" height="1.00518" transform="rotate(-3 -6.29883 24.0059)" fill="#61B9F5"/>
<rect width="50.0915" height="76.5613" transform="translate(-6.19434 26.0117) rotate(-3)" fill="url(#paint0_linear_40000850_50765)"/>
<path d="M5.97789 46.5273L7.16821 52.4344L10.3218 52.8563L9.52783 43.3076L5.97789 46.5273Z" fill="#77C658" stroke="black" stroke-width="0.195452"/>
<path d="M9.36084 55.0593L4.72411 48.7456L2.66873 52.4742L8.12753 57.6683L9.36084 55.0593Z" fill="#77C658" stroke="black" stroke-width="0.195452"/>
<path d="M7.89116 56.8978L2.42684 53.4655L1.26513 57.4408L7.05333 59.5839L7.89116 56.8978Z" fill="#77C658" stroke="black" stroke-width="0.195452"/>
<path d="M6.80201 58.521L1.23926 58.8125L1.48476 63.4969L7.04751 63.2054L6.80201 58.521Z" fill="#77C658" stroke="black" stroke-width="0.195452"/>
<path d="M6.12771 62.4701L1.43777 64.4774C1.49914 65.6485 2.1134 67.4104 2.41286 68.1449L7.12838 66.6256L6.12771 62.4701Z" fill="#77C658" stroke="black" stroke-width="0.195452"/>
<path d="M4.50289 72.5364L8.85403 69.6661L8.15637 65.6904L2.54676 68.8224L4.50289 72.5364Z" fill="#77C658" stroke="black" stroke-width="0.195452"/>
<path d="M7.40408 75.614L10.6152 71.5313L10.4618 68.6036L4.50783 72.6343L7.40408 75.614Z" fill="#77C658" stroke="black" stroke-width="0.195452"/>
<path d="M7.40882 75.7117C9.31499 77.7256 11.99 77.8529 13.0892 77.6648L15.6841 73.0272L11.2571 70.7149C10.4624 71.7351 8.58025 74.1628 7.40882 75.7117Z" fill="#77C658" stroke="black" stroke-width="0.195452"/>
<path d="M9.72729 45.2549L6.37764 48.562L6.76759 50.4009L8.36445 52.8615L10.3214 52.8568L9.72729 45.2549Z" fill="white"/>
<path d="M4.0035 53.6773L5.46309 49.7842L6.30521 50.9144L8.26133 54.6284L7.89612 56.9962L4.0035 53.6773Z" fill="white"/>
<path d="M3.05743 58.0327C3.01243 57.1739 3.56654 55.2985 3.84923 54.4682L5.86756 55.6346L6.62879 59.2956L8.29077 60.7921L5.19299 63.3031L2.84566 63.3282L2.7131 58.9315L4.96578 58.8134C4.29117 58.5619 3.58072 58.28 3.05743 58.0327Z" fill="white"/>
<path d="M10.0441 75.5749C3.37288 71.5208 3.0302 64.9822 2.87123 63.8162L4.5303 63.7292L7.92045 63.0623L14.0411 71.5489L12.7967 77.6815L11.6256 77.7428C11.5263 77.7154 11.3051 77.603 11.2148 77.3729C10.8811 76.6075 10.4549 75.9448 10.0441 75.5749Z" fill="white"/>
<path d="M9.72729 45.2549L6.37764 48.562L6.76759 50.4009L8.36445 52.8615L10.3214 52.8568L9.72729 45.2549Z" stroke="black" stroke-width="0.195452"/>
<path d="M4.0035 53.6773L5.46309 49.7842L6.30521 50.9144L8.26133 54.6284L7.89612 56.9962L4.0035 53.6773Z" stroke="black" stroke-width="0.195452"/>
<path d="M3.05743 58.0327C3.01243 57.1739 3.56654 55.2985 3.84923 54.4682L5.86756 55.6346L6.62879 59.2956L8.29077 60.7921L5.19299 63.3031L2.84566 63.3282L2.7131 58.9315L4.96578 58.8134C4.29117 58.5619 3.58072 58.28 3.05743 58.0327Z" stroke="black" stroke-width="0.195452"/>
<path d="M10.0441 75.5749C3.37288 71.5208 3.0302 64.9822 2.87123 63.8162L4.5303 63.7292L7.92045 63.0623L14.0411 71.5489L12.7967 77.6815L11.6256 77.7428C11.5263 77.7154 11.3051 77.603 11.2148 77.3729C10.8811 76.6075 10.4549 75.9448 10.0441 75.5749Z" stroke="black" stroke-width="0.195452"/>
<path d="M13.7186 44.85C11.128 53.3038 12.4474 56.0726 12.8016 57.2284L14.3874 63.2126L13.7896 72.3449C12.9659 72.8122 11.1091 73.8555 10.2707 74.2908C5.60366 70.3862 4.48205 66.5371 4.50463 65.1006L7.55597 63.5706L4.16071 64.14L3.9817 60.7243L7.0893 60.2679L4.18753 59.0499L4.94864 54.8999C5.28588 55.1105 6.3024 55.7097 7.67057 56.4208C6.34561 55.4138 5.34965 53.2152 5.33431 52.9225C5.31896 52.6297 6.83482 49.8102 7.28698 49.1014C7.56621 49.948 8.75542 51.6015 9.31512 52.3224C9.35318 50.5589 9.44166 46.8943 9.49109 46.3437C9.67093 46.0407 12.6451 44.9062 13.7186 44.85Z" fill="#FE6643" stroke="black" stroke-width="0.195452"/>
<path d="M5.57695 68.7626L8.52047 67.0426" stroke="black" stroke-width="0.195452"/>
<path d="M7.89796 71.9675L10.0454 69.9956" stroke="black" stroke-width="0.195452"/>
<path d="M32.0738 75.7895L29.6962 73.3697L35.8939 59.0509C36.8732 59.0648 39.0466 59.0814 39.9054 59.0364C40.931 66.6549 35.1117 73.3795 32.0738 75.7895Z" fill="#77C658" stroke="black" stroke-width="0.195452"/>
<path d="M38.4468 59.2101C39.6657 66.0356 34.0146 72.3599 31.0367 74.6689L29.5886 73.1791L29.517 71.8128L33.8599 59.4505C34.3428 59.3273 35.9361 59.1068 38.4468 59.2101Z" fill="white" stroke="black" stroke-width="0.195452"/>
<path d="M39.8391 57.767L36.0842 58.9424L32.4733 59.1316L33.9738 56.0193L38.8589 54.0018L39.8391 57.767Z" fill="#77C658" stroke="black" stroke-width="0.195452"/>
<path d="M38.4879 58.1324C38.5704 56.7189 38.0058 55.1567 37.7131 54.5522L35.4118 55.4557L32.2936 57.5763L32.3959 59.5282C34.0738 59.1793 37.6414 58.4117 38.4879 58.1324Z" fill="white" stroke="black" stroke-width="0.195452"/>
<path d="M37.9658 51.8974L33.748 55.4457L32.089 55.5327L31.4472 54.4898C32.6838 52.5657 35.2638 48.5161 35.6913 47.7108C37.1785 49.1986 37.8273 51.1218 37.9658 51.8974Z" fill="#77C658" stroke="black" stroke-width="0.195452"/>
<path d="M34.89 49.2192C35.728 50.2714 36.5433 52.1336 36.8461 52.9333L32.4025 55.9062L31.329 55.9625C32.2112 54.1222 34.1584 50.197 34.89 49.2192Z" fill="white" stroke="black" stroke-width="0.195452"/>
<path d="M34.2229 45.8304L33.4873 50.4684L30.9904 53.2415L30.4688 43.2871C32.9422 44.1752 34.0021 45.3527 34.2229 45.8304Z" fill="#77C658" stroke="black" stroke-width="0.195452"/>
<path d="M30.4531 44.8535C31.9579 45.5575 33.5139 47.2375 34.0376 47.895L33.349 49.6926L30.893 53.2464L30.4531 44.8535Z" fill="white" stroke="black" stroke-width="0.195452"/>
<path d="M36.9369 58.4093C37.461 66.9152 32.4686 72.1155 29.907 73.6525C30.4661 76.8525 26.3506 82.3527 19.7144 82.7005C13.0781 83.0482 12.2986 77.5111 12.2628 76.8279C12.0476 74.5884 12.7823 73.6692 13.0495 73.1659C13.1369 72.9656 12.7265 70.7363 17.4011 68.4363C22.0757 66.1362 24.9826 67.4518 25.5681 67.4211C28.3061 61.406 27.185 49.1017 26.2822 43.7015C27.3796 44.1007 29.7562 45.0069 30.4834 45.4385C30.9392 46.6673 30.8779 49.8542 30.7903 51.2941C31.2356 50.4552 32.2907 48.5536 32.9483 47.658C33.6878 48.3238 34.8276 50.5279 35.3051 51.5467L32.4587 55.121L35.8953 53.473L36.8602 56.9454L33.2284 58.6036L36.9369 58.4093Z" fill="#FE6643" stroke="black" stroke-width="0.195452"/>
<path d="M19.7147 82.7003C13.0784 83.0481 12.2989 77.5109 12.2631 76.8277C14.3948 76.4224 14.2606 79.4631 17.4811 79.2944C20.7016 79.1256 20.8205 75.7921 24.0411 75.6233C26.6175 75.4883 28.2966 76.9008 28.8141 77.624C27.2032 80.1253 23.9795 82.4768 19.7147 82.7003Z" fill="white"/>
<path d="M12.944 63.6797C11.3459 66.7971 12.6649 71.4252 13.4401 73.1461L14.5447 71.816L17.8837 70.1731C18.7568 70.6493 20.5995 71.577 20.9858 71.4784C19.5849 70.1427 18.6633 67.6205 18.3776 66.5264C18.667 66.446 19.4204 66.2564 20.1189 66.1415C20.9921 65.9979 26.3967 60.8217 26.3507 59.9433C26.3047 59.065 25.5397 57.5394 24.6874 56.214C23.835 54.8886 17.0402 52.2111 15.417 52.9812C13.7937 53.7513 11.9288 55.5126 11.2555 57.603C10.5821 59.6933 12.4151 62.9245 12.944 63.6797Z" fill="#FE6643" stroke="black" stroke-width="0.195452"/>
<path d="M14.0489 60.4897C14.4696 62.9141 17.4638 64.0294 19.1689 64.8208L21.1208 64.7185C22.9736 63.3492 26.1831 60.48 24.1985 59.9578C21.7178 59.3049 20.5676 57.8973 18.9447 56.808C17.3219 55.7187 15.6884 56.2936 15.1182 56.6171C14.548 56.9406 13.6283 58.0652 14.0489 60.4897Z" fill="#0E385C" stroke="black" stroke-width="0.195452"/>
<path d="M16.4576 61.6362C17.5256 63.3417 19.3027 63.64 21.7579 63.8049C22.8864 62.9302 24.8701 61.1953 23.777 61.2526C22.4108 61.3242 19.35 58.9402 18.3383 58.3082C17.3266 57.6762 16.669 58.2 16.2888 58.4156C15.9087 58.6313 15.3896 59.9306 16.4576 61.6362Z" fill="white" stroke="black" stroke-width="0.195452"/>
<path d="M19.2971 63.5422C17.52 63.2439 17.7983 59.2171 18.1375 58.2207C18.6562 58.7807 22.1895 60.8463 23.0883 61.1906C22.2146 63.1936 21.0743 63.8405 19.2971 63.5422Z" fill="#FE656E" stroke="black" stroke-width="0.195452"/>
<path d="M20.2172 60.5571C20.3264 60.5514 20.4515 60.6275 20.5596 60.8032C20.6657 60.9755 20.7421 61.2244 20.7569 61.5077C20.7718 61.7909 20.7217 62.0456 20.6343 62.228C20.5451 62.4142 20.4287 62.5028 20.3195 62.5085C20.2103 62.514 20.0861 62.438 19.978 62.2624C19.872 62.0901 19.7956 61.8421 19.7807 61.5588C19.7659 61.2755 19.8159 61.02 19.9033 60.8376C19.9924 60.6519 20.1082 60.563 20.2172 60.5571Z" fill="black" stroke="black" stroke-width="0.195452"/>
<path d="M23.1327 69.5054C23.1276 69.4078 21.6488 67.3324 21.5205 66.752L23.3748 66.6548C23.2958 67.6375 23.1368 69.5835 23.1327 69.5054Z" fill="#94300D" stroke="black" stroke-width="0.195452"/>
<path d="M24.4894 65.5202C23.4624 64.5954 22.0189 65.0625 21.1457 65.2061L20.7191 66.4028C20.7619 66.5963 21.0241 66.9936 21.7309 67.0348C23.4824 66.8452 26.0603 69.3523 26.3531 69.3369C26.3637 67.6728 25.5165 66.445 24.4894 65.5202Z" fill="#F57281" stroke="black" stroke-width="0.195452"/>
<path d="M18.0696 64.3893C17.8638 66.0637 21.2378 68.8227 23.2408 69.6963C22.6245 69.1415 21.2847 65.9823 21.2489 65.2991C23.1803 64.8065 23.3908 65.089 25.6865 65.9473C27.5232 66.6339 29.6941 68.3469 30.55 69.1175C30.9524 68.705 31.5849 67.2039 30.8951 64.5C30.033 61.1201 28.5793 61.392 27.2595 60.4826C25.9396 59.5731 25.8885 58.5973 25.4981 58.6177C25.1078 58.6382 23.6132 58.1293 23.3302 60.1992C23.0473 62.2691 21.5369 63.3269 20.5815 63.7684C19.626 64.2099 18.2597 64.2815 18.0696 64.3893Z" fill="#FEC90E" stroke="black" stroke-width="0.195452"/>
<path d="M24.1768 63.2852C24.7879 63.7424 24.9831 63.7322 25.1011 64.1175" stroke="black" stroke-width="0.195452"/>
<path d="M19.8976 65.6637C20.473 65.4379 21.0432 65.1144 21.6287 65.0837" stroke="black" stroke-width="0.195452"/>
<path d="M14.9444 53.2978C15.9664 54.125 16.9269 53.7811 17.4098 53.6579L19.3884 48.4655C19.5614 48.0324 19.4966 47.1681 17.8529 47.1759C15.7984 47.1857 14.8374 49.389 14.7705 49.9797C14.7036 50.5704 14.8728 51.9315 14.9444 53.2978Z" fill="#FEC90E" stroke="black" stroke-width="0.195452"/>
<path d="M17.219 53.7675C18.5389 54.677 19.597 54.3279 20.3675 54.0918C21.4585 52.5015 23.5501 49.0908 23.1887 48.1702C22.7369 47.0196 21.7508 46.8756 20.6722 46.8342C16.0236 47.7629 17.1525 52.4988 17.219 53.7675Z" fill="#FEC90E" stroke="black" stroke-width="0.195452"/>
<path d="M19.7927 54.3177C20.5219 55.1602 21.9137 55.5766 22.8845 55.4279L24.2308 53.1065C25.7259 51.1362 27.7597 47.2457 23.9341 47.4462C19.1521 47.6968 19.7262 53.049 19.7927 54.3177Z" fill="#FEC90E" stroke="black" stroke-width="0.195452"/>
<path d="M22.412 55.7448C23.0692 57.0804 24.5382 57.1013 25.2213 57.0655C25.1702 56.0889 25.8278 55.5658 26.0076 55.2634C26.213 55.4483 26.9371 56.1933 28.1082 56.1319C30.6066 56.001 31.1905 53.9475 31.1702 52.9371C31.1395 52.3516 30.9253 48.2658 26.9285 48.56C22.3468 48.898 22.3251 54.0857 22.412 55.7448Z" fill="#FEC90E" stroke="black" stroke-width="0.195452"/>
<path d="M28.2006 54.1697C28.8838 54.1339 29.0534 53.6357 29.0227 53.0502C28.992 52.4646 28.7457 51.4989 27.477 51.5654C26.2083 51.6319 25.5712 52.5461 25.607 53.2292C25.6428 53.9123 25.5448 55.7768 27.7122 56.0547" stroke="black" stroke-width="0.195452"/>
<path d="M15.9168 69.9813C15.249 70.3099 13.78 70.289 12.3881 69.8727C12.7883 71.9068 12.9988 72.1893 13.3325 72.9547C14.6988 72.8831 15.6696 72.7343 16.4401 72.4982C17.0565 72.3094 17.8203 71.4473 18.1252 71.0399C18.2604 71.1307 18.7682 71.3585 19.7173 71.5436C20.6665 71.7287 21.0237 71.573 21.0836 71.472L19.615 69.5918L18.7367 69.6378C18.3463 69.6583 17.8345 69.2284 17.6274 69.0109C17.2798 69.2249 16.451 69.7185 15.9168 69.9813Z" fill="#77C658" stroke="black" stroke-width="0.195452"/>
<path d="M7.40949 75.7131L9.2437 73.3662M4.50813 72.6357L7.06129 70.9362M2.54689 68.8241L5.0178 67.4225L2.4135 68.1461" stroke="black" stroke-width="0.195452"/>
<path d="M27.5293 71.2321L31.8737 75.7017M29.8719 69.2499L32.4396 71.5619M31.9721 71.9778L33.9286 73.8325M34.0889 69.4204L36.5231 71.0543M31.208 66.7334L34.4588 69.0096M32.6365 64.1142L35.9439 65.6045M33.2791 61.4383L36.8384 62.1325M36.8742 62.8156L39.8378 63.3453M35.6819 66.2054L38.5887 67.5209" stroke="black" stroke-width="0.195452"/>
</g>
</g>
<defs>
<filter id="filter0_d_40000850_50765" x="-7" y="-1.15055" width="66.3888" height="110.041" filterUnits="userSpaceOnUse" color-interpolation-filters="sRGB">
<feFlood flood-opacity="0" result="BackgroundImageFix"/>
<feColorMatrix in="SourceAlpha" type="matrix" values="0 0 0 0 0 0 0 0 0 0 0 0 0 0 0 0 0 0 127 0" result="hardAlpha"/>
<feOffset dx="6" dy="-4"/>
<feGaussianBlur stdDeviation="2.57527"/>
<feComposite in2="hardAlpha" operator="out"/>
<feColorMatrix type="matrix" values="0 0 0 0 0.784314 0 0 0 0 0.843137 0 0 0 0 0.909804 0 0 0 0.25 0"/>
<feBlend mode="normal" in2="BackgroundImageFix" result="effect1_dropShadow_40000850_50765"/>
<feBlend mode="normal" in="SourceGraphic" in2="effect1_dropShadow_40000850_50765" result="shape"/>
</filter>
<linearGradient id="paint0_linear_40000850_50765" x1="25.0458" y1="0" x2="25.0458" y2="76.5613" gradientUnits="userSpaceOnUse">
<stop stop-color="#FAB917"/>
<stop offset="1" stop-color="#CB8527"/>
</linearGradient>
<clipPath id="clip0_40000850_50765">
<rect width="52" height="104" fill="white"/>
</clipPath>
</defs>
</svg>
