<svg width="52" height="104" viewBox="0 0 52 104" fill="none" xmlns="http://www.w3.org/2000/svg">
<g clip-path="url(#clip0_40000850_50765)">
<g filter="url(#filter0_d_40000850_50765)">
<rect x="-7" y="10.6289" width="50.2178" height="97.2445" rx="2.68724" transform="rotate(-3 -7 10.6289)" fill="#A158ED"/>
<rect x="-6.34961" y="23.041" width="50.2178" height="3.02315" transform="rotate(-3 -6.34961 23.041)" fill="white"/>
<rect x="-6.29688" y="24.0469" width="50.2178" height="1.00772" transform="rotate(-3 -6.29688 24.0469)" fill="#61B9F5"/>
<rect x="-6.19238" y="26.0586" width="50.2178" height="76.7543" transform="rotate(-3 -6.19238 26.0586)" fill="#4D6ECB"/>
<path d="M-4.41602 59.9395L46.5285 72.4901L47.513 91.275L-2.63605 93.9032L-4.41602 59.9395Z" fill="#65612E"/>
<path d="M13.5701 88.345C5.52525 87.0175 -1.11642 81.3783 -3.43164 78.7246L-2.17468 102.709L47.9743 100.081L47.1305 83.9794C39.2957 85.9877 21.615 89.6725 13.5701 88.345Z" fill="#CDB389"/>
<path d="M12.1507 61.3502C11.0068 60.014 11.9486 57.4947 12.1857 55.8715C12.5544 54.0265 12.0735 53.7296 11.9837 52.016C11.8939 50.3025 9.35256 46.8919 7.43653 45.1666C5.5205 43.4414 5.01354 41.9646 6.23694 40.7192C7.46035 39.4738 12.7744 44.5647 14.5778 46.1885C16.3811 47.8122 17.5423 47.4291 19.6505 46.6743C21.7588 45.9195 20.6438 41.038 20.5484 39.2174C20.453 37.3968 20.0475 35.8072 21.8569 35.4976C23.6663 35.188 24.2121 39.455 25.2709 43.2655C26.3297 47.076 27.7159 48.9364 28.6344 50.0695C29.5529 51.2027 29.1806 52.2961 29.0113 53.1641C28.8421 54.032 29.1461 55.7343 29.4164 56.7941C29.6867 57.8538 30.0529 58.6937 30.5542 60.0635C31.0556 61.4333 31.5854 61.2981 32.2729 62.1212C32.9604 62.9443 32.5769 63.8235 32.3908 64.3702C32.2046 64.9169 31.7141 65.8017 31.325 66.5739C30.9359 67.346 30.4285 67.9095 30.2536 68.6704C30.0787 69.4313 29.047 70.2371 28.1902 70.282C27.3335 70.3269 26.3865 70.6987 25.2365 71.2959C24.0865 71.8931 21.635 70.196 21.2969 69.8915C20.9587 69.5871 16.4167 64.8852 15.5151 64.0733C14.6134 63.2615 13.2946 62.6863 12.1507 61.3502Z" fill="#F29600" stroke="black" stroke-width="0.335905"/>
<path d="M19.0981 65.9133C17.9948 65.7188 17.1873 64.752 15.3646 63.6703L15.3734 63.838L19.0139 67.5154L20.6069 69.0297L21.763 70.2304L23.237 71.0782L24.9362 71.4096L26.0883 70.9288L27.4081 70.4391L28.825 70.1967L29.88 69.4687L30.3348 68.5198L29.9994 68.5374L30.7102 67.6593L32.3218 64.7157L32.6576 63.1003L32.2695 62.1116L31.5634 61.4759L30.8486 60.6724L30.2619 59.1054L29.3929 56.9646L29.0889 54.3737L29.0318 53.2835L29.2661 51.3371L28.8823 50.4322L27.4351 48.4898L26.1336 46.1194L25.3751 42.8796L23.8623 38.0815L23.1786 36.2674C22.1726 34.7223 20.4678 35.8881 20.517 36.8273C20.5785 38.0014 20.68 38.3324 20.5518 39.096C20.4236 39.8595 21.0938 43.0199 21.1422 43.9423C21.1905 44.8648 20.7269 45.6459 20.4178 46.1666L20.4178 46.1667C19.8606 47.1055 18.5374 47.1902 18.1181 47.2122C17.7826 47.2298 16.6968 47.3708 16.1936 47.3971C16.3952 47.4987 16.8336 47.7336 16.9748 47.8608C17.1513 48.0197 19.283 48.5807 20.4746 48.8546C21.6662 49.1285 24.928 48.7894 25.7135 49.3369C26.4991 49.8844 27.9683 52.246 28.0386 53.5878C28.1089 54.9296 28.9205 57.578 29.0395 58.2445C29.1585 58.911 29.5555 60.0674 30.3893 61.5374C31.2232 63.0073 31.1306 62.844 30.4992 63.6339C29.8679 64.4238 29.1263 64.715 28.3229 65.4298C27.5194 66.1446 26.7031 65.0101 25.7719 64.8908C24.8406 64.7714 24.6993 65.2833 24.1298 65.6496C23.5604 66.0158 23.1055 66.9646 22.3376 66.7526C21.5697 66.5405 20.2015 66.1077 19.0981 65.9133Z" fill="#D7890A"/>
<path d="M12.1507 61.3502C11.0068 60.014 11.9486 57.4947 12.1857 55.8715C12.5544 54.0265 12.0735 53.7296 11.9837 52.016C11.8939 50.3025 9.35256 46.8919 7.43653 45.1666C5.5205 43.4414 5.01354 41.9646 6.23694 40.7192C7.46035 39.4738 12.7744 44.5647 14.5778 46.1885C16.3811 47.8122 17.5423 47.4291 19.6505 46.6743C21.7588 45.9195 20.6438 41.038 20.5484 39.2174C20.453 37.3968 20.0475 35.8072 21.8569 35.4976C23.6663 35.188 24.2121 39.455 25.2709 43.2655C26.3297 47.076 27.7159 48.9364 28.6344 50.0695C29.5529 51.2027 29.1806 52.2961 29.0113 53.1641C28.8421 54.032 29.1461 55.7343 29.4164 56.7941C29.6867 57.8538 30.0529 58.6937 30.5542 60.0635C31.0556 61.4333 31.5854 61.2981 32.2729 62.1212C32.9604 62.9443 32.5769 63.8235 32.3908 64.3702C32.2046 64.9169 31.7141 65.8017 31.325 66.5739C30.9359 67.346 30.4285 67.9095 30.2536 68.6704C30.0787 69.4313 29.047 70.2371 28.1902 70.282C27.3335 70.3269 26.3865 70.6987 25.2365 71.2959C24.0865 71.8931 21.635 70.196 21.2969 69.8915C20.9587 69.5871 16.4167 64.8852 15.5151 64.0733C14.6134 63.2615 13.2946 62.6863 12.1507 61.3502Z" stroke="black" stroke-width="0.335905"/>
<path d="M15.5908 46.8867C16.1487 47.287 16.7179 47.9015 17.1463 47.8791C17.5747 47.8566 19.0118 48.6404 19.8008 49.3508" stroke="black" stroke-width="0.335905"/>
<path d="M20.9961 68.0819C21.0354 68.8315 21.554 68.4822 21.757 68.2568L21.9806 67.9229C21.8065 67.6396 21.6149 67.3194 21.3684 66.9885C21.2252 66.7964 21.0354 66.5884 20.8174 66.373C20.8639 66.6927 20.9647 67.4821 20.9961 68.0819Z" fill="white"/>
<path d="M23.3437 55.5017C23.5316 55.6708 23.8937 56.1602 23.8394 56.7644M22.5365 60.5913C22.9025 60.1426 23.6417 58.9225 23.6702 57.6324M27.0916 57.3457C27.039 57.0263 26.9904 56.2341 27.216 55.6209M23.8937 65.997C24.1926 65.5518 24.8015 64.8756 25.337 64.8475C25.8724 64.8194 26.1937 64.8026 26.5262 64.9999C26.8587 65.1973 27.2927 65.2819 27.7211 65.2595C28.0638 65.2415 28.4276 65.0793 28.5666 65.0004M25.1335 67.1133C25.1993 67.0025 25.3951 66.7774 25.6522 66.764C25.9735 66.7471 26.306 66.9445 26.4187 67.046M30.5336 65.649L31.5485 64.522M15.1358 60.7644C15.175 61.514 15.1353 62.8048 16.0089 63.0812C16.8825 63.3576 17.3109 63.3351 18.0998 64.0455C18.7259 64.6092 19.9799 65.5456 20.8174 66.373M30.6403 67.6838C30.1385 68.3545 29.4281 69.1434 28.7968 69.3913C28.1654 69.6392 27.3821 69.0359 26.7227 68.7483C26.0633 68.4607 25.5446 68.81 25.0091 68.8381C24.4737 68.8661 23.6281 69.1252 22.9743 68.9447C22.5531 68.8284 22.2957 68.4361 21.9806 67.9229M20.8174 66.373C21.0354 66.5884 21.2252 66.7964 21.3684 66.9885C21.6149 67.3194 21.8065 67.6396 21.9806 67.9229M20.8174 66.373C20.8639 66.6927 20.9647 67.4821 20.9961 68.0819C21.0354 68.8315 21.554 68.4822 21.757 68.2568L21.9806 67.9229" stroke="black" stroke-width="0.335905"/>
<path d="M16.0332 55.3477C16.4352 55.5056 17.5741 56.0616 18.9131 57.0223C20.5869 58.2233 21.2743 59.0464 21.9899 60.4049" stroke="black" stroke-width="0.335905"/>
<path d="M16.252 55.4434L16.4372 58.9775C17.0063 59.592 20.3599 60.0606 21.7522 59.9876C20.1565 57.408 17.4205 55.8833 16.252 55.4434Z" fill="white" stroke="black" stroke-width="0.335905"/>
<path d="M19.1678 59.8009C18.3563 59.0702 18.2139 57.3094 18.2442 56.5203C20.1062 57.6254 21.3606 59.2922 21.755 59.9875C21.073 59.9516 19.6007 59.8641 19.1678 59.8009Z" fill="#008086" stroke="black" stroke-width="0.335905"/>
<circle cx="19.4034" cy="58.1773" r="0.536211" transform="rotate(-3 19.4034 58.1773)" fill="white"/>
<circle cx="19.7524" cy="58.6968" r="0.643453" transform="rotate(-3 19.7524 58.6968)" fill="black"/>
<path d="M27.7296 57.2048C27.6619 57.552 27.7687 58.6346 27.8306 59.1326C28.638 58.1452 29.0918 57.2408 29.2177 56.9121L28.9591 54.0261C28.5775 54.941 27.7973 56.8576 27.7296 57.2048Z" fill="white" stroke="black" stroke-width="0.335905"/>
<path d="M28.7311 57.9042C28.8441 56.7814 28.6133 55.6552 28.4837 55.2324L27.728 57.2051L27.7448 57.5263L27.8346 59.2399C28.0019 59.0163 28.4154 58.4362 28.7311 57.9042Z" fill="#008086" stroke="black" stroke-width="0.335905"/>
<path d="M28.2869 57.6054C28.3004 57.8624 27.943 57.874 27.7627 57.8476L27.7234 57.098C27.7854 56.9157 27.9523 56.549 28.1237 56.54C28.3379 56.5288 28.2701 57.2841 28.2869 57.6054Z" fill="black" stroke="black" stroke-width="0.335905"/>
<rect x="-7" y="10.6211" width="50.0915" height="97" rx="2.68048" transform="rotate(-3 -7 10.6211)" fill="#2D4DDE"/>
<rect x="-6.35156" y="23.002" width="50.0915" height="3.01554" transform="rotate(-3 -6.35156 23.002)" fill="white"/>
<rect x="-6.29883" y="24.0059" width="50.0915" height="1.00518" transform="rotate(-3 -6.29883 24.0059)" fill="#61B9F5"/>
<g clip-path="url(#clip1_40000850_50765)">
<rect x="-6.19336" y="26.0117" width="50.0915" height="76.5613" transform="rotate(-3 -6.19336 26.0117)" fill="url(#paint0_linear_40000850_50765)"/>
<path d="M-0.739734 73.7055L-6.98681 75.5878L-6.91564 102.606L50.2466 100.367L48.0331 75.7721L35.258 73.3738L34.0247 74.6992L27.4628 73.7824L22.4692 73.1195L15.351 74.4171L-0.739734 73.7055Z" fill="#4C3826"/>
<path d="M18.6281 69.8002L-4.34124 74.1558L-3.85804 83.3759L-3.54835 89.2852L29.3141 91.6758L48.5801 82.0265L48.2207 75.1671L28.0823 68.1701L18.6281 69.8002Z" fill="#625953"/>
<path d="M2.19187 81.6677L5.19496 85.1374C5.4436 85.2149 5.71613 85.3208 5.9534 85.4467C6.19603 85.5755 6.41857 85.7349 6.52975 85.9201C6.58716 86.0158 6.61807 86.1237 6.6002 86.2382C6.58235 86.3518 6.51926 86.4577 6.4173 86.5548C6.26711 86.6978 6.01992 86.8337 5.65737 86.9633L5.25432 87.091C2.87161 87.7653 0.489596 86.9309 -0.408286 86.4275L-0.501022 86.3747L-0.451213 86.2801L2.01397 81.6878L2.08878 81.5479L2.19187 81.6677Z" fill="#FFF5A0" stroke="black" stroke-width="0.218164"/>
<path d="M1.37808 85.8355L2.11019 81.7396L5.13356 85.2329C6.14154 85.5408 5.22545 86.9864 5.22545 86.9864C4.81374 86.8727 2.26061 86.3303 1.37808 85.8355Z" fill="#F15850"/>
<path d="M41.3675 79.6137L38.7435 83.3783C38.5044 83.4814 38.2444 83.6152 38.0216 83.7652C37.7937 83.9187 37.5891 84.1005 37.4979 84.2963C37.4508 84.3974 37.4313 84.5079 37.461 84.62C37.4907 84.7311 37.5645 84.8299 37.676 84.9158C37.8952 85.0845 38.2849 85.2231 38.8887 85.3275C41.176 85.7226 43.3239 84.7993 44.2761 84.1924L44.4509 84.0757L44.5376 84.0134L44.4782 83.9246L41.5465 79.6151L41.4575 79.4838L41.3675 79.6137Z" fill="#FFF5A0" stroke="black" stroke-width="0.218164"/>
<path d="M42.6125 83.6734L41.4562 79.6764L38.8146 83.4667C37.8443 83.8782 38.9065 85.2201 38.9065 85.2201C39.304 85.0641 41.7865 84.2577 42.6125 83.6734Z" fill="#F15850"/>
<path fill-rule="evenodd" clip-rule="evenodd" d="M20.6929 59.5304L37.7875 57.9582L45.7101 56.8668C45.3929 57.6949 44.2812 59.5385 42.3729 60.2877C44.0993 60.1972 45.9509 59.7395 46.6608 59.522C46.3388 60.2602 45.4265 61.7777 44.3531 61.9422C46.781 61.815 49.0669 61.5599 49.5923 61.2619C50.1177 60.9638 48.2777 67.1466 42.4848 67.5854C43.224 67.8574 43.9455 68.1699 44.5924 68.4501C45.6351 68.9017 46.4838 69.2694 46.9 69.2476C47.5745 69.2122 44.8621 71.6537 41.1991 71.4399C42.3819 72.085 43.2737 72.6875 43.8269 73.0614C44.1203 73.2596 44.3186 73.3935 44.4145 73.4354C44.6913 73.5561 41.3545 74.4073 38.6428 74.2789C36.4734 74.1762 30.6682 75.2378 28.0367 75.7815C27.9678 77.0474 27.8697 79.8207 28.0285 80.7862C28.227 81.9931 28.6664 85.2161 28.2046 86.7281C27.8359 84.8539 27.0767 83.2707 26.9347 83.1428C26.9478 83.1854 26.9613 83.2284 26.9749 83.272C27.3036 84.3184 27.7401 85.7082 24.5905 90.0283L24.3855 86.1167C24.1794 87.3448 22.6951 89.9924 22.2975 90.1485L22.2975 90.1486C21.8858 90.0349 20.1329 87.557 19.7996 86.3572L20.0045 90.2687C16.4207 86.3015 16.7095 84.8737 16.927 83.7987C16.936 83.7539 16.945 83.7097 16.9535 83.666C16.8257 83.808 16.2361 85.4619 16.0653 87.3644C15.448 85.909 15.5481 82.6577 15.6194 81.4367C15.6764 80.4599 15.2889 77.712 15.0881 76.4602C12.4142 76.1946 6.52975 75.7455 4.38299 76.0744C1.69956 76.4856 -1.70793 75.9879 -1.44524 75.8389C-1.35421 75.7872 -1.17109 75.6333 -0.900018 75.4055C-0.388842 74.9759 0.435083 74.2834 1.54393 73.5182C-2.07666 74.1137 -5.02934 71.9692 -4.35493 71.9338C-3.93872 71.912 -3.13306 71.4577 -2.14325 70.8995C-1.52924 70.5532 -0.844362 70.167 -0.137635 69.8193C-5.94461 69.9884 -8.42081 64.0318 -7.86715 64.2733C-7.31348 64.5148 -5.01343 64.5295 -2.58556 64.4022C-3.67027 64.3509 -4.73621 62.937 -5.1336 62.2365C-4.40481 62.3786 -2.5156 62.6403 -0.789115 62.5498C-2.76534 62.0042 -4.06359 60.2869 -4.46569 59.4964L3.52767 59.7538L20.6929 59.5305L20.6929 59.5304Z" fill="#EEF0E3"/>
<path d="M37.7875 57.9582L37.7975 58.067L37.8024 58.0663L37.7875 57.9582ZM20.6929 59.5304L20.6829 59.4217L20.5784 59.4314L20.5839 59.5361L20.6929 59.5304ZM45.7101 56.8668L45.812 56.9058L45.878 56.7335L45.6952 56.7587L45.7101 56.8668ZM42.3729 60.2877L42.333 60.1862L42.3786 60.3966L42.3729 60.2877ZM46.6608 59.522L46.7608 59.5656L46.8556 59.3482L46.6288 59.4177L46.6608 59.522ZM44.3531 61.9422L44.3366 61.8344L44.3588 62.0511L44.3531 61.9422ZM49.5923 61.2619L49.5385 61.167L49.5923 61.2619ZM42.4848 67.5854L42.4766 67.4767L42.4472 67.6878L42.4848 67.5854ZM44.5924 68.4501L44.6357 68.35L44.5924 68.4501ZM41.1991 71.4399L41.2055 71.331L41.1469 71.5356L41.1991 71.4399ZM43.8269 73.0614L43.888 72.971L43.8269 73.0614ZM38.6428 74.2789L38.648 74.1699L38.6428 74.2789ZM28.0367 75.7815L28.0146 75.6747L27.9323 75.6917L27.9278 75.7756L28.0367 75.7815ZM28.0285 80.7862L27.9208 80.8039L28.0285 80.7862ZM28.2046 86.7281L28.0976 86.7491L28.309 86.76L28.2046 86.7281ZM26.9347 83.1428L27.0077 83.0618L26.715 82.7983L26.8304 83.1748L26.9347 83.1428ZM26.9749 83.272L26.8709 83.3047L26.8709 83.3047L26.9749 83.272ZM24.5905 90.0283L24.4816 90.034L24.4977 90.3408L24.6787 90.0926L24.5905 90.0283ZM24.3855 86.1167L24.4945 86.111L24.278 86.0987L24.3855 86.1167ZM22.2975 90.1485L22.2577 90.0469L22.1993 90.0698L22.1897 90.1318L22.2975 90.1485ZM22.2975 90.1486L22.2685 90.2537L22.3867 90.2863L22.4053 90.1652L22.2975 90.1486ZM19.7996 86.3572L19.9046 86.328L19.6906 86.3629L19.7996 86.3572ZM20.0045 90.2687L19.9236 90.3418L20.1296 90.5698L20.1135 90.263L20.0045 90.2687ZM16.927 83.7987L17.0339 83.8203L16.927 83.7987ZM16.9535 83.666L17.0605 83.6869L17.1359 83.3004L16.8724 83.593L16.9535 83.666ZM16.0653 87.3644L15.9649 87.407L16.1739 87.3741L16.0653 87.3644ZM15.6194 81.4367L15.7283 81.443L15.6194 81.4367ZM15.0881 76.4602L15.1958 76.4429L15.1825 76.3599L15.0988 76.3516L15.0881 76.4602ZM4.38299 76.0744L4.36648 75.9666L4.38299 76.0744ZM-1.44524 75.8389L-1.39142 75.9338L-1.39142 75.9338L-1.44524 75.8389ZM-0.900018 75.4055L-0.970203 75.322L-0.970203 75.322L-0.900018 75.4055ZM1.54393 73.5182L1.60589 73.608L1.52623 73.4106L1.54393 73.5182ZM-2.14325 70.8995L-2.19684 70.8045L-2.14325 70.8995ZM-0.137635 69.8193L-0.0894784 69.9171L-0.14081 69.7102L-0.137635 69.8193ZM-7.86715 64.2733L-7.82354 64.1733L-7.82354 64.1733L-7.86715 64.2733ZM-2.58556 64.4022L-2.57985 64.5112L-2.5804 64.2933L-2.58556 64.4022ZM-5.1336 62.2365L-5.11272 62.1294L-5.3455 62.084L-5.22848 62.2903L-5.1336 62.2365ZM-0.789115 62.5498L-0.783406 62.6587L-0.760084 62.4447L-0.789115 62.5498ZM-4.46569 59.4964L-4.46218 59.3874L-4.64655 59.3815L-4.56291 59.5459L-4.46569 59.4964ZM3.52767 59.7538L3.52415 59.8629L3.52909 59.8629L3.52767 59.7538ZM20.6929 59.5305L20.6943 59.6395L20.8077 59.6381L20.8018 59.5247L20.6929 59.5305ZM37.7775 57.8496L20.6829 59.4217L20.7029 59.639L37.7975 58.0668L37.7775 57.8496ZM45.6952 56.7587L37.7726 57.8502L37.8024 58.0663L45.725 56.9748L45.6952 56.7587ZM42.4127 60.3892C44.3603 59.6246 45.4887 57.7497 45.812 56.9058L45.6083 56.8277C45.297 57.6401 44.2021 59.4523 42.333 60.1862L42.4127 60.3892ZM46.6288 59.4177C45.9241 59.6336 44.0818 60.0889 42.3672 60.1788L42.3786 60.3966C44.1169 60.3055 45.9776 59.8454 46.6928 59.6263L46.6288 59.4177ZM44.3696 62.05C44.9478 61.9614 45.4664 61.5137 45.8732 61.0163C46.2831 60.515 46.5966 59.942 46.7608 59.5656L46.5608 59.4784C46.403 59.8401 46.0993 60.3951 45.7043 60.8782C45.306 61.3652 44.8318 61.7585 44.3366 61.8344L44.3696 62.05ZM49.5385 61.167C49.4236 61.2322 49.1976 61.3013 48.8712 61.3692C48.5491 61.4362 48.1414 61.4996 47.6727 61.5578C46.7354 61.6743 45.5596 61.7697 44.3474 61.8333L44.3588 62.0511C45.5744 61.9874 46.7556 61.8917 47.6996 61.7743C48.1714 61.7157 48.5855 61.6514 48.9156 61.5828C49.2415 61.515 49.4983 61.4406 49.6461 61.3567L49.5385 61.167ZM42.4931 67.6942C45.4312 67.4716 47.3657 65.7914 48.4966 64.2108C49.0619 63.4207 49.4285 62.6527 49.621 62.0983C49.7168 61.8224 49.7716 61.5936 49.784 61.4387C49.7898 61.3666 49.7887 61.2892 49.761 61.2316C49.7452 61.199 49.7145 61.1602 49.6613 61.1468C49.6113 61.1341 49.5672 61.1507 49.5385 61.167L49.6461 61.3567C49.6502 61.3544 49.6343 61.365 49.6078 61.3583C49.5781 61.3508 49.5661 61.3299 49.5644 61.3263C49.5632 61.3238 49.5661 61.3291 49.5677 61.348C49.5691 61.3656 49.5691 61.3898 49.5666 61.4213C49.5563 61.5492 49.5083 61.7579 49.415 62.0267C49.2293 62.5614 48.8723 63.3107 48.3192 64.0838C47.2131 65.6298 45.3313 67.2604 42.4766 67.4767L42.4931 67.6942ZM44.6357 68.35C43.9893 68.07 43.265 67.7562 42.5225 67.4831L42.4472 67.6878C43.183 67.9585 43.9018 68.2698 44.549 68.5502L44.6357 68.35ZM46.8943 69.1386C46.7117 69.1482 46.4155 69.0704 46.0189 68.924C45.6278 68.7797 45.158 68.5762 44.6357 68.35L44.549 68.5502C45.0694 68.7756 45.5454 68.9818 45.9434 69.1287C46.3359 69.2736 46.6722 69.3687 46.9058 69.3565L46.8943 69.1386ZM41.1928 71.5488C43.0495 71.6571 44.6637 71.0928 45.7287 70.5062C46.2606 70.2132 46.6604 69.9121 46.8867 69.6817C46.9435 69.6239 46.9909 69.569 47.027 69.5185C47.0621 69.4695 47.0911 69.4184 47.1044 69.3685C47.1176 69.3188 47.1202 69.2459 47.0636 69.1906C47.0138 69.1421 46.9455 69.136 46.8943 69.1386L46.9058 69.3565C46.9389 69.3548 46.9284 69.3635 46.9112 69.3468C46.8872 69.3233 46.8971 69.299 46.8935 69.3123C46.8901 69.3253 46.8782 69.3515 46.8495 69.3916C46.8219 69.4303 46.7826 69.4764 46.7311 69.5288C46.524 69.7396 46.1432 70.0288 45.6235 70.3151C44.5852 70.8869 43.0117 71.4364 41.2055 71.331L41.1928 71.5488ZM43.888 72.971C43.3343 72.5968 42.4389 71.9918 41.2513 71.3441L41.1469 71.5356C42.3248 72.1781 43.2131 72.7782 43.7659 73.1518L43.888 72.971ZM44.4581 73.3354C44.4195 73.3186 44.3531 73.2795 44.254 73.2154C44.1569 73.1527 44.0351 73.0704 43.888 72.971L43.7659 73.1518C43.9122 73.2506 44.0362 73.3344 44.1355 73.3986C44.2329 73.4616 44.3135 73.5104 44.3709 73.5354L44.4581 73.3354ZM38.6376 74.3878C40.005 74.4526 41.5262 74.2705 42.6693 74.0578C43.2411 73.9514 43.721 73.8369 44.0421 73.7407C44.2012 73.693 44.3268 73.6482 44.4055 73.6094C44.4255 73.5995 44.4445 73.589 44.4611 73.5779C44.4764 73.5677 44.4959 73.5529 44.5115 73.5328C44.5265 73.5133 44.5518 73.4691 44.5334 73.4142C44.5169 73.3647 44.4762 73.3433 44.4581 73.3354L44.3709 73.5354C44.3701 73.535 44.3396 73.5226 44.3265 73.4834C44.3116 73.4387 44.3336 73.4062 44.3387 73.3996C44.3443 73.3922 44.3474 73.3915 44.34 73.3965C44.3339 73.4006 44.3238 73.4064 44.3089 73.4138C44.2475 73.4441 44.1366 73.4846 43.9795 73.5317C43.668 73.625 43.1962 73.7379 42.6294 73.8433C41.4954 74.0543 39.9923 74.2336 38.648 74.1699L38.6376 74.3878ZM28.0588 75.8883C29.3731 75.6168 31.4805 75.2158 33.5299 74.8956C35.5832 74.5747 37.5659 74.3371 38.6376 74.3878L38.648 74.1699C37.5504 74.118 35.5457 74.3598 33.4962 74.68C31.4427 75.0009 29.3317 75.4025 28.0146 75.6747L28.0588 75.8883ZM28.1361 80.7685C28.0586 80.297 28.043 79.3722 28.0563 78.398C28.0695 77.4276 28.1112 76.4192 28.1456 75.7874L27.9278 75.7756C27.8933 76.4097 27.8514 77.421 27.8381 78.395C27.8249 79.3653 27.8396 80.31 27.9208 80.8039L28.1361 80.7685ZM28.309 86.76C28.5463 85.9828 28.5499 84.7807 28.473 83.6354C28.3957 82.4851 28.2357 81.374 28.1361 80.7685L27.9208 80.8039C28.0198 81.4054 28.1787 82.5091 28.2553 83.6501C28.3323 84.796 28.3247 85.9614 28.1003 86.6962L28.309 86.76ZM26.8617 83.2239C26.8613 83.2235 26.8669 83.229 26.8792 83.2464C26.8904 83.2624 26.9044 83.2842 26.9211 83.3123C26.9543 83.3684 26.9957 83.4455 27.0434 83.5418C27.1387 83.7343 27.2572 83.9998 27.3831 84.3204C27.6349 84.9618 27.9148 85.8198 28.0976 86.7491L28.3117 86.707C28.1258 85.7622 27.8417 84.8915 27.5862 84.2407C27.4584 83.9153 27.3374 83.6439 27.2389 83.445C27.1897 83.3456 27.1457 83.2634 27.1088 83.2011C27.0748 83.1437 27.0397 83.0906 27.0077 83.0618L26.8617 83.2239ZM27.079 83.2393C27.0653 83.1957 27.0519 83.153 27.039 83.1109L26.8304 83.1748C26.8436 83.2178 26.8572 83.2611 26.8709 83.3047L27.079 83.2393ZM24.6787 90.0926C26.2568 87.9279 26.9448 86.4867 27.1932 85.4479C27.4435 84.401 27.2454 83.7691 27.079 83.2393L26.8709 83.3047C27.0331 83.8213 27.2176 84.4075 26.981 85.3971C26.7424 86.3949 26.0738 87.8086 24.5024 89.964L24.6787 90.0926ZM24.2766 86.1224L24.4816 90.034L24.6995 90.0226L24.4945 86.111L24.2766 86.1224ZM22.3374 90.25C22.379 90.2337 22.4189 90.2051 22.4555 90.1735C22.4933 90.141 22.5333 90.1 22.5748 90.0529C22.6579 89.9586 22.7521 89.8336 22.8525 89.687C23.0537 89.3935 23.285 89.0059 23.5095 88.586C23.9565 87.7503 24.3869 86.7678 24.4931 86.1348L24.278 86.0987C24.1781 86.6937 23.7632 87.6491 23.3171 88.4831C23.0952 88.8982 22.868 89.2785 22.6725 89.5637C22.5747 89.7065 22.4861 89.8235 22.4111 89.9087C22.3736 89.9513 22.3408 89.9844 22.313 90.0084C22.284 90.0334 22.2658 90.0437 22.2577 90.0469L22.3374 90.25ZM22.1897 90.1318L22.1897 90.1319L22.4053 90.1652L22.4054 90.1651L22.1897 90.1318ZM22.3266 90.0434C22.3181 90.0411 22.2989 90.0327 22.2675 90.0108C22.2374 89.9899 22.2013 89.9604 22.1595 89.922C22.076 89.8451 21.9757 89.738 21.8635 89.6062C21.6393 89.343 21.3736 88.9885 21.1095 88.5989C20.5786 87.8161 20.0662 86.9093 19.9046 86.328L19.6944 86.3864C19.8663 87.0048 20.397 87.9369 20.9289 88.7214C21.1961 89.1155 21.4666 89.4768 21.6974 89.7476C21.8126 89.8829 21.9193 89.9974 22.0118 90.0825C22.058 90.125 22.1021 90.1616 22.1431 90.19C22.1827 90.2176 22.2255 90.2418 22.2685 90.2537L22.3266 90.0434ZM19.6906 86.3629L19.8956 90.2744L20.1135 90.263L19.9085 86.3515L19.6906 86.3629ZM20.0855 90.1956C18.2974 88.2162 17.4847 86.8801 17.1431 85.9128C16.8043 84.9534 16.9265 84.351 17.0339 83.8203L16.82 83.777C16.7099 84.3214 16.579 84.9705 16.9374 85.9855C17.293 86.9926 18.1278 88.354 19.9236 90.3418L20.0855 90.1956ZM17.0339 83.8203C17.0429 83.7756 17.0519 83.7311 17.0605 83.6869L16.8464 83.6451C16.838 83.6884 16.8291 83.7322 16.82 83.777L17.0339 83.8203ZM16.8724 83.593C16.8436 83.625 16.8143 83.6816 16.7865 83.7422C16.7563 83.808 16.7211 83.8944 16.6825 83.9983C16.6053 84.2064 16.5134 84.489 16.4203 84.826C16.2343 85.4999 16.0427 86.3955 15.9566 87.3546L16.1739 87.3741C16.2586 86.4307 16.4473 85.5482 16.6306 84.884C16.7223 84.552 16.8124 84.2755 16.8871 84.0742C16.9244 83.9734 16.9576 83.8924 16.9848 83.8332C16.9984 83.8035 17.01 83.7803 17.0195 83.7632C17.03 83.7446 17.035 83.7385 17.0345 83.739L16.8724 83.593ZM16.1657 87.3218C15.8657 86.6145 15.7364 85.4562 15.6931 84.3085C15.6501 83.1658 15.6928 82.0515 15.7283 81.443L15.5105 81.4303C15.4747 82.0428 15.4317 83.1646 15.4751 84.3167C15.5183 85.4638 15.6476 86.6589 15.9649 87.407L16.1657 87.3218ZM15.7283 81.443C15.7574 80.9433 15.6734 80.0023 15.5587 79.0387C15.4437 78.0714 15.2964 77.0699 15.1958 76.4429L14.9804 76.4775C15.0806 77.1022 15.2275 78.1007 15.3421 79.0644C15.4572 80.0319 15.5383 80.9533 15.5105 81.4303L15.7283 81.443ZM15.0988 76.3516C13.7605 76.2187 11.6191 76.0399 9.54334 75.9354C7.47158 75.8312 5.45263 75.8002 4.36648 75.9666L4.39952 76.1823C5.46011 76.0198 7.45675 76.0489 9.53237 76.1533C11.6039 76.2575 13.7417 76.4361 15.0773 76.5687L15.0988 76.3516ZM4.36648 75.9666C3.03615 76.1704 1.52259 76.1493 0.372712 76.058C-0.201988 76.0124 -0.68307 75.9494 -1.00254 75.8892C-1.16371 75.8588 -1.27824 75.8301 -1.34249 75.8063C-1.35813 75.8006 -1.3687 75.7958 -1.37522 75.7924C-1.38314 75.7882 -1.37998 75.7886 -1.3736 75.7953C-1.36783 75.8014 -1.34256 75.8315 -1.35275 75.8775C-1.3617 75.9178 -1.39068 75.9334 -1.39142 75.9338L-1.49906 75.744C-1.51621 75.7537 -1.55445 75.7793 -1.56574 75.8302C-1.57829 75.8868 -1.54847 75.9281 -1.53151 75.9459C-1.51395 75.9643 -1.49298 75.977 -1.47672 75.9855C-1.45906 75.9948 -1.43909 76.0032 -1.41809 76.011C-1.33579 76.0414 -1.20625 76.0728 -1.04298 76.1036C-0.71357 76.1657 -0.224319 76.2294 0.355446 76.2755C1.5145 76.3675 3.0464 76.3896 4.39952 76.1823L4.36648 75.9666ZM-1.39142 75.9338C-1.33702 75.9029 -1.26189 75.8459 -1.17167 75.7732C-1.07957 75.6989 -0.965044 75.6027 -0.829834 75.489L-0.970203 75.322C-1.10606 75.4362 -1.21863 75.5308 -1.30861 75.6034C-1.40048 75.6774 -1.46243 75.7232 -1.49906 75.744L-1.39142 75.9338ZM-0.829834 75.489C-0.319098 75.0598 0.501534 74.3701 1.60589 73.608L1.48198 73.4284C0.368632 74.1967 -0.458585 74.892 -0.970203 75.322L-0.829834 75.489ZM1.52623 73.4106C-0.259133 73.7042 -1.88142 73.3222 -2.97378 72.8621C-3.52062 72.6317 -3.92954 72.3839 -4.1575 72.1959C-4.21421 72.1491 -4.25811 72.1074 -4.28965 72.0718C-4.32236 72.0349 -4.33688 72.0101 -4.34171 71.9975C-4.34661 71.9847 -4.33421 72.0078 -4.35569 72.0337C-4.37101 72.0521 -4.38237 72.0445 -4.34922 72.0428L-4.36064 71.8249C-4.4118 71.8276 -4.47912 71.8408 -4.52352 71.8943C-4.57407 71.9552 -4.56385 72.0274 -4.54549 72.0754C-4.52704 72.1237 -4.49286 72.1715 -4.45285 72.2166C-4.41168 72.263 -4.35886 72.3126 -4.2963 72.3642C-4.04716 72.5696 -3.61808 72.8274 -3.05847 73.0631C-1.93795 73.5351 -0.273592 73.9277 1.56164 73.6258L1.52623 73.4106ZM-4.34922 72.0428C-4.11563 72.0305 -3.79112 71.9007 -3.41593 71.7156C-3.03547 71.5279 -2.58369 71.2731 -2.08967 70.9945L-2.19684 70.8045C-2.69262 71.0841 -3.13857 71.3355 -3.51245 71.52C-3.89159 71.707 -4.17802 71.8153 -4.36064 71.8249L-4.34922 72.0428ZM-2.08967 70.9945C-1.47528 70.648 -0.793019 70.2633 -0.0894784 69.9171L-0.185792 69.7214C-0.895704 70.0707 -1.58319 70.4584 -2.19684 70.8045L-2.08967 70.9945ZM-0.14081 69.7102C-3.00245 69.7936 -5.04448 68.3686 -6.30603 66.9467C-6.93696 66.2356 -7.37027 65.5277 -7.61085 65.0154C-7.73177 64.7578 -7.80135 64.5553 -7.82493 64.4291C-7.83073 64.3981 -7.8333 64.374 -7.83367 64.3563C-7.83407 64.3374 -7.83178 64.3319 -7.83268 64.3344C-7.83405 64.3382 -7.84375 64.3602 -7.87252 64.3708C-7.8982 64.3802 -7.91506 64.3714 -7.91076 64.3733L-7.82354 64.1733C-7.85384 64.1601 -7.89938 64.1482 -7.94781 64.166C-7.99933 64.185 -8.02585 64.2267 -8.03807 64.2608C-8.05961 64.321 -8.05267 64.3981 -8.03938 64.4692C-8.01084 64.6219 -7.93243 64.8438 -7.80833 65.1081C-7.55887 65.6394 -7.11401 66.3648 -6.46922 67.0915C-5.17935 68.5453 -3.07979 70.0141 -0.134461 69.9283L-0.14081 69.7102ZM-7.91076 64.3733C-7.75499 64.4412 -7.49182 64.4884 -7.16066 64.5217C-6.82517 64.5555 -6.40665 64.5761 -5.93125 64.5851C-4.98017 64.6031 -3.79546 64.5749 -2.57985 64.5112L-2.59127 64.2933C-3.80353 64.3568 -4.98278 64.3849 -5.92711 64.367C-6.39941 64.358 -6.81147 64.3376 -7.13882 64.3047C-7.47051 64.2713 -7.70247 64.2261 -7.82354 64.1733L-7.91076 64.3733ZM-2.5804 64.2933C-3.08079 64.2696 -3.59357 63.928 -4.04056 63.4853C-4.48395 63.0461 -4.84399 62.5259 -5.03872 62.1827L-5.22848 62.2903C-5.02582 62.6476 -4.6542 63.1846 -4.19409 63.6403C-3.73759 64.0925 -3.17504 64.4835 -2.59072 64.5112L-2.5804 64.2933ZM-5.15448 62.3436C-4.42035 62.4867 -2.52171 62.7498 -0.783406 62.6587L-0.794824 62.4409C-2.50949 62.5307 -4.38926 62.2705 -5.11272 62.1294L-5.15448 62.3436ZM-0.760084 62.4447C-2.69567 61.9102 -3.97401 60.2224 -4.36846 59.447L-4.56291 59.5459C-4.15317 60.3514 -2.83501 62.0981 -0.818147 62.655L-0.760084 62.4447ZM-4.4692 59.6055L3.52416 59.8628L3.53118 59.6448L-4.46218 59.3874L-4.4692 59.6055ZM3.52909 59.8629L20.6943 59.6395L20.6915 59.4214L3.52625 59.6447L3.52909 59.8629ZM20.5839 59.5361L20.5839 59.5362L20.8018 59.5247L20.8018 59.5247L20.5839 59.5361Z" fill="black"/>
<path fill-rule="evenodd" clip-rule="evenodd" d="M20.3181 52.3813L25.6633 53.7242L31.7247 58.4108L31.3825 64.7856L25.6457 68.8733L21.1946 69.1066L16.7435 69.3399L10.6108 65.8742L9.60419 59.5701L15.1425 54.2756L20.3181 52.3813L20.3181 52.3813L20.3181 52.3813Z" fill="url(#paint1_radial_40000850_50765)"/>
<path fill-rule="evenodd" clip-rule="evenodd" d="M19.6154 36.8664C19.5782 36.8672 19.5411 36.8685 19.5039 36.8705L19.5043 36.8774C15.5446 37.3302 12.0018 44.3989 12.2934 49.9622L13.9255 52.717L20.5347 52.3706L20.5347 52.3704L26.926 52.0355L28.2613 49.1252C27.9697 43.5619 23.7075 36.9022 19.7221 36.8658L19.7218 36.8592C19.6863 36.8611 19.6509 36.8635 19.6154 36.8664Z" fill="#EEF0E3"/>
<path d="M19.5039 36.8705L19.4982 36.7616L19.3893 36.7673L19.395 36.8762L19.5039 36.8705ZM19.6154 36.8664L19.6177 36.9757L19.6244 36.9751L19.6154 36.8664ZM19.5043 36.8774L19.5167 36.9858L19.6186 36.9741L19.6132 36.8717L19.5043 36.8774ZM12.2934 49.9622L12.1845 49.9679L12.1859 49.9947L12.1995 50.0178L12.2934 49.9622ZM13.9255 52.717L13.8317 52.7726L13.8653 52.8294L13.9312 52.8259L13.9255 52.717ZM20.5347 52.3706L20.5404 52.4795L20.6494 52.4738L20.6437 52.3649L20.5347 52.3706ZM20.5347 52.3704L20.529 52.2615L20.4201 52.2672L20.4258 52.3762L20.5347 52.3704ZM26.926 52.0355L26.9317 52.1444L26.9976 52.141L27.0252 52.081L26.926 52.0355ZM28.2613 49.1252L28.3604 49.1707L28.3716 49.1463L28.3702 49.1195L28.2613 49.1252ZM19.7221 36.8658L19.6132 36.8715L19.6186 36.9739L19.7211 36.9749L19.7221 36.8658ZM19.7218 36.8592L19.8307 36.8535L19.825 36.7446L19.7161 36.7503L19.7218 36.8592ZM19.5096 36.9794C19.5456 36.9775 19.5816 36.9762 19.6177 36.9755L19.6132 36.7574C19.5748 36.7582 19.5365 36.7596 19.4982 36.7616L19.5096 36.9794ZM19.6132 36.8717L19.6128 36.8648L19.395 36.8762L19.3953 36.8831L19.6132 36.8717ZM19.4919 36.769C18.4718 36.8857 17.4874 37.4271 16.5922 38.2503C15.6966 39.0739 14.8847 40.1845 14.2084 41.452C12.8563 43.986 12.0375 47.1636 12.1845 49.9679L12.4023 49.9565C12.2577 47.1975 13.0645 44.0591 14.4008 41.5547C15.0687 40.3031 15.8667 39.2139 16.7399 38.4109C17.6136 37.6075 18.5569 37.0955 19.5167 36.9858L19.4919 36.769ZM12.1995 50.0178L13.8317 52.7726L14.0194 52.6614L12.3872 49.9066L12.1995 50.0178ZM13.9312 52.8259L20.5404 52.4795L20.529 52.2617L13.9198 52.608L13.9312 52.8259ZM20.6437 52.3649L20.6436 52.3647L20.4258 52.3762L20.4258 52.3763L20.6437 52.3649ZM26.9203 51.9266L20.529 52.2615L20.5404 52.4794L26.9317 52.1444L26.9203 51.9266ZM28.1621 49.0797L26.8269 51.99L27.0252 52.081L28.3604 49.1707L28.1621 49.0797ZM19.7211 36.9749C20.6872 36.9837 21.6788 37.3943 22.6317 38.1019C23.5841 38.8093 24.4915 39.8091 25.2865 40.9841C26.8773 43.335 28.0077 46.3719 28.1523 49.1309L28.3702 49.1195C28.2232 46.3152 27.0768 43.2406 25.4672 40.8618C24.6621 39.6719 23.7385 38.6522 22.7617 37.9268C21.7854 37.2017 20.7498 36.7661 19.7231 36.7567L19.7211 36.9749ZM19.8311 36.8601L19.8307 36.8535L19.6129 36.8649L19.6132 36.8715L19.8311 36.8601ZM19.7161 36.7503C19.6795 36.7522 19.643 36.7547 19.6064 36.7577L19.6244 36.9751C19.6588 36.9723 19.6931 36.97 19.7275 36.9682L19.7161 36.7503Z" fill="black"/>
<path fill-rule="evenodd" clip-rule="evenodd" d="M19.7526 41.5906C19.7646 41.6037 21.7612 43.7878 21.8176 44.8636C21.8145 45.6728 20.0953 47.9162 20.0848 47.9299L20.0848 47.93C20.0848 47.93 20.0848 47.9299 20.0848 47.9299C20.0848 47.9299 20.0848 47.9299 20.0848 47.9299L20.0848 47.9299C20.0729 47.9174 18.1287 45.866 18.041 45.0615C17.9846 43.9857 19.742 41.6049 19.7526 41.5906L19.7525 41.5905C19.7525 41.5905 19.7526 41.5905 19.7526 41.5905C19.7526 41.5905 19.7526 41.5905 19.7526 41.5905L19.7526 41.5906Z" fill="#F15850"/>
<path d="M2.74768 55.1959C-0.162012 51.2908 -0.344655 42.6443 -0.180925 40.6069C3.78895 39.9661 8.58128 41.7707 10.4812 42.7532L14.3475 54.588L11.2941 58.2646L8.76672 59.0733C7.73027 59.0825 5.07544 58.32 2.74768 55.1959Z" fill="#EEF0E3" stroke="black" stroke-width="0.218164"/>
<path d="M37.9518 53.3513C40.4374 49.1634 39.7152 40.5452 39.3394 38.5361C35.3243 38.3137 30.7469 40.6094 28.9601 41.7851L26.352 53.9592L29.773 57.2965L32.3711 57.8366C33.4028 57.7374 35.9634 56.7015 37.9518 53.3513Z" fill="#EEF0E3" stroke="black" stroke-width="0.218164"/>
<path fill-rule="evenodd" clip-rule="evenodd" d="M20.2822 51.7072L20.2822 51.7071L15.9236 51.1241L7.98315 36.392L12.1245 56.057C12.1245 56.057 11.5158 57.4481 10.7327 57.8882C9.85906 58.3792 8.16999 58.0225 8.16999 58.0225L-4.91771 45.7242L7.08922 65.7885L10.9437 67.0743L10.3063 60.0746L13.0045 57.3634L16.4967 59.4796L17.144 53.7651L20.36 53.1908L20.36 53.1909L23.6183 53.4259L24.8594 59.0414L28.1113 56.5717L31.0781 58.986L31.1759 66.014L34.8748 64.3324L44.7187 43.1229L32.9882 56.7219C32.9882 56.7219 31.3457 57.2531 30.4254 56.8562C29.6007 56.5004 28.8499 55.1805 28.8499 55.1805L30.913 35.1903L24.556 50.6717L20.2822 51.7072Z" fill="#FFF5A0"/>
<path d="M20.2822 51.7071L20.3911 51.7014L20.3864 51.611L20.2967 51.599L20.2822 51.7071ZM20.2822 51.7072L20.1733 51.7129L20.1801 51.8441L20.3079 51.8132L20.2822 51.7072ZM15.9236 51.1241L15.8276 51.1758L15.854 51.2248L15.9091 51.2322L15.9236 51.1241ZM7.98315 36.392L8.07917 36.3402L7.87641 36.4145L7.98315 36.392ZM12.1245 56.057L12.2245 56.1007L12.2385 56.0687L12.2313 56.0345L12.1245 56.057ZM10.7327 57.8882L10.6793 57.7931L10.7327 57.8882ZM8.16999 58.0225L8.0953 58.102L8.11756 58.1229L8.14746 58.1292L8.16999 58.0225ZM-4.91771 45.7242L-4.84301 45.6447L-5.01131 45.7802L-4.91771 45.7242ZM7.08922 65.7885L6.99562 65.8445L7.01637 65.8792L7.0547 65.892L7.08922 65.7885ZM10.9437 67.0743L10.9091 67.1777L11.0674 67.2305L11.0523 67.0644L10.9437 67.0743ZM10.3063 60.0746L10.229 59.9976L10.1931 60.0337L10.1977 60.0845L10.3063 60.0746ZM13.0045 57.3634L13.0611 57.2701L12.9877 57.2256L12.9272 57.2864L13.0045 57.3634ZM16.4967 59.4796L16.4402 59.5729L16.5859 59.6612L16.6051 59.4919L16.4967 59.4796ZM17.144 53.7651L17.1248 53.6578L17.0448 53.6721L17.0356 53.7529L17.144 53.7651ZM20.36 53.1908L20.4689 53.1851L20.4624 53.0617L20.3408 53.0835L20.36 53.1908ZM20.36 53.1909L20.251 53.1966L20.2561 53.2927L20.3521 53.2997L20.36 53.1909ZM23.6183 53.4259L23.7248 53.4023L23.7073 53.3229L23.6262 53.3171L23.6183 53.4259ZM24.8594 59.0414L24.7529 59.0649L24.7896 59.2313L24.9254 59.1283L24.8594 59.0414ZM28.1113 56.5717L28.1801 56.4871L28.1136 56.433L28.0453 56.4848L28.1113 56.5717ZM31.0781 58.986L31.1871 58.9845L31.1864 58.9335L31.1469 58.9014L31.0781 58.986ZM31.1759 66.014L31.0668 66.0155L31.0691 66.1823L31.221 66.1133L31.1759 66.014ZM34.8748 64.3324L34.92 64.4317L34.9567 64.4149L34.9738 64.3783L34.8748 64.3324ZM44.7187 43.1229L44.8176 43.1688L44.6361 43.0517L44.7187 43.1229ZM32.9882 56.7219L33.0218 56.8257L33.0508 56.8163L33.0708 56.7931L32.9882 56.7219ZM30.4254 56.8562L30.3822 56.9563L30.4254 56.8562ZM28.8499 55.1805L28.7414 55.1693L28.7378 55.204L28.755 55.2344L28.8499 55.1805ZM30.913 35.1903L31.0215 35.2015L30.8121 35.1489L30.913 35.1903ZM24.556 50.6717L24.5817 50.7777L24.6358 50.7646L24.6569 50.7131L24.556 50.6717ZM20.1733 51.7129L20.1733 51.7129L20.3911 51.7015L20.3911 51.7014L20.1733 51.7129ZM15.9091 51.2322L20.2677 51.8153L20.2967 51.599L15.938 51.0159L15.9091 51.2322ZM7.88713 36.4437L15.8276 51.1758L16.0196 51.0723L8.07917 36.3402L7.88713 36.4437ZM12.2313 56.0345L8.08989 36.3695L7.87641 36.4145L12.0178 56.0795L12.2313 56.0345ZM10.7862 57.9833C11.2036 57.7487 11.5637 57.2698 11.815 56.8651C11.9421 56.6603 12.0442 56.4697 12.1146 56.3304C12.1498 56.2606 12.1771 56.2036 12.1957 56.1638C12.205 56.1439 12.2121 56.1283 12.2169 56.1176C12.2193 56.1122 12.2212 56.1081 12.2225 56.1053C12.2231 56.1039 12.2236 56.1028 12.2239 56.102C12.2241 56.1016 12.2242 56.1013 12.2243 56.1011C12.2244 56.101 12.2244 56.1009 12.2244 56.1008C12.2244 56.1008 12.2244 56.1008 12.2245 56.1008C12.2245 56.1007 12.2245 56.1007 12.1245 56.057C12.0246 56.0132 12.0246 56.0132 12.0246 56.0132C12.0246 56.0132 12.0246 56.0132 12.0246 56.0132C12.0246 56.0133 12.0246 56.0133 12.0246 56.0134C12.0245 56.0135 12.0244 56.0137 12.0243 56.014C12.024 56.0146 12.0236 56.0155 12.0231 56.0167C12.022 56.0191 12.0203 56.0229 12.0181 56.0278C12.0136 56.0377 12.0069 56.0524 11.998 56.0714C11.9803 56.1094 11.9539 56.1645 11.9198 56.2321C11.8516 56.3673 11.7526 56.552 11.6296 56.75C11.3807 57.1509 11.045 57.5876 10.6793 57.7931L10.7862 57.9833ZM8.16999 58.0225C8.14746 58.1292 8.14748 58.1292 8.14752 58.1292C8.14754 58.1292 8.14758 58.1293 8.14761 58.1293C8.14769 58.1293 8.1478 58.1293 8.14793 58.1293C8.14819 58.1294 8.14855 58.1295 8.14901 58.1296C8.14993 58.1297 8.15126 58.13 8.15298 58.1304C8.15643 58.1311 8.16146 58.1321 8.16798 58.1334C8.18104 58.136 8.20011 58.1397 8.22458 58.1442C8.27351 58.1531 8.34409 58.1654 8.4314 58.1784C8.60589 58.2046 8.84793 58.2343 9.11804 58.2484C9.65164 58.2763 10.3201 58.2452 10.7862 57.9833L10.6793 57.7931C10.2717 58.0222 9.65879 58.0582 9.12944 58.0305C8.86807 58.0169 8.63324 57.9881 8.46372 57.9627C8.37904 57.95 8.31083 57.9382 8.26398 57.9296C8.24056 57.9253 8.22249 57.9218 8.21037 57.9194C8.20431 57.9182 8.19975 57.9173 8.19675 57.9166C8.19525 57.9163 8.19414 57.9161 8.19344 57.916C8.19308 57.9159 8.19283 57.9158 8.19268 57.9158C8.1926 57.9158 8.19255 57.9158 8.19253 57.9158C8.19252 57.9158 8.19252 57.9158 8.19251 57.9158C8.19252 57.9158 8.19253 57.9158 8.16999 58.0225ZM-4.99241 45.8037L8.0953 58.102L8.24469 57.943L-4.84301 45.6447L-4.99241 45.8037ZM7.18282 65.7325L-4.82411 45.6682L-5.01131 45.7802L6.99562 65.8445L7.18282 65.7325ZM10.9782 66.9708L7.12374 65.685L7.0547 65.892L10.9091 67.1777L10.9782 66.9708ZM10.1977 60.0845L10.835 67.0842L11.0523 67.0644L10.415 60.0647L10.1977 60.0845ZM12.9272 57.2864L10.229 59.9976L10.3836 60.1515L13.0818 57.4403L12.9272 57.2864ZM16.5533 59.3864L13.0611 57.2701L12.948 57.4567L16.4402 59.5729L16.5533 59.3864ZM17.0356 53.7529L16.3883 59.4674L16.6051 59.4919L17.2524 53.7774L17.0356 53.7529ZM20.3408 53.0835L17.1248 53.6578L17.1632 53.8725L20.3791 53.2982L20.3408 53.0835ZM20.251 53.1966L20.251 53.1966L20.4689 53.1852L20.4689 53.1851L20.251 53.1966ZM20.3521 53.2997L23.6105 53.5347L23.6262 53.3171L20.3678 53.0821L20.3521 53.2997ZM23.5118 53.4494L24.7529 59.0649L24.9659 59.0179L23.7248 53.4023L23.5118 53.4494ZM24.9254 59.1283L28.1772 56.6586L28.0453 56.4848L24.7934 58.9545L24.9254 59.1283ZM28.0424 56.6563L31.0092 59.0706L31.1469 58.9014L28.1801 56.4871L28.0424 56.6563ZM30.969 58.9875L31.0668 66.0155L31.285 66.0125L31.1871 58.9845L30.969 58.9875ZM31.221 66.1133L34.92 64.4317L34.8297 64.2331L31.1307 65.9147L31.221 66.1133ZM34.9738 64.3783L44.8176 43.1688L44.6197 43.077L34.7759 64.2864L34.9738 64.3783ZM44.6361 43.0517L32.9056 56.6506L33.0708 56.7931L44.8013 43.1942L44.6361 43.0517ZM32.9882 56.7219C32.9546 56.6181 32.9546 56.6181 32.9546 56.6181C32.9546 56.6181 32.9546 56.6181 32.9546 56.6181C32.9546 56.6181 32.9545 56.6181 32.9545 56.6181C32.9543 56.6182 32.9541 56.6183 32.9537 56.6184C32.9531 56.6186 32.952 56.6189 32.9505 56.6194C32.9476 56.6203 32.9432 56.6217 32.9373 56.6235C32.9255 56.6272 32.9079 56.6326 32.885 56.6393C32.8393 56.6527 32.7727 56.6716 32.6898 56.6931C32.5239 56.7361 32.2933 56.7892 32.0348 56.8301C31.5113 56.913 30.898 56.9412 30.4686 56.756L30.3822 56.9563C30.8731 57.1681 31.5412 57.1292 32.0689 57.0456C32.3361 57.0033 32.5737 56.9485 32.7445 56.9043C32.83 56.8821 32.8989 56.8626 32.9466 56.8486C32.9705 56.8415 32.9891 56.8359 33.0018 56.8319C33.0081 56.83 33.013 56.8284 33.0164 56.8274C33.0181 56.8268 33.0194 56.8264 33.0203 56.8261C33.0207 56.826 33.0211 56.8259 33.0213 56.8258C33.0214 56.8258 33.0215 56.8257 33.0216 56.8257C33.0216 56.8257 33.0217 56.8257 33.0217 56.8257C33.0217 56.8257 33.0218 56.8257 32.9882 56.7219ZM30.4686 56.756C30.0835 56.5899 29.704 56.1907 29.4145 55.818C29.2716 55.6339 29.1538 55.4606 29.0718 55.3332C29.0308 55.2696 28.9988 55.2176 28.9772 55.1816C28.9664 55.1637 28.9581 55.1497 28.9527 55.1403C28.9499 55.1357 28.9479 55.1321 28.9465 55.1298C28.9459 55.1286 28.9454 55.1278 28.9451 55.1272C28.9449 55.127 28.9448 55.1268 28.9447 55.1266C28.9447 55.1266 28.9447 55.1265 28.9447 55.1265C28.9447 55.1265 28.9447 55.1265 28.9447 55.1265C28.9447 55.1265 28.9447 55.1265 28.8499 55.1805C28.755 55.2344 28.7551 55.2344 28.7551 55.2345C28.7551 55.2345 28.7551 55.2345 28.7551 55.2345C28.7551 55.2346 28.7552 55.2347 28.7553 55.2348C28.7554 55.235 28.7555 55.2353 28.7557 55.2356C28.7562 55.2364 28.7568 55.2374 28.7575 55.2387C28.7591 55.2414 28.7613 55.2454 28.7643 55.2504C28.7702 55.2606 28.7789 55.2753 28.7903 55.2941C28.8129 55.3318 28.846 55.3857 28.8883 55.4513C28.9729 55.5826 29.0944 55.7614 29.2422 55.9518C29.5344 56.328 29.9426 56.7667 30.3822 56.9563L30.4686 56.756ZM28.9584 55.1917L31.0215 35.2015L30.8045 35.1791L28.7414 55.1693L28.9584 55.1917ZM30.8121 35.1489L24.4551 50.6303L24.6569 50.7131L31.0139 35.2317L30.8121 35.1489ZM24.5303 50.5657L20.2565 51.6012L20.3079 51.8132L24.5817 50.7777L24.5303 50.5657Z" fill="black"/>
<path d="M2.29356 85.2465C1.33639 79.8866 3.03388 76.1458 3.77955 74.8895L10.6095 71.015L15.6844 74.9418C15.0283 77.9067 13.4447 84.3375 12.3595 86.342C4.17419 87.5825 3.67765 85.8502 2.29356 85.2465Z" fill="#EEF0E3" stroke="black" stroke-width="0.218164"/>
<path d="M6.92306 78.1042C6.26986 78.5442 5.33218 81.2984 5.35339 81.703C6.87243 82.2997 10.2945 80.4973 10.5501 80.2134C10.8058 79.9295 10.6997 77.9063 10.6503 76.9621C9.16656 77.0399 7.57626 77.6642 6.92306 78.1042Z" fill="#F15850"/>
<path d="M41.544 83.1873C41.9356 77.7567 39.8564 74.2138 38.9835 73.0423L31.786 69.903L27.1494 74.3388C28.1118 77.2188 30.3589 83.4489 31.6477 85.3289C39.9178 85.707 40.2306 83.9324 41.544 83.1873Z" fill="#EEF0E3" stroke="black" stroke-width="0.218164"/>
<path d="M36.1925 76.5693C36.8881 76.9386 38.1085 79.5796 38.1298 79.9843C36.6814 80.7365 33.0897 79.3017 32.8058 79.046C32.5219 78.7904 32.4158 76.7672 32.3663 75.823C33.85 75.7453 35.4969 76.2 36.1925 76.5693Z" fill="#F15850"/>
<path d="M10.3964 69.5372L-1.61684 77.7409L11.4036 73.2714C11.4036 73.2714 12.8629 74.0057 13.5117 74.784C14.1015 75.4916 14.5689 76.8926 14.5689 76.8926L11.0662 90.0604L18.4593 76.283L18.2826 72.9109L15.1173 69.2898L10.3964 69.5372Z" fill="#FFF5A0" stroke="black" stroke-width="0.218164" stroke-linejoin="round"/>
<path d="M13.3489 71.6818L15.4081 69.6804L17.8566 72.5276L15.9182 74.2522C15.9182 74.2522 14.3679 74.5452 13.7389 73.9607C13.0774 73.3461 13.3489 71.6818 13.3489 71.6818Z" fill="#3A3E41"/>
<path d="M31.8429 68.4121L44.6478 75.3151L31.2315 72.2311C31.2315 72.2311 29.8569 73.1139 29.2931 73.9558C28.7805 74.7211 28.462 76.1633 28.462 76.1633L33.322 88.8928L24.5293 75.9637L24.3525 72.5917L27.122 68.6595L31.8429 68.4121Z" fill="#FFF5A0" stroke="black" stroke-width="0.218164" stroke-linejoin="round"/>
<path d="M29.1302 70.8526L26.8732 69.0774L24.7357 72.165L26.8438 73.6775C26.8438 73.6775 28.4162 73.8068 28.9806 73.1598C29.5742 72.4794 29.1302 70.8526 29.1302 70.8526Z" fill="#3A3E41"/>
<path d="M4.56639 48.6089C4.14054 48.2254 3.77888 46.4861 3.67285 44.4629C3.8148 44.5907 7.09437 45.2303 7.5697 46.5579C7.94997 47.62 7.85539 49.4284 7.76056 50.1997C6.83779 49.7973 4.90707 48.9156 4.56639 48.6089Z" fill="#F15850"/>
<path d="M35.4979 46.9882C35.8813 46.5623 36.0592 44.7947 35.9531 42.7715C35.8253 42.9134 32.6306 43.8924 32.2966 45.2624C32.0294 46.3584 32.3125 48.1469 32.4875 48.9042C33.3631 48.4075 35.1911 47.3288 35.4979 46.9882Z" fill="#F15850"/>
<path d="M18.4421 66.0061C17.3212 62.6835 14.3679 63.1088 13.0191 63.1795C12.8984 63.4565 12.7417 65.6285 13.0256 65.8841C13.3095 66.1397 15.5595 67.7801 15.9712 67.8937C16.3829 68.0074 19.563 69.3287 18.4421 66.0061Z" fill="#52ADFF"/>
<path fill-rule="evenodd" clip-rule="evenodd" d="M18.0659 65.1348C17.8506 65.9197 17.3966 66.4648 16.845 66.4937C16.0256 66.5367 15.3012 65.4241 15.227 64.0087C15.2122 63.7259 15.2244 63.4523 15.2601 63.1953C15.419 63.2205 15.579 63.2535 15.7386 63.2961C15.7382 63.3878 15.7404 63.4812 15.7454 63.576C15.8078 64.7679 16.2812 65.7119 16.8026 65.6846C17.1741 65.6651 17.4698 65.1579 17.5865 64.4369C17.7592 64.6383 17.9201 64.8695 18.0659 65.1348Z" fill="white"/>
<path d="M23.6112 65.7341C24.3786 62.3126 27.3601 62.4268 28.7089 62.3561C28.858 62.619 29.2408 64.7627 28.9852 65.0466C28.7296 65.3305 26.6634 67.197 26.2658 67.3531C25.8682 67.5092 22.8437 69.1556 23.6112 65.7341Z" fill="#52ADFF"/>
<path fill-rule="evenodd" clip-rule="evenodd" d="M24.2985 64.088C24.4901 64.7922 24.8369 65.2651 25.2082 65.2456C25.7296 65.2183 26.1017 64.2299 26.0392 63.038C26.0343 62.9436 26.0268 62.8507 26.0168 62.7598C26.1711 62.7008 26.3268 62.6512 26.4822 62.6094C26.5444 62.8612 26.5852 63.1318 26.6 63.4145C26.6742 64.8299 26.0701 66.0121 25.2506 66.055C24.6993 66.0839 24.191 65.5898 23.8948 64.8323C24.012 64.5532 24.1479 64.3064 24.2985 64.088Z" fill="white"/>
<path d="M18.4564 75.4709C18.2179 75.0506 18.2298 72.8679 18.2655 71.8291L20.7435 70.0762L24.4842 71.7737C24.5977 72.2186 24.7352 73.4647 24.3771 74.8901C24.019 76.3155 22.6705 76.7378 22.0411 76.7708C22.1239 76.6312 22.2854 76.2711 22.2684 75.9474C21.885 76.3733 21.0899 76.6854 20.955 76.6925C20.8201 76.6996 19.9825 76.2025 19.5425 75.5493C19.5595 75.873 19.6819 76.4887 19.741 76.7561C19.4122 76.5029 18.6948 75.8912 18.4564 75.4709Z" fill="#EEF0E3" stroke="black" stroke-width="0.218164"/>
<path fill-rule="evenodd" clip-rule="evenodd" d="M21.053 66.4101C20.4056 66.444 18.8859 64.6301 18.2069 63.7189C18.5758 64.7365 19.1305 66.8895 18.3978 67.3607C17.4819 67.9497 16.3174 68.9575 16.374 70.0366C16.4305 71.1156 16.9412 73.1176 18.6735 72.6211C19.8378 72.1273 20.9005 71.242 21.2863 70.8612L21.053 66.4101ZM21.0531 66.4102C21.7005 66.3763 23.0223 64.4135 23.6022 63.4363C23.3417 64.4869 23.0151 66.6861 23.7931 67.0781C24.7655 67.5682 26.029 68.4487 26.0855 69.5278C26.1421 70.6068 25.8435 72.6513 24.0688 72.3385C22.8592 71.9691 21.7098 71.1998 21.2863 70.8613L21.0531 66.4102Z" fill="#EEF0E3"/>
<path d="M18.2069 63.7189L18.2944 63.6538C18.2621 63.6104 18.2028 63.5972 18.1552 63.6229C18.1076 63.6486 18.0859 63.7052 18.1044 63.7561L18.2069 63.7189ZM21.053 66.4101L21.1619 66.4044C21.1588 66.3442 21.1075 66.298 21.0473 66.3011L21.053 66.4101ZM18.3978 67.3607L18.3388 67.269L18.3388 67.269L18.3978 67.3607ZM18.6735 72.6211L18.7038 72.7268L18.7161 72.7215L18.6735 72.6211ZM21.2863 70.8612L21.3629 70.9388C21.3851 70.9169 21.3968 70.8866 21.3952 70.8554L21.2863 70.8612ZM23.6022 63.4363L23.7081 63.4626C23.7211 63.4101 23.6937 63.3559 23.6436 63.3354C23.5936 63.3149 23.5361 63.3341 23.5084 63.3807L23.6022 63.4363ZM21.0531 66.4102L21.0473 66.3013C20.9872 66.3044 20.941 66.3558 20.9441 66.4159L21.0531 66.4102ZM23.7931 67.0781L23.8422 66.9807L23.7931 67.0781ZM24.0688 72.3385L24.0367 72.4436L24.0499 72.4459L24.0688 72.3385ZM21.2863 70.8613L21.1774 70.867C21.179 70.8981 21.1939 70.9271 21.2182 70.9465L21.2863 70.8613ZM18.1195 63.7841C18.4608 64.2422 19.0135 64.9273 19.5634 65.4948C19.8382 65.7783 20.1149 66.0352 20.366 66.2199C20.4916 66.3122 20.6133 66.3884 20.7272 66.4407C20.8398 66.4924 20.9529 66.5245 21.0587 66.519L21.0473 66.3011C20.9912 66.3041 20.9152 66.287 20.8182 66.2424C20.7224 66.1984 20.6138 66.1313 20.4953 66.0441C20.2582 65.8698 19.9911 65.6226 19.7201 65.343C19.1786 64.7842 18.632 64.1069 18.2944 63.6538L18.1195 63.7841ZM18.4568 67.4525C18.6785 67.3099 18.7895 67.0493 18.8367 66.7532C18.8843 66.4545 18.8709 66.0977 18.8237 65.7308C18.7291 64.996 18.4957 64.1953 18.3095 63.6818L18.1044 63.7561C18.2871 64.2602 18.5154 65.0447 18.6073 65.7586C18.6533 66.1161 18.6642 66.4495 18.6212 66.7188C18.5779 66.9907 18.4834 67.176 18.3388 67.269L18.4568 67.4525ZM16.4829 70.0309C16.4568 69.5325 16.7128 69.0379 17.1037 68.5863C17.493 68.1365 18.0038 67.7438 18.4568 67.4525L18.3388 67.269C17.8759 67.5667 17.3465 67.9723 16.9387 68.4435C16.5326 68.9128 16.2346 69.4616 16.2651 70.0423L16.4829 70.0309ZM18.6434 72.5162C18.2317 72.6343 17.9023 72.6017 17.637 72.4794C17.3698 72.3563 17.1564 72.137 16.9884 71.8627C16.6505 71.3113 16.5107 70.5616 16.4829 70.0309L16.2651 70.0423C16.2938 70.5906 16.4377 71.3815 16.8023 71.9767C16.9855 72.2757 17.2281 72.5312 17.5457 72.6776C17.8651 72.8248 18.2491 72.8562 18.7035 72.726L18.6434 72.5162ZM21.2096 70.7835C20.8298 71.1586 19.7783 72.034 18.6309 72.5207L18.7161 72.7215C19.8973 72.2205 20.9712 71.3255 21.3629 70.9388L21.2096 70.7835ZM20.9441 66.4158L21.1773 70.8669L21.3952 70.8554L21.1619 66.4044L20.9441 66.4158ZM23.5084 63.3807C23.22 63.8666 22.7472 64.5974 22.2671 65.2097C22.0268 65.5161 21.7871 65.7898 21.5695 65.988C21.4607 66.0871 21.3597 66.1652 21.2691 66.2189C21.1772 66.2734 21.1034 66.2983 21.0473 66.3013L21.0588 66.5191C21.1646 66.5136 21.2737 66.4698 21.3803 66.4066C21.4881 66.3427 21.6012 66.2542 21.7164 66.1493C21.9469 65.9394 22.1952 65.6549 22.4388 65.3443C22.9264 64.7224 23.4045 63.9832 23.696 63.492L23.5084 63.3807ZM23.8422 66.9807C23.6886 66.9033 23.5753 66.729 23.5038 66.4631C23.4329 66.1997 23.4089 65.867 23.4173 65.5067C23.434 64.7871 23.5791 63.983 23.7081 63.4626L23.4964 63.4101C23.3649 63.9402 23.2164 64.761 23.1992 65.5016C23.1906 65.8715 23.2145 66.2277 23.2931 66.5198C23.371 66.8093 23.5086 67.0569 23.744 67.1755L23.8422 66.9807ZM26.1944 69.5221C26.164 68.9414 25.8104 68.4267 25.3573 68.0025C24.9025 67.5765 24.3336 67.2284 23.8422 66.9807L23.744 67.1755C24.225 67.4179 24.7741 67.7551 25.2082 68.1617C25.6441 68.57 25.9505 69.0351 25.9766 69.5335L26.1944 69.5221ZM24.0499 72.4459C24.5154 72.528 24.894 72.4565 25.1963 72.2768C25.4968 72.098 25.7114 71.8185 25.8623 71.502C26.1628 70.872 26.2232 70.0704 26.1944 69.5221L25.9766 69.5335C26.0044 70.0642 25.9438 70.8244 25.6654 71.4081C25.5269 71.6985 25.3376 71.9389 25.0848 72.0893C24.8337 72.2386 24.5095 72.3054 24.0877 72.2311L24.0499 72.4459ZM21.2182 70.9465C21.6482 71.2902 22.8098 72.0681 24.0369 72.4428L24.1006 72.2342C22.9086 71.8701 21.7714 71.1094 21.3544 70.7761L21.2182 70.9465ZM20.9441 66.4159L21.1774 70.867L21.3953 70.8556L21.162 66.4045L20.9441 66.4159Z" fill="black"/>
<path fill-rule="evenodd" clip-rule="evenodd" d="M21.116 67.7595C21.6554 67.7297 22.4407 67.2841 22.5683 67.1424C22.6812 67.017 21.8238 68.5265 21.3484 68.9872C21.3291 69.0824 21.2817 69.1322 21.194 69.108C21.1922 69.1075 21.1905 69.107 21.1887 69.1064C21.187 69.1071 21.1853 69.1078 21.1836 69.1085C21.0989 69.1417 21.0466 69.0972 21.0174 69.0046C20.4965 68.5961 19.4859 67.1844 19.6114 67.2974C19.7527 67.4246 20.5763 67.7841 21.116 67.7595Z" fill="#52ADFF"/>
<path fill-rule="evenodd" clip-rule="evenodd" d="M20.8355 57.0933L20.7716 55.8729L20.5018 55.887L20.5658 57.1074C19.5904 57.2476 18.8719 58.3385 18.9392 59.6211C18.9415 59.6662 18.9448 59.711 18.9491 59.7554L17.4626 59.8333L17.4767 60.1031L18.9864 60.024C19.1861 61.1093 19.9407 61.9174 20.8196 61.9509L20.8906 63.3055L21.1604 63.2913L21.0894 61.9368C21.9599 61.8115 22.6258 60.929 22.711 59.8288L24.2208 59.7496L24.2067 59.4799L22.72 59.5578C22.7196 59.5132 22.7182 59.4683 22.7158 59.4231C22.6486 58.1406 21.8201 57.1309 20.8355 57.0933ZM20.9124 61.1408C21.5083 61.1095 21.9534 60.3596 21.9066 59.4656C21.8597 58.5717 21.3386 57.8724 20.7427 57.9036C20.1468 57.9348 19.7016 58.6848 19.7485 59.5787C19.7953 60.4727 20.3164 61.172 20.9124 61.1408ZM21.367 59.4935C21.3904 59.9404 21.1678 60.3154 20.8699 60.331C20.5719 60.3466 20.3113 59.997 20.2879 59.55C20.2645 59.1031 20.4871 58.7281 20.785 58.7124C21.083 58.6968 21.3435 59.0465 21.367 59.4935Z" fill="#6BE5FF"/>
<path d="M-1.71182 39.2252C-0.885972 39.1819 0.896618 39.228 3.28907 40.604C3.32946 40.6273 3.35102 40.6738 3.34207 40.7196C3.33309 40.7654 3.29507 40.8003 3.24884 40.8066L0.119388 41.2327L0.112697 46.1431C0.112503 46.1946 0.07584 46.2389 0.0253662 46.2494C-0.0250736 46.2598 -0.0756066 46.2335 -0.0962647 46.1863C-0.405439 45.4771 -0.862314 44.2858 -1.22778 43.0127C-1.59242 41.7423 -1.87013 40.3781 -1.81496 39.3284L-1.80525 39.2897C-1.78893 39.2535 -1.75364 39.2274 -1.71182 39.2252Z" fill="#FFF5A0" stroke="black" stroke-width="0.218164" stroke-linejoin="round"/>
<path d="M-0.705505 40.3633C-0.813869 42.4248 -0.611823 44.7316 0.00310432 46.142L0.011292 41.1373L3.23431 40.6979C0.373554 40.3068 0.103756 40.3209 -0.705505 40.3633Z" fill="#F15850"/>
<path d="M40.6115 37.0056C39.7857 37.0489 38.0177 37.2811 35.7821 38.8996C35.7444 38.927 35.7278 38.9755 35.7415 39.0201C35.7552 39.0647 35.7967 39.0954 35.8433 39.0969L39.0002 39.1935L39.5201 44.0763C39.5257 44.1275 39.5668 44.1677 39.6181 44.1729C39.6693 44.1779 39.7168 44.1465 39.7324 44.0974C39.9658 43.3599 40.2956 42.1273 40.526 40.8229C40.7559 39.5214 40.8895 38.1356 40.7249 37.0974L40.7112 37.06C40.6912 37.0257 40.6533 37.0035 40.6115 37.0056Z" fill="#FFF5A0" stroke="black" stroke-width="0.218164" stroke-linejoin="round"/>
<path d="M39.7299 38.2441C40.0532 40.283 40.0934 42.5982 39.6292 44.0652L39.0979 39.0887L35.8467 38.9886C38.6509 38.3006 38.9207 38.2865 39.7299 38.2441Z" fill="#F15850"/>
</g>
</g>
</g>
<defs>
<filter id="filter0_d_40000850_50765" x="-7" y="-1.15055" width="66.3888" height="110.041" filterUnits="userSpaceOnUse" color-interpolation-filters="sRGB">
<feFlood flood-opacity="0" result="BackgroundImageFix"/>
<feColorMatrix in="SourceAlpha" type="matrix" values="0 0 0 0 0 0 0 0 0 0 0 0 0 0 0 0 0 0 127 0" result="hardAlpha"/>
<feOffset dx="6" dy="-4"/>
<feGaussianBlur stdDeviation="2.57527"/>
<feComposite in2="hardAlpha" operator="out"/>
<feColorMatrix type="matrix" values="0 0 0 0 0.784314 0 0 0 0 0.843137 0 0 0 0 0.909804 0 0 0 0.25 0"/>
<feBlend mode="normal" in2="BackgroundImageFix" result="effect1_dropShadow_40000850_50765"/>
<feBlend mode="normal" in="SourceGraphic" in2="effect1_dropShadow_40000850_50765" result="shape"/>
</filter>
<linearGradient id="paint0_linear_40000850_50765" x1="18.8524" y1="26.0117" x2="18.8524" y2="102.573" gradientUnits="userSpaceOnUse">
<stop stop-color="#6BBEFF"/>
<stop offset="0.547474" stop-color="#CAFDFF"/>
<stop offset="1" stop-color="#5F849D"/>
</linearGradient>
<radialGradient id="paint1_radial_40000850_50765" cx="0" cy="0" r="1" gradientUnits="userSpaceOnUse" gradientTransform="translate(20.6574 58.8556) rotate(87) scale(10.2651 13.5764)">
<stop stop-color="#9AC4FF"/>
<stop offset="0.759615" stop-color="#1E2E4F"/>
</radialGradient>
<clipPath id="clip0_40000850_50765">
<rect width="52" height="104" fill="white"/>
</clipPath>
<clipPath id="clip1_40000850_50765">
<rect width="50.0915" height="76.5613" fill="white" transform="translate(-6.19336 26.0117) rotate(-3)"/>
</clipPath>
</defs>
</svg>
