<svg width="78" height="80" viewBox="0 0 78 80" fill="none" xmlns="http://www.w3.org/2000/svg">
<g clip-path="url(#clip0_40000320_58155)">
<g filter="url(#filter0_d_40000320_58155)">
<rect x="-6.5" y="9.62793" width="50.2178" height="97.2445" rx="2.68724" transform="rotate(-3 -6.5 9.62793)" fill="#A158ED"/>
<rect x="-5.84961" y="22.0391" width="50.2178" height="3.02315" transform="rotate(-3 -5.84961 22.0391)" fill="white"/>
<rect x="-5.79688" y="23.0459" width="50.2178" height="1.00772" transform="rotate(-3 -5.79688 23.0459)" fill="#61B9F5"/>
<rect x="-5.69238" y="25.0586" width="50.2178" height="76.7543" transform="rotate(-3 -5.69238 25.0586)" fill="#4D6ECB"/>
<path d="M-3.91602 58.9385L47.0285 71.4892L48.013 90.2741L-2.13605 92.9023L-3.91602 58.9385Z" fill="#65612E"/>
<path d="M14.0701 87.344C6.02525 86.0166 -0.616416 80.3773 -2.93164 77.7236L-1.67468 101.708L48.4743 99.0797L47.6305 82.9784C39.7957 84.9867 22.115 88.6715 14.0701 87.344Z" fill="#CDB389"/>
<path d="M12.6507 60.3492C11.5068 59.0131 12.4486 56.4938 12.6857 54.8705C13.0544 53.0255 12.5735 52.7286 12.4837 51.0151C12.3939 49.3015 9.85256 45.8909 7.93653 44.1657C6.0205 42.4405 5.51354 40.9636 6.73694 39.7182C7.96035 38.4728 13.2744 43.5638 15.0778 45.1875C16.8811 46.8112 18.0423 46.4282 20.1505 45.6733C22.2588 44.9185 21.1438 40.037 21.0484 38.2164C20.953 36.3958 20.5475 34.8062 22.3569 34.4966C24.1663 34.187 24.7121 38.454 25.7709 42.2645C26.8297 46.075 28.2159 47.9354 29.1344 49.0685C30.0529 50.2017 29.6806 51.2951 29.5113 52.1631C29.3421 53.0311 29.6461 54.7334 29.9164 55.7931C30.1867 56.8528 30.5529 57.6927 31.0542 59.0625C31.5556 60.4323 32.0854 60.2972 32.7729 61.1202C33.4604 61.9433 33.0769 62.8225 32.8908 63.3692C32.7046 63.9159 32.2141 64.8008 31.825 65.5729C31.4359 66.345 30.9285 66.9085 30.7536 67.6694C30.5787 68.4303 29.547 69.2361 28.6902 69.281C27.8335 69.3259 26.8865 69.6977 25.7365 70.2949C24.5865 70.8921 22.135 69.195 21.7969 68.8905C21.4587 68.5861 16.9167 63.8842 16.0151 63.0724C15.1134 62.2605 13.7946 61.6853 12.6507 60.3492Z" fill="#F29600" stroke="black" stroke-width="0.335905"/>
<path d="M19.5981 64.9123C18.4948 64.7178 17.6873 63.751 15.8646 62.6693L15.8734 62.837L19.5139 66.5144L21.1069 68.0287L22.263 69.2295L23.737 70.0772L25.4362 70.4086L26.5883 69.9278L27.9081 69.4382L29.325 69.1957L30.38 68.4677L30.8348 67.5189L30.4994 67.5364L31.2102 66.6583L32.8218 63.7147L33.1576 62.0994L32.7695 61.1106L32.0634 60.4749L31.3486 59.6714L30.7619 58.1044L29.8929 55.9636L29.5889 53.3727L29.5318 52.2825L29.7661 50.3361L29.3823 49.4312L27.9351 47.4889L26.6336 45.1184L25.8751 41.8786L24.3623 37.0806L23.6786 35.2664C22.6726 33.7214 20.9678 34.8871 21.017 35.8263C21.0785 37.0004 21.18 37.3314 21.0518 38.095C20.9236 38.8585 21.5938 42.0189 21.6422 42.9414C21.6905 43.8638 21.2269 44.6449 20.9178 45.1657L20.9178 45.1657C20.3606 46.1045 19.0374 46.1892 18.6181 46.2112C18.2826 46.2288 17.1968 46.3698 16.6936 46.3962C16.8952 46.4977 17.3336 46.7326 17.4748 46.8598C17.6513 47.0187 19.783 47.5797 20.9746 47.8536C22.1662 48.1276 25.428 47.7884 26.2135 48.3359C26.9991 48.8834 28.4683 51.245 28.5386 52.5868C28.6089 53.9286 29.4205 56.577 29.5395 57.2435C29.6585 57.91 30.0555 59.0665 30.8893 60.5364C31.7232 62.0064 31.6306 61.843 30.9992 62.6329C30.3679 63.4228 29.6263 63.714 28.8229 64.4288C28.0194 65.1437 27.2031 64.0092 26.2719 63.8898C25.3406 63.7704 25.1993 64.2824 24.6298 64.6486C24.0604 65.0148 23.6055 65.9636 22.8376 65.7516C22.0697 65.5396 20.7015 65.1067 19.5981 64.9123Z" fill="#D7890A"/>
<path d="M12.6507 60.3492C11.5068 59.0131 12.4486 56.4938 12.6857 54.8705C13.0544 53.0255 12.5735 52.7286 12.4837 51.0151C12.3939 49.3015 9.85256 45.8909 7.93653 44.1657C6.0205 42.4405 5.51354 40.9636 6.73694 39.7182C7.96035 38.4728 13.2744 43.5638 15.0778 45.1875C16.8811 46.8112 18.0423 46.4282 20.1505 45.6733C22.2588 44.9185 21.1438 40.037 21.0484 38.2164C20.953 36.3958 20.5475 34.8062 22.3569 34.4966C24.1663 34.187 24.7121 38.454 25.7709 42.2645C26.8297 46.075 28.2159 47.9354 29.1344 49.0685C30.0529 50.2017 29.6806 51.2951 29.5113 52.1631C29.3421 53.0311 29.6461 54.7334 29.9164 55.7931C30.1867 56.8528 30.5529 57.6927 31.0542 59.0625C31.5556 60.4323 32.0854 60.2972 32.7729 61.1202C33.4604 61.9433 33.0769 62.8225 32.8908 63.3692C32.7046 63.9159 32.2141 64.8008 31.825 65.5729C31.4359 66.345 30.9285 66.9085 30.7536 67.6694C30.5787 68.4303 29.547 69.2361 28.6902 69.281C27.8335 69.3259 26.8865 69.6977 25.7365 70.2949C24.5865 70.8921 22.135 69.195 21.7969 68.8905C21.4587 68.5861 16.9167 63.8842 16.0151 63.0724C15.1134 62.2605 13.7946 61.6853 12.6507 60.3492Z" stroke="black" stroke-width="0.335905"/>
<path d="M16.0908 45.8857C16.6487 46.2861 17.2179 46.9006 17.6463 46.8781C18.0747 46.8557 19.5118 47.6395 20.3008 48.3498" stroke="black" stroke-width="0.335905"/>
<path d="M21.4961 67.0809C21.5354 67.8306 22.054 67.4812 22.257 67.2558L22.4806 66.9219C22.3065 66.6386 22.1149 66.3184 21.8684 65.9875C21.7252 65.7954 21.5354 65.5874 21.3174 65.372C21.3639 65.6918 21.4647 66.4812 21.4961 67.0809Z" fill="white"/>
<path d="M23.8437 54.5007C24.0316 54.6699 24.3937 55.1592 24.3394 55.7634M23.0365 59.5903C23.4025 59.1416 24.1417 57.9216 24.1702 56.6314M27.5916 56.3447C27.539 56.0253 27.4904 55.2331 27.716 54.6199M24.3937 64.996C24.6926 64.5508 25.3015 63.8746 25.837 63.8465C26.3724 63.8184 26.6937 63.8016 27.0262 63.999C27.3587 64.1963 27.7927 64.281 28.2211 64.2585C28.5638 64.2405 28.9276 64.0783 29.0666 63.9994M25.6335 66.1123C25.6993 66.0015 25.8951 65.7765 26.1522 65.763C26.4735 65.7462 26.806 65.9435 26.9187 66.045M31.0336 64.6481L32.0485 63.521M15.6358 59.7634C15.675 60.5131 15.6353 61.8038 16.5089 62.0802C17.3825 62.3566 17.8109 62.3341 18.5998 63.0445C19.2259 63.6082 20.4799 64.5446 21.3174 65.372M31.1403 66.6829C30.6385 67.3535 29.9281 68.1425 29.2968 68.3903C28.6654 68.6382 27.8821 68.0349 27.2227 67.7473C26.5633 67.4597 26.0446 67.809 25.5091 67.8371C24.9737 67.8652 24.1281 68.1242 23.4743 67.9437C23.0531 67.8274 22.7957 67.4351 22.4806 66.9219M21.3174 65.372C21.5354 65.5874 21.7252 65.7954 21.8684 65.9875C22.1149 66.3184 22.3065 66.6386 22.4806 66.9219M21.3174 65.372C21.3639 65.6918 21.4647 66.4812 21.4961 67.0809C21.5354 67.8306 22.054 67.4812 22.257 67.2558L22.4806 66.9219" stroke="black" stroke-width="0.335905"/>
<path d="M16.5332 54.3467C16.9352 54.5046 18.0741 55.0606 19.4131 56.0214C21.0869 57.2223 21.7743 58.0454 22.4899 59.404" stroke="black" stroke-width="0.335905"/>
<path d="M16.752 54.4424L16.9372 57.9765C17.5063 58.591 20.8599 59.0596 22.2522 58.9866C20.6565 56.407 17.9205 54.8823 16.752 54.4424Z" fill="white" stroke="black" stroke-width="0.335905"/>
<path d="M19.6678 58.7999C18.8563 58.0693 18.7139 56.3084 18.7442 55.5193C20.6062 56.6245 21.8606 58.2913 22.255 58.9865C21.573 58.9507 20.1007 58.8632 19.6678 58.7999Z" fill="#008086" stroke="black" stroke-width="0.335905"/>
<circle cx="19.9034" cy="57.1773" r="0.536211" transform="rotate(-3 19.9034 57.1773)" fill="white"/>
<circle cx="20.2524" cy="57.6958" r="0.643453" transform="rotate(-3 20.2524 57.6958)" fill="black"/>
<path d="M28.2296 56.2039C28.1619 56.5511 28.2687 57.6337 28.3306 58.1316C29.138 57.1442 29.5918 56.2399 29.7177 55.9111L29.4591 53.0251C29.0775 53.9401 28.2973 55.8567 28.2296 56.2039Z" fill="white" stroke="black" stroke-width="0.335905"/>
<path d="M29.2311 56.9032C29.3441 55.7805 29.1133 54.6542 28.9837 54.2315L28.228 56.2041L28.2448 56.5254L28.3346 58.2389C28.5019 58.0153 28.9154 57.4352 29.2311 56.9032Z" fill="#008086" stroke="black" stroke-width="0.335905"/>
<path d="M28.7869 56.6044C28.8004 56.8614 28.443 56.873 28.2627 56.8467L28.2234 56.097C28.2854 55.9148 28.4523 55.5481 28.6237 55.5391C28.8379 55.5278 28.7701 56.2831 28.7869 56.6044Z" fill="black" stroke="black" stroke-width="0.335905"/>
<g filter="url(#filter1_d_40000320_58155)">
<rect x="-4.3252" y="8.19629" width="48.559" height="94.0323" rx="2.59847" transform="rotate(-3 -4.3252 8.19629)" fill="#D9D9D9"/>
<rect x="-3.69629" y="20.1973" width="48.559" height="2.92328" transform="rotate(-3 -3.69629 20.1973)" fill="white"/>
<rect x="-3.64551" y="21.1709" width="48.559" height="0.974428" transform="rotate(-3 -3.64551 21.1709)" fill="#61B9F5"/>
<g clip-path="url(#clip1_40000320_58155)">
<rect x="-3.54297" y="23.1172" width="48.559" height="74.2189" transform="rotate(-3 -3.54297 23.1172)" fill="url(#paint0_linear_40000320_58155)"/>
<path d="M35.69 54.5064L36.2466 54.7492L41.0118 46.341L40.5369 45.4335L33.8295 49.398L35.69 54.5064Z" fill="#D4B9A1"/>
<path d="M36.2856 54.7478L37.0217 54.7092L41.6411 50.9318L40.9753 46.3824L34.6003 50.0188L36.2856 54.7478Z" fill="#966E65"/>
<path d="M6.30323 51.2296L1.75693 83.8296L-0.465649 83.6741L-3.57899 82.0891C-1.65385 71.8743 2.22666 51.28 2.34752 50.621C2.4986 49.7973 3.54873 49.8199 4.88224 50.0608C5.94906 50.2536 6.27407 50.9203 6.30323 51.2296Z" fill="#D4B9A1"/>
<path d="M8.97754 34.945L8.37327 35.9907L7.81712 36.0198L-3.74628 31.6663L1.18006 26.3667L8.97754 34.945Z" fill="#D4B9A1"/>
<path d="M34.8594 40.8753L35.63 41.4953L41.3019 36.303L46.8097 26.4962L34.8759 30.8123L34.8594 40.8753Z" fill="#D4B9A1"/>
<path d="M35.2792 50.3716L40.706 47.1734L41.0056 47.7016L40.9831 48.0136L36.8627 54.6397L35.2792 50.3716Z" fill="#D4B9A1"/>
<path d="M35.9034 31.8848L35.628 41.4562L36.9351 41.1935L44.5643 37.0253L46.7503 27.5868L35.9034 31.8848Z" fill="#966E65"/>
<path d="M36.4328 41.259L36.6387 41.4813L40.6316 39.8346L46.5698 29.3448L36.8119 32.9253L36.4328 41.259Z" fill="#D4B9A1"/>
<path d="M36.7168 41.4774L42.5449 40.0065L42.6999 39.9984L44.5514 39.7459L46.3929 29.6651L37.1387 33.2192L36.7168 41.4774Z" fill="#966E65"/>
<path d="M57.2075 77.3882L38.2483 39.571C37.9467 38.758 37.8431 36.5853 39.842 34.3982C41.8408 32.2111 43.5786 33.0498 44.1976 33.7425L50.7718 42.0615L57.2075 77.3882Z" fill="#D4B9A1"/>
<path d="M36.9831 54.7113L38.3067 54.0203L41.9206 51.0726L41.0058 47.7018L35.573 50.7837L36.9831 54.7113Z" fill="#966E65"/>
<path d="M53.8669 81.8369L36.9611 52.8086C36.705 52.3688 36.8799 51.2589 38.3687 50.0154C39.5598 49.0206 40.8905 49.7019 41.4069 50.167L51.002 63.4946L53.8669 81.8369Z" fill="#D4B9A1"/>
<path d="M8.26968 35.9454L2.18541 41.7396L-4.0259 32.5339L0.541387 27.7825L8.26968 35.9454Z" fill="#966E65"/>
<path d="M6.91864 36.2695L1.06589 30.0362L-2.72381 32.212L2.28754 40.7708L6.91864 36.2695Z" fill="#D4B9A1"/>
<path d="M6.47341 36.4959L3.04535 39.7681L-1.23985 32.4894L0.854701 30.8587L6.47341 36.4959Z" fill="#966E65"/>
<path d="M-3.02205 71.2204L5.19504 36.7574C5.03883 36.2476 4.22936 34.7879 2.24123 33.0273C0.253095 31.2667 -1.66881 31.8077 -2.38124 32.2983L-4.90021 35.3829L-3.02205 71.2204Z" fill="#D4B9A1"/>
<mask id="mask0_40000320_58155" style="mask-type:alpha" maskUnits="userSpaceOnUse" x="36" y="49" width="18" height="33">
<path d="M53.8659 81.8369L36.9601 52.8086C36.704 52.3688 36.8789 51.2589 38.3677 50.0154C39.5588 49.0206 40.8895 49.7019 41.406 50.167L51.001 63.4946L53.8659 81.8369Z" fill="#D4B9A1"/>
</mask>
<g mask="url(#mask0_40000320_58155)">
<path d="M53.9112 80.475L36.6099 51.3121L36.5449 50.0723L53.83 78.9252L53.9112 80.475Z" fill="#D5C2B1"/>
<path d="M55.3169 77.9884L37.0376 49.4283L36.9307 48.1914L55.1832 76.4423L55.3169 77.9884Z" fill="#D5C2B1"/>
<path d="M57.229 76.814L38.6876 48.4233L38.5693 47.1875L57.0811 75.2692L57.229 76.814Z" fill="#D5C2B1"/>
</g>
<mask id="mask1_40000320_58155" style="mask-type:alpha" maskUnits="userSpaceOnUse" x="-4" y="49" width="11" height="35">
<path d="M6.30323 51.2296L1.75693 83.8296L-0.465649 83.6741L-3.57899 82.0891C-1.65385 71.8743 2.22666 51.28 2.34752 50.621C2.4986 49.7973 3.54873 49.8199 4.88224 50.0608C5.94906 50.2536 6.27407 50.9203 6.30323 51.2296Z" fill="#D4B9A1"/>
</mask>
<g mask="url(#mask1_40000320_58155)">
<path d="M-4.56456 86.8167L2.91752 50.2585L3.70508 49.2217L-3.58011 85.5207L-4.56456 86.8167Z" fill="#D5C2B1"/>
<path d="M-1.91024 85.9223L4.48206 49.0894L5.23828 48.0225L-0.964967 84.5887L-1.91024 85.9223Z" fill="#D5C2B1"/>
<path d="M0.217997 86.4625L6.31299 49.5622L7.06055 48.4873L1.15244 85.1189L0.217997 86.4625Z" fill="#D5C2B1"/>
</g>
<mask id="mask2_40000320_58155" style="mask-type:alpha" maskUnits="userSpaceOnUse" x="-5" y="31" width="11" height="41">
<path d="M-3.02107 71.2204L5.19602 36.7574C5.0398 36.2476 4.23034 34.7879 2.2422 33.0273C0.254072 31.2667 -1.66783 31.8077 -2.38026 32.2983L-4.89923 35.3829L-3.02107 71.2204Z" fill="#D4B9A1"/>
</mask>
<g mask="url(#mask2_40000320_58155)">
<path d="M-18.2283 87.6212L1.18162 20.3282L2.80859 18.5049L-16.1945 85.342L-18.2283 87.6212Z" fill="#D5C2B1"/>
<path d="M-12.8037 86.3233L4.60787 18.3549L6.18066 16.4707L-10.8377 83.968L-12.8037 86.3233Z" fill="#D5C2B1"/>
<path d="M-9.22675 87.6676L7.63852 19.5293L9.19629 17.6289L-7.27954 85.2921L-9.22675 87.6676Z" fill="#D5C2B1"/>
</g>
<mask id="mask3_40000320_58155" style="mask-type:alpha" maskUnits="userSpaceOnUse" x="38" y="32" width="20" height="46">
<path d="M57.2075 77.3882L38.2483 39.571C37.9467 38.758 37.8431 36.5853 39.842 34.3982C41.8408 32.2111 43.5786 33.0498 44.1976 33.7425L50.7718 42.0615L57.2075 77.3882Z" fill="#D4B9A1"/>
</mask>
<g mask="url(#mask3_40000320_58155)">
<path d="M56.825 71.055L34.3623 28.8623L34.3516 27.1123L56.8116 68.8674L56.825 71.055Z" fill="#D5C2B1"/>
<path d="M58.9667 67.6454L35.0876 26.2379L35.0176 24.4893L58.8792 65.4596L58.9667 67.6454Z" fill="#D5C2B1"/>
<path d="M61.7359 66.1166L37.4767 24.9306L37.3906 23.1826L61.6282 63.9316L61.7359 66.1166Z" fill="#D5C2B1"/>
</g>
<path d="M10.9337 72.9243L-1.67064 76.3708L-2.74612 102.455L51.1082 99.6328L48.3844 70.9616L35.3158 72.1045L24.9594 73.296L20.7493 71.6084L14.3933 71.9415L10.9337 72.9243Z" fill="#F53EFD"/>
<path d="M10.934 72.9243L-2.36707 74.7282L-1.97413 82.2259L49.9117 76.797L48.3847 70.9616L35.3161 72.1045L24.9597 73.296L20.7496 71.6085L14.3936 71.9416L10.934 72.9243Z" fill="#D4B9A1"/>
<path d="M26.6232 79.5439L22.8012 79.4389L23.2777 80.5207L25.2145 81.7931L31.2279 81.4779L39.8895 80.7187L42.782 80.5671L45.7286 80.718L50.1054 80.4886L51.019 79.7156L40.2008 77.1913L41.9437 76.2222L38.2597 77.293L34.8942 78.6143L31.609 79.2826L29.4575 79.7389L28.5642 79.4422L26.6232 79.5439Z" fill="#F53EFD"/>
<path d="M35.1001 78.909L50.1187 73.4659L44.3797 73.9193L41.5372 74.2972L36.5833 75.1675L29.1073 76.7042L17.6771 78.5245L17.2023 78.931L21.006 80.1437L26.7849 80.4515L35.1001 78.909Z" fill="#966E65"/>
<path d="M49.5433 83.6094L52.9579 86.8652L52.1122 97.6718L49.935 96.9081L44.2486 94.7255L41.3923 94.1119L38.3638 93.1257L33.7247 92.72L30.3017 91.4873L26.686 91.6768L23.2369 90.6745L19.7041 87.3485L19.8949 85.1632L21.0069 83.8073L25.7468 81.7652L30.1178 80.6965L34.3226 79.3694L36.3617 79.6823L41.3273 80.4907L44.45 81.0903L45.6315 82.5168L47.3781 83.0741L49.5433 83.6094Z" fill="#C8AE96"/>
<path d="M-1.03195 79.8104L-3.3978 80.545L-4.38826 93.6872L0.684284 90.7117L5.10551 89.1442L10.8266 88.3483L19.4563 86.9801L21.6583 84.5748L26.9932 81.5092L26.3583 81.0464L24.5016 80.5712L23.5022 79.7077L22.026 79.2126L17.8076 78.823L21.9941 78.6036L24.3919 78.478L27.2405 77.4891L29.2756 77.7259L30.4556 76.9389L32.587 76.8272L34.1855 76.7434L36.7617 75.6543L38.2841 75.5745L40.039 74.8338L41.2569 74.77L43.2081 74.1334L44.8345 74.5825L45.073 74.0357L47.0702 73.5493C44.3619 73.8185 38.7475 74.3672 37.9559 74.4087C37.1642 74.4501 34.6506 74.9381 33.4927 75.1769L30.9047 75.3125L24.3001 76.7272L18.2965 77.9578L15.0413 78.4719L12.0727 78.6274L9.14209 78.781L6.89657 78.8987L3.3449 79.581L1.67028 79.6687L-1.03195 79.8104Z" fill="#D4B9A1"/>
<path d="M46.0945 74.5924L49.1535 73.249L50.3327 76.0877L50.9269 79.415L48.5611 80.1496L46.9245 80.2354L44.2603 80.375L41.9207 80.1541L38.9381 80.0433L34.2389 79.9461L34.5935 79.4314L35.9337 78.7887L38.1374 77.8718L39.113 77.5535L40.4211 77.027L42.6909 75.9157L44.3836 75.4454L46.0945 74.5924Z" fill="#D4B9A1"/>
<path d="M47.7578 79.3904L51.8084 78.0332L52.1506 79.4655L49.1798 80.3081L46.097 80.4697L43.2306 80.3909L39.2484 80.1417L37.5198 79.9269L40.4884 79.7714L43.0004 79.6397L45.0556 79.532L47.7578 79.3904Z" fill="#966E65"/>
<path d="M45.6196 72.8237L49.2353 72.6342L49.742 72.8366L47.1038 73.471L45.7637 73.3886L43.4881 73.6605L38.981 74.3165L37.8011 74.3783L34.9666 74.9085L33.2338 75.3428L30.8741 75.4665L30.8143 74.3247L35.2672 74.0913L39.2637 73.1568L40.6577 73.5417L42.7891 73.43L45.6196 72.8237Z" fill="#966E65"/>
<path d="M46.1991 72.221L49.0938 71.3823L50.7061 72.2901L47.3126 73.0786L44.6484 73.2182L40.6781 73.9224L37.4351 73.9397L32.5152 74.7319L30.8507 74.2848L31.1753 73.9243L33.9519 73.0155L37.1108 72.85L39.8892 72.7043L46.1991 72.221Z" fill="#C8AE96"/>
<path d="M-0.312702 77.5202L-3.39537 76.9567L-4.51786 80.2976L-2.04231 81.6563L14.8405 79.0159L21.1528 77.1204L19.5923 77.2022L29.9154 72.4631L24.9876 73.103L19.6973 73.3802L14.06 75.7747L8.9539 76.6529L4.14027 77.2868L-0.312702 77.5202Z" fill="#C8AE96"/>
<path d="M30.8145 75.7744L29.9539 72.4611L18.6293 77.0236L18.6892 78.1654L30.8145 75.7744Z" fill="#966E65"/>
</g>
<path d="M9.24805 37.7344C11.9391 41.1162 13.2347 44.953 12.8519 45.4804L35.8467 62.9839L41.1748 58.9253C41.3886 59.6324 41.436 59.4725 39.9159 53.1769C38.7578 48.3809 34.0093 43.366 24.2668 40.1998L20.4045 39.4265L9.24805 37.7344Z" fill="#E2D4DE" stroke="#634259" stroke-width="0.324809"/>
<path d="M30.2091 66.6741C29.1994 66.727 28.2256 66.5819 27.3249 66.273L21.9992 61.0107L24.4468 44.4813L29.042 46.0553C31.5223 48.0233 36.5524 53.8886 36.9768 61.7283C35.9352 64.4862 33.3412 66.5099 30.2091 66.6741Z" fill="#EADFE7" stroke="#634259" stroke-width="0.324809"/>
<path d="M12.6116 55.5657L16.6591 53.8315L18.0178 55.2823L16.7973 62.0157L12.9727 62.4556L12.0898 60.9457L12.6116 55.5657Z" fill="#8D657F"/>
<path d="M12.4211 60.4149C12.4005 60.0226 12.8177 56.8884 13.1051 56.1722C13.0967 56.013 13.0411 55.6043 12.8854 55.2431C8.1588 54.7897 6.87094 54.0363 6.38716 53.942C5.90339 53.8476 5.84053 53.9535 5.86831 54.1573C5.89609 54.361 5.96781 54.7506 6.55824 55.5747C7.14866 56.3988 12.4416 60.8071 12.4211 60.4149Z" fill="#BDBCCE" stroke="#526182" stroke-width="0.324809"/>
<path d="M13.1212 55.1986C13.915 55.0706 13.8562 55.461 13.6622 56.0066L13.1408 57.0299L13.0741 56.9959C12.9601 56.8164 12.4879 56.2657 12.3119 55.907C12.092 55.4588 12.3275 55.3266 13.1212 55.1986Z" fill="#E7EFF9"/>
<path d="M10.4269 55.3392C11.2206 55.2113 11.1618 55.6016 10.9679 56.1472L10.4465 57.1705L10.3798 57.1365C10.2657 56.957 9.79353 56.4063 9.6176 56.0477C9.39769 55.5994 9.63317 55.4672 10.4269 55.3392Z" fill="#E7EFF9"/>
<path d="M17.6666 54.7879C15.7731 54.9419 11.7935 56.1674 10.0403 56.7609L11.1925 50.356L17.6284 49.1637C18.4301 50.9743 19.5602 54.634 17.6666 54.7879Z" fill="#C068AD" stroke="#634259" stroke-width="0.324809"/>
<path d="M10.2369 55.6213C12.65 53.6992 14.5878 53.2796 17.5996 52.5335" stroke="#612B56" stroke-width="0.204932"/>
<path d="M10.1393 53.7629C12.5524 51.8408 14.4902 51.4212 17.5019 50.6751" stroke="#612B56" stroke-width="0.204932"/>
<ellipse cx="16.5611" cy="58.8128" rx="3.29599" ry="4.01325" transform="rotate(-3 16.5611 58.8128)" fill="#D3919F"/>
<circle cx="18.5646" cy="50.6396" r="2.66411" transform="rotate(142.058 18.5646 50.6396)" fill="#222524"/>
<ellipse cx="18.3894" cy="50.344" rx="0.866099" ry="1.36463" transform="rotate(170.134 18.3894 50.344)" fill="#D6867E"/>
<ellipse cx="18.1264" cy="49.9561" rx="0.316641" ry="0.774819" transform="rotate(172.996 18.1264 49.9561)" fill="#222524"/>
<path d="M10.0943 56.4838C9.85901 57.2143 9.65712 56.9513 9.53059 56.8211L9.30142 54.0799C9.29648 53.9433 9.44797 52.9606 8.41153 51.7837C7.58237 50.8421 6.36628 50.2833 5.86187 50.1217L24.4668 46.838L21.5562 53.6257L19.3634 53.5525C20.0032 51.8374 21.0639 48.4733 20.1885 48.7381C19.0943 49.0691 13.7272 51.0775 12.7864 51.4005C11.8457 51.7234 11.8959 52.0286 11.6822 52.5186C11.4684 53.0086 10.3297 55.7532 10.0943 56.4838Z" fill="#7D8AA7" stroke="#526182" stroke-width="0.324809"/>
<path d="M15.3107 49.319C11.7758 50.0686 7.13349 50.2434 5.867 50.2243C6.27556 49.536 7.87346 47.7866 10.9967 46.2958C14.9007 44.4324 16.825 44.6052 21.2376 44.2884C25.6502 43.9717 27.7225 45.0089 28.6738 45.5404C29.6251 46.072 29.8369 46.1977 28.7927 47.8086C27.9573 49.0974 24.5244 51.8573 22.9123 53.0761L19.4674 53.2567C19.9557 52.8948 21.0372 52.0799 21.4559 51.716C21.9793 51.261 22.879 49.5038 23.0875 48.5865C23.2959 47.6692 22.4459 47.7651 20.9379 48.0322C19.4299 48.2993 18.8455 48.5694 15.3107 49.319Z" fill="#D5DAF0" stroke="#526182" stroke-width="0.324809"/>
<mask id="mask4_40000320_58155" style="mask-type:alpha" maskUnits="userSpaceOnUse" x="21" y="44" width="17" height="23">
<path d="M27.236 66.4145C28.1658 66.7384 29.1727 66.891 30.2166 66.8363C33.4275 66.668 36.0843 64.586 37.1398 61.7535C36.7236 53.8131 31.6198 47.8831 29.12 45.9107L24.3138 44.2644L21.8255 61.0683L27.236 66.4145Z" fill="#EADFE7"/>
</mask>
<g mask="url(#mask4_40000320_58155)">
<path d="M36.6703 66.3033C36.525 64.6179 34.9606 57.5004 34.3397 56.4213C33.2998 54.6138 32.5638 54.4056 32.5961 54.4781C33.507 56.739 34.7836 63.3239 33.6704 67.1445" stroke="#C068AD" stroke-width="0.819728"/>
</g>
<path d="M15.151 54.4401C14.4815 53.7399 13.8831 52.4373 13.7505 51.5379C14.3497 51.7687 15.7462 52.2884 16.5382 52.5205C17.5281 52.8106 21.5556 52.9758 23.7932 52.9269C26.0309 52.8781 30.6277 51.8334 31.1537 51.7545C31.6797 51.6757 31.6428 51.9512 31.5539 52.2124C31.465 52.4736 31.2217 52.7257 30.4998 53.6357C29.7779 54.5457 25.3415 57.3434 24.7957 57.372C24.25 57.4006 24.1755 57.6097 24.064 58.0944C23.9526 58.579 22.9514 60.6836 22.7977 61.3415C22.6441 61.9994 21.145 62.762 20.5651 62.7924C19.9853 62.8228 15.6014 63.0355 13.7255 62.8089C11.8497 62.5822 11.8884 61.691 11.8759 61.4522L11.7937 59.8832C12.0004 60.0206 12.4388 60.4445 12.5384 61.0413C12.663 61.7872 13.1109 61.8492 13.3497 61.8367C13.5884 61.8242 14.3873 61.731 14.9412 61.531C18.3505 60.0184 19.2386 58.3644 19.2019 57.6651C18.7308 57.4846 15.8204 55.1404 15.151 54.4401Z" fill="#D5DAF0" stroke="#526182" stroke-width="0.324809"/>
</g>
</g>
</g>
<defs>
<filter id="filter0_d_40000320_58155" x="-6.5" y="-3.49527" width="66.7394" height="111.385" filterUnits="userSpaceOnUse" color-interpolation-filters="sRGB">
<feFlood flood-opacity="0" result="BackgroundImageFix"/>
<feColorMatrix in="SourceAlpha" type="matrix" values="0 0 0 0 0 0 0 0 0 0 0 0 0 0 0 0 0 0 127 0" result="hardAlpha"/>
<feOffset dx="6" dy="-4"/>
<feGaussianBlur stdDeviation="2.57527"/>
<feComposite in2="hardAlpha" operator="out"/>
<feColorMatrix type="matrix" values="0 0 0 0 0.784314 0 0 0 0 0.843137 0 0 0 0 0.909804 0 0 0 0.25 0"/>
<feBlend mode="normal" in2="BackgroundImageFix" result="effect1_dropShadow_40000320_58155"/>
<feBlend mode="normal" in="SourceGraphic" in2="effect1_dropShadow_40000320_58155" result="shape"/>
</filter>
<filter id="filter1_d_40000320_58155" x="-34.9919" y="5.65527" width="114.747" height="157.778" filterUnits="userSpaceOnUse" color-interpolation-filters="sRGB">
<feFlood flood-opacity="0" result="BackgroundImageFix"/>
<feColorMatrix in="SourceAlpha" type="matrix" values="0 0 0 0 0 0 0 0 0 0 0 0 0 0 0 0 0 0 127 0" result="hardAlpha"/>
<feOffset dy="30.6667"/>
<feGaussianBlur stdDeviation="15.3333"/>
<feComposite in2="hardAlpha" operator="out"/>
<feColorMatrix type="matrix" values="0 0 0 0 0.784314 0 0 0 0 0.843137 0 0 0 0 0.909804 0 0 0 0.25 0"/>
<feBlend mode="normal" in2="BackgroundImageFix" result="effect1_dropShadow_40000320_58155"/>
<feBlend mode="normal" in="SourceGraphic" in2="effect1_dropShadow_40000320_58155" result="shape"/>
</filter>
<linearGradient id="paint0_linear_40000320_58155" x1="20.7365" y1="23.1172" x2="20.7365" y2="97.3361" gradientUnits="userSpaceOnUse">
<stop stop-color="#A36BBA"/>
<stop offset="0.178715" stop-color="#B7669D"/>
<stop offset="0.346152" stop-color="#F87F97"/>
<stop offset="0.547474" stop-color="#E48177"/>
<stop offset="1" stop-color="#D5D7DC"/>
</linearGradient>
<clipPath id="clip0_40000320_58155">
<rect width="77.3771" height="80" fill="white" transform="translate(0.5)"/>
</clipPath>
<clipPath id="clip1_40000320_58155">
<rect width="48.559" height="74.2189" fill="white" transform="translate(-3.54297 23.1172) rotate(-3)"/>
</clipPath>
</defs>
</svg>
