<svg width="48" height="80" viewBox="0 0 48 80" fill="none"
  xmlns="http://www.w3.org/2000/svg">
  <g clip-path="url(#clip0_40000347_57296)">
    <g filter="url(#filter0_d_40000347_57296)">
      <rect x="-7" y="9.62842" width="50.2178" height="97.2445" rx="2.68724" transform="rotate(-3 -7 9.62842)" fill="#A158ED"/>
      <rect x="-6.34961" y="22.04" width="50.2178" height="3.02315" transform="rotate(-3 -6.34961 22.04)" fill="white"/>
      <rect x="-6.29688" y="23.0464" width="50.2178" height="1.00772" transform="rotate(-3 -6.29688 23.0464)" fill="#61B9F5"/>
      <rect x="-6.19238" y="25.0591" width="50.2178" height="76.7543" transform="rotate(-3 -6.19238 25.0591)" fill="#4D6ECB"/>
      <path d="M-4.41602 58.939L46.5285 71.4896L47.513 90.2746L-2.63605 92.9028L-4.41602 58.939Z" fill="#65612E"/>
      <path d="M13.5701 87.344C5.52525 86.0166 -1.11642 80.3773 -3.43164 77.7236L-2.17468 101.708L47.9743 99.0797L47.1305 82.9784C39.2957 84.9867 21.615 88.6715 13.5701 87.344Z" fill="#CDB389"/>
      <path d="M12.1507 60.3497C11.0068 59.0136 11.9486 56.4942 12.1857 54.871C12.5544 53.026 12.0735 52.7291 11.9837 51.0155C11.8939 49.302 9.35256 45.8914 7.43653 44.1662C5.5205 42.441 5.01354 40.9641 6.23694 39.7187C7.46035 38.4733 12.7744 43.5642 14.5778 45.188C16.3811 46.8117 17.5423 46.4287 19.6505 45.6738C21.7588 44.919 20.6438 40.0375 20.5484 38.2169C20.453 36.3963 20.0475 34.8067 21.8569 34.4971C23.6663 34.1875 24.2121 38.4545 25.2709 42.265C26.3297 46.0755 27.7159 47.9359 28.6344 49.069C29.5529 50.2022 29.1806 51.2956 29.0113 52.1636C28.8421 53.0316 29.1461 54.7338 29.4164 55.7936C29.6867 56.8533 30.0529 57.6932 30.5542 59.063C31.0556 60.4328 31.5854 60.2976 32.2729 61.1207C32.9604 61.9438 32.5769 62.823 32.3908 63.3697C32.2046 63.9164 31.7141 64.8012 31.325 65.5734C30.9359 66.3455 30.4285 66.909 30.2536 67.6699C30.0787 68.4308 29.047 69.2366 28.1902 69.2815C27.3335 69.3264 26.3865 69.6982 25.2365 70.2954C24.0865 70.8926 21.635 69.1955 21.2969 68.891C20.9587 68.5866 16.4167 63.8847 15.5151 63.0729C14.6134 62.261 13.2946 61.6858 12.1507 60.3497Z" fill="#F29600" stroke="black" stroke-width="0.335905"/>
      <path d="M19.0981 64.9128C17.9948 64.7183 17.1873 63.7515 15.3646 62.6698L15.3734 62.8375L19.0139 66.5149L20.6069 68.0292L21.763 69.23L23.237 70.0777L24.9362 70.4091L26.0883 69.9283L27.4081 69.4387L28.825 69.1962L29.88 68.4682L30.3348 67.5194L29.9994 67.5369L30.7102 66.6588L32.3218 63.7152L32.6576 62.0999L32.2695 61.1111L31.5634 60.4754L30.8486 59.6719L30.2619 58.1049L29.3929 55.9641L29.0889 53.3732L29.0318 52.283L29.2661 50.3366L28.8823 49.4317L27.4351 47.4893L26.1336 45.1189L25.3751 41.8791L23.8623 37.0811L23.1786 35.2669C22.1726 33.7219 20.4678 34.8876 20.517 35.8268C20.5785 37.0009 20.68 37.3319 20.5518 38.0955C20.4236 38.859 21.0938 42.0194 21.1422 42.9418C21.1905 43.8643 20.7269 44.6454 20.4178 45.1662L20.4178 45.1662C19.8606 46.105 18.5374 46.1897 18.1181 46.2117C17.7826 46.2293 16.6968 46.3703 16.1936 46.3967C16.3952 46.4982 16.8336 46.7331 16.9748 46.8603C17.1513 47.0192 19.283 47.5802 20.4746 47.8541C21.6662 48.128 24.928 47.7889 25.7135 48.3364C26.4991 48.8839 27.9683 51.2455 28.0386 52.5873C28.1089 53.9291 28.9205 56.5775 29.0395 57.244C29.1585 57.9105 29.5555 59.067 30.3893 60.5369C31.2232 62.0068 31.1306 61.8435 30.4992 62.6334C29.8679 63.4233 29.1263 63.7145 28.3229 64.4293C27.5194 65.1442 26.7031 64.0097 25.7719 63.8903C24.8406 63.7709 24.6993 64.2829 24.1298 64.6491C23.5604 65.0153 23.1055 65.9641 22.3376 65.7521C21.5697 65.5401 20.2015 65.1072 19.0981 64.9128Z" fill="#D7890A"/>
      <path d="M12.1507 60.3497C11.0068 59.0136 11.9486 56.4942 12.1857 54.871C12.5544 53.026 12.0735 52.7291 11.9837 51.0155C11.8939 49.302 9.35256 45.8914 7.43653 44.1662C5.5205 42.441 5.01354 40.9641 6.23694 39.7187C7.46035 38.4733 12.7744 43.5642 14.5778 45.188C16.3811 46.8117 17.5423 46.4287 19.6505 45.6738C21.7588 44.919 20.6438 40.0375 20.5484 38.2169C20.453 36.3963 20.0475 34.8067 21.8569 34.4971C23.6663 34.1875 24.2121 38.4545 25.2709 42.265C26.3297 46.0755 27.7159 47.9359 28.6344 49.069C29.5529 50.2022 29.1806 51.2956 29.0113 52.1636C28.8421 53.0316 29.1461 54.7338 29.4164 55.7936C29.6867 56.8533 30.0529 57.6932 30.5542 59.063C31.0556 60.4328 31.5854 60.2976 32.2729 61.1207C32.9604 61.9438 32.5769 62.823 32.3908 63.3697C32.2046 63.9164 31.7141 64.8012 31.325 65.5734C30.9359 66.3455 30.4285 66.909 30.2536 67.6699C30.0787 68.4308 29.047 69.2366 28.1902 69.2815C27.3335 69.3264 26.3865 69.6982 25.2365 70.2954C24.0865 70.8926 21.635 69.1955 21.2969 68.891C20.9587 68.5866 16.4167 63.8847 15.5151 63.0729C14.6134 62.261 13.2946 61.6858 12.1507 60.3497Z" stroke="black" stroke-width="0.335905"/>
      <path d="M15.5908 45.8867C16.1487 46.287 16.7179 46.9015 17.1463 46.8791C17.5747 46.8566 19.0118 47.6404 19.8008 48.3508" stroke="black" stroke-width="0.335905"/>
      <path d="M20.9961 67.0814C21.0354 67.8311 21.554 67.4817 21.757 67.2563L21.9806 66.9224C21.8065 66.6391 21.6149 66.3189 21.3684 65.988C21.2252 65.7959 21.0354 65.5879 20.8174 65.3725C20.8639 65.6923 20.9647 66.4817 20.9961 67.0814Z" fill="white"/>
      <path d="M23.3437 54.5012C23.5316 54.6703 23.8937 55.1597 23.8394 55.7639M22.5365 59.5908C22.9025 59.1421 23.6417 57.922 23.6702 56.6319M27.0916 56.3452C27.039 56.0258 26.9904 55.2336 27.216 54.6204M23.8937 64.9965C24.1926 64.5513 24.8015 63.8751 25.337 63.847C25.8724 63.8189 26.1937 63.8021 26.5262 63.9995C26.8587 64.1968 27.2927 64.2814 27.7211 64.259C28.0638 64.241 28.4276 64.0788 28.5666 63.9999M25.1335 66.1128C25.1993 66.002 25.3951 65.777 25.6522 65.7635C25.9735 65.7466 26.306 65.944 26.4187 66.0455M30.5336 64.6485L31.5485 63.5215M15.1358 59.7639C15.175 60.5135 15.1353 61.8043 16.0089 62.0807C16.8825 62.3571 17.3109 62.3346 18.0998 63.045C18.7259 63.6087 19.9799 64.5451 20.8174 65.3725M30.6403 66.6834C30.1385 67.354 29.4281 68.1429 28.7968 68.3908C28.1654 68.6387 27.3821 68.0354 26.7227 67.7478C26.0633 67.4602 25.5446 67.8095 25.0091 67.8376C24.4737 67.8656 23.6281 68.1247 22.9743 67.9442C22.5531 67.8279 22.2957 67.4356 21.9806 66.9224M20.8174 65.3725C21.0354 65.5879 21.2252 65.7959 21.3684 65.988C21.6149 66.3189 21.8065 66.6391 21.9806 66.9224M20.8174 65.3725C20.8639 65.6923 20.9647 66.4817 20.9961 67.0814C21.0354 67.8311 21.554 67.4817 21.757 67.2563L21.9806 66.9224" stroke="black" stroke-width="0.335905"/>
      <path d="M16.0332 54.3472C16.4352 54.5051 17.5741 55.0611 18.9131 56.0219C20.5869 57.2228 21.2743 58.0459 21.9899 59.4045" stroke="black" stroke-width="0.335905"/>
      <path d="M16.252 54.4429L16.4372 57.977C17.0063 58.5915 20.3599 59.0601 21.7522 58.9871C20.1565 56.4075 17.4205 54.8828 16.252 54.4429Z" fill="white" stroke="black" stroke-width="0.335905"/>
      <path d="M19.1678 58.8009C18.3563 58.0702 18.2139 56.3094 18.2442 55.5203C20.1062 56.6254 21.3606 58.2922 21.755 58.9875C21.073 58.9516 19.6007 58.8641 19.1678 58.8009Z" fill="#008086" stroke="black" stroke-width="0.335905"/>
      <circle cx="19.4034" cy="57.1773" r="0.536211" transform="rotate(-3 19.4034 57.1773)" fill="white"/>
      <circle cx="19.7524" cy="57.6963" r="0.643453" transform="rotate(-3 19.7524 57.6963)" fill="black"/>
      <path d="M27.7296 56.2044C27.6619 56.5515 27.7687 57.6342 27.8306 58.1321C28.638 57.1447 29.0918 56.2404 29.2177 55.9116L28.9591 53.0256C28.5775 53.9405 27.7973 55.8572 27.7296 56.2044Z" fill="white" stroke="black" stroke-width="0.335905"/>
      <path d="M28.7311 56.9032C28.8441 55.7805 28.6133 54.6542 28.4837 54.2315L27.728 56.2041L27.7448 56.5254L27.8346 58.2389C28.0019 58.0153 28.4154 57.4352 28.7311 56.9032Z" fill="#008086" stroke="black" stroke-width="0.335905"/>
      <path d="M28.2869 56.6044C28.3004 56.8614 27.943 56.873 27.7627 56.8467L27.7234 56.097C27.7854 55.9148 27.9523 55.5481 28.1237 55.5391C28.3379 55.5278 28.2701 56.2831 28.2869 56.6044Z" fill="black" stroke="black" stroke-width="0.335905"/>
      <g filter="url(#filter1_d_40000347_57296)">
        <rect x="-4.8252" y="8.19678" width="48.559" height="94.0323" rx="2.59847" transform="rotate(-3 -4.8252 8.19678)" fill="#D9D9D9"/>
        <rect x="-4.19531" y="20.1982" width="48.559" height="2.92328" transform="rotate(-3 -4.19531 20.1982)" fill="white"/>
        <rect x="-4.14453" y="21.1714" width="48.559" height="0.974428" transform="rotate(-3 -4.14453 21.1714)" fill="#61B9F5"/>
        <mask id="mask0_40000347_57296" style="mask-type:alpha" maskUnits="userSpaceOnUse" x="-5" y="20" width="54" height="78">
          <rect x="-4.04297" y="23.1172" width="48.559" height="74.2189" transform="rotate(-3 -4.04297 23.1172)" fill="url(#paint0_linear_40000347_57296)"/>
        </mask>
        <g mask="url(#mask0_40000347_57296)">
          <rect x="-4.04297" y="23.1172" width="48.559" height="74.2189" transform="rotate(-3 -4.04297 23.1172)" fill="url(#paint1_linear_40000347_57296)"/>
          <path d="M41.6691 26.0548L41.466 26.0655L38.0395 30.6449L37.7592 31.5151L43.4957 33.6995L45.3244 31.2816L45.5041 30.824L46.0709 29.9795L45.9001 29.0515L45.3764 28.3864L45.601 28.0079L45.4557 27.5674L45.1136 27.2594L44.6325 27.4069L44.2221 26.5729L44.0704 26.0105L43.4889 25.7965L43.3349 25.9675L42.548 25.7236L42.5374 25.5205L42.0905 25.5439L41.6691 26.0548Z" fill="#D4B9A1"/>
          <path d="M45.9651 36.6705L46.3853 37.2557L52.4167 83.4865L44.7882 85.8705L40.9384 58.0168L38.8777 41.4408L39.2173 40.6742L40.0329 40.2045L40.6056 39.3037L42.0698 37.8698L43.6299 37.5032L43.534 36.4359L45.9651 36.6705Z" fill="#D4B9A1"/>
          <path d="M50.2406 78.812L44.5825 36.7379L43.5747 36.432L49.3897 78.8884L50.2406 78.812Z" fill="#D5C2B1"/>
          <path d="M47.9307 79.0195L42.1254 38.0345L41.2844 38.6763L47.1759 79.2571L47.9307 79.0195Z" fill="#D5C2B1"/>
          <path d="M45.8687 79.7142L40.078 40.2568L39.4144 40.5995L45.1798 79.7761L45.8687 79.7142Z" fill="#D5C2B1"/>
          <path d="M37.197 49.6893L37.5614 50.1968L42.7922 90.2908L36.1763 92.3583L32.8376 68.202L31.0504 53.8263L31.3449 53.1615L32.0523 52.7542L32.5489 51.9729L33.8188 50.7294L35.1718 50.4114L35.0886 49.4858L37.197 49.6893Z" fill="#D4B9A1"/>
          <path d="M40.9041 86.237L35.9971 49.7479L35.1231 49.4827L40.1662 86.3033L40.9041 86.237Z" fill="#D5C2B1"/>
          <path d="M38.9017 86.4167L33.867 50.8721L33.1376 51.4287L38.2471 86.6228L38.9017 86.4167Z" fill="#D5C2B1"/>
          <path d="M37.1136 87.0193L32.0916 52.7996L31.5161 53.0968L36.5162 87.073L37.1136 87.0193Z" fill="#D5C2B1"/>
          <path d="M1.42992 72.895L-4.62603 74.7197L-4.55704 100.911L50.8563 98.7405L48.7106 74.8984L36.3263 72.5735L35.1307 73.8583L28.7696 72.9696L23.9288 72.327L17.0283 73.5849L1.42992 72.895Z" fill="#D4B9A1"/>
          <path d="M9.91027 82.3505L8.27539 78.3623L12.5622 80.0931L16.6454 84.1567L17.4741 88.3094L13.7541 85.7341L9.91027 82.3505Z" fill="#D5C2B1"/>
          <path d="M27.9542 76.0677L50.5401 77.9394L51.0085 86.8774L51.3088 92.6059L39.5839 86.5392L8.80718 80.7376L0.733685 78.2683L18.6743 75.4541L27.9542 76.0677Z" fill="#D5C2B1"/>
          <path d="M-1.34273 77.5219L-5.49115 78.4319L-3.6292 80.5342L8.45133 83.2824L9.75831 81.014L5.59763 79.3581L-1.34273 77.5219Z" fill="#D4B9A1"/>
          <path d="M9.73992 77.5522L-6.07952 80.4183L-5.33177 73.6979L-3.99107 73.6276L-0.456496 73.4424L2.34679 73.2955L5.278 74.8121L9.73992 77.5522Z" fill="#C39C93"/>
          <path d="M-1.03429 84.9609L2.25353 88.618L5.56103 90.3187L4.5934 85.8474L3.61904 82.8023L-3.59899 79.5548L-4.19792 80.5639L-2.63757 83.1302L-1.03429 84.9609Z" fill="#966E65"/>
          <path d="M5.06723 80.893L8.89649 82.4441L11.2057 82.9749L12.777 84.1962L15.5069 87.3122L9.14561 87.1975L4.79849 87.4253L3.46239 86.0287L1.00185 83.3874L-1.6597 80.7974L-3.7207 79.561L0.81235 79.7716L3.15153 80.0971L5.06723 80.893Z" fill="#C39C93"/>
          <path d="M13.721 78.8915L8.26855 78.2402L13.9019 82.3448L15.3661 84.6309L19.1026 89.8534L54.5892 99.2375L51.8431 91.9262L44.4947 88.5226L42.5813 86.9934L37.1017 83.4918L31.2565 80.0094L28.5345 80.1521L20.4497 80.5758L16.03 80.1963L13.721 78.8915Z" fill="#C39C93"/>
          <path d="M10.7828 81.1231L8.60449 78.4263L12.8764 79.8727L18.0689 85.6707L17.5981 87.5693L15.4042 87.6843L13.0425 83.0416L10.7828 81.1231Z" fill="#966E65"/>
          <path d="M-2.84892 33.236L-3.06535 35.3251L-1.9984 35.4728L-0.240776 35.5844L0.0528232 32.6358L-0.810996 32.4774C-1.13247 32.5622 -1.84854 32.7355 -2.14105 32.7508C-2.43357 32.7661 -2.73485 33.0807 -2.84892 33.236Z" fill="#D4B9A1"/>
          <path d="M-2.18403 34.2604C-2.42353 34.3545 -2.67155 34.286 -2.90467 34.5019L-3.06309 35.3657L-1.98762 35.676L-0.236388 35.6657L0.0442623 33.2474L-0.849539 33.2942C-0.97284 33.2735 -1.26564 33.2834 -1.45043 33.4887C-1.68142 33.7452 -1.94452 34.1664 -2.18403 34.2604Z" fill="#966E65"/>
          <path d="M34.3594 23.3829L34.793 25.4379L33.7474 25.6963L32.0111 25.991L31.4109 23.0893L32.2534 22.8414C32.5819 22.8921 33.3122 22.9896 33.6047 22.9743C33.8972 22.959 34.2298 23.2403 34.3594 23.3829Z" fill="#D4B9A1"/>
          <path d="M33.8055 24.4712C34.0535 24.5396 34.293 24.4456 34.5475 24.636L34.7953 25.4785L33.7582 25.8995L32.0154 26.0723L31.4835 23.6966L32.3773 23.6498C32.4978 23.6163 32.79 23.5955 32.9953 23.7803C33.2518 24.0113 33.5575 24.4027 33.8055 24.4712Z" fill="#966E65"/>
          <path d="M-0.0445228 28.4449L-0.080719 27.7542C0.194446 27.5633 0.793528 27.1788 0.988539 27.1686C1.2323 27.1558 2.31629 27.6286 2.72257 27.6073C3.04758 27.5903 4.08947 28.2961 4.56978 28.6512L4.65495 30.2763L3.53672 29.9275L1.38365 29.2663L0.628935 28.8577L-0.0445228 28.4449Z" fill="#D4B9A1"/>
          <path d="M40.1719 81.0618L40.0922 79.5406C40.6982 79.1201 42.0176 78.2733 42.4471 78.2508C42.984 78.2227 45.3714 79.264 46.2661 79.2171C46.982 79.1796 49.2766 80.7341 50.3344 81.5161L50.522 85.0952L48.0592 84.327L43.3173 82.8708L41.6551 81.971L40.1719 81.0618Z" fill="#D4B9A1"/>
          <path d="M0.829731 28.0322L0.156273 27.6193L-0.25 27.6406L-0.207416 28.4532L0.211632 28.6756L1.34477 29.3088L4.65883 30.3573L2.49298 29.4523L1.73613 29.0031L1.29579 28.3744L0.829731 28.0322Z" fill="#966E65"/>
          <path d="M42.0987 80.1533L40.6155 79.2441L39.7207 79.291L39.8145 81.0806L40.7374 81.5705L43.233 82.965L50.5318 85.2742L45.7618 83.2811L44.0949 82.2918L43.1251 80.9071L42.0987 80.1533Z" fill="#966E65"/>
          <path d="M31.8815 41.2707L32.0244 41.9474C32.3395 42.061 33.0174 42.2781 33.2085 42.2377C33.4473 42.1873 34.3729 41.4511 34.7709 41.367C35.0894 41.2998 35.9142 40.3493 36.2868 39.8824L35.9504 38.2903L34.9598 38.9154L33.0498 40.1091L32.4258 40.6983L31.8815 41.2707Z" fill="#D4B9A1"/>
          <path d="M32.833 41.4436L32.2887 42.016L31.8906 42.1001L31.7224 41.304L32.07 40.9811L33.0017 40.0773L35.9337 38.2103L34.0742 39.6428L33.4586 40.2718L33.1952 40.9928L32.833 41.4436Z" fill="#966E65"/>
          <path d="M9.7831 36.4034L7.17806 48.8838L8.85868 49.0809L10.4431 48.9979L11.322 48.6667L12.1028 47.2406L13.7085 38.2347L13.6702 37.5034L13.4073 37.1505L12.8429 36.4875L12.3832 36.2672L11.8551 36.2948L11.4981 35.7025L10.6599 36.0316L9.7831 36.4034Z" fill="#D4B9A1"/>
          <path d="M10.1644 43.6759L11.627 43.5992L12.0693 45.0427L12.1225 46.0583L12.1928 47.3991L11.3265 48.7481L10.4519 49.1606L9.11117 49.2308L7.30441 48.9589L7.63208 46.6603L8.11765 45.8201L9.07797 44.7106L10.1644 43.6759Z" fill="#966E65"/>
          <path d="M9.9638 42.9531L11.7636 36.0961L11.9325 36.2095L12.467 36.3037L10.8663 42.2947L10.3124 42.6089L9.9638 42.9531Z" fill="#D5C2B1"/>
          <path d="M11.9309 43.1757L13.1938 36.958L13.367 37.1526L12.1255 43.0026L11.9309 43.1757Z" fill="#D5C2B1"/>
          <path d="M14.6242 37.046L14.7419 36.9583L14.7078 36.3083L14.8169 36.0582L15.2446 35.6691L15.6445 35.5259L16.2454 35.3315L17.0771 35.6545L18.9772 39.2622L18.9127 41.1396C17.8429 40.6796 15.6868 39.7524 15.6201 39.7233C15.5534 39.6942 15.5823 39.5216 15.6052 39.4389L15.1818 39.1352L14.6242 37.046Z" fill="#D4B9A1"/>
          <path d="M19.8479 37.9943L18.132 33.2363L17.8946 33.371L17.918 33.8179L17.6443 34.0359L17.2999 34.4613L16.9532 35.6202L16.2092 35.4148L16.3609 35.9772L16.6557 36.9394L17.5238 37.1791L17.8274 37.5299L18.77 39.1915L19.3794 39.1596L19.5334 38.9885L19.5099 38.5416L19.572 38.1717L19.8479 37.9943Z" fill="#D4B9A1"/>
          <path d="M18.7769 36.2174L19.2943 36.7607L19.8884 37.9924L19.6532 38.1677L19.5504 38.5397L19.576 39.0273L19.422 39.1983L18.8126 39.2302L17.5643 37.1772L16.6577 36.9803L16.2539 35.4941L16.3352 35.4899L16.8375 36.5228L17.171 36.6682L17.4469 36.4908L17.8725 36.0611L17.9644 36.26L18.4989 36.3542L18.4861 36.1104L18.2702 35.8773L17.9498 34.4275L17.6312 34.5664L17.5435 34.4488L17.7788 34.2735L17.7596 33.9079L17.9179 33.8181L18.044 33.893L18.7769 36.2174Z" fill="#966E65"/>
          <path d="M-4.09514 39.7787L-4.43737 40.2448L-4.54752 73.9009L3.3168 74.7109L3.59717 54.4082L3.53571 42.3527L3.10176 41.8459L2.23368 41.6062L1.55171 41.0309L-0.0817294 40.1795L-1.67471 40.1L-1.71517 39.3281L-4.09514 39.7787Z" fill="#D4B9A1"/>
          <path d="M-0.189216 73.8762C-0.644242 73.9 3.88679 58.8879 6.20919 51.3789L6.89754 52.0761L6.86648 52.1805L7.41275 52.5787L7.90027 52.5532L8.43182 56.477L8.87003 57.0651L9.18176 59.1265L7.87867 63.8688L6.2361 74.4357C4.28392 74.2393 0.26581 73.8523 -0.189216 73.8762Z" fill="#D4B9A1"/>
          <path d="M-0.667821 70.1944L-0.115895 40.3038L0.799198 40.6633L0.110485 70.2758L-0.667821 70.1944Z" fill="#D5C2B1"/>
          <path d="M1.46414 70.449L2.19544 41.649L2.89675 41.8159L2.15481 70.4128L1.46414 70.449Z" fill="#D5C2B1"/>
          <path d="M14.6243 37.046L14.7462 37.0396L15.1779 38.2799L15.6569 38.0918L15.2084 35.7525L15.5249 35.5729L15.5568 36.1823L16.6834 37.4677L16.8737 37.2133L16.8652 37.0508L17.8809 36.9975L19.0158 39.2194L18.9128 41.1396L15.5795 39.7254L15.5625 39.4004L15.2226 39.133L14.6243 37.046Z" fill="#966E65"/>
          <path d="M6.52708 53.5625L6.77758 52.1235L7.40828 52.4978L7.85518 52.4744L8.43587 56.5586L8.91471 57.1446L9.18794 59.2487L7.98103 63.4266L7.48159 59.3381L6.72084 57.2595L6.27854 55.8161L6.52708 53.5625Z" fill="#966E65"/>
          <path d="M3.39828 63.8295L6.81996 52.1618L6.28029 55.8566L6.37219 56.0554L3.46216 65.0483L3.39828 63.8295Z" fill="#D5C2B1"/>
          <path d="M3.29477 68.8456L6.67581 57.18L6.96216 57.9798L3.36929 70.2675L3.29477 68.8456Z" fill="#D5C2B1"/>
          <path d="M39.5018 32.1165L43.4911 25.8373L44.1111 26.0085L44.126 26.2929L40.2544 32.4844L39.5018 32.1165Z" fill="#D5C2B1"/>
          <path d="M37.999 30.6474L37.7572 31.4748L38.1268 33.085L40.0127 33.3121L40.6604 34.0114L42.033 34.5506L43.4231 33.8666L43.791 33.1141L43.774 32.789L43.306 31.6321L42.5087 30.411L41.9935 29.9084L41.9764 29.5834L40.9201 29.6387L39.5964 30.034L38.5165 30.4165L37.999 30.6474Z" fill="#966E65"/>
        </g>
        <mask id="mask1_40000347_57296" style="mask-type:alpha" maskUnits="userSpaceOnUse" x="5" y="36" width="36" height="34">
          <path d="M23.2773 68.4319C22.4313 68.8302 21.4955 69.0742 20.5041 69.1262C17.4548 69.286 14.7389 67.5834 13.4609 65.013L13.0951 58.0326L5.38513 54.0843L5.14435 36.7847L25.9631 37.9998L40.2722 46.3931L38.1223 58.6698L31.3007 69.1937L24.7938 67.7483L23.2773 68.4319Z" fill="#D9D9D9"/>
        </mask>
        <g mask="url(#mask1_40000347_57296)">
          <path d="M31.2492 63.2364C31.402 62.124 31.1669 61.6654 30.2357 59.3918L28.3048 56.3262C26.8707 51.7891 23.9107 42.7002 23.5438 42.6415C23.177 42.5828 18.8433 41.5778 16.7224 41.0826L16.9469 39.4793C16.9757 39.0361 17.205 39.0327 17.3161 39.0865C20.3383 39.6318 26.4739 40.7275 26.8388 40.7474C27.2948 40.7722 27.3954 40.8319 27.5163 41.2803C27.6373 41.7286 28.5345 47.0734 28.5744 47.8346C28.6063 48.4436 29.3614 49.4228 29.7349 49.8363C32.5125 48.9166 38.2277 47.0299 38.8674 46.8404C39.667 46.6037 39.4717 46.9062 39.1826 47.2787C38.9514 47.5766 35.0983 52.0833 33.2006 54.2994L31.8593 56.5946C32.7694 57.6404 34.6856 59.8277 35.0695 60.2104C35.5493 60.6887 35.3165 60.8958 35.1246 61.2631C34.9711 61.557 31.8359 65.9611 30.2874 68.1264C30.5571 66.8672 31.1269 64.1263 31.2492 63.2364Z" fill="#8095B2" stroke="#17283F" stroke-width="0.324809"/>
          <path d="M24.2128 65.9438C23.8833 66.5977 22.9632 69.9881 22.5443 71.6017L21.593 75.4517L10.6771 71.9962C11.5573 69.4762 13.4002 64.1491 13.7298 63.0015C14.1418 61.567 15.7276 56.4981 15.6758 55.5102C15.624 54.5222 14.6221 52.1387 13.8841 51.6902C13.146 51.2416 10.7492 50.4416 9.34455 49.9792C7.9399 49.5169 7.79583 49.557 7.7466 48.6176C7.69737 47.6782 9.40872 41.2873 9.94926 40.7555C10.3817 40.3301 12.7399 41.221 13.865 41.7196L27.9866 53.6632L33.4269 56.139L33.1276 60.6532L30.5502 59.5053C30.5873 59.904 30.688 60.7713 30.7936 61.0516C30.9257 61.402 31.2782 63.1699 31.2474 63.5126C31.2166 63.8553 30.6421 64.0478 30.2551 64.1005C29.8681 64.1533 28.2349 63.979 28.0005 63.8452C27.7661 63.7113 26.4295 63.9275 25.6197 63.9699C24.8099 64.0124 24.6247 65.1264 24.2128 65.9438Z" fill="#466289" stroke="#17283F" stroke-width="0.324809"/>
          <path d="M17.5751 67.2822C17.4099 67.8495 16.6471 69.9239 16.2863 70.8901L14.4996 71.1949C15.8325 67.2923 18.5402 59.2966 18.7082 58.5343C18.7799 57.7347 18.247 54.6933 17.6967 53.1793C17.1464 51.6653 14.8803 49.6403 14.3383 49.214C13.9047 48.8729 12.2111 47.2575 11.4186 46.4925L12.0216 44.6744C12.7834 45.6793 14.4639 47.8302 15.0911 48.395C15.8752 49.101 17.4666 49.0988 18.3386 49.0043C19.0363 48.9288 21.0779 49.4184 22.0115 49.6726C22.8787 52.2743 24.3672 57.4971 23.3838 57.5747C22.1546 57.6716 21.1469 58.5851 20.7146 59.0138C20.2824 59.4424 19.2683 61.7855 19.0627 62.8194C18.857 63.8533 17.7815 66.5731 17.5751 67.2822Z" fill="#87D4E4"/>
          <circle cx="28.1922" cy="54.172" r="2.53001" transform="rotate(-3 28.1922 54.172)" fill="#222524"/>
          <circle cx="28.1885" cy="54.7244" r="1.03795" transform="rotate(-3 28.1885 54.7244)" fill="#D6867E"/>
          <ellipse cx="28.2652" cy="54.6522" rx="0.227053" ry="0.535195" transform="rotate(22.7446 28.2652 54.6522)" fill="#222524"/>
          <path d="M30.3263 55.5542C30.1012 56.2156 29.8247 57.4482 30.0007 59.2578M31.5366 56.0267C31.3115 56.6881 31.1057 58.0306 31.2818 59.8403" stroke="#17283F" stroke-width="0.16218"/>
          <path d="M26.6644 53.2291C26.2703 52.899 25.7747 52.4692 25.5761 52.2955L26.7189 49.6209C29.1511 50.8901 34.0165 53.448 34.0206 53.5257C34.0257 53.6229 35.0147 56.3806 35.0163 56.7216C35.0179 57.0625 34.5824 57.1179 34.2099 57.1374L33.8212 57.1577C33.7757 57.2197 33.6709 57.3897 33.6156 57.5745C33.5465 57.8055 33.4926 58.6366 33.5173 59.1063C33.537 59.482 33.6224 60.2863 33.6627 60.6415C33.609 60.6497 33.4625 60.665 33.3064 60.6602C33.1112 60.6541 32.7114 60.464 32.5751 60.3412C32.3667 59.0919 32.5354 57.4146 32.6458 56.7321C32.6069 56.7125 32.3006 56.5911 31.3869 56.2622C30.2448 55.8511 27.157 53.6418 26.6644 53.2291Z" fill="#EEF2F2" stroke="#17283F" stroke-width="0.324809"/>
          <path d="M28.436 52.0153C28.0344 51.5426 27.7035 50.7436 27.5882 50.4032L25.023 51.6582L19.5719 47.7376L17.2301 41.4779C17.8421 41.3809 19.2853 41.2143 20.1615 41.3243C21.2568 41.4618 23.1354 41.9805 24.0363 42.4367C24.9372 42.8929 25.8541 43.9655 26.4413 44.633L26.4558 44.6495C27.039 45.3126 27.6731 46.0336 28.3375 46.4175C29.0074 46.8047 31.7668 49.8756 32.8132 51.2499C33.8597 52.6242 34.1364 53.8765 34.2274 54.6837C34.3185 55.491 33.5897 55.2206 33.2803 55.2043C32.9709 55.1881 31.7845 54.5519 30.9458 54.0437C30.1072 53.5355 28.9379 52.6061 28.436 52.0153Z" fill="#466289" stroke="#17283F" stroke-width="0.324809"/>
          <path d="M31.1538 51.4994L32.8369 53.2464L32.741 51.4162L31.0342 49.2158C30.1362 48.4021 28.2629 46.7236 27.9533 46.519C27.5664 46.2632 26.576 45.6492 26.2846 45.3559C25.9931 45.0626 25.0506 44.1214 24.806 43.7932C24.5615 43.4649 24.0561 42.8093 23.255 42.088C22.6318 41.8478 21.0213 41.5067 20.2939 41.3662C20.5826 41.6055 21.2326 42.1713 21.5237 42.5198C21.8876 42.9554 23.8564 43.9566 24.1376 44.3641C24.3626 44.6901 25.1397 45.7191 25.5002 46.1928C25.928 46.4032 26.8484 46.879 27.1068 47.0993C27.4298 47.3747 29.8033 49.2803 30.2566 49.8737C30.6193 50.3484 31.0059 51.1553 31.1538 51.4994Z" fill="#87D3EA"/>
          <path d="M30.3587 63.6079C30.0995 63.6215 29.4339 63.0068 28.7326 62.0204L28.154 61.2062L29.4186 58.9962L30.5999 59.5352L30.708 60.3578C30.785 60.5865 30.9917 61.1842 31.203 61.7448C31.4142 62.3053 31.2032 63.1955 31.0713 63.5706L30.3587 63.6079Z" fill="#322830" stroke="#17283F" stroke-width="0.324809"/>
          <path d="M29.5969 63.3227L29.354 63.3355L28.0526 62.0557C28.1806 61.5023 28.5009 60.3822 28.758 60.3298C29.0793 60.2642 29.7348 60.376 30.0826 60.5039C30.4303 60.6319 30.7294 61.0709 30.7506 61.4758C30.7718 61.8807 30.6097 62.5064 30.4793 62.8055C30.3488 63.1047 29.8722 63.3083 29.5969 63.3227Z" fill="#B46E76"/>
          <path d="M29.7257 61.4324C29.6124 61.4383 29.2409 61.539 28.6618 61.8942L29.3572 62.7672C29.4948 62.603 29.7665 62.2098 29.7529 61.9507L29.7257 61.4324Z" fill="#E7EFF9"/>
          <path d="M28.5052 61.7072L28.1018 62.6865C28.4597 63.1117 29.6297 64.1363 30.3689 64.1105C31.2929 64.0783 31.4431 63.5345 31.4346 63.3726C31.4261 63.2106 31.3674 62.7103 31.2497 62.9438C31.0313 63.7348 30.7466 63.571 30.5523 63.5812C30.3579 63.5914 30.1193 63.3766 29.9011 63.2418C29.7266 63.134 28.8109 62.0647 28.5052 61.7072Z" fill="#B4C2C5"/>
          <path d="M30.8457 62.6727C30.5159 62.2677 30.7546 62.174 31.1245 62.1059L31.8695 62.0669L31.8721 62.1155C31.8081 62.2379 31.6517 62.6824 31.5071 62.8979C31.3263 63.1672 31.1755 63.0777 30.8457 62.6727Z" fill="#E7EFF9"/>
          <path d="M26.0748 66.463L25.7548 60.3572L22.7975 58.1573C22.7452 56.7471 22.6171 53.7234 22.5225 52.9099C22.4042 51.8929 21.6611 51.3472 21.0738 50.9882C20.4866 50.6292 17.9477 48.9759 17.2778 48.5887C16.6079 48.2016 16.2124 47.7838 15.8478 47.0234C15.4831 46.263 14.2911 44.2792 14.0602 43.5929C13.8294 42.9067 13.6786 42.5086 13.1697 42.4053C12.7626 42.3227 8.70761 41.4482 6.73099 41.0213C6.81434 40.546 6.98994 39.5169 7.02547 39.2032C7.06988 38.8111 7.04612 38.3576 7.55158 38.3961C8.05705 38.4346 16.5125 40.1839 17.5012 40.4569C18.4899 40.7298 18.0808 40.6701 18.3159 41.4373C18.504 42.0511 19.5358 44.8813 20.0281 46.2197C20.9043 46.8233 22.7339 48.0819 23.0435 48.2865C23.4304 48.5424 23.8763 48.3728 24.1448 48.2288C24.4133 48.0848 31.16 44.808 31.8096 44.4979C32.4592 44.1877 32.2144 44.7852 32.02 45.104C31.8644 45.359 28.0761 50.5238 26.2014 53.0743C26.2451 53.4943 26.3874 54.5782 26.6074 55.5541C26.8275 56.5299 27.1303 56.7501 27.2542 56.7382C27.9956 57.2515 28.5334 57.5968 29.3755 58.1698C29.8527 58.5996 29.5918 58.8893 29.4357 59.3197C29.2796 59.7502 27.0545 65.3235 26.6255 66.4341C26.1965 67.5447 26.1037 67.0136 26.0748 66.463Z" fill="#D9D9D9" stroke="#17283F" stroke-width="0.324809"/>
        </g>
        <path d="M23.6621 67.6892L23.4188 68.3418C22.5581 68.7469 21.606 68.9953 20.5973 69.0481C17.4948 69.2107 14.7315 67.4784 13.4311 64.8631L13.3816 63.9184L13.3731 63.7562L13.655 62.9283L13.9411 62.1815" stroke="#17283F" stroke-width="0.324809"/>
      </g>
    </g>
  </g>
  <defs>
    <filter id="filter0_d_40000347_57296" x="-7" y="-3.49527" width="66.7394" height="111.386" filterUnits="userSpaceOnUse" color-interpolation-filters="sRGB">
      <feFlood flood-opacity="0" result="BackgroundImageFix"/>
      <feColorMatrix in="SourceAlpha" type="matrix" values="0 0 0 0 0 0 0 0 0 0 0 0 0 0 0 0 0 0 127 0" result="hardAlpha"/>
      <feOffset dx="6" dy="-4"/>
      <feGaussianBlur stdDeviation="2.57527"/>
      <feComposite in2="hardAlpha" operator="out"/>
      <feColorMatrix type="matrix" values="0 0 0 0 0.784314 0 0 0 0 0.843137 0 0 0 0 0.909804 0 0 0 0.25 0"/>
      <feBlend mode="normal" in2="BackgroundImageFix" result="effect1_dropShadow_40000347_57296"/>
      <feBlend mode="normal" in="SourceGraphic" in2="effect1_dropShadow_40000347_57296" result="shape"/>
    </filter>
    <filter id="filter1_d_40000347_57296" x="-35.4919" y="5.65527" width="114.747" height="157.778" filterUnits="userSpaceOnUse" color-interpolation-filters="sRGB">
      <feFlood flood-opacity="0" result="BackgroundImageFix"/>
      <feColorMatrix in="SourceAlpha" type="matrix" values="0 0 0 0 0 0 0 0 0 0 0 0 0 0 0 0 0 0 127 0" result="hardAlpha"/>
      <feOffset dy="30.6667"/>
      <feGaussianBlur stdDeviation="15.3333"/>
      <feComposite in2="hardAlpha" operator="out"/>
      <feColorMatrix type="matrix" values="0 0 0 0 0.784314 0 0 0 0 0.843137 0 0 0 0 0.909804 0 0 0 0.25 0"/>
      <feBlend mode="normal" in2="BackgroundImageFix" result="effect1_dropShadow_40000347_57296"/>
      <feBlend mode="normal" in="SourceGraphic" in2="effect1_dropShadow_40000347_57296" result="shape"/>
    </filter>
    <linearGradient id="paint0_linear_40000347_57296" x1="20.2365" y1="23.1172" x2="20.2365" y2="97.3361" gradientUnits="userSpaceOnUse">
      <stop stop-color="#081D82"/>
      <stop offset="0.178715" stop-color="#2965EE"/>
      <stop offset="0.346152" stop-color="#BAA1D2"/>
      <stop offset="0.547474" stop-color="#E48177"/>
      <stop offset="1" stop-color="#D5D7DC"/>
    </linearGradient>
    <linearGradient id="paint1_linear_40000347_57296" x1="20.2365" y1="23.1172" x2="20.2365" y2="97.3361" gradientUnits="userSpaceOnUse">
      <stop stop-color="#081D82"/>
      <stop offset="0.202586" stop-color="#2965EE"/>
      <stop offset="0.570911" stop-color="#BAA1D2"/>
      <stop offset="0.771815" stop-color="#E48177"/>
      <stop offset="1" stop-color="#D5D7DC"/>
    </linearGradient>
    <clipPath id="clip0_40000347_57296">
      <rect width="48" height="80" fill="white"/>
    </clipPath>
  </defs>
</svg>
