<svg width="52" height="104" viewBox="0 0 52 104" fill="none" xmlns="http://www.w3.org/2000/svg">
<g clip-path="url(#clip0_40001319_57307)">
<g filter="url(#filter0_d_40001319_57307)">
<rect x="-7" y="10.6289" width="50.2178" height="97.2445" rx="2.68724" transform="rotate(-3 -7 10.6289)" fill="#A158ED"/>
<rect x="-6.34961" y="23.041" width="50.2178" height="3.02315" transform="rotate(-3 -6.34961 23.041)" fill="white"/>
<rect x="-6.29688" y="24.0469" width="50.2178" height="1.00772" transform="rotate(-3 -6.29688 24.0469)" fill="#61B9F5"/>
<rect x="-6.19238" y="26.0586" width="50.2178" height="76.7543" transform="rotate(-3 -6.19238 26.0586)" fill="#4D6ECB"/>
<path d="M-4.41602 59.9395L46.5285 72.4901L47.513 91.275L-2.63605 93.9032L-4.41602 59.9395Z" fill="#65612E"/>
<path d="M13.5701 88.345C5.52525 87.0175 -1.11642 81.3783 -3.43164 78.7246L-2.17468 102.709L47.9743 100.081L47.1305 83.9794C39.2957 85.9877 21.615 89.6725 13.5701 88.345Z" fill="#CDB389"/>
<path d="M12.1507 61.3502C11.0068 60.014 11.9486 57.4947 12.1857 55.8715C12.5544 54.0265 12.0735 53.7296 11.9837 52.016C11.8939 50.3025 9.35256 46.8919 7.43653 45.1666C5.5205 43.4414 5.01354 41.9646 6.23694 40.7192C7.46035 39.4738 12.7744 44.5647 14.5778 46.1885C16.3811 47.8122 17.5423 47.4291 19.6505 46.6743C21.7588 45.9195 20.6438 41.038 20.5484 39.2174C20.453 37.3968 20.0475 35.8072 21.8569 35.4976C23.6663 35.188 24.2121 39.455 25.2709 43.2655C26.3297 47.076 27.7159 48.9364 28.6344 50.0695C29.5529 51.2027 29.1806 52.2961 29.0113 53.1641C28.8421 54.032 29.1461 55.7343 29.4164 56.7941C29.6867 57.8538 30.0529 58.6937 30.5542 60.0635C31.0556 61.4333 31.5854 61.2981 32.2729 62.1212C32.9604 62.9443 32.5769 63.8235 32.3908 64.3702C32.2046 64.9169 31.7141 65.8017 31.325 66.5739C30.9359 67.346 30.4285 67.9095 30.2536 68.6704C30.0787 69.4313 29.047 70.2371 28.1902 70.282C27.3335 70.3269 26.3865 70.6987 25.2365 71.2959C24.0865 71.8931 21.635 70.196 21.2969 69.8915C20.9587 69.5871 16.4167 64.8852 15.5151 64.0733C14.6134 63.2615 13.2946 62.6863 12.1507 61.3502Z" fill="#F29600" stroke="black" stroke-width="0.335905"/>
<path d="M19.0981 65.9133C17.9948 65.7188 17.1873 64.752 15.3646 63.6703L15.3734 63.838L19.0139 67.5154L20.6069 69.0297L21.763 70.2304L23.237 71.0782L24.9362 71.4096L26.0883 70.9288L27.4081 70.4391L28.825 70.1967L29.88 69.4687L30.3348 68.5198L29.9994 68.5374L30.7102 67.6593L32.3218 64.7157L32.6576 63.1003L32.2695 62.1116L31.5634 61.4759L30.8486 60.6724L30.2619 59.1054L29.3929 56.9646L29.0889 54.3737L29.0318 53.2835L29.2661 51.3371L28.8823 50.4322L27.4351 48.4898L26.1336 46.1194L25.3751 42.8796L23.8623 38.0815L23.1786 36.2674C22.1726 34.7223 20.4678 35.8881 20.517 36.8273C20.5785 38.0014 20.68 38.3324 20.5518 39.096C20.4236 39.8595 21.0938 43.0199 21.1422 43.9423C21.1905 44.8648 20.7269 45.6459 20.4178 46.1666L20.4178 46.1667C19.8606 47.1055 18.5374 47.1902 18.1181 47.2122C17.7826 47.2298 16.6968 47.3708 16.1936 47.3971C16.3952 47.4987 16.8336 47.7336 16.9748 47.8608C17.1513 48.0197 19.283 48.5807 20.4746 48.8546C21.6662 49.1285 24.928 48.7894 25.7135 49.3369C26.4991 49.8844 27.9683 52.246 28.0386 53.5878C28.1089 54.9296 28.9205 57.578 29.0395 58.2445C29.1585 58.911 29.5555 60.0674 30.3893 61.5374C31.2232 63.0073 31.1306 62.844 30.4992 63.6339C29.8679 64.4238 29.1263 64.715 28.3229 65.4298C27.5194 66.1446 26.7031 65.0101 25.7719 64.8908C24.8406 64.7714 24.6993 65.2833 24.1298 65.6496C23.5604 66.0158 23.1055 66.9646 22.3376 66.7526C21.5697 66.5405 20.2015 66.1077 19.0981 65.9133Z" fill="#D7890A"/>
<path d="M12.1507 61.3502C11.0068 60.014 11.9486 57.4947 12.1857 55.8715C12.5544 54.0265 12.0735 53.7296 11.9837 52.016C11.8939 50.3025 9.35256 46.8919 7.43653 45.1666C5.5205 43.4414 5.01354 41.9646 6.23694 40.7192C7.46035 39.4738 12.7744 44.5647 14.5778 46.1885C16.3811 47.8122 17.5423 47.4291 19.6505 46.6743C21.7588 45.9195 20.6438 41.038 20.5484 39.2174C20.453 37.3968 20.0475 35.8072 21.8569 35.4976C23.6663 35.188 24.2121 39.455 25.2709 43.2655C26.3297 47.076 27.7159 48.9364 28.6344 50.0695C29.5529 51.2027 29.1806 52.2961 29.0113 53.1641C28.8421 54.032 29.1461 55.7343 29.4164 56.7941C29.6867 57.8538 30.0529 58.6937 30.5542 60.0635C31.0556 61.4333 31.5854 61.2981 32.2729 62.1212C32.9604 62.9443 32.5769 63.8235 32.3908 64.3702C32.2046 64.9169 31.7141 65.8017 31.325 66.5739C30.9359 67.346 30.4285 67.9095 30.2536 68.6704C30.0787 69.4313 29.047 70.2371 28.1902 70.282C27.3335 70.3269 26.3865 70.6987 25.2365 71.2959C24.0865 71.8931 21.635 70.196 21.2969 69.8915C20.9587 69.5871 16.4167 64.8852 15.5151 64.0733C14.6134 63.2615 13.2946 62.6863 12.1507 61.3502Z" stroke="black" stroke-width="0.335905"/>
<path d="M15.5908 46.8867C16.1487 47.287 16.7179 47.9015 17.1463 47.8791C17.5747 47.8566 19.0118 48.6404 19.8008 49.3508" stroke="black" stroke-width="0.335905"/>
<path d="M20.9961 68.0819C21.0354 68.8315 21.554 68.4822 21.757 68.2568L21.9806 67.9229C21.8065 67.6396 21.6149 67.3194 21.3684 66.9885C21.2252 66.7964 21.0354 66.5884 20.8174 66.373C20.8639 66.6927 20.9647 67.4821 20.9961 68.0819Z" fill="white"/>
<path d="M23.3437 55.5017C23.5316 55.6708 23.8937 56.1602 23.8394 56.7644M22.5365 60.5913C22.9025 60.1426 23.6417 58.9225 23.6702 57.6324M27.0916 57.3457C27.039 57.0263 26.9904 56.2341 27.216 55.6209M23.8937 65.997C24.1926 65.5518 24.8015 64.8756 25.337 64.8475C25.8724 64.8194 26.1937 64.8026 26.5262 64.9999C26.8587 65.1973 27.2927 65.2819 27.7211 65.2595C28.0638 65.2415 28.4276 65.0793 28.5666 65.0004M25.1335 67.1133C25.1993 67.0025 25.3951 66.7774 25.6522 66.764C25.9735 66.7471 26.306 66.9445 26.4187 67.046M30.5336 65.649L31.5485 64.522M15.1358 60.7644C15.175 61.514 15.1353 62.8048 16.0089 63.0812C16.8825 63.3576 17.3109 63.3351 18.0998 64.0455C18.7259 64.6092 19.9799 65.5456 20.8174 66.373M30.6403 67.6838C30.1385 68.3545 29.4281 69.1434 28.7968 69.3913C28.1654 69.6392 27.3821 69.0359 26.7227 68.7483C26.0633 68.4607 25.5446 68.81 25.0091 68.8381C24.4737 68.8661 23.6281 69.1252 22.9743 68.9447C22.5531 68.8284 22.2957 68.4361 21.9806 67.9229M20.8174 66.373C21.0354 66.5884 21.2252 66.7964 21.3684 66.9885C21.6149 67.3194 21.8065 67.6396 21.9806 67.9229M20.8174 66.373C20.8639 66.6927 20.9647 67.4821 20.9961 68.0819C21.0354 68.8315 21.554 68.4822 21.757 68.2568L21.9806 67.9229" stroke="black" stroke-width="0.335905"/>
<path d="M16.0332 55.3477C16.4352 55.5056 17.5741 56.0616 18.9131 57.0223C20.5869 58.2233 21.2743 59.0464 21.9899 60.4049" stroke="black" stroke-width="0.335905"/>
<path d="M16.252 55.4434L16.4372 58.9775C17.0063 59.592 20.3599 60.0606 21.7522 59.9876C20.1565 57.408 17.4205 55.8833 16.252 55.4434Z" fill="white" stroke="black" stroke-width="0.335905"/>
<path d="M19.1678 59.8009C18.3563 59.0702 18.2139 57.3094 18.2442 56.5203C20.1062 57.6254 21.3606 59.2922 21.755 59.9875C21.073 59.9516 19.6007 59.8641 19.1678 59.8009Z" fill="#008086" stroke="black" stroke-width="0.335905"/>
<circle cx="19.4034" cy="58.1773" r="0.536211" transform="rotate(-3 19.4034 58.1773)" fill="white"/>
<circle cx="19.7524" cy="58.6968" r="0.643453" transform="rotate(-3 19.7524 58.6968)" fill="black"/>
<path d="M27.7296 57.2048C27.6619 57.552 27.7687 58.6346 27.8306 59.1326C28.638 58.1452 29.0918 57.2408 29.2177 56.9121L28.9591 54.0261C28.5775 54.941 27.7973 56.8576 27.7296 57.2048Z" fill="white" stroke="black" stroke-width="0.335905"/>
<path d="M28.7311 57.9042C28.8441 56.7814 28.6133 55.6552 28.4837 55.2324L27.728 57.2051L27.7448 57.5263L27.8346 59.2399C28.0019 59.0163 28.4154 58.4362 28.7311 57.9042Z" fill="#008086" stroke="black" stroke-width="0.335905"/>
<path d="M28.2869 57.6054C28.3004 57.8624 27.943 57.874 27.7627 57.8476L27.7234 57.098C27.7854 56.9157 27.9523 56.549 28.1237 56.54C28.3379 56.5288 28.2701 57.2841 28.2869 57.6054Z" fill="black" stroke="black" stroke-width="0.335905"/>
<rect x="-7" y="10.6211" width="50.0915" height="97" rx="2.68048" transform="rotate(-3 -7 10.6211)" fill="#C9B18B"/>
<rect x="-6.35156" y="23.002" width="50.0915" height="3.01554" transform="rotate(-3 -6.35156 23.002)" fill="white"/>
<rect x="-6.29883" y="24.0059" width="50.0915" height="1.00518" transform="rotate(-3 -6.29883 24.0059)" fill="#61B9F5"/>
<rect width="50.0915" height="76.5613" transform="translate(-6.19434 26.0117) rotate(-3)" fill="url(#paint0_linear_40001319_57307)"/>
<path d="M5.73231 46.3188C3.31532 50.1362 3.15673 53.1922 3.37956 54.243C5.05133 53.0649 8.34738 50.4429 8.15742 49.3791C7.91998 48.0495 8.36999 43.8319 8.5066 43.2376C8.64321 42.6433 8.75356 41.5471 5.73231 46.3188Z" fill="#262683" stroke="black" stroke-width="0.16753"/>
<path d="M14.7577 64.8858C14.837 64.7978 16.3562 63.3761 17.9061 62.5399L21.1586 66.9829L17.3093 73.5595L13.7342 74.1662L10.7177 77.4279C10.1292 77.4028 8.76827 77.3623 8.03218 77.4009C7.29608 77.4395 7.16802 76.3837 7.196 75.851L4.96813 76.5549L3.49382 74.0319L7.5357 72.7296C6.28094 72.7954 3.53634 72.9224 2.59597 72.9046C2.17808 71.3328 2.5218 69.8888 2.75083 69.4574C4.49901 70.9093 6.60823 70.8219 7.55592 70.5746C7.40474 70.5978 7.08966 70.6173 6.50159 70.6029C5.62812 70.5816 3.86337 68.8119 3.09017 67.9298C3.59219 67.3722 4.70896 66.1673 5.15987 65.8082C6.01173 67.978 8.31437 68.9142 9.35921 69.1111L8.76524 67.3807C9.61355 67.0287 11.3128 66.3749 11.3233 66.5756C11.3339 66.7764 12.0259 68.2444 12.3706 68.9533L14.5988 66.6556C14.6254 66.095 14.6943 64.9562 14.7577 64.8858Z" fill="#E9F4FB" stroke="black" stroke-width="0.16753"/>
<path d="M10.3308 76.4426C10.416 75.9349 10.5847 74.8859 10.5777 74.7521C10.5689 74.5848 7.21852 74.6765 7.14802 74.9318C7.07752 75.1872 7.21816 76.2702 7.24885 76.8558" stroke="black" stroke-width="0.16753"/>
<path d="M36.6928 57.6985L34.8613 57.9622L38.4663 61.1285L36.6928 57.6985Z" fill="#E9F4FB" stroke="black" stroke-width="0.16753"/>
<path d="M25.9457 59.0992L27.1434 57.946C28.269 58.0827 30.7147 58.5473 31.4929 59.3117C32.2711 60.0762 31.3732 62.8969 30.827 64.2117" stroke="black" stroke-width="0.16753"/>
<path d="M18.9535 44.1152C-4.03738 47.1655 2.31629 62.7697 3.58822 64.6323C4.28828 63.5891 6.33169 62.5593 6.17755 62.819C6.0234 63.0787 5.97482 63.7523 6.01427 64.5052C7.65624 65.4257 9.21929 64.8405 10.386 64.6955C11.3194 64.5794 13.7897 62.4201 14.9082 61.3549C15.9324 62.2239 18.2474 64.2499 19.3143 65.4019C20.648 66.8418 19.4371 67.7441 17.9087 70.5922C16.3804 73.4404 16.4188 78.9744 25.1184 78.5185C33.818 78.0626 32.9654 71.3969 32.3671 69.5828C31.7687 67.7688 27.9314 60.1691 26.9542 59.1299C25.9771 58.0906 23.644 56.787 23.4767 56.7957C23.3094 56.8045 21.6985 54.8758 21.003 54.409C20.3075 53.9421 18.9252 53.1758 18.4233 53.2021C17.5042 48.4691 18.1342 46.0874 18.9535 44.1152Z" fill="#E9F4FB" stroke="black" stroke-width="0.16753"/>
<path d="M17.9086 70.5927C16.3803 73.4409 16.4187 78.975 25.1183 78.519C30.678 78.2277 32.3364 75.4001 32.6532 72.9236L24.5879 68.3973L21.8928 71.3905L20.348 69.1228L17.9086 70.5927Z" fill="#2292CA" stroke="black" stroke-width="0.16753"/>
<path d="M7.18539 64.4445C6.1772 64.4134 6.51216 62.8021 6.66631 62.5424L8.29986 61.7019L9.74822 62.1293C9.95229 61.7551 10.4573 60.9346 10.8448 60.6458C11.2323 60.3571 11.9426 60.2528 12.2493 60.2367L12.3282 61.7424C11.6853 62.2794 10.2868 63.4431 9.8359 63.8023C9.27226 64.2512 8.19358 64.4755 7.18539 64.4445Z" fill="#41150E" stroke="black" stroke-width="0.16753"/>
<path d="M7.18523 64.4452C7.01725 64.44 7.35724 62.9263 7.51139 62.6666L8.29969 61.7026L9.74805 62.13C9.95212 61.7558 10.4571 60.9353 10.8446 60.6465C11.2321 60.3578 11.9424 60.2535 12.2491 60.2374L12.3281 61.7431C11.6852 62.2801 10.2866 63.4438 9.83573 63.803C9.2721 64.2519 8.19341 64.4762 7.18523 64.4452Z" fill="#EA7D8E" stroke="black" stroke-width="0.16753"/>
<path d="M8.60732 64.3697L8.56348 63.5332L9.51432 64.0705L8.60732 64.3697Z" fill="white" stroke="black" stroke-width="0.16753"/>
<path d="M6.87709 63.3703L6.9297 64.3741C6.52467 64.3282 6.45872 63.9235 6.47638 63.7268L6.87709 63.3703Z" fill="white" stroke="black" stroke-width="0.16753"/>
<path d="M16.6222 57.239C16.4987 58.0843 15.5516 60.8181 14.9131 61.4387" stroke="black" stroke-width="0.16753"/>
<path d="M26.7559 61.7402C27.5717 62.3685 29.4866 64.5497 30.6199 68.2481" stroke="black" stroke-width="0.16753"/>
<path d="M7.66789 54.4373L6.27948 61.556L14.8611 57.2478C17.2217 53.7409 22.0829 46.5185 22.6431 45.6839C23.3433 44.6406 22.6785 44.7594 21.8595 45.1378C21.2044 45.4406 12.1254 51.4636 7.66789 54.4373Z" fill="#262683" stroke="black" stroke-width="0.16753"/>
<path d="M12.6551 58.3707L7.82935 60.7206C7.1645 56.9976 10.3828 54.4915 12.075 53.7038L12.6551 58.3707Z" fill="white" stroke="black" stroke-width="0.16753"/>
<path d="M9.13654 60.0645C8.88998 60.1613 8.13309 58.5233 8.01437 57.8585C8.15975 57.4315 8.86 56.3882 9.48975 55.6003C10.2925 56.8332 10.1347 58.8378 9.95551 59.686C9.76471 59.7799 9.3338 59.987 9.13654 60.0645Z" fill="black" stroke="black" stroke-width="0.16753"/>
<path d="M9.23012 57.0386C9.34884 57.7034 9.19469 57.9632 8.87324 58.2316C8.45937 58.3372 8.3275 57.4214 8.31873 57.2541C8.31172 57.1203 8.72979 56.5616 8.93971 56.2989C8.99694 56.3239 9.13514 56.5068 9.23012 57.0386Z" fill="white" stroke="black" stroke-width="0.16753"/>
<path d="M12.3711 68.9531C12.5647 69.4463 12.4723 69.2833 12.7408 69.6048" stroke="black" stroke-width="0.16753"/>
<path d="M27.1483 58.0299L25.9549 59.2668L30.8363 64.3793C31.3825 63.0645 32.3596 60.1558 31.5814 59.3913C30.8032 58.6269 28.2739 58.1667 27.1483 58.0299Z" fill="#E9F4FB"/>
<path d="M36.0164 71.9917L28.6994 71.6203C28.7026 70.6136 28.9 68.4056 29.6645 67.6274C30.3337 67.5923 33.3448 68.497 34.7668 68.9537C33.1468 67.9202 29.5398 65.8892 28.0711 66.0333C28.0959 65.2267 28.7336 63.2025 29.0493 62.2913C29.5107 62.3327 30.2444 62.4804 31.1108 62.7859C30.4657 62.4845 29.8176 62.2231 29.2034 62.0315C29.1771 61.5296 29.7192 59.0687 30.2741 58.4525C30.776 58.4262 32.4972 59.2586 32.8406 59.4084C32.9215 59.4437 33.1671 59.6008 33.5038 59.8341C33.1541 59.5514 32.8335 59.2947 32.5721 59.087L30.9743 57.4092C31.1035 57.2067 31.5441 56.7586 32.2733 56.5862C33.0024 56.4138 33.8039 56.4501 34.1136 56.4898L39.8135 62.8176C39.8412 63.8786 39.8198 66.1389 39.5133 66.6918C39.2067 67.2447 37.0543 70.4555 36.0164 71.9917Z" fill="#E9F4FB" stroke="black" stroke-width="0.16753"/>
</g>
</g>
<defs>
<filter id="filter0_d_40001319_57307" x="-7" y="-1.15055" width="66.3888" height="110.041" filterUnits="userSpaceOnUse" color-interpolation-filters="sRGB">
<feFlood flood-opacity="0" result="BackgroundImageFix"/>
<feColorMatrix in="SourceAlpha" type="matrix" values="0 0 0 0 0 0 0 0 0 0 0 0 0 0 0 0 0 0 127 0" result="hardAlpha"/>
<feOffset dx="6" dy="-4"/>
<feGaussianBlur stdDeviation="2.57527"/>
<feComposite in2="hardAlpha" operator="out"/>
<feColorMatrix type="matrix" values="0 0 0 0 0.784314 0 0 0 0 0.843137 0 0 0 0 0.909804 0 0 0 0.25 0"/>
<feBlend mode="normal" in2="BackgroundImageFix" result="effect1_dropShadow_40001319_57307"/>
<feBlend mode="normal" in="SourceGraphic" in2="effect1_dropShadow_40001319_57307" result="shape"/>
</filter>
<linearGradient id="paint0_linear_40001319_57307" x1="25.0458" y1="0" x2="25.0458" y2="76.5613" gradientUnits="userSpaceOnUse">
<stop stop-color="#44C7FD"/>
<stop offset="1" stop-color="#143563"/>
</linearGradient>
<clipPath id="clip0_40001319_57307">
<rect width="52" height="104" fill="white"/>
</clipPath>
</defs>
</svg>
