<svg width="99" height="149" viewBox="0 0 99 149" fill="none" xmlns="http://www.w3.org/2000/svg">
<g opacity="0.2" filter="url(#filter0_d_40001101_49759)">
<rect y="22.2148" width="65.4723" height="126.784" rx="3.50353" transform="rotate(-9 0 22.2148)" fill="#A158ED"/>
<rect x="2.53418" y="38.2188" width="65.4723" height="3.94148" transform="rotate(-9 2.53418 38.2188)" fill="white"/>
<rect x="2.74023" y="39.5176" width="65.4723" height="1.31383" transform="rotate(-9 2.74023 39.5176)" fill="#61B9F5"/>
<rect x="3.14941" y="42.1113" width="65.4723" height="100.07" transform="rotate(-9 3.14941 42.1113)" fill="#4D6ECB"/>
<path d="M10.0703 85.7988L77.8366 95.1296L81.6731 119.352L17.0069 129.595L10.0703 85.7988Z" fill="#65612E"/>
<path d="M37.2622 120.18C26.6501 119.556 17.2699 113.149 13.9062 110.023L18.8047 140.951L83.4709 130.709L80.1824 109.946C70.2974 113.618 47.8743 120.805 37.2622 120.18Z" fill="#CDB389"/>
<path d="M35.2188 96.8052C33.5535 95.2286 34.4314 91.8337 34.5176 89.6966C34.7442 87.2542 34.0802 86.9347 33.7302 84.7251C33.3803 82.5155 29.6203 78.4395 26.9008 76.4637C24.1814 74.4879 23.3228 72.642 24.7393 70.8605C26.1559 69.0789 33.7401 74.9558 36.2996 76.8154C38.8591 78.675 40.3126 78.0201 42.9433 76.7541C45.574 75.488 43.4631 69.3105 43.0913 66.9629C42.7194 64.6152 41.977 62.6094 44.281 61.9614C46.5849 61.3134 47.874 66.7716 49.7662 71.5681C51.6584 76.3647 53.7093 78.5879 55.0547 79.932C56.4 81.2761 56.0664 82.7446 55.9652 83.8931C55.8639 85.0416 56.4901 87.2074 56.985 88.5447C57.4799 89.8819 58.0692 90.921 58.9059 92.6288C59.7427 94.3366 60.4113 94.0891 61.4148 95.0627C62.4184 96.0362 62.041 97.2285 61.8742 97.9627C61.7073 98.6969 61.1918 99.9111 60.7925 100.965C60.3933 102.019 59.8121 102.819 59.6891 103.83C59.566 104.84 58.3381 106.026 57.2333 106.201C56.1285 106.375 54.9513 106.987 53.5416 107.918C52.1319 108.849 48.7219 106.982 48.242 106.634C47.7621 106.285 41.2321 100.807 39.9523 99.8776C38.6725 98.9478 36.8841 98.3817 35.2188 96.8052Z" fill="#F29600" stroke="black" stroke-width="0.437942"/>
<path d="M44.8491 101.776C43.3919 101.674 42.2131 100.531 39.7025 99.3767L39.7367 99.593L44.9582 103.865L47.2301 105.611L48.8928 107.011L50.9195 107.909L53.1679 108.107L54.5962 107.327L56.2408 106.512L58.0448 106.005L59.3136 104.917L59.774 103.625L59.3415 103.693L60.1435 102.458L61.832 98.4213L62.0473 96.281L61.4092 95.0519L60.4071 94.3238L59.3707 93.3794L58.3965 91.4276L56.9779 88.7701L56.2307 85.4521L56.008 84.0464L56.0467 81.4907L55.4257 80.3697L53.2845 78.0484L51.2738 75.1522L49.8489 71.0547L47.2335 65.0397L46.0997 62.7805C44.5848 60.9143 42.5331 62.6582 42.7249 63.8693C42.9647 65.3832 43.1414 65.7987 43.0792 66.8061C43.0171 67.8136 44.3168 71.8201 44.5052 73.0096C44.6936 74.1991 44.1989 75.2751 43.8691 75.9924L43.8691 75.9925C43.2746 77.2856 41.5704 77.5759 41.0297 77.6615C40.5971 77.73 39.2085 78.0608 38.5596 78.1636C38.8348 78.2678 39.4352 78.5127 39.6356 78.6583C39.8862 78.8403 42.7266 79.2772 44.3091 79.47C45.8915 79.6627 50.0746 78.7785 51.1677 79.3813C52.2608 79.9841 54.4877 82.8461 54.7618 84.5763C55.0358 86.3065 56.449 89.6299 56.6941 90.4779C56.9393 91.3258 57.6116 92.7712 58.8932 94.5636C60.1747 96.3559 60.0323 96.1567 59.3213 97.267C58.6104 98.3773 57.6885 98.8558 56.7442 99.8922C55.7998 100.929 54.5868 99.5688 53.363 99.5409C52.1393 99.513 52.0258 100.196 51.3373 100.749C50.6488 101.301 50.1884 102.593 49.1638 102.423C48.1392 102.253 46.3062 101.878 44.8491 101.776Z" fill="#D7890A"/>
<path d="M35.2188 96.8052C33.5535 95.2286 34.4314 91.8337 34.5176 89.6966C34.7442 87.2542 34.0802 86.9347 33.7302 84.7251C33.3803 82.5155 29.6203 78.4395 26.9008 76.4637C24.1814 74.4879 23.3228 72.642 24.7393 70.8605C26.1559 69.0789 33.7401 74.9558 36.2996 76.8154C38.8591 78.675 40.3126 78.0201 42.9433 76.7541C45.574 75.488 43.4631 69.3105 43.0913 66.9629C42.7194 64.6152 41.977 62.6094 44.281 61.9614C46.5849 61.3134 47.874 66.7716 49.7662 71.5681C51.6584 76.3647 53.7093 78.5879 55.0547 79.932C56.4 81.2761 56.0664 82.7446 55.9652 83.8931C55.8639 85.0416 56.4901 87.2074 56.985 88.5447C57.4799 89.8819 58.0692 90.921 58.9059 92.6288C59.7427 94.3366 60.4113 94.0891 61.4148 95.0627C62.4184 96.0362 62.041 97.2285 61.8742 97.9627C61.7073 98.6969 61.1918 99.9111 60.7925 100.965C60.3933 102.019 59.8121 102.819 59.6891 103.83C59.566 104.84 58.3381 106.026 57.2333 106.201C56.1285 106.375 54.9513 106.987 53.5416 107.918C52.1319 108.849 48.7219 106.982 48.242 106.634C47.7621 106.285 41.2321 100.807 39.9523 99.8776C38.6725 98.9478 36.8841 98.3817 35.2188 96.8052Z" stroke="black" stroke-width="0.437942"/>
<path d="M37.709 77.584C38.487 78.027 39.3087 78.7462 39.8611 78.6587C40.4135 78.5713 42.3837 79.3917 43.5035 80.2053" stroke="black" stroke-width="0.437942"/>
<path d="M47.6052 104.329C47.7583 105.295 48.3832 104.772 48.6156 104.452L48.86 103.988C48.5958 103.645 48.3037 103.256 47.9389 102.86C47.7271 102.631 47.4527 102.387 47.1407 102.137C47.2445 102.546 47.4827 103.555 47.6052 104.329Z" fill="white"/>
<path d="M48.9347 87.697C49.2014 87.8907 49.7376 88.4758 49.7496 89.2667M48.5818 94.4063C48.9952 93.7746 49.7873 92.0919 49.6484 90.4152M54.0456 89.5772C53.934 89.1702 53.7629 88.1497 53.9719 87.3239M51.0782 101.231C51.405 100.613 52.1024 99.6527 52.7929 99.5433C53.4834 99.434 53.8977 99.3683 54.3557 99.5789C54.8137 99.7895 55.388 99.8401 55.9404 99.7526C56.3823 99.6826 56.8319 99.4227 57.0014 99.3014M52.8379 102.509C52.9081 102.356 53.1313 102.038 53.4628 101.985C53.8771 101.92 54.3351 102.13 54.4951 102.247M59.6403 99.8744L60.8025 98.2747M39.0093 95.6393C39.1624 96.606 39.2868 98.285 40.4572 98.5243C41.6276 98.7636 42.18 98.6761 43.2998 99.4897C44.1883 100.135 45.9419 101.179 47.1407 102.137M60.0558 102.498C59.4966 103.436 58.683 104.556 57.8982 104.963C57.1133 105.371 56.0154 104.695 55.1212 104.412C54.227 104.129 53.6022 104.653 52.9117 104.762C52.2212 104.872 51.1602 105.323 50.2878 105.178C49.7258 105.084 49.3386 104.611 48.86 103.988M47.1407 102.137C47.4527 102.387 47.7271 102.631 47.9389 102.86C48.3037 103.256 48.5958 103.645 48.86 103.988M47.1407 102.137C47.2445 102.546 47.4827 103.555 47.6052 104.329C47.7583 105.295 48.3832 104.772 48.6156 104.452L48.86 103.988" stroke="black" stroke-width="0.437942"/>
<path d="M39.4355 88.4922C39.9784 88.6422 41.5308 89.2079 43.3979 90.2712C45.7318 91.6002 46.7354 92.5738 47.8483 94.2378" stroke="black" stroke-width="0.437942"/>
<path d="M39.7314 88.5879L40.4532 93.1451C41.275 93.8643 45.6872 94.0149 47.4825 93.7305C45.0619 90.6032 41.3066 88.999 39.7314 88.5879Z" fill="white" stroke="black" stroke-width="0.437942"/>
<path d="M44.1066 93.8399C42.9549 93.0031 42.5302 90.7393 42.4619 89.712C45.0269 90.8912 46.8805 92.8815 47.4866 93.7293C46.5974 93.7757 44.6765 93.8629 44.1066 93.8399Z" fill="#008086" stroke="black" stroke-width="0.437942"/>
<circle cx="44.1914" cy="91.7042" r="0.699093" transform="rotate(-9 44.1914 91.7042)" fill="white"/>
<circle cx="44.7137" cy="92.3282" r="0.838912" transform="rotate(-9 44.7137 92.3282)" fill="black"/>
<path d="M54.8535 89.3077C54.813 89.7671 55.0991 91.1562 55.2472 91.7934C56.1595 90.4032 56.6246 89.1687 56.7431 88.7253L56.0145 85.0185C55.6443 86.2568 54.894 88.8482 54.8535 89.3077Z" fill="white" stroke="black" stroke-width="0.437942"/>
<path d="M56.2477 90.0778C56.2412 88.6066 55.7884 87.1778 55.5628 86.6473L54.8517 89.308L54.9173 89.7223L55.2673 91.9319C55.4537 91.6192 55.9108 90.8107 56.2477 90.0778Z" fill="#008086" stroke="black" stroke-width="0.437942"/>
<path d="M55.6309 89.7501C55.6834 90.0816 55.2216 90.1453 54.9841 90.1357L54.831 89.169C54.8867 88.9243 55.0531 88.426 55.2741 88.391C55.5503 88.3473 55.5653 89.3358 55.6309 89.7501Z" fill="black" stroke="black" stroke-width="0.437942"/>
<rect y="22.3984" width="65.4723" height="126.31" rx="3.50353" transform="rotate(-9 0 22.3984)" fill="#005BA6"/>
</g>
<rect x="3.45996" y="16.2012" width="65.2154" height="126.287" rx="3.48979" transform="rotate(-9 3.45996 16.2012)" fill="#56DEFF"/>
<rect x="5.98438" y="32.1426" width="65.2154" height="3.92601" transform="rotate(-9 5.98438 32.1426)" fill="white"/>
<rect x="6.18945" y="33.4355" width="65.2154" height="1.30867" transform="rotate(-9 6.18945 33.4355)" fill="#61B9F5"/>
<defs>
<filter id="filter0_d_40001101_49759" x="0" y="0.136238" width="98.5328" height="148.311" filterUnits="userSpaceOnUse" color-interpolation-filters="sRGB">
<feFlood flood-opacity="0" result="BackgroundImageFix"/>
<feColorMatrix in="SourceAlpha" type="matrix" values="0 0 0 0 0 0 0 0 0 0 0 0 0 0 0 0 0 0 127 0" result="hardAlpha"/>
<feOffset dx="7.82259" dy="-5.21506"/>
<feGaussianBlur stdDeviation="3.35755"/>
<feComposite in2="hardAlpha" operator="out"/>
<feColorMatrix type="matrix" values="0 0 0 0 0.784314 0 0 0 0 0.843137 0 0 0 0 0.909804 0 0 0 0.25 0"/>
<feBlend mode="normal" in2="BackgroundImageFix" result="effect1_dropShadow_40001101_49759"/>
<feBlend mode="normal" in="SourceGraphic" in2="effect1_dropShadow_40001101_49759" result="shape"/>
</filter>
</defs>
</svg>
