<svg width="99" height="149" viewBox="0 0 99 149" fill="none" xmlns="http://www.w3.org/2000/svg">
<g opacity="0.2" filter="url(#filter0_d_40001442_27232)">
<rect y="22.2285" width="65.4723" height="126.784" rx="3.50353" transform="rotate(-9 0 22.2285)" fill="#A158ED"/>
<rect x="2.53418" y="38.2324" width="65.4723" height="3.94148" transform="rotate(-9 2.53418 38.2324)" fill="white"/>
<rect x="2.74023" y="39.5312" width="65.4723" height="1.31383" transform="rotate(-9 2.74023 39.5312)" fill="#61B9F5"/>
<rect x="3.14941" y="42.125" width="65.4723" height="100.07" transform="rotate(-9 3.14941 42.125)" fill="#4D6ECB"/>
<path d="M10.0703 85.8125L77.8366 95.1433L81.6731 119.366L17.0069 129.608L10.0703 85.8125Z" fill="#65612E"/>
<path d="M37.2622 120.194C26.6501 119.569 17.2699 113.162 13.9062 110.037L18.8047 140.964L83.4709 130.722L80.1824 109.96C70.2974 113.632 47.8743 120.819 37.2622 120.194Z" fill="#CDB389"/>
<path d="M35.2188 96.8188C33.5535 95.2423 34.4314 91.8473 34.5176 89.7103C34.7442 87.2678 34.0802 86.9483 33.7302 84.7388C33.3803 82.5292 29.6203 78.4532 26.9008 76.4774C24.1814 74.5016 23.3228 72.6557 24.7393 70.8742C26.1559 69.0926 33.7401 74.9695 36.2996 76.8291C38.8591 78.6887 40.3126 78.0338 42.9433 76.7677C45.574 75.5017 43.4631 69.3242 43.0913 66.9766C42.7194 64.6289 41.977 62.6231 44.281 61.975C46.5849 61.327 47.874 66.7853 49.7662 71.5818C51.6584 76.3783 53.7093 78.6016 55.0547 79.9457C56.4 81.2898 56.0664 82.7583 55.9652 83.9068C55.8639 85.0553 56.4901 87.2211 56.985 88.5583C57.4799 89.8956 58.0692 90.9347 58.9059 92.6425C59.7427 94.3503 60.4113 94.1028 61.4148 95.0764C62.4184 96.0499 62.041 97.2422 61.8742 97.9764C61.7073 98.7106 61.1918 99.9248 60.7925 100.979C60.3933 102.033 59.8121 102.833 59.6891 103.843C59.566 104.854 58.3381 106.039 57.2333 106.214C56.1285 106.389 54.9513 107 53.5416 107.931C52.1319 108.862 48.7219 106.996 48.242 106.647C47.7621 106.299 41.2321 100.821 39.9523 99.8913C38.6725 98.9615 36.8841 98.3954 35.2188 96.8188Z" fill="#F29600" stroke="black" stroke-width="0.437942"/>
<path d="M44.8491 101.79C43.3919 101.688 42.2131 100.545 39.7025 99.3904L39.7367 99.6066L44.9582 103.879L47.2301 105.625L48.8928 107.024L50.9195 107.923L53.1679 108.121L54.5962 107.34L56.2408 106.526L58.0448 106.018L59.3136 104.931L59.774 103.638L59.3415 103.707L60.1435 102.471L61.832 98.4349L62.0473 96.2947L61.4092 95.0655L60.4071 94.3375L59.3707 93.3931L58.3965 91.4413L56.9779 88.7838L56.2307 85.4658L56.008 84.06L56.0467 81.5044L55.4257 80.3834L53.2845 78.0621L51.2738 75.1659L49.8489 71.0684L47.2335 65.0534L46.0997 62.7942C44.5848 60.928 42.5331 62.6718 42.7249 63.883C42.9647 65.3969 43.1414 65.8123 43.0792 66.8198C43.0171 67.8273 44.3168 71.8338 44.5052 73.0233C44.6936 74.2128 44.1989 75.2888 43.8691 76.0061L43.8691 76.0061C43.2746 77.2993 41.5704 77.5896 41.0297 77.6752C40.5971 77.7437 39.2085 78.0745 38.5596 78.1773C38.8348 78.2815 39.4352 78.5263 39.6356 78.6719C39.8862 78.854 42.7266 79.2909 44.3091 79.4837C45.8915 79.6764 50.0746 78.7922 51.1677 79.395C52.2608 79.9978 54.4877 82.8598 54.7618 84.59C55.0358 86.3202 56.449 89.6435 56.6941 90.4915C56.9393 91.3395 57.6116 92.7849 58.8932 94.5772C60.1747 96.3696 60.0323 96.1704 59.3213 97.2807C58.6104 98.3909 57.6885 98.8695 56.7442 99.9059C55.7998 100.942 54.5868 99.5825 53.363 99.5546C52.1393 99.5267 52.0258 100.21 51.3373 100.762C50.6488 101.315 50.1884 102.607 49.1638 102.437C48.1392 102.266 46.3062 101.892 44.8491 101.79Z" fill="#D7890A"/>
<path d="M35.2188 96.8188C33.5535 95.2423 34.4314 91.8473 34.5176 89.7103C34.7442 87.2678 34.0802 86.9483 33.7302 84.7388C33.3803 82.5292 29.6203 78.4532 26.9008 76.4774C24.1814 74.5016 23.3228 72.6557 24.7393 70.8742C26.1559 69.0926 33.7401 74.9695 36.2996 76.8291C38.8591 78.6887 40.3126 78.0338 42.9433 76.7677C45.574 75.5017 43.4631 69.3242 43.0913 66.9766C42.7194 64.6289 41.977 62.6231 44.281 61.975C46.5849 61.327 47.874 66.7853 49.7662 71.5818C51.6584 76.3783 53.7093 78.6016 55.0547 79.9457C56.4 81.2898 56.0664 82.7583 55.9652 83.9068C55.8639 85.0553 56.4901 87.2211 56.985 88.5583C57.4799 89.8956 58.0692 90.9347 58.9059 92.6425C59.7427 94.3503 60.4113 94.1028 61.4148 95.0764C62.4184 96.0499 62.041 97.2422 61.8742 97.9764C61.7073 98.7106 61.1918 99.9248 60.7925 100.979C60.3933 102.033 59.8121 102.833 59.6891 103.843C59.566 104.854 58.3381 106.039 57.2333 106.214C56.1285 106.389 54.9513 107 53.5416 107.931C52.1319 108.862 48.7219 106.996 48.242 106.647C47.7621 106.299 41.2321 100.821 39.9523 99.8913C38.6725 98.9615 36.8841 98.3954 35.2188 96.8188Z" stroke="black" stroke-width="0.437942"/>
<path d="M37.709 77.5977C38.487 78.0407 39.3087 78.7599 39.8611 78.6724C40.4135 78.5849 42.3837 79.4054 43.5035 80.2189" stroke="black" stroke-width="0.437942"/>
<path d="M47.6052 104.342C47.7583 105.309 48.3832 104.785 48.6156 104.465L48.86 104.002C48.5958 103.658 48.3037 103.269 47.9389 102.874C47.7271 102.644 47.4527 102.4 47.1407 102.151C47.2445 102.559 47.4827 103.569 47.6052 104.342Z" fill="white"/>
<path d="M48.9347 87.7107C49.2014 87.9044 49.7376 88.4895 49.7496 89.2803M48.5818 94.4199C48.9952 93.7882 49.7873 92.1056 49.6484 90.4289M54.0456 89.5908C53.934 89.1838 53.7629 88.1634 53.9719 87.3375M51.0782 101.244C51.405 100.626 52.1024 99.6664 52.7929 99.557C53.4834 99.4476 53.8977 99.382 54.3557 99.5926C54.8137 99.8032 55.388 99.8538 55.9404 99.7663C56.3823 99.6963 56.8319 99.4363 57.0014 99.3151M52.8379 102.523C52.9081 102.37 53.1313 102.051 53.4628 101.999C53.8771 101.933 54.3351 102.144 54.4951 102.26M59.6403 99.8881L60.8025 98.2884M39.0093 95.653C39.1624 96.6196 39.2868 98.2987 40.4572 98.538C41.6276 98.7773 42.18 98.6898 43.2998 99.5034C44.1883 100.149 45.9419 101.192 47.1407 102.151M60.0558 102.512C59.4966 103.45 58.683 104.57 57.8982 104.977C57.1133 105.385 56.0154 104.709 55.1212 104.426C54.227 104.143 53.6022 104.667 52.9117 104.776C52.2212 104.885 51.1602 105.336 50.2878 105.192C49.7258 105.098 49.3386 104.624 48.86 104.002M47.1407 102.151C47.4527 102.4 47.7271 102.644 47.9389 102.874C48.3037 103.269 48.5958 103.658 48.86 104.002M47.1407 102.151C47.2445 102.559 47.4827 103.569 47.6052 104.342C47.7583 105.309 48.3832 104.785 48.6156 104.465L48.86 104.002" stroke="black" stroke-width="0.437942"/>
<path d="M39.4355 88.5059C39.9784 88.6558 41.5308 89.2216 43.3979 90.2848C45.7318 91.6139 46.7354 92.5875 47.8483 94.2515" stroke="black" stroke-width="0.437942"/>
<path d="M39.7314 88.6016L40.4532 93.1588C41.275 93.878 45.6872 94.0285 47.4825 93.7442C45.0619 90.6168 41.3066 89.0127 39.7314 88.6016Z" fill="white" stroke="black" stroke-width="0.437942"/>
<path d="M44.1066 93.8536C42.9549 93.0168 42.5302 90.753 42.4619 89.7257C45.0269 90.9049 46.8805 92.8952 47.4866 93.7429C46.5974 93.7894 44.6765 93.8766 44.1066 93.8536Z" fill="#008086" stroke="black" stroke-width="0.437942"/>
<circle cx="44.1914" cy="91.7178" r="0.699093" transform="rotate(-9 44.1914 91.7178)" fill="white"/>
<circle cx="44.7137" cy="92.3419" r="0.838912" transform="rotate(-9 44.7137 92.3419)" fill="black"/>
<path d="M54.8535 89.3213C54.813 89.7807 55.0991 91.1699 55.2472 91.8071C56.1595 90.4168 56.6246 89.1824 56.7431 88.7389L56.0145 85.0322C55.6443 86.2705 54.894 88.8619 54.8535 89.3213Z" fill="white" stroke="black" stroke-width="0.437942"/>
<path d="M56.2477 90.0915C56.2412 88.6203 55.7884 87.1915 55.5628 86.661L54.8517 89.3217L54.9173 89.736L55.2673 91.9455C55.4537 91.6329 55.9108 90.8244 56.2477 90.0915Z" fill="#008086" stroke="black" stroke-width="0.437942"/>
<path d="M55.6309 89.7638C55.6834 90.0952 55.2216 90.1589 54.9841 90.1494L54.831 89.1827C54.8867 88.9379 55.0531 88.4397 55.2741 88.4047C55.5503 88.361 55.5653 89.3495 55.6309 89.7638Z" fill="black" stroke="black" stroke-width="0.437942"/>
<rect y="22.4121" width="65.4723" height="126.31" rx="3.50353" transform="rotate(-9 0 22.4121)" fill="#005BA6"/>
</g>
<g clip-path="url(#clip0_40001442_27232)">
<rect x="3.45996" y="16.2012" width="65.2154" height="126.287" rx="3.48979" transform="rotate(-9 3.45996 16.2012)" fill="#F4D546"/>
<circle cx="11.6724" cy="22.7399" r="11.0146" transform="rotate(-9 11.6724 22.7399)" fill="#FF3850"/>
<path d="M13.396 33.6189C19.4044 32.6672 23.5036 27.0251 22.552 21.0168L0.793945 24.4629C1.74557 30.4712 7.38772 34.5705 13.396 33.6189Z" fill="white"/>
<path d="M0.798828 24.4961L22.5569 21.05" stroke="black" stroke-width="0.826098"/>
<circle cx="11.6726" cy="22.7403" r="2.8225" transform="rotate(-9 11.6726 22.7403)" fill="white" stroke="black" stroke-width="0.826098"/>
<rect x="5.98438" y="32.1426" width="65.2154" height="3.92601" transform="rotate(-9 5.98438 32.1426)" fill="white"/>
<rect x="6.18945" y="33.4355" width="65.2154" height="1.30867" transform="rotate(-9 6.18945 33.4355)" fill="#61B9F5"/>
<g clip-path="url(#clip1_40001442_27232)">
<rect width="65.2154" height="99.677" transform="translate(6.59863 36.0195) rotate(-9)" fill="url(#paint0_linear_40001442_27232)"/>
<path d="M49.8772 80.1503C44.5202 84.4077 44.0669 89.134 44.5099 90.965L52.2482 89.7394C51.7326 87.1463 52.2534 84.2537 52.5783 83.1314L56.7249 89.0304L65.1666 87.6933C63.5172 85.4197 59.827 80.3051 58.2613 78.0357C64.7742 75.1161 65.6461 69.6111 65.2679 67.2235L56.7622 68.5707C57.2313 71.1186 56.8621 73.3405 55.5735 74.7246C52.5952 69.1651 50.858 69.7868 49.7914 69.6747C48.938 69.585 44.7886 70.3734 42.8205 70.7788C44.2914 72.7529 47.7619 77.391 49.8772 80.1503Z" fill="#BA8B15" stroke="black" stroke-width="1.6835"/>
<path d="M37.8151 71.0454C38.1676 70.9895 39.0121 70.9646 40.0215 71.13C41.0337 71.2959 42.2358 71.6573 43.2901 72.39C44.3496 73.1265 45.2541 74.2353 45.6636 75.8771C46.0717 77.5131 45.9836 79.6581 45.1031 82.4638L45.0552 82.6167L34.369 84.3093C34.3888 85.3606 34.8611 86.5337 36.1823 86.9932C37.629 87.496 40.1879 87.1882 44.4834 84.756L44.821 85.1336C43.8599 86.4565 43.3099 87.5276 43.5256 88.8903L43.5509 89.0504L43.4174 89.1437C41.8466 90.232 38.8921 92.8544 34.2085 92.5224C31.9288 92.3607 29.7951 92.0438 28.379 90.5438C26.9585 89.0386 26.3231 86.4171 26.8142 81.8317C27.3135 77.1712 29.7456 74.5159 32.2164 73.0088C34.676 71.5086 37.1711 71.1473 37.8151 71.0454ZM37.3391 76.4115C36.7304 76.4117 36.0906 76.6551 35.6657 77.3825C34.8989 78.6953 34.3812 80.8519 34.2169 81.7567L34.1511 82.1152L34.5118 82.058C36.9338 81.6744 38.2226 80.7802 38.811 79.7556C39.3966 78.7354 39.2511 77.6494 38.9398 76.9608L38.9065 76.888L38.8377 76.8465L38.6997 76.7684C38.3543 76.5858 37.8573 76.4113 37.3391 76.4115Z" fill="#BA8B15"/>
<path d="M37.8151 71.0454L37.9467 71.8767L37.9467 71.8767L37.8151 71.0454ZM40.0215 71.13L40.1576 70.2993L40.1575 70.2993L40.0215 71.13ZM43.2901 72.39L43.7705 71.6988L43.7704 71.6988L43.2901 72.39ZM45.6636 75.8771L46.4804 75.6734L46.4803 75.6733L45.6636 75.8771ZM45.1031 82.4638L44.3 82.2118L44.2999 82.212L45.1031 82.4638ZM45.0552 82.6167L45.1869 83.4481L45.7022 83.3665L45.8584 82.8686L45.0552 82.6167ZM34.369 84.3093L34.2374 83.4779L33.5137 83.5925L33.5274 84.3251L34.369 84.3093ZM36.1823 86.9932L35.9058 87.7883L35.906 87.7883L36.1823 86.9932ZM44.4834 84.756L45.1109 84.1949L44.6588 83.6893L44.0686 84.0235L44.4834 84.756ZM44.821 85.1336L45.502 85.6283L45.9012 85.0788L45.4485 84.5725L44.821 85.1336ZM43.5256 88.8903L42.6942 89.0219L42.6942 89.022L43.5256 88.8903ZM43.5509 89.0504L44.0331 89.7403L44.4647 89.4387L44.3823 88.9187L43.5509 89.0504ZM43.4174 89.1437L43.8967 89.8357L43.8996 89.8337L43.4174 89.1437ZM34.2085 92.5224L34.149 93.362L34.149 93.362L34.2085 92.5224ZM28.379 90.5438L27.7668 91.1215L27.7669 91.1216L28.379 90.5438ZM26.8142 81.8317L25.9773 81.742L25.9773 81.742L26.8142 81.8317ZM32.2164 73.0088L31.7781 72.2902L31.778 72.2902L32.2164 73.0088ZM37.3391 76.4115L37.3389 75.5697L37.3387 75.5697L37.3391 76.4115ZM35.6657 77.3825L34.9388 76.9579L34.9388 76.9579L35.6657 77.3825ZM34.2169 81.7567L35.0448 81.9087L35.0451 81.9071L34.2169 81.7567ZM34.1511 82.1152L33.3232 81.9631L33.1084 83.1326L34.2827 82.9466L34.1511 82.1152ZM38.811 79.7556L39.5409 80.1748L39.541 80.1747L38.811 79.7556ZM38.9398 76.9608L39.7068 76.614L39.7054 76.6109L38.9398 76.9608ZM38.9065 76.888L39.6721 76.5381L39.5639 76.3013L39.341 76.167L38.9065 76.888ZM38.8377 76.8465L39.2721 76.1255L39.2622 76.1195L39.2521 76.1138L38.8377 76.8465ZM38.6997 76.7684L39.1142 76.0358L39.1037 76.0299L39.0931 76.0243L38.6997 76.7684ZM37.8151 71.0454L37.9467 71.8767C38.1926 71.8378 38.9447 71.8065 39.8854 71.9606L40.0215 71.13L40.1575 70.2993C39.0795 70.1227 38.1427 70.1412 37.6834 70.214L37.8151 71.0454ZM40.0215 71.13L39.8853 71.9606C40.8193 72.1137 41.8904 72.4424 42.8097 73.0812L43.2901 72.39L43.7704 71.6988C42.5812 70.8723 41.2482 70.478 40.1576 70.2993L40.0215 71.13ZM43.2901 72.39L42.8096 73.0812C43.7174 73.7122 44.4911 74.6547 44.8469 76.0808L45.6636 75.8771L46.4803 75.6733C46.017 73.8159 44.9817 72.5408 43.7705 71.6988L43.2901 72.39ZM45.6636 75.8771L44.8469 76.0807C45.2059 77.5204 45.1507 79.5007 44.3 82.2118L45.1031 82.4638L45.9063 82.7158C46.8164 79.8155 46.9374 77.5059 46.4804 75.6734L45.6636 75.8771ZM45.1031 82.4638L44.2999 82.212L44.252 82.3649L45.0552 82.6167L45.8584 82.8686L45.9063 82.7156L45.1031 82.4638ZM45.0552 82.6167L44.9235 81.7854L34.2374 83.4779L34.369 84.3093L34.5007 85.1406L45.1869 83.4481L45.0552 82.6167ZM34.369 84.3093L33.5274 84.3251C33.5513 85.5941 34.1403 87.1742 35.9058 87.7883L36.1823 86.9932L36.4588 86.1982C35.582 85.8932 35.2263 85.1271 35.2106 84.2934L34.369 84.3093ZM36.1823 86.9932L35.906 87.7883C37.7184 88.4182 40.5645 87.9423 44.8981 85.4884L44.4834 84.756L44.0686 84.0235C39.8113 86.4341 37.5396 86.5738 36.4587 86.1981L36.1823 86.9932ZM44.4834 84.756L43.8559 85.317L44.1935 85.6946L44.821 85.1336L45.4485 84.5725L45.1109 84.1949L44.4834 84.756ZM44.821 85.1336L44.14 84.6388C43.1543 85.9956 42.4229 87.3081 42.6942 89.0219L43.5256 88.8903L44.357 88.7587C44.1968 87.7471 44.5655 86.9174 45.502 85.6283L44.821 85.1336ZM43.5256 88.8903L42.6942 89.022L42.7195 89.1821L43.5509 89.0504L44.3823 88.9187L44.3569 88.7586L43.5256 88.8903ZM43.5509 89.0504L43.0687 88.3605L42.9352 88.4538L43.4174 89.1437L43.8996 89.8337L44.0331 89.7403L43.5509 89.0504ZM43.4174 89.1437L42.938 88.4518C41.2889 89.5943 38.5966 91.9896 34.268 91.6828L34.2085 92.5224L34.149 93.362C39.1877 93.7192 42.4043 90.8696 43.8967 89.8357L43.4174 89.1437ZM34.2085 92.5224L34.2681 91.6828C31.9649 91.5194 30.1568 91.2008 28.9911 89.9659L28.379 90.5438L27.7669 91.1216C29.4334 92.8869 31.8926 93.202 34.149 93.362L34.2085 92.5224ZM28.379 90.5438L28.9912 89.966C27.8358 88.7418 27.1663 86.4488 27.6512 81.9213L26.8142 81.8317L25.9773 81.742C25.4799 86.3854 26.0812 89.3354 27.7668 91.1215L28.379 90.5438ZM26.8142 81.8317L27.6512 81.9213C28.1182 77.562 30.3698 75.1212 32.6547 73.7275L32.2164 73.0088L31.778 72.2902C29.1214 73.9107 26.5088 76.7805 25.9773 81.742L26.8142 81.8317ZM32.2164 73.0088L32.6547 73.7275C34.9626 72.3198 37.3143 71.9769 37.9467 71.8767L37.8151 71.0454L37.6834 70.214C37.028 70.3178 34.3895 70.6974 31.7781 72.2902L32.2164 73.0088ZM37.3391 76.4115L37.3387 75.5697C36.4816 75.5701 35.5385 75.9313 34.9388 76.9579L35.6657 77.3825L36.3925 77.807C36.6426 77.3788 36.9792 77.2534 37.3395 77.2532L37.3391 76.4115ZM35.6657 77.3825L34.9388 76.9579C34.0933 78.4056 33.5558 80.6861 33.3887 81.6063L34.2169 81.7567L35.0451 81.9071C35.2066 81.0178 35.7045 78.9851 36.3925 77.807L35.6657 77.3825ZM34.2169 81.7567L33.389 81.6047L33.3232 81.9631L34.1511 82.1152L34.979 82.2672L35.0448 81.9087L34.2169 81.7567ZM34.1511 82.1152L34.2827 82.9466L34.6435 82.8894L34.5118 82.058L34.3801 81.2267L34.0194 81.2838L34.1511 82.1152ZM34.5118 82.058L34.6435 82.8894C37.2053 82.4837 38.7785 81.5024 39.5409 80.1748L38.811 79.7556L38.081 79.3364C37.6667 80.0579 36.6623 80.8652 34.3801 81.2267L34.5118 82.058ZM38.811 79.7556L39.541 80.1747C40.2926 78.8655 40.1008 77.4856 39.7068 76.614L38.9398 76.9608L38.1728 77.3075C38.4014 77.8132 38.5007 78.6054 38.081 79.3365L38.811 79.7556ZM38.9398 76.9608L39.7054 76.6109L39.6721 76.5381L38.9065 76.888L38.141 77.2378L38.1742 77.3107L38.9398 76.9608ZM38.9065 76.888L39.341 76.167L39.2721 76.1255L38.8377 76.8465L38.4032 77.5674L38.4721 77.6089L38.9065 76.888ZM38.8377 76.8465L39.2521 76.1138L39.1142 76.0358L38.6997 76.7684L38.2853 77.5011L38.4232 77.5791L38.8377 76.8465ZM38.6997 76.7684L39.0931 76.0243C38.6654 75.7982 38.0325 75.5695 37.3389 75.5697L37.3391 76.4115L37.3393 77.2532C37.6821 77.2531 38.0432 77.3735 38.3064 77.5126L38.6997 76.7684Z" fill="black"/>
<path d="M49.8772 80.1503C44.5202 84.4077 44.0669 89.134 44.5099 90.965L52.2482 89.7394C51.7326 87.1463 52.2534 84.2537 52.5783 83.1314L56.7249 89.0304L65.1666 87.6933C63.5172 85.4197 59.827 80.3051 58.2613 78.0357C64.7742 75.1161 65.6461 69.6111 65.2679 67.2235L56.7622 68.5707C57.2313 71.1186 56.8621 73.3405 55.5735 74.7246C52.5952 69.1651 50.858 69.7868 49.7914 69.6747C48.938 69.585 44.7886 70.3734 42.8205 70.7788C44.2914 72.7529 47.7619 77.391 49.8772 80.1503Z" fill="#F0C864" stroke="#737478" stroke-width="0.518"/>
<path d="M37.8151 71.0454C38.1676 70.9895 39.0121 70.9646 40.0215 71.13C41.0337 71.2959 42.2358 71.6573 43.2901 72.39C44.3496 73.1265 45.2541 74.2353 45.6636 75.8771C46.0717 77.5131 45.9836 79.6581 45.1031 82.4638L45.0552 82.6167L34.369 84.3093C34.3888 85.3606 34.8611 86.5337 36.1823 86.9932C37.629 87.496 40.1879 87.1882 44.4834 84.756L44.821 85.1336C43.8599 86.4565 43.3099 87.5276 43.5256 88.8903L43.5509 89.0504L43.4174 89.1437C41.8466 90.232 38.8921 92.8544 34.2085 92.5224C31.9288 92.3607 29.7951 92.0438 28.379 90.5438C26.9585 89.0386 26.3231 86.4171 26.8142 81.8317C27.3135 77.1712 29.7456 74.5159 32.2164 73.0088C34.676 71.5086 37.1711 71.1473 37.8151 71.0454ZM37.3391 76.4115C36.7304 76.4117 36.0906 76.6551 35.6657 77.3825C34.8989 78.6953 34.3812 80.8519 34.2169 81.7567L34.1511 82.1152L34.5118 82.058C36.9338 81.6744 38.2226 80.7802 38.811 79.7556C39.3966 78.7354 39.2511 77.6494 38.9398 76.9608L38.9065 76.888L38.8377 76.8465L38.6997 76.7684C38.3543 76.5858 37.8573 76.4113 37.3391 76.4115Z" fill="#F0C864"/>
<path d="M37.8151 71.0454L37.8556 71.3012L37.8556 71.3012L37.8151 71.0454ZM40.0215 71.13L40.0634 70.8744L40.0633 70.8744L40.0215 71.13ZM43.2901 72.39L43.4379 72.1773L43.4379 72.1773L43.2901 72.39ZM45.6636 75.8771L45.9149 75.8144L45.9149 75.8144L45.6636 75.8771ZM45.1031 82.4638L44.856 82.3863L44.856 82.3863L45.1031 82.4638ZM45.0552 82.6167L45.0957 82.8726L45.2543 82.8474L45.3023 82.6942L45.0552 82.6167ZM34.369 84.3093L34.3285 84.0534L34.1059 84.0887L34.1101 84.3141L34.369 84.3093ZM36.1823 86.9932L36.0972 87.2378L36.0973 87.2379L36.1823 86.9932ZM44.4834 84.756L44.6764 84.5833L44.5373 84.4278L44.3558 84.5306L44.4834 84.756ZM44.821 85.1336L45.0305 85.2858L45.1534 85.1167L45.0141 84.9609L44.821 85.1336ZM43.5256 88.8903L43.2697 88.9308L43.2697 88.9308L43.5256 88.8903ZM43.5509 89.0504L43.6993 89.2627L43.8321 89.1699L43.8067 89.0099L43.5509 89.0504ZM43.4174 89.1437L43.5649 89.3566L43.5658 89.356L43.4174 89.1437ZM34.2085 92.5224L34.1902 92.7807L34.1902 92.7808L34.2085 92.5224ZM28.379 90.5438L28.1906 90.7215L28.1907 90.7216L28.379 90.5438ZM26.8142 81.8317L26.5567 81.8041L26.5567 81.8041L26.8142 81.8317ZM32.2164 73.0088L32.0815 72.7877L32.0815 72.7877L32.2164 73.0088ZM37.3391 76.4115L37.339 76.1525L37.3389 76.1525L37.3391 76.4115ZM35.6657 77.3825L35.442 77.2518L35.442 77.2518L35.6657 77.3825ZM34.2169 81.7567L34.4716 81.8035L34.4717 81.803L34.2169 81.7567ZM34.1511 82.1152L33.8963 82.0684L33.8302 82.4282L34.1916 82.371L34.1511 82.1152ZM38.811 79.7556L39.0356 79.8846L39.0356 79.8845L38.811 79.7556ZM38.9398 76.9608L39.1758 76.8541L39.1754 76.8531L38.9398 76.9608ZM38.9065 76.888L39.1421 76.7803L39.1088 76.7074L39.0402 76.6661L38.9065 76.888ZM38.8377 76.8465L38.9714 76.6245L38.9652 76.621L38.8377 76.8465ZM38.6997 76.7684L38.8273 76.5429L38.8208 76.5395L38.6997 76.7684ZM37.8151 71.0454L37.8556 71.3012C38.1753 71.2505 38.9914 71.2237 39.9796 71.3855L40.0215 71.13L40.0633 70.8744C39.0328 70.7055 38.1599 70.7285 37.7745 70.7895L37.8151 71.0454ZM40.0215 71.13L39.9796 71.3855C40.9677 71.5475 42.1295 71.8989 43.1423 72.6027L43.2901 72.39L43.4379 72.1773C42.3421 71.4158 41.0997 71.0442 40.0634 70.8744L40.0215 71.13ZM43.2901 72.39L43.1422 72.6027C44.1551 73.3067 45.0193 74.3644 45.4123 75.9397L45.6636 75.8771L45.9149 75.8144C45.4888 74.1063 44.5441 72.9463 43.4379 72.1773L43.2901 72.39ZM45.6636 75.8771L45.4123 75.9397C45.8053 77.5154 45.7273 79.6097 44.856 82.3863L45.1031 82.4638L45.3502 82.5413C46.2398 79.7065 46.338 77.5109 45.9149 75.8144L45.6636 75.8771ZM45.1031 82.4638L44.856 82.3863L44.808 82.5392L45.0552 82.6167L45.3023 82.6942L45.3503 82.5413L45.1031 82.4638ZM45.0552 82.6167L45.0147 82.3609L34.3285 84.0534L34.369 84.3093L34.4096 84.5651L45.0957 82.8726L45.0552 82.6167ZM34.369 84.3093L34.1101 84.3141C34.1311 85.4324 34.6393 86.7308 36.0972 87.2378L36.1823 86.9932L36.2674 86.7486C35.0829 86.3367 34.6465 85.2887 34.628 84.3044L34.369 84.3093ZM36.1823 86.9932L36.0973 87.2379C37.6565 87.7797 40.3038 87.4202 44.611 84.9813L44.4834 84.756L44.3558 84.5306C40.072 86.9562 37.6015 87.2122 36.2673 86.7486L36.1823 86.9932ZM44.4834 84.756L44.2903 84.9286L44.6279 85.3062L44.821 85.1336L45.0141 84.9609L44.6764 84.5833L44.4834 84.756ZM44.821 85.1336L44.6115 84.9813C43.6428 86.3146 43.037 87.4601 43.2697 88.9308L43.5256 88.8903L43.7814 88.8498C43.5828 87.5952 44.077 86.5983 45.0305 85.2858L44.821 85.1336ZM43.5256 88.8903L43.2697 88.9308L43.2951 89.0909L43.5509 89.0504L43.8067 89.0099L43.7814 88.8498L43.5256 88.8903ZM43.5509 89.0504L43.4025 88.8381L43.269 88.9314L43.4174 89.1437L43.5658 89.356L43.6993 89.2627L43.5509 89.0504ZM43.4174 89.1437L43.2699 88.9308C41.675 90.0357 38.8012 92.5883 34.2268 92.264L34.2085 92.5224L34.1902 92.7808C38.9831 93.1205 42.0182 90.4282 43.5649 89.3566L43.4174 89.1437ZM34.2085 92.5224L34.2268 92.264C31.9399 92.1019 29.9064 91.7844 28.5673 90.366L28.379 90.5438L28.1907 90.7216C29.6838 92.3032 31.9176 92.6196 34.1902 92.7807L34.2085 92.5224ZM28.379 90.5438L28.5673 90.366C27.2284 88.9473 26.5825 86.4269 27.0718 81.8593L26.8142 81.8317L26.5567 81.8041C26.0637 86.4073 26.6886 89.1299 28.1906 90.7215L28.379 90.5438ZM26.8142 81.8317L27.0718 81.8593C27.5611 77.2915 29.9376 74.7021 32.3512 73.2299L32.2164 73.0088L32.0815 72.7877C29.5535 74.3297 27.0659 77.051 26.5567 81.8041L26.8142 81.8317ZM32.2164 73.0088L32.3512 73.23C34.7642 71.7582 37.2152 71.4026 37.8556 71.3012L37.8151 71.0454L37.7745 70.7895C37.1271 70.8921 34.5879 71.259 32.0815 72.7877L32.2164 73.0088ZM37.3391 76.4115L37.3389 76.1525C36.6538 76.1528 35.9207 76.4324 35.442 77.2518L35.6657 77.3825L35.8893 77.5131C36.2604 76.8778 36.8069 76.6707 37.3392 76.6705L37.3391 76.4115ZM35.6657 77.3825L35.442 77.2518C34.651 78.6062 34.1272 80.8009 33.9621 81.7104L34.2169 81.7567L34.4717 81.803C34.6351 80.9029 35.1468 78.7845 35.8893 77.5131L35.6657 77.3825ZM34.2169 81.7567L33.9621 81.7099L33.8963 82.0684L34.1511 82.1152L34.4058 82.162L34.4716 81.8035L34.2169 81.7567ZM34.1511 82.1152L34.1916 82.371L34.5523 82.3138L34.5118 82.058L34.4713 81.8022L34.1105 81.8594L34.1511 82.1152ZM34.5118 82.058L34.5523 82.3138C37.0174 81.9234 38.3937 81.0024 39.0356 79.8846L38.811 79.7556L38.5864 79.6266C38.0516 80.5579 36.8503 81.4254 34.4713 81.8022L34.5118 82.058ZM38.811 79.7556L39.0356 79.8845C39.6723 78.7755 39.5126 77.599 39.1758 76.8541L38.9398 76.9608L38.7038 77.0675C38.9897 77.6998 39.121 78.6954 38.5864 79.6266L38.811 79.7556ZM38.9398 76.9608L39.1754 76.8531L39.1421 76.7803L38.9065 76.888L38.671 76.9956L38.7043 77.0684L38.9398 76.9608ZM38.9065 76.888L39.0402 76.6661L38.9713 76.6246L38.8377 76.8465L38.704 77.0683L38.7729 77.1098L38.9065 76.888ZM38.8377 76.8465L38.9652 76.621L38.8273 76.543L38.6997 76.7684L38.5722 76.9939L38.7102 77.0719L38.8377 76.8465ZM38.6997 76.7684L38.8208 76.5395C38.45 76.3435 37.9112 76.1523 37.339 76.1525L37.3391 76.4115L37.3391 76.6705C37.8034 76.6704 38.2586 76.8282 38.5787 76.9974L38.6997 76.7684Z" fill="#737478"/>
<path d="M37.3393 76.4122C37.8575 76.4121 38.3545 76.5866 38.7 76.7692L38.8379 76.8472L38.9068 76.8887L38.94 76.9615C39.2514 77.6501 39.3969 78.7361 38.8112 79.7563C38.2229 80.781 36.9342 81.6751 34.512 82.0588L34.1513 82.1159L34.2171 81.7575C34.3814 80.8526 34.899 78.6961 35.6659 77.3832C36.0908 76.6558 36.7306 76.4125 37.3393 76.4122Z" stroke="#737478" stroke-width="0.518"/>
<g filter="url(#filter1_f_40001442_27232)">
<path d="M15.2065 59.0631L14.0567 60.3932L14.9674 58.8894L12.2403 59.088L14.8954 58.4351L13.5644 57.2854L15.0693 58.197L14.8698 55.47L15.5236 58.125L16.6722 56.7932L15.7616 58.2979L18.4876 58.0985L15.8336 58.7522L17.1644 59.9009L15.6608 58.9912L15.8592 61.7173L15.2065 59.0631Z" fill="#FFD954"/>
</g>
<path d="M15.2065 59.0631L14.0567 60.3932L14.9674 58.8894L12.2403 59.088L14.8954 58.4351L13.5644 57.2854L15.0693 58.197L14.8698 55.47L15.5236 58.125L16.6722 56.7932L15.7616 58.2979L18.4876 58.0985L15.8336 58.7522L17.1644 59.9009L15.6608 58.9912L15.8592 61.7173L15.2065 59.0631Z" fill="#FFD954"/>
<g filter="url(#filter2_f_40001442_27232)">
<path d="M22.4685 39.1188L24.8071 36.411L22.9554 39.4708L28.5015 39.0669L23.1007 40.3949L25.8087 42.7345L22.7476 40.881L23.1535 46.4278L21.8237 41.0283L19.4861 43.7359L21.3385 40.6741L15.7917 41.08L21.1912 39.7502L18.4846 37.4124L21.5443 39.2641L21.1405 33.718L22.4685 39.1188Z" fill="#FFD954"/>
</g>
<path d="M22.4685 39.1188L24.8071 36.411L22.9554 39.4708L28.5015 39.0669L23.1007 40.3949L25.8087 42.7345L22.7476 40.881L23.1535 46.4278L21.8237 41.0283L19.4861 43.7359L21.3385 40.6741L15.7917 41.08L21.1912 39.7502L18.4846 37.4124L21.5443 39.2641L21.1405 33.718L22.4685 39.1188Z" fill="#FFD954"/>
<g filter="url(#filter3_f_40001442_27232)">
<path d="M63.6892 45.6168L66.0288 42.9089L64.1752 45.9699L69.7231 45.5648L64.3226 46.8938L67.0303 49.2324L63.9683 47.379L64.3744 52.9268L63.0444 47.5263L60.7068 50.234L62.5584 47.1732L57.0124 47.578L62.413 46.249L59.7053 43.9104L62.765 45.7622L62.3612 40.2161L63.6892 45.6168Z" fill="#CDA51D"/>
</g>
<path d="M63.6892 45.6168L66.0288 42.9089L64.1752 45.9699L69.7231 45.5648L64.3226 46.8938L67.0303 49.2324L63.9683 47.379L64.3744 52.9268L63.0444 47.5263L60.7068 50.234L62.5584 47.1732L57.0124 47.578L62.413 46.249L59.7053 43.9104L62.765 45.7622L62.3612 40.2161L63.6892 45.6168Z" fill="#CDA51D"/>
<g filter="url(#filter4_f_40001442_27232)">
<path d="M56.9986 92.61L59.3382 89.9021L57.4847 92.9631L63.0326 92.558L57.632 93.887L60.3397 96.2256L57.2777 94.3722L57.6838 99.9199L56.3539 94.5195L54.0162 97.2271L55.8678 94.1664L50.3219 94.5712L55.7225 93.2422L53.0147 90.9036L56.0745 92.7554L55.6708 87.2102L56.9986 92.61Z" fill="#CDA51D"/>
</g>
<path d="M56.9986 92.61L59.3382 89.9021L57.4847 92.9631L63.0326 92.558L57.632 93.887L60.3397 96.2256L57.2777 94.3722L57.6838 99.9199L56.3539 94.5195L54.0162 97.2271L55.8678 94.1664L50.3219 94.5712L55.7225 93.2422L53.0147 90.9036L56.0745 92.7554L55.6708 87.2102L56.9986 92.61Z" fill="#CDA51D"/>
<g filter="url(#filter5_f_40001442_27232)">
<path d="M79.92 94.8369L81.3874 93.1402L80.2261 95.0594L83.7047 94.805L80.3166 95.6373L82.0155 97.1054L80.0952 95.9433L80.3505 99.4217L79.5174 96.0348L78.0503 97.7335L79.2113 95.8124L75.7338 96.0675L79.1198 95.2346L77.4222 93.7682L79.3424 94.9294L79.088 91.4508L79.92 94.8369Z" fill="#FFD954"/>
</g>
<path d="M79.92 94.8369L81.3874 93.1402L80.2261 95.0594L83.7047 94.805L80.3166 95.6373L82.0155 97.1054L80.0952 95.9433L80.3505 99.4217L79.5174 96.0348L78.0503 97.7335L79.2113 95.8124L75.7338 96.0675L79.1198 95.2346L77.4222 93.7682L79.3424 94.9294L79.088 91.4508L79.92 94.8369Z" fill="#FFD954"/>
<g filter="url(#filter6_f_40001442_27232)">
<path d="M33.7541 61.2949L35.2224 59.5971L34.0601 61.5164L37.5387 61.2621L34.1517 62.0951L35.8504 63.5623L33.9292 62.4003L34.1845 65.8788L33.3514 62.4918L31.8842 64.1905L33.0454 62.2704L29.5678 62.5245L32.9538 61.6916L31.2562 60.2253L33.1763 61.3865L32.922 57.9078L33.7541 61.2949Z" fill="#FFD954"/>
</g>
<path d="M33.7541 61.2949L35.2224 59.5971L34.0601 61.5164L37.5387 61.2621L34.1517 62.0951L35.8504 63.5623L33.9292 62.4003L34.1845 65.8788L33.3514 62.4918L31.8842 64.1905L33.0454 62.2704L29.5678 62.5245L32.9538 61.6916L31.2562 60.2253L33.1763 61.3865L32.922 57.9078L33.7541 61.2949Z" fill="#FFD954"/>
<g filter="url(#filter7_f_40001442_27232)">
<path d="M69.6092 103.088L68.5808 103.163L69.5815 102.917L68.3689 101.87L69.7407 102.7L69.6651 101.671L69.9112 102.673L70.9593 101.46L70.1298 102.83L71.1575 102.755L70.1562 103.002L71.3688 104.049L69.9978 103.22L70.0732 104.248L69.8273 103.247L68.7798 104.459L69.6092 103.088Z" fill="#FFD954"/>
</g>
<path d="M69.6092 103.088L68.5808 103.163L69.5815 102.917L68.3689 101.87L69.7407 102.7L69.6651 101.671L69.9112 102.673L70.9593 101.46L70.1298 102.83L71.1575 102.755L70.1562 103.002L71.3688 104.049L69.9978 103.22L70.0732 104.248L69.8273 103.247L68.7798 104.459L69.6092 103.088Z" fill="#FFD954"/>
<g filter="url(#filter8_f_40001442_27232)">
<path d="M30.066 118.497L30.7405 117.718L30.2056 118.599L31.8048 118.483L30.2479 118.866L31.029 119.54L30.1465 119.006L30.2631 120.604L29.8793 119.048L29.207 119.829L29.7396 118.947L28.1425 119.063L29.6973 118.679L28.9185 118.007L29.7988 118.54L29.6832 116.942L30.066 118.497Z" fill="#FFD954"/>
</g>
<path d="M30.066 118.497L30.7405 117.718L30.2056 118.599L31.8048 118.483L30.2479 118.866L31.029 119.54L30.1465 119.006L30.2631 120.604L29.8793 119.048L29.207 119.829L29.7396 118.947L28.1425 119.063L29.6973 118.679L28.9185 118.007L29.7988 118.54L29.6832 116.942L30.066 118.497Z" fill="#FFD954"/>
<g filter="url(#filter9_f_40001442_27232)">
<path d="M64.349 121.504L63.4767 122.513L64.168 121.373L62.0997 121.523L64.1135 121.028L63.1033 120.156L64.245 120.847L64.0933 118.778L64.5902 120.792L65.4616 119.783L64.7713 120.924L66.8385 120.773L64.8259 121.268L65.835 122.14L64.6945 121.45L64.844 123.518L64.349 121.504Z" fill="#FFD954"/>
</g>
<path d="M64.349 121.504L63.4767 122.513L64.168 121.373L62.0997 121.523L64.1135 121.028L63.1033 120.156L64.245 120.847L64.0933 118.778L64.5902 120.792L65.4616 119.783L64.7713 120.924L66.8385 120.773L64.8259 121.268L65.835 122.14L64.6945 121.45L64.844 123.518L64.349 121.504Z" fill="#FFD954"/>
<g filter="url(#filter10_f_40001442_27232)">
<path d="M58.8791 117.971L59.3948 117.375L58.9865 118.05L60.2094 117.961L59.0188 118.253L59.6156 118.769L58.9408 118.361L59.0305 119.582L58.7373 118.393L58.2228 118.989L58.6301 118.315L57.4093 118.404L58.5978 118.111L58.002 117.596L58.6756 118.003L58.587 116.782L58.8791 117.971Z" fill="#FFD954"/>
</g>
<path d="M58.8791 117.971L59.3948 117.375L58.9865 118.05L60.2094 117.961L59.0188 118.253L59.6156 118.769L58.9408 118.361L59.0305 119.582L58.7373 118.393L58.2228 118.989L58.6301 118.315L57.4093 118.404L58.5978 118.111L58.002 117.596L58.6756 118.003L58.587 116.782L58.8791 117.971Z" fill="#FFD954"/>
<g opacity="0.4" filter="url(#filter11_f_40001442_27232)">
<path d="M39.0071 114.659L33.1453 111.112L28.6666 116.297L32.2137 110.435L27.0288 105.956L32.8906 109.503L37.3693 104.319L33.8223 110.18L39.0071 114.659Z" fill="white"/>
<path d="M39.0071 114.659L33.1453 111.112L28.6666 116.297L32.2137 110.435L27.0288 105.956L32.8906 109.503L37.3693 104.319L33.8223 110.18L39.0071 114.659Z" fill="white"/>
<path d="M39.0071 114.659L33.1453 111.112L28.6666 116.297L32.2137 110.435L27.0288 105.956L32.8906 109.503L37.3693 104.319L33.8223 110.18L39.0071 114.659Z" fill="#FBDC67"/>
</g>
<g filter="url(#filter12_f_40001442_27232)">
<path d="M22.7407 87.4612L21.8683 88.4704L22.5596 87.3297L20.4904 87.4804L22.5051 86.9853L21.4949 86.1131L22.6366 86.8043L22.4849 84.7352L22.981 86.7498L23.8522 85.7397L23.162 86.8813L25.2301 86.7297L23.2165 87.2256L24.2256 88.0971L23.085 87.4066L23.2356 89.475L22.7407 87.4612Z" fill="#FFD954"/>
</g>
<path d="M22.7407 87.4612L21.8683 88.4704L22.5596 87.3297L20.4904 87.4804L22.5051 86.9853L21.4949 86.1131L22.6366 86.8043L22.4849 84.7352L22.981 86.7498L23.8522 85.7397L23.162 86.8813L25.2301 86.7297L23.2165 87.2256L24.2256 88.0971L23.085 87.4066L23.2356 89.475L22.7407 87.4612Z" fill="#FFD954"/>
<g filter="url(#filter13_f_40001442_27232)">
<path d="M71.8865 67.3127L71.0139 68.321L71.7053 67.1803L69.637 67.3309L71.6497 66.8351L70.6404 65.9627L71.782 66.653L71.6306 64.5858L72.1274 66.5993L72.9987 65.5892L72.3094 66.7306L74.3758 66.5803L72.3631 67.0761L73.3722 67.9475L72.2316 67.2571L72.3811 69.3246L71.8865 67.3127Z" fill="#FFD954"/>
</g>
<path d="M71.8865 67.3127L71.0139 68.321L71.7053 67.1803L69.637 67.3309L71.6497 66.8351L70.6404 65.9627L71.782 66.653L71.6306 64.5858L72.1274 66.5993L72.9987 65.5892L72.3094 66.7306L74.3758 66.5803L72.3631 67.0761L73.3722 67.9475L72.2316 67.2571L72.3811 69.3246L71.8865 67.3127Z" fill="#FFD954"/>
<g filter="url(#filter14_f_40001442_27232)">
<path d="M36.137 112.574L33.8947 111.938L33.1907 114.16L32.2903 112.01L30.1141 112.845L31.2337 110.8L29.224 109.62L31.5204 109.22L31.1906 106.913L32.9347 108.459L34.5331 106.763L34.4114 109.09L36.7344 109.282L34.8387 110.639L36.137 112.574Z" fill="white"/>
<path d="M36.137 112.574L33.8947 111.938L33.1907 114.16L32.2903 112.01L30.1141 112.845L31.2337 110.8L29.224 109.62L31.5204 109.22L31.1906 106.913L32.9347 108.459L34.5331 106.763L34.4114 109.09L36.7344 109.282L34.8387 110.639L36.137 112.574Z" fill="white"/>
<path d="M36.137 112.574L33.8947 111.938L33.1907 114.16L32.2903 112.01L30.1141 112.845L31.2337 110.8L29.224 109.62L31.5204 109.22L31.1906 106.913L32.9347 108.459L34.5331 106.763L34.4114 109.09L36.7344 109.282L34.8387 110.639L36.137 112.574Z" fill="#FBDC67"/>
</g>
<circle cx="69.0891" cy="37.3847" r="1.30867" transform="rotate(-9 69.0891 37.3847)" fill="#ECCE6E"/>
<circle cx="30.0881" cy="49.0839" r="1.30867" transform="rotate(-9 30.0881 49.0839)" fill="#ECCE6E"/>
<circle cx="26.4162" cy="99.7929" r="1.30867" transform="rotate(-9 26.4162 99.7929)" fill="#ECCE6E"/>
<circle cx="62.967" cy="62.8671" r="1.30867" transform="rotate(-9 62.967 62.8671)" fill="#ECCE6E"/>
<circle cx="42.2688" cy="125.99" r="1.30867" transform="rotate(-9 42.2688 125.99)" fill="#ECCE6E"/>
<circle cx="73.0022" cy="85.789" r="1.30867" transform="rotate(-9 73.0022 85.789)" fill="#ECCE6E"/>
<circle cx="75.7951" cy="117.367" r="1.30867" transform="rotate(-9 75.7951 117.367)" fill="#ECCE6E"/>
<circle cx="72.0754" cy="93.8867" r="1.30867" transform="rotate(-9 72.0754 93.8867)" fill="#ECCE6E"/>
<circle cx="68.7443" cy="75.6425" r="1.30867" transform="rotate(-9 68.7443 75.6425)" fill="#ECCE6E"/>
<circle cx="79.0598" cy="68.2675" r="1.30867" transform="rotate(-9 79.0598 68.2675)" fill="#ECCE6E"/>
<circle cx="64.3088" cy="118.746" r="1.30867" transform="rotate(-9 64.3088 118.746)" fill="#ECCE6E"/>
<circle cx="46.3635" cy="103.037" r="1.30867" transform="rotate(-9 46.3635 103.037)" fill="#ECCE6E"/>
<circle cx="31.2268" cy="130.168" r="1.30867" transform="rotate(-9 31.2268 130.168)" fill="#ECCE6E"/>
<circle cx="38.8479" cy="132.273" r="1.30867" transform="rotate(-9 38.8479 132.273)" fill="#ECCE6E"/>
<circle cx="26.6994" cy="122.494" r="1.30867" transform="rotate(-9 26.6994 122.494)" fill="#ECCE6E"/>
<circle cx="47.9504" cy="30.7968" r="1.30867" transform="rotate(-9 47.9504 30.7968)" fill="#ECCE6E"/>
<circle cx="14.2092" cy="39.4531" r="1.30867" transform="rotate(-9 14.2092 39.4531)" fill="#ECCE6E"/>
<circle cx="18.3098" cy="77.8906" r="1.30867" transform="rotate(-9 18.3098 77.8906)" fill="#ECCE6E"/>
<circle cx="51.1291" cy="63.4179" r="1.30867" transform="rotate(-9 51.1291 63.4179)" fill="#ECCE6E"/>
<circle cx="25.0129" cy="82.5703" r="1.30867" transform="rotate(-9 25.0129 82.5703)" fill="#ECCE6E" fill-opacity="0.5"/>
<circle cx="32.5207" cy="36.5527" r="1.30867" transform="rotate(-9 32.5207 36.5527)" fill="#ECCE6E" fill-opacity="0.5"/>
<circle cx="59.6428" cy="34.9062" r="1.30867" transform="rotate(-9 59.6428 34.9062)" fill="#ECCE6E" fill-opacity="0.5"/>
<circle cx="69.882" cy="59.121" r="1.30867" transform="rotate(-9 69.882 59.121)" fill="#ECCE6E" fill-opacity="0.5"/>
<circle cx="78.59" cy="82.0331" r="1.30867" transform="rotate(-9 78.59 82.0331)" fill="#ECCE6E" fill-opacity="0.5"/>
<circle cx="81.9807" cy="106.23" r="1.30867" transform="rotate(-9 81.9807 106.23)" fill="#ECCE6E" fill-opacity="0.5"/>
<circle cx="59.2561" cy="127.275" r="1.30867" transform="rotate(-9 59.2561 127.275)" fill="#ECCE6E" fill-opacity="0.5"/>
<circle cx="71.6594" cy="123.322" r="1.30867" transform="rotate(-9 71.6594 123.322)" fill="#ECCE6E" fill-opacity="0.5"/>
<circle cx="52.507" cy="123.707" r="1.30867" transform="rotate(-9 52.507 123.707)" fill="#ECCE6E" fill-opacity="0.5"/>
<circle cx="46.8811" cy="118.855" r="1.30867" transform="rotate(-9 46.8811 118.855)" fill="#ECCE6E" fill-opacity="0.5"/>
<circle cx="51.4289" cy="48.5742" r="1.30867" transform="rotate(-9 51.4289 48.5742)" fill="#ECCE6E" fill-opacity="0.5"/>
<circle cx="52.2522" cy="110.939" r="1.30867" transform="rotate(-9 52.2522 110.939)" fill="#ECCE6E" fill-opacity="0.5"/>
<circle cx="41.7258" cy="55.6308" r="1.30867" transform="rotate(-9 41.7258 55.6308)" fill="#ECCE6E" fill-opacity="0.5"/>
</g>
</g>
<defs>
<filter id="filter0_d_40001442_27232" x="0" y="0.149909" width="98.5328" height="148.311" filterUnits="userSpaceOnUse" color-interpolation-filters="sRGB">
<feFlood flood-opacity="0" result="BackgroundImageFix"/>
<feColorMatrix in="SourceAlpha" type="matrix" values="0 0 0 0 0 0 0 0 0 0 0 0 0 0 0 0 0 0 127 0" result="hardAlpha"/>
<feOffset dx="7.82259" dy="-5.21506"/>
<feGaussianBlur stdDeviation="3.35755"/>
<feComposite in2="hardAlpha" operator="out"/>
<feColorMatrix type="matrix" values="0 0 0 0 0.784314 0 0 0 0 0.843137 0 0 0 0 0.909804 0 0 0 0.25 0"/>
<feBlend mode="normal" in2="BackgroundImageFix" result="effect1_dropShadow_40001442_27232"/>
<feBlend mode="normal" in="SourceGraphic" in2="effect1_dropShadow_40001442_27232" result="shape"/>
</filter>
<filter id="filter1_f_40001442_27232" x="11.5859" y="54.8164" width="7.55574" height="7.55476" filterUnits="userSpaceOnUse" color-interpolation-filters="sRGB">
<feFlood flood-opacity="0" result="BackgroundImageFix"/>
<feBlend mode="normal" in="SourceGraphic" in2="BackgroundImageFix" result="shape"/>
<feGaussianBlur stdDeviation="0.327167" result="effect1_foregroundBlur_40001442_27232"/>
</filter>
<filter id="filter2_f_40001442_27232" x="14.4608" y="32.3875" width="15.3724" height="15.3715" filterUnits="userSpaceOnUse" color-interpolation-filters="sRGB">
<feFlood flood-opacity="0" result="BackgroundImageFix"/>
<feBlend mode="normal" in="SourceGraphic" in2="BackgroundImageFix" result="shape"/>
<feGaussianBlur stdDeviation="0.665617" result="effect1_foregroundBlur_40001442_27232"/>
</filter>
<filter id="filter3_f_40001442_27232" x="55.6815" y="38.8856" width="15.3734" height="15.3734" filterUnits="userSpaceOnUse" color-interpolation-filters="sRGB">
<feFlood flood-opacity="0" result="BackgroundImageFix"/>
<feBlend mode="normal" in="SourceGraphic" in2="BackgroundImageFix" result="shape"/>
<feGaussianBlur stdDeviation="0.665617" result="effect1_foregroundBlur_40001442_27232"/>
</filter>
<filter id="filter4_f_40001442_27232" x="48.991" y="85.8797" width="15.3724" height="15.3715" filterUnits="userSpaceOnUse" color-interpolation-filters="sRGB">
<feFlood flood-opacity="0" result="BackgroundImageFix"/>
<feBlend mode="normal" in="SourceGraphic" in2="BackgroundImageFix" result="shape"/>
<feGaussianBlur stdDeviation="0.665617" result="effect1_foregroundBlur_40001442_27232"/>
</filter>
<filter id="filter5_f_40001442_27232" x="74.8986" y="90.6163" width="9.64136" height="9.64039" filterUnits="userSpaceOnUse" color-interpolation-filters="sRGB">
<feFlood flood-opacity="0" result="BackgroundImageFix"/>
<feBlend mode="normal" in="SourceGraphic" in2="BackgroundImageFix" result="shape"/>
<feGaussianBlur stdDeviation="0.417421" result="effect1_foregroundBlur_40001442_27232"/>
</filter>
<filter id="filter6_f_40001442_27232" x="28.7325" y="57.0734" width="9.64136" height="9.64039" filterUnits="userSpaceOnUse" color-interpolation-filters="sRGB">
<feFlood flood-opacity="0" result="BackgroundImageFix"/>
<feBlend mode="normal" in="SourceGraphic" in2="BackgroundImageFix" result="shape"/>
<feGaussianBlur stdDeviation="0.417421" result="effect1_foregroundBlur_40001442_27232"/>
</filter>
<filter id="filter7_f_40001442_27232" x="67.9856" y="101.075" width="3.76715" height="3.76715" filterUnits="userSpaceOnUse" color-interpolation-filters="sRGB">
<feFlood flood-opacity="0" result="BackgroundImageFix"/>
<feBlend mode="normal" in="SourceGraphic" in2="BackgroundImageFix" result="shape"/>
<feGaussianBlur stdDeviation="0.191788" result="effect1_foregroundBlur_40001442_27232"/>
</filter>
<filter id="filter8_f_40001442_27232" x="27.759" y="116.56" width="4.42926" height="4.42731" filterUnits="userSpaceOnUse" color-interpolation-filters="sRGB">
<feFlood flood-opacity="0" result="BackgroundImageFix"/>
<feBlend mode="normal" in="SourceGraphic" in2="BackgroundImageFix" result="shape"/>
<feGaussianBlur stdDeviation="0.191788" result="effect1_foregroundBlur_40001442_27232"/>
</filter>
<filter id="filter9_f_40001442_27232" x="61.6032" y="118.281" width="5.73204" height="5.73302" filterUnits="userSpaceOnUse" color-interpolation-filters="sRGB">
<feFlood flood-opacity="0" result="BackgroundImageFix"/>
<feBlend mode="normal" in="SourceGraphic" in2="BackgroundImageFix" result="shape"/>
<feGaussianBlur stdDeviation="0.248196" result="effect1_foregroundBlur_40001442_27232"/>
</filter>
<filter id="filter10_f_40001442_27232" x="57.1159" y="116.49" width="3.38645" height="3.38547" filterUnits="userSpaceOnUse" color-interpolation-filters="sRGB">
<feFlood flood-opacity="0" result="BackgroundImageFix"/>
<feBlend mode="normal" in="SourceGraphic" in2="BackgroundImageFix" result="shape"/>
<feGaussianBlur stdDeviation="0.146661" result="effect1_foregroundBlur_40001442_27232"/>
</filter>
<filter id="filter11_f_40001442_27232" x="26.8112" y="104.1" width="12.4138" height="12.4147" filterUnits="userSpaceOnUse" color-interpolation-filters="sRGB">
<feFlood flood-opacity="0" result="BackgroundImageFix"/>
<feBlend mode="normal" in="SourceGraphic" in2="BackgroundImageFix" result="shape"/>
<feGaussianBlur stdDeviation="0.109056" result="effect1_foregroundBlur_40001442_27232"/>
</filter>
<filter id="filter12_f_40001442_27232" x="19.9938" y="84.238" width="5.73302" height="5.73302" filterUnits="userSpaceOnUse" color-interpolation-filters="sRGB">
<feFlood flood-opacity="0" result="BackgroundImageFix"/>
<feBlend mode="normal" in="SourceGraphic" in2="BackgroundImageFix" result="shape"/>
<feGaussianBlur stdDeviation="0.248196" result="effect1_foregroundBlur_40001442_27232"/>
</filter>
<filter id="filter13_f_40001442_27232" x="69.1403" y="64.0895" width="5.73204" height="5.73107" filterUnits="userSpaceOnUse" color-interpolation-filters="sRGB">
<feFlood flood-opacity="0" result="BackgroundImageFix"/>
<feBlend mode="normal" in="SourceGraphic" in2="BackgroundImageFix" result="shape"/>
<feGaussianBlur stdDeviation="0.248196" result="effect1_foregroundBlur_40001442_27232"/>
</filter>
<filter id="filter14_f_40001442_27232" x="28.3512" y="105.889" width="9.25564" height="9.14333" filterUnits="userSpaceOnUse" color-interpolation-filters="sRGB">
<feFlood flood-opacity="0" result="BackgroundImageFix"/>
<feBlend mode="normal" in="SourceGraphic" in2="BackgroundImageFix" result="shape"/>
<feGaussianBlur stdDeviation="0.436223" result="effect1_foregroundBlur_40001442_27232"/>
</filter>
<linearGradient id="paint0_linear_40001442_27232" x1="56.6" y1="-1.74897e-06" x2="8.50635" y2="99.677" gradientUnits="userSpaceOnUse">
<stop stop-color="#4A311B"/>
<stop offset="0.469087" stop-color="#D9BF26"/>
<stop offset="1" stop-color="#0A0907"/>
</linearGradient>
<clipPath id="clip0_40001442_27232">
<rect width="65.2154" height="126.287" fill="white" transform="translate(3.45996 16.2012) rotate(-9)"/>
</clipPath>
<clipPath id="clip1_40001442_27232">
<rect width="65.2154" height="99.677" fill="white" transform="translate(6.59863 36.0195) rotate(-9)"/>
</clipPath>
</defs>
</svg>
