<svg width="99" height="149" viewBox="0 0 99 149" fill="none" xmlns="http://www.w3.org/2000/svg">
<g opacity="0.2" filter="url(#filter0_d_40000647_59493)">
<rect y="22.3887" width="65.4723" height="126.31" rx="3.50353" transform="rotate(-9 0 22.3887)" fill="#005BA6"/>
</g>
<rect x="3.45996" y="16.1953" width="65.2154" height="126.287" rx="3.48979" transform="rotate(-9 3.45996 16.1953)" fill="url(#paint0_linear_40000647_59493)"/>
<rect x="5.98438" y="32.1367" width="65.2154" height="3.92601" transform="rotate(-9 5.98438 32.1367)" fill="white"/>
<rect x="6.18945" y="33.4297" width="65.2154" height="1.30867" transform="rotate(-9 6.18945 33.4297)" fill="#61B9F5"/>
<g clip-path="url(#clip0_40000647_59493)">
<rect x="6.59863" y="36.0137" width="65.2154" height="99.677" transform="rotate(-9 6.59863 36.0137)" fill="url(#paint1_radial_40000647_59493)"/>
<g filter="url(#filter1_f_40000647_59493)">
<mask id="path-6-outside-1_40000647_59493" maskUnits="userSpaceOnUse" x="9.82944" y="53.1589" width="10.2971" height="10.2971" fill="black">
<rect fill="white" x="9.82944" y="53.1589" width="10.2971" height="10.2971"/>
<path fill-rule="evenodd" clip-rule="evenodd" d="M15.2057 59.0572L15.8587 61.7115L15.6596 58.9855L17.1641 59.8959L15.8331 58.7462L18.4877 58.0931L15.7615 58.2923L16.6718 56.7879L15.5223 58.1187L14.8693 55.4642L15.0685 58.1906L13.5638 57.2801L14.8945 58.4296L12.2403 59.0826L14.9666 58.8834L14.0561 60.3882L15.2057 59.0572Z"/>
</mask>
<path fill-rule="evenodd" clip-rule="evenodd" d="M15.2057 59.0572L15.8587 61.7115L15.6596 58.9855L17.1641 59.8959L15.8331 58.7462L18.4877 58.0931L15.7615 58.2923L16.6718 56.7879L15.5223 58.1187L14.8693 55.4642L15.0685 58.1906L13.5638 57.2801L14.8945 58.4296L12.2403 59.0826L14.9666 58.8834L14.0561 60.3882L15.2057 59.0572Z" fill="white"/>
<path d="M15.8587 61.7115L15.0853 61.9018C15.1841 62.3038 15.5745 62.563 15.9833 62.4983C16.3922 62.4335 16.6833 62.0664 16.6532 61.6535L15.8587 61.7115ZM15.2057 59.0572L15.9792 58.867C15.9081 58.5777 15.6814 58.3522 15.3917 58.2827C15.102 58.2131 14.7977 58.3111 14.603 58.5365L15.2057 59.0572ZM15.6596 58.9855L16.0719 58.304C15.817 58.1497 15.4974 58.1506 15.2434 58.3063C14.9893 58.462 14.8434 58.7464 14.8651 59.0435L15.6596 58.9855ZM17.1641 59.8959L16.7517 60.5774C17.1059 60.7917 17.5652 60.699 17.8085 60.3641C18.0519 60.0292 17.9981 59.5637 17.6848 59.2931L17.1641 59.8959ZM15.8331 58.7462L15.6428 57.9727C15.3535 58.0439 15.1281 58.2705 15.0586 58.5602C14.989 58.8499 15.087 59.1542 15.3124 59.349L15.8331 58.7462ZM18.4877 58.0931L18.678 58.8666C19.08 58.7677 19.3392 58.3774 19.2744 57.9685C19.2097 57.5596 18.8425 57.2685 18.4296 57.2987L18.4877 58.0931ZM15.7615 58.2923L15.08 57.8799C14.9257 58.1348 14.9266 58.4545 15.0823 58.7085C15.238 58.9625 15.5224 59.1085 15.8195 59.0867L15.7615 58.2923ZM16.6718 56.7879L17.3533 57.2002C17.5677 56.8461 17.475 56.3868 17.14 56.1434C16.8051 55.9001 16.3397 55.9539 16.0691 56.2672L16.6718 56.7879ZM15.5223 58.1187L14.7488 58.3089C14.82 58.5982 15.0466 58.8236 15.3363 58.8932C15.626 58.9627 15.9303 58.8648 16.1251 58.6394L15.5223 58.1187ZM14.8693 55.4642L15.6427 55.2739C15.5439 54.8719 15.1535 54.6127 14.7446 54.6774C14.3358 54.7422 14.0447 55.1094 14.0748 55.5222L14.8693 55.4642ZM15.0685 58.1906L14.6561 58.8721C14.911 59.0264 15.2306 59.0255 15.4847 58.8698C15.7387 58.7141 15.8846 58.4297 15.8629 58.1326L15.0685 58.1906ZM13.5638 57.2801L13.9762 56.5986C13.622 56.3843 13.1627 56.477 12.9194 56.8119C12.6761 57.1468 12.7298 57.6123 13.0431 57.8829L13.5638 57.2801ZM14.8945 58.4296L15.0848 59.2031C15.3741 59.1319 15.5995 58.9053 15.6691 58.6156C15.7386 58.3259 15.6407 58.0216 15.4152 57.8268L14.8945 58.4296ZM12.2403 59.0826L12.05 58.3091C11.648 58.408 11.3888 58.7983 11.4536 59.2072C11.5183 59.6161 11.8855 59.9072 12.2984 59.877L12.2403 59.0826ZM14.9666 58.8834L15.6481 59.2958C15.8024 59.0409 15.8015 58.7212 15.6458 58.4672C15.4901 58.2132 15.2057 58.0673 14.9086 58.089L14.9666 58.8834ZM14.0561 60.3882L13.3746 59.9758C13.1603 60.33 13.253 60.7893 13.5879 61.0326C13.9228 61.2759 14.3883 61.2221 14.6589 60.9089L14.0561 60.3882ZM16.6322 61.5213L15.9792 58.867L14.4323 59.2475L15.0853 61.9018L16.6322 61.5213ZM14.8651 59.0435L15.0643 61.7696L16.6532 61.6535L16.454 58.9274L14.8651 59.0435ZM17.5765 59.2144L16.0719 58.304L15.2472 59.667L16.7517 60.5774L17.5765 59.2144ZM15.3124 59.349L16.6434 60.4987L17.6848 59.2931L16.3538 58.1434L15.3124 59.349ZM18.2974 57.3196L15.6428 57.9727L16.0234 59.5197L18.678 58.8666L18.2974 57.3196ZM15.8195 59.0867L18.5457 58.8875L18.4296 57.2987L15.7034 57.4979L15.8195 59.0867ZM15.9904 56.3755L15.08 57.8799L16.443 58.7047L17.3533 57.2002L15.9904 56.3755ZM16.1251 58.6394L17.2746 57.3086L16.0691 56.2672L14.9195 57.5979L16.1251 58.6394ZM14.0958 55.6545L14.7488 58.3089L16.2958 57.9284L15.6427 55.2739L14.0958 55.6545ZM15.8629 58.1326L15.6637 55.4061L14.0748 55.5222L14.274 58.2487L15.8629 58.1326ZM13.1514 57.9616L14.6561 58.8721L15.4809 57.5091L13.9762 56.5986L13.1514 57.9616ZM15.4152 57.8268L14.0845 56.6773L13.0431 57.8829L14.3738 59.0324L15.4152 57.8268ZM12.4306 59.8561L15.0848 59.2031L14.7042 57.6561L12.05 58.3091L12.4306 59.8561ZM14.9086 58.089L12.1823 58.2882L12.2984 59.877L15.0247 59.6778L14.9086 58.089ZM14.7376 60.8005L15.6481 59.2958L14.2851 58.471L13.3746 59.9758L14.7376 60.8005ZM14.603 58.5365L13.4533 59.8675L14.6589 60.9089L15.8085 59.5779L14.603 58.5365Z" fill="url(#paint2_linear_40000647_59493)" mask="url(#path-6-outside-1_40000647_59493)"/>
</g>
<path fill-rule="evenodd" clip-rule="evenodd" d="M15.2057 59.0572L15.8587 61.7115L15.6596 58.9855L17.1641 59.8959L15.8331 58.7462L18.4877 58.0931L15.7615 58.2923L16.6718 56.7879L15.5223 58.1187L14.8693 55.4642L15.0685 58.1906L13.5638 57.2801L14.8945 58.4296L12.2403 59.0826L14.9666 58.8834L14.0561 60.3882L15.2057 59.0572Z" fill="white"/>
<path d="M87.4248 73.673C83.8539 51.1269 62.6819 35.7445 40.1358 39.3155C17.5897 42.8864 2.20733 64.0585 5.77827 86.6045" stroke="white" stroke-opacity="0.8" stroke-width="2.61734"/>
<g filter="url(#filter2_f_40000647_59493)">
<mask id="path-10-outside-2_40000647_59493" maskUnits="userSpaceOnUse" x="12.4969" y="30.3969" width="19.4501" height="19.4501" fill="black">
<rect fill="white" x="12.4969" y="30.3969" width="19.4501" height="19.4501"/>
<path fill-rule="evenodd" clip-rule="evenodd" d="M22.4688 39.1126L21.1402 33.7122L21.5455 39.2587L18.4845 37.4064L21.192 39.7453L15.7917 41.0738L21.3383 40.6686L19.486 43.7297L21.8248 41.0221L23.1533 46.4224L22.7481 40.8758L25.8092 42.7282L23.1016 40.3893L28.5019 39.0607L22.9554 39.466L24.8077 36.4049L22.4688 39.1126Z"/>
</mask>
<path fill-rule="evenodd" clip-rule="evenodd" d="M22.4688 39.1126L21.1402 33.7122L21.5455 39.2587L18.4845 37.4064L21.192 39.7453L15.7917 41.0738L21.3383 40.6686L19.486 43.7297L21.8248 41.0221L23.1533 46.4224L22.7481 40.8758L25.8092 42.7282L23.1016 40.3893L28.5019 39.0607L22.9554 39.466L24.8077 36.4049L22.4688 39.1126Z" fill="white"/>
<path d="M21.1402 33.7122L22.7139 33.3251C22.5127 32.5072 21.7186 31.9798 20.8867 32.1116C20.0549 32.2433 19.4626 32.9903 19.524 33.8303L21.1402 33.7122ZM22.4688 39.1126L20.8951 39.4997C21.0399 40.0883 21.5011 40.5469 22.0905 40.6884C22.6799 40.8299 23.2989 40.6306 23.6952 40.1719L22.4688 39.1126ZM21.5455 39.2587L20.7065 40.6452C21.2251 40.959 21.8754 40.9572 22.3922 40.6405C22.9091 40.3238 23.2059 39.7452 23.1618 39.1406L21.5455 39.2587ZM18.4845 37.4064L19.3234 36.0199C18.6029 35.5839 17.6684 35.7725 17.1734 36.4539C16.6783 37.1353 16.7877 38.0823 17.4251 38.6328L18.4845 37.4064ZM21.192 39.7453L21.5792 41.3189C22.1677 41.1741 22.6263 40.713 22.7678 40.1236C22.9093 39.5342 22.7101 38.9151 22.2514 38.5189L21.192 39.7453ZM15.7917 41.0738L15.4046 39.5002C14.5867 39.7014 14.0593 40.4955 14.1911 41.3273C14.3228 42.1592 15.0698 42.7515 15.9098 42.6901L15.7917 41.0738ZM21.3383 40.6686L22.7248 41.5075C23.0386 40.989 23.0368 40.3386 22.7201 39.8218C22.4034 39.305 21.8247 39.0081 21.2202 39.0523L21.3383 40.6686ZM19.486 43.7297L18.0995 42.8907C17.6634 43.6112 17.852 44.5457 18.5334 45.0407C19.2148 45.5358 20.1618 45.4264 20.7123 44.789L19.486 43.7297ZM21.8248 41.0221L23.3984 40.635C23.2536 40.0464 22.7925 39.5878 22.2031 39.4463C21.6137 39.3048 20.9946 39.5041 20.5984 39.9628L21.8248 41.0221ZM23.1533 46.4224L21.5797 46.8095C21.7809 47.6273 22.575 48.1547 23.4068 48.023C24.2387 47.8912 24.831 47.1442 24.7696 46.3043L23.1533 46.4224ZM22.7481 40.8758L23.587 39.4893C23.0685 39.1755 22.4181 39.1773 21.9013 39.4941C21.3845 39.8108 21.0876 40.3894 21.1318 40.9939L22.7481 40.8758ZM25.8092 42.7282L24.9702 44.1147C25.6908 44.5507 26.6252 44.3621 27.1203 43.6807C27.6153 42.9994 27.5059 42.0524 26.8686 41.5018L25.8092 42.7282ZM23.1016 40.3893L22.7144 38.8156C22.1259 38.9604 21.6673 39.4216 21.5258 40.011C21.3843 40.6003 21.5835 41.2194 22.0422 41.6156L23.1016 40.3893ZM28.5019 39.0607L28.889 40.6344C29.7068 40.4332 30.2342 39.6391 30.1025 38.8072C29.9707 37.9754 29.2237 37.3831 28.3838 37.4445L28.5019 39.0607ZM22.9554 39.466L21.5689 38.627C21.2551 39.1456 21.2569 39.7959 21.5736 40.3127C21.8903 40.8296 22.469 41.1264 23.0735 41.0823L22.9554 39.466ZM24.8077 36.4049L26.1942 37.2439C26.6302 36.5234 26.4416 35.5889 25.7602 35.0939C25.0789 34.5988 24.1319 34.7082 23.5813 35.3456L24.8077 36.4049ZM19.5666 34.0993L20.8951 39.4997L24.0424 38.7254L22.7139 33.3251L19.5666 34.0993ZM23.1618 39.1406L22.7565 33.5941L19.524 33.8303L19.9292 39.3768L23.1618 39.1406ZM17.6455 38.7929L20.7065 40.6452L22.3845 37.8722L19.3234 36.0199L17.6455 38.7929ZM22.2514 38.5189L19.5438 36.1801L17.4251 38.6328L20.1327 40.9717L22.2514 38.5189ZM16.1788 42.6475L21.5792 41.3189L20.8049 38.1716L15.4046 39.5002L16.1788 42.6475ZM21.2202 39.0523L15.6736 39.4576L15.9098 42.6901L21.4564 42.2848L21.2202 39.0523ZM20.8724 44.5687L22.7248 41.5075L19.9518 39.8296L18.0995 42.8907L20.8724 44.5687ZM20.5984 39.9628L18.2596 42.6703L20.7123 44.789L23.0512 42.0815L20.5984 39.9628ZM24.727 46.0352L23.3984 40.635L20.2511 41.4093L21.5797 46.8095L24.727 46.0352ZM21.1318 40.9939L21.5371 46.5405L24.7696 46.3043L24.3643 40.7577L21.1318 40.9939ZM26.6482 41.3417L23.587 39.4893L21.9091 42.2623L24.9702 44.1147L26.6482 41.3417ZM22.0422 41.6156L24.7498 43.9545L26.8686 41.5018L24.1609 39.1629L22.0422 41.6156ZM28.1147 37.4871L22.7144 38.8156L23.4887 41.9629L28.889 40.6344L28.1147 37.4871ZM23.0735 41.0823L28.6199 40.677L28.3838 37.4445L22.8373 37.8497L23.0735 41.0823ZM23.4212 35.5659L21.5689 38.627L24.3419 40.305L26.1942 37.2439L23.4212 35.5659ZM23.6952 40.1719L26.0341 37.4643L23.5813 35.3456L21.2424 38.0532L23.6952 40.1719Z" fill="url(#paint3_linear_40000647_59493)" mask="url(#path-10-outside-2_40000647_59493)"/>
</g>
<path fill-rule="evenodd" clip-rule="evenodd" d="M22.4688 39.1126L21.1402 33.7122L21.5455 39.2587L18.4845 37.4064L21.192 39.7453L15.7917 41.0738L21.3383 40.6686L19.486 43.7297L21.8248 41.0221L23.1533 46.4224L22.7481 40.8758L25.8092 42.7282L23.1016 40.3893L28.5019 39.0607L22.9554 39.466L24.8077 36.4049L22.4688 39.1126Z" fill="white"/>
<g filter="url(#filter3_f_40000647_59493)">
<mask id="path-13-outside-3_40000647_59493" maskUnits="userSpaceOnUse" x="53.7176" y="36.8949" width="19.4501" height="19.4501" fill="black">
<rect fill="white" x="53.7176" y="36.8949" width="19.4501" height="19.4501"/>
<path fill-rule="evenodd" clip-rule="evenodd" d="M63.6895 45.6106L62.3609 40.2103L62.7662 45.7568L59.7052 43.9045L62.4127 46.2433L57.0124 47.5719L62.559 47.1666L60.7067 50.2277L63.0455 47.5202L64.374 52.9204L63.9688 47.3739L67.0299 49.2262L64.3223 46.8873L69.7226 45.5588L64.1761 45.964L66.0284 42.903L63.6895 45.6106Z"/>
</mask>
<path fill-rule="evenodd" clip-rule="evenodd" d="M63.6895 45.6106L62.3609 40.2103L62.7662 45.7568L59.7052 43.9045L62.4127 46.2433L57.0124 47.5719L62.559 47.1666L60.7067 50.2277L63.0455 47.5202L64.374 52.9204L63.9688 47.3739L67.0299 49.2262L64.3223 46.8873L69.7226 45.5588L64.1761 45.964L66.0284 42.903L63.6895 45.6106Z" fill="white"/>
<path d="M62.3609 40.2103L63.9346 39.8231C63.7334 39.0053 62.9393 38.4779 62.1074 38.6096C61.2756 38.7414 60.6833 39.4884 60.7447 40.3283L62.3609 40.2103ZM63.6895 45.6106L62.1158 45.9978C62.2606 46.5863 62.7218 47.0449 63.3112 47.1864C63.9006 47.3279 64.5196 47.1287 64.9159 46.67L63.6895 45.6106ZM62.7662 45.7568L61.9272 47.1433C62.4458 47.4571 63.0961 47.4552 63.6129 47.1385C64.1298 46.8218 64.4266 46.2432 64.3825 45.6387L62.7662 45.7568ZM59.7052 43.9045L60.5442 42.518C59.8236 42.082 58.8891 42.2706 58.3941 42.9519C57.899 43.6333 58.0084 44.5803 58.6458 45.1309L59.7052 43.9045ZM62.4127 46.2433L62.7999 47.817C63.3884 47.6722 63.847 47.211 63.9885 46.6216C64.13 46.0323 63.9308 45.4132 63.4721 45.017L62.4127 46.2433ZM57.0124 47.5719L56.6253 45.9982C55.8074 46.1994 55.28 46.9935 55.4118 47.8254C55.5435 48.6572 56.2905 49.2495 57.1305 49.1881L57.0124 47.5719ZM62.559 47.1666L63.9455 48.0056C64.2593 47.487 64.2575 46.8367 63.9408 46.3199C63.6241 45.803 63.0454 45.5062 62.4409 45.5503L62.559 47.1666ZM60.7067 50.2277L59.3202 49.3887C58.8842 50.1093 59.0727 51.0437 59.7541 51.5388C60.4355 52.0338 61.3825 51.9244 61.933 51.2871L60.7067 50.2277ZM63.0455 47.5202L64.6191 47.133C64.4743 46.5444 64.0132 46.0859 63.4238 45.9444C62.8344 45.8029 62.2154 46.0021 61.8191 46.4608L63.0455 47.5202ZM64.374 52.9204L62.8004 53.3075C63.0016 54.1254 63.7957 54.6528 64.6275 54.521C65.4594 54.3893 66.0517 53.6423 65.9903 52.8023L64.374 52.9204ZM63.9688 47.3739L64.8078 45.9874C64.2892 45.6736 63.6388 45.6754 63.122 45.9921C62.6052 46.3088 62.3083 46.8874 62.3525 47.492L63.9688 47.3739ZM67.0299 49.2262L66.1909 50.6127C66.9115 51.0487 67.8459 50.8601 68.341 50.1788C68.836 49.4974 68.7266 48.5504 68.0893 47.9998L67.0299 49.2262ZM64.3223 46.8873L63.9351 45.3137C63.3466 45.4585 62.888 45.9196 62.7465 46.509C62.605 47.0984 62.8042 47.7175 63.2629 48.1137L64.3223 46.8873ZM69.7226 45.5588L70.1097 47.1324C70.9275 46.9312 71.4549 46.1371 71.3232 45.3053C71.1914 44.4734 70.4444 43.8811 69.6045 43.9425L69.7226 45.5588ZM64.1761 45.964L62.7896 45.1251C62.4758 45.6436 62.4776 46.294 62.7943 46.8108C63.111 47.3276 63.6897 47.6245 64.2942 47.5803L64.1761 45.964ZM66.0284 42.903L67.4149 43.742C67.8509 43.0214 67.6623 42.087 66.9809 41.5919C66.2996 41.0969 65.3526 41.2063 64.802 41.8436L66.0284 42.903ZM60.7873 40.5974L62.1158 45.9978L65.2631 45.2235L63.9346 39.8231L60.7873 40.5974ZM64.3825 45.6387L63.9772 40.0922L60.7447 40.3283L61.1499 45.8749L64.3825 45.6387ZM58.8662 45.291L61.9272 47.1433L63.6052 44.3703L60.5442 42.518L58.8662 45.291ZM63.4721 45.017L60.7645 42.6781L58.6458 45.1309L61.3534 47.4697L63.4721 45.017ZM57.3995 49.1455L62.7999 47.817L62.0256 44.6697L56.6253 45.9982L57.3995 49.1455ZM62.4409 45.5503L56.8943 45.9556L57.1305 49.1881L62.6771 48.7829L62.4409 45.5503ZM62.0931 51.0667L63.9455 48.0056L61.1725 46.3276L59.3202 49.3887L62.0931 51.0667ZM61.8191 46.4608L59.4803 49.1684L61.933 51.2871L64.2719 48.5795L61.8191 46.4608ZM65.9477 52.5333L64.6191 47.133L61.4718 47.9073L62.8004 53.3075L65.9477 52.5333ZM62.3525 47.492L62.7578 53.0385L65.9903 52.8023L65.585 47.2558L62.3525 47.492ZM67.8689 47.8397L64.8078 45.9874L63.1298 48.7603L66.1909 50.6127L67.8689 47.8397ZM63.2629 48.1137L65.9705 50.4526L68.0893 47.9998L65.3816 45.6609L63.2629 48.1137ZM69.3354 43.9851L63.9351 45.3137L64.7094 48.461L70.1097 47.1324L69.3354 43.9851ZM64.2942 47.5803L69.8407 47.175L69.6045 43.9425L64.058 44.3478L64.2942 47.5803ZM64.6419 42.064L62.7896 45.1251L65.5626 46.803L67.4149 43.742L64.6419 42.064ZM64.9159 46.67L67.2548 43.9623L64.802 41.8436L62.4631 44.5513L64.9159 46.67Z" fill="url(#paint4_linear_40000647_59493)" mask="url(#path-13-outside-3_40000647_59493)"/>
</g>
<path fill-rule="evenodd" clip-rule="evenodd" d="M63.6895 45.6106L62.3609 40.2103L62.7662 45.7568L59.7052 43.9045L62.4127 46.2433L57.0124 47.5719L62.559 47.1666L60.7067 50.2277L63.0455 47.5202L64.374 52.9204L63.9688 47.3739L67.0299 49.2262L64.3223 46.8873L69.7226 45.5588L64.1761 45.964L66.0284 42.903L63.6895 45.6106Z" fill="white"/>
<g opacity="0.7">
<circle cx="64.3928" cy="32.8242" r="1.30867" transform="rotate(-9 64.3928 32.8242)" fill="white"/>
<circle cx="67.592" cy="36.2929" r="1.30867" transform="rotate(-9 67.592 36.2929)" fill="white"/>
<circle cx="37.9035" cy="53.8027" r="1.30867" transform="rotate(-9 37.9035 53.8027)" fill="white"/>
<circle cx="28.591" cy="47.9902" r="1.30867" transform="rotate(-9 28.591 47.9902)" fill="white"/>
<circle cx="21.4904" cy="65.8984" r="1.30867" transform="rotate(-9 21.4904 65.8984)" fill="white"/>
<circle cx="58.3078" cy="89.2167" r="1.30867" transform="rotate(-9 58.3078 89.2167)" fill="white"/>
<circle cx="41.6701" cy="106.867" r="1.30867" transform="rotate(-9 41.6701 106.867)" fill="white"/>
<circle cx="22.7453" cy="105.891" r="1.30867" transform="rotate(-9 22.7453 105.891)" fill="white"/>
<circle cx="24.9192" cy="98.7011" r="1.30867" transform="rotate(-9 24.9192 98.7011)" fill="white"/>
<circle cx="61.4699" cy="61.7734" r="1.30867" transform="rotate(-9 61.4699 61.7734)" fill="white"/>
<circle cx="34.7785" cy="63.3515" r="1.30867" transform="rotate(-9 34.7785 63.3515)" fill="white"/>
<circle cx="27.174" cy="72.5058" r="1.30867" transform="rotate(-9 27.174 72.5058)" fill="white"/>
<circle cx="40.7717" cy="124.898" r="1.30867" transform="rotate(-9 40.7717 124.898)" fill="white"/>
<circle cx="74.2971" cy="116.275" r="1.30867" transform="rotate(-9 74.2971 116.275)" fill="white"/>
<circle cx="84.8742" cy="111.949" r="1.30867" transform="rotate(-9 84.8742 111.949)" fill="white"/>
<circle cx="70.5783" cy="92.7929" r="1.30867" transform="rotate(-9 70.5783 92.7929)" fill="white"/>
<circle cx="75.5422" cy="86.4863" r="1.30867" transform="rotate(-9 75.5422 86.4863)" fill="white"/>
<circle cx="67.2473" cy="74.5507" r="1.30867" transform="rotate(-9 67.2473 74.5507)" fill="white"/>
<circle cx="68.5363" cy="65.955" r="1.30867" transform="rotate(-9 68.5363 65.955)" fill="white"/>
<circle cx="73.3498" cy="55.9179" r="1.30867" transform="rotate(-9 73.3498 55.9179)" fill="white"/>
<circle cx="77.5627" cy="67.1757" r="1.30867" transform="rotate(-9 77.5627 67.1757)" fill="white"/>
<circle cx="62.8117" cy="117.652" r="1.30867" transform="rotate(-9 62.8117 117.652)" fill="white"/>
<circle cx="54.2561" cy="129.166" r="1.30867" transform="rotate(-9 54.2561 129.166)" fill="white"/>
<circle cx="80.5598" cy="122.35" r="1.30867" transform="rotate(-9 80.5598 122.35)" fill="white"/>
<circle cx="29.7297" cy="129.076" r="1.30867" transform="rotate(-9 29.7297 129.076)" fill="white"/>
<circle cx="20.8606" cy="126.064" r="1.30867" transform="rotate(-9 20.8606 126.064)" fill="white"/>
<circle cx="37.3508" cy="131.182" r="1.30867" transform="rotate(-9 37.3508 131.182)" fill="white"/>
<circle cx="25.2014" cy="121.4" r="1.30867" transform="rotate(-9 25.2014 121.4)" fill="white"/>
<circle cx="46.4524" cy="29.7031" r="1.30867" transform="rotate(-9 46.4524 29.7031)" fill="white"/>
<circle cx="36.1936" cy="34.6406" r="1.30867" transform="rotate(-9 36.1936 34.6406)" fill="white"/>
<circle cx="8.06369" cy="41.0839" r="1.30867" transform="rotate(-9 8.06369 41.0839)" fill="white"/>
<circle cx="12.7121" cy="38.3593" r="1.30867" transform="rotate(-9 12.7121 38.3593)" fill="white"/>
<circle cx="16.8117" cy="76.7968" r="1.30867" transform="rotate(-9 16.8117 76.7968)" fill="white"/>
<circle cx="23.5158" cy="81.4765" r="1.30867" transform="rotate(-9 23.5158 81.4765)" fill="white" fill-opacity="0.5"/>
<circle cx="24.926" cy="66.6796" r="1.30867" transform="rotate(-9 24.926 66.6796)" fill="white" fill-opacity="0.5"/>
<circle cx="31.2141" cy="56.1874" r="1.30867" transform="rotate(-9 31.2141 56.1874)" fill="white" fill-opacity="0.5"/>
<circle cx="43.5041" cy="52.916" r="1.30867" transform="rotate(-9 43.5041 52.916)" fill="white" fill-opacity="0.5"/>
<circle cx="49.342" cy="49.3417" r="1.30867" transform="rotate(-9 49.342 49.3417)" fill="white" fill-opacity="0.5"/>
<circle cx="34.1916" cy="47.1035" r="1.30867" transform="rotate(-9 34.1916 47.1035)" fill="white" fill-opacity="0.5"/>
<circle cx="31.0227" cy="35.4589" r="1.30867" transform="rotate(-9 31.0227 35.4589)" fill="white" fill-opacity="0.5"/>
<circle cx="58.1447" cy="33.8144" r="1.30867" transform="rotate(-9 58.1447 33.8144)" fill="white" fill-opacity="0.5"/>
<circle cx="68.385" cy="58.0292" r="1.30867" transform="rotate(-9 68.385 58.0292)" fill="white" fill-opacity="0.5"/>
<circle cx="77.093" cy="80.9414" r="1.30867" transform="rotate(-9 77.093 80.9414)" fill="white" fill-opacity="0.5"/>
<circle cx="80.4836" cy="105.137" r="1.30867" transform="rotate(-9 80.4836 105.137)" fill="white" fill-opacity="0.5"/>
<circle cx="73.3078" cy="110.027" r="1.30867" transform="rotate(-9 73.3078 110.027)" fill="white" fill-opacity="0.5"/>
<circle cx="69.8332" cy="122.945" r="1.30867" transform="rotate(-9 69.8332 122.945)" fill="white" fill-opacity="0.5"/>
<circle cx="53.6379" cy="116.896" r="1.30867" transform="rotate(-9 53.6379 116.896)" fill="white" fill-opacity="0.5"/>
<circle cx="44.1633" cy="126.789" r="1.30867" transform="rotate(-9 44.1633 126.789)" fill="white" fill-opacity="0.5"/>
<circle cx="57.759" cy="126.182" r="1.30867" transform="rotate(-9 57.759 126.182)" fill="white" fill-opacity="0.5"/>
<circle cx="51.01" cy="122.613" r="1.30867" transform="rotate(-9 51.01 122.613)" fill="white" fill-opacity="0.5"/>
<circle cx="33.0617" cy="125.016" r="1.30867" transform="rotate(-9 33.0617 125.016)" fill="white" fill-opacity="0.5"/>
<circle cx="45.383" cy="117.764" r="1.30867" transform="rotate(-9 45.383 117.764)" fill="white" fill-opacity="0.5"/>
<circle cx="21.4826" cy="97.9199" r="1.30867" transform="rotate(-9 21.4826 97.9199)" fill="white" fill-opacity="0.5"/>
<circle cx="61.1506" cy="105.769" r="1.30867" transform="rotate(-9 61.1506 105.769)" fill="white" fill-opacity="0.5"/>
<circle cx="50.7541" cy="109.846" r="1.30867" transform="rotate(-9 50.7541 109.846)" fill="white" fill-opacity="0.5"/>
</g>
<g filter="url(#filter4_f_40000647_59493)">
<mask id="path-71-outside-4_40000647_59493" maskUnits="userSpaceOnUse" x="72.8143" y="88.5365" width="13.7295" height="13.7295" fill="black">
<rect fill="white" x="72.8143" y="88.5365" width="13.7295" height="13.7295"/>
<path fill-rule="evenodd" clip-rule="evenodd" d="M79.9211 94.8317L79.0879 91.4449L79.3421 94.9235L77.4223 93.7619L79.1202 95.2285L75.7338 96.0616L79.2122 95.8074L78.0504 97.7273L79.5172 96.0292L80.3504 99.4157L80.0962 95.9377L82.0158 97.0992L80.3177 95.6323L83.7045 94.7991L80.2263 95.0533L81.3878 93.1338L79.9211 94.8317Z"/>
</mask>
<path fill-rule="evenodd" clip-rule="evenodd" d="M79.9211 94.8317L79.0879 91.4449L79.3421 94.9235L77.4223 93.7619L79.1202 95.2285L75.7338 96.0616L79.2122 95.8074L78.0504 97.7273L79.5172 96.0292L80.3504 99.4157L80.0962 95.9377L82.0158 97.0992L80.3177 95.6323L83.7045 94.7991L80.2263 95.0533L81.3878 93.1338L79.9211 94.8317Z" fill="white"/>
<path d="M79.0879 91.4449L80.0748 91.2022C79.9486 90.6893 79.4506 90.3585 78.9289 90.4412C78.4073 90.5238 78.0358 90.9922 78.0743 91.519L79.0879 91.4449ZM79.9211 94.8317L78.9342 95.0745C79.025 95.4436 79.3142 95.7312 79.6839 95.8199C80.0535 95.9086 80.4417 95.7837 80.6902 95.496L79.9211 94.8317ZM79.3421 94.9235L78.8159 95.793C79.1412 95.9898 79.549 95.9887 79.8731 95.7901C80.1972 95.5915 80.3834 95.2286 80.3557 94.8495L79.3421 94.9235ZM77.4223 93.7619L77.9485 92.8924C77.4966 92.6189 76.9106 92.7372 76.6001 93.1645C76.2897 93.5918 76.3583 94.1857 76.758 94.5309L77.4223 93.7619ZM79.1202 95.2285L79.3629 96.2153C79.732 96.1245 80.0196 95.8353 80.1084 95.4657C80.1971 95.0961 80.0722 94.7079 79.7845 94.4594L79.1202 95.2285ZM75.7338 96.0616L75.491 95.0747C74.9781 95.2009 74.6474 95.6989 74.73 96.2205C74.8126 96.7422 75.2811 97.1136 75.8078 97.0751L75.7338 96.0616ZM79.2122 95.8074L80.0817 96.3336C80.2784 96.0083 80.2773 95.6005 80.0787 95.2764C79.8801 94.9523 79.5172 94.7661 79.1381 94.7938L79.2122 95.8074ZM78.0504 97.7273L77.1809 97.2011C76.9075 97.653 77.0257 98.239 77.453 98.5495C77.8803 98.8599 78.4742 98.7913 78.8195 98.3916L78.0504 97.7273ZM79.5172 96.0292L80.5041 95.7864C80.4133 95.4173 80.1241 95.1297 79.7545 95.041C79.3849 94.9523 78.9966 95.0772 78.7482 95.3649L79.5172 96.0292ZM80.3504 99.4157L79.3635 99.6585C79.4897 100.171 79.9877 100.502 80.5094 100.419C81.031 100.337 81.4024 99.8684 81.364 99.3417L80.3504 99.4157ZM80.0962 95.9377L80.6224 95.0682C80.2972 94.8714 79.8893 94.8725 79.5652 95.0711C79.2411 95.2697 79.055 95.6326 79.0827 96.0117L80.0962 95.9377ZM82.0158 97.0992L81.4897 97.9687C81.9416 98.2422 82.5276 98.1239 82.838 97.6966C83.1485 97.2693 83.0799 96.6754 82.6802 96.3301L82.0158 97.0992ZM80.3177 95.6323L80.0749 94.6455C79.7058 94.7363 79.4182 95.0255 79.3295 95.3951C79.2407 95.7647 79.3657 96.1529 79.6533 96.4014L80.3177 95.6323ZM83.7045 94.7991L83.9473 95.786C84.4602 95.6598 84.7909 95.1618 84.7083 94.6401C84.6257 94.1185 84.1572 93.747 83.6305 93.7855L83.7045 94.7991ZM80.2263 95.0533L79.3568 94.5271C79.16 94.8523 79.1611 95.2602 79.3597 95.5843C79.5583 95.9084 79.9212 96.0945 80.3003 96.0668L80.2263 95.0533ZM81.3878 93.1338L82.2573 93.66C82.5307 93.2081 82.4124 92.6221 81.9851 92.3116C81.5578 92.0012 80.9639 92.0698 80.6187 92.4695L81.3878 93.1338ZM78.1011 91.6877L78.9342 95.0745L80.908 94.5889L80.0748 91.2022L78.1011 91.6877ZM80.3557 94.8495L80.1015 91.3709L78.0743 91.519L78.3285 94.9976L80.3557 94.8495ZM76.8962 94.6314L78.8159 95.793L79.8682 94.0541L77.9485 92.8924L76.8962 94.6314ZM79.7845 94.4594L78.0867 92.9928L76.758 94.5309L78.4558 95.9975L79.7845 94.4594ZM75.9765 97.0484L79.3629 96.2153L78.8774 94.2416L75.491 95.0747L75.9765 97.0484ZM79.1381 94.7938L75.6597 95.048L75.8078 97.0751L79.2862 96.821L79.1381 94.7938ZM78.9199 98.2534L80.0817 96.3336L78.3427 95.2813L77.1809 97.2011L78.9199 98.2534ZM78.7482 95.3649L77.2813 97.0629L78.8195 98.3916L80.2863 96.6935L78.7482 95.3649ZM81.3372 99.1729L80.5041 95.7864L78.5304 96.272L79.3635 99.6585L81.3372 99.1729ZM79.0827 96.0117L79.3368 99.4898L81.364 99.3417L81.1098 95.8636L79.0827 96.0117ZM82.542 96.2297L80.6224 95.0682L79.5701 96.8071L81.4897 97.9687L82.542 96.2297ZM79.6533 96.4014L81.3515 97.8683L82.6802 96.3301L80.982 94.8632L79.6533 96.4014ZM83.4618 93.8122L80.0749 94.6455L80.5604 96.6192L83.9473 95.786L83.4618 93.8122ZM80.3003 96.0668L83.7786 95.8127L83.6305 93.7855L80.1522 94.0397L80.3003 96.0668ZM80.5183 92.6077L79.3568 94.5271L81.0958 95.5794L82.2573 93.66L80.5183 92.6077ZM80.6902 95.496L82.1568 93.7982L80.6187 92.4695L79.152 94.1673L80.6902 95.496Z" fill="url(#paint5_linear_40000647_59493)" mask="url(#path-71-outside-4_40000647_59493)"/>
</g>
<path fill-rule="evenodd" clip-rule="evenodd" d="M79.9211 94.8317L79.0879 91.4449L79.3421 94.9235L77.4223 93.7619L79.1202 95.2285L75.7338 96.0616L79.2122 95.8074L78.0504 97.7273L79.5172 96.0292L80.3504 99.4157L80.0962 95.9377L82.0158 97.0992L80.3177 95.6323L83.7045 94.7991L80.2263 95.0533L81.3878 93.1338L79.9211 94.8317Z" fill="white"/>
<g filter="url(#filter5_f_40000647_59493)">
<mask id="path-74-outside-5_40000647_59493" maskUnits="userSpaceOnUse" x="65.6464" y="98.559" width="8.38081" height="8.38081" fill="black">
<rect fill="white" x="65.6464" y="98.559" width="8.38081" height="8.38081"/>
<path fill-rule="evenodd" clip-rule="evenodd" d="M69.6093 103.082L68.7794 104.453L69.8269 103.241L70.0731 104.241L69.998 103.213L71.369 104.043L70.156 102.995L71.1574 102.749L70.1295 102.824L70.9589 101.453L69.9114 102.666L69.665 101.665L69.7402 102.693L68.3693 101.864L69.5815 102.911L68.5808 103.157L69.6093 103.082Z"/>
</mask>
<path fill-rule="evenodd" clip-rule="evenodd" d="M69.6093 103.082L68.7794 104.453L69.8269 103.241L70.0731 104.241L69.998 103.213L71.369 104.043L70.156 102.995L71.1574 102.749L70.1295 102.824L70.9589 101.453L69.9114 102.666L69.665 101.665L69.7402 102.693L68.3693 101.864L69.5815 102.911L68.5808 103.157L69.6093 103.082Z" fill="white"/>
<path d="M68.7794 104.453L68.3799 104.212C68.2543 104.419 68.3086 104.688 68.505 104.831C68.7013 104.974 68.9741 104.942 69.1328 104.758L68.7794 104.453ZM69.6093 103.082L70.0088 103.324C70.0992 103.174 70.0987 102.987 70.0074 102.838C69.9162 102.689 69.7494 102.603 69.5752 102.616L69.6093 103.082ZM69.8269 103.241L70.2804 103.129C70.2387 102.959 70.1058 102.827 69.936 102.787C69.7661 102.746 69.5878 102.803 69.4736 102.935L69.8269 103.241ZM70.0731 104.241L69.6197 104.353C69.6777 104.588 69.9065 104.74 70.1462 104.702C70.3859 104.665 70.5565 104.449 70.5388 104.207L70.0731 104.241ZM69.998 103.213L70.2398 102.814C70.0904 102.724 69.903 102.724 69.7541 102.815C69.6051 102.907 69.5196 103.073 69.5323 103.248L69.998 103.213ZM71.369 104.043L71.1273 104.443C71.3349 104.568 71.6041 104.514 71.7468 104.318C71.8894 104.121 71.8579 103.848 71.6743 103.69L71.369 104.043ZM70.156 102.995L70.0445 102.542C69.8749 102.584 69.7427 102.716 69.702 102.886C69.6612 103.056 69.7186 103.234 69.8508 103.349L70.156 102.995ZM71.1574 102.749L71.2689 103.202C71.5046 103.144 71.6566 102.916 71.6186 102.676C71.5806 102.436 71.3654 102.266 71.1234 102.283L71.1574 102.749ZM70.1295 102.824L69.73 102.582C69.6396 102.732 69.6401 102.919 69.7314 103.068C69.8227 103.217 69.9894 103.302 70.1636 103.29L70.1295 102.824ZM70.9589 101.453L71.3584 101.695C71.484 101.488 71.4297 101.218 71.2333 101.076C71.037 100.933 70.7641 100.965 70.6055 101.148L70.9589 101.453ZM69.9114 102.666L69.458 102.778C69.4997 102.947 69.6326 103.079 69.8024 103.12C69.9722 103.161 70.1506 103.103 70.2648 102.971L69.9114 102.666ZM69.665 101.665L70.1185 101.553C70.0605 101.317 69.8317 101.165 69.592 101.203C69.3523 101.241 69.1817 101.457 69.1993 101.699L69.665 101.665ZM69.7402 102.693L69.4984 103.093C69.6479 103.183 69.8353 103.183 69.9842 103.091C70.1331 103 70.2186 102.833 70.2059 102.659L69.7402 102.693ZM68.3693 101.864L68.611 101.464C68.4034 101.339 68.1341 101.393 67.9915 101.589C67.8489 101.786 67.8804 102.058 68.064 102.217L68.3693 101.864ZM69.5815 102.911L69.6931 103.364C69.8627 103.323 69.9948 103.19 70.0356 103.02C70.0763 102.85 70.0189 102.672 69.8868 102.557L69.5815 102.911ZM68.5808 103.157L68.4692 102.704C68.2336 102.762 68.0816 102.99 68.1196 103.23C68.1575 103.47 68.3728 103.64 68.6148 103.623L68.5808 103.157ZM69.1789 104.695L70.0088 103.324L69.2098 102.84L68.3799 104.212L69.1789 104.695ZM69.4736 102.935L68.4261 104.148L69.1328 104.758L70.1803 103.546L69.4736 102.935ZM70.5266 104.13L70.2804 103.129L69.3735 103.352L69.6197 104.353L70.5266 104.13ZM69.5323 103.248L69.6074 104.275L70.5388 104.207L70.4637 103.179L69.5323 103.248ZM71.6108 103.644L70.2398 102.814L69.7563 103.613L71.1273 104.443L71.6108 103.644ZM69.8508 103.349L71.0638 104.396L71.6743 103.69L70.4612 102.642L69.8508 103.349ZM71.0459 102.295L70.0445 102.542L70.2676 103.449L71.2689 103.202L71.0459 102.295ZM70.1636 103.29L71.1914 103.215L71.1234 102.283L70.0955 102.358L70.1636 103.29ZM70.5594 101.212L69.73 102.582L70.529 103.066L71.3584 101.695L70.5594 101.212ZM70.2648 102.971L71.3122 101.759L70.6055 101.148L69.558 102.361L70.2648 102.971ZM69.2116 101.776L69.458 102.778L70.3648 102.555L70.1185 101.553L69.2116 101.776ZM70.2059 102.659L70.1307 101.631L69.1993 101.699L69.2745 102.727L70.2059 102.659ZM68.1275 102.263L69.4984 103.093L69.9819 102.294L68.611 101.464L68.1275 102.263ZM69.8868 102.557L68.6745 101.51L68.064 102.217L69.2763 103.264L69.8868 102.557ZM68.6923 103.61L69.6931 103.364L69.47 102.457L68.4692 102.704L68.6923 103.61ZM69.5752 102.616L68.5467 102.691L68.6148 103.623L69.6433 103.548L69.5752 102.616Z" fill="url(#paint6_linear_40000647_59493)" mask="url(#path-74-outside-5_40000647_59493)"/>
</g>
<path fill-rule="evenodd" clip-rule="evenodd" d="M69.6093 103.082L68.7794 104.453L69.8269 103.241L70.0731 104.241L69.998 103.213L71.369 104.043L70.156 102.995L71.1574 102.749L70.1295 102.824L70.9589 101.453L69.9114 102.666L69.665 101.665L69.7402 102.693L68.3693 101.864L69.5815 102.911L68.5808 103.157L69.6093 103.082Z" fill="white"/>
<g filter="url(#filter6_f_40000647_59493)">
<mask id="path-77-outside-6_40000647_59493" maskUnits="userSpaceOnUse" x="26.7084" y="115.455" width="6.86474" height="6.86474" fill="black">
<rect fill="white" x="26.7084" y="115.455" width="6.86474" height="6.86474"/>
<path fill-rule="evenodd" clip-rule="evenodd" d="M30.0665 118.491L29.6837 116.935L29.8004 118.533L28.9185 117.999L29.6985 118.673L28.1426 119.056L29.7409 118.939L29.2071 119.821L29.8809 119.041L30.2637 120.597L30.1469 118.999L31.029 119.533L30.2487 118.859L31.8048 118.476L30.2068 118.592L30.7404 117.711L30.0665 118.491Z"/>
</mask>
<path fill-rule="evenodd" clip-rule="evenodd" d="M30.0665 118.491L29.6837 116.935L29.8004 118.533L28.9185 117.999L29.6985 118.673L28.1426 119.056L29.7409 118.939L29.2071 119.821L29.8809 119.041L30.2637 120.597L30.1469 118.999L31.029 119.533L30.2487 118.859L31.8048 118.476L30.2068 118.592L30.7404 117.711L30.0665 118.491Z" fill="white"/>
<path d="M29.6837 116.935L30.1371 116.823C30.0791 116.587 29.8503 116.435 29.6106 116.473C29.3709 116.511 29.2003 116.727 29.218 116.969L29.6837 116.935ZM30.0665 118.491L29.6131 118.602C29.6548 118.772 29.7877 118.904 29.9575 118.945C30.1273 118.986 30.3057 118.928 30.4199 118.796L30.0665 118.491ZM29.8004 118.533L29.5587 118.932C29.7081 119.023 29.8955 119.022 30.0444 118.931C30.1933 118.84 30.2789 118.673 30.2661 118.499L29.8004 118.533ZM28.9185 117.999L29.1602 117.6C28.9526 117.474 28.6834 117.528 28.5407 117.725C28.3981 117.921 28.4296 118.194 28.6133 118.352L28.9185 117.999ZM29.6985 118.673L29.8101 119.126C29.9797 119.085 30.1118 118.952 30.1526 118.782C30.1933 118.612 30.1359 118.434 30.0038 118.32L29.6985 118.673ZM28.1426 119.056L28.031 118.602C27.7954 118.66 27.6434 118.889 27.6814 119.129C27.7193 119.368 27.9346 119.539 28.1766 119.521L28.1426 119.056ZM29.7409 118.939L30.1404 119.181C30.2308 119.031 30.2303 118.844 30.139 118.695C30.0477 118.546 29.881 118.461 29.7068 118.473L29.7409 118.939ZM29.2071 119.821L28.8076 119.579C28.6819 119.787 28.7363 120.056 28.9326 120.199C29.1289 120.341 29.4018 120.31 29.5604 120.126L29.2071 119.821ZM29.8809 119.041L30.3344 118.929C30.2926 118.76 30.1598 118.628 29.9899 118.587C29.8201 118.546 29.6417 118.604 29.5276 118.736L29.8809 119.041ZM30.2637 120.597L29.8103 120.708C29.8683 120.944 30.0971 121.096 30.3368 121.058C30.5764 121.02 30.7471 120.805 30.7294 120.563L30.2637 120.597ZM30.1469 118.999L30.3887 118.599C30.2393 118.509 30.0519 118.509 29.903 118.601C29.7541 118.692 29.6685 118.859 29.6812 119.033L30.1469 118.999ZM31.029 119.533L30.7873 119.932C30.9949 120.058 31.2641 120.003 31.4068 119.807C31.5494 119.611 31.5179 119.338 31.3343 119.179L31.029 119.533ZM30.2487 118.859L30.1372 118.405C29.9676 118.447 29.8355 118.58 29.7947 118.749C29.7539 118.919 29.8113 119.098 29.9435 119.212L30.2487 118.859ZM31.8048 118.476L31.9164 118.929C32.152 118.871 32.304 118.642 32.266 118.403C32.228 118.163 32.0128 117.992 31.7708 118.01L31.8048 118.476ZM30.2068 118.592L29.8073 118.351C29.7169 118.5 29.7174 118.688 29.8087 118.836C29.8999 118.985 30.0666 119.071 30.2408 119.058L30.2068 118.592ZM30.7404 117.711L31.1399 117.952C31.2656 117.745 31.2112 117.475 31.0149 117.333C30.8186 117.19 30.5457 117.222 30.3871 117.405L30.7404 117.711ZM29.2302 117.046L29.6131 118.602L30.5199 118.379L30.1371 116.823L29.2302 117.046ZM30.2661 118.499L30.1494 116.901L29.218 116.969L29.3347 118.567L30.2661 118.499ZM28.6768 118.399L29.5587 118.932L30.0422 118.133L29.1602 117.6L28.6768 118.399ZM30.0038 118.32L29.2237 117.646L28.6133 118.352L29.3933 119.026L30.0038 118.32ZM28.2541 119.509L29.8101 119.126L29.587 118.22L28.031 118.602L28.2541 119.509ZM29.7068 118.473L28.1085 118.59L28.1766 119.521L29.7749 119.405L29.7068 118.473ZM29.6066 120.063L30.1404 119.181L29.3414 118.697L28.8076 119.579L29.6066 120.063ZM29.5276 118.736L28.8537 119.516L29.5604 120.126L30.2343 119.346L29.5276 118.736ZM30.7171 120.485L30.3344 118.929L29.4275 119.153L29.8103 120.708L30.7171 120.485ZM29.6812 119.033L29.798 120.631L30.7294 120.563L30.6126 118.965L29.6812 119.033ZM31.2708 119.133L30.3887 118.599L29.9052 119.398L30.7873 119.932L31.2708 119.133ZM29.9435 119.212L30.7238 119.886L31.3343 119.179L30.554 118.505L29.9435 119.212ZM31.6933 118.022L30.1372 118.405L30.3603 119.312L31.9164 118.929L31.6933 118.022ZM30.2408 119.058L31.8388 118.941L31.7708 118.01L30.1728 118.127L30.2408 119.058ZM30.341 117.469L29.8073 118.351L30.6063 118.834L31.1399 117.952L30.341 117.469ZM30.4199 118.796L31.0938 118.016L30.3871 117.405L29.7131 118.186L30.4199 118.796Z" fill="url(#paint7_linear_40000647_59493)" mask="url(#path-77-outside-6_40000647_59493)"/>
</g>
<path fill-rule="evenodd" clip-rule="evenodd" d="M30.0665 118.491L29.6837 116.935L29.8004 118.533L28.9185 117.999L29.6985 118.673L28.1426 119.056L29.7409 118.939L29.2071 119.821L29.8809 119.041L30.2637 120.597L30.1469 118.999L31.029 119.533L30.2487 118.859L31.8048 118.476L30.2068 118.592L30.7404 117.711L30.0665 118.491Z" fill="white"/>
<g filter="url(#filter7_f_40000647_59493)">
<mask id="path-80-outside-7_40000647_59493" maskUnits="userSpaceOnUse" x="47.7826" y="54.7028" width="6.86474" height="6.86474" fill="black">
<rect fill="white" x="47.7826" y="54.7028" width="6.86474" height="6.86474"/>
<path fill-rule="evenodd" clip-rule="evenodd" d="M51.1407 57.7388L50.7579 56.1826L50.8747 57.7809L49.9927 57.2472L50.7728 57.921L49.2168 58.3038L50.8151 58.187L50.2813 59.0691L50.9552 58.289L51.3379 59.8449L51.2212 58.2468L52.1032 58.7806L51.323 58.1065L52.879 57.7237L51.281 57.8405L51.8147 56.9586L51.1407 57.7388Z"/>
</mask>
<path fill-rule="evenodd" clip-rule="evenodd" d="M51.1407 57.7388L50.7579 56.1826L50.8747 57.7809L49.9927 57.2472L50.7728 57.921L49.2168 58.3038L50.8151 58.187L50.2813 59.0691L50.9552 58.289L51.3379 59.8449L51.2212 58.2468L52.1032 58.7806L51.323 58.1065L52.879 57.7237L51.281 57.8405L51.8147 56.9586L51.1407 57.7388Z" fill="white"/>
<path d="M50.7579 56.1826L51.2113 56.0711C51.1533 55.8354 50.9245 55.6835 50.6848 55.7214C50.4452 55.7594 50.2745 55.9746 50.2922 56.2167L50.7579 56.1826ZM51.1407 57.7388L50.6873 57.8504C50.729 58.0199 50.8619 58.1521 51.0317 58.1929C51.2015 58.2336 51.3799 58.1762 51.4941 58.044L51.1407 57.7388ZM50.8747 57.7809L50.6329 58.1804C50.7823 58.2708 50.9697 58.2703 51.1186 58.179C51.2675 58.0877 51.3531 57.921 51.3404 57.7468L50.8747 57.7809ZM49.9927 57.2472L50.2345 56.8477C50.0268 56.7221 49.7576 56.7764 49.615 56.9727C49.4723 57.169 49.5038 57.4419 49.6875 57.6005L49.9927 57.2472ZM50.7728 57.921L50.8843 58.3744C51.0539 58.3327 51.186 58.1998 51.2268 58.03C51.2676 57.8602 51.2102 57.6818 51.078 57.5676L50.7728 57.921ZM49.2168 58.3038L49.1052 57.8504C48.8696 57.9083 48.7176 58.1371 48.7556 58.3768C48.7935 58.6165 49.0088 58.7872 49.2508 58.7695L49.2168 58.3038ZM50.8151 58.187L51.2146 58.4287C51.305 58.2793 51.3045 58.0919 51.2132 57.943C51.122 57.7941 50.9552 57.7086 50.7811 57.7213L50.8151 58.187ZM50.2813 59.0691L49.8818 58.8274C49.7562 59.035 49.8105 59.3043 50.0068 59.4469C50.2031 59.5895 50.476 59.558 50.6346 59.3744L50.2813 59.0691ZM50.9552 58.289L51.4086 58.1775C51.3669 58.0079 51.234 57.8757 51.0642 57.835C50.8943 57.7942 50.716 57.8516 50.6018 57.9838L50.9552 58.289ZM51.3379 59.8449L50.8845 59.9564C50.9425 60.1921 51.1713 60.344 51.411 60.3061C51.6507 60.2681 51.8213 60.0529 51.8036 59.8109L51.3379 59.8449ZM51.2212 58.2468L51.4629 57.8473C51.3135 57.7569 51.1261 57.7574 50.9772 57.8487C50.8283 57.9399 50.7427 58.1066 50.7555 58.2808L51.2212 58.2468ZM52.1032 58.7806L51.8615 59.1801C52.0691 59.3057 52.3384 59.2514 52.481 59.055C52.6236 58.8587 52.5921 58.5858 52.4085 58.4272L52.1032 58.7806ZM51.323 58.1065L51.2114 57.6531C51.0418 57.6948 50.9097 57.8277 50.8689 57.9975C50.8281 58.1674 50.8856 58.3457 51.0177 58.4599L51.323 58.1065ZM52.879 57.7237L52.9906 58.1772C53.2262 58.1192 53.3782 57.8904 53.3402 57.6507C53.3023 57.411 53.087 57.2404 52.845 57.258L52.879 57.7237ZM51.281 57.8405L50.8815 57.5988C50.7911 57.7482 50.7916 57.9356 50.8829 58.0845C50.9741 58.2334 51.1409 58.3189 51.315 58.3062L51.281 57.8405ZM51.8147 56.9586L52.2142 57.2004C52.3398 56.9927 52.2855 56.7235 52.0891 56.5808C51.8928 56.4382 51.6199 56.4697 51.4613 56.6534L51.8147 56.9586ZM50.3045 56.2942L50.6873 57.8504L51.5941 57.6273L51.2113 56.0711L50.3045 56.2942ZM51.3404 57.7468L51.2236 56.1486L50.2922 56.2167L50.409 57.8149L51.3404 57.7468ZM49.751 57.6467L50.6329 58.1804L51.1164 57.3814L50.2345 56.8477L49.751 57.6467ZM51.078 57.5676L50.298 56.8938L49.6875 57.6005L50.4675 58.2744L51.078 57.5676ZM49.3283 58.7572L50.8843 58.3744L50.6612 57.4676L49.1052 57.8504L49.3283 58.7572ZM50.7811 57.7213L49.1828 57.8381L49.2508 58.7695L50.8491 58.6527L50.7811 57.7213ZM50.6808 59.3109L51.2146 58.4287L50.4156 57.9453L49.8818 58.8274L50.6808 59.3109ZM50.6018 57.9838L49.9279 58.7639L50.6346 59.3744L51.3085 58.5943L50.6018 57.9838ZM51.7913 59.7333L51.4086 58.1775L50.5017 58.4006L50.8845 59.9564L51.7913 59.7333ZM50.7555 58.2808L50.8722 59.8789L51.8036 59.8109L51.6869 58.2128L50.7555 58.2808ZM52.345 58.3811L51.4629 57.8473L50.9794 58.6463L51.8615 59.1801L52.345 58.3811ZM51.0177 58.4599L51.798 59.1339L52.4085 58.4272L51.6282 57.7532L51.0177 58.4599ZM52.7675 57.2703L51.2114 57.6531L51.4345 58.56L52.9906 58.1772L52.7675 57.2703ZM51.315 58.3062L52.9131 58.1894L52.845 57.258L51.247 57.3748L51.315 58.3062ZM51.4152 56.7169L50.8815 57.5988L51.6805 58.0822L52.2142 57.2004L51.4152 56.7169ZM51.4941 58.044L52.168 57.2639L51.4613 56.6534L50.7874 57.4336L51.4941 58.044Z" fill="url(#paint8_linear_40000647_59493)" mask="url(#path-80-outside-7_40000647_59493)"/>
</g>
<path fill-rule="evenodd" clip-rule="evenodd" d="M51.1407 57.7388L50.7579 56.1826L50.8747 57.7809L49.9927 57.2472L50.7728 57.921L49.2168 58.3038L50.8151 58.187L50.2813 59.0691L50.9552 58.289L51.3379 59.8449L51.2212 58.2468L52.1032 58.7806L51.323 58.1065L52.879 57.7237L51.281 57.8405L51.8147 56.9586L51.1407 57.7388Z" fill="white"/>
<g filter="url(#filter8_f_40000647_59493)">
<mask id="path-83-outside-8_40000647_59493" maskUnits="userSpaceOnUse" x="60.3491" y="117.054" width="8.00886" height="8.00886" fill="black">
<rect fill="white" x="60.3491" y="117.054" width="8.00886" height="8.00886"/>
<path fill-rule="evenodd" clip-rule="evenodd" d="M64.3488 121.498L64.8442 123.512L64.6931 121.444L65.8345 122.134L64.825 121.262L66.8385 120.767L64.7703 120.918L65.4611 119.777L64.5889 120.786L64.0935 118.773L64.2446 120.841L63.1033 120.15L64.1129 121.022L62.0992 121.518L64.1674 121.367L63.4767 122.508L64.3488 121.498Z"/>
</mask>
<path fill-rule="evenodd" clip-rule="evenodd" d="M64.3488 121.498L64.8442 123.512L64.6931 121.444L65.8345 122.134L64.825 121.262L66.8385 120.767L64.7703 120.918L65.4611 119.777L64.5889 120.786L64.0935 118.773L64.2446 120.841L63.1033 120.15L64.1129 121.022L62.0992 121.518L64.1674 121.367L63.4767 122.508L64.3488 121.498Z" fill="white"/>
<path d="M64.8442 123.512L64.2574 123.656C64.3324 123.961 64.6285 124.158 64.9387 124.109C65.2489 124.06 65.4697 123.781 65.4469 123.468L64.8442 123.512ZM64.3488 121.498L64.9356 121.354C64.8816 121.135 64.7096 120.964 64.4898 120.911C64.2701 120.858 64.0392 120.932 63.8915 121.103L64.3488 121.498ZM64.6931 121.444L65.0059 120.927C64.8125 120.81 64.57 120.81 64.3773 120.929C64.1846 121.047 64.0739 121.262 64.0904 121.488L64.6931 121.444ZM65.8345 122.134L65.5217 122.651C65.7904 122.814 66.1388 122.744 66.3234 122.49C66.508 122.236 66.4672 121.882 66.2295 121.677L65.8345 122.134ZM64.825 121.262L64.6806 120.676C64.4611 120.73 64.2901 120.902 64.2374 121.121C64.1846 121.341 64.2589 121.572 64.4299 121.72L64.825 121.262ZM66.8385 120.767L66.9829 121.354C67.2879 121.279 67.4845 120.983 67.4354 120.672C67.3863 120.362 67.1077 120.141 66.7945 120.164L66.8385 120.767ZM64.7703 120.918L64.2533 120.605C64.1363 120.799 64.137 121.041 64.2551 121.234C64.3732 121.427 64.589 121.537 64.8144 121.521L64.7703 120.918ZM65.4611 119.777L65.9781 120.089C66.1407 119.821 66.0703 119.472 65.8163 119.288C65.5622 119.103 65.2091 119.144 65.0038 119.382L65.4611 119.777ZM64.5889 120.786L64.0021 120.931C64.0561 121.15 64.2281 121.321 64.4478 121.374C64.6676 121.427 64.8985 121.352 65.0462 121.181L64.5889 120.786ZM64.0935 118.773L64.6803 118.628C64.6053 118.323 64.3092 118.127 63.999 118.176C63.6888 118.225 63.468 118.503 63.4909 118.817L64.0935 118.773ZM64.2446 120.841L63.9318 121.358C64.1252 121.475 64.3677 121.474 64.5604 121.356C64.7531 121.238 64.8638 121.022 64.8473 120.797L64.2446 120.841ZM63.1033 120.15L63.4161 119.633C63.1474 119.471 62.799 119.541 62.6144 119.795C62.4298 120.049 62.4706 120.402 62.7082 120.607L63.1033 120.15ZM64.1129 121.022L64.2573 121.609C64.4768 121.555 64.6478 121.383 64.7005 121.163C64.7533 120.944 64.679 120.713 64.5079 120.565L64.1129 121.022ZM62.0992 121.518L61.9548 120.931C61.6499 121.006 61.4532 121.302 61.5023 121.612C61.5515 121.922 61.83 122.143 62.1432 122.12L62.0992 121.518ZM64.1674 121.367L64.6843 121.679C64.8014 121.486 64.8007 121.244 64.6826 121.051C64.5645 120.858 64.3487 120.747 64.1233 120.764L64.1674 121.367ZM63.4767 122.508L62.9597 122.195C62.7971 122.464 62.8674 122.812 63.1215 122.997C63.3756 123.181 63.7287 123.141 63.934 122.903L63.4767 122.508ZM65.431 123.368L64.9356 121.354L63.762 121.643L64.2574 123.656L65.431 123.368ZM64.0904 121.488L64.2415 123.556L65.4469 123.468L65.2957 121.4L64.0904 121.488ZM66.1474 121.617L65.0059 120.927L64.3802 121.961L65.5217 122.651L66.1474 121.617ZM64.4299 121.72L65.4395 122.592L66.2295 121.677L65.22 120.805L64.4299 121.72ZM66.6942 120.18L64.6806 120.676L64.9693 121.849L66.9829 121.354L66.6942 120.18ZM64.8144 121.521L66.8826 121.37L66.7945 120.164L64.7263 120.315L64.8144 121.521ZM64.9441 119.464L64.2533 120.605L65.2873 121.231L65.9781 120.089L64.9441 119.464ZM65.0462 121.181L65.9184 120.172L65.0038 119.382L64.1316 120.391L65.0462 121.181ZM63.5067 118.917L64.0021 120.931L65.1757 120.642L64.6803 118.628L63.5067 118.917ZM64.8473 120.797L64.6962 118.729L63.4909 118.817L63.642 120.885L64.8473 120.797ZM62.7904 120.667L63.9318 121.358L64.5575 120.324L63.4161 119.633L62.7904 120.667ZM64.5079 120.565L63.4983 119.693L62.7082 120.607L63.7179 121.48L64.5079 120.565ZM62.2435 122.104L64.2573 121.609L63.9686 120.435L61.9548 120.931L62.2435 122.104ZM64.1233 120.764L62.0551 120.915L62.1432 122.12L64.2114 121.969L64.1233 120.764ZM63.9937 122.821L64.6843 121.679L63.6504 121.054L62.9597 122.195L63.9937 122.821ZM63.8915 121.103L63.0194 122.113L63.934 122.903L64.8061 121.893L63.8915 121.103Z" fill="url(#paint9_linear_40000647_59493)" mask="url(#path-83-outside-8_40000647_59493)"/>
</g>
<path fill-rule="evenodd" clip-rule="evenodd" d="M64.3488 121.498L64.8442 123.512L64.6931 121.444L65.8345 122.134L64.825 121.262L66.8385 120.767L64.7703 120.918L65.4611 119.777L64.5889 120.786L64.0935 118.773L64.2446 120.841L63.1033 120.15L64.1129 121.022L62.0992 121.518L64.1674 121.367L63.4767 122.508L64.3488 121.498Z" fill="white"/>
<path d="M32.5582 91.8837C30.4826 89.9187 31.5768 85.6873 31.6842 83.0237C31.9666 79.9795 31.139 79.5813 30.7028 76.8273C30.2666 74.0734 25.5804 68.9932 22.1909 66.5305C18.8014 64.0679 17.7312 61.7673 19.4968 59.5468C21.2624 57.3263 30.7151 64.6511 33.9052 66.9689C37.0954 69.2866 38.9069 68.4704 42.1858 66.8924C45.4646 65.3145 42.8336 57.615 42.3702 54.6889C41.9068 51.7629 40.9815 49.2629 43.853 48.4552C46.7245 47.6475 48.3314 54.4505 50.6897 60.4288C53.0481 66.4071 55.6043 69.1781 57.2811 70.8534C58.958 72.5286 58.5421 74.3589 58.4159 75.7904C58.2898 77.2219 59.0702 79.9213 59.6871 81.588C60.3039 83.2546 61.0384 84.5498 62.0812 86.6784C63.1241 88.8069 63.9575 88.4985 65.2083 89.7119C66.4591 90.9253 65.9887 92.4113 65.7808 93.3264C65.5728 94.2415 64.9303 95.7548 64.4327 97.0687C63.935 98.3826 63.2107 99.3795 63.0573 100.639C62.9039 101.898 61.3735 103.376 59.9965 103.594C58.6196 103.812 57.1523 104.574 55.3952 105.734C53.6382 106.895 49.3881 104.568 48.79 104.134C48.1918 103.699 40.0529 96.872 38.4579 95.7131C36.8628 94.5542 34.6338 93.8486 32.5582 91.8837Z" fill="#414141" stroke="url(#paint10_linear_40000647_59493)" stroke-width="0.54584"/>
<path d="M44.5605 98.079C42.7443 97.9522 41.2751 96.5269 38.1459 95.0883L38.1886 95.3579L44.6965 100.683L47.5281 102.859L49.6005 104.603L52.1266 105.723L54.9289 105.97L56.7091 104.997L58.7588 103.982L61.0074 103.349L62.5888 101.994L63.1626 100.383L62.6235 100.468L63.623 98.9283L65.7276 93.8975L65.9959 91.2299L65.2006 89.698L63.9516 88.7905L62.6599 87.6135L61.4456 85.1808L59.6776 81.8686L58.7463 77.7331L58.4688 75.981L58.5169 72.7956L57.743 71.3984L55.0742 68.5053L52.5682 64.8955L50.7922 59.7885L47.5324 52.2915L46.1193 49.4758C44.2311 47.1498 41.674 49.3233 41.913 50.8328C42.2119 52.7197 42.4321 53.2375 42.3546 54.4932C42.2772 55.7489 43.8971 60.7425 44.1319 62.225C44.3667 63.7076 43.7502 65.0487 43.3391 65.9427L43.3391 65.9428C42.5981 67.5546 40.474 67.9163 39.8001 68.0231C39.261 68.1085 37.5302 68.5208 36.7215 68.6488C37.0644 68.7787 37.8128 69.0839 38.0626 69.2654C38.3748 69.4923 41.9151 70.0368 43.8874 70.2771C45.8597 70.5173 51.0735 69.4153 52.4359 70.1666C53.7984 70.9179 56.5739 74.485 56.9155 76.6415C57.257 78.798 59.0184 82.9401 59.3239 83.997C59.6295 85.0539 60.4674 86.8555 62.0647 89.0894C63.662 91.3233 63.4845 91.0751 62.5984 92.4589C61.7123 93.8427 60.5633 94.4391 59.3863 95.7308C58.2092 97.0226 56.6974 95.3278 55.1721 95.293C53.6468 95.2583 53.5053 96.1096 52.6473 96.7982C51.7892 97.4867 51.2153 99.0974 49.9383 98.8852C48.6612 98.673 46.3767 98.2058 44.5605 98.079Z" fill="#333333"/>
<path d="M32.5582 91.8837C30.4826 89.9187 31.5768 85.6873 31.6842 83.0237C31.9666 79.9795 31.139 79.5813 30.7028 76.8273C30.2666 74.0734 25.5804 68.9932 22.1909 66.5305C18.8014 64.0679 17.7312 61.7673 19.4968 59.5468C21.2624 57.3263 30.7151 64.6511 33.9052 66.9689C37.0954 69.2866 38.9069 68.4704 42.1858 66.8924C45.4646 65.3145 42.8336 57.615 42.3702 54.6889C41.9068 51.7629 40.9815 49.2629 43.853 48.4552C46.7245 47.6475 48.3314 54.4505 50.6897 60.4288C53.0481 66.4071 55.6043 69.1781 57.2811 70.8534C58.9579 72.5286 58.5421 74.3589 58.4159 75.7904C58.2898 77.2218 59.0702 79.9213 59.6871 81.588C60.3039 83.2546 61.0384 84.5498 62.0812 86.6783C63.1241 88.8069 63.9575 88.4985 65.2083 89.7119C66.4591 90.9253 65.9887 92.4113 65.7808 93.3264C65.5728 94.2415 64.9303 95.7548 64.4327 97.0687C63.935 98.3826 63.2107 99.3795 63.0573 100.639C62.9039 101.898 61.3735 103.376 59.9965 103.594C58.6196 103.812 57.1523 104.574 55.3952 105.734C53.6382 106.895 49.3881 104.568 48.79 104.134C48.1918 103.699 40.0529 96.872 38.4579 95.7131C36.8628 94.5542 34.6338 93.8486 32.5582 91.8837Z" stroke="url(#paint11_linear_40000647_59493)" stroke-width="0.54584"/>
<path d="M35.6592 67.9258C36.6288 68.478 37.653 69.3744 38.3415 69.2653C39.03 69.1563 41.4856 70.1789 42.8813 71.1929" stroke="url(#paint12_linear_40000647_59493)" stroke-width="0.54584"/>
<path d="M47.9962 101.26C48.187 102.465 48.9659 101.812 49.2556 101.414L49.5602 100.836C49.2308 100.408 48.8667 99.9228 48.4121 99.4299C48.1481 99.1438 47.8061 98.8399 47.4172 98.5289C47.5466 99.0377 47.8435 100.296 47.9962 101.26Z" fill="white"/>
<path d="M49.6533 80.5308C49.9856 80.7722 50.6539 81.5015 50.6689 82.4872M49.2134 88.8931C49.7286 88.1058 50.7158 86.0086 50.5427 83.9187M56.0234 82.8742C55.8842 82.367 55.671 81.0951 55.9314 80.0658M52.3249 97.3987C52.7322 96.6284 53.6014 95.4321 54.462 95.2958C55.3226 95.1595 55.8389 95.0777 56.4098 95.3402C56.9807 95.6026 57.6965 95.6657 58.3849 95.5567C58.9357 95.4694 59.4961 95.1454 59.7074 94.9943M54.5181 98.9921C54.6056 98.8018 54.8838 98.4049 55.2969 98.3395C55.8133 98.2577 56.3842 98.5201 56.5835 98.665M62.9964 95.7085L64.445 93.7147M37.2825 90.4299C37.4733 91.6348 37.6283 93.7275 39.0871 94.0257C40.5458 94.324 41.2343 94.215 42.63 95.229C43.7374 96.0336 45.9231 97.3339 47.4172 98.5289M63.5144 98.9788C62.8173 100.148 61.8033 101.543 60.8251 102.051C59.8469 102.559 58.4785 101.717 57.364 101.364C56.2495 101.012 55.4706 101.664 54.61 101.801C53.7494 101.937 52.427 102.499 51.3397 102.319C50.6392 102.202 50.1567 101.612 49.5602 100.836M47.4172 98.5289C47.8061 98.8399 48.1481 99.1438 48.4121 99.4299C48.8667 99.9228 49.2308 100.408 49.5602 100.836M47.4172 98.5289C47.5466 99.0377 47.8435 100.296 47.9962 101.26C48.187 102.465 48.9659 101.812 49.2556 101.414L49.5602 100.836" stroke="url(#paint13_linear_40000647_59493)" stroke-width="0.54584"/>
<path d="M38.1846 81.6406L39.0842 87.3206C40.1084 88.217 45.6077 88.4047 47.8453 88.0503C44.8283 84.1524 40.1477 82.1531 38.1846 81.6406Z" fill="white" stroke="url(#paint14_linear_40000647_59493)" stroke-width="0.54584"/>
<path d="M43.6326 88.1897C42.1971 87.1467 41.6678 84.3252 41.5827 83.0448C44.7796 84.5146 47.0898 86.9952 47.8453 88.0518C46.737 88.1097 44.3429 88.2184 43.6326 88.1897Z" fill="#A64C4D" stroke="black" stroke-width="0.54584"/>
<circle cx="43.7401" cy="85.5251" r="0.598413" transform="rotate(-9 43.7401 85.5251)" fill="white" stroke="white" stroke-width="0.54584"/>
<circle cx="44.3926" cy="86.3047" r="0.77268" transform="rotate(-9 44.3926 86.3047)" fill="black" stroke="black" stroke-width="0.54584"/>
<path d="M38.1846 81.6406L39.0842 87.3206C40.1084 88.217 45.6077 88.4047 47.8453 88.0503C44.8283 84.1524 40.1477 82.1531 38.1846 81.6406Z" stroke="url(#paint15_linear_40000647_59493)" stroke-width="0.54584"/>
<path d="M57.0287 82.5381C56.9783 83.1107 57.3348 84.8421 57.5194 85.6362C58.6565 83.9035 59.2362 82.3649 59.3839 81.8122L58.4757 77.1922C58.0144 78.7355 57.0792 81.9655 57.0287 82.5381Z" fill="white" stroke="url(#paint16_linear_40000647_59493)" stroke-width="0.54584"/>
<path d="M58.7697 83.4971C58.7616 81.6635 58.1972 79.8826 57.916 79.2214L57.0298 82.5376L57.1115 83.054L57.5477 85.8079C57.7801 85.4183 58.3498 84.4105 58.7697 83.4971Z" fill="#A64C4D"/>
<path d="M57.9985 83.0908C58.0639 83.5039 57.4883 83.5833 57.1924 83.5713L57.0015 82.3665C57.0709 82.0614 57.2783 81.4404 57.5537 81.3968C57.898 81.3423 57.9167 82.5744 57.9985 83.0908Z" fill="black" stroke="black" stroke-width="0.54584"/>
<path d="M57.0287 82.5381C56.9783 83.1107 57.3348 84.8421 57.5194 85.6362C58.6565 83.9035 59.2362 82.3649 59.3839 81.8122L58.4757 77.1922C58.0144 78.7355 57.0792 81.9655 57.0287 82.5381Z" stroke="url(#paint17_linear_40000647_59493)" stroke-width="0.54584"/>
<g filter="url(#filter9_f_40000647_59493)">
<mask id="path-101-outside-9_40000647_59493" maskUnits="userSpaceOnUse" x="56.0424" y="115.385" width="5.72061" height="5.72061" fill="black">
<rect fill="white" x="56.0424" y="115.385" width="5.72061" height="5.72061"/>
<path fill-rule="evenodd" clip-rule="evenodd" d="M58.8795 117.966L58.5868 116.776L58.6761 117.998L58.0016 117.59L58.5981 118.106L57.4083 118.398L58.6304 118.309L58.2222 118.984L58.7376 118.387L59.0304 119.577L58.9411 118.355L59.6155 118.763L59.0188 118.248L60.2088 117.955L58.9867 118.044L59.3948 117.37L58.8795 117.966Z"/>
</mask>
<path fill-rule="evenodd" clip-rule="evenodd" d="M58.8795 117.966L58.5868 116.776L58.6761 117.998L58.0016 117.59L58.5981 118.106L57.4083 118.398L58.6304 118.309L58.2222 118.984L58.7376 118.387L59.0304 119.577L58.9411 118.355L59.6155 118.763L59.0188 118.248L60.2088 117.955L58.9867 118.044L59.3948 117.37L58.8795 117.966Z" fill="white"/>
<path d="M58.5868 116.776L58.9335 116.691C58.8892 116.511 58.7142 116.395 58.5309 116.424C58.3476 116.453 58.2171 116.617 58.2307 116.802L58.5868 116.776ZM58.8795 117.966L58.5328 118.051C58.5647 118.181 58.6663 118.282 58.7962 118.313C58.926 118.345 59.0624 118.301 59.1497 118.2L58.8795 117.966ZM58.6761 117.998L58.4912 118.304C58.6055 118.373 58.7488 118.373 58.8627 118.303C58.9765 118.233 59.042 118.106 59.0322 117.972L58.6761 117.998ZM58.0016 117.59L58.1864 117.285C58.0276 117.189 57.8218 117.23 57.7127 117.38C57.6036 117.531 57.6277 117.739 57.7681 117.861L58.0016 117.59ZM58.5981 118.106L58.6834 118.452C58.8131 118.42 58.9141 118.319 58.9453 118.189C58.9765 118.059 58.9326 117.923 58.8315 117.835L58.5981 118.106ZM57.4083 118.398L57.323 118.052C57.1428 118.096 57.0266 118.271 57.0556 118.454C57.0847 118.637 57.2492 118.768 57.4343 118.754L57.4083 118.398ZM58.6304 118.309L58.9359 118.494C59.005 118.38 59.0046 118.236 58.9349 118.122C58.8651 118.009 58.7376 117.943 58.6044 117.953L58.6304 118.309ZM58.2222 118.984L57.9167 118.799C57.8207 118.957 57.8622 119.163 58.0123 119.272C58.1625 119.382 58.3711 119.357 58.4924 119.217L58.2222 118.984ZM58.7376 118.387L59.0844 118.302C59.0525 118.172 58.9508 118.071 58.821 118.04C58.6911 118.009 58.5547 118.052 58.4674 118.153L58.7376 118.387ZM59.0304 119.577L58.6836 119.662C58.728 119.842 58.9029 119.959 59.0862 119.929C59.2695 119.9 59.4 119.736 59.3865 119.551L59.0304 119.577ZM58.9411 118.355L59.1259 118.049C59.0117 117.98 58.8684 117.981 58.7545 118.05C58.6406 118.12 58.5752 118.248 58.5849 118.381L58.9411 118.355ZM59.6155 118.763L59.4306 119.068C59.5894 119.164 59.7953 119.123 59.9044 118.973C60.0134 118.823 59.9893 118.614 59.8489 118.493L59.6155 118.763ZM59.0188 118.248L58.9335 117.901C58.8039 117.933 58.7028 118.034 58.6716 118.164C58.6405 118.294 58.6844 118.43 58.7854 118.518L59.0188 118.248ZM60.2088 117.955L60.2941 118.301C60.4743 118.257 60.5906 118.082 60.5615 117.899C60.5325 117.716 60.3679 117.585 60.1828 117.599L60.2088 117.955ZM58.9867 118.044L58.6812 117.859C58.6121 117.973 58.6125 118.117 58.6823 118.231C58.752 118.344 58.8795 118.41 59.0127 118.4L58.9867 118.044ZM59.3948 117.37L59.7003 117.554C59.7964 117.396 59.7548 117.19 59.6047 117.081C59.4546 116.972 59.2459 116.996 59.1246 117.136L59.3948 117.37ZM58.2401 116.862L58.5328 118.051L59.2263 117.881L58.9335 116.691L58.2401 116.862ZM59.0322 117.972L58.9429 116.75L58.2307 116.802L58.32 118.025L59.0322 117.972ZM57.8167 117.896L58.4912 118.304L58.861 117.693L58.1864 117.285L57.8167 117.896ZM58.8315 117.835L58.235 117.32L57.7681 117.861L58.3647 118.376L58.8315 117.835ZM57.4936 118.745L58.6834 118.452L58.5128 117.759L57.323 118.052L57.4936 118.745ZM58.6044 117.953L57.3823 118.042L57.4343 118.754L58.6564 118.665L58.6044 117.953ZM58.5277 119.168L58.9359 118.494L58.3249 118.124L57.9167 118.799L58.5277 119.168ZM58.4674 118.153L57.952 118.75L58.4924 119.217L59.0078 118.62L58.4674 118.153ZM59.3771 119.492L59.0844 118.302L58.3909 118.472L58.6836 119.662L59.3771 119.492ZM58.5849 118.381L58.6742 119.603L59.3865 119.551L59.2972 118.329L58.5849 118.381ZM59.8003 118.457L59.1259 118.049L58.7562 118.66L59.4306 119.068L59.8003 118.457ZM58.7854 118.518L59.3821 119.033L59.8489 118.493L59.2523 117.977L58.7854 118.518ZM60.1235 117.608L58.9335 117.901L59.1041 118.594L60.2941 118.301L60.1235 117.608ZM59.0127 118.4L60.2349 118.311L60.1828 117.599L58.9607 117.688L59.0127 118.4ZM59.0893 117.185L58.6812 117.859L59.2922 118.229L59.7003 117.554L59.0893 117.185ZM59.1497 118.2L59.665 117.603L59.1246 117.136L58.6093 117.733L59.1497 118.2Z" fill="url(#paint18_linear_40000647_59493)" mask="url(#path-101-outside-9_40000647_59493)"/>
</g>
<path fill-rule="evenodd" clip-rule="evenodd" d="M58.8795 117.966L58.5868 116.776L58.6761 117.998L58.0016 117.59L58.5981 118.106L57.4083 118.398L58.6304 118.309L58.2222 118.984L58.7376 118.387L59.0304 119.577L58.9411 118.355L59.6155 118.763L59.0188 118.248L60.2088 117.955L58.9867 118.044L59.3948 117.37L58.8795 117.966Z" fill="white"/>
<g filter="url(#filter10_f_40000647_59493)">
<path d="M38.332 109.493L33.5296 110.674L33.89 115.607L32.7086 110.804L27.7761 111.165L32.5785 109.983L32.2181 105.051L33.3996 109.853L38.332 109.493Z" fill="white"/>
<path d="M38.332 109.493L33.5296 110.674L33.89 115.607L32.7086 110.804L27.7761 111.165L32.5785 109.983L32.2181 105.051L33.3996 109.853L38.332 109.493Z" fill="white"/>
<path d="M38.332 109.493L33.5296 110.674L33.89 115.607L32.7086 110.804L27.7761 111.165L32.5785 109.983L32.2181 105.051L33.3996 109.853L38.332 109.493Z" fill="white"/>
</g>
<g filter="url(#filter11_f_40000647_59493)">
<path d="M39.0071 114.653L33.1453 111.106L28.6666 116.291L32.2137 110.429L27.0288 105.95L32.8906 109.498L37.3693 104.313L33.8223 110.174L39.0071 114.653Z" fill="white"/>
<path d="M39.0071 114.653L33.1453 111.106L28.6666 116.291L32.2137 110.429L27.0288 105.95L32.8906 109.498L37.3693 104.313L33.8223 110.174L39.0071 114.653Z" fill="white"/>
<path d="M39.0071 114.653L33.1453 111.106L28.6666 116.291L32.2137 110.429L27.0288 105.95L32.8906 109.498L37.3693 104.313L33.8223 110.174L39.0071 114.653Z" fill="white"/>
</g>
<g filter="url(#filter12_f_40000647_59493)">
<mask id="path-106-outside-10_40000647_59493" maskUnits="userSpaceOnUse" x="18.7407" y="83.0112" width="8.00886" height="8.00886" fill="black">
<rect fill="white" x="18.7407" y="83.0112" width="8.00886" height="8.00886"/>
<path fill-rule="evenodd" clip-rule="evenodd" d="M22.7404 87.4554L23.2358 89.4691L23.0847 87.4008L24.2261 88.0915L23.2166 87.2194L25.2301 86.7241L23.1619 86.8752L23.8527 85.7337L22.9805 86.7433L22.4851 84.7297L22.6362 86.7978L21.4949 86.1071L22.5045 86.9793L20.4908 87.4747L22.559 87.3236L21.8683 88.4649L22.7404 87.4554Z"/>
</mask>
<path fill-rule="evenodd" clip-rule="evenodd" d="M22.7404 87.4554L23.2358 89.4691L23.0847 87.4008L24.2261 88.0915L23.2166 87.2194L25.2301 86.7241L23.1619 86.8752L23.8527 85.7337L22.9805 86.7433L22.4851 84.7297L22.6362 86.7978L21.4949 86.1071L22.5045 86.9793L20.4908 87.4747L22.559 87.3236L21.8683 88.4649L22.7404 87.4554Z" fill="white"/>
<path d="M23.2358 89.4691L22.649 89.6134C22.724 89.9184 23.0201 90.115 23.3303 90.0659C23.6405 90.0168 23.8613 89.7382 23.8385 89.425L23.2358 89.4691ZM22.7404 87.4554L23.3272 87.311C23.2732 87.0915 23.1012 86.9205 22.8814 86.8678C22.6617 86.815 22.4308 86.8893 22.2831 87.0604L22.7404 87.4554ZM23.0847 87.4008L23.3975 86.8838C23.2041 86.7668 22.9616 86.7674 22.7689 86.8855C22.5762 87.0036 22.4655 87.2194 22.482 87.4448L23.0847 87.4008ZM24.2261 88.0915L23.9133 88.6085C24.182 88.7711 24.5304 88.7008 24.715 88.4467C24.8996 88.1926 24.8588 87.8395 24.6211 87.6342L24.2261 88.0915ZM23.2166 87.2194L23.0722 86.6326C22.8527 86.6866 22.6817 86.8586 22.629 87.0784C22.5762 87.2981 22.6505 87.529 22.8215 87.6767L23.2166 87.2194ZM25.2301 86.7241L25.3745 87.3108C25.6795 87.2358 25.8761 86.9397 25.827 86.6295C25.7779 86.3193 25.4993 86.0985 25.1861 86.1214L25.2301 86.7241ZM23.1619 86.8752L22.6449 86.5623C22.5279 86.7557 22.5286 86.9982 22.6467 87.1909C22.7648 87.3836 22.9806 87.4943 23.206 87.4779L23.1619 86.8752ZM23.8527 85.7337L24.3697 86.0465C24.5323 85.7778 24.4619 85.4294 24.2079 85.2448C23.9538 85.0602 23.6007 85.101 23.3954 85.3387L23.8527 85.7337ZM22.9805 86.7433L22.3937 86.8877C22.4477 87.1072 22.6197 87.2782 22.8395 87.3309C23.0592 87.3837 23.2901 87.3094 23.4378 87.1384L22.9805 86.7433ZM22.4851 84.7297L23.0719 84.5853C22.9969 84.2804 22.7008 84.0837 22.3906 84.1329C22.0804 84.182 21.8596 84.4605 21.8825 84.7737L22.4851 84.7297ZM22.6362 86.7978L22.3234 87.3148C22.5168 87.4318 22.7593 87.4311 22.952 87.313C23.1447 87.1949 23.2554 86.9792 23.2389 86.7538L22.6362 86.7978ZM21.4949 86.1071L21.8077 85.5901C21.539 85.4275 21.1906 85.4979 21.006 85.7519C20.8214 86.006 20.8622 86.3591 21.0998 86.5644L21.4949 86.1071ZM22.5045 86.9793L22.6489 87.5661C22.8684 87.5121 23.0394 87.3401 23.0921 87.1204C23.1449 86.9006 23.0706 86.6697 22.8995 86.522L22.5045 86.9793ZM20.4908 87.4747L20.3464 86.8879C20.0415 86.9629 19.8448 87.2591 19.8939 87.5692C19.9431 87.8794 20.2216 88.1003 20.5348 88.0774L20.4908 87.4747ZM22.559 87.3236L23.0759 87.6364C23.193 87.4431 23.1923 87.2006 23.0742 87.0079C22.9561 86.8151 22.7403 86.7044 22.5149 86.7209L22.559 87.3236ZM21.8683 88.4649L21.3513 88.1521C21.1887 88.4208 21.259 88.7692 21.5131 88.9538C21.7672 89.1384 22.1203 89.0976 22.3256 88.86L21.8683 88.4649ZM23.8226 89.3247L23.3272 87.311L22.1536 87.5997L22.649 89.6134L23.8226 89.3247ZM22.482 87.4448L22.6331 89.5131L23.8385 89.425L23.6873 87.3567L22.482 87.4448ZM24.539 87.5745L23.3975 86.8838L22.7718 87.9178L23.9133 88.6085L24.539 87.5745ZM22.8215 87.6767L23.8311 88.5488L24.6211 87.6342L23.6116 86.7621L22.8215 87.6767ZM25.0858 86.1373L23.0722 86.6326L23.3609 87.8062L25.3745 87.3108L25.0858 86.1373ZM23.206 87.4779L25.2742 87.3267L25.1861 86.1214L23.1179 86.2725L23.206 87.4779ZM23.3357 85.4208L22.6449 86.5623L23.6789 87.188L24.3697 86.0465L23.3357 85.4208ZM23.4378 87.1384L24.31 86.1287L23.3954 85.3387L22.5232 86.3483L23.4378 87.1384ZM21.8984 84.874L22.3937 86.8877L23.5673 86.599L23.0719 84.5853L21.8984 84.874ZM23.2389 86.7538L23.0878 84.6857L21.8825 84.7737L22.0336 86.8418L23.2389 86.7538ZM21.182 86.6241L22.3234 87.3148L22.9491 86.2808L21.8077 85.5901L21.182 86.6241ZM22.8995 86.522L21.8899 85.6498L21.0998 86.5644L22.1095 87.4366L22.8995 86.522ZM20.6351 88.0615L22.6489 87.5661L22.3602 86.3925L20.3464 86.8879L20.6351 88.0615ZM22.5149 86.7209L20.4467 86.872L20.5348 88.0774L22.603 87.9263L22.5149 86.7209ZM22.3853 88.7778L23.0759 87.6364L22.042 87.0107L21.3513 88.1521L22.3853 88.7778ZM22.2831 87.0604L21.411 88.0699L22.3256 88.86L23.1977 87.8504L22.2831 87.0604Z" fill="url(#paint19_linear_40000647_59493)" mask="url(#path-106-outside-10_40000647_59493)"/>
</g>
<path fill-rule="evenodd" clip-rule="evenodd" d="M22.7404 87.4554L23.2358 89.4691L23.0847 87.4008L24.2261 88.0915L23.2166 87.2194L25.2301 86.7241L23.1619 86.8752L23.8527 85.7337L22.9805 86.7433L22.4851 84.7297L22.6362 86.7978L21.4949 86.1071L22.5045 86.9793L20.4908 87.4747L22.559 87.3236L21.8683 88.4649L22.7404 87.4554Z" fill="white"/>
<g filter="url(#filter13_f_40000647_59493)">
<mask id="path-109-outside-11_40000647_59493" maskUnits="userSpaceOnUse" x="12.141" y="98.6167" width="8.00886" height="8.00886" fill="black">
<rect fill="white" x="12.141" y="98.6167" width="8.00886" height="8.00886"/>
<path fill-rule="evenodd" clip-rule="evenodd" d="M16.1502 102.181L15.6548 100.168L15.806 102.236L14.6645 101.545L15.6741 102.417L13.6605 102.913L15.7287 102.762L15.0379 103.903L15.9101 102.893L16.4055 104.907L16.2544 102.839L17.3958 103.53L16.3861 102.657L18.3999 102.162L16.3317 102.313L17.0223 101.172L16.1502 102.181Z"/>
</mask>
<path fill-rule="evenodd" clip-rule="evenodd" d="M16.1502 102.181L15.6548 100.168L15.806 102.236L14.6645 101.545L15.6741 102.417L13.6605 102.913L15.7287 102.762L15.0379 103.903L15.9101 102.893L16.4055 104.907L16.2544 102.839L17.3958 103.53L16.3861 102.657L18.3999 102.162L16.3317 102.313L17.0223 101.172L16.1502 102.181Z" fill="white"/>
<path d="M15.6548 100.168L16.2416 100.023C16.1666 99.7183 15.8705 99.5217 15.5603 99.5708C15.2501 99.6199 15.0293 99.8985 15.0522 100.212L15.6548 100.168ZM16.1502 102.181L15.5635 102.326C15.6175 102.545 15.7894 102.716 16.0092 102.769C16.2289 102.822 16.4598 102.747 16.6075 102.576L16.1502 102.181ZM15.806 102.236L15.4931 102.753C15.6865 102.87 15.929 102.869 16.1217 102.751C16.3144 102.633 16.4251 102.417 16.4086 102.192L15.806 102.236ZM14.6645 101.545L14.9773 101.028C14.7087 100.866 14.3602 100.936 14.1756 101.19C13.991 101.444 14.0318 101.797 14.2695 102.003L14.6645 101.545ZM15.6741 102.417L15.8184 103.004C16.0379 102.95 16.2089 102.778 16.2616 102.558C16.3144 102.339 16.2401 102.108 16.0691 101.96L15.6741 102.417ZM13.6605 102.913L13.5161 102.326C13.2112 102.401 13.0145 102.697 13.0636 103.007C13.1128 103.317 13.3913 103.538 13.7045 103.515L13.6605 102.913ZM15.7287 102.762L16.2457 103.074C16.3627 102.881 16.362 102.639 16.2439 102.446C16.1258 102.253 15.9101 102.142 15.6847 102.159L15.7287 102.762ZM15.0379 103.903L14.521 103.59C14.3584 103.859 14.4287 104.207 14.6828 104.392C14.9368 104.577 15.2899 104.536 15.4952 104.298L15.0379 103.903ZM15.9101 102.893L16.4969 102.749C16.4429 102.53 16.2709 102.359 16.0512 102.306C15.8314 102.253 15.6006 102.327 15.4528 102.498L15.9101 102.893ZM16.4055 104.907L15.8187 105.051C15.8937 105.356 16.1898 105.553 16.5 105.504C16.8102 105.455 17.031 105.176 17.0082 104.863L16.4055 104.907ZM16.2544 102.839L16.5672 102.322C16.3739 102.205 16.1314 102.206 15.9386 102.324C15.7459 102.442 15.6352 102.658 15.6517 102.883L16.2544 102.839ZM17.3958 103.53L17.0829 104.047C17.3516 104.209 17.7 104.139 17.8846 103.885C18.0692 103.631 18.0284 103.278 17.7908 103.072L17.3958 103.53ZM16.3861 102.657L16.2417 102.071C16.0223 102.125 15.8513 102.297 15.7985 102.516C15.7457 102.736 15.82 102.967 15.9911 103.115L16.3861 102.657ZM18.3999 102.162L18.5442 102.749C18.8492 102.674 19.0458 102.378 18.9967 102.067C18.9476 101.757 18.669 101.536 18.3558 101.559L18.3999 102.162ZM16.3317 102.313L15.8147 102C15.6977 102.194 15.6983 102.436 15.8164 102.629C15.9345 102.822 16.1503 102.932 16.3757 102.916L16.3317 102.313ZM17.0223 101.172L17.5393 101.485C17.7019 101.216 17.6316 100.867 17.3775 100.683C17.1234 100.498 16.7703 100.539 16.565 100.777L17.0223 101.172ZM15.0681 100.312L15.5635 102.326L16.737 102.037L16.2416 100.023L15.0681 100.312ZM16.4086 102.192L16.2575 100.124L15.0522 100.212L15.2033 102.28L16.4086 102.192ZM14.3517 102.062L15.4931 102.753L16.1188 101.719L14.9773 101.028L14.3517 102.062ZM16.0691 101.96L15.0595 101.088L14.2695 102.003L15.279 102.875L16.0691 101.96ZM13.8048 103.499L15.8184 103.004L15.5297 101.831L13.5161 102.326L13.8048 103.499ZM15.6847 102.159L13.6164 102.31L13.7045 103.515L15.7727 103.364L15.6847 102.159ZM15.5549 104.216L16.2457 103.074L15.2117 102.449L14.521 103.59L15.5549 104.216ZM15.4528 102.498L14.5807 103.508L15.4952 104.298L16.3674 103.288L15.4528 102.498ZM16.9923 104.763L16.4969 102.749L15.3233 103.038L15.8187 105.051L16.9923 104.763ZM15.6517 102.883L15.8028 104.951L17.0082 104.863L16.8571 102.795L15.6517 102.883ZM17.7086 103.013L16.5672 102.322L15.9415 103.356L17.0829 104.047L17.7086 103.013ZM15.9911 103.115L17.0007 103.987L17.7908 103.072L16.7811 102.2L15.9911 103.115ZM18.2555 101.575L16.2417 102.071L16.5305 103.244L18.5442 102.749L18.2555 101.575ZM16.3757 102.916L18.4439 102.765L18.3558 101.559L16.2876 101.71L16.3757 102.916ZM16.5053 100.859L15.8147 102L16.8487 102.626L17.5393 101.485L16.5053 100.859ZM16.6075 102.576L17.4796 101.567L16.565 100.777L15.6929 101.786L16.6075 102.576Z" fill="url(#paint20_linear_40000647_59493)" mask="url(#path-109-outside-11_40000647_59493)"/>
</g>
<path fill-rule="evenodd" clip-rule="evenodd" d="M16.1502 102.181L15.6548 100.168L15.806 102.236L14.6645 101.545L15.6741 102.417L13.6605 102.913L15.7287 102.762L15.0379 103.903L15.9101 102.893L16.4055 104.907L16.2544 102.839L17.3958 103.53L16.3861 102.657L18.3999 102.162L16.3317 102.313L17.0223 101.172L16.1502 102.181Z" fill="white"/>
<g filter="url(#filter14_f_40000647_59493)">
<path d="M36.137 112.569L33.8947 111.932L33.1907 114.154L32.2903 112.004L30.1141 112.839L31.2337 110.795L29.224 109.614L31.5204 109.214L31.1906 106.907L32.9347 108.453L34.5331 106.757L34.4114 109.085L36.7344 109.276L34.8387 110.633L36.137 112.569Z" fill="white"/>
<path d="M36.137 112.569L33.8947 111.932L33.1907 114.154L32.2903 112.004L30.1141 112.839L31.2337 110.795L29.224 109.614L31.5204 109.214L31.1906 106.907L32.9347 108.453L34.5331 106.757L34.4114 109.085L36.7344 109.276L34.8387 110.633L36.137 112.569Z" fill="white"/>
<path d="M36.137 112.569L33.8947 111.932L33.1907 114.154L32.2903 112.004L30.1141 112.839L31.2337 110.795L29.224 109.614L31.5204 109.214L31.1906 106.907L32.9347 108.453L34.5331 106.757L34.4114 109.085L36.7344 109.276L34.8387 110.633L36.137 112.569Z" fill="white"/>
</g>
</g>
<defs>
<filter id="filter0_d_40000647_59493" x="0" y="0.126472" width="98.4586" height="148.311" filterUnits="userSpaceOnUse" color-interpolation-filters="sRGB">
<feFlood flood-opacity="0" result="BackgroundImageFix"/>
<feColorMatrix in="SourceAlpha" type="matrix" values="0 0 0 0 0 0 0 0 0 0 0 0 0 0 0 0 0 0 127 0" result="hardAlpha"/>
<feOffset dx="7.82259" dy="-5.21506"/>
<feGaussianBlur stdDeviation="3.35755"/>
<feComposite in2="hardAlpha" operator="out"/>
<feColorMatrix type="matrix" values="0 0 0 0 0.784314 0 0 0 0 0.843137 0 0 0 0 0.909804 0 0 0 0.25 0"/>
<feBlend mode="normal" in2="BackgroundImageFix" result="effect1_dropShadow_40000647_59493"/>
<feBlend mode="normal" in="SourceGraphic" in2="effect1_dropShadow_40000647_59493" result="shape"/>
</filter>
<filter id="filter1_f_40000647_59493" x="10.789" y="54.0136" width="9.14949" height="9.14851" filterUnits="userSpaceOnUse" color-interpolation-filters="sRGB">
<feFlood flood-opacity="0" result="BackgroundImageFix"/>
<feBlend mode="normal" in="SourceGraphic" in2="BackgroundImageFix" result="shape"/>
<feGaussianBlur stdDeviation="0.327167" result="effect1_foregroundBlur_40000647_59493"/>
</filter>
<filter id="filter2_f_40000647_59493" x="12.8397" y="30.7606" width="18.6146" height="18.6136" filterUnits="userSpaceOnUse" color-interpolation-filters="sRGB">
<feFlood flood-opacity="0" result="BackgroundImageFix"/>
<feBlend mode="normal" in="SourceGraphic" in2="BackgroundImageFix" result="shape"/>
<feGaussianBlur stdDeviation="0.665617" result="effect1_foregroundBlur_40000647_59493"/>
</filter>
<filter id="filter3_f_40000647_59493" x="54.0604" y="37.2586" width="18.6146" height="18.6136" filterUnits="userSpaceOnUse" color-interpolation-filters="sRGB">
<feFlood flood-opacity="0" result="BackgroundImageFix"/>
<feBlend mode="normal" in="SourceGraphic" in2="BackgroundImageFix" result="shape"/>
<feGaussianBlur stdDeviation="0.665617" result="effect1_foregroundBlur_40000647_59493"/>
</filter>
<filter id="filter4_f_40000647_59493" x="73.8829" y="89.5929" width="11.6726" height="11.6736" filterUnits="userSpaceOnUse" color-interpolation-filters="sRGB">
<feFlood flood-opacity="0" result="BackgroundImageFix"/>
<feBlend mode="normal" in="SourceGraphic" in2="BackgroundImageFix" result="shape"/>
<feGaussianBlur stdDeviation="0.417421" result="effect1_foregroundBlur_40000647_59493"/>
</filter>
<filter id="filter5_f_40000647_59493" x="67.5188" y="100.603" width="4.70074" height="4.70074" filterUnits="userSpaceOnUse" color-interpolation-filters="sRGB">
<feFlood flood-opacity="0" result="BackgroundImageFix"/>
<feBlend mode="normal" in="SourceGraphic" in2="BackgroundImageFix" result="shape"/>
<feGaussianBlur stdDeviation="0.191788" result="effect1_foregroundBlur_40000647_59493"/>
</filter>
<filter id="filter6_f_40000647_59493" x="27.2922" y="116.083" width="5.36285" height="5.36481" filterUnits="userSpaceOnUse" color-interpolation-filters="sRGB">
<feFlood flood-opacity="0" result="BackgroundImageFix"/>
<feBlend mode="normal" in="SourceGraphic" in2="BackgroundImageFix" result="shape"/>
<feGaussianBlur stdDeviation="0.191788" result="effect1_foregroundBlur_40000647_59493"/>
</filter>
<filter id="filter7_f_40000647_59493" x="48.3664" y="55.3313" width="5.36285" height="5.36481" filterUnits="userSpaceOnUse" color-interpolation-filters="sRGB">
<feFlood flood-opacity="0" result="BackgroundImageFix"/>
<feBlend mode="normal" in="SourceGraphic" in2="BackgroundImageFix" result="shape"/>
<feGaussianBlur stdDeviation="0.191788" result="effect1_foregroundBlur_40000647_59493"/>
</filter>
<filter id="filter8_f_40000647_59493" x="60.9987" y="117.672" width="6.94103" height="6.942" filterUnits="userSpaceOnUse" color-interpolation-filters="sRGB">
<feFlood flood-opacity="0" result="BackgroundImageFix"/>
<feBlend mode="normal" in="SourceGraphic" in2="BackgroundImageFix" result="shape"/>
<feGaussianBlur stdDeviation="0.248196" result="effect1_foregroundBlur_40000647_59493"/>
</filter>
<filter id="filter9_f_40000647_59493" x="56.7575" y="116.127" width="4.10227" height="4.10032" filterUnits="userSpaceOnUse" color-interpolation-filters="sRGB">
<feFlood flood-opacity="0" result="BackgroundImageFix"/>
<feBlend mode="normal" in="SourceGraphic" in2="BackgroundImageFix" result="shape"/>
<feGaussianBlur stdDeviation="0.146661" result="effect1_foregroundBlur_40000647_59493"/>
</filter>
<filter id="filter10_f_40000647_59493" x="27.5583" y="104.833" width="10.9919" height="10.9929" filterUnits="userSpaceOnUse" color-interpolation-filters="sRGB">
<feFlood flood-opacity="0" result="BackgroundImageFix"/>
<feBlend mode="normal" in="SourceGraphic" in2="BackgroundImageFix" result="shape"/>
<feGaussianBlur stdDeviation="0.109056" result="effect1_foregroundBlur_40000647_59493"/>
</filter>
<filter id="filter11_f_40000647_59493" x="26.8112" y="104.094" width="12.4138" height="12.4147" filterUnits="userSpaceOnUse" color-interpolation-filters="sRGB">
<feFlood flood-opacity="0" result="BackgroundImageFix"/>
<feBlend mode="normal" in="SourceGraphic" in2="BackgroundImageFix" result="shape"/>
<feGaussianBlur stdDeviation="0.109056" result="effect1_foregroundBlur_40000647_59493"/>
</filter>
<filter id="filter12_f_40000647_59493" x="19.3903" y="83.6286" width="6.94103" height="6.942" filterUnits="userSpaceOnUse" color-interpolation-filters="sRGB">
<feFlood flood-opacity="0" result="BackgroundImageFix"/>
<feBlend mode="normal" in="SourceGraphic" in2="BackgroundImageFix" result="shape"/>
<feGaussianBlur stdDeviation="0.248196" result="effect1_foregroundBlur_40000647_59493"/>
</filter>
<filter id="filter13_f_40000647_59493" x="12.5593" y="99.0661" width="6.94103" height="6.942" filterUnits="userSpaceOnUse" color-interpolation-filters="sRGB">
<feFlood flood-opacity="0" result="BackgroundImageFix"/>
<feBlend mode="normal" in="SourceGraphic" in2="BackgroundImageFix" result="shape"/>
<feGaussianBlur stdDeviation="0.248196" result="effect1_foregroundBlur_40000647_59493"/>
</filter>
<filter id="filter14_f_40000647_59493" x="28.3512" y="105.883" width="9.25564" height="9.14333" filterUnits="userSpaceOnUse" color-interpolation-filters="sRGB">
<feFlood flood-opacity="0" result="BackgroundImageFix"/>
<feBlend mode="normal" in="SourceGraphic" in2="BackgroundImageFix" result="shape"/>
<feGaussianBlur stdDeviation="0.436223" result="effect1_foregroundBlur_40000647_59493"/>
</filter>
<linearGradient id="paint0_linear_40000647_59493" x1="79.69" y1="86.3182" x2="0.624513" y2="59.1633" gradientUnits="userSpaceOnUse">
<stop stop-color="#B0D0D0"/>
<stop offset="0.235" stop-color="#B1D2F6"/>
<stop offset="0.6175" stop-color="#E1B8D1"/>
<stop offset="0.80875" stop-color="white"/>
<stop offset="1" stop-color="#FDE6DB"/>
</linearGradient>
<radialGradient id="paint1_radial_40000647_59493" cx="0" cy="0" r="1" gradientUnits="userSpaceOnUse" gradientTransform="translate(39.2063 85.9612) rotate(90) scale(55.0732 55.0732)">
<stop offset="0.29" stop-color="#FCFFFE"/>
<stop offset="0.775" stop-color="#B8BEEB"/>
<stop offset="1" stop-color="#85BDDB"/>
</radialGradient>
<linearGradient id="paint2_linear_40000647_59493" x1="17.7574" y1="60.4539" x2="13.2069" y2="57.0524" gradientUnits="userSpaceOnUse">
<stop stop-color="#D688F5"/>
<stop offset="0.265" stop-color="#AB6EE7"/>
<stop offset="0.524755" stop-color="#8EF2F8"/>
<stop offset="0.75" stop-color="#C1F8D4"/>
<stop offset="1" stop-color="#FAFEAD"/>
</linearGradient>
<linearGradient id="paint3_linear_40000647_59493" x1="17.2774" y1="36.2709" x2="26.5353" y2="43.1911" gradientUnits="userSpaceOnUse">
<stop stop-color="#D688F5"/>
<stop offset="0.265" stop-color="#AB6EE7"/>
<stop offset="0.524755" stop-color="#8EF2F8"/>
<stop offset="0.75" stop-color="#C1F8D4"/>
<stop offset="1" stop-color="#FAFEAD"/>
</linearGradient>
<linearGradient id="paint4_linear_40000647_59493" x1="58.4981" y1="42.7689" x2="67.756" y2="49.6891" gradientUnits="userSpaceOnUse">
<stop stop-color="#F2EE31"/>
<stop offset="0.21" stop-color="#C1F8D4"/>
<stop offset="0.54" stop-color="#8EF2F8"/>
<stop offset="0.8" stop-color="#D688F5"/>
<stop offset="1" stop-color="#AB6EE7"/>
</linearGradient>
<linearGradient id="paint5_linear_40000647_59493" x1="76.6655" y1="93.0495" x2="82.4712" y2="97.3893" gradientUnits="userSpaceOnUse">
<stop stop-color="#D688F5"/>
<stop offset="0.265" stop-color="#AB6EE7"/>
<stop offset="0.524755" stop-color="#8EF2F8"/>
<stop offset="0.75" stop-color="#C1F8D4"/>
<stop offset="1" stop-color="#FAFEAD"/>
</linearGradient>
<linearGradient id="paint6_linear_40000647_59493" x1="70.0878" y1="104.719" x2="69.6115" y2="101.423" gradientUnits="userSpaceOnUse">
<stop stop-color="#D688F5"/>
<stop offset="0.265" stop-color="#AB6EE7"/>
<stop offset="0.524755" stop-color="#8EF2F8"/>
<stop offset="0.75" stop-color="#C1F8D4"/>
<stop offset="1" stop-color="#FAFEAD"/>
</linearGradient>
<linearGradient id="paint7_linear_40000647_59493" x1="28.5706" y1="117.672" x2="31.2382" y2="119.666" gradientUnits="userSpaceOnUse">
<stop stop-color="#D688F5"/>
<stop offset="0.265" stop-color="#AB6EE7"/>
<stop offset="0.524755" stop-color="#8EF2F8"/>
<stop offset="0.75" stop-color="#C1F8D4"/>
<stop offset="1" stop-color="#FAFEAD"/>
</linearGradient>
<linearGradient id="paint8_linear_40000647_59493" x1="49.6449" y1="56.9199" x2="52.3124" y2="58.9138" gradientUnits="userSpaceOnUse">
<stop stop-color="#D688F5"/>
<stop offset="0.265" stop-color="#AB6EE7"/>
<stop offset="0.524755" stop-color="#8EF2F8"/>
<stop offset="0.75" stop-color="#C1F8D4"/>
<stop offset="1" stop-color="#FAFEAD"/>
</linearGradient>
<linearGradient id="paint9_linear_40000647_59493" x1="66.2846" y1="122.558" x2="62.8325" y2="119.978" gradientUnits="userSpaceOnUse">
<stop stop-color="#D688F5"/>
<stop offset="0.265" stop-color="#AB6EE7"/>
<stop offset="0.524755" stop-color="#8EF2F8"/>
<stop offset="0.75" stop-color="#C1F8D4"/>
<stop offset="1" stop-color="#FAFEAD"/>
</linearGradient>
<linearGradient id="paint10_linear_40000647_59493" x1="38.0206" y1="49.3662" x2="47.18" y2="107.197" gradientUnits="userSpaceOnUse">
<stop stop-color="#E741D8"/>
<stop offset="0.11" stop-color="#A751D0"/>
<stop offset="0.205" stop-color="#447FE2"/>
<stop offset="0.295" stop-color="#E7F953"/>
<stop offset="0.365" stop-color="#8FFC7C"/>
<stop offset="0.415" stop-color="#2AF2FE"/>
<stop offset="0.475" stop-color="#5583ED"/>
<stop offset="0.53" stop-color="#ED2EE2"/>
<stop offset="0.565" stop-color="#EAA175"/>
<stop offset="0.635" stop-color="#F8F35D"/>
<stop offset="0.7" stop-color="#72F489"/>
<stop offset="0.755" stop-color="#3EE1E9"/>
<stop offset="0.8" stop-color="#577BEF"/>
<stop offset="0.875" stop-color="#C840D9"/>
<stop offset="0.945" stop-color="#F154B0"/>
<stop offset="1" stop-color="#FDFB64"/>
</linearGradient>
<linearGradient id="paint11_linear_40000647_59493" x1="38.0206" y1="49.3662" x2="47.18" y2="107.197" gradientUnits="userSpaceOnUse">
<stop stop-color="#E741D8"/>
<stop offset="0.11" stop-color="#A751D0"/>
<stop offset="0.205" stop-color="#447FE2"/>
<stop offset="0.295" stop-color="#E7F953"/>
<stop offset="0.365" stop-color="#8FFC7C"/>
<stop offset="0.415" stop-color="#2AF2FE"/>
<stop offset="0.475" stop-color="#5583ED"/>
<stop offset="0.53" stop-color="#ED2EE2"/>
<stop offset="0.565" stop-color="#EAA175"/>
<stop offset="0.635" stop-color="#F8F35D"/>
<stop offset="0.7" stop-color="#72F489"/>
<stop offset="0.755" stop-color="#3EE1E9"/>
<stop offset="0.8" stop-color="#577BEF"/>
<stop offset="0.875" stop-color="#C840D9"/>
<stop offset="0.945" stop-color="#F154B0"/>
<stop offset="1" stop-color="#FDFB64"/>
</linearGradient>
<linearGradient id="paint12_linear_40000647_59493" x1="38.9295" y1="67.4078" x2="39.611" y2="71.7108" gradientUnits="userSpaceOnUse">
<stop stop-color="#D9F95A"/>
<stop offset="1" stop-color="#8AFB83"/>
</linearGradient>
<linearGradient id="paint13_linear_40000647_59493" x1="49.0474" y1="80.6268" x2="52.6568" y2="103.416" gradientUnits="userSpaceOnUse">
<stop stop-color="#E741D8"/>
<stop offset="0.11" stop-color="#A751D0"/>
<stop offset="0.205" stop-color="#447FE2"/>
<stop offset="0.295" stop-color="#E7F953"/>
<stop offset="0.365" stop-color="#8FFC7C"/>
<stop offset="0.415" stop-color="#2AF2FE"/>
<stop offset="0.475" stop-color="#5583ED"/>
<stop offset="0.53" stop-color="#ED2EE2"/>
<stop offset="0.565" stop-color="#EAA175"/>
<stop offset="0.635" stop-color="#F8F35D"/>
<stop offset="0.7" stop-color="#72F489"/>
<stop offset="0.755" stop-color="#3EE1E9"/>
<stop offset="0.8" stop-color="#577BEF"/>
<stop offset="0.875" stop-color="#C840D9"/>
<stop offset="0.945" stop-color="#F154B0"/>
<stop offset="1" stop-color="#FDFB64"/>
</linearGradient>
<linearGradient id="paint14_linear_40000647_59493" x1="42.4015" y1="80.9727" x2="43.6283" y2="88.7182" gradientUnits="userSpaceOnUse">
<stop stop-color="#E741D8"/>
<stop offset="0.11" stop-color="#A751D0"/>
<stop offset="0.205" stop-color="#447FE2"/>
<stop offset="0.295" stop-color="#E7F953"/>
<stop offset="0.365" stop-color="#8FFC7C"/>
<stop offset="0.415" stop-color="#2AF2FE"/>
<stop offset="0.475" stop-color="#5583ED"/>
<stop offset="0.53" stop-color="#ED2EE2"/>
<stop offset="0.565" stop-color="#EAA175"/>
<stop offset="0.635" stop-color="#F8F35D"/>
<stop offset="0.7" stop-color="#72F489"/>
<stop offset="0.755" stop-color="#3EE1E9"/>
<stop offset="0.8" stop-color="#577BEF"/>
<stop offset="0.875" stop-color="#C840D9"/>
<stop offset="0.945" stop-color="#F154B0"/>
<stop offset="1" stop-color="#FDFB64"/>
</linearGradient>
<linearGradient id="paint15_linear_40000647_59493" x1="37.8942" y1="81.6268" x2="48.1704" y2="87.9491" gradientUnits="userSpaceOnUse">
<stop stop-color="#E741D8"/>
<stop offset="0.23" stop-color="#ED2EE2"/>
<stop offset="0.505" stop-color="#EAA175"/>
<stop offset="0.755" stop-color="#F8F35D"/>
<stop offset="1" stop-color="#72F489"/>
</linearGradient>
<linearGradient id="paint16_linear_40000647_59493" x1="57.405" y1="77.3617" x2="58.6862" y2="85.4514" gradientUnits="userSpaceOnUse">
<stop stop-color="#E741D8"/>
<stop offset="0.11" stop-color="#A751D0"/>
<stop offset="0.205" stop-color="#447FE2"/>
<stop offset="0.295" stop-color="#E7F953"/>
<stop offset="0.365" stop-color="#8FFC7C"/>
<stop offset="0.415" stop-color="#2AF2FE"/>
<stop offset="0.475" stop-color="#5583ED"/>
<stop offset="0.53" stop-color="#ED2EE2"/>
<stop offset="0.565" stop-color="#EAA175"/>
<stop offset="0.635" stop-color="#F8F35D"/>
<stop offset="0.7" stop-color="#72F489"/>
<stop offset="0.755" stop-color="#3EE1E9"/>
<stop offset="0.8" stop-color="#577BEF"/>
<stop offset="0.875" stop-color="#C840D9"/>
<stop offset="0.945" stop-color="#F154B0"/>
<stop offset="1" stop-color="#FDFB64"/>
</linearGradient>
<linearGradient id="paint17_linear_40000647_59493" x1="58.6195" y1="77.2406" x2="57.6317" y2="86.3406" gradientUnits="userSpaceOnUse">
<stop stop-color="#E741D8"/>
<stop offset="0.11" stop-color="#A751D0"/>
<stop offset="0.4" stop-color="#447FE2"/>
<stop offset="0.69" stop-color="#F154B0"/>
<stop offset="1" stop-color="#FDFB64"/>
</linearGradient>
<linearGradient id="paint18_linear_40000647_59493" x1="57.7357" y1="117.34" x2="59.7755" y2="118.865" gradientUnits="userSpaceOnUse">
<stop stop-color="#D688F5"/>
<stop offset="0.265" stop-color="#AB6EE7"/>
<stop offset="0.524755" stop-color="#8EF2F8"/>
<stop offset="0.75" stop-color="#C1F8D4"/>
<stop offset="1" stop-color="#FAFEAD"/>
</linearGradient>
<linearGradient id="paint19_linear_40000647_59493" x1="24.6762" y1="88.515" x2="21.2241" y2="85.9346" gradientUnits="userSpaceOnUse">
<stop stop-color="#D688F5"/>
<stop offset="0.265" stop-color="#AB6EE7"/>
<stop offset="0.524755" stop-color="#8EF2F8"/>
<stop offset="0.75" stop-color="#C1F8D4"/>
<stop offset="1" stop-color="#FAFEAD"/>
</linearGradient>
<linearGradient id="paint20_linear_40000647_59493" x1="14.2145" y1="101.122" x2="17.6666" y2="103.702" gradientUnits="userSpaceOnUse">
<stop stop-color="#D688F5"/>
<stop offset="0.265" stop-color="#AB6EE7"/>
<stop offset="0.524755" stop-color="#8EF2F8"/>
<stop offset="0.75" stop-color="#C1F8D4"/>
<stop offset="1" stop-color="#FAFEAD"/>
</linearGradient>
<clipPath id="clip0_40000647_59493">
<rect width="65.2154" height="99.677" fill="white" transform="translate(6.59863 36.0137) rotate(-9)"/>
</clipPath>
</defs>
</svg>
