<svg width="100" height="149" viewBox="0 0 100 149" fill="none" xmlns="http://www.w3.org/2000/svg">
<g opacity="0.2" filter="url(#filter0_d_40000340_22911)">
<rect x="0.838867" y="22.2031" width="65.4723" height="126.784" rx="3.50353" transform="rotate(-9 0.838867 22.2031)" fill="#A158ED"/>
<rect x="3.37305" y="38.207" width="65.4723" height="3.94148" transform="rotate(-9 3.37305 38.207)" fill="white"/>
<rect x="3.5791" y="39.5049" width="65.4723" height="1.31383" transform="rotate(-9 3.5791 39.5049)" fill="#61B9F5"/>
<rect x="3.98828" y="42.1006" width="65.4723" height="100.07" transform="rotate(-9 3.98828 42.1006)" fill="#4D6ECB"/>
<path d="M10.9092 85.7881L78.6754 95.1188L82.5119 119.342L17.8457 129.584L10.9092 85.7881Z" fill="#65612E"/>
<path d="M38.1011 120.168C27.489 119.543 18.1087 113.136 14.7451 110.011L19.6435 140.938L84.3097 130.696L81.0213 109.934C71.1363 113.605 48.7132 120.793 38.1011 120.168Z" fill="#CDB389"/>
<path d="M36.0577 96.7935C34.3924 95.2169 35.2703 91.822 35.3565 89.6849C35.5831 87.2425 34.919 86.9229 34.5691 84.7134C34.2191 82.5038 30.4592 78.4278 27.7397 76.452C25.0202 74.4762 24.1616 72.6303 25.5782 70.8488C26.9948 69.0672 34.579 74.9441 37.1385 76.8037C39.698 78.6633 41.1514 78.0084 43.7822 76.7423C46.4129 75.4763 44.3019 69.2988 43.9301 66.9512C43.5583 64.6035 42.8159 62.5977 45.1198 61.9497C47.4237 61.3016 48.7129 66.7599 50.6051 71.5564C52.4973 76.3529 54.5482 78.5762 55.8935 79.9203C57.2389 81.2644 56.9052 82.7329 56.804 83.8814C56.7028 85.0299 57.329 87.1957 57.8239 88.5329C58.3188 89.8702 58.9081 90.9093 59.7448 92.6171C60.5815 94.3249 61.2502 94.0774 62.2537 95.051C63.2573 96.0245 62.8799 97.2168 62.713 97.951C62.5462 98.6852 62.0307 99.8994 61.6314 100.954C61.2321 102.008 60.651 102.808 60.5279 103.818C60.4048 104.828 59.177 106.014 58.0722 106.189C56.9674 106.364 55.7902 106.975 54.3804 107.906C52.9707 108.837 49.5608 106.971 49.0809 106.622C48.601 106.273 42.0709 100.796 40.7912 99.8659C39.5114 98.9361 37.723 98.37 36.0577 96.7935Z" fill="#F29600" stroke="black" stroke-width="0.437942"/>
<path d="M45.6879 101.763C44.2308 101.662 43.052 100.518 40.5413 99.364L40.5756 99.5803L45.7971 103.852L48.069 105.599L49.7317 106.998L51.7584 107.896L54.0068 108.095L55.4351 107.314L57.0796 106.499L58.8837 105.992L60.1525 104.904L60.6129 103.612L60.1804 103.68L60.9823 102.445L62.6709 98.4086L62.8861 96.2683L62.2481 95.0392L61.246 94.3111L60.2096 93.3667L59.2353 91.4149L57.8168 88.7575L57.0696 85.4394L56.8469 84.0337L56.8855 81.478L56.2646 80.357L54.1233 78.0357L52.1127 75.1395L50.6878 71.0421L48.0723 65.027L46.9386 62.7679C45.4236 60.9016 43.372 62.6455 43.5638 63.8566C43.8036 65.3705 43.9802 65.786 43.9181 66.7935C43.856 67.8009 45.1556 71.8074 45.344 72.9969C45.5324 74.1864 45.0378 75.2624 44.708 75.9797L44.708 75.9798C44.1135 77.273 42.4092 77.5632 41.8685 77.6488C41.436 77.7173 40.0473 78.0481 39.3985 78.1509C39.6737 78.2551 40.2741 78.5 40.4745 78.6456C40.725 78.8276 43.5655 79.2645 45.1479 79.4573C46.7304 79.6501 50.9135 78.7658 52.0066 79.3686C53.0997 79.9714 55.3266 82.8334 55.6006 84.5636C55.8747 86.2938 57.2879 89.6172 57.533 90.4652C57.7782 91.3131 58.4505 92.7585 59.732 94.5509C61.0136 96.3432 60.8712 96.1441 60.1602 97.2543C59.4493 98.3646 58.5274 98.8431 57.583 99.8795C56.6387 100.916 55.4257 99.5561 54.2019 99.5282C52.9781 99.5003 52.8646 100.183 52.1762 100.736C51.4877 101.288 51.0273 102.581 50.0027 102.41C48.9781 102.24 47.1451 101.865 45.6879 101.763Z" fill="#D7890A"/>
<path d="M36.0577 96.7935C34.3924 95.2169 35.2703 91.822 35.3565 89.6849C35.5831 87.2425 34.919 86.9229 34.5691 84.7134C34.2191 82.5038 30.4592 78.4278 27.7397 76.452C25.0202 74.4762 24.1616 72.6303 25.5782 70.8488C26.9948 69.0672 34.579 74.9441 37.1385 76.8037C39.698 78.6633 41.1514 78.0084 43.7822 76.7423C46.4129 75.4763 44.3019 69.2988 43.9301 66.9512C43.5583 64.6035 42.8159 62.5977 45.1198 61.9497C47.4237 61.3016 48.7129 66.7599 50.6051 71.5564C52.4973 76.3529 54.5482 78.5762 55.8935 79.9203C57.2389 81.2644 56.9052 82.7329 56.804 83.8814C56.7028 85.0299 57.329 87.1957 57.8239 88.5329C58.3188 89.8702 58.9081 90.9093 59.7448 92.6171C60.5815 94.3249 61.2502 94.0774 62.2537 95.051C63.2573 96.0245 62.8799 97.2168 62.713 97.951C62.5462 98.6852 62.0307 99.8994 61.6314 100.954C61.2321 102.008 60.651 102.808 60.5279 103.818C60.4048 104.828 59.177 106.014 58.0722 106.189C56.9674 106.364 55.7902 106.975 54.3804 107.906C52.9707 108.837 49.5608 106.971 49.0809 106.622C48.601 106.273 42.0709 100.796 40.7912 99.8659C39.5114 98.9361 37.723 98.37 36.0577 96.7935Z" stroke="black" stroke-width="0.437942"/>
<path d="M38.5479 77.5713C39.3258 78.0143 40.1475 78.7335 40.6999 78.646C41.2523 78.5586 43.2226 79.379 44.3424 80.1926" stroke="black" stroke-width="0.437942"/>
<path d="M48.4441 104.316C48.5972 105.283 49.2221 104.759 49.4545 104.439L49.6989 103.976C49.4346 103.632 49.1425 103.243 48.7778 102.848C48.566 102.618 48.2916 102.374 47.9795 102.125C48.0834 102.533 48.3216 103.543 48.4441 104.316Z" fill="white"/>
<path d="M49.7736 87.6843C50.0402 87.878 50.5765 88.4631 50.5885 89.254M49.4206 94.3936C49.834 93.7619 50.6261 92.0792 50.4872 90.4025M54.8845 89.5645C54.7728 89.1575 54.6018 88.137 54.8107 87.3112M51.9171 101.218C52.2439 100.6 52.9413 99.64 53.6317 99.5306C54.3222 99.4213 54.7365 99.3556 55.1946 99.5662C55.6526 99.7768 56.2269 99.8274 56.7792 99.7399C57.2212 99.6699 57.6707 99.41 57.8403 99.2887M53.6768 102.496C53.747 102.344 53.9702 102.025 54.3016 101.973C54.7159 101.907 55.174 102.118 55.3339 102.234M60.4791 99.8617L61.6414 98.262M39.8482 95.6266C40.0013 96.5933 40.1257 98.2723 41.2961 98.5116C42.4665 98.7509 43.0188 98.6634 44.1386 99.477C45.0272 100.123 46.7808 101.166 47.9795 102.125M60.8947 102.486C60.3354 103.424 59.5219 104.543 58.737 104.951C57.9522 105.358 56.8543 104.683 55.9601 104.4C55.0659 104.117 54.441 104.64 53.7505 104.75C53.0601 104.859 51.999 105.31 51.1267 105.165C50.5647 105.072 50.1775 104.598 49.6989 103.976M47.9795 102.125C48.2916 102.374 48.566 102.618 48.7778 102.848C49.1425 103.243 49.4346 103.632 49.6989 103.976M47.9795 102.125C48.0834 102.533 48.3216 103.543 48.4441 104.316C48.5972 105.283 49.2221 104.759 49.4545 104.439L49.6989 103.976" stroke="black" stroke-width="0.437942"/>
<path d="M40.2744 88.4814C40.8172 88.6314 42.3696 89.1972 44.2368 90.2604C46.5707 91.5895 47.5743 92.563 48.6872 94.2271" stroke="black" stroke-width="0.437942"/>
<path d="M40.5703 88.5762L41.2921 93.1334C42.1138 93.8526 46.5261 94.0031 48.3213 93.7188C45.9008 90.5915 42.1454 88.9873 40.5703 88.5762Z" fill="white" stroke="black" stroke-width="0.437942"/>
<path d="M44.9455 93.8292C43.7937 92.9923 43.3691 90.7286 43.3008 89.7013C45.8658 90.8805 47.7193 92.8708 48.3255 93.7185C47.4363 93.765 45.5154 93.8522 44.9455 93.8292Z" fill="#008086" stroke="black" stroke-width="0.437942"/>
<circle cx="45.0303" cy="91.6925" r="0.699093" transform="rotate(-9 45.0303 91.6925)" fill="white"/>
<circle cx="45.5526" cy="92.3165" r="0.838912" transform="rotate(-9 45.5526 92.3165)" fill="black"/>
<path d="M55.6924 89.295C55.6519 89.7544 55.938 91.1435 56.0861 91.7807C56.9984 90.3905 57.4635 89.156 57.582 88.7126L56.8533 85.0058C56.4832 86.2441 55.7329 88.8356 55.6924 89.295Z" fill="white" stroke="black" stroke-width="0.437942"/>
<path d="M57.0866 90.0651C57.08 88.5939 56.6272 87.1651 56.4017 86.6346L55.6906 89.2953L55.7562 89.7096L56.1062 91.9192C56.2926 91.6065 56.7496 90.798 57.0866 90.0651Z" fill="#008086" stroke="black" stroke-width="0.437942"/>
<path d="M56.4698 89.7384C56.5223 90.0698 56.0605 90.1335 55.823 90.124L55.6699 89.1573C55.7255 88.9125 55.892 88.4143 56.1129 88.3793C56.3891 88.3356 56.4041 89.3241 56.4698 89.7384Z" fill="black" stroke="black" stroke-width="0.437942"/>
<rect x="0.838867" y="22.3877" width="65.4723" height="126.31" rx="3.50353" transform="rotate(-9 0.838867 22.3877)" fill="#005BA6"/>
</g>
<rect x="4.29883" y="16.2021" width="65.2154" height="126.287" rx="3.48979" transform="rotate(-9 4.29883 16.2021)" fill="#D9D9D9"/>
<rect x="6.82324" y="32.1436" width="65.2154" height="3.92601" transform="rotate(-9 6.82324 32.1436)" fill="white"/>
<rect x="7.02832" y="33.4365" width="65.2154" height="1.30867" transform="rotate(-9 7.02832 33.4365)" fill="#61B9F5"/>
<mask id="mask0_40000340_22911" style="mask-type:alpha" maskUnits="userSpaceOnUse" x="7" y="25" width="81" height="110">
<rect x="7.4375" y="36.0215" width="65.2154" height="99.677" transform="rotate(-9 7.4375 36.0215)" fill="url(#paint0_linear_40000340_22911)"/>
</mask>
<g mask="url(#mask0_40000340_22911)">
<rect x="7.4375" y="36.0215" width="65.2154" height="99.677" transform="rotate(-9 7.4375 36.0215)" fill="url(#paint1_linear_40000340_22911)"/>
<path d="M68.9051 33.528L68.6353 33.5707L64.7015 40.1682L64.4493 41.3698L72.4179 43.4822L74.521 39.9959L74.6968 39.3596L75.3354 38.152L74.9769 36.9365L74.184 36.1216L74.4309 35.5847L74.1749 35.0167L73.6748 34.6534L73.0529 34.9178L72.3877 33.8615L72.1062 33.1316L71.2994 32.9275L71.1177 33.1775L70.0325 32.9622L69.9898 32.6923L69.3962 32.7864L68.9051 33.528Z" fill="#D4B9A1"/>
<path d="M76.1343 47.1035L76.7776 47.826L91.3236 108.728L81.4692 112.983L72.4171 76.3204L67.3377 54.4698L67.6836 53.3982L68.7071 52.6564L69.3455 51.3729L71.0999 49.2521L73.1322 48.5434L72.8543 47.1313L76.1343 47.1035Z" fill="#D4B9A1"/>
<path d="M87.7602 102.79L74.2965 47.3873L72.9075 47.1203L86.6344 103.011L87.7602 102.79Z" fill="#D5C2B1"/>
<path d="M84.7051 103.391L71.1976 49.4646L70.1645 50.4399L83.7304 103.815L84.7051 103.391Z" fill="#D5C2B1"/>
<path d="M82.0486 104.609L68.7751 52.7199L67.9368 53.2708L81.1372 104.788L82.0486 104.609Z" fill="#D5C2B1"/>
<path d="M66.2504 65.7229L66.8083 66.3496L79.4234 119.167L70.8771 122.857L63.0266 91.0615L58.6214 72.1114L58.9215 71.1821L59.8091 70.5388L60.3627 69.4256L61.8843 67.5863L63.6468 66.9717L63.4058 65.7471L66.2504 65.7229Z" fill="#D4B9A1"/>
<path d="M76.3336 114.018L64.6571 65.9697L63.4525 65.7381L75.3572 114.21L76.3336 114.018Z" fill="#D5C2B1"/>
<path d="M73.6835 114.539L61.9691 67.7707L61.073 68.6165L72.8382 114.906L73.6835 114.539Z" fill="#D5C2B1"/>
<path d="M71.3802 115.595L59.8686 70.594L59.1417 71.0718L70.5898 115.75L71.3802 115.595Z" fill="#D5C2B1"/>
<path d="M21.735 101.74L13.9025 105.027L17.6715 140L91.38 129.322L85.167 97.778L68.2995 96.4113L66.883 98.2952L58.2619 98.0011L51.706 97.8224L42.666 100.471L21.735 101.74Z" fill="#D4B9A1"/>
<path d="M34.389 113.177L31.6455 108.08L37.6142 109.79L43.6384 114.644L45.3282 120.075L39.998 117.157L34.389 113.177Z" fill="#D5C2B1"/>
<path d="M57.6075 102.253L88.0373 101.582L89.9177 113.455L91.1229 121.064L74.6109 114.607L32.6893 111.178L21.5592 109.014L45.1266 102.736L57.6075 102.253Z" fill="#D5C2B1"/>
<path d="M18.6815 108.308L13.2684 110.106L16.0504 112.652L32.5716 114.627L33.9989 111.414L28.2092 109.786L18.6815 108.308Z" fill="#D4B9A1"/>
<path d="M33.4881 106.793L12.7611 112.842L12.8164 103.76L14.5973 103.478L19.2923 102.735L23.0159 102.145L27.1439 103.759L33.4881 106.793Z" fill="#C39C93"/>
<path d="M20.1378 118.2L25.0426 122.624L29.699 124.431L27.7789 118.594L26.05 114.664L15.9533 111.34L15.295 112.772L17.7393 115.98L20.1378 118.2Z" fill="#966E65"/>
<path d="M27.7157 111.912L33.048 113.446L36.2068 113.831L38.477 115.241L42.5606 119.02L34.048 119.76L28.2737 120.674L26.2931 118.996L22.6359 115.814L18.7174 112.728L15.791 111.366L21.8752 111.011L25.0452 111.118L27.7157 111.912Z" fill="#C39C93"/>
<path d="M38.9941 108.023L31.6201 107.919L39.7206 112.61L41.9972 115.458L47.721 121.909L96.4362 129.462L91.7421 120.082L81.4493 116.567L78.679 114.793L70.8686 110.886L62.5725 107.055L58.9569 107.628L48.2178 109.328L42.2613 109.442L38.9941 108.023Z" fill="#C39C93"/>
<path d="M86.841 124.066L92.5233 126.761L96.1661 129.504L82.9174 128.283L45.9226 127.67L45.0707 116.354L56.6203 116.627L66.297 120.792L75.1173 121.995L86.841 124.066Z" fill="#966E65"/>
<path d="M82.0527 126.318L93.382 129.392L15.873 140.174L12.3516 117.94L18.1786 120.503L24.8366 120.278L42.1968 118.469L59.278 121.185L61.5343 123.206L73.1506 126.345L82.0527 126.318Z" fill="#D5C2B1"/>
<path d="M35.3818 111.416L32.0938 108.12L38.0026 109.452L45.752 116.467L45.3896 119.07L42.4755 119.531L38.6693 113.662L35.3818 111.416Z" fill="#966E65"/>
<path d="M10.4532 49.3693L10.4574 52.1899L11.9033 52.2375L14.2665 52.1398L14.2447 48.1603L13.0687 48.0699C12.6512 48.2283 11.7191 48.5603 11.3306 48.6218C10.942 48.6834 10.5838 49.1458 10.4532 49.3693Z" fill="#D4B9A1"/>
<path d="M11.4849 50.6437C11.1782 50.8029 10.8373 50.7462 10.5562 51.0673L10.4659 52.2434L11.9459 52.5068L14.2835 52.2472L14.3189 48.9778L13.1316 49.1658C12.964 49.1555 12.5744 49.2098 12.3564 49.5099C12.0838 49.885 11.7916 50.4845 11.4849 50.6437Z" fill="#966E65"/>
<path d="M58.7666 30.9846L59.6342 33.6684L58.2738 34.1605L55.9961 34.7978L54.787 31.0063L55.8776 30.557C56.3235 30.5786 57.3126 30.6063 57.7012 30.5448C58.0897 30.4832 58.5733 30.8123 58.7666 30.9846Z" fill="#D4B9A1"/>
<path d="M36.195 124.702L29.7766 129.03L31.8816 132.396L35.722 137.63L44.7533 131.488L43.1587 128.671C42.159 127.962 39.9757 126.347 39.2407 125.557C38.5057 124.766 36.904 124.658 36.195 124.702Z" fill="#D4B9A1"/>
<path d="M58.1792 32.5154C58.5201 32.572 58.8268 32.4128 59.1933 32.6313L59.6427 33.7219L58.3165 34.4298L56.0131 34.9053L54.9691 31.8068L56.1564 31.6187C56.3126 31.5571 56.7 31.4884 57 31.7064C57.3751 31.9789 57.8383 32.4587 58.1792 32.5154Z" fill="#966E65"/>
<path d="M34.8709 129.004C34.0387 128.549 33.6459 127.686 32.4842 127.537L29.6672 129.132L31.3328 132.906L35.5028 137.834L43.0041 132.909L40.7582 130.493C40.5252 130.095 39.8048 129.291 38.7876 129.253C37.5161 129.207 35.7031 129.459 34.8709 129.004Z" fill="#966E65"/>
<path d="M13.5259 42.576L13.3806 41.6586C13.7214 41.3649 14.4676 40.7673 14.7266 40.7263C15.0504 40.675 16.5646 41.1543 17.1042 41.0688C17.536 41.0004 19.0267 41.797 19.718 42.2038L20.0599 44.3624L18.5174 44.0535L15.5488 43.4726L14.4834 43.0328L13.5259 42.576Z" fill="#D4B9A1"/>
<path d="M74.6282 107.208L74.3082 105.188C75.0586 104.541 76.702 103.225 77.2725 103.134C77.9856 103.021 81.3205 104.077 82.509 103.889C83.4598 103.738 86.7429 105.492 88.2656 106.388L89.0186 111.142L85.6213 110.462L79.0833 109.183L76.7369 108.214L74.6282 107.208Z" fill="#D4B9A1"/>
<path d="M14.6358 41.9026L13.6783 41.4458L13.1387 41.5312L13.3096 42.6106L13.9006 42.8489L15.5029 43.5355L20.0766 44.4707L17.0567 43.566L15.9827 43.0723L15.3063 42.2943L14.6358 41.9026Z" fill="#966E65"/>
<path d="M77.0736 105.724L74.9649 104.718L73.7764 104.906L74.1529 107.283L75.4543 107.808L78.9834 109.32L89.0563 111.38L82.4053 109.388L80.0401 108.3L78.5504 106.587L77.0736 105.724Z" fill="#966E65"/>
<path d="M57.969 55.2247L58.2549 56.1084C58.6917 56.2159 59.6277 56.4107 59.8772 56.33C60.1891 56.2291 61.322 55.1159 61.8418 54.9477C62.2577 54.8131 63.226 53.4278 63.6581 52.752L62.9852 50.6726L61.7499 51.6466L59.3663 53.5091L58.6157 54.3837L57.969 55.2247Z" fill="#D4B9A1"/>
<path d="M59.2642 55.3228L58.6175 56.1638L58.0977 56.332L57.7612 55.2924L58.1801 54.8122L59.2977 53.4743L62.9518 50.569L60.6692 52.7434L59.9353 53.67L59.6846 54.6699L59.2642 55.3228Z" fill="#966E65"/>
<path d="M27.7696 51.8259L26.0422 68.8611L28.3147 68.8885L30.4193 68.5551L31.5467 67.9893L32.3894 65.975L33.2697 53.7207L33.1159 52.7493L32.7152 52.3149L31.8683 51.5086L31.2234 51.2789L30.5219 51.39L29.9619 50.6489L28.8885 51.2061L27.7696 51.8259Z" fill="#D4B9A1"/>
<path d="M29.2999 61.4864L31.2426 61.1787L32.036 63.0445L32.2497 64.3936L32.5317 66.1745L31.564 68.098L30.4537 68.7717L28.6729 69.0538L26.2215 68.9442L26.3365 65.8281L26.8671 64.6377L27.994 63.0209L29.2999 61.4864Z" fill="#966E65"/>
<path d="M28.9296 60.549L30.3709 51.1378L30.6124 51.2655L31.3396 51.3163L30.0426 59.543L29.3469 60.0404L28.9296 60.549Z" fill="#D5C2B1"/>
<path d="M31.5885 60.5706L32.4025 52.0885L32.6611 52.3242L31.8241 60.312L31.5885 60.5706Z" fill="#D5C2B1"/>
<path d="M34.3253 52.0053L34.4701 51.8717L34.3333 51.0083L34.4439 50.6588L34.9606 50.0791L35.4746 49.8318L36.2499 49.4877L37.4062 49.8024L40.4505 54.3543L40.6278 56.8709C39.1344 56.4067 36.1244 55.471 36.0312 55.4415C35.938 55.412 35.9525 55.1773 35.9714 55.0637L35.3634 54.7175L34.3253 52.0053Z" fill="#D4B9A1"/>
<path d="M41.4355 52.5384L38.4756 46.4242L38.1775 46.6374L38.2715 47.231L37.9365 47.5607L37.5362 48.1772L37.2359 49.7737L36.2133 49.6038L36.4948 50.3337L37.0237 51.5775L38.2168 51.7758L38.6715 52.2017L40.1638 54.2887L40.9733 54.1605L41.1549 53.9105L41.0609 53.3168L41.0919 52.8141L41.4355 52.5384Z" fill="#D4B9A1"/>
<path d="M39.7559 50.3152L40.5231 50.9681L41.4896 52.5299L41.2 52.7971L41.1151 53.3084L41.2176 53.956L41.036 54.206L40.2265 54.3342L38.271 51.7674L37.0325 51.6316L36.2845 49.7033L36.3924 49.6862L37.2083 50.9953L37.6742 51.1427L38.0178 50.867L38.5259 50.2334L38.6766 50.4861L39.4038 50.5369L39.3525 50.2131L39.0314 49.932L38.3999 48.0406L37.9938 48.2709L37.8602 48.1261L38.1498 47.8589L38.0729 47.3732L38.2717 47.2311L38.4507 47.3134L39.7559 50.3152Z" fill="#966E65"/>
<path d="M9.70736 58.2829L9.3157 58.9535L13.8933 103.922L24.5111 103.9L22.0354 76.743L20.2609 60.6497L19.6102 60.0336L18.417 59.8353L17.4254 59.1626L15.1242 58.2548L12.9853 58.3722L12.8229 57.3469L9.70736 58.2829Z" fill="#D4B9A1"/>
<path d="M19.7107 103.277C19.1062 103.373 23.0507 82.6857 25.0985 72.3302L26.1158 73.1648L26.0889 73.3086L26.8745 73.7638L27.522 73.6612L28.7828 78.8275L29.4507 79.5515L30.1564 82.261L29.0817 88.7781L28.3712 103.122C25.7362 103.134 20.3151 103.181 19.7107 103.277Z" fill="#D4B9A1"/>
<path d="M15.4786 98.9137L11.5334 57.9387L12.7688 57.3558L16.6118 98.7342L15.4786 98.9137Z" fill="#D5C2B1"/>
<path d="M18.5542 98.4257L15.0953 58.4247L16.368 58.7763L19.6052 98.4252L18.5542 98.4257Z" fill="#D5C2B1"/>
<path d="M21.4377 98.4676L18.3714 59.8981L19.3316 60.0226L22.3551 98.3223L21.4377 98.4676Z" fill="#D5C2B1"/>
<path d="M34.3255 52.005L34.4874 51.9794L35.2381 53.5753L35.8515 53.2569L34.924 50.1953L35.3215 49.9111L35.4497 50.7206L37.1349 52.2792L37.3534 51.9127L37.3193 51.6968L38.6684 51.4831L40.4962 54.2915L40.6281 56.8706L35.9775 55.4497L35.9091 55.018L35.4176 54.7086L34.3255 52.005Z" fill="#966E65"/>
<path d="M25.8298 75.2015L25.9623 73.2443L26.8573 73.6558L27.4509 73.5618L28.7999 78.9353L29.5217 79.6508L30.182 82.4228L29.1565 88.1724L27.9155 82.7818L26.6076 80.1123L25.8142 78.2465L25.8298 75.2015Z" fill="#966E65"/>
<path d="M23.092 89.3539L26.0242 73.2896L25.8221 78.3003L25.9727 78.553L23.3484 90.9729L23.092 89.3539Z" fill="#D5C2B1"/>
<path d="M23.6584 96.0688L26.5366 80.013L27.0314 81.041L23.9575 97.9576L23.6584 96.0688Z" fill="#D5C2B1"/>
<path d="M66.8614 41.9285L71.3082 32.9817L72.1604 33.1233L72.2203 33.5011L67.9183 42.3143L66.8614 41.9285Z" fill="#D5C2B1"/>
<path d="M64.6481 40.177L64.4413 41.3161L65.1609 43.4149L67.7117 43.4534L68.675 44.2966L70.5841 44.824L72.3446 43.7154L72.7305 42.6585L72.6621 42.2268L71.8745 40.7473L70.6382 39.2282L69.8795 38.6292L69.8111 38.1975L68.408 38.4197L66.6956 39.1335L65.3069 39.796L64.6481 40.177Z" fill="#966E65"/>
</g>
<mask id="mask1_40000340_22911" style="mask-type:alpha" maskUnits="userSpaceOnUse" x="22" y="58" width="49" height="43">
<path d="M51.3142 99.1732C50.2401 99.8239 49.0245 100.281 47.7076 100.49C43.6573 101.131 39.7907 99.2385 37.7229 95.9847L36.2544 86.7127L25.4023 82.5214L22.6521 59.4489L50.6294 58.1492L70.9197 67.3512L69.7716 84.0504L62.1377 99.0644L53.2438 98.0472L51.3142 99.1732Z" fill="#D9D9D9"/>
</mask>
<g mask="url(#mask1_40000340_22911)">
<path d="M61.232 91.1152C61.28 89.608 60.9015 89.0284 59.3386 86.1225L56.3293 82.2988C53.7768 76.4402 48.5474 64.7161 48.0491 64.6892C47.5509 64.6622 41.6216 63.9283 38.7192 63.5647L38.794 61.3917C38.7702 60.7956 39.0761 60.759 39.232 60.8151C43.3452 61.1193 51.6941 61.7214 52.1841 61.6967C52.7967 61.6658 52.9394 61.7314 53.1639 62.3134C53.3884 62.8953 55.3371 69.9081 55.4973 70.9192C55.6254 71.7281 56.7713 72.93 57.3283 73.4298C60.9091 71.8115 68.2778 68.4892 69.1056 68.1464C70.1403 67.7178 69.922 68.1494 69.5882 68.6874C69.3212 69.1178 64.8074 75.6781 62.5839 78.9045L61.1145 82.1584C62.477 83.4275 65.3434 86.08 65.9098 86.5371C66.6178 87.1086 66.336 87.4179 66.1313 87.9355C65.9675 88.3495 62.3982 94.6721 60.6339 97.7816C60.8173 96.0618 61.1937 92.3209 61.232 91.1152Z" fill="#8095B2" stroke="#17283F" stroke-width="0.436223"/>
<path d="M52.2137 95.7198C51.8654 96.6395 51.1123 101.297 50.7794 103.511L50.0493 108.787L34.9842 105.704C35.8061 102.214 37.5198 94.8407 37.7989 93.2616C38.1479 91.2878 39.5543 84.2949 39.3465 82.9826C39.1386 81.6703 37.4658 78.6274 36.417 78.1319C35.3683 77.6364 32.0547 76.9043 30.1136 76.484C28.1726 76.0636 27.9858 76.1373 27.7882 74.8896C27.5906 73.6418 28.9791 64.8655 29.6265 64.0794C30.1443 63.4504 33.4192 64.3093 34.9919 64.8174L55.5302 78.7875L63.1441 81.3305L63.378 87.402L59.7744 86.2306C59.8799 86.7578 60.1362 87.9022 60.3166 88.2617C60.5421 88.7112 61.2612 91.0231 61.2682 91.4851C61.2752 91.9471 60.5348 92.2849 60.0253 92.4097C59.5158 92.5345 57.31 92.531 56.9781 92.3851C56.6463 92.2392 54.8914 92.7156 53.8158 92.8859C52.7401 93.0563 52.6491 94.5703 52.2137 95.7198Z" fill="#466289" stroke="#17283F" stroke-width="0.436223"/>
<path d="M43.5368 98.439C43.3959 99.22 42.6682 102.098 42.322 103.439L39.9783 104.097C41.2107 98.6972 43.7049 87.6375 43.8222 86.5957C43.8058 85.5177 42.667 81.5302 41.7195 79.5853C40.7719 77.6404 37.4609 75.2538 36.6771 74.7605C36.0501 74.3658 33.5613 72.446 32.3953 71.5354L32.9456 69.0224C34.1042 70.2576 36.6506 72.8946 37.5677 73.5609C38.714 74.3938 40.8393 74.1674 41.9908 73.9189C42.912 73.7201 45.7076 74.0873 46.9903 74.2958C48.5137 77.6491 51.235 84.416 49.9325 84.6576C48.3044 84.9596 47.0866 86.3213 46.5694 86.9545C46.0522 87.5877 45.0268 90.8596 44.8972 92.2694C44.7677 93.6792 43.713 97.4629 43.5368 98.439Z" fill="#87D4E4"/>
<circle cx="55.8758" cy="79.4378" r="3.39784" transform="rotate(-9 55.8758 79.4378)" fill="#222524"/>
<circle cx="55.9494" cy="80.1763" r="1.39399" transform="rotate(-9 55.9494 80.1763)" fill="#D6867E"/>
<ellipse cx="56.041" cy="80.0691" rx="0.304935" ry="0.718775" transform="rotate(16.7446 56.041 80.0691)" fill="#222524"/>
<path d="M58.9214 80.9841C58.7135 81.8991 58.5172 83.5842 59.0064 85.9766M60.6043 81.4453C60.3963 82.3603 60.31 84.1823 60.7992 86.5747" stroke="#17283F" stroke-width="0.217811"/>
<path d="M53.7036 78.3928C53.1309 78.0071 52.4085 77.5026 52.1189 77.2985L53.2698 73.5658C56.6966 74.9196 63.5541 77.6529 63.5705 77.7562C63.5909 77.8853 65.2991 81.4298 65.3491 81.885C65.3992 82.3402 64.8251 82.4752 64.3303 82.5536L63.814 82.6353C63.762 82.7244 63.6459 82.9663 63.598 83.2209C63.5382 83.5391 63.5828 84.6567 63.6817 85.2806C63.7607 85.7797 63.9878 86.8419 64.0914 87.3107C64.0208 87.3292 63.8274 87.3701 63.6181 87.3856C63.3566 87.405 62.796 87.2071 62.5966 87.0623C62.1429 85.4228 62.1327 83.1589 62.1844 82.2319C62.1296 82.2111 61.7035 82.0919 60.437 81.7809C58.8538 81.3921 54.4194 78.8748 53.7036 78.3928Z" fill="#EEF2F2" stroke="#17283F" stroke-width="0.436223"/>
<path d="M55.9001 76.5234C55.2974 75.9484 54.7432 74.9277 54.5414 74.4892L51.2914 76.5256L43.4603 72.0543L39.4536 64.0222C40.2575 63.8067 42.1616 63.3816 43.3474 63.4055C44.8297 63.4354 47.4116 63.8644 48.679 64.3473C49.9463 64.8302 51.3216 66.134 52.1995 66.9433L52.2212 66.9632C53.0932 67.767 54.0414 68.641 54.9827 69.0605C55.9318 69.4836 60.0485 73.198 61.6391 74.8867C63.2298 76.5754 63.7752 78.2091 64.0101 79.2745C64.245 80.3399 63.2337 80.0811 62.8181 80.1028C62.4026 80.1245 60.7286 79.4414 59.5371 78.8803C58.3457 78.3192 56.6534 77.242 55.9001 76.5234Z" fill="#466289" stroke="#17283F" stroke-width="0.436223"/>
<path d="M59.4569 75.4523L61.9502 77.5494L61.5652 75.1184L58.9765 72.419C57.6629 71.4583 54.9251 69.4793 54.483 69.2495C53.9302 68.9621 52.5213 68.2811 52.0908 67.9303C51.6604 67.5795 50.2693 66.4546 49.8966 66.0505C49.5238 65.6465 48.7569 64.8417 47.5856 63.9908C46.7195 63.7575 44.5205 63.528 43.5293 63.4424C43.9484 63.7215 44.896 64.3859 45.3338 64.8105C45.8809 65.3413 48.6512 66.4021 49.084 66.907C49.4302 67.3108 50.6127 68.5761 51.1606 69.1582C51.7616 69.3791 53.0576 69.8854 53.4337 70.1434C53.9038 70.4659 57.3415 72.678 58.0303 73.4069C58.5814 73.99 59.211 75.0135 59.4569 75.4523Z" fill="#87D3EA"/>
<path d="M60.0958 91.7361C59.7516 91.7906 58.7763 91.063 57.7011 89.844L56.814 88.8377L58.1929 85.7084L59.8463 86.2625L60.1062 87.346C60.2411 87.6407 60.6011 88.41 60.9619 89.129C61.3228 89.8481 61.1659 91.0668 61.0424 91.5862L60.0958 91.7361Z" fill="#322830" stroke="#17283F" stroke-width="0.436223"/>
<path d="M59.0383 91.4628L58.7156 91.5139L56.7978 89.9873C56.891 89.2301 57.1615 87.6892 57.4975 87.583C57.9176 87.4503 58.8088 87.5076 59.2912 87.6297C59.7736 87.7518 60.2348 88.2962 60.3199 88.834C60.4051 89.3719 60.2764 90.2302 60.1442 90.6481C60.0119 91.066 59.404 91.4049 59.0383 91.4628Z" fill="#B46E76"/>
<path d="M58.9443 88.9201C58.7937 88.944 58.3116 89.1306 57.5881 89.6863L58.6394 90.7547C58.8001 90.5161 59.1078 89.9528 59.0533 89.6086L58.9443 88.9201Z" fill="#E7EFF9"/>
<path d="M57.3533 89.4583L56.952 90.823C57.4897 91.3406 59.1962 92.5449 60.1799 92.4067C61.4096 92.234 61.5338 91.4866 61.4997 91.2715C61.4656 91.0563 61.317 90.3963 61.1926 90.7247C61.0119 91.8118 60.6087 91.6331 60.3506 91.674C60.0924 91.7149 59.7435 91.4614 59.4332 91.3121C59.1849 91.1926 57.8118 89.8929 57.3533 89.4583Z" fill="#B4C2C5"/>
<path d="M60.6154 90.4197C60.118 89.9252 60.4237 89.7665 60.9083 89.6236L61.8978 89.4668L61.9081 89.5314C61.8398 89.7039 61.6933 90.3196 61.5304 90.6277C61.3268 91.0128 61.1127 90.9143 60.6154 90.4197Z" fill="#E7EFF9"/>
<path d="M54.7746 96.1516L53.4901 88.0413L49.2312 85.5182C48.9635 83.642 48.3678 79.6214 48.1273 78.548C47.8266 77.2063 46.7573 76.5818 45.9226 76.1847C45.0879 75.7877 41.4646 73.9358 40.5155 73.5127C39.5664 73.0897 38.9796 72.5872 38.3858 71.6227C37.792 70.6583 35.9213 68.1759 35.5167 67.2918C35.112 66.4076 34.8547 65.897 34.1605 65.8306C33.6052 65.7774 28.0663 65.1786 25.3663 64.8858C25.4109 64.2393 25.501 62.8401 25.5044 62.4161C25.5087 61.8862 25.4133 61.2838 26.0938 61.2643C26.7743 61.2447 38.3135 62.3942 39.6724 62.62C41.0313 62.8458 40.4764 62.8234 40.8982 63.8152C41.2355 64.6085 43.011 68.2439 43.8565 69.9624C45.1115 70.6457 47.7319 72.0698 48.1741 72.2997C48.7268 72.5871 49.2985 72.2981 49.637 72.068C49.9755 71.838 58.5266 66.5142 59.3507 66.0087C60.1748 65.5033 59.9318 66.3357 59.7169 66.7888C59.5449 67.1512 55.2101 74.5814 53.0641 78.2512C53.1814 78.806 53.5237 80.2338 53.9546 81.5063C54.3855 82.7789 54.8208 83.0304 54.9846 82.9971C56.047 83.5786 56.8138 83.9644 58.0189 84.6115C58.7167 85.1185 58.4089 85.5421 58.2608 86.1389C58.1128 86.7357 55.9231 94.4922 55.5061 96.0358C55.089 97.5794 54.8905 96.8831 54.7746 96.1516Z" fill="#D9D9D9" stroke="#17283F" stroke-width="0.436223"/>
</g>
<path d="M51.7244 98.128L51.491 99.0337C50.3982 99.6958 49.1614 100.161 47.8215 100.373C43.7005 101.026 39.7664 99.1002 37.6625 95.7896L37.4637 94.5347L37.4296 94.3192L37.6899 93.1739L37.9672 92.1362" stroke="#17283F" stroke-width="0.436223"/>
<defs>
<filter id="filter0_d_40000340_22911" x="0.838867" y="0.124519" width="98.5328" height="148.31" filterUnits="userSpaceOnUse" color-interpolation-filters="sRGB">
<feFlood flood-opacity="0" result="BackgroundImageFix"/>
<feColorMatrix in="SourceAlpha" type="matrix" values="0 0 0 0 0 0 0 0 0 0 0 0 0 0 0 0 0 0 127 0" result="hardAlpha"/>
<feOffset dx="7.82259" dy="-5.21506"/>
<feGaussianBlur stdDeviation="3.35755"/>
<feComposite in2="hardAlpha" operator="out"/>
<feColorMatrix type="matrix" values="0 0 0 0 0.784314 0 0 0 0 0.843137 0 0 0 0 0.909804 0 0 0 0.25 0"/>
<feBlend mode="normal" in2="BackgroundImageFix" result="effect1_dropShadow_40000340_22911"/>
<feBlend mode="normal" in="SourceGraphic" in2="effect1_dropShadow_40000340_22911" result="shape"/>
</filter>
<linearGradient id="paint0_linear_40000340_22911" x1="40.0452" y1="36.0215" x2="40.0452" y2="135.699" gradientUnits="userSpaceOnUse">
<stop stop-color="#081D82"/>
<stop offset="0.178715" stop-color="#2965EE"/>
<stop offset="0.346152" stop-color="#BAA1D2"/>
<stop offset="0.547474" stop-color="#E48177"/>
<stop offset="1" stop-color="#D5D7DC"/>
</linearGradient>
<linearGradient id="paint1_linear_40000340_22911" x1="40.0452" y1="36.0215" x2="40.0452" y2="135.699" gradientUnits="userSpaceOnUse">
<stop stop-color="#081D82"/>
<stop offset="0.202586" stop-color="#2965EE"/>
<stop offset="0.570911" stop-color="#BAA1D2"/>
<stop offset="0.771815" stop-color="#E48177"/>
<stop offset="1" stop-color="#D5D7DC"/>
</linearGradient>
</defs>
</svg>
