<svg width="48" height="80" viewBox="0 0 48 80" fill="none"
  xmlns="http://www.w3.org/2000/svg">
  <g clip-path="url(#clip0_440_15997)">
    <g filter="url(#filter0_d_440_15997)">
      <rect x="-7" y="9.62817" width="50.2178" height="97.2445" rx="2.68724" transform="rotate(-3 -7 9.62817)" fill="#A158ED"/>
      <rect x="-6.34961" y="22.0396" width="50.2178" height="3.02315" transform="rotate(-3 -6.34961 22.0396)" fill="white"/>
      <rect x="-6.29688" y="23.046" width="50.2178" height="1.00772" transform="rotate(-3 -6.29688 23.046)" fill="#61B9F5"/>
      <rect x="-6.19238" y="25.0587" width="50.2178" height="76.7543" transform="rotate(-3 -6.19238 25.0587)" fill="#4D6ECB"/>
      <path d="M-4.41602 58.9385L46.5285 71.4892L47.513 90.2741L-2.63605 92.9023L-4.41602 58.9385Z" fill="#65612E"/>
      <path d="M13.5701 87.3439C5.52525 86.0164 -1.11642 80.3771 -3.43164 77.7234L-2.17468 101.708L47.9743 99.0796L47.1305 82.9782C39.2957 84.9865 21.615 88.6714 13.5701 87.3439Z" fill="#CDB389"/>
      <path d="M12.1507 60.3495C11.0068 59.0134 11.9486 56.4941 12.1857 54.8708C12.5544 53.0259 12.0735 52.7289 11.9837 51.0154C11.8939 49.3018 9.35256 45.8912 7.43653 44.166C5.5205 42.4408 5.01354 40.9639 6.23694 39.7185C7.46035 38.4731 12.7744 43.5641 14.5778 45.1878C16.3811 46.8115 17.5423 46.4285 19.6505 45.6737C21.7588 44.9188 20.6438 40.0374 20.5484 38.2167C20.453 36.3961 20.0475 34.8065 21.8569 34.4969C23.6663 34.1873 24.2121 38.4543 25.2709 42.2648C26.3297 46.0753 27.7159 47.9357 28.6344 49.0688C29.5529 50.202 29.1806 51.2954 29.0113 52.1634C28.8421 53.0314 29.1461 54.7337 29.4164 55.7934C29.6867 56.8531 30.0529 57.693 30.5542 59.0628C31.0556 60.4326 31.5854 60.2975 32.2729 61.1205C32.9604 61.9436 32.5769 62.8228 32.3908 63.3695C32.2046 63.9162 31.7141 64.8011 31.325 65.5732C30.9359 66.3453 30.4285 66.9088 30.2536 67.6697C30.0787 68.4306 29.047 69.2364 28.1902 69.2813C27.3335 69.3262 26.3865 69.698 25.2365 70.2952C24.0865 70.8924 21.635 69.1953 21.2969 68.8909C20.9587 68.5864 16.4167 63.8845 15.5151 63.0727C14.6134 62.2608 13.2946 61.6856 12.1507 60.3495Z" fill="#F29600" stroke="black" stroke-width="0.335905"/>
      <path d="M19.0981 64.9128C17.9948 64.7184 17.1873 63.7516 15.3646 62.6698L15.3734 62.8376L19.0139 66.515L20.6069 68.0292L21.763 69.23L23.237 70.0778L24.9362 70.4092L26.0883 69.9283L27.4081 69.4387L28.825 69.1963L29.88 68.4683L30.3348 67.5194L29.9994 67.537L30.7102 66.6588L32.3218 63.7153L32.6576 62.0999L32.2695 61.1112L31.5634 60.4754L30.8486 59.672L30.2619 58.105L29.3929 55.9641L29.0889 53.3732L29.0318 52.283L29.2661 50.3367L28.8823 49.4318L27.4351 47.4894L26.1336 45.119L25.3751 41.8791L23.8623 37.0811L23.1786 35.2669C22.1726 33.7219 20.4678 34.8876 20.517 35.8269C20.5785 37.0009 20.68 37.332 20.5518 38.0955C20.4236 38.8591 21.0938 42.0194 21.1422 42.9419C21.1905 43.8644 20.7269 44.6455 20.4178 45.1662L20.4178 45.1662C19.8606 46.105 18.5374 46.1898 18.1181 46.2118C17.7826 46.2294 16.6968 46.3703 16.1936 46.3967C16.3952 46.4983 16.8336 46.7332 16.9748 46.8603C17.1513 47.0193 19.283 47.5803 20.4746 47.8542C21.6662 48.1281 24.928 47.789 25.7135 48.3365C26.4991 48.8839 27.9683 51.2456 28.0386 52.5874C28.1089 53.9291 28.9205 56.5775 29.0395 57.244C29.1585 57.9105 29.5555 59.067 30.3893 60.537C31.2232 62.0069 31.1306 61.8436 30.4992 62.6335C29.8679 63.4234 29.1263 63.7145 28.3229 64.4294C27.5194 65.1442 26.7031 64.0097 25.7719 63.8903C24.8406 63.771 24.6993 64.2829 24.1298 64.6491C23.5604 65.0153 23.1055 65.9642 22.3376 65.7522C21.5697 65.5401 20.2015 65.1073 19.0981 64.9128Z" fill="#D7890A"/>
      <path d="M12.1507 60.3495C11.0068 59.0134 11.9486 56.4941 12.1857 54.8708C12.5544 53.0259 12.0735 52.7289 11.9837 51.0154C11.8939 49.3018 9.35256 45.8912 7.43653 44.166C5.5205 42.4408 5.01354 40.9639 6.23694 39.7185C7.46035 38.4731 12.7744 43.5641 14.5778 45.1878C16.3811 46.8115 17.5423 46.4285 19.6505 45.6737C21.7588 44.9188 20.6438 40.0374 20.5484 38.2167C20.453 36.3961 20.0475 34.8065 21.8569 34.4969C23.6663 34.1873 24.2121 38.4543 25.2709 42.2648C26.3297 46.0753 27.7159 47.9357 28.6344 49.0688C29.5529 50.202 29.1806 51.2954 29.0113 52.1634C28.8421 53.0314 29.1461 54.7337 29.4164 55.7934C29.6867 56.8531 30.0529 57.693 30.5542 59.0628C31.0556 60.4326 31.5854 60.2975 32.2729 61.1205C32.9604 61.9436 32.5769 62.8228 32.3908 63.3695C32.2046 63.9162 31.7141 64.8011 31.325 65.5732C30.9359 66.3453 30.4285 66.9088 30.2536 67.6697C30.0787 68.4306 29.047 69.2364 28.1902 69.2813C27.3335 69.3262 26.3865 69.698 25.2365 70.2952C24.0865 70.8924 21.635 69.1953 21.2969 68.8909C20.9587 68.5864 16.4167 63.8845 15.5151 63.0727C14.6134 62.2608 13.2946 61.6856 12.1507 60.3495Z" stroke="black" stroke-width="0.335905"/>
      <path d="M15.5908 45.8865C16.1487 46.2868 16.7179 46.9013 17.1463 46.8788C17.5747 46.8564 19.0118 47.6402 19.8008 48.3506" stroke="black" stroke-width="0.335905"/>
      <path d="M20.9961 67.081C21.0354 67.8307 21.554 67.4813 21.757 67.2559L21.9806 66.922C21.8065 66.6387 21.6149 66.3185 21.3684 65.9876C21.2252 65.7955 21.0354 65.5875 20.8174 65.3722C20.8639 65.6919 20.9647 66.4813 20.9961 67.081Z" fill="white"/>
      <path d="M23.3437 54.5008C23.5316 54.67 23.8937 55.1593 23.8394 55.7635M22.5365 59.5904C22.9025 59.1417 23.6417 57.9217 23.6702 56.6315M27.0916 56.3448C27.039 56.0254 26.9904 55.2333 27.216 54.6201M23.8937 64.9962C24.1926 64.5509 24.8015 63.8747 25.337 63.8466C25.8724 63.8186 26.1937 63.8017 26.5262 63.9991C26.8587 64.1964 27.2927 64.2811 27.7211 64.2586C28.0638 64.2407 28.4276 64.0784 28.5666 63.9995M25.1335 66.1125C25.1993 66.0016 25.3951 65.7766 25.6522 65.7631C25.9735 65.7463 26.306 65.9436 26.4187 66.0451M30.5336 64.6482L31.5485 63.5211M15.1358 59.7635C15.175 60.5132 15.1353 61.8039 16.0089 62.0803C16.8825 62.3567 17.3109 62.3343 18.0998 63.0446C18.7259 63.6083 19.9799 64.5447 20.8174 65.3722M30.6403 66.683C30.1385 67.3536 29.4281 68.1426 28.7968 68.3904C28.1654 68.6383 27.3821 68.035 26.7227 67.7474C26.0633 67.4598 25.5446 67.8092 25.0091 67.8372C24.4737 67.8653 23.6281 68.1244 22.9743 67.9439C22.5531 67.8276 22.2957 67.4352 21.9806 66.922M20.8174 65.3722C21.0354 65.5875 21.2252 65.7955 21.3684 65.9876C21.6149 66.3185 21.8065 66.6387 21.9806 66.922M20.8174 65.3722C20.8639 65.6919 20.9647 66.4813 20.9961 67.081C21.0354 67.8307 21.554 67.4813 21.757 67.2559L21.9806 66.922" stroke="black" stroke-width="0.335905"/>
      <path d="M16.0332 54.347C16.4352 54.5049 17.5741 55.0609 18.9131 56.0217C20.5869 57.2226 21.2743 58.0457 21.9899 59.4043" stroke="black" stroke-width="0.335905"/>
      <path d="M16.252 54.4429L16.4372 57.977C17.0063 58.5915 20.3599 59.0601 21.7522 58.9871C20.1565 56.4075 17.4205 54.8828 16.252 54.4429Z" fill="white" stroke="black" stroke-width="0.335905"/>
      <path d="M19.1678 58.8005C18.3563 58.0699 18.2139 56.309 18.2442 55.5199C20.1062 56.6251 21.3606 58.2919 21.755 58.9871C21.073 58.9513 19.6007 58.8638 19.1678 58.8005Z" fill="#008086" stroke="black" stroke-width="0.335905"/>
      <circle cx="19.4034" cy="57.1773" r="0.536211" transform="rotate(-3 19.4034 57.1773)" fill="white"/>
      <circle cx="19.7524" cy="57.6959" r="0.643453" transform="rotate(-3 19.7524 57.6959)" fill="black"/>
      <path d="M27.7296 56.204C27.6619 56.5512 27.7687 57.6338 27.8306 58.1317C28.638 57.1444 29.0918 56.24 29.2177 55.9112L28.9591 53.0253C28.5775 53.9402 27.7973 55.8568 27.7296 56.204Z" fill="white" stroke="black" stroke-width="0.335905"/>
      <path d="M28.7311 56.9032C28.8441 55.7804 28.6133 54.6542 28.4837 54.2314L27.728 56.204L27.7448 56.5253L27.8346 58.2388C28.0019 58.0153 28.4154 57.4352 28.7311 56.9032Z" fill="#008086" stroke="black" stroke-width="0.335905"/>
      <path d="M28.2869 56.6044C28.3004 56.8614 27.943 56.8729 27.7627 56.8466L27.7234 56.0969C27.7854 55.9147 27.9523 55.548 28.1237 55.539C28.3379 55.5278 28.2701 56.2831 28.2869 56.6044Z" fill="black" stroke="black" stroke-width="0.335905"/>
      <g filter="url(#filter1_d_440_15997)">
        <rect x="-4.8252" y="8.19635" width="48.559" height="94.0323" rx="2.59847" transform="rotate(-3 -4.8252 8.19635)" fill="#A158ED"/>
        <rect x="-4.19629" y="20.1978" width="48.559" height="2.92328" transform="rotate(-3 -4.19629 20.1978)" fill="white"/>
        <rect x="-4.14551" y="21.1709" width="48.559" height="0.974428" transform="rotate(-3 -4.14551 21.1709)" fill="#61B9F5"/>
        <g clip-path="url(#clip1_440_15997)">
          <rect x="-4.04297" y="23.1171" width="48.559" height="74.2189" transform="rotate(-3 -4.04297 23.1171)" fill="#F0F0CE"/>
          <path d="M47.6887 81.9785C44.2196 77.0353 33.8561 74.625 -2.52619 69.0613C-2.74528 81.9867 -3.10254 108.719 -2.77888 112.247C-2.3743 116.656 20.7673 114.574 33.5766 113.99C43.8241 113.522 50.4546 108.27 52.489 105.702C52.0452 99.4418 50.4639 85.9331 47.6887 81.9785Z" fill="url(#paint0_linear_440_15997)"/>
          <path d="M27.1305 18.5561L20.9197 43.2807L46.6715 57.2131L46.5089 19.5376L27.1305 18.5561Z" fill="#DFD67A"/>
          <path d="M24.4634 42.6239L10.0323 20.6703L-5.00684 20.2404L-3.5789 47.4869L24.4634 42.6239Z" fill="#7A6641"/>
          <path d="M10.9714 42.6118L-3.87945 41.7492L-3.1166 56.3052L46.9315 67.9329L45.785 46.0557C38.2841 45.0094 22.7133 42.6356 20.4378 41.5112C20.2116 38.8456 19.4299 38.8002 14.7673 39.0446C11.0371 39.2401 10.6825 41.5042 10.9714 42.6118Z" fill="#A1804A"/>
          <path d="M29.9415 36.1466C26.3486 40.8133 26.2458 48.9599 26.6435 52.4499C26.7703 54.0713 27.5934 56.526 29.8714 53.3741C32.7189 49.4343 33.8665 40.1719 33.1731 36.7763C32.4797 33.3808 31.4398 34.1039 29.9415 36.1466Z" fill="#F4D458"/>
          <path d="M26.6435 52.4499C26.2458 48.9599 26.3486 40.8133 29.9415 36.1466C31.4398 34.1039 32.4797 33.3808 33.1731 36.7763C33.8665 40.1719 32.7189 49.4343 29.8714 53.3741" stroke="black" stroke-width="0.384908" stroke-linecap="round"/>
          <path d="M31.4155 39.3253C30.1242 38.5589 28.9311 39.6641 27.3874 42.0386C28.3844 37.1906 31.1648 34.5426 31.7778 34.302C32.3907 34.0613 32.8938 35.7031 33.1562 36.7319C33.3662 37.555 33.4035 40.1247 33.396 41.3067C33.1662 40.9017 32.4485 39.9384 31.4155 39.3253Z" fill="black" stroke="black" stroke-width="0.384908"/>
          <path d="M30.9172 65.6243C29.7022 66.3135 26.6157 67.1008 24.5472 67.4177C17.7287 68.6091 15.6055 67.8863 13.3736 65.0841C9.96834 60.8087 11.1424 58.32 11.8544 55.9891C12.706 53.201 15.6863 49.5328 16.8904 48.6356C18.0945 47.7385 23.0524 46.8531 28.3709 48.868C33.6894 50.8829 33.841 57.756 34.1907 60.4484C34.5403 63.1407 32.1321 64.935 30.9172 65.6243Z" fill="#F4D458" stroke="black" stroke-width="0.384908"/>
          <path fill-rule="evenodd" clip-rule="evenodd" d="M33.7858 58.5053C33.8287 58.8664 33.8648 59.2072 33.898 59.5209C33.9349 59.87 33.9683 60.1855 34.0037 60.4582C34.1799 61.8152 33.6555 62.9441 32.9364 63.8184C32.5435 63.3048 32.2715 62.645 32.1893 61.907C32.0209 60.3939 32.7035 59.0261 33.7858 58.5053Z" fill="#E95C45"/>
          <path d="M28.3466 60.3376C28.3684 60.7535 27.8979 60.5279 27.7228 60.3703C27.7192 60.301 27.7535 60.1602 27.9199 60.1515C28.0862 60.1427 28.2737 60.2719 28.3466 60.3376Z" stroke="black" stroke-width="0.384908"/>
          <path d="M5.14903 39.4508C6.28594 45.2296 12.3406 50.6812 15.2257 52.6847C16.5279 53.659 18.9157 54.6598 18.0498 50.8686C16.9674 46.1294 10.7635 39.1566 7.75421 37.4376C4.74492 35.7187 4.60237 36.9773 5.14903 39.4508Z" fill="#F4D458"/>
          <path d="M11.464 40.5795C8.78254 41.137 8.59551 45.5256 9.08768 46.9594C5.75056 42.964 4.89789 38.6299 4.85429 37.7981C4.8107 36.9664 5.00775 36.7475 6.04747 36.693C7.08718 36.6385 9.71328 39.0031 11.464 40.5795Z" fill="black" stroke="black" stroke-width="0.384908"/>
          <path d="M24.4936 62.4162C25.1502 63.0073 27.2405 63.1063 27.8207 62.2418C28.1877 61.6951 28.4616 62.115 28.6525 62.1982C29.0793 62.3844 29.517 62.7785 30.2834 61.4872" stroke="black" stroke-width="0.384908" stroke-linecap="round"/>
          <path d="M15.2257 52.6847C12.3406 50.6812 6.28594 45.2296 5.14903 39.4508C4.60237 36.9773 4.74492 35.7187 7.75421 37.4376C10.7635 39.1566 16.9674 46.1294 18.0498 50.8685" stroke="black" stroke-width="0.384908" stroke-linecap="round"/>
          <ellipse cx="17.1776" cy="63.1148" rx="2.70698" ry="3.33166" transform="rotate(-23.2572 17.1776 63.1148)" fill="#E95C45"/>
          <circle cx="19.6905" cy="58.2891" r="2.29052" transform="rotate(-3 19.6905 58.2891)" fill="black"/>
          <ellipse cx="31.4162" cy="57.0625" rx="1.66583" ry="2.29052" transform="rotate(-11.5295 31.4162 57.0625)" fill="black"/>
          <circle cx="20.2816" cy="57.6325" r="0.832916" transform="rotate(-3 20.2816 57.6325)" fill="white"/>
          <ellipse cx="30.8426" cy="56.245" rx="0.624687" ry="0.832916" transform="rotate(-10.3782 30.8426 56.245)" fill="white"/>
        </g>
      </g>
    </g>
  </g>
  <defs>
    <filter id="filter0_d_440_15997" x="-7" y="-3.49558" width="66.7394" height="111.386" filterUnits="userSpaceOnUse" color-interpolation-filters="sRGB">
      <feFlood flood-opacity="0" result="BackgroundImageFix"/>
      <feColorMatrix in="SourceAlpha" type="matrix" values="0 0 0 0 0 0 0 0 0 0 0 0 0 0 0 0 0 0 127 0" result="hardAlpha"/>
      <feOffset dx="6" dy="-4"/>
      <feGaussianBlur stdDeviation="2.57527"/>
      <feComposite in2="hardAlpha" operator="out"/>
      <feColorMatrix type="matrix" values="0 0 0 0 0.784314 0 0 0 0 0.843137 0 0 0 0 0.909804 0 0 0 0.25 0"/>
      <feBlend mode="normal" in2="BackgroundImageFix" result="effect1_dropShadow_440_15997"/>
      <feBlend mode="normal" in="SourceGraphic" in2="effect1_dropShadow_440_15997" result="shape"/>
    </filter>
    <filter id="filter1_d_440_15997" x="-9.8056" y="5.65497" width="63.3749" height="106.406" filterUnits="userSpaceOnUse" color-interpolation-filters="sRGB">
      <feFlood flood-opacity="0" result="BackgroundImageFix"/>
      <feColorMatrix in="SourceAlpha" type="matrix" values="0 0 0 0 0 0 0 0 0 0 0 0 0 0 0 0 0 0 127 0" result="hardAlpha"/>
      <feOffset dy="4.98041"/>
      <feGaussianBlur stdDeviation="2.4902"/>
      <feComposite in2="hardAlpha" operator="out"/>
      <feColorMatrix type="matrix" values="0 0 0 0 0.784314 0 0 0 0 0.843137 0 0 0 0 0.909804 0 0 0 0.25 0"/>
      <feBlend mode="normal" in2="BackgroundImageFix" result="effect1_dropShadow_440_15997"/>
      <feBlend mode="normal" in="SourceGraphic" in2="effect1_dropShadow_440_15997" result="shape"/>
    </filter>
    <linearGradient id="paint0_linear_440_15997" x1="69.876" y1="104.877" x2="-9.33394" y2="82.0741" gradientUnits="userSpaceOnUse">
      <stop stop-color="#64513C"/>
      <stop offset="0.87" stop-color="#FFFFF6"/>
    </linearGradient>
    <clipPath id="clip0_440_15997">
      <rect width="48" height="80" fill="white"/>
    </clipPath>
    <clipPath id="clip1_440_15997">
      <rect width="48.559" height="74.2189" fill="white" transform="translate(-4.04297 23.1171) rotate(-3)"/>
    </clipPath>
  </defs>
</svg>
