<svg width="99" height="149" viewBox="0 0 99 149" fill="none" xmlns="http://www.w3.org/2000/svg">
<g opacity="0.2" filter="url(#filter0_d_40001319_57283)">
<rect y="22.2129" width="65.4723" height="126.784" rx="3.50353" transform="rotate(-9 0 22.2129)" fill="#A158ED"/>
<rect x="2.53418" y="38.2168" width="65.4723" height="3.94148" transform="rotate(-9 2.53418 38.2168)" fill="white"/>
<rect x="2.74023" y="39.5156" width="65.4723" height="1.31383" transform="rotate(-9 2.74023 39.5156)" fill="#61B9F5"/>
<rect x="3.14941" y="42.1094" width="65.4723" height="100.07" transform="rotate(-9 3.14941 42.1094)" fill="#4D6ECB"/>
<path d="M10.0703 85.7969L77.8366 95.1276L81.6731 119.35L17.0069 129.593L10.0703 85.7969Z" fill="#65612E"/>
<path d="M37.2622 120.179C26.6501 119.554 17.2699 113.147 13.9062 110.021L18.8047 140.949L83.4709 130.707L80.1824 109.944C70.2974 113.616 47.8743 120.803 37.2622 120.179Z" fill="#CDB389"/>
<path d="M35.2188 96.8032C33.5535 95.2267 34.4314 91.8317 34.5176 89.6946C34.7442 87.2522 34.0802 86.9327 33.7302 84.7231C33.3803 82.5136 29.6203 78.4376 26.9008 76.4618C24.1814 74.4859 23.3228 72.6401 24.7393 70.8585C26.1559 69.077 33.7401 74.9538 36.2996 76.8134C38.8591 78.673 40.3126 78.0181 42.9433 76.7521C45.574 75.4861 43.4631 69.3086 43.0913 66.9609C42.7194 64.6133 41.977 62.6074 44.281 61.9594C46.5849 61.3114 47.874 66.7697 49.7662 71.5662C51.6584 76.3627 53.7093 78.586 55.0547 79.9301C56.4 81.2742 56.0664 82.7426 55.9652 83.8911C55.8639 85.0397 56.4901 87.2055 56.985 88.5427C57.4799 89.8799 58.0692 90.9191 58.9059 92.6269C59.7427 94.3346 60.4113 94.0872 61.4148 95.0607C62.4184 96.0343 62.041 97.2265 61.8742 97.9608C61.7073 98.695 61.1918 99.9091 60.7925 100.963C60.3933 102.017 59.8121 102.817 59.6891 103.828C59.566 104.838 58.3381 106.024 57.2333 106.199C56.1285 106.374 54.9513 106.985 53.5416 107.916C52.1319 108.847 48.7219 106.98 48.242 106.632C47.7621 106.283 41.2321 100.805 39.9523 99.8757C38.6725 98.9459 36.8841 98.3798 35.2188 96.8032Z" fill="#F29600" stroke="black" stroke-width="0.437942"/>
<path d="M44.8491 101.774C43.3919 101.672 42.2131 100.529 39.7025 99.3747L39.7367 99.591L44.9582 103.863L47.2301 105.609L48.8928 107.009L50.9195 107.907L53.1679 108.105L54.5962 107.325L56.2408 106.51L58.0448 106.003L59.3136 104.915L59.774 103.623L59.3415 103.691L60.1435 102.456L61.832 98.4193L62.0473 96.2791L61.4092 95.0499L60.4071 94.3218L59.3707 93.3775L58.3965 91.4256L56.9779 88.7682L56.2307 85.4502L56.008 84.0444L56.0467 81.4887L55.4257 80.3677L53.2845 78.0465L51.2738 75.1503L49.8489 71.0528L47.2335 65.0377L46.0997 62.7786C44.5848 60.9124 42.5331 62.6562 42.7249 63.8674C42.9647 65.3813 43.1414 65.7967 43.0792 66.8042C43.0171 67.8117 44.3168 71.8181 44.5052 73.0077C44.6936 74.1972 44.1989 75.2731 43.8691 75.9905L43.8691 75.9905C43.2746 77.2837 41.5704 77.5739 41.0297 77.6596C40.5971 77.7281 39.2085 78.0589 38.5596 78.1616C38.8348 78.2659 39.4352 78.5107 39.6356 78.6563C39.8862 78.8383 42.7266 79.2753 44.3091 79.468C45.8915 79.6608 50.0746 78.7766 51.1677 79.3794C52.2608 79.9822 54.4877 82.8441 54.7618 84.5743C55.0358 86.3045 56.449 89.6279 56.6941 90.4759C56.9393 91.3239 57.6116 92.7693 58.8932 94.5616C60.1747 96.3539 60.0323 96.1548 59.3213 97.2651C58.6104 98.3753 57.6885 98.8539 56.7442 99.8902C55.7998 100.927 54.5868 99.5668 53.363 99.539C52.1393 99.5111 52.0258 100.194 51.3373 100.747C50.6488 101.299 50.1884 102.591 49.1638 102.421C48.1392 102.251 46.3062 101.876 44.8491 101.774Z" fill="#D7890A"/>
<path d="M35.2188 96.8032C33.5535 95.2267 34.4314 91.8317 34.5176 89.6946C34.7442 87.2522 34.0802 86.9327 33.7302 84.7231C33.3803 82.5136 29.6203 78.4376 26.9008 76.4618C24.1814 74.4859 23.3228 72.6401 24.7393 70.8585C26.1559 69.077 33.7401 74.9538 36.2996 76.8134C38.8591 78.673 40.3126 78.0181 42.9433 76.7521C45.574 75.4861 43.4631 69.3086 43.0913 66.9609C42.7194 64.6133 41.977 62.6074 44.281 61.9594C46.5849 61.3114 47.874 66.7697 49.7662 71.5662C51.6584 76.3627 53.7093 78.586 55.0547 79.9301C56.4 81.2742 56.0664 82.7426 55.9652 83.8911C55.8639 85.0397 56.4901 87.2055 56.985 88.5427C57.4799 89.8799 58.0692 90.9191 58.9059 92.6269C59.7427 94.3346 60.4113 94.0872 61.4148 95.0607C62.4184 96.0343 62.041 97.2265 61.8742 97.9608C61.7073 98.695 61.1918 99.9091 60.7925 100.963C60.3933 102.017 59.8121 102.817 59.6891 103.828C59.566 104.838 58.3381 106.024 57.2333 106.199C56.1285 106.374 54.9513 106.985 53.5416 107.916C52.1319 108.847 48.7219 106.98 48.242 106.632C47.7621 106.283 41.2321 100.805 39.9523 99.8757C38.6725 98.9459 36.8841 98.3798 35.2188 96.8032Z" stroke="black" stroke-width="0.437942"/>
<path d="M37.709 77.582C38.487 78.0251 39.3087 78.7443 39.8611 78.6568C40.4135 78.5693 42.3837 79.3897 43.5035 80.2033" stroke="black" stroke-width="0.437942"/>
<path d="M47.6052 104.327C47.7583 105.293 48.3832 104.77 48.6156 104.45L48.86 103.986C48.5958 103.643 48.3037 103.254 47.9389 102.858C47.7271 102.629 47.4527 102.385 47.1407 102.135C47.2445 102.544 47.4827 103.553 47.6052 104.327Z" fill="white"/>
<path d="M48.9347 87.695C49.2014 87.8887 49.7376 88.4739 49.7496 89.2647M48.5818 94.4043C48.9952 93.7726 49.7873 92.09 49.6484 90.4132M54.0456 89.5752C53.934 89.1682 53.7629 88.1478 53.9719 87.3219M51.0782 101.229C51.405 100.611 52.1024 99.6507 52.7929 99.5414C53.4834 99.432 53.8977 99.3664 54.3557 99.577C54.8137 99.7875 55.388 99.8382 55.9404 99.7507C56.3823 99.6807 56.8319 99.4207 57.0014 99.2995M52.8379 102.507C52.9081 102.354 53.1313 102.036 53.4628 101.983C53.8771 101.918 54.3351 102.128 54.4951 102.245M59.6403 99.8725L60.8025 98.2728M39.0093 95.6373C39.1624 96.604 39.2868 98.283 40.4572 98.5224C41.6276 98.7617 42.18 98.6742 43.2998 99.4878C44.1883 100.133 45.9419 101.177 47.1407 102.135M60.0558 102.496C59.4966 103.434 58.683 104.554 57.8982 104.961C57.1133 105.369 56.0154 104.693 55.1212 104.41C54.227 104.127 53.6022 104.651 52.9117 104.76C52.2212 104.87 51.1602 105.321 50.2878 105.176C49.7258 105.083 49.3386 104.609 48.86 103.986M47.1407 102.135C47.4527 102.385 47.7271 102.629 47.9389 102.858C48.3037 103.254 48.5958 103.643 48.86 103.986M47.1407 102.135C47.2445 102.544 47.4827 103.553 47.6052 104.327C47.7583 105.293 48.3832 104.77 48.6156 104.45L48.86 103.986" stroke="black" stroke-width="0.437942"/>
<path d="M39.4355 88.4902C39.9784 88.6402 41.5308 89.2059 43.3979 90.2692C45.7318 91.5983 46.7354 92.5718 47.8483 94.2359" stroke="black" stroke-width="0.437942"/>
<path d="M39.7314 88.5859L40.4532 93.1431C41.275 93.8624 45.6872 94.0129 47.4825 93.7286C45.0619 90.6012 41.3066 88.9971 39.7314 88.5859Z" fill="white" stroke="black" stroke-width="0.437942"/>
<path d="M44.1066 93.838C42.9549 93.0011 42.5302 90.7373 42.4619 89.71C45.0269 90.8893 46.8805 92.8796 47.4866 93.7273C46.5974 93.7738 44.6765 93.8609 44.1066 93.838Z" fill="#008086" stroke="black" stroke-width="0.437942"/>
<circle cx="44.1914" cy="91.7022" r="0.699093" transform="rotate(-9 44.1914 91.7022)" fill="white"/>
<circle cx="44.7137" cy="92.3263" r="0.838912" transform="rotate(-9 44.7137 92.3263)" fill="black"/>
<path d="M54.8535 89.3057C54.813 89.7651 55.0991 91.1543 55.2472 91.7915C56.1595 90.4012 56.6246 89.1668 56.7431 88.7233L56.0145 85.0165C55.6443 86.2548 54.894 88.8463 54.8535 89.3057Z" fill="white" stroke="black" stroke-width="0.437942"/>
<path d="M56.2477 90.0759C56.2412 88.6047 55.7884 87.1758 55.5628 86.6453L54.8517 89.3061L54.9173 89.7204L55.2673 91.9299C55.4537 91.6173 55.9108 90.8087 56.2477 90.0759Z" fill="#008086" stroke="black" stroke-width="0.437942"/>
<path d="M55.6309 89.7482C55.6834 90.0796 55.2216 90.1433 54.9841 90.1337L54.831 89.167C54.8867 88.9223 55.0531 88.4241 55.2741 88.3891C55.5503 88.3453 55.5653 89.3339 55.6309 89.7482Z" fill="black" stroke="black" stroke-width="0.437942"/>
<rect y="22.3965" width="65.4723" height="126.31" rx="3.50353" transform="rotate(-9 0 22.3965)" fill="#005BA6"/>
</g>
<rect x="3.45996" y="16.2012" width="65.2154" height="126.287" rx="3.48979" transform="rotate(-9 3.45996 16.2012)" fill="#C9B18B"/>
<rect x="5.98438" y="32.1426" width="65.2154" height="3.92601" transform="rotate(-9 5.98438 32.1426)" fill="white"/>
<rect x="6.18945" y="33.4355" width="65.2154" height="1.30867" transform="rotate(-9 6.18945 33.4355)" fill="#61B9F5"/>
<rect width="65.2154" height="99.677" transform="translate(6.59863 36.0195) rotate(-9)" fill="url(#paint0_linear_40001319_57283)"/>
<path d="M24.8038 60.6915C22.1938 65.9631 22.4044 69.9415 22.8359 71.2718C24.8402 69.5189 28.751 65.6754 28.3603 64.3239C27.8719 62.6346 27.8806 57.1125 27.9766 56.3244C28.0726 55.5363 28.0663 54.1019 24.8038 60.6915Z" fill="#262683" stroke="black" stroke-width="0.218112"/>
<path d="M39.0167 83.5052C39.1074 83.3804 40.881 81.3329 42.774 80.0393L47.5899 85.3494L43.5008 94.3886L38.9545 95.6607L35.4926 100.294C34.7272 100.342 32.9595 100.475 32.0117 100.625C31.0639 100.775 30.7544 99.4254 30.7181 98.7319L27.9293 99.9465L25.677 96.8804L30.7332 94.6441C29.1175 94.9 25.5811 95.4381 24.3611 95.543C23.6061 93.5647 23.8546 91.6482 24.0924 91.0585C26.5536 92.7004 29.2727 92.3002 30.4661 91.851C30.2735 91.9017 29.8682 91.9698 29.1048 92.0313C27.9709 92.1225 25.4451 90.0713 24.3239 89.0343C24.8981 88.2441 26.1801 86.5321 26.715 86.0057C28.1133 88.6992 31.2221 89.598 32.6018 89.7107L31.5972 87.5511C32.6477 86.9799 34.7589 85.902 34.7999 86.1606C34.8408 86.4191 35.9367 88.2256 36.4795 89.0966L39.0519 85.8184C39.0099 85.0889 38.9442 83.605 39.0167 83.5052Z" fill="#E9F4FB" stroke="black" stroke-width="0.218112"/>
<path d="M34.857 99.069C34.8982 98.4 34.9739 97.0188 34.9466 96.8465C34.9125 96.6311 30.5869 97.2058 30.5304 97.546C30.4738 97.8862 30.8033 99.2694 30.9228 100.023" stroke="black" stroke-width="0.218112"/>
<path d="M66.44 71.2106L64.1044 71.8014L69.2031 75.4104L66.44 71.2106Z" fill="#E9F4FB" stroke="black" stroke-width="0.218112"/>
<path d="M52.7159 74.4882L54.1098 72.832C55.5858 72.8559 58.8157 73.1246 59.9274 74.0085C61.039 74.8924 60.2603 78.6668 59.732 80.4435" stroke="black" stroke-width="0.218112"/>
<path d="M41.6227 56.0408C12.2694 63.119 22.6197 82.4586 24.52 84.6972C25.2845 83.2511 27.7902 81.6397 27.6259 81.9969C27.4617 82.3542 27.4904 83.233 27.644 84.2024C29.8952 85.1708 31.8394 84.2004 33.3304 83.8538C34.5231 83.5766 37.4278 80.4445 38.7311 78.9131C40.1754 79.8989 43.4486 82.2071 44.9868 83.5534C46.9096 85.2364 45.4645 86.5694 43.8732 90.4651C42.2819 94.3609 43.0847 101.521 54.2869 99.7469C65.4891 97.9726 63.478 89.4579 62.4564 87.1906C61.4348 84.9233 55.432 75.6054 54.0253 74.3928C52.6187 73.1802 49.4204 71.8097 49.205 71.8438C48.9896 71.8779 46.6413 69.5999 45.6772 69.0901C44.7132 68.5803 42.8192 67.7761 42.1729 67.8785C40.3388 61.8753 40.8303 58.7058 41.6227 56.0408Z" fill="#E9F4FB" stroke="black" stroke-width="0.218112"/>
<path d="M43.8738 90.4647C42.2825 94.3605 43.0853 101.521 54.2875 99.7465C61.4465 98.6126 63.209 94.7259 63.2821 91.4761L52.2232 86.7132L49.141 90.9555L46.8322 88.2295L43.8738 90.4647Z" fill="#2292CA" stroke="black" stroke-width="0.218112"/>
<path d="M29.1522 83.9616C27.8426 84.0586 28.057 81.9267 28.2213 81.5695L30.222 80.2588L32.1555 80.6151C32.3688 80.1028 32.911 78.9717 33.3734 78.5451C33.8359 78.1186 34.7414 77.8868 35.1363 77.8242L35.4434 79.7631C34.6841 80.5458 33.0316 82.243 32.4967 82.7694C31.828 83.4273 30.4618 83.8645 29.1522 83.9616Z" fill="#41150E" stroke="black" stroke-width="0.218112"/>
<path d="M29.1525 83.9628C28.9343 83.979 29.1685 81.9728 29.3328 81.6155L30.2223 80.2601L32.1558 80.6164C32.3691 80.1041 32.9113 78.973 33.3737 78.5464C33.8362 78.1198 34.7417 77.8881 35.1366 77.8255L35.4437 79.7644C34.6843 80.5471 33.0319 82.2442 32.497 82.7706C31.8283 83.4286 30.4621 83.8659 29.1525 83.9628Z" fill="#EA7D8E" stroke="black" stroke-width="0.218112"/>
<path d="M30.9831 83.6728L30.8125 82.5957L32.1168 83.162L30.9831 83.6728Z" fill="white" stroke="black" stroke-width="0.218112"/>
<path d="M28.6077 82.6126L28.8125 83.9051C28.2818 83.9008 28.1413 83.3857 28.1374 83.1287L28.6077 82.6126Z" fill="white" stroke="black" stroke-width="0.218112"/>
<path d="M40.3895 73.3498C40.3447 74.4611 39.4903 78.1297 38.7481 79.0201" stroke="black" stroke-width="0.218112"/>
<path d="M54.124 77.7988C55.2658 78.5013 58.0421 81.0649 60.0128 85.6994" stroke="black" stroke-width="0.218112"/>
<path d="M28.4147 70.939L27.5858 80.3452L38.1109 73.5991C40.6901 68.7372 46.0015 58.7241 46.6132 57.5672C47.3779 56.1211 46.5333 56.3653 45.5244 56.9668C44.7173 57.4479 33.7816 66.4821 28.4147 70.939Z" fill="#262683" stroke="black" stroke-width="0.218112"/>
<path d="M35.4069 75.3542L29.4783 79.0536C28.1108 74.3236 31.9368 70.6407 34.0207 69.3905L35.4069 75.3542Z" fill="white" stroke="black" stroke-width="0.218112"/>
<path d="M31.0825 78.0256C30.7764 78.1845 29.5735 76.1667 29.3293 75.322C29.4594 74.7493 30.2241 73.3032 30.9323 72.1973C32.1395 73.6845 32.208 76.3015 32.0914 77.4241C31.8571 77.5716 31.3273 77.8984 31.0825 78.0256Z" fill="black" stroke="black" stroke-width="0.218112"/>
<path d="M30.7915 74.0962C31.0357 74.9409 30.8715 75.2981 30.4918 75.6895C29.9703 75.8825 29.6749 74.7147 29.6408 74.4993C29.6135 74.327 30.0788 73.5466 30.3148 73.178C30.3923 73.2025 30.5962 73.4205 30.7915 74.0962Z" fill="white" stroke="black" stroke-width="0.218112"/>
<path d="M36.4795 89.0957C36.7973 89.7079 36.6554 89.5095 37.0468 89.8892" stroke="black" stroke-width="0.218112"/>
<path d="M54.1264 72.9414L52.7496 74.7052L59.7657 80.6606C60.294 78.8839 61.1633 74.9847 60.0517 74.1008C58.94 73.2169 55.6024 72.9652 54.1264 72.9414Z" fill="#E9F4FB"/>
<path d="M67.5097 89.8117L57.9851 90.3265C57.8522 89.0226 57.8073 86.1368 58.6913 85.0252C59.553 84.8887 63.5749 85.6503 65.4782 86.0481C63.2401 84.9304 58.2933 82.7916 56.4112 83.178C56.3336 82.1303 56.8838 79.4226 57.1686 78.1998C57.7716 78.1906 58.7418 78.282 59.9051 78.5597C59.0289 78.2572 58.1541 78.007 57.3328 77.8425C57.2304 77.1962 57.5974 73.9361 58.232 73.0626C58.8783 72.9603 61.2202 73.8039 61.6851 73.9511C61.7947 73.9858 62.1341 74.1557 62.6018 74.412C62.1106 74.0936 61.6605 73.8048 61.2938 73.5714L58.9967 71.6165C59.1364 71.3368 59.646 70.6966 60.5665 70.3742C61.4871 70.0517 62.5299 69.9896 62.9362 69.9988L71.1776 77.4163C71.3578 78.7864 71.6378 81.7159 71.3161 82.4735C70.9944 83.2311 68.6445 87.6813 67.5097 89.8117Z" fill="#E9F4FB" stroke="black" stroke-width="0.218112"/>
<defs>
<filter id="filter0_d_40001319_57283" x="0" y="0.134284" width="98.5328" height="148.311" filterUnits="userSpaceOnUse" color-interpolation-filters="sRGB">
<feFlood flood-opacity="0" result="BackgroundImageFix"/>
<feColorMatrix in="SourceAlpha" type="matrix" values="0 0 0 0 0 0 0 0 0 0 0 0 0 0 0 0 0 0 127 0" result="hardAlpha"/>
<feOffset dx="7.82259" dy="-5.21506"/>
<feGaussianBlur stdDeviation="3.35755"/>
<feComposite in2="hardAlpha" operator="out"/>
<feColorMatrix type="matrix" values="0 0 0 0 0.784314 0 0 0 0 0.843137 0 0 0 0 0.909804 0 0 0 0.25 0"/>
<feBlend mode="normal" in2="BackgroundImageFix" result="effect1_dropShadow_40001319_57283"/>
<feBlend mode="normal" in="SourceGraphic" in2="effect1_dropShadow_40001319_57283" result="shape"/>
</filter>
<linearGradient id="paint0_linear_40001319_57283" x1="32.6077" y1="0" x2="32.6077" y2="99.677" gradientUnits="userSpaceOnUse">
<stop stop-color="#44C7FD"/>
<stop offset="1" stop-color="#143563"/>
</linearGradient>
</defs>
</svg>
