<svg width="52" height="104" viewBox="0 0 52 104" fill="none" xmlns="http://www.w3.org/2000/svg">
<g clip-path="url(#clip0_40001101_50820)">
<g filter="url(#filter0_d_40001101_50820)">
<rect x="-7" y="10.6289" width="50.2178" height="97.2445" rx="2.68724" transform="rotate(-3 -7 10.6289)" fill="#A158ED"/>
<rect x="-6.34961" y="23.041" width="50.2178" height="3.02315" transform="rotate(-3 -6.34961 23.041)" fill="white"/>
<rect x="-6.29688" y="24.0469" width="50.2178" height="1.00772" transform="rotate(-3 -6.29688 24.0469)" fill="#61B9F5"/>
<rect x="-6.19238" y="26.0586" width="50.2178" height="76.7543" transform="rotate(-3 -6.19238 26.0586)" fill="#4D6ECB"/>
<path d="M-4.41602 59.9395L46.5285 72.4901L47.513 91.275L-2.63605 93.9032L-4.41602 59.9395Z" fill="#65612E"/>
<path d="M13.5701 88.345C5.52525 87.0175 -1.11642 81.3783 -3.43164 78.7246L-2.17468 102.709L47.9743 100.081L47.1305 83.9794C39.2957 85.9877 21.615 89.6725 13.5701 88.345Z" fill="#CDB389"/>
<path d="M12.1507 61.3502C11.0068 60.014 11.9486 57.4947 12.1857 55.8715C12.5544 54.0265 12.0735 53.7296 11.9837 52.016C11.8939 50.3025 9.35256 46.8919 7.43653 45.1666C5.5205 43.4414 5.01354 41.9646 6.23694 40.7192C7.46035 39.4738 12.7744 44.5647 14.5778 46.1885C16.3811 47.8122 17.5423 47.4291 19.6505 46.6743C21.7588 45.9195 20.6438 41.038 20.5484 39.2174C20.453 37.3968 20.0475 35.8072 21.8569 35.4976C23.6663 35.188 24.2121 39.455 25.2709 43.2655C26.3297 47.076 27.7159 48.9364 28.6344 50.0695C29.5529 51.2027 29.1806 52.2961 29.0113 53.1641C28.8421 54.032 29.1461 55.7343 29.4164 56.7941C29.6867 57.8538 30.0529 58.6937 30.5542 60.0635C31.0556 61.4333 31.5854 61.2981 32.2729 62.1212C32.9604 62.9443 32.5769 63.8235 32.3908 64.3702C32.2046 64.9169 31.7141 65.8017 31.325 66.5739C30.9359 67.346 30.4285 67.9095 30.2536 68.6704C30.0787 69.4313 29.047 70.2371 28.1902 70.282C27.3335 70.3269 26.3865 70.6987 25.2365 71.2959C24.0865 71.8931 21.635 70.196 21.2969 69.8915C20.9587 69.5871 16.4167 64.8852 15.5151 64.0733C14.6134 63.2615 13.2946 62.6863 12.1507 61.3502Z" fill="#F29600" stroke="black" stroke-width="0.335905"/>
<path d="M19.0981 65.9133C17.9948 65.7188 17.1873 64.752 15.3646 63.6703L15.3734 63.838L19.0139 67.5154L20.6069 69.0297L21.763 70.2304L23.237 71.0782L24.9362 71.4096L26.0883 70.9288L27.4081 70.4391L28.825 70.1967L29.88 69.4687L30.3348 68.5198L29.9994 68.5374L30.7102 67.6593L32.3218 64.7157L32.6576 63.1003L32.2695 62.1116L31.5634 61.4759L30.8486 60.6724L30.2619 59.1054L29.3929 56.9646L29.0889 54.3737L29.0318 53.2835L29.2661 51.3371L28.8823 50.4322L27.4351 48.4898L26.1336 46.1194L25.3751 42.8796L23.8623 38.0815L23.1786 36.2674C22.1726 34.7223 20.4678 35.8881 20.517 36.8273C20.5785 38.0014 20.68 38.3324 20.5518 39.096C20.4236 39.8595 21.0938 43.0199 21.1422 43.9423C21.1905 44.8648 20.7269 45.6459 20.4178 46.1666L20.4178 46.1667C19.8606 47.1055 18.5374 47.1902 18.1181 47.2122C17.7826 47.2298 16.6968 47.3708 16.1936 47.3971C16.3952 47.4987 16.8336 47.7336 16.9748 47.8608C17.1513 48.0197 19.283 48.5807 20.4746 48.8546C21.6662 49.1285 24.928 48.7894 25.7135 49.3369C26.4991 49.8844 27.9683 52.246 28.0386 53.5878C28.1089 54.9296 28.9205 57.578 29.0395 58.2445C29.1585 58.911 29.5555 60.0674 30.3893 61.5374C31.2232 63.0073 31.1306 62.844 30.4992 63.6339C29.8679 64.4238 29.1263 64.715 28.3229 65.4298C27.5194 66.1446 26.7031 65.0101 25.7719 64.8908C24.8406 64.7714 24.6993 65.2833 24.1298 65.6496C23.5604 66.0158 23.1055 66.9646 22.3376 66.7526C21.5697 66.5405 20.2015 66.1077 19.0981 65.9133Z" fill="#D7890A"/>
<path d="M12.1507 61.3502C11.0068 60.014 11.9486 57.4947 12.1857 55.8715C12.5544 54.0265 12.0735 53.7296 11.9837 52.016C11.8939 50.3025 9.35256 46.8919 7.43653 45.1666C5.5205 43.4414 5.01354 41.9646 6.23694 40.7192C7.46035 39.4738 12.7744 44.5647 14.5778 46.1885C16.3811 47.8122 17.5423 47.4291 19.6505 46.6743C21.7588 45.9195 20.6438 41.038 20.5484 39.2174C20.453 37.3968 20.0475 35.8072 21.8569 35.4976C23.6663 35.188 24.2121 39.455 25.2709 43.2655C26.3297 47.076 27.7159 48.9364 28.6344 50.0695C29.5529 51.2027 29.1806 52.2961 29.0113 53.1641C28.8421 54.032 29.1461 55.7343 29.4164 56.7941C29.6867 57.8538 30.0529 58.6937 30.5542 60.0635C31.0556 61.4333 31.5854 61.2981 32.2729 62.1212C32.9604 62.9443 32.5769 63.8235 32.3908 64.3702C32.2046 64.9169 31.7141 65.8017 31.325 66.5739C30.9359 67.346 30.4285 67.9095 30.2536 68.6704C30.0787 69.4313 29.047 70.2371 28.1902 70.282C27.3335 70.3269 26.3865 70.6987 25.2365 71.2959C24.0865 71.8931 21.635 70.196 21.2969 69.8915C20.9587 69.5871 16.4167 64.8852 15.5151 64.0733C14.6134 63.2615 13.2946 62.6863 12.1507 61.3502Z" stroke="black" stroke-width="0.335905"/>
<path d="M15.5908 46.8867C16.1487 47.287 16.7179 47.9015 17.1463 47.8791C17.5747 47.8566 19.0118 48.6404 19.8008 49.3508" stroke="black" stroke-width="0.335905"/>
<path d="M20.9961 68.0819C21.0354 68.8315 21.554 68.4822 21.757 68.2568L21.9806 67.9229C21.8065 67.6396 21.6149 67.3194 21.3684 66.9885C21.2252 66.7964 21.0354 66.5884 20.8174 66.373C20.8639 66.6927 20.9647 67.4821 20.9961 68.0819Z" fill="white"/>
<path d="M23.3437 55.5017C23.5316 55.6708 23.8937 56.1602 23.8394 56.7644M22.5365 60.5913C22.9025 60.1426 23.6417 58.9225 23.6702 57.6324M27.0916 57.3457C27.039 57.0263 26.9904 56.2341 27.216 55.6209M23.8937 65.997C24.1926 65.5518 24.8015 64.8756 25.337 64.8475C25.8724 64.8194 26.1937 64.8026 26.5262 64.9999C26.8587 65.1973 27.2927 65.2819 27.7211 65.2595C28.0638 65.2415 28.4276 65.0793 28.5666 65.0004M25.1335 67.1133C25.1993 67.0025 25.3951 66.7774 25.6522 66.764C25.9735 66.7471 26.306 66.9445 26.4187 67.046M30.5336 65.649L31.5485 64.522M15.1358 60.7644C15.175 61.514 15.1353 62.8048 16.0089 63.0812C16.8825 63.3576 17.3109 63.3351 18.0998 64.0455C18.7259 64.6092 19.9799 65.5456 20.8174 66.373M30.6403 67.6838C30.1385 68.3545 29.4281 69.1434 28.7968 69.3913C28.1654 69.6392 27.3821 69.0359 26.7227 68.7483C26.0633 68.4607 25.5446 68.81 25.0091 68.8381C24.4737 68.8661 23.6281 69.1252 22.9743 68.9447C22.5531 68.8284 22.2957 68.4361 21.9806 67.9229M20.8174 66.373C21.0354 66.5884 21.2252 66.7964 21.3684 66.9885C21.6149 67.3194 21.8065 67.6396 21.9806 67.9229M20.8174 66.373C20.8639 66.6927 20.9647 67.4821 20.9961 68.0819C21.0354 68.8315 21.554 68.4822 21.757 68.2568L21.9806 67.9229" stroke="black" stroke-width="0.335905"/>
<path d="M16.0332 55.3477C16.4352 55.5056 17.5741 56.0616 18.9131 57.0223C20.5869 58.2233 21.2743 59.0464 21.9899 60.4049" stroke="black" stroke-width="0.335905"/>
<path d="M16.252 55.4434L16.4372 58.9775C17.0063 59.592 20.3599 60.0606 21.7522 59.9876C20.1565 57.408 17.4205 55.8833 16.252 55.4434Z" fill="white" stroke="black" stroke-width="0.335905"/>
<path d="M19.1678 59.8009C18.3563 59.0702 18.2139 57.3094 18.2442 56.5203C20.1062 57.6254 21.3606 59.2922 21.755 59.9875C21.073 59.9516 19.6007 59.8641 19.1678 59.8009Z" fill="#008086" stroke="black" stroke-width="0.335905"/>
<circle cx="19.4034" cy="58.1773" r="0.536211" transform="rotate(-3 19.4034 58.1773)" fill="white"/>
<circle cx="19.7524" cy="58.6968" r="0.643453" transform="rotate(-3 19.7524 58.6968)" fill="black"/>
<path d="M27.7296 57.2048C27.6619 57.552 27.7687 58.6346 27.8306 59.1326C28.638 58.1452 29.0918 57.2408 29.2177 56.9121L28.9591 54.0261C28.5775 54.941 27.7973 56.8576 27.7296 57.2048Z" fill="white" stroke="black" stroke-width="0.335905"/>
<path d="M28.7311 57.9042C28.8441 56.7814 28.6133 55.6552 28.4837 55.2324L27.728 57.2051L27.7448 57.5263L27.8346 59.2399C28.0019 59.0163 28.4154 58.4362 28.7311 57.9042Z" fill="#008086" stroke="black" stroke-width="0.335905"/>
<path d="M28.2869 57.6054C28.3004 57.8624 27.943 57.874 27.7627 57.8476L27.7234 57.098C27.7854 56.9157 27.9523 56.549 28.1237 56.54C28.3379 56.5288 28.2701 57.2841 28.2869 57.6054Z" fill="black" stroke="black" stroke-width="0.335905"/>
<rect x="-7" y="10.6211" width="50.0915" height="97" rx="2.68048" transform="rotate(-3 -7 10.6211)" fill="#2D4DDE"/>
<rect x="-6.35156" y="23.002" width="50.0915" height="3.01554" transform="rotate(-3 -6.35156 23.002)" fill="white"/>
<rect x="-6.29883" y="24.0059" width="50.0915" height="1.00518" transform="rotate(-3 -6.29883 24.0059)" fill="#61B9F5"/>
<g clip-path="url(#clip1_40001101_50820)">
<rect x="-6.19336" y="26.0117" width="50.0915" height="76.5613" transform="rotate(-3 -6.19336 26.0117)" fill="url(#paint0_radial_40001101_50820)"/>
<path d="M8.20992 95.9694L-3.24496 95.0686L-2.76176 104.289L-2.45207 110.198L30.4104 112.589L49.6764 102.939L49.3169 96.0799L31.4994 97.0136L8.20992 95.9694Z" fill="#CAA2C5"/>
<path fill-rule="evenodd" clip-rule="evenodd" d="M-8.94809 100.126C-9.42702 99.4692 -9.80072 98.7184 -10.0376 97.8914C-11.1202 94.1111 -8.93331 90.1689 -5.15299 89.0863C-2.12422 88.2189 1.00846 89.4502 2.69114 91.9183C4.64277 91.9975 6.47397 92.8826 7.75027 94.3326C7.9819 94.2306 8.22315 94.1431 8.47326 94.0715C10.6683 93.4428 12.9326 94.2127 14.3141 95.853C14.6733 95.6563 15.0596 95.4961 15.4698 95.3787C18.0459 94.6409 20.7175 95.8294 21.9454 98.0904C24.7295 97.6143 27.4845 99.3007 28.2801 102.079C29.1335 105.059 27.4097 108.166 24.4299 109.019C22.9444 109.445 21.4273 109.23 20.1734 108.538C17.1751 110.447 12.8295 112.341 7.84122 113.77C-2.16549 116.636 -10.9693 116.543 -11.8227 113.564C-12.1999 112.247 -10.961 110.586 -8.59697 108.896C-11.4836 108.668 -13.4757 107.792 -13.8983 106.316C-14.4203 104.494 -12.4271 102.179 -8.94809 100.126Z" fill="#F5ECF5"/>
<g filter="url(#filter1_d_40001101_50820)">
<circle cx="39.9612" cy="36.0075" r="28.6477" transform="rotate(-3 39.9612 36.0075)" fill="#FFE5FF"/>
</g>
<mask id="path-28-inside-1_40001101_50820" fill="white">
<path fill-rule="evenodd" clip-rule="evenodd" d="M14.5857 35.1564C5.11288 37.6754 -1.62143 46.0145 -1.12263 55.5322C-0.54397 66.5737 9.55017 75.0202 21.4233 74.398C33.2963 73.7757 42.4523 64.3204 41.8736 53.2789C41.3807 43.8725 33.9818 36.3494 24.4603 34.7123L24.471 34.9176C31.5637 36.7241 36.9716 42.9689 37.3748 50.6626C37.8712 60.1334 30.596 68.2133 21.1252 68.7097C11.6545 69.206 3.57455 61.9308 3.07821 52.46C2.66858 44.6438 7.55234 37.7749 14.595 35.3345L14.5857 35.1564Z"/>
</mask>
<path fill-rule="evenodd" clip-rule="evenodd" d="M14.5857 35.1564C5.11288 37.6754 -1.62143 46.0145 -1.12263 55.5322C-0.54397 66.5737 9.55017 75.0202 21.4233 74.398C33.2963 73.7757 42.4523 64.3204 41.8736 53.2789C41.3807 43.8725 33.9818 36.3494 24.4603 34.7123L24.471 34.9176C31.5637 36.7241 36.9716 42.9689 37.3748 50.6626C37.8712 60.1334 30.596 68.2133 21.1252 68.7097C11.6545 69.206 3.57455 61.9308 3.07821 52.46C2.66858 44.6438 7.55234 37.7749 14.595 35.3345L14.5857 35.1564Z" fill="#FFF5A0"/>
<path d="M14.5857 35.1564L14.753 35.1476L14.7422 34.9414L14.5427 34.9945L14.5857 35.1564ZM24.4603 34.7123L24.4887 34.5472L24.282 34.5116L24.293 34.721L24.4603 34.7123ZM24.471 34.9176L24.3037 34.9264L24.3102 35.0495L24.4297 35.08L24.471 34.9176ZM14.595 35.3345L14.6499 35.4928L14.7689 35.4515L14.7623 35.3257L14.595 35.3345ZM-0.95533 55.5235C-1.44948 46.0945 5.22281 37.8195 14.6288 35.3183L14.5427 34.9945C5.00295 37.5313 -1.79338 45.9346 -1.28993 55.541L-0.95533 55.5235ZM21.4145 74.2307C9.62215 74.8487 -0.3821 66.4613 -0.95533 55.5235L-1.28993 55.541C-0.70584 66.6861 9.47819 75.1918 21.432 74.5653L21.4145 74.2307ZM41.7063 53.2876C42.2796 64.2255 33.2068 73.6127 21.4145 74.2307L21.432 74.5653C33.3859 73.9388 42.625 64.4153 42.0409 53.2701L41.7063 53.2876ZM24.4319 34.8774C33.886 36.5029 41.218 43.9689 41.7063 53.2876L42.0409 53.2701C41.5434 43.7761 34.0775 36.1959 24.4887 34.5472L24.4319 34.8774ZM24.293 34.721L24.3037 34.9264L24.6383 34.9088L24.6276 34.7035L24.293 34.721ZM37.5421 50.6539C37.135 42.8848 31.6741 36.5793 24.5124 34.7553L24.4297 35.08C31.4533 36.8688 36.8083 43.053 37.2075 50.6714L37.5421 50.6539ZM21.134 68.877C30.6972 68.3758 38.0433 60.217 37.5421 50.6539L37.2075 50.6714C37.699 60.0498 30.4948 68.0509 21.1165 68.5424L21.134 68.877ZM2.91091 52.4688C3.41209 62.032 11.5708 69.3781 21.134 68.877L21.1165 68.5424C11.7381 69.0339 3.73701 61.8296 3.24551 52.4513L2.91091 52.4688ZM14.5402 35.1762C7.42888 37.6404 2.49727 44.5761 2.91091 52.4688L3.24551 52.4513C2.83989 44.7115 7.67581 37.9094 14.6499 35.4928L14.5402 35.1762ZM14.7623 35.3257L14.753 35.1476L14.4184 35.1652L14.4277 35.3432L14.7623 35.3257Z" fill="black" mask="url(#path-28-inside-1_40001101_50820)"/>
<mask id="path-30-outside-2_40001101_50820" maskUnits="userSpaceOnUse" x="1.18243" y="33.5114" width="37.7824" height="36.8361" fill="black">
<rect fill="white" x="1.18243" y="33.5114" width="37.7824" height="36.8361"/>
<path fill-rule="evenodd" clip-rule="evenodd" d="M20.143 49.9713C24.8091 49.7268 28.4052 45.9707 28.1752 41.5818C28.0317 38.8439 26.4332 36.5066 24.1182 35.1949C28.0145 37.2978 30.888 42.1271 31.1897 47.8826C31.382 51.5521 30.4953 54.9564 28.88 57.5897C32.007 55.34 33.9207 51.9652 33.7283 48.2933C33.6152 46.135 32.7891 44.1548 31.4479 42.5011L31.7539 42.485C33.9737 44.8639 35.388 47.9527 35.5679 51.3844C35.6466 52.8871 35.4831 54.3491 35.1099 55.7361C36.4317 53.8737 37.2089 51.7596 37.2789 49.5342C37.3227 49.9065 37.3548 50.2827 37.3747 50.6624C37.8711 60.1332 30.5959 68.2131 21.1251 68.7094C11.6544 69.2058 3.57445 61.9306 3.07811 52.4598C3.05819 52.0797 3.05079 51.7018 3.05554 51.3266C3.35769 53.534 4.35252 55.5566 5.86321 57.2714C5.34648 55.9303 5.03067 54.4925 4.95187 52.9889C4.77202 49.5572 5.85574 46.3375 7.81472 43.7396L8.12074 43.7236C6.95978 45.5085 6.34518 47.5642 6.45829 49.7225C6.65068 53.3934 8.90564 56.549 12.2492 58.4597C10.3682 56.0099 9.13098 52.7175 8.93871 49.0488C8.63717 43.2951 10.9885 38.1933 14.6416 35.6938C12.4784 37.2405 11.1345 39.7309 11.2779 42.4673C11.5079 46.8562 15.4769 50.2159 20.143 49.9713Z"/>
</mask>
<path fill-rule="evenodd" clip-rule="evenodd" d="M20.143 49.9713C24.8091 49.7268 28.4052 45.9707 28.1752 41.5818C28.0317 38.8439 26.4332 36.5066 24.1182 35.1949C28.0145 37.2978 30.888 42.1271 31.1897 47.8826C31.382 51.5521 30.4953 54.9564 28.88 57.5897C32.007 55.34 33.9207 51.9652 33.7283 48.2933C33.6152 46.135 32.7891 44.1548 31.4479 42.5011L31.7539 42.485C33.9737 44.8639 35.388 47.9527 35.5679 51.3844C35.6466 52.8871 35.4831 54.3491 35.1099 55.7361C36.4317 53.8737 37.2089 51.7596 37.2789 49.5342C37.3227 49.9065 37.3548 50.2827 37.3747 50.6624C37.8711 60.1332 30.5959 68.2131 21.1251 68.7094C11.6544 69.2058 3.57445 61.9306 3.07811 52.4598C3.05819 52.0797 3.05079 51.7018 3.05554 51.3266C3.35769 53.534 4.35252 55.5566 5.86321 57.2714C5.34648 55.9303 5.03067 54.4925 4.95187 52.9889C4.77202 49.5572 5.85574 46.3375 7.81472 43.7396L8.12074 43.7236C6.95978 45.5085 6.34518 47.5642 6.45829 49.7225C6.65068 53.3934 8.90564 56.549 12.2492 58.4597C10.3682 56.0099 9.13098 52.7175 8.93871 49.0488C8.63717 43.2951 10.9885 38.1933 14.6416 35.6938C12.4784 37.2405 11.1345 39.7309 11.2779 42.4673C11.5079 46.8562 15.4769 50.2159 20.143 49.9713Z" fill="#F9FDFF"/>
<path d="M24.1182 35.1949L24.1977 35.0474L24.0356 35.3406L24.1182 35.1949ZM28.88 57.5897L28.7372 57.5021L28.9778 57.7256L28.88 57.5897ZM31.4479 42.5011L31.4391 42.3338L31.1105 42.351L31.3178 42.6066L31.4479 42.5011ZM31.7539 42.485L31.8764 42.3707L31.8231 42.3136L31.7451 42.3177L31.7539 42.485ZM35.1099 55.7361L34.9481 55.6926L35.2465 55.8331L35.1099 55.7361ZM37.2789 49.5342L37.4452 49.5146L37.1114 49.5289L37.2789 49.5342ZM3.05554 51.3266L3.22152 51.3039L2.88802 51.3245L3.05554 51.3266ZM5.86321 57.2714L5.7375 57.3822L6.01954 57.2112L5.86321 57.2714ZM7.81472 43.7396L7.80595 43.5723L7.72797 43.5764L7.68096 43.6387L7.81472 43.7396ZM8.12074 43.7236L8.26118 43.8149L8.44061 43.5391L8.11197 43.5563L8.12074 43.7236ZM12.2492 58.4597L12.1661 58.6051L12.3821 58.3576L12.2492 58.4597ZM14.6416 35.6938L14.7391 35.8301L14.547 35.5555L14.6416 35.6938ZM28.0079 41.5905C28.2326 45.8775 24.7177 49.5638 20.1343 49.804L20.1518 50.1386C24.9005 49.8898 28.5779 46.0638 28.3425 41.573L28.0079 41.5905ZM24.0356 35.3406C26.3057 36.6269 27.8677 38.9151 28.0079 41.5905L28.3425 41.573C28.1958 38.7727 26.5608 36.3863 24.2008 35.0491L24.0356 35.3406ZM31.357 47.8739C31.053 42.0727 28.1558 37.1836 24.1977 35.0474L24.0386 35.3423C27.8732 37.4119 30.7231 42.1814 31.0224 47.8914L31.357 47.8739ZM29.0228 57.6773C30.657 55.0132 31.5509 51.5749 31.357 47.8739L31.0224 47.8914C31.213 51.5294 30.3336 54.8997 28.7372 57.5021L29.0228 57.6773ZM33.561 48.3021C33.7499 51.9066 31.872 55.2307 28.7822 57.4537L28.9778 57.7256C32.1419 55.4493 34.0916 52.0238 33.8956 48.2845L33.561 48.3021ZM31.3178 42.6066C32.6387 44.2353 33.4499 46.1822 33.561 48.3021L33.8956 48.2845C33.7805 46.0878 32.9395 44.0743 31.578 42.3955L31.3178 42.6066ZM31.7451 42.3177L31.4391 42.3338L31.4567 42.6684L31.7627 42.6523L31.7451 42.3177ZM35.7352 51.3756C35.5532 47.9023 34.1215 44.7767 31.8764 42.3707L31.6314 42.5993C33.8259 44.951 35.2229 48.0031 35.4006 51.3931L35.7352 51.3756ZM35.2717 55.7797C35.6494 54.3759 35.8149 52.8962 35.7352 51.3756L35.4006 51.3931C35.4784 52.8779 35.3168 54.3224 34.9481 55.6926L35.2717 55.7797ZM37.1114 49.5289C37.0426 51.7178 36.2782 53.8005 34.9733 55.6392L35.2465 55.8331C36.5851 53.947 37.3752 51.8015 37.4463 49.5394L37.1114 49.5289ZM37.542 50.6536C37.5219 50.2703 37.4895 49.8905 37.4452 49.5146L37.1125 49.5538C37.1559 49.9225 37.1877 50.2951 37.2074 50.6712L37.542 50.6536ZM21.1339 68.8767C30.697 68.3755 38.0432 60.2168 37.542 50.6536L37.2074 50.6712C37.6989 60.0495 30.4947 68.0506 21.1164 68.5421L21.1339 68.8767ZM2.91081 52.4686C3.41199 62.0317 11.5707 69.3779 21.1339 68.8767L21.1164 68.5421C11.738 69.0336 3.73691 61.8294 3.24541 52.451L2.91081 52.4686ZM2.88802 51.3245C2.88322 51.7033 2.8907 52.0848 2.91081 52.4686L3.24541 52.451C3.22568 52.0746 3.21835 51.7003 3.22306 51.3287L2.88802 51.3245ZM5.98892 57.1607C4.49746 55.4677 3.5187 53.475 3.22152 51.3039L2.88956 51.3493C3.19668 53.593 4.20758 55.6455 5.7375 57.3822L5.98892 57.1607ZM4.78457 52.9976C4.86431 54.5192 5.18391 55.9744 5.70688 57.3317L6.01954 57.2112C5.50906 55.8863 5.19703 54.4658 5.11917 52.9801L4.78457 52.9976ZM7.68096 43.6387C5.69966 46.2662 4.60254 49.5244 4.78457 52.9976L5.11917 52.9801C4.94151 49.5901 6.01183 46.4087 7.94848 43.8405L7.68096 43.6387ZM8.11197 43.5563L7.80595 43.5723L7.82349 43.9069L8.12951 43.8909L8.11197 43.5563ZM6.62559 49.7137C6.5145 47.5938 7.11779 45.5728 8.26118 43.8149L7.9803 43.6322C6.80178 45.4441 6.17587 47.5345 6.29099 49.7312L6.62559 49.7137ZM12.3324 58.3142C9.02842 56.4262 6.81445 53.3173 6.62559 49.7137L6.29099 49.7312C6.48691 53.4695 8.78286 56.6718 12.1661 58.6051L12.3324 58.3142ZM8.77141 49.0575C8.96533 52.7578 10.2133 56.0832 12.1164 58.5617L12.3821 58.3576C10.5231 55.9365 9.29662 52.6772 9.10601 49.04L8.77141 49.0575ZM14.547 35.5555C10.836 38.0947 8.46748 43.2582 8.77141 49.0575L9.10601 49.04C8.80686 43.3319 11.141 38.292 14.7362 35.8321L14.547 35.5555ZM11.4452 42.4586C11.305 39.7846 12.6178 37.3468 14.7391 35.8301L14.5442 35.5575C12.3389 37.1343 10.9639 39.6773 11.1106 42.4761L11.4452 42.4586ZM20.1343 49.804C15.5508 50.0442 11.6698 46.7455 11.4452 42.4586L11.1106 42.4761C11.3459 46.9669 15.4031 50.3875 20.1518 50.1386L20.1343 49.804Z" fill="black" mask="url(#path-30-outside-2_40001101_50820)"/>
<path fill-rule="evenodd" clip-rule="evenodd" d="M21.4147 72.6364L21.4147 72.6363L24.4261 72.4785L24.5226 74.3188C24.5238 74.3412 24.5249 74.3647 24.526 74.3894C24.5554 75.011 24.6176 76.327 26.4681 76.23L30.2324 76.0327C23.8547 79.3143 23.1483 85.4183 22.7528 88.8354C22.6419 89.7943 22.5554 90.5417 22.3749 90.9556L22.3749 90.9558C22.3749 90.9557 22.3749 90.9557 22.3748 90.9557C22.3748 90.9557 22.3748 90.9557 22.3748 90.9558L22.3748 90.9556C22.152 90.5628 21.9879 89.8286 21.7773 88.8865C21.0268 85.5295 19.6862 79.5328 13.0005 76.9358L16.7648 76.7385C18.6153 76.6416 18.5396 75.3263 18.5038 74.705C18.5024 74.6804 18.501 74.6568 18.4998 74.6345L18.4034 72.7942L21.4147 72.6364Z" fill="#CAA561"/>
<path d="M21.4147 72.6363L21.4104 72.5527L21.3267 72.5571L21.3311 72.6407L21.4147 72.6363ZM21.4147 72.6364L21.4191 72.72L21.5028 72.7156L21.4984 72.632L21.4147 72.6364ZM24.4261 72.4785L24.5098 72.4741L24.5054 72.3905L24.4218 72.3949L24.4261 72.4785ZM24.526 74.3894L24.4424 74.3933L24.4424 74.3933L24.526 74.3894ZM30.2324 76.0327L30.2707 76.1072L30.228 75.9491L30.2324 76.0327ZM22.7528 88.8354L22.836 88.845L22.7528 88.8354ZM22.3749 90.9556L22.2981 90.9221L22.2902 90.9403L22.2912 90.96L22.3749 90.9556ZM22.3749 90.9558L22.302 90.9971L22.4585 90.9514L22.3749 90.9558ZM22.3748 90.9557L22.4477 90.9144L22.365 90.7686L22.2981 90.9222L22.3748 90.9557ZM22.3748 90.9558L22.2912 90.9602L22.4516 90.9893L22.3748 90.9558ZM22.3748 90.9556L22.4585 90.9512L22.4574 90.9315L22.4477 90.9143L22.3748 90.9556ZM21.7773 88.8865L21.6956 88.9048L21.7773 88.8865ZM13.0005 76.9358L12.9961 76.8522L12.9702 77.0139L13.0005 76.9358ZM18.5038 74.705L18.4202 74.7098L18.4202 74.7098L18.5038 74.705ZM18.4034 72.7942L18.399 72.7105L18.3154 72.7149L18.3197 72.7986L18.4034 72.7942ZM21.3311 72.6407L21.3311 72.6407L21.4984 72.632L21.4984 72.632L21.3311 72.6407ZM24.4218 72.3949L21.4104 72.5527L21.4191 72.72L24.4305 72.5622L24.4218 72.3949ZM24.6062 74.3145L24.5098 72.4741L24.3425 72.4829L24.4389 74.3232L24.6062 74.3145ZM24.6097 74.3854C24.6086 74.3608 24.6074 74.337 24.6062 74.3145L24.4389 74.3232C24.4401 74.3453 24.4412 74.3686 24.4424 74.3933L24.6097 74.3854ZM26.4637 76.1463C25.5612 76.1936 25.1155 75.8976 24.8848 75.5343C24.6479 75.1612 24.6245 74.6991 24.6097 74.3854L24.4424 74.3933C24.4569 74.7013 24.4793 75.208 24.7434 75.6241C25.0138 76.0499 25.5245 76.3633 26.4725 76.3136L26.4637 76.1463ZM30.228 75.9491L26.4637 76.1463L26.4725 76.3136L30.2368 76.1164L30.228 75.9491ZM22.836 88.845C23.2317 85.4266 23.9358 79.3668 30.2707 76.1072L30.1941 75.9582C23.7736 79.2618 23.0649 85.4101 22.6696 88.8257L22.836 88.845ZM22.4517 90.9891C22.5464 90.7719 22.6144 90.4728 22.6726 90.1133C22.731 89.7526 22.7806 89.3239 22.836 88.845L22.6696 88.8257C22.6141 89.3058 22.5649 89.7303 22.5072 90.0865C22.4494 90.4439 22.3839 90.7254 22.2981 90.9221L22.4517 90.9891ZM22.2912 90.96L22.2912 90.9602L22.4585 90.9514L22.4585 90.9512L22.2912 90.96ZM22.4477 90.9144C22.4477 90.9144 22.4477 90.9144 22.4477 90.9144C22.4477 90.9144 22.4477 90.9144 22.4477 90.9144L22.302 90.997C22.302 90.997 22.302 90.9971 22.302 90.9971C22.302 90.9971 22.302 90.9971 22.302 90.9971L22.4477 90.9144ZM22.4516 90.9893C22.4516 90.9892 22.4516 90.9892 22.4516 90.9892C22.4516 90.9892 22.4516 90.9892 22.4516 90.9892L22.2981 90.9222C22.2981 90.9222 22.2981 90.9222 22.2981 90.9222C22.298 90.9223 22.298 90.9223 22.298 90.9223L22.4516 90.9893ZM22.2912 90.96L22.2912 90.9602L22.4585 90.9514L22.4585 90.9512L22.2912 90.96ZM22.4477 90.9143C22.3418 90.7276 22.2473 90.4545 22.1523 90.1051C22.0577 89.7569 21.9645 89.3399 21.859 88.8682L21.6956 88.9048C21.8007 89.3752 21.8949 89.7964 21.9907 90.149C22.0862 90.5005 22.1851 90.7909 22.3019 90.9969L22.4477 90.9143ZM21.859 88.8682C21.1089 85.5126 19.7614 79.4721 13.0308 76.8577L12.9702 77.0139C19.6111 79.5934 20.9448 85.5464 21.6956 88.9048L21.859 88.8682ZM13.0049 77.0195L16.7691 76.8222L16.7604 76.6549L12.9961 76.8522L13.0049 77.0195ZM16.7691 76.8222C17.7172 76.7725 18.1923 76.4074 18.4167 75.9556C18.6359 75.5143 18.6051 75.008 18.5874 74.7002L18.4202 74.7098C18.4382 75.0233 18.4632 75.4853 18.2666 75.8811C18.0752 76.2666 17.6629 76.6076 16.7604 76.6549L16.7691 76.8222ZM18.5874 74.7002C18.586 74.6755 18.5847 74.6522 18.5835 74.6301L18.4162 74.6389C18.4174 74.6615 18.4187 74.6852 18.4202 74.7098L18.5874 74.7002ZM18.5835 74.6301L18.487 72.7898L18.3197 72.7986L18.4162 74.6389L18.5835 74.6301ZM18.4078 72.8778L21.4191 72.72L21.4104 72.5527L18.399 72.7105L18.4078 72.8778Z" fill="black"/>
<path fill-rule="evenodd" clip-rule="evenodd" d="M21.4147 72.6364L21.4147 72.6363L24.4261 72.4785L24.5226 74.3188C24.5238 74.3412 24.5249 74.3647 24.526 74.3894C24.5554 75.011 24.6176 76.327 26.4681 76.23L30.2324 76.0327C23.129 79.6877 22.7426 80.7702 22.2207 82.2325C22.1426 82.4516 22.0613 82.6792 21.954 82.9252L21.954 82.9253C21.954 82.9253 21.954 82.9253 21.954 82.9253C21.954 82.9253 21.954 82.9253 21.954 82.9253L21.954 82.9252C21.8215 82.6917 21.7169 82.4739 21.6163 82.2642C20.9444 80.8644 20.447 79.8283 13.0005 76.9358L16.7648 76.7385C18.6153 76.6416 18.5396 75.3263 18.5038 74.705C18.5024 74.6804 18.501 74.6568 18.4998 74.6345L18.4034 72.7942L21.4147 72.6364Z" fill="#FFF5A0"/>
<path d="M21.4147 72.6363L21.4104 72.5527L21.3267 72.5571L21.3311 72.6407L21.4147 72.6363ZM21.4147 72.6364L21.4191 72.72L21.5028 72.7156L21.4984 72.632L21.4147 72.6364ZM24.4261 72.4785L24.5098 72.4741L24.5054 72.3905L24.4218 72.3949L24.4261 72.4785ZM24.526 74.3894L24.4424 74.3933L24.4424 74.3933L24.526 74.3894ZM30.2324 76.0327L30.2707 76.1072L30.228 75.9491L30.2324 76.0327ZM22.2207 82.2325L22.2996 82.2607L22.2207 82.2325ZM21.954 82.9252L21.8772 82.8917L21.8693 82.9098L21.8704 82.9296L21.954 82.9252ZM21.954 82.9253L21.8818 82.9677L22.0377 82.921L21.954 82.9253ZM21.954 82.9253L22.0262 82.8829L21.943 82.741L21.8772 82.8918L21.954 82.9253ZM21.954 82.9253L21.8703 82.9297L22.0307 82.9588L21.954 82.9253ZM21.954 82.9252L22.0376 82.9208L22.0366 82.9011L22.0268 82.8839L21.954 82.9252ZM21.6163 82.2642L21.5408 82.3004L21.6163 82.2642ZM13.0005 76.9358L12.9961 76.8522L12.9702 77.0139L13.0005 76.9358ZM18.5038 74.705L18.4202 74.7098L18.4202 74.7098L18.5038 74.705ZM18.4034 72.7942L18.399 72.7105L18.3154 72.7149L18.3197 72.7986L18.4034 72.7942ZM21.3311 72.6407L21.3311 72.6407L21.4984 72.632L21.4984 72.632L21.3311 72.6407ZM24.4218 72.3949L21.4104 72.5527L21.4191 72.72L24.4305 72.5622L24.4218 72.3949ZM24.6062 74.3145L24.5098 72.4741L24.3425 72.4829L24.4389 74.3232L24.6062 74.3145ZM24.6097 74.3854C24.6086 74.3608 24.6074 74.337 24.6062 74.3145L24.4389 74.3232C24.4401 74.3453 24.4412 74.3686 24.4424 74.3933L24.6097 74.3854ZM26.4637 76.1463C25.5612 76.1936 25.1155 75.8976 24.8848 75.5343C24.6479 75.1612 24.6245 74.6991 24.6097 74.3854L24.4424 74.3933C24.4569 74.7013 24.4793 75.208 24.7434 75.6241C25.0138 76.0499 25.5245 76.3633 26.4725 76.3136L26.4637 76.1463ZM30.228 75.9491L26.4637 76.1463L26.4725 76.3136L30.2368 76.1164L30.228 75.9491ZM22.2996 82.2607C22.4303 81.8945 22.5498 81.5603 22.7655 81.2043C22.9807 80.8489 23.2938 80.4687 23.8134 80.0182C24.8549 79.115 26.7195 77.9344 30.2707 76.1072L30.1941 75.9582C26.6418 77.786 24.7616 78.9742 23.7036 79.8916C23.1735 80.3513 22.8481 80.7444 22.6222 81.1175C22.3966 81.4899 22.2721 81.8393 22.1418 82.2043L22.2996 82.2607ZM22.0308 82.9587C22.1394 82.7097 22.2215 82.4795 22.2996 82.2607L22.1418 82.2043C22.0636 82.4236 21.9832 82.6487 21.8772 82.8917L22.0308 82.9587ZM21.8704 82.9296L21.8704 82.9297L22.0377 82.921L22.0377 82.9208L21.8704 82.9296ZM22.0263 82.8829L22.0262 82.8829L21.8817 82.9677L21.8818 82.9677L22.0263 82.8829ZM22.0307 82.9588L22.0308 82.9588L21.8772 82.8918L21.8772 82.8918L22.0307 82.9588ZM21.8703 82.9296L21.8703 82.9297L22.0376 82.921L22.0376 82.9208L21.8703 82.9296ZM22.0268 82.8839C21.896 82.6532 21.7926 82.4378 21.6918 82.2279L21.5408 82.3004C21.6413 82.5099 21.7471 82.7302 21.8811 82.9665L22.0268 82.8839ZM21.6918 82.2279C21.5241 81.8785 21.3638 81.544 21.1005 81.1972C20.8368 80.8498 20.4721 80.4929 19.8969 80.0911C18.7488 79.2893 16.7546 78.3042 13.0308 76.8577L12.9702 77.0139C16.6929 78.4599 18.6707 79.4391 19.8009 80.2284C20.3648 80.6222 20.7159 80.9676 20.9671 81.2985C21.2187 81.6301 21.3726 81.95 21.5408 82.3004L21.6918 82.2279ZM13.0049 77.0195L16.7691 76.8222L16.7604 76.6549L12.9961 76.8522L13.0049 77.0195ZM16.7691 76.8222C17.7172 76.7725 18.1923 76.4074 18.4167 75.9556C18.6359 75.5143 18.6051 75.008 18.5874 74.7002L18.4202 74.7098C18.4382 75.0233 18.4632 75.4853 18.2666 75.8811C18.0752 76.2666 17.6629 76.6076 16.7604 76.6549L16.7691 76.8222ZM18.5874 74.7002C18.586 74.6755 18.5847 74.6522 18.5835 74.6301L18.4162 74.6389C18.4174 74.6615 18.4187 74.6852 18.4202 74.7098L18.5874 74.7002ZM18.5835 74.6301L18.487 72.7898L18.3197 72.7986L18.4162 74.6389L18.5835 74.6301ZM18.4078 72.8778L21.4191 72.72L21.4104 72.5527L18.399 72.7105L18.4078 72.8778Z" fill="black"/>
<path d="M20.3624 52.5607C25.5723 52.2876 30.0698 56.9229 30.3852 62.94C30.5422 65.9387 29.2333 68.734 27.4236 70.806C25.6116 72.8807 23.3112 74.2144 21.5022 74.3092C19.6932 74.4038 17.2658 73.3179 15.247 71.4441C13.2309 69.5727 11.6377 66.9292 11.4805 63.9308C11.1651 57.9138 15.1527 52.834 20.3624 52.5607Z" fill="url(#paint1_linear_40001101_50820)" stroke="black" stroke-width="0.16753"/>
<path fill-rule="evenodd" clip-rule="evenodd" d="M16.1503 55.6076L16.1599 55.6012L16.1601 55.6036L16.1503 55.6076ZM19.0853 70.6827C15.5069 70.2438 12.1096 67.9452 11.9111 64.1587C11.7589 61.2537 13.0538 58.1156 15.4331 56.1383C15.6589 55.9508 15.8989 55.7734 16.1503 55.6076C12.4006 57.1428 11.217 60.5161 11.4399 64.7706C11.7329 70.3607 17.8259 74.5854 21.5065 74.3925C25.1871 74.1996 30.8052 69.3611 30.5122 63.7711C30.3026 59.7711 28.9378 56.6757 25.5427 55.3765L25.5428 55.378C25.6618 55.4463 25.7775 55.5171 25.8894 55.5903C28.5117 57.3055 29.9946 60.298 30.1469 63.203C30.3468 67.0172 27.1535 69.5302 23.5162 70.3945C22.9831 67.6869 21.5416 62.7177 20.7614 60.1716L21.3138 70.7119C21.3138 70.7119 21.3138 70.7119 21.3138 70.7119L20.7614 60.1715C20.2481 62.8032 19.3249 67.948 19.0853 70.6827Z" fill="white"/>
<path d="M16.1599 55.6012L16.2436 55.5969L16.2359 55.4509L16.1139 55.5313L16.1599 55.6012ZM16.1601 55.6036L16.1918 55.6811L16.2468 55.6586L16.2437 55.5992L16.1601 55.6036ZM19.0853 70.6827L19.0751 70.7658L19.1612 70.7764L19.1688 70.69L19.0853 70.6827ZM15.4331 56.1383L15.3796 56.0739L15.4331 56.1383ZM25.5427 55.3765L25.5727 55.2983L25.4523 55.2523L25.4591 55.3809L25.5427 55.3765ZM25.5428 55.378L25.4592 55.3824L25.4615 55.4279L25.5011 55.4507L25.5428 55.378ZM25.8894 55.5903L25.8436 55.6604L25.8436 55.6604L25.8894 55.5903ZM23.5162 70.3945L23.434 70.4107L23.4508 70.4961L23.5355 70.476L23.5162 70.3945ZM20.7614 60.1716L20.8415 60.147L20.6778 60.1759L20.7614 60.1716ZM21.3138 70.7119L21.3182 70.7955L21.4019 70.7911L21.3975 70.7075L21.3138 70.7119ZM21.3138 70.7119L21.2301 70.7163L21.2345 70.7999L21.3182 70.7955L21.3138 70.7119ZM20.7614 60.1715L20.845 60.1671L20.6792 60.1554L20.7614 60.1715ZM16.1139 55.5313L16.1043 55.5376L16.1964 55.6775L16.206 55.6712L16.1139 55.5313ZM16.2437 55.5992L16.2436 55.5969L16.0763 55.6056L16.0764 55.608L16.2437 55.5992ZM16.182 55.6851L16.1918 55.6811L16.1284 55.5261L16.1187 55.53L16.182 55.6851ZM19.0955 70.5995C15.5381 70.1633 12.1902 67.8834 11.9948 64.1543L11.8275 64.1631C12.0289 68.0069 15.4757 70.3244 19.0751 70.7658L19.0955 70.5995ZM11.9948 64.1543C11.8439 61.2751 13.1281 58.1627 15.4867 56.2028L15.3796 56.0739C12.9794 58.0685 11.6739 61.2323 11.8275 64.1631L11.9948 64.1543ZM15.4867 56.2028C15.7099 56.0172 15.9475 55.8417 16.1965 55.6775L16.1042 55.5376C15.8504 55.7051 15.6078 55.8843 15.3796 56.0739L15.4867 56.2028ZM16.1186 55.53C14.2248 56.3054 12.9754 57.5473 12.2296 59.1337C11.4848 60.7177 11.2444 62.6399 11.3563 64.775L11.5236 64.7662C11.4125 62.6468 11.6524 60.7551 12.3812 59.205C13.1088 57.6574 14.3262 56.4449 16.1821 55.6851L16.1186 55.53ZM11.3563 64.775C11.5043 67.5996 13.1168 70.073 15.1484 71.8138C17.178 73.5529 19.6417 74.5741 21.5109 74.4762L21.5021 74.3089C19.6907 74.4038 17.2676 73.4091 15.2574 71.6866C13.249 69.9656 11.6685 67.5317 11.5236 64.7662L11.3563 64.775ZM21.5109 74.4762C23.3801 74.3782 25.7236 73.105 27.5603 71.1633C29.3987 69.2197 30.7439 66.5913 30.5959 63.7667L30.4286 63.7755C30.5735 66.5409 29.2561 69.1267 27.4386 71.0482C25.6194 72.9714 23.3136 74.2139 21.5021 74.3089L21.5109 74.4762ZM30.5959 63.7667C30.3854 59.7518 29.0127 56.6147 25.5727 55.2983L25.5128 55.4548C28.8629 56.7368 30.2197 59.7904 30.4286 63.7755L30.5959 63.7667ZM25.4591 55.3809L25.4592 55.3824L25.6265 55.3736L25.6264 55.3722L25.4591 55.3809ZM25.5011 55.4507C25.6187 55.5182 25.7331 55.5882 25.8436 55.6604L25.9353 55.5202C25.8219 55.4461 25.7048 55.3744 25.5845 55.3054L25.5011 55.4507ZM25.8436 55.6604C28.4409 57.3592 29.9122 60.3258 30.0632 63.2074L30.2305 63.1986C30.0771 60.2703 28.5826 57.2517 25.9353 55.5202L25.8436 55.6604ZM30.0632 63.2074C30.26 66.9615 27.1176 69.4526 23.4968 70.313L23.5355 70.476C27.1893 69.6078 30.4336 67.0728 30.2305 63.1986L30.0632 63.2074ZM20.6814 60.1961C21.4617 62.7426 22.9019 67.7079 23.434 70.4107L23.5984 70.3783C23.0643 67.6659 21.6216 62.6928 20.8415 60.147L20.6814 60.1961ZM21.3975 70.7075L20.8451 60.1672L20.6778 60.1759L21.2302 70.7163L21.3975 70.7075ZM21.3095 70.6282C21.3094 70.6282 21.3094 70.6282 21.3094 70.6282C21.3094 70.6282 21.3094 70.6282 21.3094 70.6282L21.3182 70.7955C21.3182 70.7955 21.3182 70.7955 21.3182 70.7955C21.3182 70.7955 21.3182 70.7955 21.3182 70.7955L21.3095 70.6282ZM21.3974 70.7075L20.845 60.1671L20.6777 60.1758L21.2301 70.7163L21.3974 70.7075ZM20.6792 60.1554C20.166 62.7867 19.2419 67.9357 19.0019 70.6754L19.1688 70.69C19.4079 67.9604 20.3302 62.8196 20.8436 60.1875L20.6792 60.1554Z" fill="black"/>
<mask id="path-39-outside-3_40001101_50820" maskUnits="userSpaceOnUse" x="22.6551" y="56.5272" width="7.61844" height="12.3499" fill="black">
<rect fill="white" x="22.6551" y="56.5272" width="7.61844" height="12.3499"/>
<path fill-rule="evenodd" clip-rule="evenodd" d="M26.0557 62.3224C25.1816 63.4751 24.4479 65.3814 24.7743 68.5204C27.2001 68.3932 30.5206 64.5285 28.2189 60.6229C28.1975 60.6388 28.148 60.6626 28.0759 60.6974C27.8106 60.8252 27.2398 61.1004 26.6414 61.6677C25.9338 60.2243 24.1731 58.3056 23.6586 57.8423C24.9058 59.1629 25.7455 61.3636 26.0557 62.3224Z"/>
</mask>
<path fill-rule="evenodd" clip-rule="evenodd" d="M26.0557 62.3224C25.1816 63.4751 24.4479 65.3814 24.7743 68.5204C27.2001 68.3932 30.5206 64.5285 28.2189 60.6229C28.1975 60.6388 28.148 60.6626 28.0759 60.6974C27.8106 60.8252 27.2398 61.1004 26.6414 61.6677C25.9338 60.2243 24.1731 58.3056 23.6586 57.8423C24.9058 59.1629 25.7455 61.3636 26.0557 62.3224Z" fill="#E94F97"/>
<path d="M24.7743 68.5204L24.783 68.6877C24.694 68.6923 24.6168 68.6264 24.6076 68.5377L24.7743 68.5204ZM26.0557 62.3224L26.2151 62.2708C26.232 62.3229 26.2223 62.38 26.1892 62.4236L26.0557 62.3224ZM28.2189 60.6229L28.1188 60.4885C28.1569 60.4601 28.2053 60.4492 28.252 60.4586C28.2986 60.468 28.339 60.4968 28.3632 60.5378L28.2189 60.6229ZM28.0759 60.6974L28.0031 60.5465L28.0031 60.5465L28.0759 60.6974ZM26.6414 61.6677L26.7567 61.7893C26.718 61.8259 26.6642 61.842 26.6118 61.8326C26.5593 61.8231 26.5145 61.7893 26.491 61.7414L26.6414 61.6677ZM23.6586 57.8423L23.5368 57.9573C23.4751 57.892 23.4759 57.7896 23.5387 57.7253C23.6015 57.6609 23.7039 57.6576 23.7707 57.7178L23.6586 57.8423ZM24.6076 68.5377C24.2776 65.3636 25.0184 63.4131 25.9223 62.2212L26.1892 62.4236C25.3448 63.5371 24.6182 65.3992 24.9409 68.503L24.6076 68.5377ZM28.3632 60.5378C29.5489 62.5497 29.2859 64.5572 28.4146 66.0721C27.5502 67.575 26.0695 68.6202 24.783 68.6877L24.7655 68.3531C25.9049 68.2933 27.2974 67.3426 28.1242 65.905C28.9441 64.4793 29.1905 62.6016 28.0745 60.7079L28.3632 60.5378ZM28.0031 60.5465C28.0398 60.5288 28.0682 60.5151 28.0902 60.5039C28.1148 60.4913 28.1208 60.487 28.1188 60.4885L28.319 60.7572C28.2956 60.7746 28.2661 60.7902 28.2427 60.8022C28.2165 60.8156 28.184 60.8312 28.1486 60.8483L28.0031 60.5465ZM26.5262 61.5461C27.1438 60.9606 27.7336 60.6764 28.0031 60.5465L28.1486 60.8483C27.8877 60.9741 27.3358 61.2402 26.7567 61.7893L26.5262 61.5461ZM26.491 61.7414C26.146 61.0378 25.5391 60.2095 24.9484 59.4942C24.3583 58.7795 23.7953 58.1909 23.5465 57.9668L23.7707 57.7178C24.0364 57.9571 24.611 58.5594 25.2068 59.2808C25.8019 60.0015 26.4292 60.8542 26.7919 61.5939L26.491 61.7414ZM23.7804 57.7273C25.0554 59.0773 25.9042 61.3099 26.2151 62.2708L25.8963 62.374C25.5867 61.4172 24.7562 59.2485 23.5368 57.9573L23.7804 57.7273Z" fill="black" mask="url(#path-39-outside-3_40001101_50820)"/>
<path fill-rule="evenodd" clip-rule="evenodd" d="M26.0177 62.3015C26.3985 62.7036 26.7013 63.6693 26.7611 64.8097C26.841 66.3343 26.4563 67.5937 25.9019 67.6228C25.4191 67.6481 24.9668 66.7318 24.8053 65.4877C24.9265 64.6695 25.1398 63.9865 25.4026 63.4168C25.3851 63.7644 25.3861 64.1815 25.4095 64.629C25.4725 65.8301 25.6733 66.796 25.8581 66.7863C26.0429 66.7767 26.1417 65.7951 26.0787 64.5939C26.0353 63.7645 25.9261 63.0473 25.8018 62.686C25.8775 62.568 25.955 62.4565 26.0338 62.3512C26.0286 62.335 26.0232 62.3184 26.0177 62.3015Z" fill="#F6FFFF"/>
<path d="M16.9728 71.1081C17.3118 71.1742 18.5048 71.5311 19.0725 72.7596C19.0549 72.425 19.0359 72.0625 19.0286 71.9231C19.0286 71.9231 20.4617 72.3512 21.3971 72.3022C22.3326 72.2531 23.713 71.6776 23.713 71.6776L23.7569 72.5141C24.1151 71.8802 24.9997 70.6204 25.6724 70.6522" stroke="black" stroke-width="0.16753" stroke-linejoin="round"/>
<mask id="path-43-outside-4_40001101_50820" maskUnits="userSpaceOnUse" x="11.5672" y="57.1053" width="7.61844" height="12.3499" fill="black">
<rect fill="white" x="11.5672" y="57.1053" width="7.61844" height="12.3499"/>
<path fill-rule="evenodd" clip-rule="evenodd" d="M15.743 62.8598C16.7329 63.9148 17.6618 65.734 17.6654 68.89C15.2395 69.0171 11.5333 65.5206 13.4142 61.3958C13.437 61.4094 13.4888 61.428 13.5642 61.455C13.8413 61.5544 14.4377 61.7684 15.092 62.2699C15.645 60.7606 17.1954 58.6684 17.6587 58.1538C16.5563 59.5975 15.9514 61.8738 15.743 62.8598Z"/>
</mask>
<path fill-rule="evenodd" clip-rule="evenodd" d="M15.743 62.8598C16.7329 63.9148 17.6618 65.734 17.6654 68.89C15.2395 69.0171 11.5333 65.5206 13.4142 61.3958C13.437 61.4094 13.4888 61.428 13.5642 61.455C13.8413 61.5544 14.4377 61.7684 15.092 62.2699C15.645 60.7606 17.1954 58.6684 17.6587 58.1538C16.5563 59.5975 15.9514 61.8738 15.743 62.8598Z" fill="#E94F97"/>
<path d="M17.6654 68.89L17.6742 69.0573C17.7632 69.0526 17.833 68.979 17.8329 68.8898L17.6654 68.89ZM15.743 62.8598L15.5791 62.8252C15.5677 62.8788 15.5833 62.9345 15.6208 62.9745L15.743 62.8598ZM13.4142 61.3958L13.4997 61.2518C13.4588 61.2275 13.4095 61.2217 13.3641 61.2359C13.3187 61.2502 13.2815 61.283 13.2617 61.3263L13.4142 61.3958ZM13.5642 61.455L13.6207 61.2973L13.6207 61.2973L13.5642 61.455ZM15.092 62.2699L14.9901 62.4029C15.0324 62.4353 15.0876 62.4457 15.1388 62.4308C15.19 62.4159 15.231 62.3776 15.2493 62.3276L15.092 62.2699ZM17.6587 58.1538L17.7918 58.2555C17.8464 58.184 17.8348 58.0823 17.7657 58.0249C17.6965 57.9675 17.5943 57.9749 17.5342 58.0417L17.6587 58.1538ZM17.8329 68.8898C17.8293 65.6985 16.8887 63.8361 15.8651 62.7452L15.6208 62.9745C16.577 63.9936 17.4944 65.7695 17.4979 68.8902L17.8329 68.8898ZM13.2617 61.3263C12.2928 63.4512 12.7642 65.4201 13.7891 66.8356C14.8059 68.24 16.3877 69.1247 17.6742 69.0573L17.6566 68.7227C16.5172 68.7824 15.033 67.9824 14.0605 66.6391C13.096 65.307 12.6546 63.4653 13.5666 61.4653L13.2617 61.3263ZM13.6207 61.2973C13.5824 61.2835 13.5527 61.2729 13.5297 61.264C13.5038 61.2541 13.4975 61.2505 13.4997 61.2518L13.3286 61.5399C13.3537 61.5547 13.3847 61.5672 13.4092 61.5767C13.4367 61.5873 13.4706 61.5994 13.5076 61.6127L13.6207 61.2973ZM15.194 62.137C14.5185 61.6193 13.9023 61.3983 13.6207 61.2973L13.5076 61.6127C13.7802 61.7105 14.3568 61.9175 14.9901 62.4029L15.194 62.137ZM15.2493 62.3276C15.5189 61.5917 16.0359 60.7045 16.5486 59.9314C17.0608 59.159 17.5591 58.5147 17.7832 58.2659L17.5342 58.0417C17.2949 58.3074 16.7864 58.9665 16.2694 59.7462C15.7528 60.5252 15.2181 61.4387 14.9347 62.2123L15.2493 62.3276ZM17.5255 58.0521C16.3986 59.528 15.7879 61.837 15.5791 62.8252L15.9069 62.8945C16.1148 61.9105 16.7141 59.667 17.7918 58.2555L17.5255 58.0521Z" fill="black" mask="url(#path-43-outside-4_40001101_50820)"/>
<path fill-rule="evenodd" clip-rule="evenodd" d="M15.7784 62.8352C15.4421 63.2754 15.2423 64.2669 15.302 65.4065C15.3819 66.9311 15.8961 68.1434 16.4505 68.1144C16.9329 68.0891 17.2868 67.132 17.3179 65.8793C17.112 65.0782 16.8287 64.4212 16.508 63.8819C16.5615 64.2253 16.604 64.639 16.6273 65.0853C16.6903 66.2864 16.5915 67.268 16.4067 67.2777C16.2219 67.2874 16.0211 66.3215 15.9581 65.1204C15.9147 64.2921 15.9482 63.5682 16.0338 63.1954C15.9461 63.0857 15.8572 62.9828 15.7677 62.8862C15.7711 62.8696 15.7747 62.8526 15.7784 62.8352Z" fill="#F6FFFF"/>
</g>
</g>
</g>
<defs>
<filter id="filter0_d_40001101_50820" x="-7" y="-1.15055" width="66.3888" height="110.041" filterUnits="userSpaceOnUse" color-interpolation-filters="sRGB">
<feFlood flood-opacity="0" result="BackgroundImageFix"/>
<feColorMatrix in="SourceAlpha" type="matrix" values="0 0 0 0 0 0 0 0 0 0 0 0 0 0 0 0 0 0 127 0" result="hardAlpha"/>
<feOffset dx="6" dy="-4"/>
<feGaussianBlur stdDeviation="2.57527"/>
<feComposite in2="hardAlpha" operator="out"/>
<feColorMatrix type="matrix" values="0 0 0 0 0.784314 0 0 0 0 0.843137 0 0 0 0 0.909804 0 0 0 0.25 0"/>
<feBlend mode="normal" in2="BackgroundImageFix" result="effect1_dropShadow_40001101_50820"/>
<feBlend mode="normal" in="SourceGraphic" in2="effect1_dropShadow_40001101_50820" result="shape"/>
</filter>
<filter id="filter1_d_40001101_50820" x="-1.82187" y="-4.09969" width="83.5656" height="83.5656" filterUnits="userSpaceOnUse" color-interpolation-filters="sRGB">
<feFlood flood-opacity="0" result="BackgroundImageFix"/>
<feColorMatrix in="SourceAlpha" type="matrix" values="0 0 0 0 0 0 0 0 0 0 0 0 0 0 0 0 0 0 127 0" result="hardAlpha"/>
<feMorphology radius="10.8895" operator="dilate" in="SourceAlpha" result="effect1_dropShadow_40001101_50820"/>
<feOffset dy="1.6753"/>
<feGaussianBlur stdDeviation="1.12245"/>
<feComposite in2="hardAlpha" operator="out"/>
<feColorMatrix type="matrix" values="0 0 0 0 1 0 0 0 0 0.45098 0 0 0 0 0.996078 0 0 0 0.2 0"/>
<feBlend mode="normal" in2="BackgroundImageFix" result="effect1_dropShadow_40001101_50820"/>
<feBlend mode="normal" in="SourceGraphic" in2="effect1_dropShadow_40001101_50820" result="shape"/>
</filter>
<radialGradient id="paint0_radial_40001101_50820" cx="0" cy="0" r="1" gradientUnits="userSpaceOnUse" gradientTransform="translate(18.7686 55.7483) rotate(90) scale(53.6097 35.075)">
<stop stop-color="#C464F2"/>
<stop offset="0.670074" stop-color="#809EEA"/>
<stop offset="1" stop-color="#5874E1"/>
</radialGradient>
<linearGradient id="paint1_linear_40001101_50820" x1="20.3584" y1="52.4768" x2="21.507" y2="74.3932" gradientUnits="userSpaceOnUse">
<stop offset="0.125" stop-color="#2C2778"/>
<stop offset="1" stop-color="#4C4EA3"/>
</linearGradient>
<clipPath id="clip0_40001101_50820">
<rect width="52" height="104" fill="white"/>
</clipPath>
<clipPath id="clip1_40001101_50820">
<rect width="50.0915" height="76.5613" fill="white" transform="translate(-6.19336 26.0117) rotate(-3)"/>
</clipPath>
</defs>
</svg>
