<svg width="48" height="80" viewBox="0 0 48 80" fill="none"
  xmlns="http://www.w3.org/2000/svg">
  <g clip-path="url(#clip0_474_16528)">
    <g filter="url(#filter0_d_474_16528)">
      <rect x="-7" y="9.6282" width="50.2178" height="97.2445" rx="2.68724" transform="rotate(-3 -7 9.6282)" fill="#A158ED"/>
      <rect x="-6.34961" y="22.0397" width="50.2178" height="3.02315" transform="rotate(-3 -6.34961 22.0397)" fill="white"/>
      <rect x="-6.29688" y="23.046" width="50.2178" height="1.00772" transform="rotate(-3 -6.29688 23.046)" fill="#61B9F5"/>
      <rect x="-6.19141" y="25.0587" width="50.2178" height="76.7543" transform="rotate(-3 -6.19141 25.0587)" fill="#4D6ECB"/>
      <path d="M-4.41602 58.9386L46.5285 71.4893L47.513 90.2742L-2.63605 92.9024L-4.41602 58.9386Z" fill="#65612E"/>
      <path d="M13.5701 87.3439C5.52525 86.0164 -1.11642 80.3772 -3.43164 77.7235L-2.17468 101.708L47.9743 99.0796L47.1305 82.9783C39.2957 84.9866 21.615 88.6714 13.5701 87.3439Z" fill="#CDB389"/>
      <path d="M12.1507 60.3495C11.0068 59.0134 11.9486 56.4941 12.1857 54.8708C12.5544 53.0259 12.0735 52.7289 11.9837 51.0154C11.8939 49.3019 9.35256 45.8912 7.43653 44.166C5.5205 42.4408 5.01354 40.9639 6.23694 39.7185C7.46035 38.4731 12.7744 43.5641 14.5778 45.1878C16.3811 46.8115 17.5423 46.4285 19.6505 45.6737C21.7588 44.9189 20.6438 40.0374 20.5484 38.2168C20.453 36.3962 20.0475 34.8066 21.8569 34.497C23.6663 34.1874 24.2121 38.4543 25.2709 42.2649C26.3297 46.0754 27.7159 47.9357 28.6344 49.0689C29.5529 50.202 29.1806 51.2954 29.0113 52.1634C28.8421 53.0314 29.1461 54.7337 29.4164 55.7934C29.6867 56.8532 30.0529 57.6931 30.5542 59.0629C31.0556 60.4327 31.5854 60.2975 32.2729 61.1206C32.9604 61.9437 32.5769 62.8229 32.3908 63.3696C32.2046 63.9163 31.7141 64.8011 31.325 65.5732C30.9359 66.3453 30.4285 66.9089 30.2536 67.6698C30.0787 68.4307 29.047 69.2365 28.1902 69.2814C27.3335 69.3263 26.3865 69.6981 25.2365 70.2953C24.0865 70.8925 21.635 69.1953 21.2969 68.8909C20.9587 68.5864 16.4167 63.8846 15.5151 63.0727C14.6134 62.2609 13.2946 61.6856 12.1507 60.3495Z" fill="#F29600" stroke="black" stroke-width="0.335905"/>
      <path d="M19.0991 64.9129C17.9957 64.7184 17.1882 63.7516 15.3656 62.6699L15.3744 62.8376L19.0149 66.515L20.6079 68.0293L21.764 69.23L23.238 70.0778L24.9372 70.4092L26.0893 69.9284L27.4091 69.4387L28.8259 69.1963L29.881 68.4683L30.3358 67.5194L30.0004 67.537L30.7112 66.6589L32.3228 63.7153L32.6586 62.0999L32.2704 61.1112L31.5644 60.4755L30.8495 59.672L30.2629 58.105L29.3938 55.9642L29.0899 53.3733L29.0327 52.2831L29.2671 50.3367L28.8833 49.4318L27.4361 47.4894L26.1345 45.119L25.3761 41.8792L23.8633 37.0811L23.1796 35.267C22.1736 33.7219 20.4688 34.8877 20.518 35.8269C20.5795 37.001 20.681 37.332 20.5528 38.0956C20.4246 38.8591 21.0948 42.0195 21.1431 42.9419C21.1915 43.8644 20.7279 44.6455 20.4188 45.1662L20.4188 45.1663C19.8616 46.1051 18.5383 46.1898 18.119 46.2118C17.7836 46.2294 16.6978 46.3704 16.1946 46.3967C16.3962 46.4983 16.8345 46.7332 16.9757 46.8604C17.1523 47.0193 19.2839 47.5803 20.4756 47.8542C21.6672 48.1281 24.929 47.789 25.7145 48.3365C26.5 48.884 27.9693 51.2456 28.0396 52.5874C28.1099 53.9292 28.9214 56.5776 29.0405 57.2441C29.1595 57.9106 29.5565 59.067 30.3903 60.537C31.2242 62.0069 31.1315 61.8436 30.5002 62.6335C29.8689 63.4234 29.1273 63.7146 28.3238 64.4294C27.5204 65.1442 26.7041 64.0097 25.7728 63.8904C24.8416 63.771 24.7002 64.2829 24.1308 64.6492C23.5613 65.0154 23.1065 65.9642 22.3386 65.7522C21.5706 65.5402 20.2025 65.1073 19.0991 64.9129Z" fill="#D7890A"/>
      <path d="M12.1507 60.3495C11.0068 59.0134 11.9486 56.4941 12.1857 54.8708C12.5544 53.0259 12.0735 52.7289 11.9837 51.0154C11.8939 49.3019 9.35256 45.8912 7.43653 44.166C5.5205 42.4408 5.01354 40.9639 6.23694 39.7185C7.46035 38.4731 12.7744 43.5641 14.5778 45.1878C16.3811 46.8115 17.5423 46.4285 19.6505 45.6737C21.7588 44.9189 20.6438 40.0374 20.5484 38.2168C20.453 36.3962 20.0475 34.8066 21.8569 34.497C23.6663 34.1874 24.2121 38.4543 25.2709 42.2649C26.3297 46.0754 27.7159 47.9357 28.6344 49.0689C29.5529 50.202 29.1806 51.2954 29.0113 52.1634C28.8421 53.0314 29.1461 54.7337 29.4164 55.7934C29.6867 56.8532 30.0529 57.6931 30.5542 59.0629C31.0556 60.4327 31.5854 60.2975 32.2729 61.1206C32.9604 61.9437 32.5769 62.8229 32.3908 63.3696C32.2046 63.9163 31.7141 64.8011 31.325 65.5732C30.9359 66.3453 30.4285 66.9089 30.2536 67.6698C30.0787 68.4307 29.047 69.2365 28.1902 69.2814C27.3335 69.3263 26.3865 69.6981 25.2365 70.2953C24.0865 70.8925 21.635 69.1953 21.2969 68.8909C20.9587 68.5864 16.4167 63.8846 15.5151 63.0727C14.6134 62.2609 13.2946 61.6856 12.1507 60.3495Z" stroke="black" stroke-width="0.335905"/>
      <path d="M15.5898 45.8865C16.1478 46.2868 16.7169 46.9013 17.1453 46.8789C17.5737 46.8564 19.0108 47.6402 19.7998 48.3506" stroke="black" stroke-width="0.335905"/>
      <path d="M20.9961 67.081C21.0354 67.8307 21.554 67.4814 21.757 67.2559L21.9806 66.9221C21.8065 66.6387 21.6149 66.3185 21.3684 65.9876C21.2252 65.7955 21.0354 65.5875 20.8174 65.3722C20.8639 65.6919 20.9647 66.4813 20.9961 67.081Z" fill="white"/>
      <path d="M23.3437 54.5009C23.5316 54.67 23.8937 55.1593 23.8394 55.7635M22.5365 59.5905C22.9025 59.1417 23.6417 57.9217 23.6702 56.6315M27.0916 56.3448C27.039 56.0254 26.9904 55.2333 27.216 54.6201M23.8937 64.9962C24.1926 64.551 24.8015 63.8747 25.337 63.8466C25.8724 63.8186 26.1937 63.8017 26.5262 63.9991C26.8587 64.1965 27.2927 64.2811 27.7211 64.2586C28.0638 64.2407 28.4276 64.0784 28.5666 63.9996M25.1335 66.1125C25.1993 66.0016 25.3951 65.7766 25.6522 65.7631C25.9735 65.7463 26.306 65.9437 26.4187 66.0451M30.5336 64.6482L31.5485 63.5211M15.1358 59.7635C15.175 60.5132 15.1353 61.804 16.0089 62.0803C16.8825 62.3567 17.3109 62.3343 18.0998 63.0446C18.7259 63.6083 19.9799 64.5447 20.8174 65.3722M30.6403 66.683C30.1385 67.3536 29.4281 68.1426 28.7968 68.3905C28.1654 68.6383 27.3821 68.035 26.7227 67.7474C26.0633 67.4598 25.5446 67.8092 25.0091 67.8372C24.4737 67.8653 23.6281 68.1244 22.9743 67.9439C22.5531 67.8276 22.2957 67.4352 21.9806 66.9221M20.8174 65.3722C21.0354 65.5875 21.2252 65.7955 21.3684 65.9876C21.6149 66.3185 21.8065 66.6387 21.9806 66.9221M20.8174 65.3722C20.8639 65.6919 20.9647 66.4813 20.9961 67.081C21.0354 67.8307 21.554 67.4814 21.757 67.2559L21.9806 66.9221" stroke="black" stroke-width="0.335905"/>
      <path d="M16.0332 54.347C16.4352 54.5049 17.5741 55.061 18.9131 56.0217C20.5869 57.2227 21.2743 58.0458 21.9899 59.4043" stroke="black" stroke-width="0.335905"/>
      <path d="M16.252 54.4429L16.4372 57.977C17.0063 58.5915 20.3599 59.0601 21.7522 58.9872C20.1565 56.4075 17.4205 54.8828 16.252 54.4429Z" fill="white" stroke="black" stroke-width="0.335905"/>
      <path d="M19.1678 58.8006C18.3563 58.0699 18.2139 56.309 18.2442 55.5199C20.1062 56.6251 21.3606 58.2919 21.755 58.9872C21.073 58.9513 19.6007 58.8638 19.1678 58.8006Z" fill="#008086" stroke="black" stroke-width="0.335905"/>
      <circle cx="19.4034" cy="57.1773" r="0.536211" transform="rotate(-3 19.4034 57.1773)" fill="white"/>
      <circle cx="19.7524" cy="57.6959" r="0.643453" transform="rotate(-3 19.7524 57.6959)" fill="black"/>
      <path d="M27.7296 56.204C27.6619 56.5512 27.7687 57.6339 27.8306 58.1318C28.638 57.1444 29.0918 56.2401 29.2177 55.9113L28.9591 53.0253C28.5775 53.9402 27.7973 55.8569 27.7296 56.204Z" fill="white" stroke="black" stroke-width="0.335905"/>
      <path d="M28.7311 56.9032C28.8441 55.7804 28.6133 54.6542 28.4837 54.2315L27.728 56.2041L27.7448 56.5254L27.8346 58.2389C28.0019 58.0153 28.4154 57.4352 28.7311 56.9032Z" fill="#008086" stroke="black" stroke-width="0.335905"/>
      <path d="M28.2869 56.6044C28.3004 56.8614 27.943 56.873 27.7627 56.8466L27.7234 56.097C27.7854 55.9147 27.9523 55.548 28.1237 55.539C28.3379 55.5278 28.2701 56.2831 28.2869 56.6044Z" fill="black" stroke="black" stroke-width="0.335905"/>
      <g filter="url(#filter1_d_474_16528)">
        <rect x="-4.82422" y="8.19638" width="48.559" height="94.0323" rx="2.59847" transform="rotate(-3 -4.82422 8.19638)" fill="#A158ED"/>
        <rect x="-4.19531" y="20.1978" width="48.559" height="2.92328" transform="rotate(-3 -4.19531 20.1978)" fill="white"/>
        <rect x="-4.14453" y="21.1709" width="48.559" height="0.974428" transform="rotate(-3 -4.14453 21.1709)" fill="#61B9F5"/>
        <g clip-path="url(#clip1_474_16528)">
          <rect x="-4.04297" y="23.1171" width="48.559" height="74.2189" transform="rotate(-3 -4.04297 23.1171)" fill="#D8B8FF"/>
          <path d="M-2.62515 35.1359L-0.392259 34.1529L8.5576 39.5884L10.1663 70.2843L12.7424 69.8368L13.1003 76.6673L25.2401 74.7846L24.2408 68.2894L28.3997 66.0242L28.2645 65.4018L33.3374 49.4691L36.2018 49.319L32.7861 38.9485L36.913 19.995L44.4253 20.546L48.7155 89.3063L50.0669 93.6247L38.4922 105.203L39.3289 108.988L30.5728 109.447L30.1802 106.895L14.0552 109.337L13.9344 105.202L3.3603 105.756L3.13215 97.9739L-0.110771 98.1438L-2.62515 35.1359Z" fill="url(#paint0_linear_474_16528)"/>
        </g>
      </g>
    </g>
  </g>
  <defs>
    <filter id="filter0_d_474_16528" x="-7" y="-3.49555" width="66.7404" height="111.386" filterUnits="userSpaceOnUse" color-interpolation-filters="sRGB">
      <feFlood flood-opacity="0" result="BackgroundImageFix"/>
      <feColorMatrix in="SourceAlpha" type="matrix" values="0 0 0 0 0 0 0 0 0 0 0 0 0 0 0 0 0 0 127 0" result="hardAlpha"/>
      <feOffset dx="6" dy="-4"/>
      <feGaussianBlur stdDeviation="2.57527"/>
      <feComposite in2="hardAlpha" operator="out"/>
      <feColorMatrix type="matrix" values="0 0 0 0 0.784314 0 0 0 0 0.843137 0 0 0 0 0.909804 0 0 0 0.25 0"/>
      <feBlend mode="normal" in2="BackgroundImageFix" result="effect1_dropShadow_474_16528"/>
      <feBlend mode="normal" in="SourceGraphic" in2="effect1_dropShadow_474_16528" result="shape"/>
    </filter>
    <filter id="filter1_d_474_16528" x="-35.4909" y="5.655" width="114.747" height="157.778" filterUnits="userSpaceOnUse" color-interpolation-filters="sRGB">
      <feFlood flood-opacity="0" result="BackgroundImageFix"/>
      <feColorMatrix in="SourceAlpha" type="matrix" values="0 0 0 0 0 0 0 0 0 0 0 0 0 0 0 0 0 0 127 0" result="hardAlpha"/>
      <feOffset dy="30.6667"/>
      <feGaussianBlur stdDeviation="15.3333"/>
      <feComposite in2="hardAlpha" operator="out"/>
      <feColorMatrix type="matrix" values="0 0 0 0 0.784314 0 0 0 0 0.843137 0 0 0 0 0.909804 0 0 0 0.25 0"/>
      <feBlend mode="normal" in2="BackgroundImageFix" result="effect1_dropShadow_474_16528"/>
      <feBlend mode="normal" in="SourceGraphic" in2="effect1_dropShadow_474_16528" result="shape"/>
    </filter>
    <linearGradient id="paint0_linear_474_16528" x1="21.0445" y1="20.8266" x2="25.7023" y2="109.702" gradientUnits="userSpaceOnUse">
      <stop stop-color="#97A5D2"/>
      <stop offset="0.345" stop-color="#8BB0E6"/>
      <stop offset="1" stop-color="#4652AA"/>
    </linearGradient>
    <clipPath id="clip0_474_16528">
      <rect width="48" height="80" fill="white"/>
    </clipPath>
    <clipPath id="clip1_474_16528">
      <rect width="48.559" height="74.2189" fill="white" transform="translate(-4.04297 23.1171) rotate(-3)"/>
    </clipPath>
  </defs>
</svg>
