<svg width="99" height="149" viewBox="0 0 99 149" fill="none"
  xmlns="http://www.w3.org/2000/svg">
  <g opacity="0.2" filter="url(#filter0_d_415_15265)">
    <rect x="-0.000488281" y="22.2031" width="65.4723" height="126.784" rx="3.50353" transform="rotate(-9 -0.000488281 22.2031)" fill="#A158ED"/>
    <rect x="2.53455" y="38.2075" width="65.4723" height="3.94148" transform="rotate(-9 2.53455 38.2075)" fill="white"/>
    <rect x="2.73975" y="39.5051" width="65.4723" height="1.31383" transform="rotate(-9 2.73975 39.5051)" fill="#61B9F5"/>
    <rect x="3.14941" y="42.1006" width="65.4723" height="100.07" transform="rotate(-9 3.14941 42.1006)" fill="#4D6ECB"/>
    <path d="M10.0701 85.7881L77.8363 95.1188L81.6728 119.342L17.0066 129.584L10.0701 85.7881Z" fill="#65612E"/>
    <path d="M37.2627 120.168C26.6506 119.543 17.2704 113.136 13.9067 110.011L18.8051 140.938L83.4714 130.696L80.1829 109.934C70.2979 113.605 47.8748 120.793 37.2627 120.168Z" fill="#CDB389"/>
    <path d="M35.2191 96.793C33.5538 95.2164 34.4317 91.8215 34.5179 89.6844C34.7445 87.242 34.0804 86.9224 33.7305 84.7129C33.3805 82.5033 29.6206 78.4273 26.9011 76.4515C24.1816 74.4757 23.323 72.6298 24.7396 70.8483C26.1561 69.0667 33.7403 74.9436 36.2999 76.8032C38.8594 78.6628 40.3128 78.0079 42.9435 76.7419C45.5742 75.4758 43.4633 69.2983 43.0915 66.9507C42.7197 64.603 41.9773 62.5972 44.2812 61.9492C46.5851 61.3011 47.8743 66.7594 49.7665 71.5559C51.6587 76.3525 53.7095 78.5757 55.0549 79.9198C56.4003 81.2639 56.0666 82.7324 55.9654 83.8809C55.8642 85.0294 56.4903 87.1952 56.9853 88.5325C57.4802 89.8697 58.0695 90.9088 58.9062 92.6166C59.7429 94.3244 60.4115 94.0769 61.4151 95.0505C62.4187 96.024 62.0412 97.2163 61.8744 97.9505C61.7076 98.6847 61.1921 99.8989 60.7928 100.953C60.3935 102.007 59.8124 102.807 59.6893 103.817C59.5662 104.828 58.3383 106.013 57.2336 106.188C56.1288 106.363 54.9515 106.974 53.5418 107.906C52.1321 108.837 48.7221 106.97 48.2422 106.621C47.7623 106.273 41.2323 100.795 39.9526 99.8654C38.6728 98.9356 36.8844 98.3695 35.2191 96.793Z" fill="#F29600" stroke="black" stroke-width="0.437942"/>
    <path d="M44.8498 101.763C43.3926 101.661 42.2139 100.518 39.7032 99.3637L39.7374 99.58L44.9589 103.852L47.2308 105.598L48.8935 106.998L50.9203 107.896L53.1686 108.094L54.5969 107.314L56.2415 106.499L58.0456 105.992L59.3143 104.904L59.7748 103.612L59.3422 103.68L60.1442 102.445L61.8327 98.4083L62.048 96.2681L61.4099 95.0389L60.4078 94.3108L59.3714 93.3665L58.3972 91.4146L56.9787 88.7572L56.2314 85.4392L56.0088 84.0334L56.0474 81.4777L55.4264 80.3567L53.2852 78.0355L51.2746 75.1393L49.8497 71.0418L47.2342 65.0267L46.1004 62.7676C44.5855 60.9014 42.5339 62.6452 42.7257 63.8564C42.9655 65.3703 43.1421 65.7857 43.08 66.7932C43.0179 67.8007 44.3175 71.8072 44.5059 72.9967C44.6943 74.1862 44.1996 75.2621 43.8699 75.9795L43.8698 75.9795C43.2753 77.2727 41.5711 77.563 41.0304 77.6486C40.5978 77.7171 39.2092 78.0479 38.5604 78.1507C38.8355 78.2549 39.4359 78.4997 39.6364 78.6453C39.8869 78.8274 42.7274 79.2643 44.3098 79.457C45.8922 79.6498 50.0753 78.7656 51.1685 79.3684C52.2616 79.9712 54.4885 82.8332 54.7625 84.5634C55.0365 86.2936 56.4497 89.6169 56.6949 90.4649C56.94 91.3129 57.6124 92.7583 58.8939 94.5506C60.1754 96.343 60.033 96.1438 59.3221 97.2541C58.6111 98.3643 57.6893 98.8429 56.7449 99.8793C55.8006 100.916 54.5875 99.5558 53.3638 99.528C52.14 99.5001 52.0265 100.183 51.338 100.736C50.6496 101.288 50.1892 102.58 49.1645 102.41C48.1399 102.24 46.307 101.865 44.8498 101.763Z" fill="#D7890A"/>
    <path d="M35.2191 96.793C33.5538 95.2164 34.4317 91.8215 34.5179 89.6844C34.7445 87.242 34.0804 86.9224 33.7305 84.7129C33.3805 82.5033 29.6206 78.4273 26.9011 76.4515C24.1816 74.4757 23.323 72.6298 24.7396 70.8483C26.1561 69.0667 33.7403 74.9436 36.2999 76.8032C38.8594 78.6628 40.3128 78.0079 42.9435 76.7419C45.5742 75.4758 43.4633 69.2983 43.0915 66.9507C42.7197 64.603 41.9773 62.5972 44.2812 61.9492C46.5851 61.3011 47.8743 66.7594 49.7665 71.5559C51.6587 76.3525 53.7095 78.5757 55.0549 79.9198C56.4003 81.2639 56.0666 82.7324 55.9654 83.8809C55.8642 85.0294 56.4903 87.1952 56.9853 88.5325C57.4802 89.8697 58.0695 90.9088 58.9062 92.6166C59.7429 94.3244 60.4115 94.0769 61.4151 95.0505C62.4187 96.024 62.0412 97.2163 61.8744 97.9505C61.7076 98.6847 61.1921 99.8989 60.7928 100.953C60.3935 102.007 59.8124 102.807 59.6893 103.817C59.5662 104.828 58.3383 106.013 57.2336 106.188C56.1288 106.363 54.9515 106.974 53.5418 107.906C52.1321 108.837 48.7221 106.97 48.2422 106.621C47.7623 106.273 41.2323 100.795 39.9526 99.8654C38.6728 98.9356 36.8844 98.3695 35.2191 96.793Z" stroke="black" stroke-width="0.437942"/>
    <path d="M37.7091 77.571C38.4871 78.0141 39.3088 78.7333 39.8612 78.6458C40.4136 78.5583 42.3838 79.3787 43.5036 80.1923" stroke="black" stroke-width="0.437942"/>
    <path d="M47.6056 104.316C47.7587 105.282 48.3836 104.759 48.616 104.439L48.8604 103.975C48.5961 103.632 48.304 103.243 47.9393 102.847C47.7275 102.618 47.4531 102.374 47.141 102.124C47.2449 102.533 47.4831 103.542 47.6056 104.316Z" fill="white"/>
    <path d="M48.9351 87.684C49.2017 87.8778 49.738 88.4629 49.75 89.2537M48.5821 94.3933C48.9955 93.7616 49.7876 92.079 49.6487 90.4022M54.046 89.5642C53.9343 89.1572 53.7633 88.1368 53.9722 87.3109M51.0786 101.218C51.4054 100.6 52.1028 99.6397 52.7932 99.5304C53.4837 99.421 53.898 99.3554 54.3561 99.566C54.8141 99.7766 55.3884 99.8272 55.9407 99.7397C56.3827 99.6697 56.8322 99.4097 57.0018 99.2885M52.8383 102.496C52.9085 102.343 53.1317 102.025 53.4631 101.972C53.8774 101.907 54.3355 102.117 54.4954 102.234M59.6406 99.8615L60.8029 98.2618M39.0097 95.6263C39.1628 96.593 39.2872 98.2721 40.4576 98.5114C41.628 98.7507 42.1803 98.6632 43.3001 99.4768C44.1887 100.122 45.9423 101.166 47.141 102.124M60.0562 102.485C59.4969 103.423 58.6834 104.543 57.8985 104.95C57.1137 105.358 56.0158 104.682 55.1216 104.399C54.2274 104.116 53.6025 104.64 52.912 104.749C52.2216 104.859 51.1605 105.31 50.2882 105.165C49.7262 105.072 49.339 104.598 48.8604 103.975M47.141 102.124C47.4531 102.374 47.7275 102.618 47.9393 102.847C48.304 103.243 48.5961 103.632 48.8604 103.975M47.141 102.124C47.2449 102.533 47.4831 103.542 47.6056 104.316C47.7587 105.282 48.3836 104.759 48.616 104.439L48.8604 103.975" stroke="black" stroke-width="0.437942"/>
    <path d="M39.4357 88.481C39.9785 88.6309 41.5309 89.1967 43.398 90.2599C45.732 91.589 46.7355 92.5625 47.8484 94.2266" stroke="black" stroke-width="0.437942"/>
    <path d="M39.7321 88.5752L40.4538 93.1324C41.2756 93.8516 45.6878 94.0022 47.4831 93.7178C45.0625 90.5905 41.3072 88.9863 39.7321 88.5752Z" fill="white" stroke="black" stroke-width="0.437942"/>
    <path d="M44.1068 93.8282C42.955 92.9914 42.5304 90.7276 42.462 89.7003C45.027 90.8795 46.8806 92.8698 47.4867 93.7175C46.5975 93.764 44.6767 93.8512 44.1068 93.8282Z" fill="#008086" stroke="black" stroke-width="0.437942"/>
    <circle cx="44.1912" cy="91.6915" r="0.699093" transform="rotate(-9 44.1912 91.6915)" fill="white"/>
    <circle cx="44.7145" cy="92.3162" r="0.838912" transform="rotate(-9 44.7145 92.3162)" fill="black"/>
    <path d="M54.8542 89.2947C54.8138 89.7541 55.0998 91.1433 55.2479 91.7805C56.1602 90.3902 56.6253 89.1558 56.7438 88.7123L56.0152 85.0056C55.6451 86.2439 54.8947 88.8353 54.8542 89.2947Z" fill="white" stroke="black" stroke-width="0.437942"/>
    <path d="M56.2484 90.0649C56.2419 88.5937 55.7891 87.1649 55.5635 86.6343L54.8524 89.2951L54.9181 89.7094L55.268 91.9189C55.4544 91.6063 55.9115 90.7978 56.2484 90.0649Z" fill="#008086" stroke="black" stroke-width="0.437942"/>
    <path d="M55.6314 89.7379C55.6839 90.0694 55.2221 90.1331 54.9846 90.1235L54.8315 89.1568C54.8871 88.9121 55.0536 88.4138 55.2746 88.3788C55.5508 88.3351 55.5658 89.3236 55.6314 89.7379Z" fill="black" stroke="black" stroke-width="0.437942"/>
    <rect x="-0.000488281" y="22.3877" width="65.4723" height="126.31" rx="3.50353" transform="rotate(-9 -0.000488281 22.3877)" fill="#005BA6"/>
  </g>
  <rect x="3.45996" y="16.2019" width="65.2154" height="126.287" rx="3.48979" transform="rotate(-9 3.45996 16.2019)" fill="#A158ED"/>
  <rect x="5.98486" y="32.1436" width="65.2154" height="3.92601" transform="rotate(-9 5.98486 32.1436)" fill="white"/>
  <rect x="6.18958" y="33.436" width="65.2154" height="1.30867" transform="rotate(-9 6.18958 33.436)" fill="#61B9F5"/>
  <g clip-path="url(#clip0_415_15265)">
    <rect x="6.599" y="36.0212" width="65.2154" height="99.677" transform="rotate(-9 6.599 36.0212)" fill="#D8B8FF"/>
    <path d="M10.1797 51.875L13.024 50.2486L25.741 56.2522L32.1989 97.0255L35.5768 96.0661L37.0138 105.139L52.9641 100.92L50.7176 92.3852L55.9544 88.7758L55.6864 87.9635L60.2254 65.9707L64.0302 65.3681L58.0121 51.9962L60.8635 26.1014L70.9747 25.7828L86.3578 117.021L88.769 122.599L74.9345 139.688L76.5835 144.627L64.9527 146.469L64.0701 143.115L42.8755 148.641L42.1336 143.134L28.088 145.359L26.6908 134.997L22.3833 135.679L10.1797 51.875Z" fill="url(#paint0_linear_415_15265)"/>
  </g>
  <path d="M30.2999 81.1124C30.3732 79.2956 31.5676 76.5792 32.7341 73.6867C32.9132 73.2973 33.4508 72.0569 34.1692 70.2101C35.0672 67.9017 33.4807 64.7232 32.4695 62.8977C31.4583 61.0722 32.7555 60.1446 33.9882 59.9494C35.2209 59.7542 37.3898 59.7717 39.0026 59.6967C40.6154 59.6218 40.5421 61.4386 40.6258 61.9669C40.7094 62.4952 40.7931 63.0235 42.0641 65.3494C44.2976 64.6346 48.4227 65.6059 50.4993 66.1796C52.4085 65.6967 53.1112 62.1556 53.4809 59.9308C53.8506 57.7061 56.8268 59.4009 57.9949 59.938C59.1631 60.475 59.2101 61.9117 59.3217 62.6161C59.4333 63.3205 58.9711 66.1014 59.4174 68.919C59.8637 71.7365 61.0613 75.8792 62.1929 77.3246C63.3244 78.7701 63.2981 82.0235 63.1133 83.1359C62.9284 84.2483 61.3539 86.8443 60.7611 87.6603C60.1683 88.4762 60.1316 89.3846 60.2153 89.9129L60.6616 92.7305C60.801 93.611 54.6288 95.6717 53.2758 96.247C51.9228 96.8223 50.9029 96.0813 50.1427 95.8406C49.3825 95.6 38.4524 91.5547 34.4284 88.9427C30.4044 86.3308 30.2267 82.9291 30.2999 81.1124Z" fill="#DAD4E0" stroke="black" stroke-width="0.436223"/>
  <path d="M44.611 80.2899C48.2305 82.1717 51.646 86.3362 52.9013 88.1832L46.9139 89.1315C46.2096 89.243 44.8095 88.3817 44.2708 86.1203C43.7322 83.8589 44.0461 81.282 44.611 80.2899Z" fill="white" stroke="black" stroke-width="0.436223"/>
  <path d="M48.4366 84.6906C48.4769 85.5373 48.3226 86.3021 48.0514 86.8526C47.7764 87.4108 47.4087 87.7022 47.0394 87.7198C46.67 87.7374 46.2764 87.4822 45.9495 86.9526C45.6273 86.4304 45.401 85.6837 45.3607 84.837C45.3204 83.9904 45.4747 83.2256 45.7459 82.6751C46.0209 82.1168 46.3886 81.8254 46.7579 81.8079C47.1272 81.7903 47.5209 82.0454 47.8477 82.575C48.17 83.0972 48.3963 83.8439 48.4366 84.6906Z" fill="#AE8AAB" stroke="black" stroke-width="0.436223"/>
  <circle cx="46.4939" cy="83.0603" r="0.53488" transform="rotate(-9 46.4939 83.0603)" fill="#F2F3FD"/>
  <path d="M47.3873 84.836C47.4067 85.2422 47.3321 85.6035 47.2069 85.8577C47.0778 86.1197 46.9223 86.222 46.7966 86.228C46.671 86.234 46.5064 86.1469 46.3531 85.8983C46.2042 85.6572 46.0957 85.3046 46.0764 84.8984C46.057 84.4922 46.1316 84.1309 46.2568 83.8767C46.3859 83.6147 46.5414 83.5123 46.6671 83.5064C46.7927 83.5004 46.9573 83.5875 47.1106 83.836C47.2595 84.0772 47.368 84.4298 47.3873 84.836Z" fill="black" stroke="black" stroke-width="0.436223"/>
  <path d="M52.0241 95.1816C51.7643 94.6812 50.4758 94.5242 50.0958 94.4039L60.5222 91.85C61.1724 94.8157 59.7915 95.215 58.9947 95.8827C58.1979 96.5505 55.8807 96.737 55.1763 96.8485C54.472 96.9601 52.2839 95.682 52.0241 95.1816Z" fill="#DAD4E0"/>
  <path d="M42.8676 91.6621C40.1598 91.3897 36.3856 89.4749 34.8369 88.5515C35.6744 89.4122 37.9735 90.4739 38.7442 90.9128C39.5149 91.3516 44.5578 93.8486 47.1986 94.6574L51.8535 96.2996L53.0502 96.1849C53.6654 96.3796 55.209 96.7545 56.4619 96.6963C57.7149 96.6381 59.5577 95.2126 60.3225 94.5071C60.5889 93.5911 60.338 92.0065 60.0942 90.4674C59.9483 89.5465 59.7345 88.7321 60.5294 87.6381C61.4359 86.3904 62.8181 83.9631 62.88 82.9596C62.924 82.2471 63.5019 79.2174 61.4256 76.565C60.4016 75.2571 59.9475 71.9535 59.4667 70.4712C58.8194 68.4759 59.0616 65.125 59.0157 64.1386C59.0056 63.9207 55.1969 67.6797 53.4422 68.7757C54.1866 69.4174 55.906 71.05 56.8284 72.4466C57.9814 74.1923 58.4419 77.0995 58.6771 79.6918C58.8654 81.7656 58.4146 82.8304 58.1657 83.1035L57.8678 81.2224C57.8407 81.0514 56.7163 82.8072 56.1136 83.4286C55.5108 84.0499 54.1172 87.4261 54.2797 88.4522L54.9568 92.7275C55.1085 93.6851 54.9004 93.8467 54.7773 93.8077C54.5882 93.7208 53.949 93.4481 52.9047 93.0525C51.5993 92.5581 46.2522 92.0025 42.8676 91.6621Z" fill="#C6C0C8"/>
  <path d="M54.8105 87.7002C55.2365 86.9709 55.9456 85.0654 55.3738 83.2786M59.8249 87.4476C60.0626 87.0489 60.4303 85.7993 59.9994 83.9901" stroke="black" stroke-width="0.436223"/>
  <path d="M56.7229 94.0764L57.0385 94.929" stroke="black" stroke-width="0.436223" stroke-linejoin="round"/>
  <path d="M41.684 65.229C44.3749 64.7426 50.9956 64.9817 55.9513 69.8289" stroke="black" stroke-width="0.436223" stroke-linejoin="round"/>
  <path d="M40.4669 67.6283C40.385 67.1113 40.8717 64.8406 40.9638 63.7955L46.9785 73.8844C46.5893 73.9828 45.2709 73.9782 43.1116 73.1719C40.4124 72.164 40.5693 68.2746 40.4669 67.6283Z" fill="#C6C0C8"/>
  <path d="M40.5979 61.7908C40.7745 62.9061 41.2422 64.0354 41.888 65.3773C42.6952 67.0546 45.1168 72.0865 46.7209 73.0961" stroke="black" stroke-width="0.436223" stroke-linejoin="round"/>
  <path d="M53.2758 96.247C51.9228 96.8223 50.9029 96.0813 50.1427 95.8406C49.3825 95.6 38.4524 91.5547 34.4284 88.9427C30.4044 86.3308 30.2267 82.9291 30.2999 81.1124C30.3732 79.2956 31.5676 76.5792 32.7341 73.6867C32.9132 73.2973 33.4508 72.0569 34.1692 70.2101C35.0672 67.9017 33.4807 64.7232 32.4695 62.8977C31.4583 61.0722 32.7555 60.1446 33.9882 59.9494C35.2209 59.7542 37.3898 59.7717 39.0026 59.6967C40.6154 59.6218 40.5421 61.4386 40.6258 61.9669C40.7094 62.4952 40.7931 63.0235 42.0641 65.3494C44.2976 64.6346 48.4227 65.6059 50.4993 66.1796C52.4085 65.6967 53.1112 62.1556 53.4809 59.9308C53.8506 57.7061 56.8268 59.4009 57.9949 59.938C59.1631 60.475 59.2101 61.9117 59.3217 62.6161C59.4333 63.3205 58.9711 66.1014 59.4174 68.919C59.8637 71.7365 61.0613 75.8792 62.1928 77.3246C63.3244 78.7701 63.2981 82.0235 63.1133 83.1359C62.9284 84.2483 61.3539 86.8443 60.7611 87.6603C60.1683 88.4763 60.1316 89.3846 60.2153 89.9129C60.299 90.4412 60.5221 91.85 60.6616 92.7305" stroke="black" stroke-width="0.436223"/>
  <path d="M50.0958 94.4039C50.4758 94.5242 51.7643 94.6812 52.0241 95.1816C52.2839 95.682 54.472 96.9601 55.1763 96.8485C55.8807 96.737 58.1979 96.5505 58.9947 95.8827C59.7915 95.215 61.1724 94.8157 60.5222 91.85" stroke="black" stroke-width="0.436223"/>
  <defs>
    <filter id="filter0_d_415_15265" x="0" y="0.124519" width="98.5323" height="148.311" filterUnits="userSpaceOnUse" color-interpolation-filters="sRGB">
      <feFlood flood-opacity="0" result="BackgroundImageFix"/>
      <feColorMatrix in="SourceAlpha" type="matrix" values="0 0 0 0 0 0 0 0 0 0 0 0 0 0 0 0 0 0 127 0" result="hardAlpha"/>
      <feOffset dx="7.82259" dy="-5.21506"/>
      <feGaussianBlur stdDeviation="3.35755"/>
      <feComposite in2="hardAlpha" operator="out"/>
      <feColorMatrix type="matrix" values="0 0 0 0 0.784314 0 0 0 0 0.843137 0 0 0 0 0.909804 0 0 0 0.25 0"/>
      <feBlend mode="normal" in2="BackgroundImageFix" result="effect1_dropShadow_415_15265"/>
      <feBlend mode="normal" in="SourceGraphic" in2="effect1_dropShadow_415_15265" result="shape"/>
    </filter>
    <linearGradient id="paint0_linear_415_15265" x1="39.7854" y1="29.4399" x2="58.4832" y2="147.494" gradientUnits="userSpaceOnUse">
      <stop stop-color="#97A5D2"/>
      <stop offset="0.345" stop-color="#8BB0E6"/>
      <stop offset="1" stop-color="#4652AA"/>
    </linearGradient>
    <clipPath id="clip0_415_15265">
      <rect width="65.2154" height="99.677" fill="white" transform="translate(6.599 36.0212) rotate(-9)"/>
    </clipPath>
  </defs>
</svg>
