<svg width="52" height="104" viewBox="0 0 52 104" fill="none" xmlns="http://www.w3.org/2000/svg">
<g clip-path="url(#clip0_40000850_50765)">
<g filter="url(#filter0_d_40000850_50765)">
<rect x="-7" y="10.6289" width="50.2178" height="97.2445" rx="2.68724" transform="rotate(-3 -7 10.6289)" fill="#A158ED"/>
<rect x="-6.34961" y="23.041" width="50.2178" height="3.02315" transform="rotate(-3 -6.34961 23.041)" fill="white"/>
<rect x="-6.29688" y="24.0469" width="50.2178" height="1.00772" transform="rotate(-3 -6.29688 24.0469)" fill="#61B9F5"/>
<rect x="-6.19238" y="26.0586" width="50.2178" height="76.7543" transform="rotate(-3 -6.19238 26.0586)" fill="#4D6ECB"/>
<path d="M-4.41602 59.9395L46.5285 72.4901L47.513 91.275L-2.63605 93.9032L-4.41602 59.9395Z" fill="#65612E"/>
<path d="M13.5701 88.345C5.52525 87.0175 -1.11642 81.3783 -3.43164 78.7246L-2.17468 102.709L47.9743 100.081L47.1305 83.9794C39.2957 85.9877 21.615 89.6725 13.5701 88.345Z" fill="#CDB389"/>
<path d="M12.1507 61.3502C11.0068 60.014 11.9486 57.4947 12.1857 55.8715C12.5544 54.0265 12.0735 53.7296 11.9837 52.016C11.8939 50.3025 9.35256 46.8919 7.43653 45.1666C5.5205 43.4414 5.01354 41.9646 6.23694 40.7192C7.46035 39.4738 12.7744 44.5647 14.5778 46.1885C16.3811 47.8122 17.5423 47.4291 19.6505 46.6743C21.7588 45.9195 20.6438 41.038 20.5484 39.2174C20.453 37.3968 20.0475 35.8072 21.8569 35.4976C23.6663 35.188 24.2121 39.455 25.2709 43.2655C26.3297 47.076 27.7159 48.9364 28.6344 50.0695C29.5529 51.2027 29.1806 52.2961 29.0113 53.1641C28.8421 54.032 29.1461 55.7343 29.4164 56.7941C29.6867 57.8538 30.0529 58.6937 30.5542 60.0635C31.0556 61.4333 31.5854 61.2981 32.2729 62.1212C32.9604 62.9443 32.5769 63.8235 32.3908 64.3702C32.2046 64.9169 31.7141 65.8017 31.325 66.5739C30.9359 67.346 30.4285 67.9095 30.2536 68.6704C30.0787 69.4313 29.047 70.2371 28.1902 70.282C27.3335 70.3269 26.3865 70.6987 25.2365 71.2959C24.0865 71.8931 21.635 70.196 21.2969 69.8915C20.9587 69.5871 16.4167 64.8852 15.5151 64.0733C14.6134 63.2615 13.2946 62.6863 12.1507 61.3502Z" fill="#F29600" stroke="black" stroke-width="0.335905"/>
<path d="M19.0981 65.9133C17.9948 65.7188 17.1873 64.752 15.3646 63.6703L15.3734 63.838L19.0139 67.5154L20.6069 69.0297L21.763 70.2304L23.237 71.0782L24.9362 71.4096L26.0883 70.9288L27.4081 70.4391L28.825 70.1967L29.88 69.4687L30.3348 68.5198L29.9994 68.5374L30.7102 67.6593L32.3218 64.7157L32.6576 63.1003L32.2695 62.1116L31.5634 61.4759L30.8486 60.6724L30.2619 59.1054L29.3929 56.9646L29.0889 54.3737L29.0318 53.2835L29.2661 51.3371L28.8823 50.4322L27.4351 48.4898L26.1336 46.1194L25.3751 42.8796L23.8623 38.0815L23.1786 36.2674C22.1726 34.7223 20.4678 35.8881 20.517 36.8273C20.5785 38.0014 20.68 38.3324 20.5518 39.096C20.4236 39.8595 21.0938 43.0199 21.1422 43.9423C21.1905 44.8648 20.7269 45.6459 20.4178 46.1666L20.4178 46.1667C19.8606 47.1055 18.5374 47.1902 18.1181 47.2122C17.7826 47.2298 16.6968 47.3708 16.1936 47.3971C16.3952 47.4987 16.8336 47.7336 16.9748 47.8608C17.1513 48.0197 19.283 48.5807 20.4746 48.8546C21.6662 49.1285 24.928 48.7894 25.7135 49.3369C26.4991 49.8844 27.9683 52.246 28.0386 53.5878C28.1089 54.9296 28.9205 57.578 29.0395 58.2445C29.1585 58.911 29.5555 60.0674 30.3893 61.5374C31.2232 63.0073 31.1306 62.844 30.4992 63.6339C29.8679 64.4238 29.1263 64.715 28.3229 65.4298C27.5194 66.1446 26.7031 65.0101 25.7719 64.8908C24.8406 64.7714 24.6993 65.2833 24.1298 65.6496C23.5604 66.0158 23.1055 66.9646 22.3376 66.7526C21.5697 66.5405 20.2015 66.1077 19.0981 65.9133Z" fill="#D7890A"/>
<path d="M12.1507 61.3502C11.0068 60.014 11.9486 57.4947 12.1857 55.8715C12.5544 54.0265 12.0735 53.7296 11.9837 52.016C11.8939 50.3025 9.35256 46.8919 7.43653 45.1666C5.5205 43.4414 5.01354 41.9646 6.23694 40.7192C7.46035 39.4738 12.7744 44.5647 14.5778 46.1885C16.3811 47.8122 17.5423 47.4291 19.6505 46.6743C21.7588 45.9195 20.6438 41.038 20.5484 39.2174C20.453 37.3968 20.0475 35.8072 21.8569 35.4976C23.6663 35.188 24.2121 39.455 25.2709 43.2655C26.3297 47.076 27.7159 48.9364 28.6344 50.0695C29.5529 51.2027 29.1806 52.2961 29.0113 53.1641C28.8421 54.032 29.1461 55.7343 29.4164 56.7941C29.6867 57.8538 30.0529 58.6937 30.5542 60.0635C31.0556 61.4333 31.5854 61.2981 32.2729 62.1212C32.9604 62.9443 32.5769 63.8235 32.3908 64.3702C32.2046 64.9169 31.7141 65.8017 31.325 66.5739C30.9359 67.346 30.4285 67.9095 30.2536 68.6704C30.0787 69.4313 29.047 70.2371 28.1902 70.282C27.3335 70.3269 26.3865 70.6987 25.2365 71.2959C24.0865 71.8931 21.635 70.196 21.2969 69.8915C20.9587 69.5871 16.4167 64.8852 15.5151 64.0733C14.6134 63.2615 13.2946 62.6863 12.1507 61.3502Z" stroke="black" stroke-width="0.335905"/>
<path d="M15.5908 46.8867C16.1487 47.287 16.7179 47.9015 17.1463 47.8791C17.5747 47.8566 19.0118 48.6404 19.8008 49.3508" stroke="black" stroke-width="0.335905"/>
<path d="M20.9961 68.0819C21.0354 68.8315 21.554 68.4822 21.757 68.2568L21.9806 67.9229C21.8065 67.6396 21.6149 67.3194 21.3684 66.9885C21.2252 66.7964 21.0354 66.5884 20.8174 66.373C20.8639 66.6927 20.9647 67.4821 20.9961 68.0819Z" fill="white"/>
<path d="M23.3437 55.5017C23.5316 55.6708 23.8937 56.1602 23.8394 56.7644M22.5365 60.5913C22.9025 60.1426 23.6417 58.9225 23.6702 57.6324M27.0916 57.3457C27.039 57.0263 26.9904 56.2341 27.216 55.6209M23.8937 65.997C24.1926 65.5518 24.8015 64.8756 25.337 64.8475C25.8724 64.8194 26.1937 64.8026 26.5262 64.9999C26.8587 65.1973 27.2927 65.2819 27.7211 65.2595C28.0638 65.2415 28.4276 65.0793 28.5666 65.0004M25.1335 67.1133C25.1993 67.0025 25.3951 66.7774 25.6522 66.764C25.9735 66.7471 26.306 66.9445 26.4187 67.046M30.5336 65.649L31.5485 64.522M15.1358 60.7644C15.175 61.514 15.1353 62.8048 16.0089 63.0812C16.8825 63.3576 17.3109 63.3351 18.0998 64.0455C18.7259 64.6092 19.9799 65.5456 20.8174 66.373M30.6403 67.6838C30.1385 68.3545 29.4281 69.1434 28.7968 69.3913C28.1654 69.6392 27.3821 69.0359 26.7227 68.7483C26.0633 68.4607 25.5446 68.81 25.0091 68.8381C24.4737 68.8661 23.6281 69.1252 22.9743 68.9447C22.5531 68.8284 22.2957 68.4361 21.9806 67.9229M20.8174 66.373C21.0354 66.5884 21.2252 66.7964 21.3684 66.9885C21.6149 67.3194 21.8065 67.6396 21.9806 67.9229M20.8174 66.373C20.8639 66.6927 20.9647 67.4821 20.9961 68.0819C21.0354 68.8315 21.554 68.4822 21.757 68.2568L21.9806 67.9229" stroke="black" stroke-width="0.335905"/>
<path d="M16.0332 55.3477C16.4352 55.5056 17.5741 56.0616 18.9131 57.0223C20.5869 58.2233 21.2743 59.0464 21.9899 60.4049" stroke="black" stroke-width="0.335905"/>
<path d="M16.252 55.4434L16.4372 58.9775C17.0063 59.592 20.3599 60.0606 21.7522 59.9876C20.1565 57.408 17.4205 55.8833 16.252 55.4434Z" fill="white" stroke="black" stroke-width="0.335905"/>
<path d="M19.1678 59.8009C18.3563 59.0702 18.2139 57.3094 18.2442 56.5203C20.1062 57.6254 21.3606 59.2922 21.755 59.9875C21.073 59.9516 19.6007 59.8641 19.1678 59.8009Z" fill="#008086" stroke="black" stroke-width="0.335905"/>
<circle cx="19.4034" cy="58.1773" r="0.536211" transform="rotate(-3 19.4034 58.1773)" fill="white"/>
<circle cx="19.7524" cy="58.6968" r="0.643453" transform="rotate(-3 19.7524 58.6968)" fill="black"/>
<path d="M27.7296 57.2048C27.6619 57.552 27.7687 58.6346 27.8306 59.1326C28.638 58.1452 29.0918 57.2408 29.2177 56.9121L28.9591 54.0261C28.5775 54.941 27.7973 56.8576 27.7296 57.2048Z" fill="white" stroke="black" stroke-width="0.335905"/>
<path d="M28.7311 57.9042C28.8441 56.7814 28.6133 55.6552 28.4837 55.2324L27.728 57.2051L27.7448 57.5263L27.8346 59.2399C28.0019 59.0163 28.4154 58.4362 28.7311 57.9042Z" fill="#008086" stroke="black" stroke-width="0.335905"/>
<path d="M28.2869 57.6054C28.3004 57.8624 27.943 57.874 27.7627 57.8476L27.7234 57.098C27.7854 56.9157 27.9523 56.549 28.1237 56.54C28.3379 56.5288 28.2701 57.2841 28.2869 57.6054Z" fill="black" stroke="black" stroke-width="0.335905"/>
<rect x="-7" y="10.6211" width="50.0915" height="97" rx="2.68048" transform="rotate(-3 -7 10.6211)" fill="#ED2C2B"/>
<rect x="-6.35156" y="23.002" width="50.0915" height="3.01554" transform="rotate(-3 -6.35156 23.002)" fill="white"/>
<rect x="-6.29883" y="24.0059" width="50.0915" height="1.00518" transform="rotate(-3 -6.29883 24.0059)" fill="#61B9F5"/>
<g clip-path="url(#clip1_40000850_50765)">
<rect x="-6.19434" y="26.0117" width="50.0915" height="76.5613" transform="rotate(-3 -6.19434 26.0117)" fill="url(#paint0_linear_40000850_50765)"/>
<g filter="url(#filter1_f_40000850_50765)">
<ellipse cx="13.2751" cy="61.3965" rx="33.9732" ry="19.4492" transform="rotate(-23.5923 13.2751 61.3965)" fill="url(#paint1_radial_40000850_50765)" fill-opacity="0.6"/>
</g>
<path d="M4.94995 39.997C12.3576 38.088 19.4157 37.7406 24.8374 38.719C30.2671 39.6989 34.0222 42.0007 34.8876 45.3584C35.7528 48.7161 33.578 52.5462 29.2984 56.0284C25.0249 59.5054 18.6781 62.6127 11.2704 64.5218C3.86258 66.431 -3.19617 66.7785 -8.61799 65.8001C-14.0476 64.8202 -17.8027 62.5183 -18.6681 59.1607C-19.5335 55.803 -17.3587 51.9729 -13.0789 48.4907C-8.80537 45.0136 -2.45794 41.9062 4.94995 39.997Z" stroke="white" stroke-width="0.16753"/>
<path d="M4.94995 39.997C12.3576 38.088 19.4157 37.7406 24.8374 38.719C30.2671 39.6989 34.0222 42.0007 34.8876 45.3584C35.7528 48.7161 33.578 52.5462 29.2984 56.0284C25.0249 59.5054 18.6781 62.6127 11.2704 64.5218C3.86258 66.431 -3.19617 66.7785 -8.61799 65.8001C-14.0476 64.8202 -17.8027 62.5183 -18.6681 59.1607C-19.5335 55.803 -17.3587 51.9729 -13.0789 48.4907C-8.80537 45.0136 -2.45794 41.9062 4.94995 39.997Z" stroke="white" stroke-width="0.16753"/>
<g filter="url(#filter2_f_40000850_50765)">
<ellipse cx="22.6842" cy="31.008" rx="25.6157" ry="27.6898" transform="rotate(10.1861 22.6842 31.008)" fill="url(#paint2_radial_40000850_50765)"/>
</g>
<g filter="url(#filter3_f_40000850_50765)">
<ellipse cx="19.6574" cy="51.0804" rx="25.6157" ry="27.6898" transform="rotate(-23.5923 19.6574 51.0804)" fill="url(#paint3_radial_40000850_50765)"/>
</g>
<path d="M4.9492 39.9979C10.3909 38.5955 15.5857 38.381 19.5833 39.1652C23.5874 39.9507 26.3608 41.7302 27.0196 44.2868C27.6784 46.8434 26.1107 49.7418 22.9851 52.3647C19.8645 54.9834 15.213 57.3064 9.77132 58.7088C4.32985 60.1112 -0.864377 60.3255 -4.86185 59.5414C-8.86601 58.7559 -11.6392 56.9763 -12.2982 54.4197C-12.9571 51.8631 -11.3894 48.9648 -8.26361 46.3418C-5.14305 43.7232 -0.492328 41.4004 4.9492 39.9979Z" stroke="white" stroke-width="0.16753"/>
<path d="M4.9492 39.9979C10.3909 38.5955 15.5857 38.381 19.5833 39.1652C23.5874 39.9507 26.3608 41.7302 27.0196 44.2868C27.6784 46.8434 26.1107 49.7418 22.9851 52.3647C19.8645 54.9834 15.213 57.3064 9.77132 58.7088C4.32985 60.1112 -0.864377 60.3255 -4.86185 59.5414C-8.86601 58.7559 -11.6392 56.9763 -12.2982 54.4197C-12.9571 51.8631 -11.3894 48.9648 -8.26361 46.3418C-5.14305 43.7232 -0.492328 41.4004 4.9492 39.9979Z" stroke="white" stroke-width="0.16753"/>
<path d="M4.94934 39.9975C9.40002 38.8505 13.6334 38.6203 16.8786 39.1721C18.5013 39.448 19.8735 39.9187 20.9013 40.5647C21.9282 41.2104 22.6075 42.0282 22.8579 42.9992C23.1082 43.9704 22.909 45.0153 22.3219 46.077C21.7344 47.1393 20.7606 48.2147 19.4734 49.2405C16.8991 51.292 13.0818 53.1367 8.63112 54.2837C4.18049 55.4307 -0.0529427 55.6609 -3.29814 55.1092C-4.92086 54.8333 -6.29307 54.3625 -7.32084 53.7165C-8.34798 53.0708 -9.02735 52.2523 -9.27765 51.2811C-9.52779 50.31 -9.32841 49.2657 -8.74144 48.2042C-8.15396 47.1419 -7.18019 46.0665 -5.89296 45.0407C-3.31867 42.9892 0.498653 41.1446 4.94934 39.9975Z" stroke="white" stroke-width="0.16753"/>
<path d="M4.94934 39.9975C9.40002 38.8505 13.6334 38.6203 16.8786 39.1721C18.5013 39.448 19.8735 39.9187 20.9013 40.5647C21.9282 41.2104 22.6075 42.0282 22.8579 42.9992C23.1082 43.9704 22.909 45.0153 22.3219 46.077C21.7344 47.1393 20.7606 48.2147 19.4734 49.2405C16.8991 51.292 13.0818 53.1367 8.63112 54.2837C4.18049 55.4307 -0.0529427 55.6609 -3.29814 55.1092C-4.92086 54.8333 -6.29307 54.3625 -7.32084 53.7165C-8.34798 53.0708 -9.02735 52.2523 -9.27765 51.2811C-9.52779 50.31 -9.32841 49.2657 -8.74144 48.2042C-8.15396 47.1419 -7.18019 46.0665 -5.89296 45.0407C-3.31867 42.9892 0.498653 41.1446 4.94934 39.9975Z" stroke="white" stroke-width="0.16753"/>
<path d="M4.9496 39.9964C8.72236 39.0241 12.2923 38.7576 15.0127 39.1103C16.373 39.2868 17.5163 39.6177 18.3659 40.0887C19.2152 40.5596 19.764 41.1665 19.9517 41.8946C20.1393 42.6227 19.9522 43.4192 19.4363 44.242C18.9202 45.065 18.0792 45.9072 16.9736 46.7191C14.7626 48.3428 11.5085 49.8349 7.73573 50.8073C3.96295 51.7796 0.393001 52.0461 -2.32736 51.6933C-3.68769 51.5169 -4.83099 51.1861 -5.68054 50.715C-6.52991 50.2441 -7.07871 49.6373 -7.26636 48.9091C-7.45397 48.181 -7.26686 47.3844 -6.75093 46.5617C-6.23484 45.7388 -5.39387 44.8965 -4.28828 44.0845C-2.07728 42.4609 1.17682 40.9688 4.9496 39.9964Z" stroke="white" stroke-width="0.16753"/>
<path d="M4.9496 39.9964C8.72236 39.0241 12.2923 38.7576 15.0127 39.1103C16.373 39.2868 17.5163 39.6177 18.3659 40.0887C19.2152 40.5596 19.764 41.1665 19.9517 41.8946C20.1393 42.6227 19.9522 43.4192 19.4363 44.242C18.9202 45.065 18.0792 45.9072 16.9736 46.7191C14.7626 48.3428 11.5085 49.8349 7.73573 50.8073C3.96295 51.7796 0.393001 52.0461 -2.32736 51.6933C-3.68769 51.5169 -4.83099 51.1861 -5.68054 50.715C-6.52991 50.2441 -7.07871 49.6373 -7.26636 48.9091C-7.45397 48.181 -7.26686 47.3844 -6.75093 46.5617C-6.23484 45.7388 -5.39387 44.8965 -4.28828 44.0845C-2.07728 42.4609 1.17682 40.9688 4.9496 39.9964Z" stroke="white" stroke-width="0.16753"/>
<path d="M4.94933 39.9965C8.30609 39.1314 11.4389 38.7226 13.7886 38.7602C14.964 38.779 15.9389 38.9094 16.6465 39.1471C17.3578 39.3861 17.7755 39.7252 17.8838 40.1443C17.9918 40.5636 17.7903 41.063 17.2829 41.6162C16.7783 42.1663 15.9878 42.7517 14.968 43.3363C12.9291 44.5049 9.98893 45.6612 6.63217 46.5263C3.27541 47.3914 0.142624 47.8002 -2.20715 47.7626C-3.38249 47.7438 -4.35744 47.6133 -5.06503 47.3757C-5.77661 47.1366 -6.19445 46.7968 -6.30251 46.3775C-6.41031 45.9583 -6.20857 45.4595 -5.70137 44.9065C-5.19678 44.3565 -4.4063 43.7711 -3.38648 43.1865C-1.34758 42.0179 1.59256 40.8616 4.94933 39.9965Z" stroke="white" stroke-width="0.16753"/>
<path d="M4.94933 39.9965C8.30609 39.1314 11.4389 38.7226 13.7886 38.7602C14.964 38.779 15.9389 38.9094 16.6465 39.1471C17.3578 39.3861 17.7755 39.7252 17.8838 40.1443C17.9918 40.5636 17.7903 41.063 17.2829 41.6162C16.7783 42.1663 15.9878 42.7517 14.968 43.3363C12.9291 44.5049 9.98893 45.6612 6.63217 46.5263C3.27541 47.3914 0.142624 47.8002 -2.20715 47.7626C-3.38249 47.7438 -4.35744 47.6133 -5.06503 47.3757C-5.77661 47.1366 -6.19445 46.7968 -6.30251 46.3775C-6.41031 45.9583 -6.20857 45.4595 -5.70137 44.9065C-5.19678 44.3565 -4.4063 43.7711 -3.38648 43.1865C-1.34758 42.0179 1.59256 40.8616 4.94933 39.9965Z" stroke="white" stroke-width="0.16753"/>
<path d="M4.94936 39.9973C7.47399 39.3467 9.80492 38.9417 11.532 38.8132C12.3961 38.7488 13.1049 38.7542 13.6099 38.8303C13.8624 38.8684 14.0593 38.9236 14.1975 38.9935C14.3363 39.0638 14.4055 39.1432 14.4263 39.224C14.4471 39.3047 14.4246 39.4068 14.3372 39.5354C14.2499 39.6635 14.1047 39.8076 13.9018 39.9632C13.4966 40.2739 12.8783 40.6203 12.0909 40.9816C10.5167 41.7038 8.28072 42.4768 5.75605 43.1275C3.23145 43.7781 0.900257 44.1821 -0.826876 44.3107C-1.69115 44.375 -2.40047 44.3709 -2.90542 44.2947C-3.1582 44.2566 -3.35504 44.2006 -3.4933 44.1306C-3.63176 44.0604 -3.70008 43.9815 -3.72093 43.9008C-3.74175 43.82 -3.72047 43.7173 -3.63295 43.5887C-3.54576 43.4606 -3.40016 43.3174 -3.19739 43.1618C-2.79216 42.8511 -2.17343 42.5037 -1.38571 42.1423C0.188434 41.4201 2.42482 40.6479 4.94936 39.9973Z" stroke="white" stroke-width="0.16753"/>
<path d="M4.94936 39.9973C7.47399 39.3467 9.80492 38.9417 11.532 38.8132C12.3961 38.7488 13.1049 38.7542 13.6099 38.8303C13.8624 38.8684 14.0593 38.9236 14.1975 38.9935C14.3363 39.0638 14.4055 39.1432 14.4263 39.224C14.4471 39.3047 14.4246 39.4068 14.3372 39.5354C14.2499 39.6635 14.1047 39.8076 13.9018 39.9632C13.4966 40.2739 12.8783 40.6203 12.0909 40.9816C10.5167 41.7038 8.28072 42.4768 5.75605 43.1275C3.23145 43.7781 0.900257 44.1821 -0.826876 44.3107C-1.69115 44.375 -2.40047 44.3709 -2.90542 44.2947C-3.1582 44.2566 -3.35504 44.2006 -3.4933 44.1306C-3.63176 44.0604 -3.70008 43.9815 -3.72093 43.9008C-3.74175 43.82 -3.72047 43.7173 -3.63295 43.5887C-3.54576 43.4606 -3.40016 43.3174 -3.19739 43.1618C-2.79216 42.8511 -2.17343 42.5037 -1.38571 42.1423C0.188434 41.4201 2.42482 40.6479 4.94936 39.9973Z" stroke="white" stroke-width="0.16753"/>
<path d="M3.86791 35.8016C13.0324 33.4398 21.8257 33.2442 28.6326 34.8338C35.4439 36.4245 40.2428 39.7952 41.4673 44.5455C42.6916 49.296 40.1197 54.567 34.9256 59.2518C29.7348 63.9333 21.9423 68.0123 12.7778 70.3741C3.61343 72.7359 -5.17993 72.9315 -11.9869 71.3419C-18.7983 69.7512 -23.5975 66.3798 -24.8218 61.6293C-26.0458 56.8789 -23.4738 51.6086 -18.2798 46.924C-13.089 42.2424 -5.29655 38.1635 3.86791 35.8016Z" stroke="white" stroke-width="0.16753"/>
<path d="M3.86791 35.8016C13.0324 33.4398 21.8257 33.2442 28.6326 34.8338C35.4439 36.4245 40.2428 39.7952 41.4673 44.5455C42.6916 49.296 40.1197 54.567 34.9256 59.2518C29.7348 63.9333 21.9423 68.0123 12.7778 70.3741C3.61343 72.7359 -5.17993 72.9315 -11.9869 71.3419C-18.7983 69.7512 -23.5975 66.3798 -24.8218 61.6293C-26.0458 56.8789 -23.4738 51.6086 -18.2798 46.924C-13.089 42.2424 -5.29655 38.1635 3.86791 35.8016Z" stroke="white" stroke-width="0.16753"/>
<path d="M2.49317 30.4684C13.6017 27.6056 24.3281 27.6291 32.6892 29.9766C41.0527 32.3248 47.0325 36.9922 48.6856 43.4065C50.3387 49.8208 47.3599 56.7979 41.1731 62.8961C34.9881 68.9922 25.6088 74.1964 14.5005 77.0593C3.3919 79.9222 -7.33507 79.8998 -15.6962 77.5523C-24.0598 75.204 -30.0398 70.5358 -31.6929 64.1214C-33.3459 57.7072 -30.3669 50.7309 -24.1801 44.6328C-17.9951 38.5364 -8.61555 33.3313 2.49317 30.4684Z" stroke="white" stroke-width="0.16753"/>
<path d="M2.49317 30.4684C13.6017 27.6056 24.3281 27.6291 32.6892 29.9766C41.0527 32.3248 47.0325 36.9922 48.6856 43.4065C50.3387 49.8208 47.3599 56.7979 41.1731 62.8961C34.9881 68.9922 25.6088 74.1964 14.5005 77.0593C3.3919 79.9222 -7.33507 79.8998 -15.6962 77.5523C-24.0598 75.204 -30.0398 70.5358 -31.6929 64.1214C-33.3459 57.7072 -30.3669 50.7309 -24.1801 44.6328C-17.9951 38.5364 -8.61555 33.3313 2.49317 30.4684Z" stroke="white" stroke-width="0.16753"/>
<path d="M-18.3543 87.5096C-9.42051 74.4993 3.38528 65.5714 -2.08271 35.0254" stroke="white" stroke-width="0.33506"/>
<path d="M-7.7525 100.332C0.947682 76.8826 8.44906 66.4558 -0.0179966 28.5417" stroke="white" stroke-width="0.33506"/>
<path d="M3.19238 21.998C5.63073 34.6214 13.2703 68.7117 13.5731 88.4495" stroke="white" stroke-width="0.33506"/>
<path d="M7.96484 23.3145C11.0659 40.6063 15.5093 65.5621 34.4326 77.635" stroke="white" stroke-width="0.33506"/>
<path d="M11.4482 23.9688C13.7282 33.5694 15.5335 56.0505 40.7488 68.5253" stroke="white" stroke-width="0.33506"/>
<path d="M48.8033 62.6684C33.9824 55.0837 19.4961 47.8996 15.8994 39.0996" stroke="white" stroke-width="0.33506"/>
<path d="M53.7265 50.9142C31.4165 48.0072 23.3088 46.8644 17.501 39.748" stroke="white" stroke-width="0.33506"/>
<path d="M30.6019 28.2749L48.9774 19.6374L32.8994 45.7547L28.3286 34.6872L29.2152 33.0546L28.1682 31.6258L30.6019 28.2749Z" fill="#B6162A"/>
<path d="M32.0367 24.4132L46.3895 15.1679L37.518 34.3075L32.0367 24.4132Z" fill="#991728"/>
<path d="M39.6494 26.1646L46.2138 20.6019L52.0058 70.5919L42.7909 76.3447L39.8081 73.1242L29.9585 58.9565L27.7887 46.8422L31.6487 42.3933L36.0466 33.5674L37.5432 29.9075L39.6494 26.1646Z" fill="#D12B40"/>
<path d="M33.0863 86.4206L47.7337 80.8436L46.3786 88.1798L26.8138 95.6006L-3.17601 104.233L-8.14022 99.3255L2.57263 95.7966L33.0863 86.4206Z" fill="#AA0E21"/>
<path d="M38.0827 44.9973L46.4437 42.8815L48.035 73.2466L39.7924 77.6209L33.8991 49.9977L36.268 48.7831L38.0827 44.9973Z" fill="#9A1B2C"/>
<path d="M-6.08207 93.6914L48.2054 72.274L50.5265 80.4408L-4.02372 99.7742L-6.08207 93.6914Z" fill="#B91B2F"/>
<path d="M44.8784 86.8756L40.1032 89.4793L37.448 86.651L39.9134 85.8567L43.5578 84.1308L44.7661 84.7326L45.5825 84.6898L44.8784 86.8756Z" fill="#830E1D"/>
<path d="M21.8647 94.8867L-6.28022 103.576L-4.45249 108.187L6.1474 105.431L20.7111 102.161L28.6172 100.724L34.1685 98.2838L37.5799 94.0631L48.8433 90.3007L49.7227 84.6266L43.9326 86.4138L43.1616 87.324L39.187 88.6067L37.8468 89.3932L33.0179 91.9487L21.8647 94.8867Z" fill="#B32536"/>
<path d="M48.0741 96.1226L47.7157 89.2855L44.6543 89.4459L17.5562 100.536L20.1038 104.24L32.3193 105.953L48.0741 96.1226Z" fill="#720512"/>
<path d="M11.1273 101.845L-0.633233 106.862L51.9657 106.919L48.2523 92.6855L44.5804 96.8175L41.4567 99.6929L32.7767 102.962L29.2855 103.708L25.2547 103.919L21.1006 102.755L15.9234 101.594L11.1273 101.845Z" fill="#AA0E21"/>
<path d="M6.11931 99.0381L-3.96963 110.567L-4.7959 94.8008L2.95963 94.3943L6.73535 94.1965L6.84498 96.2884L6.11931 99.0381Z" fill="#720512"/>
<g filter="url(#filter4_f_40000850_50765)">
<path d="M62.3695 13.8641L34.5677 30.7551L26.9683 32.9987L30.745 36.2399L30.9116 39.4186L22.4714 41.6224L24.8067 52.5722" stroke="#C1E6FE" stroke-width="2.01036"/>
</g>
<g filter="url(#filter5_f_40000850_50765)">
<path d="M62.3695 13.8641L34.5677 30.7551L26.9683 32.9987L30.745 36.2399L30.9116 39.4186L22.4714 41.6224L24.8067 52.5722" stroke="white" stroke-opacity="0.2" stroke-width="0.16753"/>
</g>
<g filter="url(#filter6_f_40000850_50765)">
<path d="M-12.0267 23.299L0.436854 53.3473L5.24511 59.6453L0.283278 60.031L-1.72814 62.4981L3.78226 69.2605L-4.56812 76.7185" stroke="#C1E6FE" stroke-width="2.01036"/>
</g>
<g filter="url(#filter7_f_40000850_50765)">
<path d="M-12.0267 23.299L0.436854 53.3473L5.24511 59.6453L0.283278 60.031L-1.72814 62.4981L3.78226 69.2605L-4.56812 76.7185" stroke="white" stroke-opacity="0.2" stroke-width="0.16753"/>
</g>
<path d="M32.9422 49.3461C35.0203 48.9856 32.6244 52.8857 32.5053 53.8147L27.9009 50.7846C28.8886 50.4253 31.2797 49.6346 32.9422 49.3461Z" fill="#292421" stroke="black" stroke-width="0.16753"/>
<path d="M7.14503 50.5411C5.04062 50.3998 7.83106 54.0281 8.04658 54.9395L12.3091 51.4447C11.2892 51.1907 8.82856 50.6542 7.14503 50.5411Z" fill="#292421" stroke="black" stroke-width="0.16753"/>
<path d="M19.9443 44.8576L23.9629 49.512L24.0744 49.6421L24.0558 49.6431C23.2944 48.5904 21.7658 47.9168 20.0428 48.0071C18.3201 48.0975 16.8711 48.9271 16.2238 50.0535L16.2043 50.0546L16.3015 49.9135L19.8116 44.8645L19.8735 44.7762L19.9443 44.8576Z" fill="#292421"/>
<path d="M19.9443 44.8576L20.0077 44.8028L20.0075 44.8026L19.9443 44.8576ZM23.9629 49.512L24.0265 49.4575L24.0263 49.4573L23.9629 49.512ZM24.0744 49.6421L24.0787 49.7258L24.2487 49.7169L24.138 49.5876L24.0744 49.6421ZM24.0558 49.6431L23.988 49.6922L24.0147 49.7291L24.0602 49.7267L24.0558 49.6431ZM20.0428 48.0071L20.0384 47.9235L20.0384 47.9235L20.0428 48.0071ZM16.2238 50.0535L16.2282 50.1372L16.2737 50.1348L16.2964 50.0953L16.2238 50.0535ZM16.2043 50.0546L16.1353 50.007L16.0387 50.1471L16.2087 50.1382L16.2043 50.0546ZM16.3015 49.9135L16.2328 49.8657L16.2326 49.866L16.3015 49.9135ZM19.8116 44.8645L19.743 44.8165L19.7429 44.8167L19.8116 44.8645ZM19.8735 44.7762L19.9367 44.7212L19.8664 44.6404L19.8049 44.7281L19.8735 44.7762ZM19.9443 44.8576L19.8809 44.9123L23.8995 49.5668L23.9629 49.512L24.0263 49.4573L20.0077 44.8028L19.9443 44.8576ZM23.9629 49.512L23.8993 49.5665L24.0107 49.6966L24.0744 49.6421L24.138 49.5876L24.0265 49.4575L23.9629 49.512ZM24.0744 49.6421L24.07 49.5585L24.0514 49.5594L24.0558 49.6431L24.0602 49.7267L24.0787 49.7258L24.0744 49.6421ZM24.0558 49.6431L24.1237 49.594C23.3419 48.5132 21.783 47.832 20.0384 47.9235L20.0428 48.0071L20.0472 48.0908C21.7486 48.0016 23.2468 48.6675 23.988 49.6922L24.0558 49.6431ZM20.0428 48.0071L20.0384 47.9235C18.2941 48.015 16.8157 48.8554 16.1512 50.0118L16.2238 50.0535L16.2964 50.0953C16.9265 48.9989 18.3461 48.18 20.0472 48.0908L20.0428 48.0071ZM16.2238 50.0535L16.2194 49.9699L16.1999 49.9709L16.2043 50.0546L16.2087 50.1382L16.2282 50.1372L16.2238 50.0535ZM16.2043 50.0546L16.2733 50.1021L16.3705 49.9611L16.3015 49.9135L16.2326 49.866L16.1353 50.007L16.2043 50.0546ZM16.3015 49.9135L16.3703 49.9614L19.8804 44.9123L19.8116 44.8645L19.7429 44.8167L16.2328 49.8657L16.3015 49.9135ZM19.8116 44.8645L19.8802 44.9126L19.9421 44.8243L19.8735 44.7762L19.8049 44.7281L19.743 44.8165L19.8116 44.8645ZM19.8735 44.7762L19.8103 44.8312L19.8811 44.9125L19.9443 44.8576L20.0075 44.8026L19.9367 44.7212L19.8735 44.7762Z" fill="black"/>
<ellipse cx="20.8195" cy="62.8979" rx="16.1667" ry="14.2401" transform="rotate(-3 20.8195 62.8979)" fill="#292421"/>
<path d="M19.9506 47.9284C21.1681 47.8646 22.2936 48.1767 23.1281 48.7369C23.9625 49.297 24.5103 50.1091 24.5593 51.0421C24.6082 51.9751 24.1482 52.8399 23.3769 53.4843C22.6055 54.1286 21.5188 54.5566 20.3013 54.6204C19.0839 54.6841 17.9592 54.372 17.1247 53.8119C16.2902 53.2517 15.7415 52.4398 15.6926 51.5068C15.6437 50.5737 16.1046 49.7088 16.8759 49.0645C17.6473 48.4203 18.7332 47.9923 19.9506 47.9284Z" fill="#292421" stroke="black" stroke-width="0.16753"/>
<ellipse cx="20.82" cy="61.3052" rx="11.8946" ry="9.29793" transform="rotate(-3 20.82 61.3052)" fill="#E84042"/>
<path d="M20.145 50.0167C27.0285 49.6561 32.8498 53.9707 33.1476 59.6531C33.2782 62.1461 32.3238 64.4881 30.6301 66.3624C32.031 64.7356 32.8071 62.7662 32.698 60.6829C32.4292 55.5549 26.8934 51.6765 20.3331 52.0203C13.7731 52.3643 8.67277 56.8 8.94151 61.928C9.20969 67.0445 14.7216 70.916 21.2624 70.5919C21.2494 70.5926 21.2365 70.5942 21.2235 70.5949C14.3399 70.9556 8.51786 66.6419 8.21992 60.9595C7.92211 55.2771 13.2614 50.3774 20.145 50.0167Z" fill="#F0893A"/>
<circle cx="28.8289" cy="57.2774" r="0.921416" transform="rotate(-3 28.8289 57.2774)" fill="#F0893A" stroke="black" stroke-width="0.16753"/>
<circle cx="12.3103" cy="58.9824" r="0.921416" transform="rotate(-3 12.3103 58.9824)" fill="#F0893A" stroke="black" stroke-width="0.16753"/>
<mask id="path-68-outside-1_40000850_50765" maskUnits="userSpaceOnUse" x="9.13946" y="57.9496" width="23.6488" height="14.1859" fill="black">
<rect fill="white" x="9.13946" y="57.9496" width="23.6488" height="14.1859"/>
<path d="M20.7141 59.5481C25.6674 59.2885 29.9958 61.6249 31.6221 65.0815C29.7847 68.1306 25.9344 70.3463 21.3766 70.5852C16.7393 70.8282 12.6164 68.9594 10.5014 66.0329C11.8199 62.5027 15.8336 59.8039 20.7141 59.5481Z"/>
</mask>
<path d="M20.7141 59.5481C25.6674 59.2885 29.9958 61.6249 31.6221 65.0815C29.7847 68.1306 25.9344 70.3463 21.3766 70.5852C16.7393 70.8282 12.6164 68.9594 10.5014 66.0329C11.8199 62.5027 15.8336 59.8039 20.7141 59.5481Z" fill="#E84042"/>
<path d="M20.7141 59.5481L20.7053 59.3808L20.7053 59.3808L20.7141 59.5481ZM31.6221 65.0815L31.7656 65.1679L31.8119 65.0912L31.7737 65.0101L31.6221 65.0815ZM21.3766 70.5852L21.3854 70.7525L21.3854 70.7525L21.3766 70.5852ZM10.5014 66.0329L10.3444 65.9743L10.313 66.0583L10.3656 66.131L10.5014 66.0329ZM20.7141 59.5481L20.7228 59.7154C25.6257 59.4584 29.8801 61.7723 31.4705 65.1528L31.6221 65.0815L31.7737 65.0101C30.1116 61.4774 25.709 59.1186 20.7053 59.3808L20.7141 59.5481ZM31.6221 65.0815L31.4786 64.995C29.6749 67.9883 25.8804 70.1813 21.3678 70.4179L21.3766 70.5852L21.3854 70.7525C25.9884 70.5112 29.8946 68.2729 31.7656 65.1679L31.6221 65.0815ZM21.3766 70.5852L21.3678 70.4179C16.7763 70.6585 12.7129 68.8069 10.6372 65.9347L10.5014 66.0329L10.3656 66.131C12.5199 69.1119 16.7023 70.9979 21.3854 70.7525L21.3766 70.5852ZM10.5014 66.0329L10.6583 66.0915C11.9482 62.6381 15.8924 59.9686 20.7228 59.7154L20.7141 59.5481L20.7053 59.3808C15.7748 59.6392 11.6916 62.3674 10.3444 65.9743L10.5014 66.0329Z" fill="black" mask="url(#path-68-outside-1_40000850_50765)"/>
<mask id="path-70-outside-2_40000850_50765" maskUnits="userSpaceOnUse" x="13.8231" y="48.7186" width="12.9779" height="19.602" fill="black">
<rect fill="white" x="13.8231" y="48.7186" width="12.9779" height="19.602"/>
<path d="M20.0915 50.0195C20.6382 49.9909 21.178 49.9941 21.7091 50.0228L21.8294 50.1162L21.86 50.14L21.862 50.1781C22.0187 53.1678 22.1703 55.3703 22.3579 57.0287C22.5456 58.6876 22.7685 59.7987 23.0647 60.607C23.6537 62.2137 24.5305 62.6328 26.0699 63.8183L26.1646 63.8906L26.0634 63.9556L20.8682 67.2466L20.8246 67.2743L20.7802 67.2483L15.6693 64.161L15.5985 64.1177L15.6398 64.0471C15.974 63.4724 16.3668 63.1437 16.7391 62.7808C17.1108 62.4185 17.4743 62.0121 17.7748 61.2714C18.3797 59.7805 18.7342 56.9273 18.3483 50.3632L18.3473 50.3437L18.3541 50.3257C18.3715 50.2841 18.3892 50.2435 18.4064 50.2037C18.9559 50.1128 19.5182 50.0496 20.0915 50.0195Z"/>
</mask>
<path d="M20.0915 50.0195C20.6382 49.9909 21.178 49.9941 21.7091 50.0228L21.8294 50.1162L21.86 50.14L21.862 50.1781C22.0187 53.1678 22.1703 55.3703 22.3579 57.0287C22.5456 58.6876 22.7685 59.7987 23.0647 60.607C23.6537 62.2137 24.5305 62.6328 26.0699 63.8183L26.1646 63.8906L26.0634 63.9556L20.8682 67.2466L20.8246 67.2743L20.7802 67.2483L15.6693 64.161L15.5985 64.1177L15.6398 64.0471C15.974 63.4724 16.3668 63.1437 16.7391 62.7808C17.1108 62.4185 17.4743 62.0121 17.7748 61.2714C18.3797 59.7805 18.7342 56.9273 18.3483 50.3632L18.3473 50.3437L18.3541 50.3257C18.3715 50.2841 18.3892 50.2435 18.4064 50.2037C18.9559 50.1128 19.5182 50.0496 20.0915 50.0195Z" fill="#292421"/>
<path d="M20.0915 50.0195L20.0827 49.8522L20.0827 49.8522L20.0915 50.0195ZM21.7091 50.0228L21.8119 49.8905L21.7705 49.8583L21.7181 49.8555L21.7091 50.0228ZM21.8294 50.1162L21.9323 49.984L21.9322 49.9839L21.8294 50.1162ZM21.86 50.14L22.0273 50.1313L22.0233 50.0549L21.9629 50.0079L21.86 50.14ZM21.862 50.1781L21.6947 50.1868L21.6947 50.1868L21.862 50.1781ZM22.3579 57.0287L22.1914 57.0475L22.1914 57.0475L22.3579 57.0287ZM23.0647 60.607L22.9074 60.6646L22.9074 60.6646L23.0647 60.607ZM26.0699 63.8183L25.9677 63.9511L25.9683 63.9515L26.0699 63.8183ZM26.1646 63.8906L26.2551 64.0316L26.4563 63.9025L26.2662 63.7574L26.1646 63.8906ZM26.0634 63.9556L26.153 64.0971L26.1539 64.0966L26.0634 63.9556ZM20.8682 67.2466L20.7785 67.1051L20.7782 67.1053L20.8682 67.2466ZM20.8246 67.2743L20.7399 67.4189L20.8282 67.4707L20.9146 67.4157L20.8246 67.2743ZM20.7802 67.2483L20.6936 67.3917L20.6955 67.3928L20.7802 67.2483ZM15.6693 64.161L15.5819 64.3039L15.5826 64.3044L15.6693 64.161ZM15.5985 64.1177L15.4539 64.0332L15.371 64.175L15.5112 64.2607L15.5985 64.1177ZM15.6398 64.0471L15.7845 64.1317L15.7847 64.1313L15.6398 64.0471ZM16.7391 62.7808L16.8561 62.9008L16.8561 62.9008L16.7391 62.7808ZM17.7748 61.2714L17.9301 61.3344L17.9301 61.3344L17.7748 61.2714ZM18.3483 50.3632L18.181 50.372L18.181 50.373L18.3483 50.3632ZM18.3473 50.3437L18.1908 50.2838L18.1781 50.3169L18.18 50.3525L18.3473 50.3437ZM18.3541 50.3257L18.1995 50.2612L18.1977 50.2658L18.3541 50.3257ZM18.4064 50.2037L18.3791 50.0384L18.2888 50.0533L18.2526 50.1374L18.4064 50.2037ZM20.0915 50.0195L20.1002 50.1868C20.6405 50.1585 21.1744 50.1617 21.7001 50.1901L21.7091 50.0228L21.7181 49.8555C21.1816 49.8265 20.6358 49.8232 20.0827 49.8522L20.0915 50.0195ZM21.7091 50.0228L21.6063 50.1551L21.7266 50.2485L21.8294 50.1162L21.9322 49.9839L21.8119 49.8905L21.7091 50.0228ZM21.8294 50.1162L21.7264 50.2484L21.757 50.2722L21.86 50.14L21.9629 50.0079L21.9323 49.984L21.8294 50.1162ZM21.86 50.14L21.6927 50.1488L21.6947 50.1868L21.862 50.1781L22.0293 50.1693L22.0273 50.1313L21.86 50.14ZM21.862 50.1781L21.6947 50.1868C21.8514 53.177 22.0032 55.3838 22.1914 57.0475L22.3579 57.0287L22.5244 57.0099C22.3373 55.3568 22.1859 53.1586 22.0293 50.1693L21.862 50.1781ZM22.3579 57.0287L22.1914 57.0475C22.3796 58.7104 22.6042 59.8373 22.9074 60.6646L23.0647 60.607L23.222 60.5493C22.9327 59.7601 22.7117 58.6649 22.5244 57.0098L22.3579 57.0287ZM23.0647 60.607L22.9074 60.6646C23.5173 62.3284 24.4482 62.7809 25.9677 63.9511L26.0699 63.8183L26.1721 63.6856C24.6128 62.4847 23.7901 62.099 23.222 60.5493L23.0647 60.607ZM26.0699 63.8183L25.9683 63.9515L26.063 64.0238L26.1646 63.8906L26.2662 63.7574L26.1715 63.6851L26.0699 63.8183ZM26.1646 63.8906L26.0741 63.7496L25.9729 63.8146L26.0634 63.9556L26.1539 64.0966L26.2551 64.0316L26.1646 63.8906ZM26.0634 63.9556L25.9737 63.8141L20.7785 67.1051L20.8682 67.2466L20.9578 67.3882L26.153 64.0971L26.0634 63.9556ZM20.8682 67.2466L20.7782 67.1053L20.7347 67.133L20.8246 67.2743L20.9146 67.4157L20.9581 67.388L20.8682 67.2466ZM20.8246 67.2743L20.9094 67.1298L20.865 67.1038L20.7802 67.2483L20.6955 67.3928L20.7399 67.4189L20.8246 67.2743ZM20.7802 67.2483L20.8669 67.1049L15.7559 64.0176L15.6693 64.161L15.5826 64.3044L20.6936 67.3917L20.7802 67.2483ZM15.6693 64.161L15.7567 64.018L15.6859 63.9748L15.5985 64.1177L15.5112 64.2607L15.5819 64.3039L15.6693 64.161ZM15.5985 64.1177L15.7432 64.2023L15.7845 64.1317L15.6398 64.0471L15.4952 63.9626L15.4539 64.0332L15.5985 64.1177ZM15.6398 64.0471L15.7847 64.1313C16.1044 63.5815 16.4754 63.2718 16.8561 62.9008L16.7391 62.7808L16.6222 62.6609C16.2582 63.0156 15.8436 63.3634 15.495 63.9629L15.6398 64.0471ZM16.7391 62.7808L16.8561 62.9008C17.2374 62.5291 17.6178 62.104 17.9301 61.3344L17.7748 61.2714L17.6196 61.2084C17.3308 61.9202 16.9843 62.3079 16.6222 62.6609L16.7391 62.7808ZM17.7748 61.2714L17.9301 61.3344C18.5507 59.8043 18.9013 56.9158 18.5155 50.3534L18.3483 50.3632L18.181 50.373C18.567 56.9389 18.2086 59.7566 17.6196 61.2085L17.7748 61.2714ZM18.3483 50.3632L18.5156 50.3544L18.5146 50.3349L18.3473 50.3437L18.18 50.3525L18.181 50.372L18.3483 50.3632ZM18.3473 50.3437L18.5037 50.4036L18.5106 50.3857L18.3541 50.3257L18.1977 50.2658L18.1908 50.2838L18.3473 50.3437ZM18.3541 50.3257L18.5088 50.3902C18.5256 50.3498 18.5426 50.3109 18.5603 50.27L18.4064 50.2037L18.2526 50.1374C18.2358 50.1762 18.2174 50.2184 18.1995 50.2612L18.3541 50.3257ZM18.4064 50.2037L18.4337 50.369C18.9775 50.2791 19.5335 50.2165 20.1002 50.1868L20.0915 50.0195L20.0827 49.8522C19.5028 49.8826 18.9344 49.9466 18.3791 50.0384L18.4064 50.2037Z" fill="black" mask="url(#path-70-outside-2_40000850_50765)"/>
<circle cx="17.9435" cy="65.6493" r="3.01554" transform="rotate(-3 17.9435 65.6493)" fill="#292421" stroke="black" stroke-width="0.16753"/>
<circle cx="23.799" cy="65.3427" r="3.01554" transform="rotate(-3 23.799 65.3427)" fill="#292421" stroke="black" stroke-width="0.16753"/>
<path d="M21.6822 80.9714L20.8624 65.3288L15.6973 69.2063L21.6822 80.9714Z" fill="#7D8283" stroke="black" stroke-width="0.16753"/>
<path d="M21.683 80.9701L20.8632 65.3274L26.4053 68.6438L21.683 80.9701Z" fill="#7D8283" stroke="black" stroke-width="0.16753"/>
<path d="M18.5697 65.1966C19.345 64.9796 18.8354 63.5951 18.4129 62.206C16.3418 54.3764 9.76572 48.9878 7.22809 47.2685C4.69046 45.5493 5.28264 46.8413 6.4712 47.8374C11.2849 51.2896 16.1967 61.6165 16.509 62.5704C16.8212 63.5242 17.7943 65.4137 18.5697 65.1966Z" fill="#292421" stroke="black" stroke-width="0.16753"/>
<mask id="path-77-inside-3_40000850_50765" fill="white">
<path d="M17.3795 59.1435C17.7352 59.9715 18.0435 60.8351 18.2888 61.7332C17.7717 62.0766 17.0057 62.295 16.3958 62.4094L16.3331 62.2396C16.2622 62.0249 15.9292 61.2793 15.3971 60.2224C16.5444 60.1376 17.1225 59.6455 17.3795 59.1435ZM14.3884 54.0919C15.0128 54.9097 15.6126 55.7912 16.1608 56.7323C15.7224 57.1665 14.9429 57.6136 14.1713 57.9181C13.855 57.3506 13.5137 56.7529 13.1474 56.1441C13.0823 56.0358 13.015 55.928 12.9485 55.8191C13.7326 55.4647 14.1669 54.7569 14.3884 54.0919ZM10.7916 50.1723C11.4372 50.7642 12.1148 51.4346 12.7919 52.1787C12.4473 52.609 11.9149 53.0655 11.3879 53.4141C10.894 52.702 10.3798 52.0067 9.8522 51.3549C10.1472 51.0195 10.4772 50.5972 10.7916 50.1723Z"/>
</mask>
<path d="M17.3795 59.1435C17.7352 59.9715 18.0435 60.8351 18.2888 61.7332C17.7717 62.0766 17.0057 62.295 16.3958 62.4094L16.3331 62.2396C16.2622 62.0249 15.9292 61.2793 15.3971 60.2224C16.5444 60.1376 17.1225 59.6455 17.3795 59.1435ZM14.3884 54.0919C15.0128 54.9097 15.6126 55.7912 16.1608 56.7323C15.7224 57.1665 14.9429 57.6136 14.1713 57.9181C13.855 57.3506 13.5137 56.7529 13.1474 56.1441C13.0823 56.0358 13.015 55.928 12.9485 55.8191C13.7326 55.4647 14.1669 54.7569 14.3884 54.0919ZM10.7916 50.1723C11.4372 50.7642 12.1148 51.4346 12.7919 52.1787C12.4473 52.609 11.9149 53.0655 11.3879 53.4141C10.894 52.702 10.3798 52.0067 9.8522 51.3549C10.1472 51.0195 10.4772 50.5972 10.7916 50.1723Z" fill="#E84042"/>
<path d="M17.3795 59.1435L17.5334 59.0774L17.3928 58.75L17.2304 59.0671L17.3795 59.1435ZM18.2888 61.7332L18.3814 61.8728L18.4823 61.8059L18.4504 61.6891L18.2888 61.7332ZM16.3958 62.4094L16.2386 62.4674L16.2876 62.6002L16.4267 62.5741L16.3958 62.4094ZM16.3331 62.2396L16.1739 62.2922L16.1759 62.2976L16.3331 62.2396ZM15.3971 60.2224L15.3848 60.0553L15.1348 60.0738L15.2475 60.2977L15.3971 60.2224ZM14.3884 54.0919L14.5215 53.9903L14.3294 53.7387L14.2294 54.039L14.3884 54.0919ZM16.1608 56.7323L16.2787 56.8513L16.3709 56.76L16.3056 56.648L16.1608 56.7323ZM14.1713 57.9181L14.025 57.9997L14.0964 58.1278L14.2328 58.0739L14.1713 57.9181ZM13.1474 56.1441L13.291 56.0577L13.291 56.0577L13.1474 56.1441ZM12.9485 55.8191L12.8795 55.6664L12.7067 55.7445L12.8055 55.9064L12.9485 55.8191ZM10.7916 50.1723L10.9048 50.0488L10.7676 49.923L10.6569 50.0726L10.7916 50.1723ZM12.7919 52.1787L12.9227 52.2835L13.0121 52.1718L12.9158 52.066L12.7919 52.1787ZM11.3879 53.4141L11.2502 53.5095L11.3436 53.6442L11.4803 53.5538L11.3879 53.4141ZM9.8522 51.3549L9.72641 51.2443L9.63304 51.3504L9.72199 51.4603L9.8522 51.3549ZM17.3795 59.1435L17.2256 59.2096C17.5785 60.0311 17.8841 60.8873 18.1272 61.7774L18.2888 61.7332L18.4504 61.6891C18.2029 60.7829 17.892 59.9119 17.5334 59.0774L17.3795 59.1435ZM18.2888 61.7332L18.1961 61.5937C17.7076 61.9181 16.9685 62.1315 16.3649 62.2448L16.3958 62.4094L16.4267 62.5741C17.0429 62.4585 17.8358 62.2351 18.3814 61.8728L18.2888 61.7332ZM16.3958 62.4094L16.5529 62.3514L16.4903 62.1816L16.3331 62.2396L16.1759 62.2976L16.2386 62.4674L16.3958 62.4094ZM16.3331 62.2396L16.4922 62.1871C16.4167 61.9586 16.0777 61.2018 15.5468 60.147L15.3971 60.2224L15.2475 60.2977C15.7806 61.3568 16.1077 62.0912 16.174 62.2921L16.3331 62.2396ZM15.3971 60.2224L15.4095 60.3894C16.6057 60.3011 17.241 59.7817 17.5286 59.2198L17.3795 59.1435L17.2304 59.0671C17.004 59.5094 16.483 59.9741 15.3848 60.0553L15.3971 60.2224ZM14.3884 54.0919L14.2552 54.1936C14.8759 55.0064 15.4716 55.8821 16.0161 56.8166L16.1608 56.7323L16.3056 56.648C15.7535 55.7003 15.1498 54.813 14.5215 53.9903L14.3884 54.0919ZM16.1608 56.7323L16.0429 56.6133C15.6272 57.025 14.871 57.4619 14.1098 57.7623L14.1713 57.9181L14.2328 58.0739C15.0148 57.7653 15.8177 57.308 16.2787 56.8513L16.1608 56.7323ZM14.1713 57.9181L14.3177 57.8365C14.0008 57.268 13.6585 56.6686 13.291 56.0577L13.1474 56.1441L13.0039 56.2304C13.3689 56.8372 13.7092 57.4332 14.025 57.9997L14.1713 57.9181ZM13.1474 56.1441L13.291 56.0577C13.2256 55.9491 13.1567 55.8386 13.0915 55.7318L12.9485 55.8191L12.8055 55.9064C12.8733 56.0175 12.9389 56.1225 13.0039 56.2304L13.1474 56.1441ZM12.9485 55.8191L13.0175 55.9717C13.8599 55.591 14.3177 54.8346 14.5473 54.1449L14.3884 54.0919L14.2294 54.039C14.0162 54.6792 13.6053 55.3384 12.8795 55.6664L12.9485 55.8191ZM10.7916 50.1723L10.6784 50.2958C11.3206 50.8846 11.9946 51.5514 12.668 52.2915L12.7919 52.1787L12.9158 52.066C12.235 51.3177 11.5538 50.6438 10.9048 50.0488L10.7916 50.1723ZM12.7919 52.1787L12.6612 52.074C12.3303 52.4871 11.8124 52.9325 11.2955 53.2743L11.3879 53.4141L11.4803 53.5538C12.0174 53.1986 12.5643 52.7309 12.9227 52.2835L12.7919 52.1787ZM11.3879 53.4141L11.5255 53.3186C11.0298 52.6038 10.5131 51.9051 9.98242 51.2495L9.8522 51.3549L9.72199 51.4603C10.2465 52.1083 10.7582 52.8002 11.2502 53.5095L11.3879 53.4141ZM9.8522 51.3549L9.978 51.4655C10.2774 51.1252 10.6105 50.6987 10.9263 50.2719L10.7916 50.1723L10.6569 50.0726C10.3438 50.4958 10.0169 50.9139 9.72641 51.2443L9.8522 51.3549Z" fill="black" mask="url(#path-77-inside-3_40000850_50765)"/>
<path d="M23.4643 64.9403C22.6705 64.8055 23.0326 63.3753 23.3075 61.9497C24.5489 53.9465 30.5257 47.9 32.8697 45.9249C35.2137 43.9498 34.7599 45.2967 33.6819 46.4116C29.2554 50.3481 25.45 61.1318 25.2392 62.1131C25.0284 63.0943 24.258 65.0752 23.4643 64.9403Z" fill="#292421" stroke="black" stroke-width="0.16753"/>
<mask id="path-80-inside-4_40000850_50765" fill="white">
<path d="M24.0142 58.7958C23.747 59.6568 23.5308 60.5482 23.3807 61.4674C23.9309 61.7547 24.7154 61.8912 25.334 61.9411L25.3786 61.7656C25.4266 61.5447 25.6798 60.7685 26.0985 59.6616C24.9485 59.6972 24.3223 59.2684 24.0142 58.7958ZM26.4619 53.4583C25.9259 54.3374 25.4214 55.2775 24.9743 56.2714C25.4557 56.6575 26.2778 57.0205 27.0768 57.2428C27.3322 56.6452 27.6089 56.0146 27.9096 55.3705C27.9629 55.2564 28.018 55.1424 28.0726 55.0275C27.2557 54.7567 26.7514 54.0966 26.4619 53.4583ZM29.6283 49.1851C29.0483 49.8411 28.4441 50.5781 27.8486 51.3887C28.2364 51.7811 28.8133 52.1806 29.3742 52.4725C29.7909 51.7127 30.2297 50.9675 30.6862 50.2641C30.3577 49.9613 29.9856 49.5751 29.6283 49.1851Z"/>
</mask>
<path d="M24.0142 58.7958C23.747 59.6568 23.5308 60.5482 23.3807 61.4674C23.9309 61.7547 24.7154 61.8912 25.334 61.9411L25.3786 61.7656C25.4266 61.5447 25.6798 60.7685 26.0985 59.6616C24.9485 59.6972 24.3223 59.2684 24.0142 58.7958ZM26.4619 53.4583C25.9259 54.3374 25.4214 55.2775 24.9743 56.2714C25.4557 56.6575 26.2778 57.0205 27.0768 57.2428C27.3322 56.6452 27.6089 56.0146 27.9096 55.3705C27.9629 55.2564 28.018 55.1424 28.0726 55.0275C27.2557 54.7567 26.7514 54.0966 26.4619 53.4583ZM29.6283 49.1851C29.0483 49.8411 28.4441 50.5781 27.8486 51.3887C28.2364 51.7811 28.8133 52.1806 29.3742 52.4725C29.7909 51.7127 30.2297 50.9675 30.6862 50.2641C30.3577 49.9613 29.9856 49.5751 29.6283 49.1851Z" fill="#E84042"/>
<path d="M24.0142 58.7958L23.8542 58.7462L23.9599 58.4057L24.1546 58.7044L24.0142 58.7958ZM23.3807 61.4674L23.3032 61.6159L23.1959 61.5599L23.2154 61.4404L23.3807 61.4674ZM25.334 61.9411L25.4963 61.9823L25.4615 62.1194L25.3205 62.108L25.334 61.9411ZM25.3786 61.7656L25.5424 61.8013L25.5409 61.8069L25.3786 61.7656ZM26.0985 59.6616L26.0934 59.4941L26.3439 59.4864L26.2552 59.7209L26.0985 59.6616ZM26.4619 53.4583L26.3188 53.3711L26.4836 53.1007L26.6144 53.3891L26.4619 53.4583ZM24.9743 56.2714L24.8694 56.4021L24.7683 56.321L24.8215 56.2027L24.9743 56.2714ZM27.0768 57.2428L27.2309 57.3086L27.1732 57.4435L27.0319 57.4042L27.0768 57.2428ZM27.9096 55.3705L27.7579 55.2996L27.7579 55.2996L27.9096 55.3705ZM28.0726 55.0275L28.1253 54.8685L28.3053 54.9281L28.2239 55.0994L28.0726 55.0275ZM29.6283 49.1851L29.5028 49.0742L29.6261 48.9347L29.7518 49.072L29.6283 49.1851ZM27.8486 51.3887L27.7295 51.5065L27.629 51.4048L27.7136 51.2895L27.8486 51.3887ZM29.3742 52.4725L29.5211 52.553L29.4423 52.6968L29.2969 52.6211L29.3742 52.4725ZM30.6862 50.2641L30.7998 50.1409L30.9037 50.2367L30.8268 50.3553L30.6862 50.2641ZM24.0142 58.7958L24.1742 58.8455C23.9091 59.6996 23.6948 60.5835 23.5461 61.4944L23.3807 61.4674L23.2154 61.4404C23.3668 60.513 23.5848 59.614 23.8542 58.7462L24.0142 58.7958ZM23.3807 61.4674L23.4583 61.3189C23.978 61.5903 24.7352 61.7247 25.3474 61.7741L25.334 61.9411L25.3205 62.108C24.6957 62.0577 23.8838 61.9191 23.3032 61.6159L23.3807 61.4674ZM25.334 61.9411L25.1716 61.8998L25.2162 61.7244L25.3786 61.7656L25.5409 61.8069L25.4963 61.9823L25.334 61.9411ZM25.3786 61.7656L25.2149 61.73C25.266 61.4948 25.524 60.7069 25.9418 59.6023L26.0985 59.6616L26.2552 59.7209C25.8357 60.83 25.5872 61.5945 25.5423 61.8012L25.3786 61.7656ZM26.0985 59.6616L26.1037 59.829C24.9046 59.8662 24.2187 59.4162 23.8739 58.8873L24.0142 58.7958L24.1546 58.7044C24.4259 59.1205 24.9924 59.5282 26.0934 59.4941L26.0985 59.6616ZM26.4619 53.4583L26.6049 53.5455C26.0723 54.4192 25.5711 55.3531 25.127 56.3402L24.9743 56.2714L24.8215 56.2027C25.2718 55.2018 25.7796 54.2556 26.3188 53.3711L26.4619 53.4583ZM24.9743 56.2714L25.0791 56.1408C25.5356 56.5069 26.3334 56.8621 27.1217 57.0814L27.0768 57.2428L27.0319 57.4042C26.2222 57.1789 25.3757 56.8082 24.8694 56.4021L24.9743 56.2714ZM27.0768 57.2428L26.9228 57.177C27.1786 56.5783 27.456 55.9459 27.7579 55.2996L27.9096 55.3705L28.0614 55.4414C27.7617 56.0832 27.4858 56.712 27.2309 57.3086L27.0768 57.2428ZM27.9096 55.3705L27.7579 55.2996C27.8114 55.1849 27.8674 55.0691 27.9213 54.9556L28.0726 55.0275L28.2239 55.0994C28.1687 55.2157 28.1144 55.3279 28.0614 55.4414L27.9096 55.3705ZM28.0726 55.0275L28.0199 55.1865C27.142 54.8955 26.6095 54.1892 26.3093 53.5275L26.4619 53.4583L26.6144 53.3891C26.8934 54.004 27.3694 54.6179 28.1253 54.8685L28.0726 55.0275ZM29.6283 49.1851L29.7538 49.2961C29.1768 49.9487 28.5759 50.6818 27.9836 51.4879L27.8486 51.3887L27.7136 51.2895C28.3124 50.4744 28.9198 49.7335 29.5028 49.0742L29.6283 49.1851ZM27.8486 51.3887L27.9678 51.271C28.3401 51.6477 28.9015 52.0377 29.4516 52.3239L29.3742 52.4725L29.2969 52.6211C28.725 52.3235 28.1326 51.9144 27.7295 51.5065L27.8486 51.3887ZM29.3742 52.4725L29.2273 52.3919C29.6456 51.6292 30.0865 50.8804 30.5457 50.1729L30.6862 50.2641L30.8268 50.3553C30.3729 51.0546 29.9362 51.7961 29.5211 52.553L29.3742 52.4725ZM30.6862 50.2641L30.5727 50.3873C30.2392 50.0799 29.8635 49.6898 29.5048 49.2983L29.6283 49.1851L29.7518 49.072C30.1078 49.4604 30.4763 49.8427 30.7998 50.1409L30.6862 50.2641Z" fill="black" mask="url(#path-80-inside-4_40000850_50765)"/>
<path d="M16.802 71.077L21.1434 69.088M17.6513 72.8778L21.253 71.1792M18.5711 74.4233L21.3626 73.2705M19.2487 76.1493L21.4591 75.1108M20.1641 77.6112L21.5511 76.8674" stroke="black" stroke-width="0.16753"/>
<path d="M25.5852 70.616L21.0597 69.0917M24.9288 72.4958L21.1693 71.183M24.1756 74.129L21.2789 73.2742M23.6821 75.9163L21.3753 75.1145M22.9245 77.4659L21.4674 76.8712" stroke="black" stroke-width="0.16753"/>
</g>
</g>
</g>
<defs>
<filter id="filter0_d_40000850_50765" x="-7" y="-1.15055" width="66.3888" height="110.041" filterUnits="userSpaceOnUse" color-interpolation-filters="sRGB">
<feFlood flood-opacity="0" result="BackgroundImageFix"/>
<feColorMatrix in="SourceAlpha" type="matrix" values="0 0 0 0 0 0 0 0 0 0 0 0 0 0 0 0 0 0 127 0" result="hardAlpha"/>
<feOffset dx="6" dy="-4"/>
<feGaussianBlur stdDeviation="2.57527"/>
<feComposite in2="hardAlpha" operator="out"/>
<feColorMatrix type="matrix" values="0 0 0 0 0.784314 0 0 0 0 0.843137 0 0 0 0 0.909804 0 0 0 0.25 0"/>
<feBlend mode="normal" in2="BackgroundImageFix" result="effect1_dropShadow_40000850_50765"/>
<feBlend mode="normal" in="SourceGraphic" in2="effect1_dropShadow_40000850_50765" result="shape"/>
</filter>
<filter id="filter1_f_40000850_50765" x="-33.9019" y="23.9008" width="94.3547" height="74.9933" filterUnits="userSpaceOnUse" color-interpolation-filters="sRGB">
<feFlood flood-opacity="0" result="BackgroundImageFix"/>
<feBlend mode="normal" in="SourceGraphic" in2="BackgroundImageFix" result="shape"/>
<feGaussianBlur stdDeviation="7.53886" result="effect1_foregroundBlur_40000850_50765"/>
</filter>
<filter id="filter2_f_40000850_50765" x="-36.51" y="-30.1291" width="118.388" height="122.274" filterUnits="userSpaceOnUse" color-interpolation-filters="sRGB">
<feFlood flood-opacity="0" result="BackgroundImageFix"/>
<feBlend mode="normal" in="SourceGraphic" in2="BackgroundImageFix" result="shape"/>
<feGaussianBlur stdDeviation="16.753" result="effect1_foregroundBlur_40000850_50765"/>
</filter>
<filter id="filter3_f_40000850_50765" x="-90.0727" y="-60.06" width="219.46" height="222.28" filterUnits="userSpaceOnUse" color-interpolation-filters="sRGB">
<feFlood flood-opacity="0" result="BackgroundImageFix"/>
<feBlend mode="normal" in="SourceGraphic" in2="BackgroundImageFix" result="shape"/>
<feGaussianBlur stdDeviation="41.8826" result="effect1_foregroundBlur_40000850_50765"/>
</filter>
<filter id="filter4_f_40000850_50765" x="18.9427" y="10.6604" width="46.2944" height="44.4662" filterUnits="userSpaceOnUse" color-interpolation-filters="sRGB">
<feFlood flood-opacity="0" result="BackgroundImageFix"/>
<feBlend mode="normal" in="SourceGraphic" in2="BackgroundImageFix" result="shape"/>
<feGaussianBlur stdDeviation="1.17271" result="effect1_foregroundBlur_40000850_50765"/>
</filter>
<filter id="filter5_f_40000850_50765" x="22.038" y="13.4579" width="40.7102" height="39.467" filterUnits="userSpaceOnUse" color-interpolation-filters="sRGB">
<feFlood flood-opacity="0" result="BackgroundImageFix"/>
<feBlend mode="normal" in="SourceGraphic" in2="BackgroundImageFix" result="shape"/>
<feGaussianBlur stdDeviation="0.16753" result="effect1_foregroundBlur_40000850_50765"/>
</filter>
<filter id="filter6_f_40000850_50765" x="-15.3005" y="20.5686" width="24.811" height="59.2455" filterUnits="userSpaceOnUse" color-interpolation-filters="sRGB">
<feFlood flood-opacity="0" result="BackgroundImageFix"/>
<feBlend mode="normal" in="SourceGraphic" in2="BackgroundImageFix" result="shape"/>
<feGaussianBlur stdDeviation="1.17271" result="effect1_foregroundBlur_40000850_50765"/>
</filter>
<filter id="filter7_f_40000850_50765" x="-12.4396" y="22.9325" width="18.1799" height="54.1838" filterUnits="userSpaceOnUse" color-interpolation-filters="sRGB">
<feFlood flood-opacity="0" result="BackgroundImageFix"/>
<feBlend mode="normal" in="SourceGraphic" in2="BackgroundImageFix" result="shape"/>
<feGaussianBlur stdDeviation="0.16753" result="effect1_foregroundBlur_40000850_50765"/>
</filter>
<linearGradient id="paint0_linear_40000850_50765" x1="18.8514" y1="26.0117" x2="18.7677" y2="93.5264" gradientUnits="userSpaceOnUse">
<stop stop-color="#343257"/>
<stop offset="1" stop-color="#6531C6"/>
</linearGradient>
<radialGradient id="paint1_radial_40000850_50765" cx="0" cy="0" r="1" gradientUnits="userSpaceOnUse" gradientTransform="translate(13.2751 61.3965) rotate(90) scale(19.4492 33.9732)">
<stop offset="0.293269" stop-color="#A8E2F2"/>
<stop offset="1" stop-color="#322CEB"/>
</radialGradient>
<radialGradient id="paint2_radial_40000850_50765" cx="0" cy="0" r="1" gradientUnits="userSpaceOnUse" gradientTransform="translate(22.6842 31.008) rotate(90) scale(27.6898 25.6157)">
<stop offset="0.466346" stop-color="#9349CA"/>
<stop offset="1" stop-color="#1E1A75"/>
</radialGradient>
<radialGradient id="paint3_radial_40000850_50765" cx="0" cy="0" r="1" gradientUnits="userSpaceOnUse" gradientTransform="translate(19.6574 51.0804) rotate(90) scale(27.6898 25.6157)">
<stop offset="0.466346" stop-color="#9349CA"/>
<stop offset="1" stop-color="#5FD8FD"/>
</radialGradient>
<clipPath id="clip0_40000850_50765">
<rect width="52" height="104" fill="white"/>
</clipPath>
<clipPath id="clip1_40000850_50765">
<rect width="50.0915" height="76.5613" fill="white" transform="translate(-6.19434 26.0117) rotate(-3)"/>
</clipPath>
</defs>
</svg>
