<svg width="100" height="149" viewBox="0 0 100 149" fill="none" xmlns="http://www.w3.org/2000/svg">
<g opacity="0.2" filter="url(#filter0_d_40000340_9872)">
<rect x="0.838867" y="22.2031" width="65.4723" height="126.784" rx="3.50353" transform="rotate(-9 0.838867 22.2031)" fill="#A158ED"/>
<rect x="3.37305" y="38.207" width="65.4723" height="3.94148" transform="rotate(-9 3.37305 38.207)" fill="white"/>
<rect x="3.5791" y="39.5049" width="65.4723" height="1.31383" transform="rotate(-9 3.5791 39.5049)" fill="#61B9F5"/>
<rect x="3.98828" y="42.1006" width="65.4723" height="100.07" transform="rotate(-9 3.98828 42.1006)" fill="#4D6ECB"/>
<path d="M10.9092 85.7881L78.6754 95.1188L82.5119 119.342L17.8457 129.584L10.9092 85.7881Z" fill="#65612E"/>
<path d="M38.1011 120.168C27.489 119.543 18.1087 113.136 14.7451 110.011L19.6435 140.938L84.3097 130.696L81.0213 109.934C71.1363 113.605 48.7132 120.793 38.1011 120.168Z" fill="#CDB389"/>
<path d="M36.0577 96.7935C34.3924 95.2169 35.2703 91.822 35.3565 89.6849C35.5831 87.2425 34.919 86.9229 34.5691 84.7134C34.2191 82.5038 30.4592 78.4278 27.7397 76.452C25.0202 74.4762 24.1616 72.6303 25.5782 70.8488C26.9948 69.0672 34.579 74.9441 37.1385 76.8037C39.698 78.6633 41.1514 78.0084 43.7822 76.7423C46.4129 75.4763 44.3019 69.2988 43.9301 66.9512C43.5583 64.6035 42.8159 62.5977 45.1198 61.9497C47.4237 61.3016 48.7129 66.7599 50.6051 71.5564C52.4973 76.3529 54.5482 78.5762 55.8935 79.9203C57.2389 81.2644 56.9052 82.7329 56.804 83.8814C56.7028 85.0299 57.329 87.1957 57.8239 88.5329C58.3188 89.8702 58.9081 90.9093 59.7448 92.6171C60.5815 94.3249 61.2502 94.0774 62.2537 95.051C63.2573 96.0245 62.8799 97.2168 62.713 97.951C62.5462 98.6852 62.0307 99.8994 61.6314 100.954C61.2321 102.008 60.651 102.808 60.5279 103.818C60.4048 104.828 59.177 106.014 58.0722 106.189C56.9674 106.364 55.7902 106.975 54.3804 107.906C52.9707 108.837 49.5608 106.971 49.0809 106.622C48.601 106.273 42.0709 100.796 40.7912 99.8659C39.5114 98.9361 37.723 98.37 36.0577 96.7935Z" fill="#F29600" stroke="black" stroke-width="0.437942"/>
<path d="M45.6879 101.763C44.2308 101.662 43.052 100.518 40.5413 99.364L40.5756 99.5803L45.7971 103.852L48.069 105.599L49.7317 106.998L51.7584 107.896L54.0068 108.095L55.4351 107.314L57.0796 106.499L58.8837 105.992L60.1525 104.904L60.6129 103.612L60.1804 103.68L60.9823 102.445L62.6709 98.4086L62.8861 96.2683L62.2481 95.0392L61.246 94.3111L60.2096 93.3667L59.2353 91.4149L57.8168 88.7575L57.0696 85.4394L56.8469 84.0337L56.8855 81.478L56.2646 80.357L54.1233 78.0357L52.1127 75.1395L50.6878 71.0421L48.0723 65.027L46.9386 62.7679C45.4236 60.9016 43.372 62.6455 43.5638 63.8566C43.8036 65.3705 43.9802 65.786 43.9181 66.7935C43.856 67.8009 45.1556 71.8074 45.344 72.9969C45.5324 74.1864 45.0378 75.2624 44.708 75.9797L44.708 75.9798C44.1135 77.273 42.4092 77.5632 41.8685 77.6488C41.436 77.7173 40.0473 78.0481 39.3985 78.1509C39.6737 78.2551 40.2741 78.5 40.4745 78.6456C40.725 78.8276 43.5655 79.2645 45.1479 79.4573C46.7304 79.6501 50.9135 78.7658 52.0066 79.3686C53.0997 79.9714 55.3266 82.8334 55.6006 84.5636C55.8747 86.2938 57.2879 89.6172 57.533 90.4652C57.7782 91.3131 58.4505 92.7585 59.732 94.5509C61.0136 96.3432 60.8712 96.1441 60.1602 97.2543C59.4493 98.3646 58.5274 98.8431 57.583 99.8795C56.6387 100.916 55.4257 99.5561 54.2019 99.5282C52.9781 99.5003 52.8646 100.183 52.1762 100.736C51.4877 101.288 51.0273 102.581 50.0027 102.41C48.9781 102.24 47.1451 101.865 45.6879 101.763Z" fill="#D7890A"/>
<path d="M36.0577 96.7935C34.3924 95.2169 35.2703 91.822 35.3565 89.6849C35.5831 87.2425 34.919 86.9229 34.5691 84.7134C34.2191 82.5038 30.4592 78.4278 27.7397 76.452C25.0202 74.4762 24.1616 72.6303 25.5782 70.8488C26.9948 69.0672 34.579 74.9441 37.1385 76.8037C39.698 78.6633 41.1514 78.0084 43.7822 76.7423C46.4129 75.4763 44.3019 69.2988 43.9301 66.9512C43.5583 64.6035 42.8159 62.5977 45.1198 61.9497C47.4237 61.3016 48.7129 66.7599 50.6051 71.5564C52.4973 76.3529 54.5482 78.5762 55.8935 79.9203C57.2389 81.2644 56.9052 82.7329 56.804 83.8814C56.7028 85.0299 57.329 87.1957 57.8239 88.5329C58.3188 89.8702 58.9081 90.9093 59.7448 92.6171C60.5815 94.3249 61.2502 94.0774 62.2537 95.051C63.2573 96.0245 62.8799 97.2168 62.713 97.951C62.5462 98.6852 62.0307 99.8994 61.6314 100.954C61.2321 102.008 60.651 102.808 60.5279 103.818C60.4048 104.828 59.177 106.014 58.0722 106.189C56.9674 106.364 55.7902 106.975 54.3804 107.906C52.9707 108.837 49.5608 106.971 49.0809 106.622C48.601 106.273 42.0709 100.796 40.7912 99.8659C39.5114 98.9361 37.723 98.37 36.0577 96.7935Z" stroke="black" stroke-width="0.437942"/>
<path d="M38.5479 77.5713C39.3258 78.0143 40.1475 78.7335 40.6999 78.646C41.2523 78.5586 43.2226 79.379 44.3424 80.1926" stroke="black" stroke-width="0.437942"/>
<path d="M48.4441 104.316C48.5972 105.283 49.2221 104.759 49.4545 104.439L49.6989 103.976C49.4346 103.632 49.1425 103.243 48.7778 102.848C48.566 102.618 48.2916 102.374 47.9795 102.125C48.0834 102.533 48.3216 103.543 48.4441 104.316Z" fill="white"/>
<path d="M49.7736 87.6843C50.0402 87.878 50.5765 88.4631 50.5885 89.254M49.4206 94.3936C49.834 93.7619 50.6261 92.0792 50.4872 90.4025M54.8845 89.5645C54.7728 89.1575 54.6018 88.137 54.8107 87.3112M51.9171 101.218C52.2439 100.6 52.9413 99.64 53.6317 99.5306C54.3222 99.4213 54.7365 99.3556 55.1946 99.5662C55.6526 99.7768 56.2269 99.8274 56.7792 99.7399C57.2212 99.6699 57.6707 99.41 57.8403 99.2887M53.6768 102.496C53.747 102.344 53.9702 102.025 54.3016 101.973C54.7159 101.907 55.174 102.118 55.3339 102.234M60.4791 99.8617L61.6414 98.262M39.8482 95.6266C40.0013 96.5933 40.1257 98.2723 41.2961 98.5116C42.4665 98.7509 43.0188 98.6634 44.1386 99.477C45.0272 100.123 46.7808 101.166 47.9795 102.125M60.8947 102.486C60.3354 103.424 59.5219 104.543 58.737 104.951C57.9522 105.358 56.8543 104.683 55.9601 104.4C55.0659 104.117 54.441 104.64 53.7505 104.75C53.0601 104.859 51.999 105.31 51.1267 105.165C50.5647 105.072 50.1775 104.598 49.6989 103.976M47.9795 102.125C48.2916 102.374 48.566 102.618 48.7778 102.848C49.1425 103.243 49.4346 103.632 49.6989 103.976M47.9795 102.125C48.0834 102.533 48.3216 103.543 48.4441 104.316C48.5972 105.283 49.2221 104.759 49.4545 104.439L49.6989 103.976" stroke="black" stroke-width="0.437942"/>
<path d="M40.2744 88.4814C40.8172 88.6314 42.3696 89.1972 44.2368 90.2604C46.5707 91.5895 47.5743 92.563 48.6872 94.2271" stroke="black" stroke-width="0.437942"/>
<path d="M40.5703 88.5762L41.2921 93.1334C42.1138 93.8526 46.5261 94.0031 48.3213 93.7188C45.9008 90.5915 42.1454 88.9873 40.5703 88.5762Z" fill="white" stroke="black" stroke-width="0.437942"/>
<path d="M44.9455 93.8292C43.7937 92.9923 43.3691 90.7286 43.3008 89.7013C45.8658 90.8805 47.7193 92.8708 48.3255 93.7185C47.4363 93.765 45.5154 93.8522 44.9455 93.8292Z" fill="#008086" stroke="black" stroke-width="0.437942"/>
<circle cx="45.0303" cy="91.6925" r="0.699093" transform="rotate(-9 45.0303 91.6925)" fill="white"/>
<circle cx="45.5526" cy="92.3165" r="0.838912" transform="rotate(-9 45.5526 92.3165)" fill="black"/>
<path d="M55.6924 89.295C55.6519 89.7544 55.938 91.1435 56.0861 91.7807C56.9984 90.3905 57.4635 89.156 57.582 88.7126L56.8533 85.0058C56.4832 86.2441 55.7329 88.8356 55.6924 89.295Z" fill="white" stroke="black" stroke-width="0.437942"/>
<path d="M57.0866 90.0651C57.08 88.5939 56.6272 87.1651 56.4017 86.6346L55.6906 89.2953L55.7562 89.7096L56.1062 91.9192C56.2926 91.6065 56.7496 90.798 57.0866 90.0651Z" fill="#008086" stroke="black" stroke-width="0.437942"/>
<path d="M56.4698 89.7384C56.5223 90.0698 56.0605 90.1335 55.823 90.124L55.6699 89.1573C55.7255 88.9125 55.892 88.4143 56.1129 88.3793C56.3891 88.3356 56.4041 89.3241 56.4698 89.7384Z" fill="black" stroke="black" stroke-width="0.437942"/>
<rect x="0.838867" y="22.3877" width="65.4723" height="126.31" rx="3.50353" transform="rotate(-9 0.838867 22.3877)" fill="#005BA6"/>
</g>
<rect x="4.29883" y="16.2021" width="65.2154" height="126.287" rx="3.48979" transform="rotate(-9 4.29883 16.2021)" fill="#D9D9D9"/>
<rect x="6.82422" y="32.1436" width="65.2154" height="3.92601" transform="rotate(-9 6.82422 32.1436)" fill="white"/>
<rect x="7.02832" y="33.4365" width="65.2154" height="1.30867" transform="rotate(-9 7.02832 33.4365)" fill="#61B9F5"/>
<g clip-path="url(#clip0_40000340_9872)">
<rect x="7.4375" y="36.0215" width="65.2154" height="99.677" transform="rotate(-9 7.4375 36.0215)" fill="url(#paint0_linear_40000340_9872)"/>
<path d="M64.2464 72.4387L65.0239 72.6848L70.2082 60.7854L69.4465 59.64L61.0442 65.8768L64.2464 72.4387Z" fill="#D4B9A1"/>
<path d="M65.0754 72.6768L66.0532 72.5219L71.6929 66.8281L70.165 60.8452L62.1606 66.597L65.0754 72.6768Z" fill="#966E65"/>
<path d="M24.5359 72.1868L23.0401 116.367L20.0497 116.472L15.6688 114.792C16.8061 100.878 19.0981 72.8265 19.167 71.9293C19.2531 70.8078 20.6589 70.6907 22.4739 70.8253C23.9258 70.9329 24.4535 71.7778 24.5359 72.1868Z" fill="#D4B9A1"/>
<path d="M16.2122 118.556L24.0345 117.317L23.095 116.393L21.5037 115.661L14.623 114.852L16.2122 118.556Z" fill="#D5C2B1"/>
<path d="M25.8222 50.0603L25.1619 51.5418L24.4232 51.6588L8.3673 47.4673L14.2032 39.6972L25.8222 50.0603Z" fill="#D4B9A1"/>
<path d="M61.2233 54.3477L62.3397 55.0677L69.1864 47.3363L75.1662 33.4645L59.8327 40.9047L61.2233 54.3477Z" fill="#D4B9A1"/>
<path d="M63.1172 66.973L69.9165 61.9396L70.3908 62.603L70.4046 63.0228L65.8313 72.4515L63.1172 66.973Z" fill="#D4B9A1"/>
<path d="M61.3557 42.1934L62.3315 55.0162L64.0405 54.4818L73.6453 47.8434L75.2401 34.93L61.3557 42.1934Z" fill="#966E65"/>
<path d="M63.3794 54.6401L63.6856 54.9081L68.7876 52.1481L75.2464 37.3037L62.7158 43.4559L63.3794 54.6401Z" fill="#D4B9A1"/>
<path d="M63.7879 54.8916L71.3657 52.1088L71.5716 52.0762L74.0092 51.4791L75.0536 37.756L63.1921 43.8022L63.7879 54.8916Z" fill="#966E65"/>
<path d="M96.1988 99.9798L65.5669 52.1305C65.0499 51.087 64.6066 48.1995 66.9693 44.9977C69.332 41.7959 71.7709 42.6722 72.6949 43.5106L82.6437 53.6989L96.1988 99.9798Z" fill="#D4B9A1"/>
<path d="M66.0022 72.5297L67.673 71.421L72.0862 66.9765L70.3911 62.6026L63.5673 67.4817L66.0022 72.5297Z" fill="#966E65"/>
<path d="M92.3608 106.39L65.7054 69.9913C65.3016 69.4398 65.3794 67.9328 67.1934 66.0628C68.6446 64.5669 70.5176 65.2902 71.2727 65.8388L85.9593 82.2929L92.3608 106.39Z" fill="#D4B9A1"/>
<path d="M25.0172 51.4959L17.7041 60.0892L8.11561 48.6655L13.5489 41.678L25.0172 51.4959Z" fill="#966E65"/>
<path d="M23.257 52.1195L14.5647 44.6155L9.80839 48.0537L17.7033 58.7818L23.257 52.1195Z" fill="#D4B9A1"/>
<path d="M22.6955 52.4834L18.5762 57.3352L11.8308 48.2149L14.3995 45.7428L22.6955 52.4834Z" fill="#966E65"/>
<path d="M14.8875 100.197L21.0247 53.013C20.7445 52.354 19.4584 50.5179 16.5558 48.4455C13.6532 46.373 11.1621 47.3654 10.2794 48.1207L7.34796 52.5943L14.8875 100.197Z" fill="#D4B9A1"/>
<mask id="mask0_40000340_9872" style="mask-type:alpha" maskUnits="userSpaceOnUse" x="65" y="65" width="28" height="42">
<path d="M92.3608 106.39L65.7054 69.9913C65.3016 69.4398 65.3794 67.9328 67.1934 66.0628C68.6446 64.5669 70.5176 65.2902 71.2727 65.8388L85.9593 82.2929L92.3608 106.39Z" fill="#D4B9A1"/>
</mask>
<g mask="url(#mask0_40000340_9872)">
<path d="M92.23 104.564L65.0274 68.0413L64.7666 66.3945L91.904 102.506L92.23 104.564Z" fill="#D5C2B1"/>
<path d="M93.7583 101.046L65.334 65.4651L65.0176 63.8281L93.3627 98.9992L93.7583 101.046Z" fill="#D5C2B1"/>
<path d="M96.1474 99.2091L67.3969 63.8919L67.0654 62.2578L95.733 97.1666L96.1474 99.2091Z" fill="#D5C2B1"/>
</g>
<mask id="mask1_40000340_9872" style="mask-type:alpha" maskUnits="userSpaceOnUse" x="15" y="70" width="10" height="47">
<path d="M24.5359 72.1868L23.0401 116.367L20.0497 116.472L15.6688 114.792C16.8061 100.878 19.0981 72.8265 19.167 71.9293C19.2531 70.8078 20.6589 70.6907 22.4739 70.8253C23.9258 70.9329 24.4535 71.7778 24.5359 72.1868Z" fill="#D4B9A1"/>
</mask>
<g mask="url(#mask1_40000340_9872)">
<path d="M15.0155 121.244L19.8769 71.3646L20.7832 69.8691L16.1485 119.375L15.0155 121.244Z" fill="#D5C2B1"/>
<path d="M18.4366 119.676L21.8038 69.5829L22.6641 68.0518L19.5119 117.763L18.4366 119.676Z" fill="#D5C2B1"/>
<path d="M21.3539 120.1L24.3145 69.9585L25.1621 68.418L22.4134 118.175L21.3539 120.1Z" fill="#D5C2B1"/>
</g>
<mask id="mask2_40000340_9872" style="mask-type:alpha" maskUnits="userSpaceOnUse" x="7" y="47" width="15" height="54">
<path d="M14.8875 100.197L21.0247 53.013C20.7445 52.354 19.4584 50.5179 16.5558 48.4455C13.6532 46.373 11.1621 47.3654 10.2794 48.1207L7.34796 52.5943L14.8875 100.197Z" fill="#D4B9A1"/>
</mask>
<g mask="url(#mask2_40000340_9872)">
<path d="M-3.12083 124.238L13.3573 31.6325L15.2744 28.9688L-0.724441 120.908L-3.12083 124.238Z" fill="#D5C2B1"/>
<path d="M3.94172 121.743L17.656 28.5168L19.4922 25.7793L6.23697 118.322L3.94172 121.743Z" fill="#D5C2B1"/>
<path d="M8.90705 123.036L21.8678 29.6593L23.6816 26.9023L11.1744 119.59L8.90705 123.036Z" fill="#D5C2B1"/>
</g>
<mask id="mask3_40000340_9872" style="mask-type:alpha" maskUnits="userSpaceOnUse" x="65" y="42" width="32" height="58">
<path d="M96.1988 99.9798L65.5669 52.1305C65.0499 51.087 64.6066 48.1995 66.9693 44.9977C69.332 41.7959 71.7709 42.6722 72.6949 43.5106L82.6437 53.6989L96.1988 99.9798Z" fill="#D4B9A1"/>
</mask>
<g mask="url(#mask3_40000340_9872)">
<path d="M94.7989 91.5745L58.8733 38.373L58.6133 36.0371L94.4739 88.6546L94.7989 91.5745Z" fill="#D5C2B1"/>
<path d="M97.18 86.7192L59.4728 34.7652L59.1338 32.4395L96.7562 83.812L97.18 86.7192Z" fill="#D5C2B1"/>
<path d="M100.664 84.2896L62.4805 32.6849L62.1201 30.3623L100.214 81.3864L100.664 84.2896Z" fill="#D5C2B1"/>
</g>
<path d="M33.7671 100.513L17.4159 106.886L19.6412 141.877L91.1759 130.547L83.5128 92.6344L66.2181 95.9955L52.5529 99.0408L46.6926 97.3778L38.25 98.715L33.7671 100.513Z" fill="#F53EFD"/>
<path d="M33.7673 100.513L16.2548 104.789L17.8322 114.749L86.3718 100.214L83.513 92.6339L66.2183 95.995L52.553 99.0404L46.6928 97.3774L38.2502 98.7146L33.7673 100.513Z" fill="#D4B9A1"/>
<path d="M23.5885 143.894L21.8261 142.256L18.9381 140.381L26.482 129.444L32.5572 124.284L30.9523 129.202L32.0204 131.365L30.3 133.918L28.6862 136.816L27.5829 139.012L24.8084 140.799L23.5885 143.894Z" fill="#966E65"/>
<path d="M55.6513 107.152L50.5318 107.548L51.3201 108.926L54.0855 110.354L62.0731 109.089L73.5355 106.859L77.3777 106.25L81.3344 106.038L87.1482 105.117L88.2599 103.957L73.4561 102.104L75.648 100.565L70.8778 102.512L66.5681 104.749L62.2739 106.103L59.4644 107.015L58.2296 106.744L55.6513 107.152Z" fill="#F53EFD"/>
<path d="M32.4196 138.142L31.2773 142.054L34.715 141.51L51.393 139.49L85.0623 134.157L92.2772 130.631L88.3835 129.278L85.3127 129.194L51.6181 126.188L41.1704 124.681L35.593 124.476L36.5995 125.923L37.144 129.361L36.3285 132.392L34.3633 135.036L32.4196 138.142Z" fill="#D4B9A1"/>
<path d="M66.8852 105.114L86.1807 95.736L78.579 97.1473L74.8354 98.0512L68.3409 99.9089L58.5713 103.011L43.5601 107.047L42.9829 107.656L48.2335 108.742L55.9954 108.342L66.8852 105.114Z" fill="#966E65"/>
<path d="M86.8365 109.365L91.8543 113.234L92.2418 127.787L89.2265 127.072L81.3251 124.955L77.4239 124.537L73.2405 123.645L66.9873 123.754L62.2422 122.588L57.4395 123.349L52.6919 122.494L47.5065 118.548L47.4545 115.602L48.7495 113.635L54.7936 110.242L60.4818 108.201L65.9117 105.838L68.6791 105.97L75.4249 106.353L79.6799 106.715L81.4583 108.455L83.8693 108.954L86.8365 109.365Z" fill="#C8AE96"/>
<path d="M48.498 121.863L47.6396 118.734L57.2485 118.871L90.4254 124.499L93.0061 129.013L84.2056 127.764L73.2389 125.925L66.291 125.575L58.6513 125.437L52.3736 124.411L49.949 123.499L48.498 121.863Z" fill="#966E65"/>
<path d="M20.2593 127.786L17.7056 129.331L22.0063 125.074L24.2092 124.258L26.9837 122.472L31.3975 120.892L34.6836 120.371L38.8796 119.707L42.4445 118.002L46.2361 117.401L51.0998 116.372L48.5861 118.169L47.3728 118.361L42.7567 119.973L37.4755 121.639L31.9145 122.52L28.658 123.554L24.3773 125.32L20.2593 127.786Z" fill="#966E65"/>
<path d="M18.7507 111.391L15.6938 112.704L16.2159 130.396L22.5733 125.71L28.2585 122.996L35.7882 121.13L47.1224 118.091L49.7258 114.569L56.4212 109.725L55.5082 109.196L52.9615 108.822L51.5055 107.809L49.4643 107.355L43.7752 107.427L49.3362 106.546L52.5211 106.042L56.1871 104.321L58.9385 104.352L60.4042 103.135L63.2352 102.687L65.3585 102.35L68.6466 100.534L70.6688 100.214L72.9087 98.9779L74.5265 98.7217L77.0432 97.5975L79.2786 97.969L79.5204 97.2052L82.1197 96.2753C78.5402 97.0149 71.1182 98.536 70.0667 98.7025C69.0151 98.869 65.7263 99.8736 64.2133 100.355L60.7756 100.9L52.1528 103.716L44.3068 106.203L40.0312 107.346L36.0879 107.971L32.1952 108.587L29.2125 109.06L24.5644 110.47L22.34 110.822L18.7507 111.391Z" fill="#D4B9A1"/>
<path d="M80.9632 97.8051L84.8605 95.5814L86.834 99.2073L88.0947 103.568L85.0379 104.881L82.8641 105.226L79.3252 105.786L76.1693 105.82L72.17 106.09L65.8798 106.62L66.2812 105.883L67.9811 104.836L70.7956 103.302L72.054 102.74L73.7273 101.853L76.603 100.05L78.7979 99.1845L80.9632 97.8051Z" fill="#D4B9A1"/>
<path d="M83.8589 103.98L89.0786 101.599L89.7367 103.464L85.8871 105.006L81.7921 105.655L77.9525 105.952L72.5988 106.178L70.2597 106.134L74.203 105.509L77.5396 104.981L80.2695 104.548L83.8589 103.98Z" fill="#966E65"/>
<path d="M80.0815 95.5091L84.8842 94.7484L85.5894 94.9477L82.1547 96.1654L80.3533 96.2434L77.352 96.926L71.4241 98.435L69.8569 98.6832L66.1454 99.7893L63.892 100.613L60.7576 101.109L60.5174 99.5924L66.4322 98.6555L71.6389 96.8463L73.5549 97.1647L76.386 96.7163L80.0815 95.5091Z" fill="#966E65"/>
<path d="M80.7701 94.6232L84.5187 93.0967L86.7996 94.0828L82.3778 95.6123L78.839 96.1728L73.6348 97.6707L69.3057 98.1491L62.8457 99.8978L60.5597 99.5343L60.9427 99.0073L64.5235 97.4037L68.7196 96.7391L72.4101 96.1546L80.7701 94.6232Z" fill="#C8AE96"/>
<path d="M19.3913 108.232L15.1948 107.912L14.1645 112.532L17.6617 113.999L39.8407 108.102L48.0056 104.684L45.9329 105.012L59.0557 97.2335L52.5637 98.78L45.5366 99.8929L38.3433 103.883L31.6465 105.772L25.3062 107.295L19.3913 108.232Z" fill="#C8AE96"/>
<path d="M60.7207 101.53L59.1061 97.2252L44.6208 104.909L44.861 106.426L60.7207 101.53Z" fill="#966E65"/>
<path d="M24.3204 138.7L22.2946 142.597L18.4525 143.205L17.0944 130.05L20.1007 128.745L24.6421 126.989L32.6503 124.218L30.1195 129.179L28.2243 133.573L24.3204 138.7Z" fill="#C8AE96"/>
</g>
<path d="M26.7832 63.4316C30.8523 67.5708 33.1214 72.5136 32.6841 73.2718L65.8545 93.4223L72.4012 87.2535C72.786 88.1678 72.827 87.9477 69.9127 79.7523C67.6927 73.509 60.6463 67.4775 47.1892 64.6163L41.9219 64.1255L26.7832 63.4316Z" fill="#E2D4DE" stroke="#634259" stroke-width="0.436223"/>
<path d="M58.8418 99.1425C57.5006 99.3549 56.1795 99.2979 54.9332 99.0117L47.0812 92.7307L48.0299 70.3095L54.3884 71.7668C57.9776 74.0471 65.5194 81.175 67.1868 91.5866C66.1828 95.4165 63.0021 98.4836 58.8418 99.1425Z" fill="#EADFE7" stroke="#634259" stroke-width="0.436223"/>
<path d="M33.7776 86.7762L38.9403 83.8918L40.9586 85.6388L40.2738 94.8037L35.2271 95.9281L33.8359 94.0353L33.7776 86.7762Z" fill="#8D657F"/>
<path d="M34.2044 93.2807C34.1219 92.7597 34.2391 88.5148 34.5224 87.5179C34.4889 87.3065 34.3573 86.7684 34.0985 86.3078C27.7218 86.3657 25.8959 85.5403 25.2365 85.4822C24.5771 85.4241 24.508 85.5743 24.5737 85.8426C24.6394 86.1108 24.7899 86.6211 25.6942 87.6389C26.5985 88.6568 34.2869 93.8017 34.2044 93.2807Z" fill="#BDBCCE" stroke="#526182" stroke-width="0.436223"/>
<path d="M34.408 86.2147C35.4501 85.9323 35.4264 86.462 35.244 87.218L34.6912 88.6579L34.5973 88.6219C34.4198 88.3981 33.7118 87.7289 33.4265 87.2745C33.0698 86.7067 33.3658 86.497 34.408 86.2147Z" fill="#E7EFF9"/>
<path d="M30.8279 86.7811C31.8701 86.4987 31.8463 87.0284 31.6639 87.7844L31.1111 89.2243L31.0172 89.1883C30.8397 88.9645 30.1317 88.2953 29.8464 87.841C29.4897 87.2731 29.7857 87.0634 30.8279 86.7811Z" fill="#E7EFF9"/>
<path d="M40.4206 85.0274C37.9131 85.4989 32.7697 87.6944 30.5115 88.7333L31.1512 80.0168L39.58 77.5207C40.905 79.8265 42.9282 84.556 40.4206 85.0274Z" fill="#C068AD" stroke="#634259" stroke-width="0.436223"/>
<path d="M30.6147 87.1847C33.568 84.2787 36.0973 83.4461 40.0152 82.0268" stroke="#612B56" stroke-width="0.275226"/>
<path d="M30.2241 84.7149C33.1774 81.8089 35.7067 80.9764 39.6246 79.5571" stroke="#612B56" stroke-width="0.275226"/>
<ellipse cx="39.5092" cy="90.5588" rx="4.42656" ry="5.38985" transform="rotate(-9 39.5092 90.5588)" fill="#D3919F"/>
<circle cx="41.0385" cy="79.3617" r="3.57794" transform="rotate(136.058 41.0385 79.3617)" fill="#222524"/>
<ellipse cx="40.7629" cy="78.9916" rx="1.16318" ry="1.83271" transform="rotate(164.134 40.7629 78.9916)" fill="#D6867E"/>
<ellipse cx="40.3564" cy="78.5105" rx="0.425254" ry="1.04059" transform="rotate(166.996 40.3564 78.5105)" fill="#222524"/>
<path d="M30.5453 88.3561C30.3335 89.365 30.0269 89.042 29.8397 88.8859L29.1487 85.2567C29.123 85.075 29.1874 83.7411 27.6378 82.3146C26.3982 81.1734 24.6954 80.5978 23.999 80.4527L48.3878 73.455L45.4532 82.9297L42.5141 83.1398C43.1278 80.7591 44.0723 76.117 42.9402 76.5935C41.5252 77.1892 34.6385 80.6253 33.4274 81.1887C32.2162 81.752 32.3261 82.1526 32.1094 82.8371C31.8927 83.5217 30.757 87.3473 30.5453 88.3561Z" fill="#7D8AA7" stroke="#526182" stroke-width="0.436223"/>
<path d="M36.5071 78.0541C31.891 79.5515 25.715 80.4368 24.0207 80.5891C24.4697 79.6123 26.3584 77.0514 30.3207 74.6218C35.2735 71.5849 37.868 71.5455 43.7173 70.503C49.5665 69.4605 52.4799 70.5549 53.8252 71.1313C55.1705 71.7078 55.471 71.8459 54.3024 74.1442C53.3675 75.9828 49.1698 80.151 47.1877 82.0052L42.6118 82.73C43.2133 82.1781 44.5433 80.9379 45.0515 80.393C45.6867 79.7119 46.6418 77.2385 46.7914 75.984C46.941 74.7296 45.8191 74.9769 43.8425 75.5454C41.8658 76.114 41.1232 76.5567 36.5071 78.0541Z" fill="#D5DAF0" stroke="#526182" stroke-width="0.436223"/>
<mask id="mask4_40000340_9872" style="mask-type:alpha" maskUnits="userSpaceOnUse" x="46" y="70" width="22" height="30">
<path d="M54.8356 99.213C56.123 99.5151 57.4892 99.5776 58.8759 99.358C63.1409 98.6824 66.3972 95.5287 67.4093 91.5973C65.7388 81.05 58.0894 73.8461 54.4736 71.5625L47.823 70.0383L46.8586 92.8319L54.8356 99.213Z" fill="#EADFE7"/>
</mask>
<g mask="url(#mask4_40000340_9872)">
<path d="M67.4217 97.7402C66.9909 95.5095 63.9023 86.2226 62.9215 84.8685C61.2787 82.6003 60.2666 82.4256 60.3199 82.5178C61.8538 85.4097 64.4833 94.0258 63.5329 99.285" stroke="#C068AD" stroke-width="1.10091"/>
</g>
<path d="M37.0137 84.9166C36.0212 84.0752 35.0391 82.4195 34.7357 81.2368C35.5685 81.461 37.5066 81.959 38.597 82.1579C39.96 82.4064 45.3624 82.0616 48.3443 81.6822C51.3263 81.3028 57.3193 79.2622 58.0108 79.083C58.7023 78.9038 58.6917 79.2771 58.6096 79.6384C58.5275 79.9997 58.2379 80.3707 57.4015 81.6874C56.5651 83.0042 51.0323 87.3637 50.3074 87.4786C49.5825 87.5934 49.5122 87.8831 49.4315 88.5461C49.3507 89.2091 48.3088 92.1607 48.196 93.061C48.0831 93.9613 46.1879 95.1903 45.4177 95.3123C44.6474 95.4343 38.822 96.3337 36.2846 96.2944C33.7473 96.2551 33.674 95.0592 33.6237 94.742L33.2936 92.658C33.589 92.8124 34.234 93.3171 34.4509 94.1002C34.7221 95.079 35.329 95.0989 35.6461 95.0487C35.9633 94.9985 37.0172 94.7619 37.7289 94.4169C42.0703 91.9181 43.0242 89.5842 42.8771 88.6554C42.2224 88.4804 38.0061 85.7579 37.0137 84.9166Z" fill="#D5DAF0" stroke="#526182" stroke-width="0.436223"/>
<defs>
<filter id="filter0_d_40000340_9872" x="0.838867" y="0.124519" width="98.5328" height="148.31" filterUnits="userSpaceOnUse" color-interpolation-filters="sRGB">
<feFlood flood-opacity="0" result="BackgroundImageFix"/>
<feColorMatrix in="SourceAlpha" type="matrix" values="0 0 0 0 0 0 0 0 0 0 0 0 0 0 0 0 0 0 127 0" result="hardAlpha"/>
<feOffset dx="7.82259" dy="-5.21506"/>
<feGaussianBlur stdDeviation="3.35755"/>
<feComposite in2="hardAlpha" operator="out"/>
<feColorMatrix type="matrix" values="0 0 0 0 0.784314 0 0 0 0 0.843137 0 0 0 0 0.909804 0 0 0 0.25 0"/>
<feBlend mode="normal" in2="BackgroundImageFix" result="effect1_dropShadow_40000340_9872"/>
<feBlend mode="normal" in="SourceGraphic" in2="effect1_dropShadow_40000340_9872" result="shape"/>
</filter>
<linearGradient id="paint0_linear_40000340_9872" x1="40.0452" y1="36.0215" x2="40.0452" y2="135.699" gradientUnits="userSpaceOnUse">
<stop stop-color="#A36BBA"/>
<stop offset="0.178715" stop-color="#B7669D"/>
<stop offset="0.346152" stop-color="#F87F97"/>
<stop offset="0.547474" stop-color="#E48177"/>
<stop offset="1" stop-color="#D5D7DC"/>
</linearGradient>
<clipPath id="clip0_40000340_9872">
<rect width="65.2154" height="99.677" fill="white" transform="translate(7.4375 36.0215) rotate(-9)"/>
</clipPath>
</defs>
</svg>
