<svg width="99" height="149" viewBox="0 0 99 149" fill="none"
  xmlns="http://www.w3.org/2000/svg">
  <g opacity="0.2" filter="url(#filter0_d_415_14844)">
    <rect x="-0.000488281" y="22.2031" width="65.4723" height="126.784" rx="3.50353" transform="rotate(-9 -0.000488281 22.2031)" fill="#A158ED"/>
    <rect x="2.53455" y="38.2075" width="65.4723" height="3.94148" transform="rotate(-9 2.53455 38.2075)" fill="white"/>
    <rect x="2.73975" y="39.5051" width="65.4723" height="1.31383" transform="rotate(-9 2.73975 39.5051)" fill="#61B9F5"/>
    <rect x="3.14941" y="42.1006" width="65.4723" height="100.07" transform="rotate(-9 3.14941 42.1006)" fill="#4D6ECB"/>
    <path d="M10.0701 85.7881L77.8363 95.1188L81.6728 119.342L17.0066 129.584L10.0701 85.7881Z" fill="#65612E"/>
    <path d="M37.2627 120.168C26.6506 119.543 17.2704 113.136 13.9067 110.011L18.8051 140.938L83.4714 130.696L80.1829 109.934C70.2979 113.605 47.8748 120.793 37.2627 120.168Z" fill="#CDB389"/>
    <path d="M35.2191 96.793C33.5538 95.2164 34.4317 91.8215 34.5179 89.6844C34.7445 87.242 34.0804 86.9224 33.7305 84.7129C33.3805 82.5033 29.6206 78.4273 26.9011 76.4515C24.1816 74.4757 23.323 72.6298 24.7396 70.8483C26.1561 69.0667 33.7403 74.9436 36.2999 76.8032C38.8594 78.6628 40.3128 78.0079 42.9435 76.7419C45.5742 75.4758 43.4633 69.2983 43.0915 66.9507C42.7197 64.603 41.9773 62.5972 44.2812 61.9492C46.5851 61.3011 47.8743 66.7594 49.7665 71.5559C51.6587 76.3525 53.7095 78.5757 55.0549 79.9198C56.4003 81.2639 56.0666 82.7324 55.9654 83.8809C55.8642 85.0294 56.4903 87.1952 56.9853 88.5325C57.4802 89.8697 58.0695 90.9088 58.9062 92.6166C59.7429 94.3244 60.4115 94.0769 61.4151 95.0505C62.4187 96.024 62.0412 97.2163 61.8744 97.9505C61.7076 98.6847 61.1921 99.8989 60.7928 100.953C60.3935 102.007 59.8124 102.807 59.6893 103.817C59.5662 104.828 58.3383 106.013 57.2336 106.188C56.1288 106.363 54.9515 106.974 53.5418 107.906C52.1321 108.837 48.7221 106.97 48.2422 106.621C47.7623 106.273 41.2323 100.795 39.9526 99.8654C38.6728 98.9356 36.8844 98.3695 35.2191 96.793Z" fill="#F29600" stroke="black" stroke-width="0.437942"/>
    <path d="M44.8498 101.763C43.3926 101.661 42.2139 100.518 39.7032 99.3637L39.7374 99.58L44.9589 103.852L47.2308 105.598L48.8935 106.998L50.9203 107.896L53.1686 108.094L54.5969 107.314L56.2415 106.499L58.0456 105.992L59.3143 104.904L59.7748 103.612L59.3422 103.68L60.1442 102.445L61.8327 98.4083L62.048 96.2681L61.4099 95.0389L60.4078 94.3108L59.3714 93.3665L58.3972 91.4146L56.9787 88.7572L56.2314 85.4392L56.0088 84.0334L56.0474 81.4777L55.4264 80.3567L53.2852 78.0355L51.2746 75.1393L49.8497 71.0418L47.2342 65.0267L46.1004 62.7676C44.5855 60.9014 42.5339 62.6452 42.7257 63.8564C42.9655 65.3703 43.1421 65.7857 43.08 66.7932C43.0179 67.8007 44.3175 71.8072 44.5059 72.9967C44.6943 74.1862 44.1996 75.2621 43.8699 75.9795L43.8698 75.9795C43.2753 77.2727 41.5711 77.563 41.0304 77.6486C40.5978 77.7171 39.2092 78.0479 38.5604 78.1507C38.8355 78.2549 39.4359 78.4997 39.6364 78.6453C39.8869 78.8274 42.7274 79.2643 44.3098 79.457C45.8922 79.6498 50.0753 78.7656 51.1685 79.3684C52.2616 79.9712 54.4885 82.8332 54.7625 84.5634C55.0365 86.2936 56.4497 89.6169 56.6949 90.4649C56.94 91.3129 57.6124 92.7583 58.8939 94.5506C60.1754 96.343 60.033 96.1438 59.3221 97.2541C58.6111 98.3643 57.6893 98.8429 56.7449 99.8793C55.8006 100.916 54.5875 99.5558 53.3638 99.528C52.14 99.5001 52.0265 100.183 51.338 100.736C50.6496 101.288 50.1892 102.58 49.1645 102.41C48.1399 102.24 46.307 101.865 44.8498 101.763Z" fill="#D7890A"/>
    <path d="M35.2191 96.793C33.5538 95.2164 34.4317 91.8215 34.5179 89.6844C34.7445 87.242 34.0804 86.9224 33.7305 84.7129C33.3805 82.5033 29.6206 78.4273 26.9011 76.4515C24.1816 74.4757 23.323 72.6298 24.7396 70.8483C26.1561 69.0667 33.7403 74.9436 36.2999 76.8032C38.8594 78.6628 40.3128 78.0079 42.9435 76.7419C45.5742 75.4758 43.4633 69.2983 43.0915 66.9507C42.7197 64.603 41.9773 62.5972 44.2812 61.9492C46.5851 61.3011 47.8743 66.7594 49.7665 71.5559C51.6587 76.3525 53.7095 78.5757 55.0549 79.9198C56.4003 81.2639 56.0666 82.7324 55.9654 83.8809C55.8642 85.0294 56.4903 87.1952 56.9853 88.5325C57.4802 89.8697 58.0695 90.9088 58.9062 92.6166C59.7429 94.3244 60.4115 94.0769 61.4151 95.0505C62.4187 96.024 62.0412 97.2163 61.8744 97.9505C61.7076 98.6847 61.1921 99.8989 60.7928 100.953C60.3935 102.007 59.8124 102.807 59.6893 103.817C59.5662 104.828 58.3383 106.013 57.2336 106.188C56.1288 106.363 54.9515 106.974 53.5418 107.906C52.1321 108.837 48.7221 106.97 48.2422 106.621C47.7623 106.273 41.2323 100.795 39.9526 99.8654C38.6728 98.9356 36.8844 98.3695 35.2191 96.793Z" stroke="black" stroke-width="0.437942"/>
    <path d="M37.7091 77.571C38.4871 78.0141 39.3088 78.7333 39.8612 78.6458C40.4136 78.5583 42.3838 79.3787 43.5036 80.1923" stroke="black" stroke-width="0.437942"/>
    <path d="M47.6056 104.316C47.7587 105.282 48.3836 104.759 48.616 104.439L48.8604 103.975C48.5961 103.632 48.304 103.243 47.9393 102.847C47.7275 102.618 47.4531 102.374 47.141 102.124C47.2449 102.533 47.4831 103.542 47.6056 104.316Z" fill="white"/>
    <path d="M48.9351 87.684C49.2017 87.8778 49.738 88.4629 49.75 89.2537M48.5821 94.3933C48.9955 93.7616 49.7876 92.079 49.6487 90.4022M54.046 89.5642C53.9343 89.1572 53.7633 88.1368 53.9722 87.3109M51.0786 101.218C51.4054 100.6 52.1028 99.6397 52.7932 99.5304C53.4837 99.421 53.898 99.3554 54.3561 99.566C54.8141 99.7766 55.3884 99.8272 55.9407 99.7397C56.3827 99.6697 56.8322 99.4097 57.0018 99.2885M52.8383 102.496C52.9085 102.343 53.1317 102.025 53.4631 101.972C53.8774 101.907 54.3355 102.117 54.4954 102.234M59.6406 99.8615L60.8029 98.2618M39.0097 95.6263C39.1628 96.593 39.2872 98.2721 40.4576 98.5114C41.628 98.7507 42.1803 98.6632 43.3001 99.4768C44.1887 100.122 45.9423 101.166 47.141 102.124M60.0562 102.485C59.4969 103.423 58.6834 104.543 57.8985 104.95C57.1137 105.358 56.0158 104.682 55.1216 104.399C54.2274 104.116 53.6025 104.64 52.912 104.749C52.2216 104.859 51.1605 105.31 50.2882 105.165C49.7262 105.072 49.339 104.598 48.8604 103.975M47.141 102.124C47.4531 102.374 47.7275 102.618 47.9393 102.847C48.304 103.243 48.5961 103.632 48.8604 103.975M47.141 102.124C47.2449 102.533 47.4831 103.542 47.6056 104.316C47.7587 105.282 48.3836 104.759 48.616 104.439L48.8604 103.975" stroke="black" stroke-width="0.437942"/>
    <path d="M39.4357 88.481C39.9785 88.6309 41.5309 89.1967 43.398 90.2599C45.732 91.589 46.7355 92.5625 47.8484 94.2266" stroke="black" stroke-width="0.437942"/>
    <path d="M39.7321 88.5752L40.4538 93.1324C41.2756 93.8516 45.6878 94.0022 47.4831 93.7178C45.0625 90.5905 41.3072 88.9863 39.7321 88.5752Z" fill="white" stroke="black" stroke-width="0.437942"/>
    <path d="M44.1068 93.8282C42.955 92.9914 42.5304 90.7276 42.462 89.7003C45.027 90.8795 46.8806 92.8698 47.4867 93.7175C46.5975 93.764 44.6767 93.8512 44.1068 93.8282Z" fill="#008086" stroke="black" stroke-width="0.437942"/>
    <circle cx="44.1912" cy="91.6915" r="0.699093" transform="rotate(-9 44.1912 91.6915)" fill="white"/>
    <circle cx="44.7145" cy="92.3162" r="0.838912" transform="rotate(-9 44.7145 92.3162)" fill="black"/>
    <path d="M54.8541 89.2947C54.8136 89.7541 55.0997 91.1433 55.2478 91.7805C56.1601 90.3902 56.6252 89.1558 56.7437 88.7123L56.0151 85.0056C55.645 86.2439 54.8946 88.8353 54.8541 89.2947Z" fill="white" stroke="black" stroke-width="0.437942"/>
    <path d="M56.2484 90.0649C56.2419 88.5937 55.7891 87.1649 55.5635 86.6343L54.8524 89.2951L54.9181 89.7094L55.268 91.9189C55.4544 91.6063 55.9115 90.7978 56.2484 90.0649Z" fill="#008086" stroke="black" stroke-width="0.437942"/>
    <path d="M55.6315 89.7379C55.684 90.0694 55.2222 90.1331 54.9848 90.1235L54.8317 89.1568C54.8873 88.9121 55.0537 88.4138 55.2747 88.3788C55.5509 88.3351 55.5659 89.3236 55.6315 89.7379Z" fill="black" stroke="black" stroke-width="0.437942"/>
    <rect x="-0.000488281" y="22.3877" width="65.4723" height="126.31" rx="3.50353" transform="rotate(-9 -0.000488281 22.3877)" fill="#005BA6"/>
  </g>
  <rect x="3.45996" y="16.2019" width="65.2154" height="126.287" rx="3.48979" transform="rotate(-9 3.45996 16.2019)" fill="#A158ED"/>
  <rect x="5.98486" y="32.1436" width="65.2154" height="3.92601" transform="rotate(-9 5.98486 32.1436)" fill="white"/>
  <rect x="6.18958" y="33.436" width="65.2154" height="1.30867" transform="rotate(-9 6.18958 33.436)" fill="#61B9F5"/>
  <rect x="6.599" y="36.0212" width="65.2154" height="99.677" transform="rotate(-9 6.599 36.0212)" fill="#4D6ECB"/>
  <path d="M13.4913 79.5374L80.9917 88.8315L84.8131 112.959L20.4007 123.161L13.4913 79.5374Z" fill="#65612E"/>
  <path d="M40.5771 113.782C30.0066 113.16 20.6632 106.778 17.3127 103.665L22.1919 134.471L86.6044 124.269L83.3289 103.588C73.4826 107.246 51.1475 114.405 40.5771 113.782Z" fill="#CDB389"/>
  <path d="M36.1171 86.9373C34.4583 85.367 35.3328 81.9853 35.4186 79.8566C35.6443 77.4238 34.9829 77.1055 34.6343 74.9047C34.2857 72.7038 30.5406 68.6437 27.8318 66.6757C25.1229 64.7076 24.2677 62.869 25.6787 61.0944C27.0897 59.3199 34.6442 65.1737 37.1936 67.026C39.7431 68.8783 41.1908 68.226 43.8112 66.9649C46.4316 65.7038 44.329 59.5506 43.9586 57.2121C43.5883 54.8737 42.8488 52.8757 45.1437 52.2302C47.4385 51.5848 48.7227 57.0216 50.6074 61.7993C52.4922 66.577 54.535 68.7916 55.8751 70.1304C57.2152 71.4692 56.8828 72.9319 56.782 74.0759C56.6812 75.2199 57.3049 77.3772 57.7979 78.7092C58.2908 80.0412 58.8778 81.0763 59.7113 82.7774C60.5447 84.4784 61.2107 84.2319 62.2103 85.2017C63.2099 86.1714 62.834 87.359 62.6678 88.0903C62.5017 88.8217 61.9882 90.0311 61.5905 91.0811C61.1927 92.1311 60.6139 92.9278 60.4913 93.9343C60.3687 94.9408 59.1456 96.1215 58.0452 96.2958C56.9448 96.4701 55.7721 97.0788 54.3679 98.0063C52.9638 98.9337 49.5672 97.0746 49.0892 96.7273C48.6111 96.38 42.1067 90.9239 40.832 89.9977C39.5573 89.0716 37.7759 88.5077 36.1171 86.9373Z" fill="#F29600" stroke="black" stroke-width="0.436223"/>
  <path d="M45.709 91.8879C44.2575 91.7866 43.0834 90.6475 40.5826 89.4978L40.6167 89.7132L45.8177 93.9686L48.0807 95.7081L49.7368 97.102L51.7556 97.9968L53.9952 98.1942L55.4179 97.4168L57.056 96.6052L58.853 96.0998L60.1168 95.0163L60.5754 93.7291L60.1445 93.7973L60.9434 92.5667L62.6253 88.5461L62.8397 86.4143L62.2041 85.19L61.206 84.4648L60.1737 83.5241L59.2032 81.5799L57.7903 78.9329L57.046 75.6279L56.8242 74.2276L56.8627 71.682L56.2441 70.5654L54.1113 68.2532L52.1086 65.3684L50.6892 61.287L48.084 55.2956L46.9547 53.0453C45.4457 51.1864 43.4021 52.9234 43.5932 54.1298C43.832 55.6378 44.008 56.0516 43.9461 57.0551C43.8842 58.0586 45.1788 62.0494 45.3665 63.2342C45.5541 64.419 45.0614 65.4908 44.7329 66.2053L44.7329 66.2054C44.1407 67.4935 42.4431 67.7826 41.9046 67.8679C41.4737 67.9361 40.0905 68.2656 39.4442 68.368C39.7183 68.4718 40.3164 68.7157 40.516 68.8607C40.7656 69.042 43.5949 69.4772 45.1711 69.6692C46.7473 69.8612 50.914 68.9805 52.0029 69.5809C53.0917 70.1814 55.3098 73.0321 55.5828 74.7555C55.8558 76.4789 57.2634 79.7893 57.5076 80.6339C57.7518 81.4786 58.4215 82.9183 59.698 84.7036C60.9745 86.4889 60.8326 86.2905 60.1245 87.3964C59.4163 88.5023 58.4981 88.979 57.5574 90.0113C56.6168 91.0436 55.4085 89.6892 54.1895 89.6614C52.9706 89.6336 52.8575 90.314 52.1718 90.8643C51.486 91.4146 51.0274 92.7018 50.0068 92.5322C48.9862 92.3626 47.1604 91.9893 45.709 91.8879Z" fill="#D7890A"/>
  <path d="M36.1171 86.9373C34.4583 85.367 35.3328 81.9853 35.4186 79.8566C35.6443 77.4238 34.9829 77.1055 34.6343 74.9047C34.2857 72.7038 30.5406 68.6437 27.8318 66.6757C25.1229 64.7076 24.2677 62.869 25.6787 61.0944C27.0897 59.3199 34.6442 65.1737 37.1936 67.026C39.7431 68.8783 41.1908 68.226 43.8112 66.9649C46.4316 65.7038 44.329 59.5506 43.9586 57.2121C43.5883 54.8737 42.8488 52.8757 45.1437 52.2302C47.4385 51.5848 48.7227 57.0216 50.6074 61.7993C52.4922 66.577 54.535 68.7916 55.8751 70.1304C57.2152 71.4692 56.8828 72.9319 56.782 74.0759C56.6812 75.2199 57.3049 77.3772 57.7979 78.7092C58.2908 80.0412 58.8778 81.0763 59.7113 82.7774C60.5447 84.4784 61.2107 84.2319 62.2103 85.2017C63.2099 86.1714 62.834 87.359 62.6678 88.0903C62.5017 88.8217 61.9882 90.0311 61.5905 91.0811C61.1927 92.1311 60.6139 92.9278 60.4913 93.9343C60.3687 94.9408 59.1456 96.1215 58.0452 96.2958C56.9448 96.4701 55.7721 97.0788 54.3679 98.0063C52.9638 98.9337 49.5672 97.0746 49.0892 96.7273C48.6111 96.38 42.1067 90.9239 40.832 89.9977C39.5573 89.0716 37.7759 88.5077 36.1171 86.9373Z" stroke="black" stroke-width="0.436223"/>
  <path d="M38.5956 67.791C39.3705 68.2323 40.189 68.9487 40.7392 68.8616C41.2894 68.7744 43.252 69.5916 44.3673 70.402" stroke="black" stroke-width="0.436223"/>
  <path d="M48.4551 94.4306C48.6076 95.3935 49.23 94.8719 49.4615 94.5532L49.7049 94.0916C49.4417 93.7493 49.1508 93.3618 48.7874 92.9679C48.5765 92.7392 48.3031 92.4964 47.9923 92.2478C48.0957 92.6544 48.3331 93.6603 48.4551 94.4306Z" fill="white"/>
  <path d="M49.7794 77.8642C50.0449 78.0571 50.5791 78.6399 50.591 79.4277M49.4278 84.5471C49.8396 83.9179 50.6285 82.2419 50.4902 80.5717M54.8702 79.737C54.759 79.3316 54.5886 78.3151 54.7967 77.4925M51.9144 91.3446C52.24 90.729 52.9346 89.773 53.6224 89.664C54.3101 89.5551 54.7228 89.4897 55.179 89.6995C55.6353 89.9092 56.2073 89.9596 56.7575 89.8725C57.1977 89.8028 57.6455 89.5438 57.8144 89.4231M53.6672 92.618C53.7371 92.466 53.9595 92.1487 54.2896 92.0964C54.7023 92.0311 55.1585 92.2408 55.3179 92.3566M60.4429 89.9938L61.6006 88.4004M39.8929 85.7753C40.0454 86.7382 40.1693 88.4106 41.3351 88.649C42.5009 88.8874 43.0511 88.8002 44.1665 89.6106C45.0515 90.2536 46.7983 91.2928 47.9923 92.2478M60.8568 92.6074C60.2998 93.5416 59.4894 94.657 58.7076 95.0629C57.9259 95.4687 56.8323 94.7959 55.9416 94.5139C55.0509 94.232 54.4285 94.7536 53.7407 94.8625C53.0529 94.9714 51.996 95.4208 51.1271 95.2765C50.5673 95.1834 50.1816 94.7116 49.7049 94.0916M47.9923 92.2478C48.3031 92.4964 48.5765 92.7392 48.7874 92.9679C49.1508 93.3618 49.4417 93.7493 49.7049 94.0916M47.9923 92.2478C48.0957 92.6544 48.3331 93.6603 48.4551 94.4306C48.6076 95.3935 49.23 94.8719 49.4615 94.5532L49.7049 94.0916" stroke="black" stroke-width="0.436223"/>
  <path d="M40.3168 78.658C40.8575 78.8073 42.4038 79.3709 44.2636 80.4299C46.5884 81.7538 47.588 82.7235 48.6965 84.381" stroke="black" stroke-width="0.436223"/>
  <path d="M40.6136 78.752L41.3326 83.2913C42.1511 84.0077 46.546 84.1576 48.3343 83.8744C45.9232 80.7593 42.1826 79.1615 40.6136 78.752Z" fill="white" stroke="black" stroke-width="0.436223"/>
  <path d="M44.9675 83.9846C43.8202 83.1511 43.3973 80.8962 43.3292 79.8729C45.8842 81.0475 47.7304 83.03 48.3342 83.8744C47.4485 83.9207 45.5352 84.0075 44.9675 83.9846Z" fill="#008086" stroke="black" stroke-width="0.436223"/>
  <circle cx="45.0534" cy="81.8559" r="0.69635" transform="rotate(-9 45.0534 81.8559)" fill="white"/>
  <circle cx="45.5749" cy="82.4783" r="0.83562" transform="rotate(-9 45.5749 82.4783)" fill="black"/>
  <path d="M55.6738 79.4687C55.6334 79.9263 55.9184 81.3101 56.0659 81.9447C56.9747 80.56 57.4379 79.3303 57.556 78.8886L56.8302 75.1964C56.4615 76.4299 55.7141 79.0111 55.6738 79.4687Z" fill="white" stroke="black" stroke-width="0.436223"/>
  <path d="M57.0643 80.2355C57.0578 78.77 56.6068 77.3468 56.3821 76.8184L55.6738 79.4687L55.7391 79.8813L56.0877 82.0822C56.2734 81.7708 56.7287 80.9655 57.0643 80.2355Z" fill="#008086" stroke="black" stroke-width="0.436223"/>
  <path d="M56.4487 79.9099C56.501 80.2401 56.0411 80.3035 55.8045 80.294L55.652 79.3311C55.7074 79.0873 55.8732 78.591 56.0933 78.5562C56.3684 78.5126 56.3834 79.4973 56.4487 79.9099Z" fill="black" stroke="black" stroke-width="0.436223"/>
  <defs>
    <filter id="filter0_d_415_14844" x="0" y="0.124519" width="98.5325" height="148.311" filterUnits="userSpaceOnUse" color-interpolation-filters="sRGB">
      <feFlood flood-opacity="0" result="BackgroundImageFix"/>
      <feColorMatrix in="SourceAlpha" type="matrix" values="0 0 0 0 0 0 0 0 0 0 0 0 0 0 0 0 0 0 127 0" result="hardAlpha"/>
      <feOffset dx="7.82259" dy="-5.21506"/>
      <feGaussianBlur stdDeviation="3.35755"/>
      <feComposite in2="hardAlpha" operator="out"/>
      <feColorMatrix type="matrix" values="0 0 0 0 0.784314 0 0 0 0 0.843137 0 0 0 0 0.909804 0 0 0 0.25 0"/>
      <feBlend mode="normal" in2="BackgroundImageFix" result="effect1_dropShadow_415_14844"/>
      <feBlend mode="normal" in="SourceGraphic" in2="effect1_dropShadow_415_14844" result="shape"/>
    </filter>
  </defs>
</svg>
