<svg width="48" height="80" viewBox="0 0 48 80" fill="none"
  xmlns="http://www.w3.org/2000/svg">
  <g clip-path="url(#clip0_40000347_57372)">
    <g filter="url(#filter0_d_40000347_57372)">
      <rect x="-7" y="9.62842" width="50.2178" height="97.2445" rx="2.68724" transform="rotate(-3 -7 9.62842)" fill="#A158ED"/>
      <rect x="-6.34961" y="22.04" width="50.2178" height="3.02315" transform="rotate(-3 -6.34961 22.04)" fill="white"/>
      <rect x="-6.29688" y="23.0464" width="50.2178" height="1.00772" transform="rotate(-3 -6.29688 23.0464)" fill="#61B9F5"/>
      <rect x="-6.19238" y="25.0591" width="50.2178" height="76.7543" transform="rotate(-3 -6.19238 25.0591)" fill="#4D6ECB"/>
      <path d="M-4.41602 58.939L46.5285 71.4896L47.513 90.2746L-2.63605 92.9028L-4.41602 58.939Z" fill="#65612E"/>
      <path d="M13.5701 87.344C5.52525 86.0166 -1.11642 80.3773 -3.43164 77.7236L-2.17468 101.708L47.9743 99.0797L47.1305 82.9784C39.2957 84.9867 21.615 88.6715 13.5701 87.344Z" fill="#CDB389"/>
      <path d="M12.1507 60.3497C11.0068 59.0136 11.9486 56.4942 12.1857 54.871C12.5544 53.026 12.0735 52.7291 11.9837 51.0155C11.8939 49.302 9.35256 45.8914 7.43653 44.1662C5.5205 42.441 5.01354 40.9641 6.23694 39.7187C7.46035 38.4733 12.7744 43.5642 14.5778 45.188C16.3811 46.8117 17.5423 46.4287 19.6505 45.6738C21.7588 44.919 20.6438 40.0375 20.5484 38.2169C20.453 36.3963 20.0475 34.8067 21.8569 34.4971C23.6663 34.1875 24.2121 38.4545 25.2709 42.265C26.3297 46.0755 27.7159 47.9359 28.6344 49.069C29.5529 50.2022 29.1806 51.2956 29.0113 52.1636C28.8421 53.0316 29.1461 54.7338 29.4164 55.7936C29.6867 56.8533 30.0529 57.6932 30.5542 59.063C31.0556 60.4328 31.5854 60.2976 32.2729 61.1207C32.9604 61.9438 32.5769 62.823 32.3908 63.3697C32.2046 63.9164 31.7141 64.8012 31.325 65.5734C30.9359 66.3455 30.4285 66.909 30.2536 67.6699C30.0787 68.4308 29.047 69.2366 28.1902 69.2815C27.3335 69.3264 26.3865 69.6982 25.2365 70.2954C24.0865 70.8926 21.635 69.1955 21.2969 68.891C20.9587 68.5866 16.4167 63.8847 15.5151 63.0729C14.6134 62.261 13.2946 61.6858 12.1507 60.3497Z" fill="#F29600" stroke="black" stroke-width="0.335905"/>
      <path d="M19.0981 64.9128C17.9948 64.7183 17.1873 63.7515 15.3646 62.6698L15.3734 62.8375L19.0139 66.5149L20.6069 68.0292L21.763 69.23L23.237 70.0777L24.9362 70.4091L26.0883 69.9283L27.4081 69.4387L28.825 69.1962L29.88 68.4682L30.3348 67.5194L29.9994 67.5369L30.7102 66.6588L32.3218 63.7152L32.6576 62.0999L32.2695 61.1111L31.5634 60.4754L30.8486 59.6719L30.2619 58.1049L29.3929 55.9641L29.0889 53.3732L29.0318 52.283L29.2661 50.3366L28.8823 49.4317L27.4351 47.4893L26.1336 45.1189L25.3751 41.8791L23.8623 37.0811L23.1786 35.2669C22.1726 33.7219 20.4678 34.8876 20.517 35.8268C20.5785 37.0009 20.68 37.3319 20.5518 38.0955C20.4236 38.859 21.0938 42.0194 21.1422 42.9418C21.1905 43.8643 20.7269 44.6454 20.4178 45.1662L20.4178 45.1662C19.8606 46.105 18.5374 46.1897 18.1181 46.2117C17.7826 46.2293 16.6968 46.3703 16.1936 46.3967C16.3952 46.4982 16.8336 46.7331 16.9748 46.8603C17.1513 47.0192 19.283 47.5802 20.4746 47.8541C21.6662 48.128 24.928 47.7889 25.7135 48.3364C26.4991 48.8839 27.9683 51.2455 28.0386 52.5873C28.1089 53.9291 28.9205 56.5775 29.0395 57.244C29.1585 57.9105 29.5555 59.067 30.3893 60.5369C31.2232 62.0068 31.1306 61.8435 30.4992 62.6334C29.8679 63.4233 29.1263 63.7145 28.3229 64.4293C27.5194 65.1442 26.7031 64.0097 25.7719 63.8903C24.8406 63.7709 24.6993 64.2829 24.1298 64.6491C23.5604 65.0153 23.1055 65.9641 22.3376 65.7521C21.5697 65.5401 20.2015 65.1072 19.0981 64.9128Z" fill="#D7890A"/>
      <path d="M12.1507 60.3497C11.0068 59.0136 11.9486 56.4942 12.1857 54.871C12.5544 53.026 12.0735 52.7291 11.9837 51.0155C11.8939 49.302 9.35256 45.8914 7.43653 44.1662C5.5205 42.441 5.01354 40.9641 6.23694 39.7187C7.46035 38.4733 12.7744 43.5642 14.5778 45.188C16.3811 46.8117 17.5423 46.4287 19.6505 45.6738C21.7588 44.919 20.6438 40.0375 20.5484 38.2169C20.453 36.3963 20.0475 34.8067 21.8569 34.4971C23.6663 34.1875 24.2121 38.4545 25.2709 42.265C26.3297 46.0755 27.7159 47.9359 28.6344 49.069C29.5529 50.2022 29.1806 51.2956 29.0113 52.1636C28.8421 53.0316 29.1461 54.7338 29.4164 55.7936C29.6867 56.8533 30.0529 57.6932 30.5542 59.063C31.0556 60.4328 31.5854 60.2976 32.2729 61.1207C32.9604 61.9438 32.5769 62.823 32.3908 63.3697C32.2046 63.9164 31.7141 64.8012 31.325 65.5734C30.9359 66.3455 30.4285 66.909 30.2536 67.6699C30.0787 68.4308 29.047 69.2366 28.1902 69.2815C27.3335 69.3264 26.3865 69.6982 25.2365 70.2954C24.0865 70.8926 21.635 69.1955 21.2969 68.891C20.9587 68.5866 16.4167 63.8847 15.5151 63.0729C14.6134 62.261 13.2946 61.6858 12.1507 60.3497Z" stroke="black" stroke-width="0.335905"/>
      <path d="M15.5908 45.8867C16.1487 46.287 16.7179 46.9015 17.1463 46.8791C17.5747 46.8566 19.0118 47.6404 19.8008 48.3508" stroke="black" stroke-width="0.335905"/>
      <path d="M20.9961 67.0814C21.0354 67.8311 21.554 67.4817 21.757 67.2563L21.9806 66.9224C21.8065 66.6391 21.6149 66.3189 21.3684 65.988C21.2252 65.7959 21.0354 65.5879 20.8174 65.3725C20.8639 65.6923 20.9647 66.4817 20.9961 67.0814Z" fill="white"/>
      <path d="M23.3437 54.5012C23.5316 54.6703 23.8937 55.1597 23.8394 55.7639M22.5365 59.5908C22.9025 59.1421 23.6417 57.922 23.6702 56.6319M27.0916 56.3452C27.039 56.0258 26.9904 55.2336 27.216 54.6204M23.8937 64.9965C24.1926 64.5513 24.8015 63.8751 25.337 63.847C25.8724 63.8189 26.1937 63.8021 26.5262 63.9995C26.8587 64.1968 27.2927 64.2814 27.7211 64.259C28.0638 64.241 28.4276 64.0788 28.5666 63.9999M25.1335 66.1128C25.1993 66.002 25.3951 65.777 25.6522 65.7635C25.9735 65.7466 26.306 65.944 26.4187 66.0455M30.5336 64.6485L31.5485 63.5215M15.1358 59.7639C15.175 60.5135 15.1353 61.8043 16.0089 62.0807C16.8825 62.3571 17.3109 62.3346 18.0998 63.045C18.7259 63.6087 19.9799 64.5451 20.8174 65.3725M30.6403 66.6834C30.1385 67.354 29.4281 68.1429 28.7968 68.3908C28.1654 68.6387 27.3821 68.0354 26.7227 67.7478C26.0633 67.4602 25.5446 67.8095 25.0091 67.8376C24.4737 67.8656 23.6281 68.1247 22.9743 67.9442C22.5531 67.8279 22.2957 67.4356 21.9806 66.9224M20.8174 65.3725C21.0354 65.5879 21.2252 65.7959 21.3684 65.988C21.6149 66.3189 21.8065 66.6391 21.9806 66.9224M20.8174 65.3725C20.8639 65.6923 20.9647 66.4817 20.9961 67.0814C21.0354 67.8311 21.554 67.4817 21.757 67.2563L21.9806 66.9224" stroke="black" stroke-width="0.335905"/>
      <path d="M16.0332 54.3472C16.4352 54.5051 17.5741 55.0611 18.9131 56.0219C20.5869 57.2228 21.2743 58.0459 21.9899 59.4045" stroke="black" stroke-width="0.335905"/>
      <path d="M16.252 54.4429L16.4372 57.977C17.0063 58.5915 20.3599 59.0601 21.7522 58.9871C20.1565 56.4075 17.4205 54.8828 16.252 54.4429Z" fill="white" stroke="black" stroke-width="0.335905"/>
      <path d="M19.1678 58.8009C18.3563 58.0702 18.2139 56.3094 18.2442 55.5203C20.1062 56.6254 21.3606 58.2922 21.755 58.9875C21.073 58.9516 19.6007 58.8641 19.1678 58.8009Z" fill="#008086" stroke="black" stroke-width="0.335905"/>
      <circle cx="19.4034" cy="57.1773" r="0.536211" transform="rotate(-3 19.4034 57.1773)" fill="white"/>
      <circle cx="19.7524" cy="57.6963" r="0.643453" transform="rotate(-3 19.7524 57.6963)" fill="black"/>
      <path d="M27.7296 56.2044C27.6619 56.5515 27.7687 57.6342 27.8306 58.1321C28.638 57.1447 29.0918 56.2404 29.2177 55.9116L28.9591 53.0256C28.5775 53.9405 27.7973 55.8572 27.7296 56.2044Z" fill="white" stroke="black" stroke-width="0.335905"/>
      <path d="M28.7311 56.9032C28.8441 55.7805 28.6133 54.6542 28.4837 54.2315L27.728 56.2041L27.7448 56.5254L27.8346 58.2389C28.0019 58.0153 28.4154 57.4352 28.7311 56.9032Z" fill="#008086" stroke="black" stroke-width="0.335905"/>
      <path d="M28.2869 56.6044C28.3004 56.8614 27.943 56.873 27.7627 56.8467L27.7234 56.097C27.7854 55.9148 27.9523 55.5481 28.1237 55.5391C28.3379 55.5278 28.2701 56.2831 28.2869 56.6044Z" fill="black" stroke="black" stroke-width="0.335905"/>
      <g filter="url(#filter1_d_40000347_57372)">
        <rect x="-4.8252" y="8.19678" width="48.559" height="94.0323" rx="2.59847" transform="rotate(-3 -4.8252 8.19678)" fill="#D9D9D9"/>
        <rect x="-4.19629" y="20.1982" width="48.559" height="2.92328" transform="rotate(-3 -4.19629 20.1982)" fill="white"/>
        <rect x="-4.14551" y="21.1714" width="48.559" height="0.974428" transform="rotate(-3 -4.14551 21.1714)" fill="#61B9F5"/>
        <g clip-path="url(#clip1_40000347_57372)">
          <rect x="-4.04297" y="23.1177" width="48.559" height="74.2189" transform="rotate(-3 -4.04297 23.1177)" fill="url(#paint0_linear_40000347_57372)"/>
          <path d="M35.19 54.5064L35.7466 54.7492L40.5118 46.341L40.0369 45.4335L33.3295 49.398L35.19 54.5064Z" fill="#D4B9A1"/>
          <path d="M35.7856 54.7473L36.5217 54.7087L41.1411 50.9313L40.4753 46.382L34.1003 50.0183L35.7856 54.7473Z" fill="#966E65"/>
          <path d="M5.80323 51.2291L1.25693 83.8291L-0.965649 83.6737L-4.07899 82.0886C-2.15385 71.8738 1.72666 51.2795 1.84752 50.6205C1.9986 49.7968 3.04873 49.8194 4.38224 50.0604C5.44906 50.2531 5.77407 50.9198 5.80323 51.2291Z" fill="#D4B9A1"/>
          <path d="M8.47852 34.9446L7.87425 35.9902L7.3181 36.0193L-4.2453 31.6658L0.681037 26.3662L8.47852 34.9446Z" fill="#D4B9A1"/>
          <path d="M34.3594 40.8748L35.13 41.4948L40.8019 36.3025L46.3097 26.4957L34.3759 30.8119L34.3594 40.8748Z" fill="#D4B9A1"/>
          <path d="M34.7792 50.3711L40.206 47.1729L40.5056 47.7011L40.4831 48.0131L36.3627 54.6393L34.7792 50.3711Z" fill="#D4B9A1"/>
          <path d="M35.4034 31.8848L35.128 41.4562L36.4351 41.1935L44.0643 37.0253L46.2503 27.5868L35.4034 31.8848Z" fill="#966E65"/>
          <path d="M35.9338 41.2585L36.1397 41.4808L40.1326 39.8341L46.0708 29.3443L36.3129 32.9248L35.9338 41.2585Z" fill="#D4B9A1"/>
          <path d="M36.2168 41.4769L42.0449 40.006L42.1999 39.9979L44.0514 39.7454L45.8929 29.6646L36.6387 33.2187L36.2168 41.4769Z" fill="#966E65"/>
          <path d="M56.7075 77.3877L37.7483 39.5705C37.4467 38.7575 37.3431 36.5848 39.342 34.3977C41.3408 32.2106 43.0786 33.0493 43.6976 33.7421L50.2718 42.061L56.7075 77.3877Z" fill="#D4B9A1"/>
          <path d="M36.4831 54.7108L37.8067 54.0198L41.4206 51.0721L40.5058 47.7013L35.073 50.7832L36.4831 54.7108Z" fill="#966E65"/>
          <path d="M53.3669 81.8364L36.4611 52.8082C36.205 52.3683 36.3799 51.2584 37.8687 50.0149C39.0598 49.0201 40.3905 49.7014 40.9069 50.1665L50.502 63.4941L53.3669 81.8364Z" fill="#D4B9A1"/>
          <path d="M7.76968 35.9454L1.68541 41.7396L-4.5259 32.5339L0.0413866 27.7825L7.76968 35.9454Z" fill="#966E65"/>
          <path d="M6.41864 36.2695L0.565895 30.0362L-3.22381 32.212L1.78754 40.7708L6.41864 36.2695Z" fill="#D4B9A1"/>
          <path d="M5.97341 36.4954L2.54535 39.7676L-1.73985 32.4889L0.354701 30.8582L5.97341 36.4954Z" fill="#966E65"/>
          <path d="M-3.52205 71.2204L4.69504 36.7574C4.53883 36.2476 3.72936 34.7879 1.74123 33.0273C-0.246905 31.2667 -2.16881 31.8077 -2.88124 32.2983L-5.40021 35.3829L-3.52205 71.2204Z" fill="#D4B9A1"/>
          <mask id="mask0_40000347_57372" style="mask-type:alpha" maskUnits="userSpaceOnUse" x="36" y="49" width="18" height="33">
            <path d="M53.3659 81.8364L36.4601 52.8082C36.204 52.3683 36.3789 51.2584 37.8677 50.0149C39.0588 49.0201 40.3895 49.7014 40.906 50.1665L50.501 63.4941L53.3659 81.8364Z" fill="#D4B9A1"/>
          </mask>
          <g mask="url(#mask0_40000347_57372)">
            <path d="M53.4112 80.4745L36.1099 51.3116L36.0449 50.0718L53.33 78.9248L53.4112 80.4745Z" fill="#D5C2B1"/>
            <path d="M54.8169 77.9879L36.5376 49.4278L36.4307 48.1909L54.6832 76.4418L54.8169 77.9879Z" fill="#D5C2B1"/>
            <path d="M56.729 76.8135L38.1876 48.4228L38.0693 47.187L56.5811 75.2687L56.729 76.8135Z" fill="#D5C2B1"/>
          </g>
          <mask id="mask1_40000347_57372" style="mask-type:alpha" maskUnits="userSpaceOnUse" x="-5" y="49" width="11" height="35">
            <path d="M5.80323 51.2291L1.25693 83.8291L-0.965649 83.6737L-4.07899 82.0886C-2.15385 71.8738 1.72666 51.2795 1.84752 50.6205C1.9986 49.7968 3.04873 49.8194 4.38224 50.0604C5.44906 50.2531 5.77407 50.9198 5.80323 51.2291Z" fill="#D4B9A1"/>
          </mask>
          <g mask="url(#mask1_40000347_57372)">
            <path d="M-5.06456 86.8163L2.41752 50.258L3.20508 49.2212L-4.08011 85.5202L-5.06456 86.8163Z" fill="#D5C2B1"/>
            <path d="M-2.41024 85.9214L3.98206 49.0884L4.73828 48.0215L-1.46497 84.5877L-2.41024 85.9214Z" fill="#D5C2B1"/>
            <path d="M-0.282003 86.4625L5.81299 49.5622L6.56055 48.4873L0.652443 85.1189L-0.282003 86.4625Z" fill="#D5C2B1"/>
          </g>
          <mask id="mask2_40000347_57372" style="mask-type:alpha" maskUnits="userSpaceOnUse" x="-6" y="31" width="11" height="41">
            <path d="M-3.52107 71.2209L4.69602 36.7579C4.5398 36.2481 3.73034 34.7883 1.7422 33.0278C-0.245928 31.2672 -2.16783 31.8082 -2.88026 32.2988L-5.39923 35.3834L-3.52107 71.2209Z" fill="#D4B9A1"/>
          </mask>
          <g mask="url(#mask2_40000347_57372)">
            <path d="M-18.7283 87.6217L0.681618 20.3287L2.30859 18.5054L-16.6945 85.3425L-18.7283 87.6217Z" fill="#D5C2B1"/>
            <path d="M-13.3037 86.3238L4.10787 18.3554L5.68066 16.4712L-11.3377 83.9685L-13.3037 86.3238Z" fill="#D5C2B1"/>
            <path d="M-9.72675 87.6676L7.13852 19.5293L8.69629 17.6289L-7.77954 85.2921L-9.72675 87.6676Z" fill="#D5C2B1"/>
          </g>
          <mask id="mask3_40000347_57372" style="mask-type:alpha" maskUnits="userSpaceOnUse" x="37" y="32" width="20" height="46">
            <path d="M56.7085 77.3882L37.7492 39.571C37.4476 38.758 37.3441 36.5853 39.3429 34.3982C41.3417 32.2111 43.0795 33.0498 43.6986 33.7425L50.2728 42.0615L56.7085 77.3882Z" fill="#D4B9A1"/>
          </mask>
          <g mask="url(#mask3_40000347_57372)">
            <path d="M56.326 71.055L33.8633 28.8623L33.8525 27.1123L56.3126 68.8674L56.326 71.055Z" fill="#D5C2B1"/>
            <path d="M58.4677 67.6449L34.5886 26.2374L34.5186 24.4888L58.3802 65.4591L58.4677 67.6449Z" fill="#D5C2B1"/>
            <path d="M61.2368 66.1166L36.9777 24.9306L36.8916 23.1826L61.1292 63.9316L61.2368 66.1166Z" fill="#D5C2B1"/>
          </g>
          <path d="M10.4337 72.9243L-2.17064 76.3708L-3.24612 102.455L50.6082 99.6328L47.8844 70.9616L34.8158 72.1045L24.4594 73.296L20.2493 71.6084L13.8933 71.9415L10.4337 72.9243Z" fill="#F53EFD"/>
          <path d="M10.434 72.9243L-2.86707 74.7282L-2.47413 82.2259L49.4117 76.797L47.8847 70.9616L34.8161 72.1045L24.4597 73.296L20.2496 71.6085L13.8936 71.9416L10.434 72.9243Z" fill="#D4B9A1"/>
          <path d="M26.1232 79.5444L22.3012 79.4394L22.7777 80.5212L24.7145 81.7936L30.7279 81.4784L39.3895 80.7192L42.282 80.5676L45.2286 80.7185L49.6054 80.4891L50.519 79.7161L39.7008 77.1918L41.4437 76.2227L37.7597 77.2935L34.3942 78.6148L31.109 79.2831L28.9575 79.7393L28.0642 79.4427L26.1232 79.5444Z" fill="#F53EFD"/>
          <path d="M34.6001 78.909L49.6187 73.4659L43.8797 73.9193L41.0372 74.2972L36.0833 75.1675L28.6073 76.7042L17.1771 78.5245L16.7023 78.931L20.506 80.1437L26.2849 80.4515L34.6001 78.909Z" fill="#966E65"/>
          <path d="M49.0433 83.6099L52.4579 86.8657L51.6122 97.6723L49.435 96.9086L43.7486 94.726L40.8923 94.1124L37.8638 93.1262L33.2247 92.7205L29.8017 91.4878L26.186 91.6773L22.7369 90.675L19.2041 87.349L19.3949 85.1637L20.5069 83.8078L25.2468 81.7657L29.6178 80.697L33.8226 79.3699L35.8617 79.6828L40.8273 80.4912L43.95 81.0908L45.1315 82.5173L46.8781 83.0745L49.0433 83.6099Z" fill="#C8AE96"/>
          <path d="M-1.53195 79.8104L-3.8978 80.545L-4.88826 93.6872L0.184284 90.7117L4.60551 89.1442L10.3266 88.3483L18.9563 86.9801L21.1583 84.5748L26.4932 81.5092L25.8583 81.0464L24.0016 80.5712L23.0022 79.7077L21.526 79.2126L17.3076 78.823L21.4941 78.6036L23.8919 78.478L26.7405 77.4891L28.7756 77.7259L29.9556 76.9389L32.087 76.8272L33.6855 76.7434L36.2617 75.6543L37.7841 75.5745L39.539 74.8338L40.7569 74.77L42.7081 74.1334L44.3345 74.5825L44.573 74.0357L46.5702 73.5493C43.8619 73.8185 38.2475 74.3672 37.4559 74.4087C36.6642 74.4501 34.1506 74.9381 32.9927 75.1769L30.4047 75.3125L23.8001 76.7272L17.7965 77.9578L14.5413 78.4719L11.5727 78.6274L8.64209 78.781L6.39657 78.8987L2.8449 79.581L1.17028 79.6687L-1.53195 79.8104Z" fill="#D4B9A1"/>
          <path d="M45.5945 74.5929L48.6535 73.2495L49.8327 76.0882L50.4269 79.4155L48.0611 80.1501L46.4245 80.2359L43.7603 80.3755L41.4207 80.1546L38.4381 80.0438L33.7389 79.9466L34.0935 79.4319L35.4337 78.7892L37.6374 77.8722L38.613 77.554L39.9211 77.0274L42.1909 75.9162L43.8836 75.4459L45.5945 74.5929Z" fill="#D4B9A1"/>
          <path d="M47.2578 79.3909L51.3084 78.0337L51.6506 79.466L48.6798 80.3086L45.597 80.4702L42.7306 80.3914L38.7484 80.1422L37.0198 79.9274L39.9884 79.7719L42.5004 79.6402L44.5556 79.5325L47.2578 79.3909Z" fill="#966E65"/>
          <path d="M45.1196 72.8241L48.7353 72.6347L49.242 72.8371L46.6038 73.4715L45.2637 73.3891L42.9881 73.661L38.481 74.317L37.3011 74.3788L34.4666 74.909L32.7338 75.3433L30.3741 75.467L30.3143 74.3252L34.7672 74.0918L38.7637 73.1573L40.1577 73.5422L42.2891 73.4305L45.1196 72.8241Z" fill="#966E65"/>
          <path d="M45.6991 72.2215L48.5938 71.3828L50.2061 72.2906L46.8126 73.0791L44.1484 73.2187L40.1781 73.9229L36.9351 73.9402L32.0152 74.7323L30.3507 74.2853L30.6753 73.9248L33.4519 73.016L36.6108 72.8504L39.3892 72.7048L45.6991 72.2215Z" fill="#C8AE96"/>
          <path d="M-0.812702 77.5212L-3.89537 76.9576L-5.01786 80.2986L-2.54231 81.6572L14.3405 79.0169L20.6528 77.1214L19.0923 77.2031L29.4154 72.4641L24.4876 73.104L19.1973 73.3812L13.56 75.7757L8.4539 76.6539L3.64027 77.2878L-0.812702 77.5212Z" fill="#C8AE96"/>
          <path d="M30.3145 75.7754L29.4539 72.462L18.1293 77.0246L18.1892 78.1664L30.3145 75.7754Z" fill="#966E65"/>
        </g>
        <path d="M8.74805 37.7339C11.4391 41.1157 12.7347 44.9525 12.3519 45.4799L35.3467 62.9834L40.6748 58.9248C40.8886 59.6319 40.936 59.4721 39.4159 53.1764C38.2578 48.3804 33.5093 43.3655 23.7668 40.1993L19.9045 39.426L8.74805 37.7339Z" fill="#E2D4DE" stroke="#634259" stroke-width="0.324809"/>
        <path d="M29.7091 66.6736C28.6994 66.7265 27.7256 66.5815 26.8249 66.2725L21.4992 61.0102L23.9468 44.4808L28.542 46.0548C31.0223 48.0228 36.0524 53.8881 36.4768 61.7278C35.4352 64.4858 32.8412 66.5095 29.7091 66.6736Z" fill="#EADFE7" stroke="#634259" stroke-width="0.324809"/>
        <path d="M12.1106 55.5652L16.1582 53.8311L17.5168 55.2818L16.2964 62.0152L12.4717 62.4551L11.5888 60.9452L12.1106 55.5652Z" fill="#8D657F"/>
        <path d="M11.9201 60.4149C11.8995 60.0226 12.3167 56.8884 12.6041 56.1722C12.5957 56.013 12.5401 55.6043 12.3844 55.2431C7.65782 54.7897 6.36996 54.0363 5.88619 53.942C5.40241 53.8476 5.33956 53.9535 5.36734 54.1573C5.39512 54.361 5.46684 54.7506 6.05726 55.5747C6.64769 56.3988 11.9406 60.8071 11.9201 60.4149Z" fill="#BDBCCE" stroke="#526182" stroke-width="0.324809"/>
        <path d="M12.6212 55.1981C13.415 55.0701 13.3562 55.4605 13.1622 56.0061L12.6408 57.0294L12.5741 56.9954C12.4601 56.8159 11.9879 56.2652 11.8119 55.9066C11.592 55.4583 11.8275 55.3261 12.6212 55.1981Z" fill="#E7EFF9"/>
        <path d="M9.92592 55.3397C10.7197 55.2117 10.6609 55.6021 10.4669 56.1477L9.94552 57.171L9.87878 57.137C9.76477 56.9575 9.29255 56.4068 9.11662 56.0482C8.89671 55.5999 9.13219 55.4677 9.92592 55.3397Z" fill="#E7EFF9"/>
        <path d="M17.1666 54.7874C15.2731 54.9414 11.2935 56.1669 9.54034 56.7604L10.6925 50.3555L17.1284 49.1632C17.9301 50.9738 19.0602 54.6335 17.1666 54.7874Z" fill="#C068AD" stroke="#634259" stroke-width="0.324809"/>
        <path d="M9.73692 55.6213C12.15 53.6992 14.0878 53.2796 17.0996 52.5335" stroke="#612B56" stroke-width="0.204932"/>
        <path d="M9.63926 53.7624C12.0524 51.8404 13.9902 51.4207 17.0019 50.6746" stroke="#612B56" stroke-width="0.204932"/>
        <ellipse cx="16.0601" cy="58.8128" rx="3.29599" ry="4.01325" transform="rotate(-3 16.0601 58.8128)" fill="#D3919F"/>
        <circle cx="18.0646" cy="50.6401" r="2.66411" transform="rotate(142.058 18.0646 50.6401)" fill="#222524"/>
        <ellipse cx="17.8894" cy="50.344" rx="0.866099" ry="1.36463" transform="rotate(170.134 17.8894 50.344)" fill="#D6867E"/>
        <ellipse cx="17.6254" cy="49.9566" rx="0.316641" ry="0.774819" transform="rotate(172.996 17.6254 49.9566)" fill="#222524"/>
        <path d="M9.59434 56.4838C9.35901 57.2143 9.15712 56.9513 9.03059 56.8211L8.80142 54.0799C8.79648 53.9433 8.94797 52.9606 7.91153 51.7837C7.08237 50.8421 5.86628 50.2833 5.36187 50.1217L23.9668 46.838L21.0562 53.6257L18.8634 53.5525C19.5032 51.8374 20.5639 48.4733 19.6885 48.7381C18.5943 49.0691 13.2272 51.0775 12.2864 51.4005C11.3457 51.7234 11.3959 52.0286 11.1822 52.5186C10.9684 53.0086 9.82967 55.7532 9.59434 56.4838Z" fill="#7D8AA7" stroke="#526182" stroke-width="0.324809"/>
        <path d="M14.8107 49.319C11.2758 50.0686 6.63349 50.2434 5.367 50.2243C5.77556 49.536 7.37346 47.7866 10.4967 46.2958C14.4007 44.4324 16.325 44.6052 20.7376 44.2884C25.1502 43.9717 27.2225 45.0089 28.1738 45.5404C29.1251 46.072 29.3369 46.1977 28.2927 47.8086C27.4573 49.0974 24.0244 51.8573 22.4123 53.0761L18.9674 53.2567C19.4557 52.8948 20.5372 52.0799 20.9559 51.716C21.4793 51.261 22.379 49.5038 22.5875 48.5865C22.7959 47.6692 21.9459 47.7651 20.4379 48.0322C18.9299 48.2993 18.3455 48.5694 14.8107 49.319Z" fill="#D5DAF0" stroke="#526182" stroke-width="0.324809"/>
        <mask id="mask4_40000347_57372" style="mask-type:alpha" maskUnits="userSpaceOnUse" x="21" y="44" width="16" height="23">
          <path d="M26.736 66.414C27.6658 66.7379 28.6727 66.8905 29.7166 66.8358C32.9275 66.6675 35.5843 64.5855 36.6398 61.753C36.2236 53.8126 31.1198 47.8826 28.62 45.9102L23.8138 44.2639L21.3255 61.0678L26.736 66.414Z" fill="#EADFE7"/>
        </mask>
        <g mask="url(#mask4_40000347_57372)">
          <path d="M36.1703 66.3033C36.025 64.6179 34.4606 57.5004 33.8397 56.4213C32.7998 54.6138 32.0638 54.4056 32.0961 54.4781C33.007 56.739 34.2836 63.3239 33.1704 67.1445" stroke="#C068AD" stroke-width="0.819728"/>
        </g>
        <path d="M14.651 54.4406C13.9815 53.7403 13.3831 52.4378 13.2505 51.5384C13.8497 51.7692 15.2462 52.2889 16.0382 52.521C17.0281 52.8111 21.0556 52.9763 23.2932 52.9274C25.5309 52.8786 30.1277 51.8339 30.6537 51.755C31.1797 51.6762 31.1428 51.9517 31.0539 52.2129C30.965 52.4741 30.7217 52.7262 29.9998 53.6362C29.2779 54.5462 24.8415 57.3439 24.2957 57.3725C23.75 57.4011 23.6755 57.6102 23.564 58.0949C23.4526 58.5795 22.4514 60.6841 22.2977 61.342C22.1441 61.9999 20.645 62.7625 20.0651 62.7929C19.4853 62.8233 15.1014 63.036 13.2255 62.8093C11.3497 62.5827 11.3884 61.6914 11.3759 61.4527L11.2937 59.8837C11.5004 60.0211 11.9388 60.445 12.0384 61.0417C12.163 61.7877 12.6109 61.8497 12.8497 61.8372C13.0884 61.8247 13.8873 61.7315 14.4412 61.5315C17.8505 60.0189 18.7386 58.3649 18.7019 57.6656C18.2308 57.4851 15.3204 55.1409 14.651 54.4406Z" fill="#D5DAF0" stroke="#526182" stroke-width="0.324809"/>
      </g>
    </g>
  </g>
  <defs>
    <filter id="filter0_d_40000347_57372" x="-7" y="-3.49527" width="66.7394" height="111.386" filterUnits="userSpaceOnUse" color-interpolation-filters="sRGB">
      <feFlood flood-opacity="0" result="BackgroundImageFix"/>
      <feColorMatrix in="SourceAlpha" type="matrix" values="0 0 0 0 0 0 0 0 0 0 0 0 0 0 0 0 0 0 127 0" result="hardAlpha"/>
      <feOffset dx="6" dy="-4"/>
      <feGaussianBlur stdDeviation="2.57527"/>
      <feComposite in2="hardAlpha" operator="out"/>
      <feColorMatrix type="matrix" values="0 0 0 0 0.784314 0 0 0 0 0.843137 0 0 0 0 0.909804 0 0 0 0.25 0"/>
      <feBlend mode="normal" in2="BackgroundImageFix" result="effect1_dropShadow_40000347_57372"/>
      <feBlend mode="normal" in="SourceGraphic" in2="effect1_dropShadow_40000347_57372" result="shape"/>
    </filter>
    <filter id="filter1_d_40000347_57372" x="-35.4919" y="5.65527" width="114.747" height="157.778" filterUnits="userSpaceOnUse" color-interpolation-filters="sRGB">
      <feFlood flood-opacity="0" result="BackgroundImageFix"/>
      <feColorMatrix in="SourceAlpha" type="matrix" values="0 0 0 0 0 0 0 0 0 0 0 0 0 0 0 0 0 0 127 0" result="hardAlpha"/>
      <feOffset dy="30.6667"/>
      <feGaussianBlur stdDeviation="15.3333"/>
      <feComposite in2="hardAlpha" operator="out"/>
      <feColorMatrix type="matrix" values="0 0 0 0 0.784314 0 0 0 0 0.843137 0 0 0 0 0.909804 0 0 0 0.25 0"/>
      <feBlend mode="normal" in2="BackgroundImageFix" result="effect1_dropShadow_40000347_57372"/>
      <feBlend mode="normal" in="SourceGraphic" in2="effect1_dropShadow_40000347_57372" result="shape"/>
    </filter>
    <linearGradient id="paint0_linear_40000347_57372" x1="20.2365" y1="23.1177" x2="20.2365" y2="97.3366" gradientUnits="userSpaceOnUse">
      <stop stop-color="#A36BBA"/>
      <stop offset="0.178715" stop-color="#B7669D"/>
      <stop offset="0.346152" stop-color="#F87F97"/>
      <stop offset="0.547474" stop-color="#E48177"/>
      <stop offset="1" stop-color="#D5D7DC"/>
    </linearGradient>
    <clipPath id="clip0_40000347_57372">
      <rect width="48" height="80" fill="white"/>
    </clipPath>
    <clipPath id="clip1_40000347_57372">
      <rect width="48.559" height="74.2189" fill="white" transform="translate(-4.04297 23.1177) rotate(-3)"/>
    </clipPath>
  </defs>
</svg>
