<svg width="52" height="104" viewBox="0 0 52 104" fill="none" xmlns="http://www.w3.org/2000/svg">
<g clip-path="url(#clip0_40000850_50765)">
<g filter="url(#filter0_d_40000850_50765)">
<rect x="-7" y="10.6289" width="50.2178" height="97.2445" rx="2.68724" transform="rotate(-3 -7 10.6289)" fill="#A158ED"/>
<rect x="-6.34961" y="23.041" width="50.2178" height="3.02315" transform="rotate(-3 -6.34961 23.041)" fill="white"/>
<rect x="-6.29688" y="24.0469" width="50.2178" height="1.00772" transform="rotate(-3 -6.29688 24.0469)" fill="#61B9F5"/>
<rect x="-6.19238" y="26.0586" width="50.2178" height="76.7543" transform="rotate(-3 -6.19238 26.0586)" fill="#4D6ECB"/>
<path d="M-4.41602 59.9395L46.5285 72.4901L47.513 91.275L-2.63605 93.9032L-4.41602 59.9395Z" fill="#65612E"/>
<path d="M13.5701 88.345C5.52525 87.0175 -1.11642 81.3783 -3.43164 78.7246L-2.17468 102.709L47.9743 100.081L47.1305 83.9794C39.2957 85.9877 21.615 89.6725 13.5701 88.345Z" fill="#CDB389"/>
<path d="M12.1507 61.3502C11.0068 60.014 11.9486 57.4947 12.1857 55.8715C12.5544 54.0265 12.0735 53.7296 11.9837 52.016C11.8939 50.3025 9.35256 46.8919 7.43653 45.1666C5.5205 43.4414 5.01354 41.9646 6.23694 40.7192C7.46035 39.4738 12.7744 44.5647 14.5778 46.1885C16.3811 47.8122 17.5423 47.4291 19.6505 46.6743C21.7588 45.9195 20.6438 41.038 20.5484 39.2174C20.453 37.3968 20.0475 35.8072 21.8569 35.4976C23.6663 35.188 24.2121 39.455 25.2709 43.2655C26.3297 47.076 27.7159 48.9364 28.6344 50.0695C29.5529 51.2027 29.1806 52.2961 29.0113 53.1641C28.8421 54.032 29.1461 55.7343 29.4164 56.7941C29.6867 57.8538 30.0529 58.6937 30.5542 60.0635C31.0556 61.4333 31.5854 61.2981 32.2729 62.1212C32.9604 62.9443 32.5769 63.8235 32.3908 64.3702C32.2046 64.9169 31.7141 65.8017 31.325 66.5739C30.9359 67.346 30.4285 67.9095 30.2536 68.6704C30.0787 69.4313 29.047 70.2371 28.1902 70.282C27.3335 70.3269 26.3865 70.6987 25.2365 71.2959C24.0865 71.8931 21.635 70.196 21.2969 69.8915C20.9587 69.5871 16.4167 64.8852 15.5151 64.0733C14.6134 63.2615 13.2946 62.6863 12.1507 61.3502Z" fill="#F29600" stroke="black" stroke-width="0.335905"/>
<path d="M19.0981 65.9133C17.9948 65.7188 17.1873 64.752 15.3646 63.6703L15.3734 63.838L19.0139 67.5154L20.6069 69.0297L21.763 70.2304L23.237 71.0782L24.9362 71.4096L26.0883 70.9288L27.4081 70.4391L28.825 70.1967L29.88 69.4687L30.3348 68.5198L29.9994 68.5374L30.7102 67.6593L32.3218 64.7157L32.6576 63.1003L32.2695 62.1116L31.5634 61.4759L30.8486 60.6724L30.2619 59.1054L29.3929 56.9646L29.0889 54.3737L29.0318 53.2835L29.2661 51.3371L28.8823 50.4322L27.4351 48.4898L26.1336 46.1194L25.3751 42.8796L23.8623 38.0815L23.1786 36.2674C22.1726 34.7223 20.4678 35.8881 20.517 36.8273C20.5785 38.0014 20.68 38.3324 20.5518 39.096C20.4236 39.8595 21.0938 43.0199 21.1422 43.9423C21.1905 44.8648 20.7269 45.6459 20.4178 46.1666L20.4178 46.1667C19.8606 47.1055 18.5374 47.1902 18.1181 47.2122C17.7826 47.2298 16.6968 47.3708 16.1936 47.3971C16.3952 47.4987 16.8336 47.7336 16.9748 47.8608C17.1513 48.0197 19.283 48.5807 20.4746 48.8546C21.6662 49.1285 24.928 48.7894 25.7135 49.3369C26.4991 49.8844 27.9683 52.246 28.0386 53.5878C28.1089 54.9296 28.9205 57.578 29.0395 58.2445C29.1585 58.911 29.5555 60.0674 30.3893 61.5374C31.2232 63.0073 31.1306 62.844 30.4992 63.6339C29.8679 64.4238 29.1263 64.715 28.3229 65.4298C27.5194 66.1446 26.7031 65.0101 25.7719 64.8908C24.8406 64.7714 24.6993 65.2833 24.1298 65.6496C23.5604 66.0158 23.1055 66.9646 22.3376 66.7526C21.5697 66.5405 20.2015 66.1077 19.0981 65.9133Z" fill="#D7890A"/>
<path d="M12.1507 61.3502C11.0068 60.014 11.9486 57.4947 12.1857 55.8715C12.5544 54.0265 12.0735 53.7296 11.9837 52.016C11.8939 50.3025 9.35256 46.8919 7.43653 45.1666C5.5205 43.4414 5.01354 41.9646 6.23694 40.7192C7.46035 39.4738 12.7744 44.5647 14.5778 46.1885C16.3811 47.8122 17.5423 47.4291 19.6505 46.6743C21.7588 45.9195 20.6438 41.038 20.5484 39.2174C20.453 37.3968 20.0475 35.8072 21.8569 35.4976C23.6663 35.188 24.2121 39.455 25.2709 43.2655C26.3297 47.076 27.7159 48.9364 28.6344 50.0695C29.5529 51.2027 29.1806 52.2961 29.0113 53.1641C28.8421 54.032 29.1461 55.7343 29.4164 56.7941C29.6867 57.8538 30.0529 58.6937 30.5542 60.0635C31.0556 61.4333 31.5854 61.2981 32.2729 62.1212C32.9604 62.9443 32.5769 63.8235 32.3908 64.3702C32.2046 64.9169 31.7141 65.8017 31.325 66.5739C30.9359 67.346 30.4285 67.9095 30.2536 68.6704C30.0787 69.4313 29.047 70.2371 28.1902 70.282C27.3335 70.3269 26.3865 70.6987 25.2365 71.2959C24.0865 71.8931 21.635 70.196 21.2969 69.8915C20.9587 69.5871 16.4167 64.8852 15.5151 64.0733C14.6134 63.2615 13.2946 62.6863 12.1507 61.3502Z" stroke="black" stroke-width="0.335905"/>
<path d="M15.5908 46.8867C16.1487 47.287 16.7179 47.9015 17.1463 47.8791C17.5747 47.8566 19.0118 48.6404 19.8008 49.3508" stroke="black" stroke-width="0.335905"/>
<path d="M20.9961 68.0819C21.0354 68.8315 21.554 68.4822 21.757 68.2568L21.9806 67.9229C21.8065 67.6396 21.6149 67.3194 21.3684 66.9885C21.2252 66.7964 21.0354 66.5884 20.8174 66.373C20.8639 66.6927 20.9647 67.4821 20.9961 68.0819Z" fill="white"/>
<path d="M23.3437 55.5017C23.5316 55.6708 23.8937 56.1602 23.8394 56.7644M22.5365 60.5913C22.9025 60.1426 23.6417 58.9225 23.6702 57.6324M27.0916 57.3457C27.039 57.0263 26.9904 56.2341 27.216 55.6209M23.8937 65.997C24.1926 65.5518 24.8015 64.8756 25.337 64.8475C25.8724 64.8194 26.1937 64.8026 26.5262 64.9999C26.8587 65.1973 27.2927 65.2819 27.7211 65.2595C28.0638 65.2415 28.4276 65.0793 28.5666 65.0004M25.1335 67.1133C25.1993 67.0025 25.3951 66.7774 25.6522 66.764C25.9735 66.7471 26.306 66.9445 26.4187 67.046M30.5336 65.649L31.5485 64.522M15.1358 60.7644C15.175 61.514 15.1353 62.8048 16.0089 63.0812C16.8825 63.3576 17.3109 63.3351 18.0998 64.0455C18.7259 64.6092 19.9799 65.5456 20.8174 66.373M30.6403 67.6838C30.1385 68.3545 29.4281 69.1434 28.7968 69.3913C28.1654 69.6392 27.3821 69.0359 26.7227 68.7483C26.0633 68.4607 25.5446 68.81 25.0091 68.8381C24.4737 68.8661 23.6281 69.1252 22.9743 68.9447C22.5531 68.8284 22.2957 68.4361 21.9806 67.9229M20.8174 66.373C21.0354 66.5884 21.2252 66.7964 21.3684 66.9885C21.6149 67.3194 21.8065 67.6396 21.9806 67.9229M20.8174 66.373C20.8639 66.6927 20.9647 67.4821 20.9961 68.0819C21.0354 68.8315 21.554 68.4822 21.757 68.2568L21.9806 67.9229" stroke="black" stroke-width="0.335905"/>
<path d="M16.0332 55.3477C16.4352 55.5056 17.5741 56.0616 18.9131 57.0223C20.5869 58.2233 21.2743 59.0464 21.9899 60.4049" stroke="black" stroke-width="0.335905"/>
<path d="M16.252 55.4434L16.4372 58.9775C17.0063 59.592 20.3599 60.0606 21.7522 59.9876C20.1565 57.408 17.4205 55.8833 16.252 55.4434Z" fill="white" stroke="black" stroke-width="0.335905"/>
<path d="M19.1678 59.8009C18.3563 59.0702 18.2139 57.3094 18.2442 56.5203C20.1062 57.6254 21.3606 59.2922 21.755 59.9875C21.073 59.9516 19.6007 59.8641 19.1678 59.8009Z" fill="#008086" stroke="black" stroke-width="0.335905"/>
<circle cx="19.4034" cy="58.1773" r="0.536211" transform="rotate(-3 19.4034 58.1773)" fill="white"/>
<circle cx="19.7524" cy="58.6968" r="0.643453" transform="rotate(-3 19.7524 58.6968)" fill="black"/>
<path d="M27.7296 57.2048C27.6619 57.552 27.7687 58.6346 27.8306 59.1326C28.638 58.1452 29.0918 57.2408 29.2177 56.9121L28.9591 54.0261C28.5775 54.941 27.7973 56.8576 27.7296 57.2048Z" fill="white" stroke="black" stroke-width="0.335905"/>
<path d="M28.7311 57.9042C28.8441 56.7814 28.6133 55.6552 28.4837 55.2324L27.728 57.2051L27.7448 57.5263L27.8346 59.2399C28.0019 59.0163 28.4154 58.4362 28.7311 57.9042Z" fill="#008086" stroke="black" stroke-width="0.335905"/>
<path d="M28.2869 57.6054C28.3004 57.8624 27.943 57.874 27.7627 57.8476L27.7234 57.098C27.7854 56.9157 27.9523 56.549 28.1237 56.54C28.3379 56.5288 28.2701 57.2841 28.2869 57.6054Z" fill="black" stroke="black" stroke-width="0.335905"/>
<rect x="-7" y="10.6211" width="50.0915" height="97" rx="2.68048" transform="rotate(-3 -7 10.6211)" fill="#56DEFF"/>
<rect x="-6.35156" y="23.002" width="50.0915" height="3.01554" transform="rotate(-3 -6.35156 23.002)" fill="white"/>
<rect x="-6.29883" y="24.0059" width="50.0915" height="1.00518" transform="rotate(-3 -6.29883 24.0059)" fill="#61B9F5"/>
<path d="M16.7144 72.1931C18.5459 71.9293 19.5585 72.044 21.7421 72.0973L29.8781 72.0903C31.089 71.1881 32.5363 68.3945 32.5118 67.9261C32.4811 67.3405 32.1779 64.7561 29.325 64.7378C26.4721 64.7196 24.984 65.1331 20.9688 65.3436C16.9535 65.554 12.3925 64.9544 10.7415 65.4603C9.09038 65.9662 10.164 68.8456 10.5027 70.5055C10.8413 72.1653 11.8714 72.6146 12.7916 72.5664C13.7117 72.5182 14.8828 72.4568 16.7144 72.1931Z" fill="#560D5F" stroke="black" stroke-width="0.16753"/>
<path d="M18.5139 76.1236C13.6149 74.8369 13.1785 67.1484 13.5726 63.465C16.016 63.6725 22.3478 63.8103 28.1277 62.7022C29.917 74.4355 24.8582 75.5394 24.2858 75.8211C23.8278 76.0464 23.5461 76.1115 23.4624 76.1159C23.5283 76.8394 23.2251 78.3092 21.4851 78.4004C19.7452 78.4915 19.3458 77.0586 19.3635 76.3307C19.1933 76.2837 18.7851 76.1764 18.5139 76.1236Z" fill="#24D7ED" stroke="black" stroke-width="0.16753"/>
<path d="M18.5139 76.1236C13.6149 74.8369 13.1785 67.1484 13.5726 63.465C16.016 63.6725 22.3478 63.8103 28.1277 62.7022C29.917 74.4355 24.8582 75.5394 24.2858 75.8211C23.8278 76.0464 23.5461 76.1115 23.4624 76.1159C23.5283 76.8394 23.2251 78.3092 21.4851 78.4004C19.7452 78.4915 19.3458 77.0586 19.3635 76.3307C19.1933 76.2837 18.7851 76.1764 18.5139 76.1236Z" fill="#43C3E7" stroke="black" stroke-width="0.33506"/>
<path d="M27.3689 69.0341C27.5764 66.5907 26.9251 65.3666 26.4849 64.9703L22.13 68.3021L22.8912 70.0237C24.1945 69.8156 26.9145 69.3263 27.3689 69.0341Z" fill="white" stroke="black" stroke-width="0.16753"/>
<path d="M14.9094 69.7699C14.3421 66.9477 15.0423 65.9044 15.5267 65.5435L19.8053 68.7584L19.8754 70.0968C18.4092 70.9285 15.3632 72.0276 14.9094 69.7699Z" fill="white" stroke="black" stroke-width="0.33506"/>
<path d="M16.5438 65.7432C16.8184 65.7289 17.101 65.9395 17.3302 66.3435C17.5567 66.7427 17.7162 67.3082 17.7495 67.9448C17.7829 68.5813 17.6834 69.1606 17.4999 69.5812C17.3142 70.0067 17.055 70.246 16.7805 70.2604C16.5059 70.2748 16.2224 70.0642 15.9932 69.6602C15.7667 69.261 15.6082 68.6953 15.5748 68.0588C15.5414 67.4224 15.6401 66.8431 15.8235 66.4224C16.0092 65.9966 16.2692 65.7576 16.5438 65.7432Z" fill="#C92F28" stroke="black" stroke-width="0.16753"/>
<path d="M25.076 65.2959C25.3506 65.2816 25.6332 65.4922 25.8624 65.8962C26.0889 66.2954 26.2484 66.861 26.2818 67.4976C26.3151 68.1341 26.2156 68.7133 26.0321 69.134C25.8464 69.5595 25.5873 69.7987 25.3128 69.8132C25.0382 69.8276 24.7546 69.6169 24.5254 69.2129C24.299 68.8138 24.1404 68.248 24.107 67.6115C24.0737 66.9751 24.1723 66.3959 24.3557 65.9752C24.5414 65.5493 24.8014 65.3103 25.076 65.2959Z" fill="#C92F28" stroke="black" stroke-width="0.16753"/>
<ellipse cx="16.724" cy="67.5776" rx="0.251295" ry="0.753886" transform="rotate(-3 16.724 67.5776)" fill="black"/>
<ellipse cx="25.0892" cy="67.1401" rx="0.251295" ry="0.753886" transform="rotate(-3 25.0892 67.1401)" fill="black"/>
<path d="M13.7254 48.7784C17.7121 49.6258 18.3261 48.5373 19.9155 48.454C20.7783 48.912 23.8909 49.0844 26.1893 48.1252C28.4876 47.166 29.6321 48.1964 29.9707 49.8562C30.3093 51.5161 30.7802 52.498 32.5102 53.4977C36.3709 55.1408 36.155 55.8231 36.3702 58.3282C36.5853 60.8334 35.6605 62.3917 34.0094 62.8976C32.3583 63.4035 32.3053 63.9935 31.7413 66.0362C31.1773 68.0788 30.2484 67.9598 29.4912 67.9156C28.7339 67.8714 28.338 66.7178 26.1587 66.7481C24.4152 66.7724 21.8836 67.3357 20.8357 67.6143C18.5817 67.285 13.937 66.9021 13.0563 68.022C11.9553 69.4217 11.0176 69.1354 10.2958 68.1666C9.574 67.1979 9.2971 65.1154 8.42991 64.5737C5.04006 63.9126 4.43733 62.0149 4.35842 60.5092C4.27951 59.0035 4.14799 56.494 6.60489 55.3587C9.06179 54.2233 9.51109 53.1933 9.70505 52.0927C9.89901 50.992 9.73858 47.931 13.7254 48.7784Z" fill="#EAD0FE" stroke="black" stroke-width="0.33506"/>
<path d="M11.9667 58.4334C12.5563 60.0801 16.4875 61.4678 20.67 61.2486C32.0114 59.9832 29.1991 55.9366 27.6937 54.4217C26.1884 52.9069 25.3742 51.7752 24.1241 50.3309C23.1241 49.1754 20.7202 47.2659 19.6432 46.4556C18.2825 47.7013 15.4298 50.5685 14.9047 52.0723C14.2483 53.952 11.3772 56.7867 11.9667 58.4334Z" fill="#AD6BB1"/>
<path d="M30.7124 60.8066C29.2286 61.3037 28.6606 61.669 27.1984 64.1782C26.802 64.6183 26.5164 65.8915 28.5448 67.4628C31.0803 69.4269 32.2039 65.2579 32.1688 64.5887C32.1337 63.9195 32.156 62.744 33.5342 61.833C36.0748 60.6933 37.3211 58.8665 36.4587 56.8147C35.5962 54.7629 33.4918 54.6215 31.3699 54.1456C29.6723 53.7648 28.9109 51.5064 28.7423 50.4248C28.5736 50.4057 28.2377 50.7197 28.2445 52.1285C28.2529 53.8895 30.3967 54.7838 32.175 56.7037C33.9532 58.6236 32.1962 60.3094 30.7124 60.8066Z" fill="#AD6BB1"/>
<path d="M6.56973 56.283C5.74638 56.5778 5.03737 57.4537 4.28416 59.0869C4.23522 61.3542 5.10241 61.896 6.72684 62.4819C8.35127 63.0678 9.23161 63.8604 9.43837 64.6045C9.64512 65.3486 9.82083 67.1009 10.0276 67.845C10.2343 68.5891 11.9687 69.6725 13.2195 67.9293C14.4632 66.196 12.9863 63.1952 12.6928 62.5987L12.6879 62.5889C12.4063 62.0165 11.5566 61.8094 9.70318 61.6548C7.20279 60.3599 8.02212 58.3877 10.2723 56.5083C12.5224 54.6289 11.9989 52.6432 11.9551 51.8067C11.9113 50.9702 11.4225 51.2475 11.3564 51.5865C11.2903 51.9255 11.1493 52.4361 10.6295 53.7216C10.1097 55.007 7.39308 55.9882 6.56973 56.283Z" fill="#AD6BB1"/>
<path d="M13.2314 72.9613L9.63884 73.2335C8.31138 70.3113 5.98842 64.3993 7.31631 64.1284C8.97616 63.7898 9.37214 64.9433 10.2342 68.5889C10.9239 71.5053 12.5197 72.719 13.2314 72.9613Z" fill="#B0CCE0" stroke="black" stroke-width="0.33506"/>
<path d="M29.3253 72.1187L32.9267 72.0139C33.9414 68.969 35.6337 62.8465 34.2848 62.7159C32.5986 62.5526 32.3254 63.7413 31.8491 67.457C31.468 70.4295 30.0078 71.8034 29.3253 72.1187Z" fill="#B0CCE0" stroke="black" stroke-width="0.33506"/>
<path d="M20.7147 60.4904C20.5656 57.6463 18.2545 56.7608 17.418 56.8047L18.3371 61.5377L19.8727 65.2318L21.1406 65.417L23.5055 62.525L22.8552 56.5197C22.0906 56.8674 20.5919 58.1482 20.7147 60.4904Z" fill="#CEBEDC" stroke="black" stroke-width="0.33506"/>
<path d="M20.9293 64.5892L20.8373 62.8325M20.8373 62.8325L18.9447 60.3314L18.4844 51.5481L20.1358 49.4485M20.8373 62.8325L22.2907 60.1561L21.8217 51.2055L20.1358 49.4485M20.1358 49.4485L20.0526 47.8591" stroke="black" stroke-width="0.16753"/>
<path d="M19.2166 44.2979C19.7199 44.0531 20.1487 44.0566 20.5461 44.2136C20.9369 44.3681 21.2928 44.6694 21.6584 45.0061C22.0275 45.3459 22.4098 45.7242 22.8623 46.0529C24.6952 47.3841 25.883 48.6863 25.9686 50.3171C26.0354 51.5919 26.0767 58.79 26.0892 62.2265L26.0898 62.2568L26.0704 62.2793L24.1595 64.5905C24.8893 63.8274 25.6815 63.0145 26.4327 62.2691C27.1501 61.5572 27.8316 60.9048 28.3882 60.4152C28.6662 60.1706 28.9152 59.9656 29.1213 59.8135C29.324 59.6641 29.496 59.558 29.6195 59.5224C29.8875 59.4456 30.095 59.3916 30.2528 59.367C30.4071 59.343 30.5339 59.344 30.6299 59.3961C30.7322 59.4519 30.7781 59.5538 30.8027 59.6716C30.827 59.7882 30.8345 59.9421 30.8442 60.1271C30.8649 60.5231 30.7352 60.9643 30.5435 61.3682C30.3513 61.7731 30.0928 62.1495 29.8496 62.4196C29.6553 62.6351 29.0911 63.1574 28.4703 63.7182C27.8474 64.2808 27.1614 64.8881 26.7203 65.2748L22.3387 69.6106L22.3154 69.6334L20.245 69.7419L20.2205 69.7226C19.0982 68.8449 17.3711 67.5015 15.8384 66.3233C14.3029 65.1429 12.9675 64.1327 12.6251 63.9188C11.739 63.365 10.9147 62.2171 10.523 61.2195C10.4253 60.9708 10.3998 60.7797 10.4587 60.6459C10.5232 60.5001 10.67 60.4562 10.8173 60.454C10.9661 60.4519 11.1462 60.4899 11.3254 60.5398C11.5053 60.5899 11.6962 60.655 11.8642 60.7081C12.0112 60.7547 12.2538 60.8827 12.5424 61.053C12.8341 61.2251 13.1814 61.4451 13.5415 61.6813C14.2619 62.1537 15.0372 62.6928 15.5316 63.0448L15.5367 63.0484L17.8232 64.9372C17.5113 64.637 17.1991 64.334 16.906 64.0426C16.4357 63.5749 16.0104 63.1365 15.7011 62.7895C15.5466 62.6161 15.4198 62.4637 15.3304 62.3415C15.2859 62.2805 15.2491 62.2257 15.2231 62.1779C15.1987 62.133 15.1781 62.0835 15.1757 62.0386C15.1624 61.7872 14.9537 59.4112 14.738 56.8953C14.5224 54.3811 14.2999 51.7275 14.2582 50.9308C14.2372 50.5297 14.2517 50.2092 14.3325 49.905C14.4135 49.6004 14.5593 49.3164 14.7918 48.9851C15.2533 48.3279 16.0754 47.4589 17.4532 45.8406C18.1469 45.0258 18.7184 44.5405 19.2166 44.2979ZM19.9697 47.863L20.0513 49.4195L18.4184 51.496L18.3992 51.5205L18.8625 60.3609L18.8782 60.3816L20.7558 62.8629L20.8465 64.593L21.0132 64.5842L20.9224 62.8503L22.3645 60.196L22.3761 60.1748L21.9042 51.1696L21.8825 51.1473L20.2181 49.4127L20.1365 47.8543L19.9697 47.863Z" fill="#24D7ED"/>
<path d="M19.2166 44.2979L19.1434 44.1473L19.1433 44.1473L19.2166 44.2979ZM20.5461 44.2136L20.6077 44.0578L20.6076 44.0578L20.5461 44.2136ZM21.6584 45.0061L21.7719 44.8828L21.7719 44.8828L21.6584 45.0061ZM22.8623 46.0529L22.7639 46.1884L22.7639 46.1884L22.8623 46.0529ZM25.9686 50.3171L26.1359 50.3083L26.1359 50.3083L25.9686 50.3171ZM26.0892 62.2265L25.9216 62.2271L25.9217 62.2298L26.0892 62.2265ZM26.0898 62.2568L26.2169 62.3659L26.2586 62.3174L26.2573 62.2534L26.0898 62.2568ZM26.0704 62.2793L25.9433 62.1701L25.9413 62.1725L26.0704 62.2793ZM24.1595 64.5905L24.0304 64.4837L24.2805 64.7063L24.1595 64.5905ZM26.4327 62.2691L26.3147 62.1502L26.3147 62.1502L26.4327 62.2691ZM28.3882 60.4152L28.2775 60.2894L28.2775 60.2894L28.3882 60.4152ZM29.1213 59.8135L29.0219 59.6787L29.0219 59.6787L29.1213 59.8135ZM29.6195 59.5224L29.5733 59.3613L29.5731 59.3614L29.6195 59.5224ZM30.2528 59.367L30.2271 59.2014L30.227 59.2014L30.2528 59.367ZM30.6299 59.3961L30.7101 59.249L30.7098 59.2489L30.6299 59.3961ZM30.8027 59.6716L30.9668 59.6375L30.9667 59.6374L30.8027 59.6716ZM30.8442 60.1271L31.0115 60.1183L31.0115 60.1183L30.8442 60.1271ZM30.5435 61.3682L30.6949 61.44L30.6949 61.44L30.5435 61.3682ZM29.8496 62.4196L29.974 62.5317L29.9741 62.5317L29.8496 62.4196ZM28.4703 63.7182L28.5826 63.8425L28.4703 63.7182ZM26.7203 65.2748L26.6097 65.1486L26.6024 65.1557L26.7203 65.2748ZM22.3387 69.6106L22.4558 69.7304L22.4565 69.7297L22.3387 69.6106ZM22.3154 69.6334L22.3242 69.8007L22.3873 69.7973L22.4325 69.7532L22.3154 69.6334ZM20.245 69.7419L20.1414 69.8735L20.1909 69.9125L20.2538 69.9092L20.245 69.7419ZM20.2205 69.7226L20.3241 69.5909L20.3237 69.5906L20.2205 69.7226ZM15.8384 66.3233L15.9405 66.1904L15.9405 66.1904L15.8384 66.3233ZM12.6251 63.9188L12.5363 64.0609L12.5364 64.0609L12.6251 63.9188ZM10.523 61.2195L10.367 61.2807L10.367 61.2807L10.523 61.2195ZM10.4587 60.6459L10.3055 60.5781L10.3053 60.5785L10.4587 60.6459ZM10.8173 60.454L10.8149 60.2865L10.8148 60.2865L10.8173 60.454ZM11.3254 60.5398L11.3703 60.3784L11.3703 60.3784L11.3254 60.5398ZM11.8642 60.7081L11.9149 60.5484L11.9148 60.5484L11.8642 60.7081ZM12.5424 61.053L12.6275 60.9087L12.6275 60.9087L12.5424 61.053ZM13.5415 61.6813L13.6334 61.5412L13.6334 61.5412L13.5415 61.6813ZM15.5316 63.0448L15.6293 62.9087L15.6288 62.9083L15.5316 63.0448ZM15.5367 63.0484L15.6436 62.919L15.6343 62.9123L15.5367 63.0484ZM17.8232 64.9372L17.7165 65.0664L17.9394 64.8165L17.8232 64.9372ZM16.906 64.0426L16.7879 64.1614L16.7879 64.1614L16.906 64.0426ZM15.7011 62.7895L15.576 62.9009L15.576 62.9009L15.7011 62.7895ZM15.3304 62.3415L15.1952 62.4403L15.1952 62.4403L15.3304 62.3415ZM15.2231 62.1779L15.0759 62.2579L15.0759 62.2579L15.2231 62.1779ZM15.1757 62.0386L15.0084 62.0474L15.0084 62.0476L15.1757 62.0386ZM14.738 56.8953L14.571 56.9096L14.738 56.8953ZM14.2582 50.9308L14.0909 50.9395L14.0909 50.9395L14.2582 50.9308ZM14.3325 49.905L14.1706 49.8619L14.1706 49.862L14.3325 49.905ZM14.7918 48.9851L14.6547 48.8889L14.6547 48.8889L14.7918 48.9851ZM17.4532 45.8406L17.3256 45.732L17.3256 45.732L17.4532 45.8406ZM19.9697 47.863L19.9609 47.6957L19.7936 47.7045L19.8024 47.8718L19.9697 47.863ZM20.0513 49.4195L20.183 49.523L20.2219 49.4735L20.2186 49.4107L20.0513 49.4195ZM18.4184 51.496L18.5501 51.5996L18.5501 51.5996L18.4184 51.496ZM18.3992 51.5205L18.2675 51.417L18.2286 51.4664L18.2319 51.5293L18.3992 51.5205ZM18.8625 60.3609L18.6952 60.3697L18.6979 60.4213L18.7292 60.4624L18.8625 60.3609ZM18.8782 60.3816L19.0118 60.2805L19.0115 60.2801L18.8782 60.3816ZM20.7558 62.8629L20.9231 62.8542L20.9204 62.8028L20.8894 62.7618L20.7558 62.8629ZM20.8465 64.593L20.6792 64.6017L20.6879 64.769L20.8552 64.7603L20.8465 64.593ZM21.0132 64.5842L21.022 64.7515L21.1893 64.7428L21.1805 64.5755L21.0132 64.5842ZM20.9224 62.8503L20.7752 62.7703L20.7526 62.8118L20.7551 62.8591L20.9224 62.8503ZM22.3645 60.196L22.2177 60.1154L22.2173 60.116L22.3645 60.196ZM22.3761 60.1748L22.523 60.2554L22.5459 60.2137L22.5434 60.1661L22.3761 60.1748ZM21.9042 51.1696L22.0715 51.1608L22.0682 51.098L22.0243 51.0528L21.9042 51.1696ZM21.8825 51.1473L21.7616 51.2633L21.7623 51.264L21.8825 51.1473ZM20.2181 49.4127L20.0508 49.4214L20.0541 49.4837L20.0972 49.5287L20.2181 49.4127ZM20.1365 47.8543L20.3038 47.8455L20.295 47.6782L20.1277 47.687L20.1365 47.8543ZM19.2166 44.2979L19.2899 44.4486C19.7526 44.2235 20.1326 44.2303 20.4845 44.3694L20.5461 44.2136L20.6076 44.0578C20.1648 43.8828 19.6871 43.8827 19.1434 44.1473L19.2166 44.2979ZM20.5461 44.2136L20.4845 44.3694C20.8429 44.5111 21.1783 44.7917 21.5449 45.1293L21.6584 45.0061L21.7719 44.8828C21.4074 44.5472 21.0309 44.2251 20.6077 44.0578L20.5461 44.2136ZM21.6584 45.0061L21.5449 45.1293C21.9083 45.4639 22.3011 45.8523 22.7639 46.1884L22.8623 46.0529L22.9608 45.9173C22.5185 45.5961 22.1467 45.228 21.7719 44.8828L21.6584 45.0061ZM22.8623 46.0529L22.7639 46.1884C24.593 47.517 25.7201 48.7782 25.8013 50.3258L25.9686 50.3171L26.1359 50.3083C26.046 48.5943 24.7974 47.2513 22.9608 45.9173L22.8623 46.0529ZM25.9686 50.3171L25.8013 50.3258C25.8678 51.5953 25.9092 58.7872 25.9216 62.2271L26.0892 62.2265L26.2567 62.2259C26.2443 58.7927 26.203 51.5885 26.1359 50.3083L25.9686 50.3171ZM26.0892 62.2265L25.9217 62.2298L25.9223 62.2601L26.0898 62.2568L26.2573 62.2534L26.2567 62.2231L26.0892 62.2265ZM26.0898 62.2568L25.9627 62.1476L25.9434 62.1701L26.0704 62.2793L26.1975 62.3885L26.2169 62.3659L26.0898 62.2568ZM26.0704 62.2793L25.9413 62.1725L24.0304 64.4837L24.1595 64.5905L24.2886 64.6972L26.1995 62.386L26.0704 62.2793ZM24.1595 64.5905L24.2805 64.7063C25.0097 63.944 25.8009 63.1321 26.5507 62.388L26.4327 62.2691L26.3147 62.1502C25.5622 62.8969 24.7689 63.7109 24.0384 64.4747L24.1595 64.5905ZM26.4327 62.2691L26.5507 62.388C27.2672 61.677 27.946 61.0273 28.4988 60.541L28.3882 60.4152L28.2775 60.2894C27.7172 60.7823 27.0329 61.4375 26.3147 62.1502L26.4327 62.2691ZM28.3882 60.4152L28.4988 60.541C28.775 60.2981 29.0199 60.0965 29.2208 59.9483L29.1213 59.8135L29.0219 59.6787C28.8104 59.8347 28.5575 60.0431 28.2775 60.2894L28.3882 60.4152ZM29.1213 59.8135L29.2208 59.9483C29.4245 59.7981 29.5746 59.7097 29.6659 59.6834L29.6195 59.5224L29.5731 59.3614C29.4173 59.4063 29.2234 59.5301 29.0219 59.6787L29.1213 59.8135ZM29.6195 59.5224L29.6656 59.6834C29.934 59.6065 30.1324 59.5553 30.2787 59.5325L30.2528 59.367L30.227 59.2014C30.0576 59.2279 29.8409 59.2846 29.5733 59.3613L29.6195 59.5224ZM30.2528 59.367L30.2786 59.5325C30.4269 59.5094 30.5055 59.5192 30.5499 59.5433L30.6299 59.3961L30.7098 59.2489C30.5623 59.1687 30.3873 59.1765 30.2271 59.2014L30.2528 59.367ZM30.6299 59.3961L30.5497 59.5432C30.5875 59.5638 30.6178 59.6055 30.6388 59.7059L30.8027 59.6716L30.9667 59.6374C30.9385 59.502 30.877 59.34 30.7101 59.249L30.6299 59.3961ZM30.8027 59.6716L30.6387 59.7057C30.6597 59.8067 30.6669 59.9451 30.6769 60.1359L30.8442 60.1271L31.0115 60.1183C31.0021 59.9391 30.9943 59.7697 30.9668 59.6375L30.8027 59.6716ZM30.8442 60.1271L30.6769 60.1358C30.6956 60.4928 30.578 60.9049 30.3922 61.2963L30.5435 61.3682L30.6949 61.44C30.8925 61.0237 31.0342 60.5534 31.0115 60.1183L30.8442 60.1271ZM30.5435 61.3682L30.3922 61.2963C30.2069 61.6866 29.9574 62.0494 29.7251 62.3075L29.8496 62.4196L29.9741 62.5317C30.2281 62.2496 30.4956 61.8596 30.6949 61.44L30.5435 61.3682ZM29.8496 62.4196L29.7251 62.3075C29.5381 62.515 28.9818 63.0304 28.358 63.5938L28.4703 63.7182L28.5826 63.8425C29.2004 63.2845 29.7726 62.7553 29.974 62.5317L29.8496 62.4196ZM28.4703 63.7182L28.358 63.5938C27.7358 64.1558 27.0505 64.7626 26.6099 65.1488L26.7203 65.2748L26.8307 65.4008C27.2723 65.0137 27.9589 64.4058 28.5826 63.8425L28.4703 63.7182ZM26.7203 65.2748L26.6024 65.1557L22.2208 69.4915L22.3387 69.6106L22.4565 69.7297L26.8381 65.3939L26.7203 65.2748ZM22.3387 69.6106L22.2215 69.4908L22.1983 69.5136L22.3154 69.6334L22.4325 69.7532L22.4558 69.7304L22.3387 69.6106ZM22.3154 69.6334L22.3066 69.4661L20.2362 69.5746L20.245 69.7419L20.2538 69.9092L22.3242 69.8007L22.3154 69.6334ZM20.245 69.7419L20.3486 69.6102L20.3241 69.5909L20.2205 69.7226L20.117 69.8543L20.1414 69.8735L20.245 69.7419ZM20.2205 69.7226L20.3237 69.5906C19.2012 68.7128 17.4737 67.3691 15.9405 66.1904L15.8384 66.3233L15.7363 66.4561C17.2686 67.634 18.9953 68.9771 20.1173 69.8546L20.2205 69.7226ZM15.8384 66.3233L15.9405 66.1904C14.4098 65.0138 13.0652 63.9962 12.7139 63.7767L12.6251 63.9188L12.5364 64.0609C12.8698 64.2692 14.196 65.2721 15.7363 66.4561L15.8384 66.3233ZM12.6251 63.9188L12.7139 63.7767C11.8663 63.247 11.0614 62.1324 10.6789 61.1582L10.523 61.2195L10.367 61.2807C10.768 62.3018 11.6117 63.483 12.5363 64.0609L12.6251 63.9188ZM10.523 61.2195L10.6789 61.1582C10.5835 60.9153 10.5822 60.7811 10.612 60.7133L10.4587 60.6459L10.3053 60.5785C10.2174 60.7784 10.2671 61.0263 10.367 61.2807L10.523 61.2195ZM10.4587 60.6459L10.6119 60.7137C10.6359 60.6593 10.6942 60.6234 10.8198 60.6215L10.8173 60.454L10.8148 60.2865C10.6458 60.289 10.4105 60.3408 10.3055 60.5781L10.4587 60.6459ZM10.8173 60.454L10.8196 60.6215C10.9433 60.6198 11.1041 60.6521 11.2805 60.7012L11.3254 60.5398L11.3703 60.3784C11.1883 60.3277 10.9889 60.284 10.8149 60.2865L10.8173 60.454ZM11.3254 60.5398L11.2804 60.7012C11.4567 60.7503 11.6406 60.8131 11.8137 60.8679L11.8642 60.7081L11.9148 60.5484C11.7518 60.4968 11.554 60.4296 11.3703 60.3784L11.3254 60.5398ZM11.8642 60.7081L11.8136 60.8678C11.9397 60.9078 12.1665 61.0257 12.4573 61.1973L12.5424 61.053L12.6275 60.9087C12.3411 60.7397 12.0828 60.6017 11.9149 60.5484L11.8642 60.7081ZM12.5424 61.053L12.4573 61.1973C12.7457 61.3675 13.0906 61.5859 13.4496 61.8213L13.5415 61.6813L13.6334 61.5412C13.2722 61.3043 12.9224 61.0827 12.6275 60.9087L12.5424 61.053ZM13.5415 61.6813L13.4496 61.8213C14.1677 62.2923 14.9412 62.8301 15.4344 63.1813L15.5316 63.0448L15.6288 62.9083C15.1332 62.5555 14.3561 62.0151 13.6334 61.5412L13.5415 61.6813ZM15.5316 63.0448L15.4339 63.1809L15.439 63.1846L15.5367 63.0484L15.6343 62.9123L15.6293 62.9087L15.5316 63.0448ZM15.5367 63.0484L15.43 63.1776L17.7165 65.0664L17.8232 64.9372L17.9299 64.8081L15.6434 62.9193L15.5367 63.0484ZM17.8232 64.9372L17.9394 64.8165C17.6277 64.5166 17.3163 64.2143 17.0241 63.9238L16.906 64.0426L16.7879 64.1614C17.0819 64.4538 17.3948 64.7575 17.7071 65.0579L17.8232 64.9372ZM16.906 64.0426L17.0241 63.9238C16.5546 63.4569 16.1321 63.0213 15.8261 62.678L15.7011 62.7895L15.576 62.9009C15.8887 63.2518 16.3168 63.6929 16.7879 64.1614L16.906 64.0426ZM15.7011 62.7895L15.8261 62.678C15.6732 62.5064 15.5504 62.3586 15.4657 62.2426L15.3304 62.3415L15.1952 62.4403C15.2891 62.5689 15.42 62.7259 15.576 62.9009L15.7011 62.7895ZM15.3304 62.3415L15.4657 62.2426C15.4227 62.1838 15.391 62.1359 15.3703 62.0979L15.2231 62.1779L15.0759 62.2579C15.1072 62.3154 15.1492 62.3773 15.1952 62.4403L15.3304 62.3415ZM15.2231 62.1779L15.3703 62.098C15.349 62.0587 15.3434 62.0361 15.343 62.0296L15.1757 62.0386L15.0084 62.0476C15.0129 62.1308 15.0484 62.2072 15.0759 62.2579L15.2231 62.1779ZM15.1757 62.0386L15.343 62.0298C15.3295 61.7747 15.1203 59.3931 14.9049 56.881L14.738 56.8953L14.571 56.9096C14.7871 59.4292 14.9953 61.7997 15.0084 62.0474L15.1757 62.0386ZM14.738 56.8953L14.9049 56.881C14.6891 54.3648 14.467 51.7152 14.4255 50.922L14.2582 50.9308L14.0909 50.9395C14.1328 51.7399 14.3556 54.3973 14.571 56.9096L14.738 56.8953ZM14.2582 50.9308L14.4255 50.922C14.4049 50.5289 14.42 50.2281 14.4944 49.948L14.3325 49.905L14.1706 49.862C14.0834 50.1903 14.0694 50.5306 14.0909 50.9395L14.2582 50.9308ZM14.3325 49.905L14.4944 49.948C14.5688 49.6685 14.7036 49.4025 14.929 49.0814L14.7918 48.9851L14.6547 48.8889C14.4151 49.2302 14.2583 49.5323 14.1706 49.8619L14.3325 49.905ZM14.7918 48.9851L14.9289 49.0814C15.3845 48.4325 16.1933 47.5788 17.5807 45.9492L17.4532 45.8406L17.3256 45.732C15.9575 47.3389 15.122 48.2233 14.6547 48.8889L14.7918 48.9851ZM17.4532 45.8406L17.5807 45.9492C18.2688 45.141 18.8224 44.6762 19.29 44.4485L19.2166 44.2979L19.1433 44.1473C18.6144 44.4048 18.0249 44.9106 17.3256 45.732L17.4532 45.8406ZM19.9697 47.863L19.8024 47.8718L19.884 49.4282L20.0513 49.4195L20.2186 49.4107L20.137 47.8542L19.9697 47.863ZM20.0513 49.4195L19.9196 49.3159L18.2867 51.3925L18.4184 51.496L18.5501 51.5996L20.183 49.523L20.0513 49.4195ZM18.4184 51.496L18.2868 51.3925L18.2675 51.417L18.3992 51.5205L18.5309 51.6241L18.5501 51.5996L18.4184 51.496ZM18.3992 51.5205L18.2319 51.5293L18.6952 60.3697L18.8625 60.3609L19.0298 60.3522L18.5665 51.5118L18.3992 51.5205ZM18.8625 60.3609L18.7292 60.4624L18.745 60.4831L18.8782 60.3816L19.0115 60.2801L18.9958 60.2594L18.8625 60.3609ZM18.8782 60.3816L18.7447 60.4827L20.6222 62.964L20.7558 62.8629L20.8894 62.7618L19.0118 60.2805L18.8782 60.3816ZM20.7558 62.8629L20.5885 62.8717L20.6792 64.6017L20.8465 64.593L21.0138 64.5842L20.9231 62.8542L20.7558 62.8629ZM20.8465 64.593L20.8552 64.7603L21.022 64.7515L21.0132 64.5842L21.0045 64.4169L20.8377 64.4257L20.8465 64.593ZM21.0132 64.5842L21.1805 64.5755L21.0897 62.8415L20.9224 62.8503L20.7551 62.8591L20.8459 64.593L21.0132 64.5842ZM20.9224 62.8503L21.0696 62.9303L22.5117 60.276L22.3645 60.196L22.2173 60.116L20.7752 62.7703L20.9224 62.8503ZM22.3645 60.196L22.5114 60.2766L22.523 60.2554L22.3761 60.1748L22.2293 60.0942L22.2177 60.1154L22.3645 60.196ZM22.3761 60.1748L22.5434 60.1661L22.0715 51.1608L21.9042 51.1696L21.7369 51.1784L22.2088 60.1836L22.3761 60.1748ZM21.9042 51.1696L22.0243 51.0528L22.0026 51.0305L21.8825 51.1473L21.7623 51.264L21.784 51.2864L21.9042 51.1696ZM21.8825 51.1473L22.0034 51.0313L20.339 49.2967L20.2181 49.4127L20.0972 49.5287L21.7616 51.2633L21.8825 51.1473ZM20.2181 49.4127L20.3854 49.4039L20.3038 47.8455L20.1365 47.8543L19.9692 47.863L20.0508 49.4214L20.2181 49.4127ZM20.1365 47.8543L20.1277 47.687L19.9609 47.6957L19.9697 47.863L19.9785 48.0303L20.1452 48.0216L20.1365 47.8543Z" fill="black"/>
<path d="M18.604 47.4325C16.2965 49.8182 16.1997 49.5716 16.2081 51.3326C16.2165 53.0937 16.6377 59.5304 16.721 61.1197C16.7876 62.3912 18.2922 63.3581 19.0362 63.6825" stroke="#A1FFFF" stroke-width="0.33506"/>
<path d="M4.68718 66.7829C4.61704 65.4445 6.16694 64.6084 7.31612 64.1288C7.51778 67.9767 8.00618 69.2932 9.31757 71.9086C10.629 74.524 14.8992 75.9778 16.6909 76.555C18.4826 77.1321 17.7298 77.1716 15.1497 77.5584C5.2264 77.0719 4.75732 68.1214 4.68718 66.7829Z" fill="#F1F1F3" stroke="black" stroke-width="0.33506"/>
<path d="M37.1764 65.0798C37.1063 63.7414 35.4775 63.0719 34.2845 62.715C34.4861 66.5629 34.138 67.9232 33.1072 70.6614C32.0764 73.3996 27.9815 75.2918 26.26 76.0531C24.5384 76.8143 25.2912 76.7749 27.8975 76.8899C37.7157 75.3688 37.2466 66.4182 37.1764 65.0798Z" fill="#F1F1F3" stroke="black" stroke-width="0.33506"/>
<path d="M19.3506 76.3328C19.1803 76.2858 18.7721 76.1785 18.5009 76.1256C15.5154 75.3415 14.1872 72.1799 13.6943 68.9961C14.6783 69.2241 16.8486 69.7031 17.6587 69.7949C18.6712 69.9096 19.3317 69.7072 19.6443 69.2714C19.957 68.8356 22.216 68.941 22.4048 69.1268C23.1333 69.8435 23.2962 69.7511 24.3507 69.4442C25.0584 69.2382 27.4069 68.613 28.4749 68.2215C28.1738 74.8206 24.7385 75.594 24.2728 75.8231C23.8148 76.0485 23.5331 76.1136 23.4494 76.1179C23.5153 76.8414 23.2121 78.3113 21.4721 78.4024C19.7322 78.4936 19.3328 77.0606 19.3506 76.3328Z" fill="#F1F1F3" stroke="black" stroke-width="0.33506"/>
<path d="M16.3174 72.6328C17.079 72.7607 17.6865 73.1482 17.8801 73.6414C18.0737 74.1345 18.5665 75.5346 21.4106 75.3856C24.2547 75.2365 24.6908 73.9555 24.7482 73.4492C24.8055 72.9429 25.2811 72.4147 26.1881 72.1155" stroke="black" stroke-width="0.33506"/>
</g>
</g>
<defs>
<filter id="filter0_d_40000850_50765" x="-7" y="-1.15055" width="66.3888" height="110.041" filterUnits="userSpaceOnUse" color-interpolation-filters="sRGB">
<feFlood flood-opacity="0" result="BackgroundImageFix"/>
<feColorMatrix in="SourceAlpha" type="matrix" values="0 0 0 0 0 0 0 0 0 0 0 0 0 0 0 0 0 0 127 0" result="hardAlpha"/>
<feOffset dx="6" dy="-4"/>
<feGaussianBlur stdDeviation="2.57527"/>
<feComposite in2="hardAlpha" operator="out"/>
<feColorMatrix type="matrix" values="0 0 0 0 0.784314 0 0 0 0 0.843137 0 0 0 0 0.909804 0 0 0 0.25 0"/>
<feBlend mode="normal" in2="BackgroundImageFix" result="effect1_dropShadow_40000850_50765"/>
<feBlend mode="normal" in="SourceGraphic" in2="effect1_dropShadow_40000850_50765" result="shape"/>
</filter>
<clipPath id="clip0_40000850_50765">
<rect width="52" height="104" fill="white"/>
</clipPath>
</defs>
</svg>
