<svg width="78" height="80" viewBox="0 0 78 80" fill="none" xmlns="http://www.w3.org/2000/svg">
<g clip-path="url(#clip0_40000320_58116)">
<g filter="url(#filter0_d_40000320_58116)">
<rect x="-7" y="9.62793" width="50.2178" height="97.2445" rx="2.68724" transform="rotate(-3 -7 9.62793)" fill="#A158ED"/>
<rect x="-6.34961" y="22.0391" width="50.2178" height="3.02315" transform="rotate(-3 -6.34961 22.0391)" fill="white"/>
<rect x="-6.29688" y="23.0459" width="50.2178" height="1.00772" transform="rotate(-3 -6.29688 23.0459)" fill="#61B9F5"/>
<rect x="-6.19238" y="25.0586" width="50.2178" height="76.7543" transform="rotate(-3 -6.19238 25.0586)" fill="#4D6ECB"/>
<path d="M-4.41602 58.9385L46.5285 71.4892L47.513 90.2741L-2.63605 92.9023L-4.41602 58.9385Z" fill="#65612E"/>
<path d="M13.5701 87.344C5.52525 86.0166 -1.11642 80.3773 -3.43164 77.7236L-2.17468 101.708L47.9743 99.0797L47.1305 82.9784C39.2957 84.9867 21.615 88.6715 13.5701 87.344Z" fill="#CDB389"/>
<path d="M12.1507 60.3492C11.0068 59.0131 11.9486 56.4938 12.1857 54.8705C12.5544 53.0255 12.0735 52.7286 11.9837 51.0151C11.8939 49.3015 9.35256 45.8909 7.43653 44.1657C5.5205 42.4405 5.01354 40.9636 6.23694 39.7182C7.46035 38.4728 12.7744 43.5638 14.5778 45.1875C16.3811 46.8112 17.5423 46.4282 19.6505 45.6733C21.7588 44.9185 20.6438 40.037 20.5484 38.2164C20.453 36.3958 20.0475 34.8062 21.8569 34.4966C23.6663 34.187 24.2121 38.454 25.2709 42.2645C26.3297 46.075 27.7159 47.9354 28.6344 49.0685C29.5529 50.2017 29.1806 51.2951 29.0113 52.1631C28.8421 53.0311 29.1461 54.7334 29.4164 55.7931C29.6867 56.8528 30.0529 57.6927 30.5542 59.0625C31.0556 60.4323 31.5854 60.2972 32.2729 61.1202C32.9604 61.9433 32.5769 62.8225 32.3908 63.3692C32.2046 63.9159 31.7141 64.8008 31.325 65.5729C30.9359 66.345 30.4285 66.9085 30.2536 67.6694C30.0787 68.4303 29.047 69.2361 28.1902 69.281C27.3335 69.3259 26.3865 69.6977 25.2365 70.2949C24.0865 70.8921 21.635 69.195 21.2969 68.8905C20.9587 68.5861 16.4167 63.8842 15.5151 63.0724C14.6134 62.2605 13.2946 61.6853 12.1507 60.3492Z" fill="#F29600" stroke="black" stroke-width="0.335905"/>
<path d="M19.0981 64.9123C17.9948 64.7178 17.1873 63.751 15.3646 62.6693L15.3734 62.837L19.0139 66.5144L20.6069 68.0287L21.763 69.2295L23.237 70.0772L24.9362 70.4086L26.0883 69.9278L27.4081 69.4382L28.825 69.1957L29.88 68.4677L30.3348 67.5189L29.9994 67.5364L30.7102 66.6583L32.3218 63.7147L32.6576 62.0994L32.2695 61.1106L31.5634 60.4749L30.8486 59.6714L30.2619 58.1044L29.3929 55.9636L29.0889 53.3727L29.0318 52.2825L29.2661 50.3361L28.8823 49.4312L27.4351 47.4889L26.1336 45.1184L25.3751 41.8786L23.8623 37.0806L23.1786 35.2664C22.1726 33.7214 20.4678 34.8871 20.517 35.8263C20.5785 37.0004 20.68 37.3314 20.5518 38.095C20.4236 38.8585 21.0938 42.0189 21.1422 42.9414C21.1905 43.8638 20.7269 44.6449 20.4178 45.1657L20.4178 45.1657C19.8606 46.1045 18.5374 46.1892 18.1181 46.2112C17.7826 46.2288 16.6968 46.3698 16.1936 46.3962C16.3952 46.4977 16.8336 46.7326 16.9748 46.8598C17.1513 47.0187 19.283 47.5797 20.4746 47.8536C21.6662 48.1276 24.928 47.7884 25.7135 48.3359C26.4991 48.8834 27.9683 51.245 28.0386 52.5868C28.1089 53.9286 28.9205 56.577 29.0395 57.2435C29.1585 57.91 29.5555 59.0665 30.3893 60.5364C31.2232 62.0064 31.1306 61.843 30.4992 62.6329C29.8679 63.4228 29.1263 63.714 28.3229 64.4288C27.5194 65.1437 26.7031 64.0092 25.7719 63.8898C24.8406 63.7704 24.6993 64.2824 24.1298 64.6486C23.5604 65.0148 23.1055 65.9636 22.3376 65.7516C21.5697 65.5396 20.2015 65.1067 19.0981 64.9123Z" fill="#D7890A"/>
<path d="M12.1507 60.3492C11.0068 59.0131 11.9486 56.4938 12.1857 54.8705C12.5544 53.0255 12.0735 52.7286 11.9837 51.0151C11.8939 49.3015 9.35256 45.8909 7.43653 44.1657C5.5205 42.4405 5.01354 40.9636 6.23694 39.7182C7.46035 38.4728 12.7744 43.5638 14.5778 45.1875C16.3811 46.8112 17.5423 46.4282 19.6505 45.6733C21.7588 44.9185 20.6438 40.037 20.5484 38.2164C20.453 36.3958 20.0475 34.8062 21.8569 34.4966C23.6663 34.187 24.2121 38.454 25.2709 42.2645C26.3297 46.075 27.7159 47.9354 28.6344 49.0685C29.5529 50.2017 29.1806 51.2951 29.0113 52.1631C28.8421 53.0311 29.1461 54.7334 29.4164 55.7931C29.6867 56.8528 30.0529 57.6927 30.5542 59.0625C31.0556 60.4323 31.5854 60.2972 32.2729 61.1202C32.9604 61.9433 32.5769 62.8225 32.3908 63.3692C32.2046 63.9159 31.7141 64.8008 31.325 65.5729C30.9359 66.345 30.4285 66.9085 30.2536 67.6694C30.0787 68.4303 29.047 69.2361 28.1902 69.281C27.3335 69.3259 26.3865 69.6977 25.2365 70.2949C24.0865 70.8921 21.635 69.195 21.2969 68.8905C20.9587 68.5861 16.4167 63.8842 15.5151 63.0724C14.6134 62.2605 13.2946 61.6853 12.1507 60.3492Z" stroke="black" stroke-width="0.335905"/>
<path d="M15.5908 45.8857C16.1487 46.2861 16.7179 46.9006 17.1463 46.8781C17.5747 46.8557 19.0118 47.6395 19.8008 48.3498" stroke="black" stroke-width="0.335905"/>
<path d="M20.9961 67.0809C21.0354 67.8306 21.554 67.4812 21.757 67.2558L21.9806 66.9219C21.8065 66.6386 21.6149 66.3184 21.3684 65.9875C21.2252 65.7954 21.0354 65.5874 20.8174 65.372C20.8639 65.6918 20.9647 66.4812 20.9961 67.0809Z" fill="white"/>
<path d="M23.3437 54.5007C23.5316 54.6699 23.8937 55.1592 23.8394 55.7634M22.5365 59.5903C22.9025 59.1416 23.6417 57.9216 23.6702 56.6314M27.0916 56.3447C27.039 56.0253 26.9904 55.2331 27.216 54.6199M23.8937 64.996C24.1926 64.5508 24.8015 63.8746 25.337 63.8465C25.8724 63.8184 26.1937 63.8016 26.5262 63.999C26.8587 64.1963 27.2927 64.281 27.7211 64.2585C28.0638 64.2405 28.4276 64.0783 28.5666 63.9994M25.1335 66.1123C25.1993 66.0015 25.3951 65.7765 25.6522 65.763C25.9735 65.7462 26.306 65.9435 26.4187 66.045M30.5336 64.6481L31.5485 63.521M15.1358 59.7634C15.175 60.5131 15.1353 61.8038 16.0089 62.0802C16.8825 62.3566 17.3109 62.3341 18.0998 63.0445C18.7259 63.6082 19.9799 64.5446 20.8174 65.372M30.6403 66.6829C30.1385 67.3535 29.4281 68.1425 28.7968 68.3903C28.1654 68.6382 27.3821 68.0349 26.7227 67.7473C26.0633 67.4597 25.5446 67.809 25.0091 67.8371C24.4737 67.8652 23.6281 68.1242 22.9743 67.9437C22.5531 67.8274 22.2957 67.4351 21.9806 66.9219M20.8174 65.372C21.0354 65.5874 21.2252 65.7954 21.3684 65.9875C21.6149 66.3184 21.8065 66.6386 21.9806 66.9219M20.8174 65.372C20.8639 65.6918 20.9647 66.4812 20.9961 67.0809C21.0354 67.8306 21.554 67.4812 21.757 67.2558L21.9806 66.9219" stroke="black" stroke-width="0.335905"/>
<path d="M16.0332 54.3467C16.4352 54.5046 17.5741 55.0606 18.9131 56.0214C20.5869 57.2223 21.2743 58.0454 21.9899 59.404" stroke="black" stroke-width="0.335905"/>
<path d="M16.252 54.4424L16.4372 57.9765C17.0063 58.591 20.3599 59.0596 21.7522 58.9866C20.1565 56.407 17.4205 54.8823 16.252 54.4424Z" fill="white" stroke="black" stroke-width="0.335905"/>
<path d="M19.1678 58.7999C18.3563 58.0693 18.2139 56.3084 18.2442 55.5193C20.1062 56.6245 21.3606 58.2913 21.755 58.9865C21.073 58.9507 19.6007 58.8632 19.1678 58.7999Z" fill="#008086" stroke="black" stroke-width="0.335905"/>
<circle cx="19.4034" cy="57.1773" r="0.536211" transform="rotate(-3 19.4034 57.1773)" fill="white"/>
<circle cx="19.7524" cy="57.6958" r="0.643453" transform="rotate(-3 19.7524 57.6958)" fill="black"/>
<path d="M27.7296 56.2039C27.6619 56.5511 27.7687 57.6337 27.8306 58.1316C28.638 57.1442 29.0918 56.2399 29.2177 55.9111L28.9591 53.0251C28.5775 53.9401 27.7973 55.8567 27.7296 56.2039Z" fill="white" stroke="black" stroke-width="0.335905"/>
<path d="M28.7311 56.9032C28.8441 55.7805 28.6133 54.6542 28.4837 54.2315L27.728 56.2041L27.7448 56.5254L27.8346 58.2389C28.0019 58.0153 28.4154 57.4352 28.7311 56.9032Z" fill="#008086" stroke="black" stroke-width="0.335905"/>
<path d="M28.2869 56.6044C28.3004 56.8614 27.943 56.873 27.7627 56.8467L27.7234 56.097C27.7854 55.9148 27.9523 55.5481 28.1237 55.5391C28.3379 55.5278 28.2701 56.2831 28.2869 56.6044Z" fill="black" stroke="black" stroke-width="0.335905"/>
<g filter="url(#filter1_d_40000320_58116)">
<rect x="-4.8252" y="8.19629" width="48.559" height="94.0323" rx="2.59847" transform="rotate(-3 -4.8252 8.19629)" fill="#D9D9D9"/>
<rect x="-4.19531" y="20.1973" width="48.559" height="2.92328" transform="rotate(-3 -4.19531 20.1973)" fill="white"/>
<rect x="-4.14453" y="21.1709" width="48.559" height="0.974428" transform="rotate(-3 -4.14453 21.1709)" fill="#61B9F5"/>
<mask id="mask0_40000320_58116" style="mask-type:alpha" maskUnits="userSpaceOnUse" x="-5" y="20" width="54" height="78">
<rect x="-4.04297" y="23.1172" width="48.559" height="74.2189" transform="rotate(-3 -4.04297 23.1172)" fill="url(#paint0_linear_40000320_58116)"/>
</mask>
<g mask="url(#mask0_40000320_58116)">
<rect x="-4.04297" y="23.1172" width="48.559" height="74.2189" transform="rotate(-3 -4.04297 23.1172)" fill="url(#paint1_linear_40000320_58116)"/>
<path d="M41.6691 26.0553L41.466 26.066L38.0395 30.6454L37.7592 31.5156L43.4957 33.7L45.3244 31.282L45.5041 30.8245L46.0709 29.98L45.9001 29.052L45.3764 28.3869L45.601 28.0084L45.4557 27.5679L45.1136 27.2599L44.6325 27.4074L44.2221 26.5734L44.0704 26.011L43.4889 25.797L43.3349 25.968L42.548 25.7241L42.5374 25.521L42.0905 25.5444L41.6691 26.0553Z" fill="#D4B9A1"/>
<path d="M45.9651 36.671L46.3853 37.2562L52.4167 83.487L44.7882 85.871L40.9384 58.0173L38.8777 41.4413L39.2173 40.6746L40.0329 40.205L40.6056 39.3042L42.0698 37.8703L43.6299 37.5037L43.534 36.4364L45.9651 36.671Z" fill="#D4B9A1"/>
<path d="M50.2406 78.8125L44.5825 36.7384L43.5747 36.4325L49.3897 78.8889L50.2406 78.8125Z" fill="#D5C2B1"/>
<path d="M47.9307 79.0199L42.1254 38.035L41.2844 38.6767L47.1759 79.2576L47.9307 79.0199Z" fill="#D5C2B1"/>
<path d="M45.8687 79.7152L40.078 40.2578L39.4144 40.6005L45.1798 79.7771L45.8687 79.7152Z" fill="#D5C2B1"/>
<path d="M37.197 49.6893L37.5614 50.1968L42.7922 90.2908L36.1763 92.3583L32.8376 68.202L31.0504 53.8263L31.3449 53.1615L32.0523 52.7542L32.5489 51.9729L33.8188 50.7294L35.1718 50.4114L35.0886 49.4858L37.197 49.6893Z" fill="#D4B9A1"/>
<path d="M40.9051 86.237L35.9981 49.7479L35.1241 49.4827L40.1671 86.3033L40.9051 86.237Z" fill="#D5C2B1"/>
<path d="M38.9017 86.4167L33.867 50.8721L33.1376 51.4287L38.2471 86.6228L38.9017 86.4167Z" fill="#D5C2B1"/>
<path d="M37.1136 87.0193L32.0916 52.7996L31.5161 53.0968L36.5162 87.073L37.1136 87.0193Z" fill="#D5C2B1"/>
<path d="M1.42992 72.8955L-4.62603 74.7202L-4.55704 100.912L50.8563 98.7409L48.7106 74.8989L36.3263 72.574L35.1307 73.8588L28.7696 72.97L23.9288 72.3275L17.0283 73.5854L1.42992 72.8955Z" fill="#D4B9A1"/>
<path d="M9.91027 82.3505L8.27539 78.3623L12.5622 80.0931L16.6454 84.1567L17.4741 88.3094L13.7541 85.7341L9.91027 82.3505Z" fill="#D5C2B1"/>
<path d="M27.9542 76.0677L50.5401 77.9394L51.0085 86.8774L51.3088 92.6059L39.5839 86.5392L8.80718 80.7376L0.733685 78.2683L18.6743 75.4541L27.9542 76.0677Z" fill="#D5C2B1"/>
<path d="M-1.34273 77.5219L-5.49115 78.4319L-3.6292 80.5342L8.45133 83.2824L9.75831 81.014L5.59763 79.3581L-1.34273 77.5219Z" fill="#D4B9A1"/>
<path d="M9.73992 77.5518L-6.07952 80.4178L-5.33177 73.6974L-3.99107 73.6271L-0.456496 73.4419L2.34679 73.295L5.278 74.8117L9.73992 77.5518Z" fill="#C39C93"/>
<path d="M-1.03429 84.9609L2.25353 88.618L5.56103 90.3187L4.5934 85.8474L3.61904 82.8023L-3.59899 79.5548L-4.19792 80.5639L-2.63757 83.1302L-1.03429 84.9609Z" fill="#966E65"/>
<path d="M5.06723 80.8935L8.89649 82.4446L11.2057 82.9754L12.777 84.1967L15.5069 87.3127L9.14561 87.198L4.79849 87.4258L3.46239 86.0292L1.00185 83.3879L-1.6597 80.7979L-3.7207 79.5615L0.81235 79.7721L3.15153 80.0976L5.06723 80.8935Z" fill="#C39C93"/>
<path d="M13.721 78.8915L8.26855 78.2402L13.9019 82.3448L15.3661 84.6309L19.1026 89.8534L54.5892 99.2375L51.8431 91.9262L44.4947 88.5226L42.5813 86.9934L37.1017 83.4918L31.2565 80.0094L28.5345 80.1521L20.4497 80.5758L16.03 80.1963L13.721 78.8915Z" fill="#C39C93"/>
<path d="M10.7828 81.1236L8.60449 78.4268L12.8764 79.8732L18.0689 85.6711L17.5981 87.5698L15.4042 87.6848L13.0425 83.0421L10.7828 81.1236Z" fill="#966E65"/>
<path d="M-2.84892 33.2365L-3.06535 35.3255L-1.9984 35.4733L-0.240776 35.5849L0.0528232 32.6363L-0.810996 32.4779C-1.13247 32.5626 -1.84854 32.736 -2.14105 32.7513C-2.43357 32.7666 -2.73485 33.0812 -2.84892 33.2365Z" fill="#D4B9A1"/>
<path d="M-2.18403 34.2599C-2.42353 34.354 -2.67155 34.2855 -2.90467 34.5014L-3.06309 35.3652L-1.98762 35.6755L-0.236388 35.6652L0.0442623 33.2469L-0.849539 33.2937C-0.97284 33.273 -1.26564 33.283 -1.45043 33.4882C-1.68142 33.7447 -1.94452 34.1659 -2.18403 34.2599Z" fill="#966E65"/>
<path d="M34.3594 23.3819L34.793 25.4369L33.7474 25.6954L32.0111 25.9901L31.4109 23.0883L32.2534 22.8405C32.5819 22.8911 33.3122 22.9887 33.6047 22.9733C33.8972 22.958 34.2298 23.2393 34.3594 23.3819Z" fill="#D4B9A1"/>
<path d="M33.8055 24.4702C34.0535 24.5387 34.293 24.4446 34.5475 24.635L34.7953 25.4775L33.7582 25.8985L32.0154 26.0713L31.4835 23.6956L32.3773 23.6488C32.4978 23.6153 32.79 23.5946 32.9953 23.7793C33.2518 24.0103 33.5575 24.4017 33.8055 24.4702Z" fill="#966E65"/>
<path d="M-0.0445228 28.4444L-0.080719 27.7537C0.194446 27.5628 0.793528 27.1783 0.988539 27.1681C1.2323 27.1553 2.31629 27.6281 2.72257 27.6068C3.04758 27.5898 4.08947 28.2957 4.56978 28.6507L4.65495 30.2758L3.53672 29.927L1.38365 29.2658L0.628935 28.8572L-0.0445228 28.4444Z" fill="#D4B9A1"/>
<path d="M40.1719 81.0613L40.0922 79.5402C40.6982 79.1196 42.0176 78.2729 42.4471 78.2503C42.984 78.2222 45.3714 79.2635 46.2661 79.2166C46.982 79.1791 49.2766 80.7337 50.3344 81.5156L50.522 85.0947L48.0592 84.3266L43.3173 82.8703L41.6551 81.9705L40.1719 81.0613Z" fill="#D4B9A1"/>
<path d="M0.829731 28.0322L0.156273 27.6193L-0.25 27.6406L-0.207416 28.4532L0.211632 28.6756L1.34477 29.3088L4.65883 30.3573L2.49298 29.4523L1.73613 29.0031L1.29579 28.3744L0.829731 28.0322Z" fill="#966E65"/>
<path d="M42.0987 80.1533L40.6155 79.2441L39.7207 79.291L39.8145 81.0806L40.7374 81.5705L43.233 82.965L50.5318 85.2742L45.7618 83.2811L44.0949 82.2918L43.1251 80.9071L42.0987 80.1533Z" fill="#966E65"/>
<path d="M31.8815 41.2707L32.0244 41.9474C32.3395 42.061 33.0174 42.2781 33.2085 42.2377C33.4473 42.1873 34.3729 41.4511 34.7709 41.367C35.0894 41.2998 35.9142 40.3493 36.2868 39.8824L35.9504 38.2903L34.9598 38.9154L33.0498 40.1091L32.4258 40.6983L31.8815 41.2707Z" fill="#D4B9A1"/>
<path d="M32.833 41.4441L32.2887 42.0165L31.8906 42.1006L31.7224 41.3045L32.07 40.9816L33.0017 40.0778L35.9337 38.2108L34.0742 39.6433L33.4586 40.2723L33.1952 40.9933L32.833 41.4441Z" fill="#966E65"/>
<path d="M9.7831 36.4039L7.17806 48.8843L8.85868 49.0814L10.4431 48.9984L11.322 48.6672L12.1028 47.2411L13.7085 38.2351L13.6702 37.5038L13.4073 37.151L12.8429 36.488L12.3832 36.2677L11.8551 36.2953L11.4981 35.703L10.6599 36.0321L9.7831 36.4039Z" fill="#D4B9A1"/>
<path d="M10.1644 43.6759L11.627 43.5992L12.0693 45.0427L12.1225 46.0583L12.1928 47.3991L11.3265 48.7481L10.4519 49.1606L9.11117 49.2308L7.30441 48.9589L7.63208 46.6603L8.11765 45.8201L9.07797 44.7106L10.1644 43.6759Z" fill="#966E65"/>
<path d="M9.9638 42.9531L11.7636 36.0961L11.9325 36.2095L12.467 36.3037L10.8663 42.2947L10.3124 42.6089L9.9638 42.9531Z" fill="#D5C2B1"/>
<path d="M11.9309 43.1757L13.1938 36.958L13.367 37.1526L12.1255 43.0026L11.9309 43.1757Z" fill="#D5C2B1"/>
<path d="M14.6242 37.046L14.7419 36.9583L14.7078 36.3083L14.8169 36.0582L15.2446 35.6691L15.6445 35.5259L16.2454 35.3315L17.0771 35.6545L18.9772 39.2622L18.9127 41.1396C17.8429 40.6796 15.6868 39.7524 15.6201 39.7233C15.5534 39.6942 15.5823 39.5216 15.6052 39.4389L15.1818 39.1352L14.6242 37.046Z" fill="#D4B9A1"/>
<path d="M19.8479 37.9943L18.132 33.2363L17.8946 33.371L17.918 33.8179L17.6443 34.0359L17.2999 34.4613L16.9532 35.6202L16.2092 35.4148L16.3609 35.9772L16.6557 36.9394L17.5238 37.1791L17.8274 37.5299L18.77 39.1915L19.3794 39.1596L19.5334 38.9885L19.5099 38.5416L19.572 38.1717L19.8479 37.9943Z" fill="#D4B9A1"/>
<path d="M18.7769 36.2169L19.2943 36.7602L19.8884 37.9919L19.6532 38.1672L19.5504 38.5393L19.576 39.0268L19.422 39.1978L18.8126 39.2297L17.5643 37.1767L16.6577 36.9798L16.2539 35.4936L16.3352 35.4894L16.8375 36.5223L17.171 36.6678L17.4469 36.4903L17.8725 36.0606L17.9644 36.2595L18.4989 36.3537L18.4861 36.11L18.2702 35.8768L17.9498 34.427L17.6312 34.5659L17.5435 34.4483L17.7788 34.273L17.7596 33.9074L17.9179 33.8176L18.044 33.8925L18.7769 36.2169Z" fill="#966E65"/>
<path d="M-4.09514 39.7792L-4.43737 40.2453L-4.54752 73.9014L3.3168 74.7114L3.59717 54.4087L3.53571 42.3532L3.10176 41.8464L2.23368 41.6067L1.55171 41.0313L-0.0817294 40.18L-1.67471 40.1005L-1.71517 39.3286L-4.09514 39.7792Z" fill="#D4B9A1"/>
<path d="M-0.189216 73.8762C-0.644242 73.9 3.88679 58.8879 6.20919 51.3789L6.89754 52.0761L6.86648 52.1805L7.41275 52.5787L7.90027 52.5532L8.43182 56.477L8.87003 57.0651L9.18176 59.1265L7.87867 63.8688L6.2361 74.4357C4.28392 74.2393 0.26581 73.8523 -0.189216 73.8762Z" fill="#D4B9A1"/>
<path d="M-0.667821 70.1939L-0.115895 40.3033L0.799198 40.6628L0.110485 70.2753L-0.667821 70.1939Z" fill="#D5C2B1"/>
<path d="M1.46414 70.4495L2.19544 41.6495L2.89675 41.8164L2.15481 70.4133L1.46414 70.4495Z" fill="#D5C2B1"/>
<path d="M14.6243 37.046L14.7462 37.0396L15.1779 38.2799L15.6569 38.0918L15.2084 35.7525L15.5249 35.5729L15.5568 36.1823L16.6834 37.4677L16.8737 37.2133L16.8652 37.0508L17.8809 36.9975L19.0158 39.2194L18.9128 41.1396L15.5795 39.7254L15.5625 39.4004L15.2226 39.133L14.6243 37.046Z" fill="#966E65"/>
<path d="M6.52708 53.562L6.77758 52.123L7.40828 52.4973L7.85518 52.4739L8.43587 56.5581L8.91471 57.1441L9.18794 59.2482L7.98103 63.4261L7.48159 59.3376L6.72084 57.2591L6.27854 55.8156L6.52708 53.562Z" fill="#966E65"/>
<path d="M3.39828 63.829L6.81996 52.1613L6.28029 55.8561L6.37219 56.0549L3.46216 65.0478L3.39828 63.829Z" fill="#D5C2B1"/>
<path d="M3.29477 68.8456L6.67581 57.18L6.96216 57.9798L3.36929 70.2675L3.29477 68.8456Z" fill="#D5C2B1"/>
<path d="M39.5018 32.1169L43.4911 25.8378L44.1111 26.009L44.126 26.2934L40.2544 32.4849L39.5018 32.1169Z" fill="#D5C2B1"/>
<path d="M37.999 30.6469L37.7572 31.4743L38.1268 33.0845L40.0127 33.3116L40.6604 34.0109L42.033 34.5501L43.4231 33.8661L43.791 33.1136L43.774 32.7885L43.306 31.6316L42.5087 30.4105L41.9935 29.9079L41.9764 29.5829L40.9201 29.6383L39.5964 30.0335L38.5165 30.416L37.999 30.6469Z" fill="#966E65"/>
</g>
<mask id="mask1_40000320_58116" style="mask-type:alpha" maskUnits="userSpaceOnUse" x="5" y="36" width="36" height="34">
<path d="M23.2773 68.4324C22.4313 68.8306 21.4955 69.0747 20.5041 69.1267C17.4548 69.2865 14.7389 67.5839 13.4609 65.0135L13.0951 58.0331L5.38513 54.0847L5.14435 36.7852L25.9631 38.0003L40.2722 46.3936L38.1223 58.6703L31.3007 69.1942L24.7938 67.7488L23.2773 68.4324Z" fill="#D9D9D9"/>
</mask>
<g mask="url(#mask1_40000320_58116)">
<path d="M31.2492 63.2364C31.402 62.124 31.1669 61.6654 30.2357 59.3918L28.3048 56.3262C26.8707 51.7891 23.9107 42.7002 23.5438 42.6415C23.177 42.5828 18.8433 41.5778 16.7224 41.0826L16.9469 39.4793C16.9757 39.0361 17.205 39.0327 17.3161 39.0865C20.3383 39.6318 26.4739 40.7275 26.8388 40.7474C27.2948 40.7722 27.3954 40.8319 27.5163 41.2803C27.6373 41.7286 28.5345 47.0734 28.5744 47.8346C28.6063 48.4436 29.3614 49.4228 29.7349 49.8363C32.5125 48.9166 38.2277 47.0299 38.8674 46.8404C39.667 46.6037 39.4717 46.9062 39.1826 47.2787C38.9514 47.5766 35.0983 52.0833 33.2006 54.2994L31.8593 56.5946C32.7694 57.6404 34.6856 59.8277 35.0695 60.2104C35.5493 60.6887 35.3165 60.8958 35.1246 61.2631C34.9711 61.557 31.8359 65.9611 30.2874 68.1264C30.5571 66.8672 31.1269 64.1263 31.2492 63.2364Z" fill="#8095B2" stroke="#17283F" stroke-width="0.324809"/>
<path d="M24.2128 65.9443C23.8833 66.5982 22.9632 69.9886 22.5443 71.6021L21.593 75.4522L10.6771 71.9967C11.5573 69.4766 13.4002 64.1496 13.7298 63.002C14.1418 61.5675 15.7276 56.4986 15.6758 55.5107C15.624 54.5227 14.6221 52.1392 13.8841 51.6907C13.146 51.2421 10.7492 50.4421 9.34455 49.9797C7.9399 49.5174 7.79583 49.5575 7.7466 48.6181C7.69737 47.6787 9.40872 41.2878 9.94926 40.756C10.3817 40.3306 12.7399 41.2215 13.865 41.7201L27.9866 53.6637L33.4269 56.1395L33.1276 60.6537L30.5502 59.5058C30.5873 59.9044 30.688 60.7718 30.7936 61.0521C30.9257 61.4025 31.2782 63.1704 31.2474 63.5131C31.2166 63.8557 30.6421 64.0483 30.2551 64.101C29.8681 64.1538 28.2349 63.9795 28.0005 63.8457C27.7661 63.7118 26.4295 63.928 25.6197 63.9704C24.8099 64.0129 24.6247 65.1269 24.2128 65.9443Z" fill="#466289" stroke="#17283F" stroke-width="0.324809"/>
<path d="M17.5751 67.2822C17.4099 67.8495 16.6471 69.9239 16.2863 70.8901L14.4996 71.1949C15.8325 67.2923 18.5402 59.2966 18.7082 58.5343C18.7799 57.7347 18.247 54.6933 17.6967 53.1793C17.1464 51.6653 14.8803 49.6403 14.3383 49.214C13.9047 48.8729 12.2111 47.2575 11.4186 46.4925L12.0216 44.6744C12.7834 45.6793 14.4639 47.8302 15.0911 48.395C15.8752 49.101 17.4666 49.0988 18.3386 49.0043C19.0363 48.9288 21.0779 49.4184 22.0115 49.6726C22.8787 52.2743 24.3672 57.4971 23.3838 57.5747C22.1546 57.6716 21.1469 58.5851 20.7146 59.0138C20.2824 59.4424 19.2683 61.7855 19.0627 62.8194C18.857 63.8533 17.7815 66.5731 17.5751 67.2822Z" fill="#87D4E4"/>
<circle cx="28.1922" cy="54.1725" r="2.53001" transform="rotate(-3 28.1922 54.1725)" fill="#222524"/>
<circle cx="28.1885" cy="54.7244" r="1.03795" transform="rotate(-3 28.1885 54.7244)" fill="#D6867E"/>
<ellipse cx="28.2652" cy="54.6526" rx="0.227053" ry="0.535195" transform="rotate(22.7446 28.2652 54.6526)" fill="#222524"/>
<path d="M30.3263 55.5542C30.1012 56.2156 29.8247 57.4482 30.0007 59.2578M31.5366 56.0267C31.3115 56.6881 31.1057 58.0306 31.2818 59.8403" stroke="#17283F" stroke-width="0.16218"/>
<path d="M26.6644 53.2296C26.2703 52.8995 25.7747 52.4697 25.5761 52.296L26.7189 49.6214C29.1511 50.8906 34.0165 53.4485 34.0206 53.5262C34.0257 53.6234 35.0147 56.3811 35.0163 56.7221C35.0179 57.063 34.5824 57.1183 34.2099 57.1379L33.8212 57.1582C33.7757 57.2202 33.6709 57.3902 33.6156 57.575C33.5465 57.806 33.4926 58.6371 33.5173 59.1068C33.537 59.4825 33.6224 60.2868 33.6627 60.642C33.609 60.6502 33.4625 60.6654 33.3064 60.6606C33.1112 60.6546 32.7114 60.4645 32.5751 60.3417C32.3667 59.0924 32.5354 57.4151 32.6458 56.7326C32.6069 56.713 32.3006 56.5916 31.3869 56.2627C30.2448 55.8516 27.157 53.6423 26.6644 53.2296Z" fill="#EEF2F2" stroke="#17283F" stroke-width="0.324809"/>
<path d="M28.436 52.0158C28.0344 51.5431 27.7035 50.7441 27.5882 50.4037L25.023 51.6587L19.5719 47.7381L17.2301 41.4784C17.8421 41.3814 19.2853 41.2148 20.1615 41.3248C21.2568 41.4623 23.1354 41.981 24.0363 42.4372C24.9372 42.8934 25.8541 43.966 26.4413 44.6335L26.4558 44.65C27.039 45.3131 27.6731 46.0341 28.3375 46.418C29.0074 46.8052 31.7668 49.8761 32.8132 51.2504C33.8597 52.6247 34.1364 53.877 34.2274 54.6842C34.3185 55.4915 33.5897 55.2211 33.2803 55.2048C32.9709 55.1886 31.7845 54.5524 30.9458 54.0442C30.1072 53.536 28.9379 52.6066 28.436 52.0158Z" fill="#466289" stroke="#17283F" stroke-width="0.324809"/>
<path d="M31.1538 51.4994L32.8369 53.2464L32.741 51.4162L31.0342 49.2158C30.1362 48.4021 28.2629 46.7236 27.9533 46.519C27.5664 46.2632 26.576 45.6492 26.2846 45.3559C25.9931 45.0626 25.0506 44.1214 24.806 43.7932C24.5615 43.4649 24.0561 42.8093 23.255 42.088C22.6318 41.8478 21.0213 41.5067 20.2939 41.3662C20.5826 41.6055 21.2326 42.1713 21.5237 42.5198C21.8876 42.9554 23.8564 43.9566 24.1376 44.3641C24.3626 44.6901 25.1397 45.7191 25.5002 46.1928C25.928 46.4032 26.8484 46.879 27.1068 47.0993C27.4298 47.3747 29.8033 49.2803 30.2566 49.8737C30.6193 50.3484 31.0059 51.1553 31.1538 51.4994Z" fill="#87D3EA"/>
<path d="M30.3587 63.6079C30.0995 63.6215 29.4339 63.0068 28.7326 62.0204L28.154 61.2062L29.4186 58.9962L30.5999 59.5352L30.708 60.3578C30.785 60.5865 30.9917 61.1842 31.203 61.7448C31.4142 62.3053 31.2032 63.1955 31.0713 63.5706L30.3587 63.6079Z" fill="#322830" stroke="#17283F" stroke-width="0.324809"/>
<path d="M29.5969 63.3232L29.354 63.3359L28.0526 62.0562C28.1806 61.5027 28.5009 60.3827 28.758 60.3302C29.0793 60.2647 29.7348 60.3765 30.0826 60.5044C30.4303 60.6324 30.7294 61.0714 30.7506 61.4763C30.7718 61.8812 30.6097 62.5068 30.4793 62.806C30.3488 63.1052 29.8722 63.3088 29.5969 63.3232Z" fill="#B46E76"/>
<path d="M29.7257 61.4324C29.6124 61.4383 29.2409 61.539 28.6618 61.8942L29.3572 62.7672C29.4948 62.603 29.7665 62.2098 29.7529 61.9507L29.7257 61.4324Z" fill="#E7EFF9"/>
<path d="M28.5052 61.7077L28.1018 62.687C28.4597 63.1121 29.6297 64.1368 30.3689 64.111C31.2929 64.0788 31.4431 63.535 31.4346 63.3731C31.4261 63.2111 31.3674 62.7107 31.2497 62.9443C31.0313 63.7353 30.7466 63.5715 30.5523 63.5817C30.3579 63.5919 30.1193 63.377 29.9011 63.2423C29.7266 63.1345 28.8109 62.0652 28.5052 61.7077Z" fill="#B4C2C5"/>
<path d="M30.8457 62.6732C30.5159 62.2682 30.7546 62.1745 31.1245 62.1064L31.8695 62.0674L31.8721 62.116C31.8081 62.2384 31.6517 62.6829 31.5071 62.8984C31.3263 63.1677 31.1755 63.0782 30.8457 62.6732Z" fill="#E7EFF9"/>
<path d="M26.0748 66.4635L25.7548 60.3576L22.7975 58.1578C22.7452 56.7476 22.6171 53.7239 22.5225 52.9104C22.4042 51.8934 21.6611 51.3477 21.0738 50.9887C20.4866 50.6297 17.9477 48.9764 17.2778 48.5892C16.6079 48.2021 16.2124 47.7843 15.8478 47.0239C15.4831 46.2635 14.2911 44.2797 14.0602 43.5934C13.8294 42.9072 13.6786 42.5091 13.1697 42.4058C12.7626 42.3232 8.70761 41.4487 6.73099 41.0218C6.81434 40.5465 6.98994 39.5174 7.02547 39.2037C7.06988 38.8116 7.04612 38.3581 7.55158 38.3966C8.05705 38.435 16.5125 40.1844 17.5012 40.4573C18.4899 40.7303 18.0808 40.6706 18.3159 41.4378C18.504 42.0516 19.5358 44.8818 20.0281 46.2201C20.9043 46.8238 22.7339 48.0824 23.0435 48.287C23.4304 48.5428 23.8763 48.3733 24.1448 48.2293C24.4133 48.0853 31.16 44.8085 31.8096 44.4984C32.4592 44.1882 32.2144 44.7857 32.02 45.1045C31.8644 45.3595 28.0761 50.5243 26.2014 53.0748C26.2451 53.4948 26.3874 54.5787 26.6074 55.5545C26.8275 56.5304 27.1303 56.7506 27.2542 56.7387C27.9956 57.252 28.5334 57.5973 29.3755 58.1703C29.8527 58.6 29.5918 58.8898 29.4357 59.3202C29.2796 59.7507 27.0545 65.324 26.6255 66.4346C26.1965 67.5452 26.1037 67.0141 26.0748 66.4635Z" fill="#D9D9D9" stroke="#17283F" stroke-width="0.324809"/>
</g>
<path d="M23.6621 67.6892L23.4188 68.3418C22.5581 68.7469 21.606 68.9953 20.5973 69.0481C17.4948 69.2107 14.7315 67.4784 13.4311 64.8631L13.3816 63.9184L13.3731 63.7562L13.655 62.9283L13.9411 62.1815" stroke="#17283F" stroke-width="0.324809"/>
</g>
</g>
</g>
<defs>
<filter id="filter0_d_40000320_58116" x="-7" y="-3.49527" width="66.7394" height="111.385" filterUnits="userSpaceOnUse" color-interpolation-filters="sRGB">
<feFlood flood-opacity="0" result="BackgroundImageFix"/>
<feColorMatrix in="SourceAlpha" type="matrix" values="0 0 0 0 0 0 0 0 0 0 0 0 0 0 0 0 0 0 127 0" result="hardAlpha"/>
<feOffset dx="6" dy="-4"/>
<feGaussianBlur stdDeviation="2.57527"/>
<feComposite in2="hardAlpha" operator="out"/>
<feColorMatrix type="matrix" values="0 0 0 0 0.784314 0 0 0 0 0.843137 0 0 0 0 0.909804 0 0 0 0.25 0"/>
<feBlend mode="normal" in2="BackgroundImageFix" result="effect1_dropShadow_40000320_58116"/>
<feBlend mode="normal" in="SourceGraphic" in2="effect1_dropShadow_40000320_58116" result="shape"/>
</filter>
<filter id="filter1_d_40000320_58116" x="-35.4919" y="5.65527" width="114.747" height="157.778" filterUnits="userSpaceOnUse" color-interpolation-filters="sRGB">
<feFlood flood-opacity="0" result="BackgroundImageFix"/>
<feColorMatrix in="SourceAlpha" type="matrix" values="0 0 0 0 0 0 0 0 0 0 0 0 0 0 0 0 0 0 127 0" result="hardAlpha"/>
<feOffset dy="30.6667"/>
<feGaussianBlur stdDeviation="15.3333"/>
<feComposite in2="hardAlpha" operator="out"/>
<feColorMatrix type="matrix" values="0 0 0 0 0.784314 0 0 0 0 0.843137 0 0 0 0 0.909804 0 0 0 0.25 0"/>
<feBlend mode="normal" in2="BackgroundImageFix" result="effect1_dropShadow_40000320_58116"/>
<feBlend mode="normal" in="SourceGraphic" in2="effect1_dropShadow_40000320_58116" result="shape"/>
</filter>
<linearGradient id="paint0_linear_40000320_58116" x1="20.2365" y1="23.1172" x2="20.2365" y2="97.3361" gradientUnits="userSpaceOnUse">
<stop stop-color="#081D82"/>
<stop offset="0.178715" stop-color="#2965EE"/>
<stop offset="0.346152" stop-color="#BAA1D2"/>
<stop offset="0.547474" stop-color="#E48177"/>
<stop offset="1" stop-color="#D5D7DC"/>
</linearGradient>
<linearGradient id="paint1_linear_40000320_58116" x1="20.2365" y1="23.1172" x2="20.2365" y2="97.3361" gradientUnits="userSpaceOnUse">
<stop stop-color="#081D82"/>
<stop offset="0.202586" stop-color="#2965EE"/>
<stop offset="0.570911" stop-color="#BAA1D2"/>
<stop offset="0.771815" stop-color="#E48177"/>
<stop offset="1" stop-color="#D5D7DC"/>
</linearGradient>
<clipPath id="clip0_40000320_58116">
<rect width="77.3771" height="80" fill="white"/>
</clipPath>
</defs>
</svg>
