<svg width="99" height="149" viewBox="0 0 99 149" fill="none"
  xmlns="http://www.w3.org/2000/svg">
  <g opacity="0.2" filter="url(#filter0_d_415_15212)">
    <rect x="-0.000488281" y="22.2031" width="65.4723" height="126.784" rx="3.50353" transform="rotate(-9 -0.000488281 22.2031)" fill="#A158ED"/>
    <rect x="2.53455" y="38.2075" width="65.4723" height="3.94148" transform="rotate(-9 2.53455 38.2075)" fill="white"/>
    <rect x="2.73975" y="39.5051" width="65.4723" height="1.31383" transform="rotate(-9 2.73975 39.5051)" fill="#61B9F5"/>
    <rect x="3.14941" y="42.1006" width="65.4723" height="100.07" transform="rotate(-9 3.14941 42.1006)" fill="#4D6ECB"/>
    <path d="M10.0701 85.7881L77.8363 95.1188L81.6728 119.342L17.0066 129.584L10.0701 85.7881Z" fill="#65612E"/>
    <path d="M37.2627 120.168C26.6506 119.543 17.2704 113.136 13.9067 110.011L18.8051 140.938L83.4714 130.696L80.1829 109.934C70.2979 113.605 47.8748 120.793 37.2627 120.168Z" fill="#CDB389"/>
    <path d="M35.2191 96.793C33.5538 95.2164 34.4317 91.8215 34.5179 89.6844C34.7445 87.242 34.0804 86.9224 33.7305 84.7129C33.3805 82.5033 29.6206 78.4273 26.9011 76.4515C24.1816 74.4757 23.323 72.6298 24.7396 70.8483C26.1561 69.0667 33.7403 74.9436 36.2999 76.8032C38.8594 78.6628 40.3128 78.0079 42.9435 76.7419C45.5742 75.4758 43.4633 69.2983 43.0915 66.9507C42.7197 64.603 41.9773 62.5972 44.2812 61.9492C46.5851 61.3011 47.8743 66.7594 49.7665 71.5559C51.6587 76.3525 53.7095 78.5757 55.0549 79.9198C56.4003 81.2639 56.0666 82.7324 55.9654 83.8809C55.8642 85.0294 56.4903 87.1952 56.9853 88.5325C57.4802 89.8697 58.0695 90.9088 58.9062 92.6166C59.7429 94.3244 60.4115 94.0769 61.4151 95.0505C62.4187 96.024 62.0412 97.2163 61.8744 97.9505C61.7076 98.6847 61.1921 99.8989 60.7928 100.953C60.3935 102.007 59.8124 102.807 59.6893 103.817C59.5662 104.828 58.3383 106.013 57.2336 106.188C56.1288 106.363 54.9515 106.974 53.5418 107.906C52.1321 108.837 48.7221 106.97 48.2422 106.621C47.7623 106.273 41.2323 100.795 39.9526 99.8654C38.6728 98.9356 36.8844 98.3695 35.2191 96.793Z" fill="#F29600" stroke="black" stroke-width="0.437942"/>
    <path d="M44.8498 101.763C43.3926 101.661 42.2139 100.518 39.7032 99.3637L39.7374 99.58L44.9589 103.852L47.2308 105.598L48.8935 106.998L50.9203 107.896L53.1686 108.094L54.5969 107.314L56.2415 106.499L58.0456 105.992L59.3143 104.904L59.7748 103.612L59.3422 103.68L60.1442 102.445L61.8327 98.4083L62.048 96.2681L61.4099 95.0389L60.4078 94.3108L59.3714 93.3665L58.3972 91.4146L56.9787 88.7572L56.2314 85.4392L56.0088 84.0334L56.0474 81.4777L55.4264 80.3567L53.2852 78.0355L51.2746 75.1393L49.8497 71.0418L47.2342 65.0267L46.1004 62.7676C44.5855 60.9014 42.5339 62.6452 42.7257 63.8564C42.9655 65.3703 43.1421 65.7857 43.08 66.7932C43.0179 67.8007 44.3175 71.8072 44.5059 72.9967C44.6943 74.1862 44.1996 75.2621 43.8699 75.9795L43.8698 75.9795C43.2753 77.2727 41.5711 77.563 41.0304 77.6486C40.5978 77.7171 39.2092 78.0479 38.5604 78.1507C38.8355 78.2549 39.4359 78.4997 39.6364 78.6453C39.8869 78.8274 42.7274 79.2643 44.3098 79.457C45.8922 79.6498 50.0753 78.7656 51.1685 79.3684C52.2616 79.9712 54.4885 82.8332 54.7625 84.5634C55.0365 86.2936 56.4497 89.6169 56.6949 90.4649C56.94 91.3129 57.6124 92.7583 58.8939 94.5506C60.1754 96.343 60.033 96.1438 59.3221 97.2541C58.6111 98.3643 57.6893 98.8429 56.7449 99.8793C55.8006 100.916 54.5875 99.5558 53.3638 99.528C52.14 99.5001 52.0265 100.183 51.338 100.736C50.6496 101.288 50.1892 102.58 49.1645 102.41C48.1399 102.24 46.307 101.865 44.8498 101.763Z" fill="#D7890A"/>
    <path d="M35.2191 96.793C33.5538 95.2164 34.4317 91.8215 34.5179 89.6844C34.7445 87.242 34.0804 86.9224 33.7305 84.7129C33.3805 82.5033 29.6206 78.4273 26.9011 76.4515C24.1816 74.4757 23.323 72.6298 24.7396 70.8483C26.1561 69.0667 33.7403 74.9436 36.2999 76.8032C38.8594 78.6628 40.3128 78.0079 42.9435 76.7419C45.5742 75.4758 43.4633 69.2983 43.0915 66.9507C42.7197 64.603 41.9773 62.5972 44.2812 61.9492C46.5851 61.3011 47.8743 66.7594 49.7665 71.5559C51.6587 76.3525 53.7095 78.5757 55.0549 79.9198C56.4003 81.2639 56.0666 82.7324 55.9654 83.8809C55.8642 85.0294 56.4903 87.1952 56.9853 88.5325C57.4802 89.8697 58.0695 90.9088 58.9062 92.6166C59.7429 94.3244 60.4115 94.0769 61.4151 95.0505C62.4187 96.024 62.0412 97.2163 61.8744 97.9505C61.7076 98.6847 61.1921 99.8989 60.7928 100.953C60.3935 102.007 59.8124 102.807 59.6893 103.817C59.5662 104.828 58.3383 106.013 57.2336 106.188C56.1288 106.363 54.9515 106.974 53.5418 107.906C52.1321 108.837 48.7221 106.97 48.2422 106.621C47.7623 106.273 41.2323 100.795 39.9526 99.8654C38.6728 98.9356 36.8844 98.3695 35.2191 96.793Z" stroke="black" stroke-width="0.437942"/>
    <path d="M37.7091 77.571C38.4871 78.0141 39.3088 78.7333 39.8612 78.6458C40.4136 78.5583 42.3838 79.3787 43.5036 80.1923" stroke="black" stroke-width="0.437942"/>
    <path d="M47.6056 104.316C47.7587 105.282 48.3836 104.759 48.616 104.439L48.8604 103.975C48.5961 103.632 48.304 103.243 47.9393 102.847C47.7275 102.618 47.4531 102.374 47.141 102.124C47.2449 102.533 47.4831 103.542 47.6056 104.316Z" fill="white"/>
    <path d="M48.9351 87.684C49.2017 87.8778 49.738 88.4629 49.75 89.2537M48.5821 94.3933C48.9955 93.7616 49.7876 92.079 49.6487 90.4022M54.046 89.5642C53.9343 89.1572 53.7633 88.1368 53.9722 87.3109M51.0786 101.218C51.4054 100.6 52.1028 99.6397 52.7932 99.5304C53.4837 99.421 53.898 99.3554 54.3561 99.566C54.8141 99.7766 55.3884 99.8272 55.9407 99.7397C56.3827 99.6697 56.8322 99.4097 57.0018 99.2885M52.8383 102.496C52.9085 102.343 53.1317 102.025 53.4631 101.972C53.8774 101.907 54.3355 102.117 54.4954 102.234M59.6406 99.8615L60.8029 98.2618M39.0097 95.6263C39.1628 96.593 39.2872 98.2721 40.4576 98.5114C41.628 98.7507 42.1803 98.6632 43.3001 99.4768C44.1887 100.122 45.9423 101.166 47.141 102.124M60.0562 102.485C59.4969 103.423 58.6834 104.543 57.8985 104.95C57.1137 105.358 56.0158 104.682 55.1216 104.399C54.2274 104.116 53.6025 104.64 52.912 104.749C52.2216 104.859 51.1605 105.31 50.2882 105.165C49.7262 105.072 49.339 104.598 48.8604 103.975M47.141 102.124C47.4531 102.374 47.7275 102.618 47.9393 102.847C48.304 103.243 48.5961 103.632 48.8604 103.975M47.141 102.124C47.2449 102.533 47.4831 103.542 47.6056 104.316C47.7587 105.282 48.3836 104.759 48.616 104.439L48.8604 103.975" stroke="black" stroke-width="0.437942"/>
    <path d="M39.4357 88.481C39.9785 88.6309 41.5309 89.1967 43.398 90.2599C45.732 91.589 46.7355 92.5625 47.8484 94.2266" stroke="black" stroke-width="0.437942"/>
    <path d="M39.7321 88.5752L40.4538 93.1324C41.2756 93.8516 45.6878 94.0022 47.4831 93.7178C45.0625 90.5905 41.3072 88.9863 39.7321 88.5752Z" fill="white" stroke="black" stroke-width="0.437942"/>
    <path d="M44.1068 93.8282C42.955 92.9914 42.5304 90.7276 42.462 89.7003C45.027 90.8795 46.8806 92.8698 47.4867 93.7175C46.5975 93.764 44.6767 93.8512 44.1068 93.8282Z" fill="#008086" stroke="black" stroke-width="0.437942"/>
    <circle cx="44.1912" cy="91.6915" r="0.699093" transform="rotate(-9 44.1912 91.6915)" fill="white"/>
    <circle cx="44.7145" cy="92.3162" r="0.838912" transform="rotate(-9 44.7145 92.3162)" fill="black"/>
    <path d="M54.8541 89.2947C54.8136 89.7541 55.0997 91.1433 55.2478 91.7805C56.1601 90.3902 56.6252 89.1558 56.7437 88.7123L56.0151 85.0056C55.645 86.2439 54.8946 88.8353 54.8541 89.2947Z" fill="white" stroke="black" stroke-width="0.437942"/>
    <path d="M56.2484 90.0649C56.2419 88.5937 55.7891 87.1649 55.5635 86.6343L54.8524 89.2951L54.9181 89.7094L55.268 91.9189C55.4544 91.6063 55.9115 90.7978 56.2484 90.0649Z" fill="#008086" stroke="black" stroke-width="0.437942"/>
    <path d="M55.6315 89.7379C55.684 90.0694 55.2222 90.1331 54.9848 90.1235L54.8317 89.1568C54.8873 88.9121 55.0537 88.4138 55.2747 88.3788C55.5509 88.3351 55.5659 89.3236 55.6315 89.7379Z" fill="black" stroke="black" stroke-width="0.437942"/>
    <rect x="-0.000488281" y="22.3877" width="65.4723" height="126.31" rx="3.50353" transform="rotate(-9 -0.000488281 22.3877)" fill="#005BA6"/>
  </g>
  <rect x="3.45996" y="16.2019" width="65.2154" height="126.287" rx="3.48979" transform="rotate(-9 3.45996 16.2019)" fill="#A158ED"/>
  <rect x="5.98486" y="32.1436" width="65.2154" height="3.92601" transform="rotate(-9 5.98486 32.1436)" fill="white"/>
  <rect x="6.18958" y="33.436" width="65.2154" height="1.30867" transform="rotate(-9 6.18958 33.436)" fill="#61B9F5"/>
  <g clip-path="url(#clip0_415_15212)">
    <rect x="6.599" y="36.0212" width="65.2154" height="99.677" transform="rotate(-9 6.599 36.0212)" fill="#F0F0CE"/>
    <path d="M83.9573 107.378C78.6299 101.262 64.4493 99.4976 15.0741 97.1739C16.596 114.469 19.8717 150.225 20.7991 154.89C21.9584 160.722 52.5755 154.693 69.6023 152.115C83.2237 150.051 91.3425 142.105 93.6992 138.39C92.2277 130.091 88.2192 112.27 83.9573 107.378Z" fill="url(#paint0_linear_415_15212)"/>
    <path d="M47.5961 25.553L42.7717 59.4485L79.1231 74.4423L73.6169 24.1436L47.5961 25.553Z" fill="#DFD67A"/>
    <path d="M47.4121 58.0738L25.0552 30.7773L4.90771 32.3142L10.6399 68.5058L47.4121 58.0738Z" fill="#7A6641"/>
    <path d="M29.3896 59.9518L9.43284 60.8843L12.4952 80.2192L80.9746 88.7238L76.3721 59.6644C66.2065 59.3198 45.076 58.3351 41.879 57.1527C41.2025 53.6242 40.1522 53.6733 33.9588 54.6543C29.004 55.439 28.8482 58.5129 29.3896 59.9518Z" fill="#A1804A"/>
    <path d="M55.1841 57.2704C51.0403 64.0079 52.0467 74.9034 53.0678 79.509C53.4648 81.6568 54.9088 84.82 57.5089 80.2904C60.7591 74.6283 60.9917 62.0958 59.5888 57.6579C58.186 53.22 56.8986 54.3318 55.1841 57.2704Z" fill="#F4D458"/>
    <path d="M53.0678 79.509C52.0467 74.9034 51.0403 64.0079 55.1841 57.2704C56.8986 54.3318 58.186 53.22 59.5888 57.6579C60.9917 62.0958 60.7591 74.6283 57.5089 80.2904" stroke="black" stroke-width="0.516937" stroke-linecap="round"/>
    <path d="M57.6 61.309C55.7677 60.4666 54.3292 62.1102 52.6008 65.4985C53.2518 58.8832 56.5938 54.9561 57.3787 54.5487C58.1636 54.1412 59.066 56.2634 59.5609 57.6007C59.9569 58.6706 60.3676 62.0976 60.5234 63.6774C60.1597 63.1687 59.0658 61.9829 57.6 61.309Z" fill="black" stroke="black" stroke-width="0.516937"/>
    <path d="M60.6264 96.5053C59.1004 97.5964 55.0884 99.0813 52.3701 99.795C43.4301 102.343 40.4929 101.676 37.1184 98.2466C31.9699 93.0142 33.1887 89.5254 33.8125 86.3121C34.5585 82.4687 38.0243 77.1508 39.5065 75.7834C40.9888 74.4161 47.4866 72.5375 54.8732 74.4822C62.2597 76.4268 63.4271 85.5855 64.272 89.1325C65.117 92.6795 62.1524 95.4142 60.6264 96.5053Z" fill="#F4D458" stroke="black" stroke-width="0.516937"/>
    <path fill-rule="evenodd" clip-rule="evenodd" d="M63.4579 86.5942C63.566 87.0704 63.662 87.5205 63.7503 87.9349C63.8486 88.3959 63.9375 88.8127 64.0231 89.1719C64.449 90.9597 63.907 92.5411 63.0693 93.8097C62.4725 93.1789 62.0166 92.3359 61.8033 91.3618C61.3659 89.3645 62.0855 87.4417 63.4579 86.5942Z" fill="#E95C45"/>
    <path d="M56.4505 89.8051C56.538 90.3575 55.8778 90.1223 55.6219 89.9364C55.6073 89.8443 55.6334 89.6514 55.8543 89.6164C56.0753 89.5814 56.3439 89.7276 56.4505 89.8051Z" stroke="black" stroke-width="0.516937"/>
    <path d="M22.5349 65.1639C24.8647 72.7229 33.7169 79.1544 37.8518 81.4252C39.7278 82.5438 43.0576 83.5453 41.3688 78.6031C39.2577 72.4252 29.9926 63.9827 25.7319 62.1093C21.4712 60.2359 21.4575 61.9369 22.5349 65.1639Z" fill="#F4D458"/>
    <path d="M31.1274 65.785C27.6242 66.9061 27.9905 72.7941 28.8491 74.6401C23.831 69.772 22.0837 64.1028 21.9087 62.998C21.7337 61.8932 21.9662 61.5732 23.3472 61.3545C24.7283 61.1357 28.5678 63.9253 31.1274 65.785Z" fill="black" stroke="black" stroke-width="0.516937"/>
    <path d="M51.5962 93.1221C52.5561 93.8195 55.3619 93.6582 56.0156 92.4222C56.429 91.6404 56.8538 92.1628 57.1204 92.2472C57.7166 92.4359 58.3565 92.9008 59.1989 91.0685" stroke="black" stroke-width="0.516937" stroke-linecap="round"/>
    <path d="M37.8518 81.4252C33.7169 79.1544 24.8647 72.7229 22.5349 65.1639C21.4575 61.9369 21.4712 60.2359 25.7319 62.1093C29.9926 63.9827 39.2577 72.4252 41.3688 78.6031" stroke="black" stroke-width="0.516937" stroke-linecap="round"/>
    <ellipse cx="41.9219" cy="95.0825" rx="3.63551" ry="4.47447" transform="rotate(-29.2572 41.9219 95.0825)" fill="#E95C45"/>
    <circle cx="44.6008" cy="88.2841" r="3.0762" transform="rotate(-9 44.6008 88.2841)" fill="black"/>
    <ellipse cx="60.0903" cy="84.9997" rx="2.23723" ry="3.0762" transform="rotate(-17.5295 60.0903 84.9997)" fill="black"/>
    <circle cx="45.2983" cy="87.3244" r="1.11862" transform="rotate(-9 45.2983 87.3244)" fill="white"/>
    <ellipse cx="59.2101" cy="83.9883" rx="0.838963" ry="1.11862" transform="rotate(-16.3782 59.2101 83.9883)" fill="white"/>
  </g>
  <defs>
    <filter id="filter0_d_415_15212" x="0" y="0.124519" width="98.5325" height="148.311" filterUnits="userSpaceOnUse" color-interpolation-filters="sRGB">
      <feFlood flood-opacity="0" result="BackgroundImageFix"/>
      <feColorMatrix in="SourceAlpha" type="matrix" values="0 0 0 0 0 0 0 0 0 0 0 0 0 0 0 0 0 0 127 0" result="hardAlpha"/>
      <feOffset dx="7.82259" dy="-5.21506"/>
      <feGaussianBlur stdDeviation="3.35755"/>
      <feComposite in2="hardAlpha" operator="out"/>
      <feColorMatrix type="matrix" values="0 0 0 0 0.784314 0 0 0 0 0.843137 0 0 0 0 0.909804 0 0 0 0.25 0"/>
      <feBlend mode="normal" in2="BackgroundImageFix" result="effect1_dropShadow_415_15212"/>
      <feBlend mode="normal" in="SourceGraphic" in2="effect1_dropShadow_415_15212" result="shape"/>
    </filter>
    <linearGradient id="paint0_linear_415_15212" x1="116.807" y1="134.848" x2="7.80808" y2="115.51" gradientUnits="userSpaceOnUse">
      <stop stop-color="#64513C"/>
      <stop offset="0.87" stop-color="#FFFFF6"/>
    </linearGradient>
    <clipPath id="clip0_415_15212">
      <rect width="65.2154" height="99.677" fill="white" transform="translate(6.599 36.0212) rotate(-9)"/>
    </clipPath>
  </defs>
</svg>
