<svg width="52" height="104" viewBox="0 0 52 104" fill="none" xmlns="http://www.w3.org/2000/svg">
<g clip-path="url(#clip0_40001442_27256)">
<g filter="url(#filter0_d_40001442_27256)">
<rect x="-7" y="10.6289" width="50.2178" height="97.2445" rx="2.68724" transform="rotate(-3 -7 10.6289)" fill="#A158ED"/>
<rect x="-6.34961" y="23.041" width="50.2178" height="3.02315" transform="rotate(-3 -6.34961 23.041)" fill="white"/>
<rect x="-6.29688" y="24.0469" width="50.2178" height="1.00772" transform="rotate(-3 -6.29688 24.0469)" fill="#61B9F5"/>
<rect x="-6.19238" y="26.0586" width="50.2178" height="76.7543" transform="rotate(-3 -6.19238 26.0586)" fill="#4D6ECB"/>
<path d="M-4.41602 59.9395L46.5285 72.4901L47.513 91.275L-2.63605 93.9032L-4.41602 59.9395Z" fill="#65612E"/>
<path d="M13.5701 88.345C5.52525 87.0175 -1.11642 81.3783 -3.43164 78.7246L-2.17468 102.709L47.9743 100.081L47.1305 83.9794C39.2957 85.9877 21.615 89.6725 13.5701 88.345Z" fill="#CDB389"/>
<path d="M12.1507 61.3502C11.0068 60.014 11.9486 57.4947 12.1857 55.8715C12.5544 54.0265 12.0735 53.7296 11.9837 52.016C11.8939 50.3025 9.35256 46.8919 7.43653 45.1666C5.5205 43.4414 5.01354 41.9646 6.23694 40.7192C7.46035 39.4738 12.7744 44.5647 14.5778 46.1885C16.3811 47.8122 17.5423 47.4291 19.6505 46.6743C21.7588 45.9195 20.6438 41.038 20.5484 39.2174C20.453 37.3968 20.0475 35.8072 21.8569 35.4976C23.6663 35.188 24.2121 39.455 25.2709 43.2655C26.3297 47.076 27.7159 48.9364 28.6344 50.0695C29.5529 51.2027 29.1806 52.2961 29.0113 53.1641C28.8421 54.032 29.1461 55.7343 29.4164 56.7941C29.6867 57.8538 30.0529 58.6937 30.5542 60.0635C31.0556 61.4333 31.5854 61.2981 32.2729 62.1212C32.9604 62.9443 32.5769 63.8235 32.3908 64.3702C32.2046 64.9169 31.7141 65.8017 31.325 66.5739C30.9359 67.346 30.4285 67.9095 30.2536 68.6704C30.0787 69.4313 29.047 70.2371 28.1902 70.282C27.3335 70.3269 26.3865 70.6987 25.2365 71.2959C24.0865 71.8931 21.635 70.196 21.2969 69.8915C20.9587 69.5871 16.4167 64.8852 15.5151 64.0733C14.6134 63.2615 13.2946 62.6863 12.1507 61.3502Z" fill="#F29600" stroke="black" stroke-width="0.335905"/>
<path d="M19.0981 65.9133C17.9948 65.7188 17.1873 64.752 15.3646 63.6703L15.3734 63.838L19.0139 67.5154L20.6069 69.0297L21.763 70.2304L23.237 71.0782L24.9362 71.4096L26.0883 70.9288L27.4081 70.4391L28.825 70.1967L29.88 69.4687L30.3348 68.5198L29.9994 68.5374L30.7102 67.6593L32.3218 64.7157L32.6576 63.1003L32.2695 62.1116L31.5634 61.4759L30.8486 60.6724L30.2619 59.1054L29.3929 56.9646L29.0889 54.3737L29.0318 53.2835L29.2661 51.3371L28.8823 50.4322L27.4351 48.4898L26.1336 46.1194L25.3751 42.8796L23.8623 38.0815L23.1786 36.2674C22.1726 34.7223 20.4678 35.8881 20.517 36.8273C20.5785 38.0014 20.68 38.3324 20.5518 39.096C20.4236 39.8595 21.0938 43.0199 21.1422 43.9423C21.1905 44.8648 20.7269 45.6459 20.4178 46.1666L20.4178 46.1667C19.8606 47.1055 18.5374 47.1902 18.1181 47.2122C17.7826 47.2298 16.6968 47.3708 16.1936 47.3971C16.3952 47.4987 16.8336 47.7336 16.9748 47.8608C17.1513 48.0197 19.283 48.5807 20.4746 48.8546C21.6662 49.1285 24.928 48.7894 25.7135 49.3369C26.4991 49.8844 27.9683 52.246 28.0386 53.5878C28.1089 54.9296 28.9205 57.578 29.0395 58.2445C29.1585 58.911 29.5555 60.0674 30.3893 61.5374C31.2232 63.0073 31.1306 62.844 30.4992 63.6339C29.8679 64.4238 29.1263 64.715 28.3229 65.4298C27.5194 66.1446 26.7031 65.0101 25.7719 64.8908C24.8406 64.7714 24.6993 65.2833 24.1298 65.6496C23.5604 66.0158 23.1055 66.9646 22.3376 66.7526C21.5697 66.5405 20.2015 66.1077 19.0981 65.9133Z" fill="#D7890A"/>
<path d="M12.1507 61.3502C11.0068 60.014 11.9486 57.4947 12.1857 55.8715C12.5544 54.0265 12.0735 53.7296 11.9837 52.016C11.8939 50.3025 9.35256 46.8919 7.43653 45.1666C5.5205 43.4414 5.01354 41.9646 6.23694 40.7192C7.46035 39.4738 12.7744 44.5647 14.5778 46.1885C16.3811 47.8122 17.5423 47.4291 19.6505 46.6743C21.7588 45.9195 20.6438 41.038 20.5484 39.2174C20.453 37.3968 20.0475 35.8072 21.8569 35.4976C23.6663 35.188 24.2121 39.455 25.2709 43.2655C26.3297 47.076 27.7159 48.9364 28.6344 50.0695C29.5529 51.2027 29.1806 52.2961 29.0113 53.1641C28.8421 54.032 29.1461 55.7343 29.4164 56.7941C29.6867 57.8538 30.0529 58.6937 30.5542 60.0635C31.0556 61.4333 31.5854 61.2981 32.2729 62.1212C32.9604 62.9443 32.5769 63.8235 32.3908 64.3702C32.2046 64.9169 31.7141 65.8017 31.325 66.5739C30.9359 67.346 30.4285 67.9095 30.2536 68.6704C30.0787 69.4313 29.047 70.2371 28.1902 70.282C27.3335 70.3269 26.3865 70.6987 25.2365 71.2959C24.0865 71.8931 21.635 70.196 21.2969 69.8915C20.9587 69.5871 16.4167 64.8852 15.5151 64.0733C14.6134 63.2615 13.2946 62.6863 12.1507 61.3502Z" stroke="black" stroke-width="0.335905"/>
<path d="M15.5908 46.8867C16.1487 47.287 16.7179 47.9015 17.1463 47.8791C17.5747 47.8566 19.0118 48.6404 19.8008 49.3508" stroke="black" stroke-width="0.335905"/>
<path d="M20.9961 68.0819C21.0354 68.8315 21.554 68.4822 21.757 68.2568L21.9806 67.9229C21.8065 67.6396 21.6149 67.3194 21.3684 66.9885C21.2252 66.7964 21.0354 66.5884 20.8174 66.373C20.8639 66.6927 20.9647 67.4821 20.9961 68.0819Z" fill="white"/>
<path d="M23.3437 55.5017C23.5316 55.6708 23.8937 56.1602 23.8394 56.7644M22.5365 60.5913C22.9025 60.1426 23.6417 58.9225 23.6702 57.6324M27.0916 57.3457C27.039 57.0263 26.9904 56.2341 27.216 55.6209M23.8937 65.997C24.1926 65.5518 24.8015 64.8756 25.337 64.8475C25.8724 64.8194 26.1937 64.8026 26.5262 64.9999C26.8587 65.1973 27.2927 65.2819 27.7211 65.2595C28.0638 65.2415 28.4276 65.0793 28.5666 65.0004M25.1335 67.1133C25.1993 67.0025 25.3951 66.7774 25.6522 66.764C25.9735 66.7471 26.306 66.9445 26.4187 67.046M30.5336 65.649L31.5485 64.522M15.1358 60.7644C15.175 61.514 15.1353 62.8048 16.0089 63.0812C16.8825 63.3576 17.3109 63.3351 18.0998 64.0455C18.7259 64.6092 19.9799 65.5456 20.8174 66.373M30.6403 67.6838C30.1385 68.3545 29.4281 69.1434 28.7968 69.3913C28.1654 69.6392 27.3821 69.0359 26.7227 68.7483C26.0633 68.4607 25.5446 68.81 25.0091 68.8381C24.4737 68.8661 23.6281 69.1252 22.9743 68.9447C22.5531 68.8284 22.2957 68.4361 21.9806 67.9229M20.8174 66.373C21.0354 66.5884 21.2252 66.7964 21.3684 66.9885C21.6149 67.3194 21.8065 67.6396 21.9806 67.9229M20.8174 66.373C20.8639 66.6927 20.9647 67.4821 20.9961 68.0819C21.0354 68.8315 21.554 68.4822 21.757 68.2568L21.9806 67.9229" stroke="black" stroke-width="0.335905"/>
<path d="M16.0332 55.3477C16.4352 55.5056 17.5741 56.0616 18.9131 57.0223C20.5869 58.2233 21.2743 59.0464 21.9899 60.4049" stroke="black" stroke-width="0.335905"/>
<path d="M16.252 55.4434L16.4372 58.9775C17.0063 59.592 20.3599 60.0606 21.7522 59.9876C20.1565 57.408 17.4205 55.8833 16.252 55.4434Z" fill="white" stroke="black" stroke-width="0.335905"/>
<path d="M19.1678 59.8009C18.3563 59.0702 18.2139 57.3094 18.2442 56.5203C20.1062 57.6254 21.3606 59.2922 21.755 59.9875C21.073 59.9516 19.6007 59.8641 19.1678 59.8009Z" fill="#008086" stroke="black" stroke-width="0.335905"/>
<circle cx="19.4034" cy="58.1773" r="0.536211" transform="rotate(-3 19.4034 58.1773)" fill="white"/>
<circle cx="19.7524" cy="58.6968" r="0.643453" transform="rotate(-3 19.7524 58.6968)" fill="black"/>
<path d="M27.7296 57.2048C27.6619 57.552 27.7687 58.6346 27.8306 59.1326C28.638 58.1452 29.0918 57.2408 29.2177 56.9121L28.9591 54.0261C28.5775 54.941 27.7973 56.8576 27.7296 57.2048Z" fill="white" stroke="black" stroke-width="0.335905"/>
<path d="M28.7311 57.9042C28.8441 56.7814 28.6133 55.6552 28.4837 55.2324L27.728 57.2051L27.7448 57.5263L27.8346 59.2399C28.0019 59.0163 28.4154 58.4362 28.7311 57.9042Z" fill="#008086" stroke="black" stroke-width="0.335905"/>
<path d="M28.2869 57.6054C28.3004 57.8624 27.943 57.874 27.7627 57.8476L27.7234 57.098C27.7854 56.9157 27.9523 56.549 28.1237 56.54C28.3379 56.5288 28.2701 57.2841 28.2869 57.6054Z" fill="black" stroke="black" stroke-width="0.335905"/>
<g clip-path="url(#clip1_40001442_27256)">
<rect x="-7" y="10.6211" width="50.0915" height="97" rx="2.68048" transform="rotate(-3 -7 10.6211)" fill="#F4D546"/>
<circle cx="-1.2521" cy="16.2754" r="8.46028" transform="rotate(-3 -1.2521 16.2754)" fill="#FF3850"/>
<path d="M-0.808737 24.7247C3.85734 24.4801 7.44171 20.4993 7.19717 15.8332L-9.7002 16.7188C-9.45566 21.3848 -5.47481 24.9692 -0.808737 24.7247Z" fill="white"/>
<path d="M-9.69922 16.7441L7.19815 15.8586" stroke="black" stroke-width="0.634521"/>
<circle cx="-1.25142" cy="16.2756" r="2.16795" transform="rotate(-3 -1.25142 16.2756)" fill="white" stroke="black" stroke-width="0.634521"/>
<rect x="-6.35156" y="23.002" width="50.0915" height="3.01554" transform="rotate(-3 -6.35156 23.002)" fill="white"/>
<rect x="-6.29883" y="24.0059" width="50.0915" height="1.00518" transform="rotate(-3 -6.29883 24.0059)" fill="#61B9F5"/>
<g clip-path="url(#clip2_40001442_27256)">
<rect width="50.0915" height="76.5613" transform="translate(-6.19336 26.0137) rotate(-3)" fill="url(#paint0_linear_40001442_27256)"/>
<path d="M23.323 63.1965C18.8891 66.0186 18.1634 69.5926 18.3547 71.0268L24.3643 70.7119C24.1786 68.6897 24.8087 66.5218 25.147 65.6906L27.8409 70.5297L34.3968 70.1861C33.3194 68.3169 30.9111 64.1136 29.8973 62.2543C35.1068 60.547 36.2148 56.4118 36.1177 54.5576L29.5121 54.9038C29.6659 56.8878 29.2054 58.5554 28.11 59.5093C26.2812 55.0233 24.9043 55.3588 24.0985 55.1875C23.4539 55.0505 20.2208 55.3195 18.6849 55.4712C19.65 57.0973 21.9287 60.9189 23.323 63.1965Z" fill="#BA8B15" stroke="black" stroke-width="1.29309"/>
<path d="M14.8404 55.2736C15.1144 55.2593 15.761 55.309 16.5185 55.5162C17.2785 55.7242 18.1684 56.0967 18.915 56.7411C19.6651 57.3888 20.2664 58.3087 20.4474 59.5955C20.6276 60.878 20.3879 62.5087 19.4902 64.5811L19.4413 64.6942L11.1432 65.1291C11.0737 65.9339 11.34 66.8686 12.3125 67.3258C13.3772 67.8259 15.3569 67.7959 18.8332 66.2829L19.061 66.5986C18.2206 67.5319 17.715 68.306 17.7704 69.3642L17.7769 69.4891L17.6666 69.5486C16.3793 70.2538 13.9115 72.0202 10.3604 71.3905C8.63212 71.084 7.02762 70.6708 6.06637 69.4114C5.10211 68.1476 4.82781 66.0935 5.57114 62.6302C6.32669 59.1104 8.39761 57.2774 10.406 56.3245C12.4052 55.3761 14.3404 55.2998 14.8404 55.2736ZM14.0461 59.3354C13.5811 59.2868 13.0732 59.4209 12.6902 59.9424C11.9992 60.8835 11.4302 62.4885 11.232 63.1667L11.1532 63.4358L11.4331 63.4211C13.3141 63.3225 14.3703 62.7427 14.9019 62.0072C15.4311 61.2749 15.4073 60.4338 15.2248 59.8829L15.2051 59.8243L15.1562 59.7867C14.9113 59.6007 14.4982 59.3829 14.0461 59.3354Z" fill="#BA8B15"/>
<path d="M14.8404 55.2736L14.8067 54.628L14.8066 54.628L14.8404 55.2736ZM16.5185 55.5162L16.6892 54.8926L16.6892 54.8926L16.5185 55.5162ZM18.915 56.7411L19.3376 56.2518L19.3375 56.2517L18.915 56.7411ZM20.4474 59.5955L21.0876 59.5055L21.0876 59.5054L20.4474 59.5955ZM19.4902 64.5811L18.8969 64.3241L18.8966 64.3248L19.4902 64.5811ZM19.4413 64.6942L19.4752 65.3399L19.8758 65.3189L20.0349 64.9506L19.4413 64.6942ZM11.1432 65.1291L11.1093 64.4834L10.5474 64.5129L10.499 65.0735L11.1432 65.1291ZM12.3125 67.3258L12.0374 67.9109L12.0376 67.911L12.3125 67.3258ZM18.8332 66.2829L19.3575 65.9046L19.0528 65.4822L18.5752 65.6901L18.8332 66.2829ZM19.061 66.5986L19.5415 67.0312L19.8906 66.6434L19.5853 66.2202L19.061 66.5986ZM17.7704 69.3642L17.1247 69.398L17.1247 69.3981L17.7704 69.3642ZM17.7769 69.4891L18.0841 70.058L18.444 69.8636L18.4226 69.4552L17.7769 69.4891ZM17.6666 69.5486L17.3594 68.9797L17.356 68.9816L17.6666 69.5486ZM10.3604 71.3905L10.2475 72.0272L10.2475 72.0272L10.3604 71.3905ZM6.06637 69.4114L5.55235 69.8036L5.55243 69.8037L6.06637 69.4114ZM5.57114 62.6302L4.939 62.4945L4.93899 62.4945L5.57114 62.6302ZM10.406 56.3245L10.1288 55.7404L10.1288 55.7404L10.406 56.3245ZM14.0461 59.3354L14.1135 58.6924L14.1134 58.6924L14.0461 59.3354ZM12.6902 59.9424L12.1691 59.5597L12.1691 59.5597L12.6902 59.9424ZM11.232 63.1667L11.8525 63.3483L11.8526 63.3481L11.232 63.1667ZM11.1532 63.4358L10.5327 63.2542L10.2765 64.1292L11.187 64.0815L11.1532 63.4358ZM11.4331 63.4211L11.4669 64.0668L11.4669 64.0668L11.4331 63.4211ZM14.9019 62.0072L15.4259 62.386L15.4259 62.3859L14.9019 62.0072ZM15.2248 59.8829L15.8385 59.6795L15.8376 59.677L15.2248 59.8829ZM15.2051 59.8243L15.8179 59.6183L15.7551 59.4314L15.5987 59.3114L15.2051 59.8243ZM15.1562 59.7867L15.5498 59.2738L15.5473 59.2719L15.1562 59.7867ZM14.8404 55.2736L14.8742 55.9193C15.0647 55.9094 15.6413 55.9465 16.3479 56.1398L16.5185 55.5162L16.6892 54.8926C15.8808 54.6714 15.164 54.6093 14.8067 54.628L14.8404 55.2736ZM16.5185 55.5162L16.3478 56.1398C17.0492 56.3318 17.8417 56.6688 18.4926 57.2306L18.915 56.7411L19.3375 56.2517C18.4952 55.5247 17.5077 55.1167 16.6892 54.8926L16.5185 55.5162ZM18.915 56.7411L18.4925 57.2305C19.1349 57.7852 19.6499 58.5676 19.8071 59.6856L20.4474 59.5955L21.0876 59.5054C20.8828 58.0498 20.1952 56.9923 19.3376 56.2518L18.915 56.7411ZM20.4474 59.5955L19.8071 59.6855C19.9657 60.814 19.7644 62.3215 18.8969 64.3241L19.4902 64.5811L20.0834 64.8381C21.0114 62.6959 21.2895 60.942 21.0876 59.5055L20.4474 59.5955ZM19.4902 64.5811L18.8966 64.3248L18.8478 64.4378L19.4413 64.6942L20.0349 64.9506L20.0837 64.8375L19.4902 64.5811ZM19.4413 64.6942L19.4075 64.0485L11.1093 64.4834L11.1432 65.1291L11.177 65.7747L19.4752 65.3399L19.4413 64.6942ZM11.1432 65.1291L10.499 65.0735C10.4152 66.0446 10.7376 67.2999 12.0374 67.9109L12.3125 67.3258L12.5875 66.7407C11.9423 66.4374 11.7322 65.8231 11.7873 65.1847L11.1432 65.1291ZM12.3125 67.3258L12.0376 67.911C13.3715 68.5376 15.5841 68.4021 19.0912 66.8757L18.8332 66.2829L18.5752 65.6901C15.1297 67.1896 13.3829 67.1143 12.5873 66.7406L12.3125 67.3258ZM18.8332 66.2829L18.3089 66.6612L18.5367 66.9769L19.061 66.5986L19.5853 66.2202L19.3575 65.9046L18.8332 66.2829ZM19.061 66.5986L18.5805 66.1659C17.7184 67.1234 17.0551 68.0672 17.1247 69.398L17.7704 69.3642L18.416 69.3304C18.3749 68.5447 18.7228 67.9404 19.5415 67.0312L19.061 66.5986ZM17.7704 69.3642L17.1247 69.3981L17.1313 69.5229L17.7769 69.4891L18.4226 69.4552L18.416 69.3304L17.7704 69.3642ZM17.7769 69.4891L17.4697 68.9201L17.3594 68.9797L17.6666 69.5486L17.9738 70.1175L18.0841 70.058L17.7769 69.4891ZM17.6666 69.5486L17.356 68.9816C16.0044 69.7219 13.7552 71.3359 10.4733 70.7539L10.3604 71.3905L10.2475 72.0272C14.0679 72.7046 16.7542 70.7856 17.9772 70.1157L17.6666 69.5486ZM10.3604 71.3905L10.4733 70.7539C8.72723 70.4443 7.37158 70.0558 6.58031 69.0191L6.06637 69.4114L5.55243 69.8037C6.68366 71.2857 8.53701 71.7238 10.2475 72.0272L10.3604 71.3905ZM6.06637 69.4114L6.58039 69.0192C5.79617 67.9914 5.46931 66.1856 6.20329 62.7658L5.57114 62.6302L4.93899 62.4945C4.18631 66.0014 4.40805 68.3038 5.55235 69.8036L6.06637 69.4114ZM5.57114 62.6302L6.20328 62.7659C6.91002 59.4734 8.82581 57.7899 10.6831 56.9087L10.406 56.3245L10.1288 55.7404C7.96941 56.765 5.74336 58.7473 4.939 62.4945L5.57114 62.6302ZM10.406 56.3245L10.6831 56.9087C12.5591 56.0188 14.3833 55.945 14.8743 55.9193L14.8404 55.2736L14.8066 54.628C14.2974 54.6547 12.2514 54.7335 10.1288 55.7404L10.406 56.3245ZM14.0461 59.3354L14.1134 58.6924C13.4588 58.6239 12.7097 58.8236 12.1691 59.5597L12.6902 59.9424L13.2113 60.3251C13.4367 60.0183 13.7034 59.9496 13.9788 59.9785L14.0461 59.3354ZM12.6902 59.9424L12.1691 59.5597C11.4071 60.5974 10.8131 62.2953 10.6114 62.9853L11.232 63.1667L11.8526 63.3481C12.0473 62.6817 12.5912 61.1697 13.2114 60.325L12.6902 59.9424ZM11.232 63.1667L10.6115 62.985L10.5327 63.2542L11.1532 63.4358L11.7737 63.6175L11.8525 63.3483L11.232 63.1667ZM11.1532 63.4358L11.187 64.0815L11.4669 64.0668L11.4331 63.4211L11.3992 62.7755L11.1193 62.7902L11.1532 63.4358ZM11.4331 63.4211L11.4669 64.0668C13.4566 63.9625 14.737 63.339 15.4259 62.386L14.9019 62.0072L14.3779 61.6284C14.0035 62.1464 13.1715 62.6826 11.3992 62.7755L11.4331 63.4211ZM14.9019 62.0072L15.4259 62.3859C16.105 61.4463 16.0696 60.3771 15.8385 59.6795L15.2248 59.8829L14.611 60.0863C14.745 60.4906 14.7573 61.1035 14.3779 61.6285L14.9019 62.0072ZM15.2248 59.8829L15.8376 59.677L15.8179 59.6183L15.2051 59.8243L14.5922 60.0302L14.6119 60.0888L15.2248 59.8829ZM15.2051 59.8243L15.5987 59.3114L15.5498 59.2738L15.1562 59.7867L14.7625 60.2997L14.8115 60.3372L15.2051 59.8243ZM15.1562 59.7867L15.5473 59.2719C15.2362 59.0356 14.7138 58.7554 14.1135 58.6924L14.0461 59.3354L13.9786 59.9784C14.2825 60.0103 14.5863 60.1658 14.765 60.3016L15.1562 59.7867Z" fill="black"/>
<path d="M23.323 63.1965C18.8891 66.0186 18.1634 69.5926 18.3547 71.0268L24.3643 70.7119C24.1786 68.6897 24.8087 66.5218 25.147 65.6906L27.8409 70.5297L34.3968 70.1861C33.3194 68.3169 30.9111 64.1136 29.8973 62.2543C35.1068 60.547 36.2148 56.4118 36.1177 54.5576L29.5121 54.9038C29.6659 56.8878 29.2054 58.5554 28.11 59.5093C26.2812 55.0233 24.9043 55.3588 24.0985 55.1875C23.4539 55.0505 20.2208 55.3195 18.6849 55.4712C19.65 57.0973 21.9287 60.9189 23.323 63.1965Z" fill="#F0C864" stroke="#737478" stroke-width="0.397872"/>
<path d="M14.8404 55.2736C15.1144 55.2593 15.761 55.309 16.5185 55.5162C17.2785 55.7242 18.1684 56.0967 18.915 56.7411C19.6651 57.3888 20.2664 58.3087 20.4474 59.5955C20.6276 60.878 20.3879 62.5087 19.4902 64.5811L19.4413 64.6942L11.1432 65.1291C11.0737 65.9339 11.34 66.8686 12.3125 67.3258C13.3772 67.8259 15.3569 67.7959 18.8332 66.2829L19.061 66.5986C18.2206 67.5319 17.715 68.306 17.7704 69.3642L17.7769 69.4891L17.6666 69.5486C16.3793 70.2538 13.9115 72.0202 10.3604 71.3905C8.63212 71.084 7.02762 70.6708 6.06637 69.4114C5.10211 68.1476 4.82781 66.0935 5.57114 62.6302C6.32669 59.1104 8.39761 57.2774 10.406 56.3245C12.4052 55.3761 14.3404 55.2998 14.8404 55.2736ZM14.0461 59.3354C13.5811 59.2868 13.0732 59.4209 12.6902 59.9424C11.9992 60.8835 11.4302 62.4885 11.232 63.1667L11.1532 63.4358L11.4331 63.4211C13.3141 63.3225 14.3703 62.7427 14.9019 62.0072C15.4311 61.2749 15.4073 60.4338 15.2248 59.8829L15.2051 59.8243L15.1562 59.7867C14.9113 59.6007 14.4982 59.3829 14.0461 59.3354Z" fill="#F0C864"/>
<path d="M14.8404 55.2736L14.8301 55.075L14.83 55.075L14.8404 55.2736ZM16.5185 55.5162L16.571 55.3244L16.571 55.3243L16.5185 55.5162ZM18.915 56.7411L19.045 56.5905L19.045 56.5905L18.915 56.7411ZM20.4474 59.5955L20.6444 59.5678L20.6443 59.5678L20.4474 59.5955ZM19.4902 64.5811L19.3076 64.5021L19.3075 64.5023L19.4902 64.5811ZM19.4413 64.6942L19.4517 64.8929L19.575 64.8864L19.624 64.7731L19.4413 64.6942ZM11.1432 65.1291L11.1327 64.9304L10.9598 64.9395L10.945 65.112L11.1432 65.1291ZM12.3125 67.3258L12.2278 67.5058L12.2279 67.5058L12.3125 67.3258ZM18.8332 66.2829L18.9945 66.1665L18.9008 66.0365L18.7538 66.1005L18.8332 66.2829ZM19.061 66.5986L19.2088 66.7317L19.3163 66.6123L19.2223 66.4821L19.061 66.5986ZM17.7704 69.3642L17.5717 69.3746L17.5717 69.3746L17.7704 69.3642ZM17.7769 69.4891L17.8714 69.6641L17.9822 69.6043L17.9756 69.4786L17.7769 69.4891ZM17.6666 69.5486L17.5721 69.3736L17.571 69.3741L17.6666 69.5486ZM10.3604 71.3905L10.3257 71.5864L10.3257 71.5864L10.3604 71.3905ZM6.06637 69.4114L5.90821 69.5321L5.90823 69.5321L6.06637 69.4114ZM5.57114 62.6302L5.37663 62.5884L5.37663 62.5884L5.57114 62.6302ZM10.406 56.3245L10.3207 56.1448L10.3207 56.1448L10.406 56.3245ZM14.0461 59.3354L14.0668 59.1376L14.0668 59.1376L14.0461 59.3354ZM12.6902 59.9424L12.5299 59.8246L12.5299 59.8246L12.6902 59.9424ZM11.232 63.1667L11.4229 63.2226L11.4229 63.2225L11.232 63.1667ZM11.1532 63.4358L10.9623 63.3799L10.8834 63.6492L11.1636 63.6345L11.1532 63.4358ZM11.4331 63.4211L11.4435 63.6198L11.4435 63.6198L11.4331 63.4211ZM14.9019 62.0072L15.0631 62.1237L15.0631 62.1237L14.9019 62.0072ZM15.2248 59.8829L15.4136 59.8203L15.4133 59.8195L15.2248 59.8829ZM15.2051 59.8243L15.3936 59.7609L15.3743 59.7034L15.3262 59.6665L15.2051 59.8243ZM15.1562 59.7867L15.2773 59.6289L15.2765 59.6283L15.1562 59.7867ZM14.8404 55.2736L14.8508 55.4723C15.0991 55.4593 15.7242 55.5051 16.466 55.7081L16.5185 55.5162L16.571 55.3243C15.7978 55.1128 15.1296 55.0593 14.8301 55.075L14.8404 55.2736ZM16.5185 55.5162L16.466 55.7081C17.2079 55.9112 18.0679 56.2727 18.785 56.8917L18.915 56.7411L19.045 56.5905C18.269 55.9207 17.349 55.5373 16.571 55.3244L16.5185 55.5162ZM18.915 56.7411L18.785 56.8917C19.5019 57.5108 20.0767 58.3883 20.2504 59.6232L20.4474 59.5955L20.6443 59.5678C20.456 58.229 19.8282 57.2668 19.045 56.5905L18.915 56.7411ZM20.4474 59.5955L20.2504 59.6232C20.4239 60.8583 20.1961 62.4511 19.3076 64.5021L19.4902 64.5811L19.6727 64.6602C20.5798 62.5663 20.8313 60.8977 20.6444 59.5678L20.4474 59.5955ZM19.4902 64.5811L19.3075 64.5023L19.2587 64.6153L19.4413 64.6942L19.624 64.7731L19.6728 64.66L19.4902 64.5811ZM19.4413 64.6942L19.4309 64.4955L11.1327 64.9304L11.1432 65.1291L11.1536 65.3278L19.4517 64.8929L19.4413 64.6942ZM11.1432 65.1291L10.945 65.112C10.8711 65.9679 11.1546 67.0013 12.2278 67.5058L12.3125 67.3258L12.3971 67.1457C11.5253 66.7359 11.2763 65.8998 11.3414 65.1462L11.1432 65.1291ZM12.3125 67.3258L12.2279 67.5058C13.3754 68.0449 15.4268 67.9824 18.9126 66.4653L18.8332 66.2829L18.7538 66.1005C15.287 67.6093 13.3789 67.607 12.397 67.1457L12.3125 67.3258ZM18.8332 66.2829L18.6719 66.3993L18.8997 66.715L19.061 66.5986L19.2223 66.4821L18.9945 66.1665L18.8332 66.2829ZM19.061 66.5986L18.9131 66.4654C18.0661 67.4062 17.5119 68.2325 17.5717 69.3746L17.7704 69.3642L17.969 69.3538C17.918 68.3794 18.3751 67.6576 19.2088 66.7317L19.061 66.5986ZM17.7704 69.3642L17.5717 69.3746L17.5782 69.4995L17.7769 69.4891L17.9756 69.4786L17.969 69.3538L17.7704 69.3642ZM17.7769 69.4891L17.6824 69.314L17.5721 69.3736L17.6666 69.5486L17.7611 69.7237L17.8714 69.6641L17.7769 69.4891ZM17.6666 69.5486L17.571 69.3741C16.2639 70.0901 13.8634 71.8097 10.3951 71.1947L10.3604 71.3905L10.3257 71.5864C13.9596 72.2308 16.4946 70.4174 17.7622 69.7231L17.6666 69.5486ZM10.3604 71.3905L10.3951 71.1947C8.66138 70.8872 7.13346 70.4816 6.2245 69.2907L6.06637 69.4114L5.90823 69.5321C6.92179 70.86 8.60286 71.2809 10.3257 71.5864L10.3604 71.3905ZM6.06637 69.4114L6.22453 69.2907C5.31567 68.0995 5.02519 66.1219 5.76565 62.6719L5.57114 62.6302L5.37663 62.5884C4.63042 66.0652 4.88855 68.1956 5.90821 69.5321L6.06637 69.4114ZM5.57114 62.6302L5.76564 62.6719C6.50618 59.2221 8.52937 57.4351 10.4912 56.5043L10.406 56.3245L10.3207 56.1448C8.26586 57.1197 6.1472 58.9986 5.37663 62.5884L5.57114 62.6302ZM10.406 56.3245L10.4912 56.5043C12.4526 55.5739 14.3536 55.4984 14.8508 55.4723L14.8404 55.2736L14.83 55.075C14.3271 55.1013 12.3579 55.1784 10.3207 56.1448L10.406 56.3245ZM14.0461 59.3354L14.0668 59.1376C13.5435 59.0828 12.9613 59.2372 12.5299 59.8246L12.6902 59.9424L12.8506 60.0601C13.185 59.6047 13.6187 59.4907 14.0254 59.5333L14.0461 59.3354ZM12.6902 59.9424L12.5299 59.8246C11.817 60.7955 11.2403 62.429 11.041 63.1109L11.232 63.1667L11.4229 63.2225C11.6201 62.5479 12.1813 60.9716 12.8506 60.0601L12.6902 59.9424ZM11.232 63.1667L11.0411 63.1108L10.9623 63.3799L11.1532 63.4358L11.3441 63.4917L11.4229 63.2226L11.232 63.1667ZM11.1532 63.4358L11.1636 63.6345L11.4435 63.6198L11.4331 63.4211L11.4227 63.2225L11.1428 63.2371L11.1532 63.4358ZM11.4331 63.4211L11.4435 63.6198C13.3579 63.5194 14.4831 62.9262 15.0631 62.1237L14.9019 62.0072L14.7407 61.8906C14.2574 62.5592 13.2702 63.1256 11.4227 63.2225L11.4331 63.4211ZM14.9019 62.0072L15.0631 62.1237C15.6385 61.3276 15.6111 60.4164 15.4136 59.8203L15.2248 59.8829L15.0359 59.9455C15.2036 60.4513 15.2238 61.2222 14.7407 61.8907L14.9019 62.0072ZM15.2248 59.8829L15.4133 59.8195L15.3936 59.7609L15.2051 59.8243L15.0165 59.8876L15.0362 59.9463L15.2248 59.8829ZM15.2051 59.8243L15.3262 59.6665L15.2773 59.6289L15.1562 59.7867L15.0351 59.9446L15.084 59.9821L15.2051 59.8243ZM15.1562 59.7867L15.2765 59.6283C15.0112 59.4268 14.5645 59.1898 14.0668 59.1376L14.0461 59.3354L14.0253 59.5333C14.4318 59.5759 14.8113 59.7746 15.0358 59.9451L15.1562 59.7867Z" fill="#737478"/>
<path d="M14.0454 59.3369C14.4976 59.3843 14.9106 59.6021 15.1555 59.7882L15.2044 59.8257L15.2241 59.8843C15.4067 60.4353 15.4306 61.2763 14.9013 62.0086C14.3696 62.7441 13.3135 63.324 11.4324 63.4226L11.1525 63.4372L11.2313 63.1681C11.4295 62.49 11.9985 60.885 12.6896 59.9438C13.0726 59.4223 13.5804 59.2882 14.0454 59.3369Z" stroke="#737478" stroke-width="0.397872"/>
<g filter="url(#filter1_f_40001442_27256)">
<path d="M-1.46919 44.3052L-2.45441 45.2292L-1.63751 44.1537L-3.73666 44.0867L-1.65601 43.8007L-2.5809 42.8155L-1.50445 43.6323L-1.43746 41.5332L-1.15142 43.6138L-0.167225 42.689L-0.983102 43.7654L1.11508 43.8324L-0.964601 44.1184L-0.0407292 45.1027L-1.11616 44.2867L-1.18319 46.3849L-1.46919 44.3052Z" fill="#FFD954"/>
</g>
<path d="M-1.46919 44.3052L-2.45441 45.2292L-1.63751 44.1537L-3.73666 44.0867L-1.65601 43.8007L-2.5809 42.8155L-1.50445 43.6323L-1.43746 41.5332L-1.15142 43.6138L-0.167225 42.689L-0.983102 43.7654L1.11508 43.8324L-0.964601 44.1184L-0.0407292 45.1027L-1.11616 44.2867L-1.18319 46.3849L-1.46919 44.3052Z" fill="#FFD954"/>
<g filter="url(#filter2_f_40001442_27256)">
<path d="M5.68036 29.6533L7.68526 27.7723L6.02316 29.9619L10.2939 30.098L6.06073 30.6787L7.94264 32.6836L5.7511 31.0216L5.617 35.2922L5.03533 31.06L3.03142 32.9409L4.69249 30.7504L0.422727 30.6153L4.65395 30.0337L2.77403 28.0297L4.96352 29.6899L5.09967 25.421L5.68036 29.6533Z" fill="#FFD954"/>
</g>
<path d="M5.68036 29.6533L7.68526 27.7723L6.02316 29.9619L10.2939 30.098L6.06073 30.6787L7.94264 32.6836L5.7511 31.0216L5.617 35.2922L5.03533 31.06L3.03142 32.9409L4.69249 30.7504L0.422727 30.6153L4.65395 30.0337L2.77403 28.0297L4.96352 29.6899L5.09967 25.421L5.68036 29.6533Z" fill="#FFD954"/>
<g filter="url(#filter3_f_40001442_27256)">
<path d="M36.6461 37.9257L38.6511 36.0458L36.9899 38.2343L41.2597 38.3704L37.0275 38.9511L38.9084 40.956L36.7179 39.2949L36.5828 43.5647L36.0011 39.3325L33.9972 41.2134L35.6573 39.0229L31.3885 38.8878L35.6197 38.3061L33.7398 36.3031L35.9293 37.9633L36.0655 33.6945L36.6461 37.9257Z" fill="#CDA51D"/>
</g>
<path d="M36.6461 37.9257L38.6511 36.0458L36.9899 38.2343L41.2597 38.3704L37.0275 38.9511L38.9084 40.956L36.7179 39.2949L36.5828 43.5647L36.0011 39.3325L33.9972 41.2134L35.6573 39.0229L31.3885 38.8878L35.6197 38.3061L33.7398 36.3031L35.9293 37.9633L36.0655 33.6945L36.6461 37.9257Z" fill="#CDA51D"/>
<g filter="url(#filter4_f_40001442_27256)">
<path d="M27.7633 73.2871L29.7683 71.4071L28.1071 73.5966L32.377 73.7327L28.1447 74.3134L30.0256 76.3173L27.8351 74.6563L27.7 78.926L27.1183 74.6938L25.1153 76.5747L26.7755 74.3852L22.5057 74.2501L26.7379 73.6684L24.858 71.6644L27.0465 73.3246L27.1827 69.0558L27.7633 73.2871Z" fill="#CDA51D"/>
</g>
<path d="M27.7633 73.2871L29.7683 71.4071L28.1071 73.5966L32.377 73.7327L28.1447 74.3134L30.0256 76.3173L27.8351 74.6563L27.7 78.926L27.1183 74.6938L25.1153 76.5747L26.7755 74.3852L22.5057 74.2501L26.7379 73.6684L24.858 71.6644L27.0465 73.3246L27.1827 69.0558L27.7633 73.2871Z" fill="#CDA51D"/>
<g filter="url(#filter5_f_40001442_27256)">
<path d="M45.0922 76.8293L46.3496 75.6505L45.3076 77.0223L47.9857 77.1079L45.3312 77.4719L46.5109 78.7293L45.1371 77.6875L45.0526 80.3655L44.6876 77.711L43.4312 78.8907L44.473 77.5169L41.796 77.4323L44.4485 77.0674L43.2698 75.8119L44.6426 76.8528L44.7282 74.1757L45.0922 76.8293Z" fill="#FFD954"/>
</g>
<path d="M45.0922 76.8293L46.3496 75.6505L45.3076 77.0223L47.9857 77.1079L45.3312 77.4719L46.5109 78.7293L45.1371 77.6875L45.0526 80.3655L44.6876 77.711L43.4312 78.8907L44.473 77.5169L41.796 77.4323L44.4485 77.0674L43.2698 75.8119L44.6426 76.8528L44.7282 74.1757L45.0922 76.8293Z" fill="#FFD954"/>
<g filter="url(#filter6_f_40001442_27256)">
<path d="M12.5218 47.5011L13.7792 46.3214L12.7373 47.6942L15.4154 47.7797L12.7609 48.1437L13.9406 49.4011L12.5668 48.3593L12.4823 51.0373L12.1172 48.3828L10.8609 49.5625L11.9017 48.1888L9.22467 48.1042L11.8782 47.7392L10.6995 46.4828L12.0723 47.5246L12.1579 44.8475L12.5218 47.5011Z" fill="#FFD954"/>
</g>
<path d="M12.5218 47.5011L13.7792 46.3214L12.7373 47.6942L15.4154 47.7797L12.7609 48.1437L13.9406 49.4011L12.5668 48.3593L12.4823 51.0373L12.1172 48.3828L10.8609 49.5625L11.9017 48.1888L9.22467 48.1042L11.8782 47.7392L10.6995 46.4828L12.0723 47.5246L12.1579 44.8475L12.5218 47.5011Z" fill="#FFD954"/>
<g filter="url(#filter7_f_40001442_27256)">
<path d="M36.553 82.3062L35.7619 82.2798L36.5459 82.1724L35.7037 81.2747L36.6845 82.0185L36.7101 81.2268L36.8176 82.0122L37.7145 81.1693L36.9715 82.1508L37.7631 82.175L36.9784 82.2832L37.8199 83.1802L36.8399 82.437L36.8149 83.228L36.7068 82.4447L35.8091 83.2856L36.553 82.3062Z" fill="#FFD954"/>
</g>
<path d="M36.553 82.3062L35.7619 82.2798L36.5459 82.1724L35.7037 81.2747L36.6845 82.0185L36.7101 81.2268L36.8176 82.0122L37.7145 81.1693L36.9715 82.1508L37.7631 82.175L36.9784 82.2832L37.8199 83.1802L36.8399 82.437L36.8149 83.228L36.7068 82.4447L35.8091 83.2856L36.553 82.3062Z" fill="#FFD954"/>
<g filter="url(#filter8_f_40001442_27256)">
<path d="M5.1099 90.8999L5.68786 90.3591L5.20946 90.9895L6.43976 91.0287L5.22029 91.1963L5.76202 91.7742L5.1306 91.2948L5.0924 92.5251L4.92385 91.3057L4.34697 91.8483L4.82533 91.217L3.596 91.1777L4.81449 91.0102L4.27281 90.4333L4.90315 90.9107L4.94336 89.6813L5.1099 90.8999Z" fill="#FFD954"/>
</g>
<path d="M5.1099 90.8999L5.68786 90.3591L5.20946 90.9895L6.43976 91.0287L5.22029 91.1963L5.76202 91.7742L5.1306 91.2948L5.0924 92.5251L4.92385 91.3057L4.34697 91.8483L4.82533 91.217L3.596 91.1777L4.81449 91.0102L4.27281 90.4333L4.90315 90.9107L4.94336 89.6813L5.1099 90.8999Z" fill="#FFD954"/>
<g filter="url(#filter9_f_40001442_27256)">
<path d="M31.0593 95.9503L30.3108 96.6516L30.9311 95.8358L29.3383 95.7843L30.917 95.5676L30.2149 94.8211L31.0326 95.4403L31.0821 93.8476L31.2998 95.4262L32.0463 94.7251L31.428 95.5408L33.0188 95.5914L31.4411 95.809L32.1423 96.5556L31.3265 95.9363L31.275 97.5281L31.0593 95.9503Z" fill="#FFD954"/>
</g>
<path d="M31.0593 95.9503L30.3108 96.6516L30.9311 95.8358L29.3383 95.7843L30.917 95.5676L30.2149 94.8211L31.0326 95.4403L31.0821 93.8476L31.2998 95.4262L32.0463 94.7251L31.428 95.5408L33.0188 95.5914L31.4411 95.809L32.1423 96.5556L31.3265 95.9363L31.275 97.5281L31.0593 95.9503Z" fill="#FFD954"/>
<g filter="url(#filter10_f_40001442_27256)">
<path d="M27.1637 92.8106L27.6055 92.3963L27.2396 92.878L28.18 92.9089L27.2479 93.037L27.6622 93.4788L27.1795 93.112L27.1496 94.0533L27.0205 93.1203L26.5807 93.5355L26.9456 93.0528L26.0052 93.0229L26.9373 92.8939L26.524 92.453L27.0047 92.819L27.0356 91.8786L27.1637 92.8106Z" fill="#FFD954"/>
</g>
<path d="M27.1637 92.8106L27.6055 92.3963L27.2396 92.878L28.18 92.9089L27.2479 93.037L27.6622 93.4788L27.1795 93.112L27.1496 94.0533L27.0205 93.1203L26.5807 93.5355L26.9456 93.0528L26.0052 93.0229L26.9373 92.8939L26.524 92.453L27.0047 92.819L27.0356 91.8786L27.1637 92.8106Z" fill="#FFD954"/>
<g opacity="0.4" filter="url(#filter11_f_40001442_27256)">
<path d="M12.2489 88.6866L8.05603 85.5064L4.21851 89.1074L7.39867 84.9145L3.79766 81.077L7.99056 84.2572L11.8281 80.6562L8.64791 84.8491L12.2489 88.6866Z" fill="white"/>
<path d="M12.2489 88.6866L8.05603 85.5064L4.21851 89.1074L7.39867 84.9145L3.79766 81.077L7.99056 84.2572L11.8281 80.6562L8.64791 84.8491L12.2489 88.6866Z" fill="white"/>
<path d="M12.2489 88.6866L8.05603 85.5064L4.21851 89.1074L7.39867 84.9145L3.79766 81.077L7.99056 84.2572L11.8281 80.6562L8.64791 84.8491L12.2489 88.6866Z" fill="#FBDC67"/>
</g>
<g filter="url(#filter12_f_40001442_27256)">
<path d="M2.00657 66.6066L1.25904 67.3078L1.87828 66.4911L0.285562 66.4406L1.86427 66.2239L1.16306 65.4763L1.97984 66.0966L2.02937 64.5039L2.24705 66.0826L2.99355 65.3804L2.37432 66.1971L3.96703 66.2476L2.38832 66.4644L3.08954 67.2119L2.27378 66.5926L2.22225 68.1844L2.00657 66.6066Z" fill="#FFD954"/>
</g>
<path d="M2.00657 66.6066L1.25904 67.3078L1.87828 66.4911L0.285562 66.4406L1.86427 66.2239L1.16306 65.4763L1.97984 66.0966L2.02937 64.5039L2.24705 66.0826L2.99355 65.3804L2.37432 66.1971L3.96703 66.2476L2.38832 66.4644L3.08954 67.2119L2.27378 66.5926L2.22225 68.1844L2.00657 66.6066Z" fill="#FFD954"/>
<g filter="url(#filter13_f_40001442_27256)">
<path d="M41.1658 55.1593L40.4182 55.8605L41.0375 55.0448L39.4447 54.9933L41.0235 54.7766L40.3222 54.0291L41.139 54.6493L41.1885 53.0566L41.4062 54.6353L42.1527 53.9331L41.5335 54.7499L43.1262 54.8004L41.5476 55.0181L42.2487 55.7646L41.433 55.1453L41.3814 56.7371L41.1658 55.1593Z" fill="#FFD954"/>
</g>
<path d="M41.1658 55.1593L40.4182 55.8605L41.0375 55.0448L39.4447 54.9933L41.0235 54.7766L40.3222 54.0291L41.139 54.6493L41.1885 53.0566L41.4062 54.6353L42.1527 53.9331L41.5335 54.7499L43.1262 54.8004L41.5476 55.0181L42.2487 55.7646L41.433 55.1453L41.3814 56.7371L41.1658 55.1593Z" fill="#FFD954"/>
<g filter="url(#filter14_f_40001442_27256)">
<path d="M10.2244 86.863L8.56265 86.1967L7.84646 87.8375L7.3313 86.1229L5.60187 86.586L6.62124 85.1142L5.18087 84.0508L6.96716 83.9301L6.90048 82.141L8.10858 83.4623L9.4658 82.2947L9.18598 84.063L10.9451 84.3962L9.38806 85.2799L10.2244 86.863Z" fill="white"/>
<path d="M10.2244 86.863L8.56265 86.1967L7.84646 87.8375L7.3313 86.1229L5.60187 86.586L6.62124 85.1142L5.18087 84.0508L6.96716 83.9301L6.90048 82.141L8.10858 83.4623L9.4658 82.2947L9.18598 84.063L10.9451 84.3962L9.38806 85.2799L10.2244 86.863Z" fill="white"/>
<path d="M10.2244 86.863L8.56265 86.1967L7.84646 87.8375L7.3313 86.1229L5.60187 86.586L6.62124 85.1142L5.18087 84.0508L6.96716 83.9301L6.90048 82.141L8.10858 83.4623L9.4658 82.2947L9.18598 84.063L10.9451 84.3962L9.38806 85.2799L10.2244 86.863Z" fill="#FBDC67"/>
</g>
<circle cx="41.4324" cy="32.0723" r="1.00518" transform="rotate(-3 41.4324 32.0723)" fill="#ECCE6E"/>
<circle cx="10.7009" cy="37.877" r="1.00518" transform="rotate(-3 10.7009 37.877)" fill="#ECCE6E"/>
<circle cx="3.82497" cy="76.3184" r="1.00518" transform="rotate(-3 3.82497 76.3184)" fill="#ECCE6E"/>
<circle cx="34.7097" cy="51.0469" r="1.00518" transform="rotate(-3 34.7097 51.0469)" fill="#ECCE6E"/>
<circle cx="13.8308" cy="97.6035" r="1.00518" transform="rotate(-3 13.8308 97.6035)" fill="#ECCE6E"/>
<circle cx="40.5349" cy="69.3633" r="1.00518" transform="rotate(-3 40.5349 69.3633)" fill="#ECCE6E"/>
<circle cx="40.1336" cy="93.709" r="1.00518" transform="rotate(-3 40.1336 93.709)" fill="#ECCE6E"/>
<circle cx="39.1775" cy="75.4727" r="1.00518" transform="rotate(-3 39.1775 75.4727)" fill="#ECCE6E"/>
<circle cx="38.0974" cy="61.2696" r="1.00518" transform="rotate(-3 38.0974 61.2696)" fill="#ECCE6E"/>
<circle cx="46.5691" cy="56.4649" r="1.00518" transform="rotate(-3 46.5691 56.4649)" fill="#ECCE6E"/>
<circle cx="31.2488" cy="93.8379" r="1.00518" transform="rotate(-3 31.2488 93.8379)" fill="#ECCE6E"/>
<circle cx="18.8015" cy="80.3985" r="1.00518" transform="rotate(-3 18.8015 80.3985)" fill="#ECCE6E"/>
<circle cx="5.06032" cy="99.9082" r="1.00518" transform="rotate(-3 5.06032 99.9082)" fill="#ECCE6E"/>
<circle cx="10.7136" cy="102.129" r="1.00518" transform="rotate(-3 10.7136 102.129)" fill="#ECCE6E"/>
<circle cx="2.21852" cy="93.6836" r="1.00518" transform="rotate(-3 2.21852 93.6836)" fill="#ECCE6E"/>
<circle cx="25.8132" cy="25.3418" r="1.00518" transform="rotate(-3 25.8132 25.3418)" fill="#ECCE6E"/>
<circle cx="-0.655503" cy="29.2461" r="1.00518" transform="rotate(-3 -0.655503 29.2461)" fill="#ECCE6E"/>
<circle cx="-0.609605" cy="58.9375" r="1.00518" transform="rotate(-3 -0.609605 58.9375)" fill="#ECCE6E"/>
<circle cx="25.6228" cy="50.5156" r="1.00518" transform="rotate(-3 25.6228 50.5156)" fill="#ECCE6E"/>
<circle cx="4.13551" cy="63.0508" r="1.00518" transform="rotate(-3 4.13551 63.0508)" fill="#ECCE6E" fill-opacity="0.5"/>
<circle cx="13.5652" cy="28.5" r="1.00518" transform="rotate(-3 13.5652 28.5)" fill="#ECCE6E" fill-opacity="0.5"/>
<circle cx="34.4158" cy="29.4199" r="1.00518" transform="rotate(-3 34.4158 29.4199)" fill="#ECCE6E" fill-opacity="0.5"/>
<circle cx="40.2927" cy="48.7403" r="1.00518" transform="rotate(-3 40.2927 48.7403)" fill="#ECCE6E" fill-opacity="0.5"/>
<circle cx="45.1052" cy="66.9414" r="1.00518" transform="rotate(-3 45.1052 66.9414)" fill="#ECCE6E" fill-opacity="0.5"/>
<circle cx="45.7527" cy="85.6973" r="1.00518" transform="rotate(-3 45.7527 85.6973)" fill="#ECCE6E" fill-opacity="0.5"/>
<circle cx="26.7039" cy="99.9492" r="1.00518" transform="rotate(-3 26.7039 99.9492)" fill="#ECCE6E" fill-opacity="0.5"/>
<circle cx="36.4959" cy="97.9258" r="1.00518" transform="rotate(-3 36.4959 97.9258)" fill="#ECCE6E" fill-opacity="0.5"/>
<circle cx="21.8357" cy="96.6817" r="1.00518" transform="rotate(-3 21.8357 96.6817)" fill="#ECCE6E" fill-opacity="0.5"/>
<circle cx="17.9265" cy="92.5235" r="1.00518" transform="rotate(-3 17.9265 92.5235)" fill="#ECCE6E" fill-opacity="0.5"/>
<circle cx="27.0427" cy="39.2012" r="1.00518" transform="rotate(-3 27.0427 39.2012)" fill="#ECCE6E" fill-opacity="0.5"/>
<circle cx="22.6648" cy="86.9063" r="1.00518" transform="rotate(-3 22.6648 86.9063)" fill="#ECCE6E" fill-opacity="0.5"/>
<circle cx="19.0652" cy="43.8145" r="1.00518" transform="rotate(-3 19.0652 43.8145)" fill="#ECCE6E" fill-opacity="0.5"/>
</g>
</g>
</g>
</g>
<defs>
<filter id="filter0_d_40001442_27256" x="-7" y="-1.15055" width="66.3888" height="110.041" filterUnits="userSpaceOnUse" color-interpolation-filters="sRGB">
<feFlood flood-opacity="0" result="BackgroundImageFix"/>
<feColorMatrix in="SourceAlpha" type="matrix" values="0 0 0 0 0 0 0 0 0 0 0 0 0 0 0 0 0 0 127 0" result="hardAlpha"/>
<feOffset dx="6" dy="-4"/>
<feGaussianBlur stdDeviation="2.57527"/>
<feComposite in2="hardAlpha" operator="out"/>
<feColorMatrix type="matrix" values="0 0 0 0 0.784314 0 0 0 0 0.843137 0 0 0 0 0.909804 0 0 0 0.25 0"/>
<feBlend mode="normal" in2="BackgroundImageFix" result="effect1_dropShadow_40001442_27256"/>
<feBlend mode="normal" in="SourceGraphic" in2="effect1_dropShadow_40001442_27256" result="shape"/>
</filter>
<filter id="filter1_f_40001442_27256" x="-4.23892" y="41.0306" width="5.85674" height="5.85674" filterUnits="userSpaceOnUse" color-interpolation-filters="sRGB">
<feFlood flood-opacity="0" result="BackgroundImageFix"/>
<feBlend mode="normal" in="SourceGraphic" in2="BackgroundImageFix" result="shape"/>
<feGaussianBlur stdDeviation="0.251295" result="effect1_foregroundBlur_40001442_27256"/>
</filter>
<filter id="filter2_f_40001442_27256" x="-0.59966" y="24.3994" width="11.9161" height="11.9161" filterUnits="userSpaceOnUse" color-interpolation-filters="sRGB">
<feFlood flood-opacity="0" result="BackgroundImageFix"/>
<feBlend mode="normal" in="SourceGraphic" in2="BackgroundImageFix" result="shape"/>
<feGaussianBlur stdDeviation="0.511256" result="effect1_foregroundBlur_40001442_27256"/>
</filter>
<filter id="filter3_f_40001442_27256" x="30.3662" y="32.6728" width="11.9161" height="11.9142" filterUnits="userSpaceOnUse" color-interpolation-filters="sRGB">
<feFlood flood-opacity="0" result="BackgroundImageFix"/>
<feBlend mode="normal" in="SourceGraphic" in2="BackgroundImageFix" result="shape"/>
<feGaussianBlur stdDeviation="0.511256" result="effect1_foregroundBlur_40001442_27256"/>
</filter>
<filter id="filter4_f_40001442_27256" x="21.4833" y="68.0341" width="11.9161" height="11.9142" filterUnits="userSpaceOnUse" color-interpolation-filters="sRGB">
<feFlood flood-opacity="0" result="BackgroundImageFix"/>
<feBlend mode="normal" in="SourceGraphic" in2="BackgroundImageFix" result="shape"/>
<feGaussianBlur stdDeviation="0.511256" result="effect1_foregroundBlur_40001442_27256"/>
</filter>
<filter id="filter5_f_40001442_27256" x="41.1547" y="73.5345" width="7.47193" height="7.47193" filterUnits="userSpaceOnUse" color-interpolation-filters="sRGB">
<feFlood flood-opacity="0" result="BackgroundImageFix"/>
<feBlend mode="normal" in="SourceGraphic" in2="BackgroundImageFix" result="shape"/>
<feGaussianBlur stdDeviation="0.320618" result="effect1_foregroundBlur_40001442_27256"/>
</filter>
<filter id="filter6_f_40001442_27256" x="8.58337" y="44.2064" width="7.4729" height="7.47193" filterUnits="userSpaceOnUse" color-interpolation-filters="sRGB">
<feFlood flood-opacity="0" result="BackgroundImageFix"/>
<feBlend mode="normal" in="SourceGraphic" in2="BackgroundImageFix" result="shape"/>
<feGaussianBlur stdDeviation="0.320618" result="effect1_foregroundBlur_40001442_27256"/>
</filter>
<filter id="filter7_f_40001442_27256" x="35.4095" y="80.8753" width="2.70546" height="2.70448" filterUnits="userSpaceOnUse" color-interpolation-filters="sRGB">
<feFlood flood-opacity="0" result="BackgroundImageFix"/>
<feBlend mode="normal" in="SourceGraphic" in2="BackgroundImageFix" result="shape"/>
<feGaussianBlur stdDeviation="0.147311" result="effect1_foregroundBlur_40001442_27256"/>
</filter>
<filter id="filter8_f_40001442_27256" x="3.30108" y="89.387" width="3.43299" height="3.43299" filterUnits="userSpaceOnUse" color-interpolation-filters="sRGB">
<feFlood flood-opacity="0" result="BackgroundImageFix"/>
<feBlend mode="normal" in="SourceGraphic" in2="BackgroundImageFix" result="shape"/>
<feGaussianBlur stdDeviation="0.147311" result="effect1_foregroundBlur_40001442_27256"/>
</filter>
<filter id="filter9_f_40001442_27256" x="28.9566" y="93.4664" width="4.44322" height="4.44224" filterUnits="userSpaceOnUse" color-interpolation-filters="sRGB">
<feFlood flood-opacity="0" result="BackgroundImageFix"/>
<feBlend mode="normal" in="SourceGraphic" in2="BackgroundImageFix" result="shape"/>
<feGaussianBlur stdDeviation="0.190638" result="effect1_foregroundBlur_40001442_27256"/>
</filter>
<filter id="filter10_f_40001442_27256" x="25.7796" y="91.6536" width="2.6254" height="2.62443" filterUnits="userSpaceOnUse" color-interpolation-filters="sRGB">
<feFlood flood-opacity="0" result="BackgroundImageFix"/>
<feBlend mode="normal" in="SourceGraphic" in2="BackgroundImageFix" result="shape"/>
<feGaussianBlur stdDeviation="0.11265" result="effect1_foregroundBlur_40001442_27256"/>
</filter>
<filter id="filter11_f_40001442_27256" x="3.63032" y="80.4887" width="8.78623" height="8.78623" filterUnits="userSpaceOnUse" color-interpolation-filters="sRGB">
<feFlood flood-opacity="0" result="BackgroundImageFix"/>
<feBlend mode="normal" in="SourceGraphic" in2="BackgroundImageFix" result="shape"/>
<feGaussianBlur stdDeviation="0.0837651" result="effect1_foregroundBlur_40001442_27256"/>
</filter>
<filter id="filter12_f_40001442_27256" x="-0.0961194" y="64.1226" width="4.44419" height="4.44224" filterUnits="userSpaceOnUse" color-interpolation-filters="sRGB">
<feFlood flood-opacity="0" result="BackgroundImageFix"/>
<feBlend mode="normal" in="SourceGraphic" in2="BackgroundImageFix" result="shape"/>
<feGaussianBlur stdDeviation="0.190638" result="effect1_foregroundBlur_40001442_27256"/>
</filter>
<filter id="filter13_f_40001442_27256" x="39.0631" y="52.6754" width="4.44419" height="4.44224" filterUnits="userSpaceOnUse" color-interpolation-filters="sRGB">
<feFlood flood-opacity="0" result="BackgroundImageFix"/>
<feBlend mode="normal" in="SourceGraphic" in2="BackgroundImageFix" result="shape"/>
<feGaussianBlur stdDeviation="0.190638" result="effect1_foregroundBlur_40001442_27256"/>
</filter>
<filter id="filter14_f_40001442_27256" x="4.51054" y="81.4705" width="7.10489" height="7.03751" filterUnits="userSpaceOnUse" color-interpolation-filters="sRGB">
<feFlood flood-opacity="0" result="BackgroundImageFix"/>
<feBlend mode="normal" in="SourceGraphic" in2="BackgroundImageFix" result="shape"/>
<feGaussianBlur stdDeviation="0.33506" result="effect1_foregroundBlur_40001442_27256"/>
</filter>
<linearGradient id="paint0_linear_40001442_27256" x1="43.4741" y1="-1.34337e-06" x2="6.53368" y2="76.5613" gradientUnits="userSpaceOnUse">
<stop stop-color="#4A311B"/>
<stop offset="0.469087" stop-color="#D9BF26"/>
<stop offset="1" stop-color="#0A0907"/>
</linearGradient>
<clipPath id="clip0_40001442_27256">
<rect width="52" height="104" fill="white"/>
</clipPath>
<clipPath id="clip1_40001442_27256">
<rect width="50.0915" height="97" fill="white" transform="translate(-7 10.6211) rotate(-3)"/>
</clipPath>
<clipPath id="clip2_40001442_27256">
<rect width="50.0915" height="76.5613" fill="white" transform="translate(-6.19336 26.0137) rotate(-3)"/>
</clipPath>
</defs>
</svg>
