<svg width="100" height="149" viewBox="0 0 100 149" fill="none"
  xmlns="http://www.w3.org/2000/svg">
  <g opacity="0.2" filter="url(#filter0_d_40000140_21720)">
    <rect x="0.838867" y="22.2031" width="65.4723" height="126.784" rx="3.50353" transform="rotate(-9 0.838867 22.2031)" fill="#A158ED"/>
    <rect x="3.37305" y="38.207" width="65.4723" height="3.94148" transform="rotate(-9 3.37305 38.207)" fill="white"/>
    <rect x="3.5791" y="39.5049" width="65.4723" height="1.31383" transform="rotate(-9 3.5791 39.5049)" fill="#61B9F5"/>
    <rect x="3.98828" y="42.1006" width="65.4723" height="100.07" transform="rotate(-9 3.98828 42.1006)" fill="#4D6ECB"/>
    <path d="M10.9092 85.7881L78.6754 95.1188L82.5119 119.342L17.8457 129.584L10.9092 85.7881Z" fill="#65612E"/>
    <path d="M38.1011 120.168C27.489 119.543 18.1087 113.136 14.7451 110.011L19.6435 140.938L84.3097 130.696L81.0213 109.934C71.1363 113.605 48.7132 120.793 38.1011 120.168Z" fill="#CDB389"/>
    <path d="M36.0577 96.7935C34.3924 95.2169 35.2703 91.822 35.3565 89.6849C35.5831 87.2425 34.919 86.9229 34.5691 84.7134C34.2191 82.5038 30.4592 78.4278 27.7397 76.452C25.0202 74.4762 24.1616 72.6303 25.5782 70.8488C26.9948 69.0672 34.579 74.9441 37.1385 76.8037C39.698 78.6633 41.1514 78.0084 43.7822 76.7423C46.4129 75.4763 44.3019 69.2988 43.9301 66.9512C43.5583 64.6035 42.8159 62.5977 45.1198 61.9497C47.4237 61.3016 48.7129 66.7599 50.6051 71.5564C52.4973 76.3529 54.5482 78.5762 55.8935 79.9203C57.2389 81.2644 56.9052 82.7329 56.804 83.8814C56.7028 85.0299 57.329 87.1957 57.8239 88.5329C58.3188 89.8702 58.9081 90.9093 59.7448 92.6171C60.5815 94.3249 61.2502 94.0774 62.2537 95.051C63.2573 96.0245 62.8799 97.2168 62.713 97.951C62.5462 98.6852 62.0307 99.8994 61.6314 100.954C61.2321 102.008 60.651 102.808 60.5279 103.818C60.4048 104.828 59.177 106.014 58.0722 106.189C56.9674 106.364 55.7902 106.975 54.3804 107.906C52.9707 108.837 49.5608 106.971 49.0809 106.622C48.601 106.273 42.0709 100.796 40.7912 99.8659C39.5114 98.9361 37.723 98.37 36.0577 96.7935Z" fill="#F29600" stroke="black" stroke-width="0.437942"/>
    <path d="M45.6879 101.763C44.2308 101.662 43.052 100.518 40.5413 99.364L40.5756 99.5803L45.7971 103.852L48.069 105.599L49.7317 106.998L51.7584 107.896L54.0068 108.095L55.4351 107.314L57.0796 106.499L58.8837 105.992L60.1525 104.904L60.6129 103.612L60.1804 103.68L60.9823 102.445L62.6709 98.4086L62.8861 96.2683L62.2481 95.0392L61.246 94.3111L60.2096 93.3667L59.2353 91.4149L57.8168 88.7575L57.0696 85.4394L56.8469 84.0337L56.8855 81.478L56.2646 80.357L54.1233 78.0357L52.1127 75.1395L50.6878 71.0421L48.0723 65.027L46.9386 62.7679C45.4236 60.9016 43.372 62.6455 43.5638 63.8566C43.8036 65.3705 43.9802 65.786 43.9181 66.7935C43.856 67.8009 45.1556 71.8074 45.344 72.9969C45.5324 74.1864 45.0378 75.2624 44.708 75.9797L44.708 75.9798C44.1135 77.273 42.4092 77.5632 41.8685 77.6488C41.436 77.7173 40.0473 78.0481 39.3985 78.1509C39.6737 78.2551 40.2741 78.5 40.4745 78.6456C40.725 78.8276 43.5655 79.2645 45.1479 79.4573C46.7304 79.6501 50.9135 78.7658 52.0066 79.3686C53.0997 79.9714 55.3266 82.8334 55.6006 84.5636C55.8747 86.2938 57.2879 89.6172 57.533 90.4652C57.7782 91.3131 58.4505 92.7585 59.732 94.5509C61.0136 96.3432 60.8712 96.1441 60.1602 97.2543C59.4493 98.3646 58.5274 98.8431 57.583 99.8795C56.6387 100.916 55.4257 99.5561 54.2019 99.5282C52.9781 99.5003 52.8646 100.183 52.1762 100.736C51.4877 101.288 51.0273 102.581 50.0027 102.41C48.9781 102.24 47.1451 101.865 45.6879 101.763Z" fill="#D7890A"/>
    <path d="M36.0577 96.7935C34.3924 95.2169 35.2703 91.822 35.3565 89.6849C35.5831 87.2425 34.919 86.9229 34.5691 84.7134C34.2191 82.5038 30.4592 78.4278 27.7397 76.452C25.0202 74.4762 24.1616 72.6303 25.5782 70.8488C26.9948 69.0672 34.579 74.9441 37.1385 76.8037C39.698 78.6633 41.1514 78.0084 43.7822 76.7423C46.4129 75.4763 44.3019 69.2988 43.9301 66.9512C43.5583 64.6035 42.8159 62.5977 45.1198 61.9497C47.4237 61.3016 48.7129 66.7599 50.6051 71.5564C52.4973 76.3529 54.5482 78.5762 55.8935 79.9203C57.2389 81.2644 56.9052 82.7329 56.804 83.8814C56.7028 85.0299 57.329 87.1957 57.8239 88.5329C58.3188 89.8702 58.9081 90.9093 59.7448 92.6171C60.5815 94.3249 61.2502 94.0774 62.2537 95.051C63.2573 96.0245 62.8799 97.2168 62.713 97.951C62.5462 98.6852 62.0307 99.8994 61.6314 100.954C61.2321 102.008 60.651 102.808 60.5279 103.818C60.4048 104.828 59.177 106.014 58.0722 106.189C56.9674 106.364 55.7902 106.975 54.3804 107.906C52.9707 108.837 49.5608 106.971 49.0809 106.622C48.601 106.273 42.0709 100.796 40.7912 99.8659C39.5114 98.9361 37.723 98.37 36.0577 96.7935Z" stroke="black" stroke-width="0.437942"/>
    <path d="M38.5479 77.5713C39.3258 78.0143 40.1475 78.7335 40.6999 78.646C41.2523 78.5586 43.2226 79.379 44.3424 80.1926" stroke="black" stroke-width="0.437942"/>
    <path d="M48.4441 104.316C48.5972 105.283 49.2221 104.759 49.4545 104.439L49.6989 103.976C49.4346 103.632 49.1425 103.243 48.7778 102.848C48.566 102.618 48.2916 102.374 47.9795 102.125C48.0834 102.533 48.3216 103.543 48.4441 104.316Z" fill="white"/>
    <path d="M49.7736 87.6843C50.0402 87.878 50.5765 88.4631 50.5885 89.254M49.4206 94.3936C49.834 93.7619 50.6261 92.0792 50.4872 90.4025M54.8845 89.5645C54.7728 89.1575 54.6018 88.137 54.8107 87.3112M51.9171 101.218C52.2439 100.6 52.9413 99.64 53.6317 99.5306C54.3222 99.4213 54.7365 99.3556 55.1946 99.5662C55.6526 99.7768 56.2269 99.8274 56.7792 99.7399C57.2212 99.6699 57.6707 99.41 57.8403 99.2887M53.6768 102.496C53.747 102.344 53.9702 102.025 54.3016 101.973C54.7159 101.907 55.174 102.118 55.3339 102.234M60.4791 99.8617L61.6414 98.262M39.8482 95.6266C40.0013 96.5933 40.1257 98.2723 41.2961 98.5116C42.4665 98.7509 43.0188 98.6634 44.1386 99.477C45.0272 100.123 46.7808 101.166 47.9795 102.125M60.8947 102.486C60.3354 103.424 59.5219 104.543 58.737 104.951C57.9522 105.358 56.8543 104.683 55.9601 104.4C55.0659 104.117 54.441 104.64 53.7505 104.75C53.0601 104.859 51.999 105.31 51.1267 105.165C50.5647 105.072 50.1775 104.598 49.6989 103.976M47.9795 102.125C48.2916 102.374 48.566 102.618 48.7778 102.848C49.1425 103.243 49.4346 103.632 49.6989 103.976M47.9795 102.125C48.0834 102.533 48.3216 103.543 48.4441 104.316C48.5972 105.283 49.2221 104.759 49.4545 104.439L49.6989 103.976" stroke="black" stroke-width="0.437942"/>
    <path d="M40.2744 88.4814C40.8172 88.6314 42.3696 89.1972 44.2368 90.2604C46.5707 91.5895 47.5743 92.563 48.6872 94.2271" stroke="black" stroke-width="0.437942"/>
    <path d="M40.5703 88.5762L41.2921 93.1334C42.1138 93.8526 46.5261 94.0031 48.3213 93.7188C45.9008 90.5915 42.1454 88.9873 40.5703 88.5762Z" fill="white" stroke="black" stroke-width="0.437942"/>
    <path d="M44.9455 93.8292C43.7937 92.9923 43.3691 90.7286 43.3008 89.7013C45.8658 90.8805 47.7193 92.8708 48.3255 93.7185C47.4363 93.765 45.5154 93.8522 44.9455 93.8292Z" fill="#008086" stroke="black" stroke-width="0.437942"/>
    <circle cx="45.0303" cy="91.6925" r="0.699093" transform="rotate(-9 45.0303 91.6925)" fill="white"/>
    <circle cx="45.5526" cy="92.3165" r="0.838912" transform="rotate(-9 45.5526 92.3165)" fill="black"/>
    <path d="M55.6924 89.295C55.6519 89.7544 55.938 91.1435 56.0861 91.7807C56.9984 90.3905 57.4635 89.156 57.582 88.7126L56.8533 85.0058C56.4832 86.2441 55.7329 88.8356 55.6924 89.295Z" fill="white" stroke="black" stroke-width="0.437942"/>
    <path d="M57.0866 90.0651C57.08 88.5939 56.6272 87.1651 56.4017 86.6346L55.6906 89.2953L55.7562 89.7096L56.1062 91.9192C56.2926 91.6065 56.7496 90.798 57.0866 90.0651Z" fill="#008086" stroke="black" stroke-width="0.437942"/>
    <path d="M56.4698 89.7384C56.5223 90.0698 56.0605 90.1335 55.823 90.124L55.6699 89.1573C55.7255 88.9125 55.892 88.4143 56.1129 88.3793C56.3891 88.3356 56.4041 89.3241 56.4698 89.7384Z" fill="black" stroke="black" stroke-width="0.437942"/>
    <rect x="0.838867" y="22.3877" width="65.4723" height="126.31" rx="3.50353" transform="rotate(-9 0.838867 22.3877)" fill="#005BA6"/>
  </g>
  <rect x="4.29883" y="16.2021" width="65.2154" height="126.287" rx="3.48979" transform="rotate(-9 4.29883 16.2021)" fill="#21EDF8"/>
  <rect x="6.82324" y="32.1436" width="65.2154" height="3.92601" transform="rotate(-9 6.82324 32.1436)" fill="white"/>
  <rect x="7.02832" y="33.4365" width="65.2154" height="1.30867" transform="rotate(-9 7.02832 33.4365)" fill="#61B9F5"/>
  <g opacity="0.7">
    <path fill-rule="evenodd" clip-rule="evenodd" d="M52.3266 77.8808L65.7502 75.7547C63.2958 66.3791 54.0808 60.2126 44.3065 61.7607C34.5323 63.3088 27.6738 72.0211 28.2368 81.6963L41.6604 79.5702C42.0889 77.2509 43.9343 75.3456 46.3964 74.9557C48.8586 74.5657 51.2024 75.8075 52.3266 77.8808Z" fill="white"/>
    <mask id="path-26-inside-1_40000140_21720" fill="white">
      <path fill-rule="evenodd" clip-rule="evenodd" d="M42.2575 83.3407L28.834 85.4668C31.2884 94.8424 40.5034 101.009 50.2777 99.4609C60.052 97.9128 66.9104 89.2005 66.3475 79.5252L52.9241 81.6513C52.4957 83.9708 50.6502 85.8763 48.1879 86.2662C45.7256 86.6562 43.3817 85.4143 42.2575 83.3407Z"/>
    </mask>
    <path d="M42.2575 83.3407L43.456 82.691L42.9965 81.8435L42.0443 81.9943L42.2575 83.3407ZM28.834 85.4668L28.6207 84.1204L27.134 84.3559L27.5152 85.812L28.834 85.4668ZM66.3475 79.5252L67.7084 79.4461L67.6209 77.9434L66.1342 78.1788L66.3475 79.5252ZM52.9241 81.6513L52.7108 80.3049L51.7586 80.4557L51.5835 81.4037L52.9241 81.6513ZM42.0443 81.9943L28.6207 84.1204L29.0472 86.8132L42.4708 84.6871L42.0443 81.9943ZM27.5152 85.812C30.1453 95.8588 40.0177 102.466 50.4909 100.807L50.0644 98.1145C40.9891 99.5519 32.4315 93.8261 30.1527 85.1216L27.5152 85.812ZM50.4909 100.807C60.9642 99.1485 68.3116 89.8138 67.7084 79.4461L64.9866 79.6044C65.5092 88.5871 59.1398 96.6771 50.0644 98.1145L50.4909 100.807ZM66.1342 78.1788L52.7108 80.3049L53.1373 82.9977L66.5607 80.8717L66.1342 78.1788ZM51.5835 81.4037C51.2568 83.1729 49.8486 84.623 47.9747 84.9198L48.4012 87.6127C51.4519 87.1295 53.7346 84.7686 54.2646 81.8989L51.5835 81.4037ZM47.9747 84.9198C46.1008 85.2166 44.3134 84.2726 43.456 82.691L41.0591 83.9904C42.45 86.556 45.3505 88.0958 48.4012 87.6127L47.9747 84.9198Z" fill="white" mask="url(#path-26-inside-1_40000140_21720)"/>
    <path fill-rule="evenodd" clip-rule="evenodd" d="M65.9936 76.6823L51.2801 79.0127C50.5524 77.1918 48.6399 76.0493 46.6214 76.369C44.603 76.6886 43.1371 78.3662 43.0078 80.3229L28.294 82.6533L28.5925 84.5383L43.3064 82.2079C44.0342 84.0287 45.9465 85.171 47.9649 84.8514C49.9833 84.5317 51.4491 82.8543 51.5785 80.8977L66.2921 78.5673L65.9936 76.6823ZM47.6662 82.9664C48.9676 82.7603 49.8554 81.5383 49.6493 80.237C49.4432 78.9357 48.2212 78.0478 46.9199 78.2539C45.6186 78.46 44.7307 79.682 44.9368 80.9834C45.1429 82.2847 46.3649 83.1725 47.6662 82.9664Z" fill="white"/>
  </g>
  <defs>
    <filter id="filter0_d_40000140_21720" x="0.838867" y="0.124519" width="98.5328" height="148.31" filterUnits="userSpaceOnUse" color-interpolation-filters="sRGB">
      <feFlood flood-opacity="0" result="BackgroundImageFix"/>
      <feColorMatrix in="SourceAlpha" type="matrix" values="0 0 0 0 0 0 0 0 0 0 0 0 0 0 0 0 0 0 127 0" result="hardAlpha"/>
      <feOffset dx="7.82259" dy="-5.21506"/>
      <feGaussianBlur stdDeviation="3.35755"/>
      <feComposite in2="hardAlpha" operator="out"/>
      <feColorMatrix type="matrix" values="0 0 0 0 0.784314 0 0 0 0 0.843137 0 0 0 0 0.909804 0 0 0 0.25 0"/>
      <feBlend mode="normal" in2="BackgroundImageFix" result="effect1_dropShadow_40000140_21720"/>
      <feBlend mode="normal" in="SourceGraphic" in2="effect1_dropShadow_40000140_21720" result="shape"/>
    </filter>
  </defs>
</svg>
