<svg width="48" height="80" viewBox="0 0 48 80" fill="none"
  xmlns="http://www.w3.org/2000/svg">
  <g clip-path="url(#clip0_40000149_24804)">
    <g filter="url(#filter0_d_40000149_24804)">
      <rect x="-7" y="9.62842" width="50.2178" height="97.2445" rx="2.68724" transform="rotate(-3 -7 9.62842)" fill="#21EDF8"/>
      <rect x="-6.34961" y="22.04" width="50.2178" height="3.02315" transform="rotate(-3 -6.34961 22.04)" fill="white"/>
      <rect x="-6.29688" y="23.0464" width="50.2178" height="1.00772" transform="rotate(-3 -6.29688 23.0464)" fill="#61B9F5"/>
      <rect x="-6.19238" y="25.0591" width="50.2178" height="76.7543" transform="rotate(-3 -6.19238 25.0591)" fill="#21EDF8"/>
      <path d="M13.5701 87.344C5.52525 86.0166 -1.11642 80.3773 -3.43164 77.7236L-2.17468 101.708L47.9743 99.0797L47.1305 82.9784C39.2957 84.9867 21.615 88.6715 13.5701 87.344Z" fill="#CDB389"/>
      <g opacity="0.7">
        <path fill-rule="evenodd" clip-rule="evenodd" d="M18.183 57.5229L8.22682 58.0446C8.55801 50.9429 14.2296 45.1128 21.4792 44.7328C28.7287 44.3529 34.9787 49.5583 36.0504 56.5865L26.0942 57.1083C25.433 55.5094 23.8183 54.4237 21.9921 54.5194C20.1659 54.6151 18.6734 55.8637 18.183 57.5229Z" fill="white"/>
        <mask id="path-7-inside-1_40000149_24804" fill="white">
          <path fill-rule="evenodd" clip-rule="evenodd" d="M18.3302 60.319L8.37402 60.8408C9.44573 67.869 15.6957 73.0744 22.9452 72.6945C30.1948 72.3145 35.8664 66.4844 36.1976 59.3826L26.2414 59.9044C25.751 61.5636 24.2585 62.8122 22.4323 62.9079C20.6061 63.0036 18.9914 61.9179 18.3302 60.319Z"/>
        </mask>
        <path d="M18.3302 60.319L19.2543 59.9369L18.9841 59.2834L18.2779 59.3204L18.3302 60.319ZM8.37402 60.8408L8.32169 59.8422L7.219 59.9L7.38545 60.9916L8.37402 60.8408ZM36.1976 59.3826L37.1965 59.4292L37.2479 58.3262L36.1453 58.384L36.1976 59.3826ZM26.2414 59.9044L26.1891 58.9058L25.4828 58.9428L25.2824 59.621L26.2414 59.9044ZM18.2779 59.3204L8.32169 59.8422L8.42636 61.8394L18.3826 61.3177L18.2779 59.3204ZM7.38545 60.9916C8.53387 68.5228 15.2296 74.1002 22.9976 73.6931L22.8929 71.6958C16.1618 72.0486 10.3576 67.2152 9.3626 60.6901L7.38545 60.9916ZM22.9976 73.6931C30.7655 73.286 36.8416 67.0393 37.1965 59.4292L35.1987 59.3361C34.8912 65.9294 29.624 71.3431 22.8929 71.6958L22.9976 73.6931ZM36.1453 58.384L26.1891 58.9058L26.2937 60.9031L36.2499 60.3813L36.1453 58.384ZM25.2824 59.621C24.9084 60.8865 23.7698 61.8364 22.38 61.9093L22.4847 63.9065C24.7473 63.788 26.5936 62.2408 27.2004 60.1879L25.2824 59.621ZM22.38 61.9093C20.9902 61.9821 19.7586 61.1564 19.2543 59.9369L17.4061 60.7012C18.2241 62.6794 20.2221 64.0251 22.4847 63.9065L22.38 61.9093Z" fill="white" mask="url(#path-7-inside-1_40000149_24804)"/>
        <path fill-rule="evenodd" clip-rule="evenodd" d="M36.1572 57.2815L25.2442 57.8535C24.8529 56.4692 23.5453 55.4891 22.0482 55.5676C20.5511 55.646 19.3531 56.7575 19.1087 58.175L8.19561 58.7469L8.26888 60.145L19.182 59.5731C19.5732 60.9573 20.8809 61.9374 22.3779 61.859C23.875 61.7805 25.073 60.6691 25.3174 59.2515L36.2305 58.6796L36.1572 57.2815ZM22.3046 60.4608C23.2698 60.4102 24.0112 59.5868 23.9607 58.6216C23.9101 57.6564 23.0866 56.915 22.1215 56.9656C21.1563 57.0162 20.4149 57.8396 20.4654 58.8048C20.516 59.7699 21.3395 60.5114 22.3046 60.4608Z" fill="white"/>
      </g>
    </g>
  </g>
  <defs>
    <filter id="filter0_d_40000149_24804" x="-7" y="-2.15055" width="66.3888" height="110.041" filterUnits="userSpaceOnUse" color-interpolation-filters="sRGB">
      <feFlood flood-opacity="0" result="BackgroundImageFix"/>
      <feColorMatrix in="SourceAlpha" type="matrix" values="0 0 0 0 0 0 0 0 0 0 0 0 0 0 0 0 0 0 127 0" result="hardAlpha"/>
      <feOffset dx="6" dy="-4"/>
      <feGaussianBlur stdDeviation="2.57527"/>
      <feComposite in2="hardAlpha" operator="out"/>
      <feColorMatrix type="matrix" values="0 0 0 0 0.784314 0 0 0 0 0.843137 0 0 0 0 0.909804 0 0 0 0.25 0"/>
      <feBlend mode="normal" in2="BackgroundImageFix" result="effect1_dropShadow_40000149_24804"/>
      <feBlend mode="normal" in="SourceGraphic" in2="effect1_dropShadow_40000149_24804" result="shape"/>
    </filter>
    <clipPath id="clip0_40000149_24804">
      <rect width="48" height="80" fill="white"/>
    </clipPath>
  </defs>
</svg>
