<svg width="48" height="80" viewBox="0 0 48 80" fill="none" xmlns="http://www.w3.org/2000/svg">
<g clip-path="url(#clip0_474_16551)">
<g filter="url(#filter0_d_474_16551)">
<rect x="-7" y="9.63" width="50.2178" height="97.2445" rx="2.68724" transform="rotate(-3 -7 9.63)" fill="#F370FA"/>
<rect x="-6.34961" y="22.0415" width="50.2178" height="3.02315" transform="rotate(-3 -6.34961 22.0415)" fill="white"/>
<rect x="-6.29688" y="23.0478" width="50.2178" height="1.00772" transform="rotate(-3 -6.29688 23.0478)" fill="#61B9F5"/>
<rect x="-6.19141" y="25.0605" width="50.2178" height="76.7543" transform="rotate(-3 -6.19141 25.0605)" fill="#F370FA"/>
<path d="M13.5701 87.3457C5.52525 86.0182 -1.11642 80.379 -3.43164 77.7253L-2.17468 101.71L47.9743 99.0814L47.1305 82.9801C39.2957 84.9884 21.615 88.6732 13.5701 87.3457Z" fill="#CDB389"/>
<g opacity="0.7">
<path fill-rule="evenodd" clip-rule="evenodd" d="M17.684 57.5246L7.72779 58.0464C8.05899 50.9447 13.7306 45.1145 20.9801 44.7346C28.2297 44.3547 34.4796 49.5601 35.5514 56.5883L25.5952 57.11C24.934 55.5112 23.3192 54.4255 21.493 54.5212C19.6668 54.6169 18.1744 55.8654 17.684 57.5246Z" fill="white"/>
<mask id="path-7-inside-1_474_16551" fill="white">
<path fill-rule="evenodd" clip-rule="evenodd" d="M17.8312 60.3209L7.875 60.8427C8.94671 67.8709 15.1967 73.0763 22.4462 72.6963C29.6958 72.3164 35.3674 66.4862 35.6986 59.3845L25.7424 59.9063C25.252 61.5655 23.7595 62.8141 21.9333 62.9098C20.1071 63.0055 18.4924 61.9198 17.8312 60.3209Z"/>
</mask>
<path d="M17.8312 60.3209L18.7553 59.9388L18.4851 59.2853L17.7789 59.3223L17.8312 60.3209ZM7.875 60.8427L7.82266 59.8441L6.71997 59.9018L6.88643 60.9934L7.875 60.8427ZM35.6986 59.3845L36.6975 59.4311L36.7489 58.3281L35.6462 58.3859L35.6986 59.3845ZM25.7424 59.9063L25.69 58.9077L24.9838 58.9447L24.7834 59.6228L25.7424 59.9063ZM17.7789 59.3223L7.82266 59.8441L7.92734 61.8413L17.8835 61.3195L17.7789 59.3223ZM6.88643 60.9934C8.03485 68.5247 14.7306 74.1021 22.4986 73.695L22.3939 71.6977C15.6628 72.0505 9.85857 67.2171 8.86357 60.6919L6.88643 60.9934ZM22.4986 73.695C30.2665 73.2879 36.3426 67.0412 36.6975 59.4311L34.6997 59.3379C34.3922 65.9313 29.125 71.3449 22.3939 71.6977L22.4986 73.695ZM35.6462 58.3859L25.69 58.9077L25.7947 60.9049L35.7509 60.3831L35.6462 58.3859ZM24.7834 59.6228C24.4093 60.8884 23.2708 61.8383 21.881 61.9111L21.9857 63.9084C24.2482 63.7898 26.0946 62.2426 26.7014 60.1897L24.7834 59.6228ZM21.881 61.9111C20.4912 61.984 19.2596 61.1583 18.7553 59.9388L16.9071 60.703C17.7251 62.6813 19.7231 64.027 21.9857 63.9084L21.881 61.9111Z" fill="white" mask="url(#path-7-inside-1_474_16551)"/>
</g>
</g>
</g>
<defs>
<filter id="filter0_d_474_16551" x="-7" y="-2.14874" width="66.3888" height="110.041" filterUnits="userSpaceOnUse" color-interpolation-filters="sRGB">
<feFlood flood-opacity="0" result="BackgroundImageFix"/>
<feColorMatrix in="SourceAlpha" type="matrix" values="0 0 0 0 0 0 0 0 0 0 0 0 0 0 0 0 0 0 127 0" result="hardAlpha"/>
<feOffset dx="6" dy="-4"/>
<feGaussianBlur stdDeviation="2.57527"/>
<feComposite in2="hardAlpha" operator="out"/>
<feColorMatrix type="matrix" values="0 0 0 0 0.784314 0 0 0 0 0.843137 0 0 0 0 0.909804 0 0 0 0.25 0"/>
<feBlend mode="normal" in2="BackgroundImageFix" result="effect1_dropShadow_474_16551"/>
<feBlend mode="normal" in="SourceGraphic" in2="effect1_dropShadow_474_16551" result="shape"/>
</filter>
<clipPath id="clip0_474_16551">
<rect width="48" height="80" fill="white"/>
</clipPath>
</defs>
</svg>
