<svg width="99" height="149" viewBox="0 0 99 149" fill="none" xmlns="http://www.w3.org/2000/svg">
<g opacity="0.2" filter="url(#filter0_d_40001101_49759)">
<rect y="22.207" width="65.4723" height="126.784" rx="3.50353" transform="rotate(-9 0 22.207)" fill="#A158ED"/>
<rect x="2.53418" y="38.2109" width="65.4723" height="3.94148" transform="rotate(-9 2.53418 38.2109)" fill="white"/>
<rect x="2.74023" y="39.5098" width="65.4723" height="1.31383" transform="rotate(-9 2.74023 39.5098)" fill="#61B9F5"/>
<rect x="3.14941" y="42.1035" width="65.4723" height="100.07" transform="rotate(-9 3.14941 42.1035)" fill="#4D6ECB"/>
<path d="M10.0703 85.791L77.8366 95.1218L81.6731 119.345L17.0069 129.587L10.0703 85.791Z" fill="#65612E"/>
<path d="M37.2622 120.173C26.6501 119.548 17.2699 113.141 13.9062 110.016L18.8047 140.943L83.4709 130.701L80.1824 109.938C70.2974 113.61 47.8743 120.798 37.2622 120.173Z" fill="#CDB389"/>
<path d="M35.2188 96.7974C33.5535 95.2208 34.4314 91.8259 34.5176 89.6888C34.7442 87.2464 34.0802 86.9268 33.7302 84.7173C33.3803 82.5077 29.6203 78.4317 26.9008 76.4559C24.1814 74.4801 23.3228 72.6342 24.7393 70.8527C26.1559 69.0711 33.7401 74.948 36.2996 76.8076C38.8591 78.6672 40.3126 78.0123 42.9433 76.7463C45.574 75.4802 43.4631 69.3027 43.0913 66.9551C42.7194 64.6074 41.977 62.6016 44.281 61.9536C46.5849 61.3055 47.874 66.7638 49.7662 71.5603C51.6584 76.3568 53.7093 78.5801 55.0547 79.9242C56.4 81.2683 56.0664 82.7368 55.9652 83.8853C55.8639 85.0338 56.4901 87.1996 56.985 88.5368C57.4799 89.8741 58.0692 90.9132 58.9059 92.621C59.7427 94.3288 60.4113 94.0813 61.4148 95.0549C62.4184 96.0284 62.041 97.2207 61.8742 97.9549C61.7073 98.6891 61.1918 99.9033 60.7925 100.957C60.3933 102.012 59.8121 102.811 59.6891 103.822C59.566 104.832 58.3381 106.018 57.2333 106.193C56.1285 106.368 54.9513 106.979 53.5416 107.91C52.1319 108.841 48.7219 106.975 48.242 106.626C47.7621 106.277 41.2321 100.8 39.9523 99.8698C38.6725 98.94 36.8841 98.3739 35.2188 96.7974Z" fill="#F29600" stroke="black" stroke-width="0.437942"/>
<path d="M44.8491 101.768C43.3919 101.667 42.2131 100.523 39.7025 99.3689L39.7367 99.5851L44.9582 103.857L47.2301 105.604L48.8928 107.003L50.9195 107.901L53.1679 108.099L54.5962 107.319L56.2408 106.504L58.0448 105.997L59.3136 104.909L59.774 103.617L59.3415 103.685L60.1435 102.45L61.832 98.4134L62.0473 96.2732L61.4092 95.0441L60.4071 94.316L59.3707 93.3716L58.3965 91.4198L56.9779 88.7623L56.2307 85.4443L56.008 84.0385L56.0467 81.4829L55.4257 80.3619L53.2845 78.0406L51.2738 75.1444L49.8489 71.0469L47.2335 65.0319L46.0997 62.7727C44.5848 60.9065 42.5331 62.6504 42.7249 63.8615C42.9647 65.3754 43.1414 65.7908 43.0792 66.7983C43.0171 67.8058 44.3168 71.8123 44.5052 73.0018C44.6936 74.1913 44.1989 75.2673 43.8691 75.9846L43.8691 75.9846C43.2746 77.2778 41.5704 77.5681 41.0297 77.6537C40.5971 77.7222 39.2085 78.053 38.5596 78.1558C38.8348 78.26 39.4352 78.5048 39.6356 78.6505C39.8862 78.8325 42.7266 79.2694 44.3091 79.4622C45.8915 79.6549 50.0746 78.7707 51.1677 79.3735C52.2608 79.9763 54.4877 82.8383 54.7618 84.5685C55.0358 86.2987 56.449 89.6221 56.6941 90.47C56.9393 91.318 57.6116 92.7634 58.8932 94.5558C60.1747 96.3481 60.0323 96.1489 59.3213 97.2592C58.6104 98.3694 57.6885 98.848 56.7442 99.8844C55.7998 100.921 54.5868 99.561 53.363 99.5331C52.1393 99.5052 52.0258 100.188 51.3373 100.741C50.6488 101.293 50.1884 102.585 49.1638 102.415C48.1392 102.245 46.3062 101.87 44.8491 101.768Z" fill="#D7890A"/>
<path d="M35.2188 96.7974C33.5535 95.2208 34.4314 91.8259 34.5176 89.6888C34.7442 87.2464 34.0802 86.9268 33.7302 84.7173C33.3803 82.5077 29.6203 78.4317 26.9008 76.4559C24.1814 74.4801 23.3228 72.6342 24.7393 70.8527C26.1559 69.0711 33.7401 74.948 36.2996 76.8076C38.8591 78.6672 40.3126 78.0123 42.9433 76.7463C45.574 75.4802 43.4631 69.3027 43.0913 66.9551C42.7194 64.6074 41.977 62.6016 44.281 61.9536C46.5849 61.3055 47.874 66.7638 49.7662 71.5603C51.6584 76.3568 53.7093 78.5801 55.0547 79.9242C56.4 81.2683 56.0664 82.7368 55.9652 83.8853C55.8639 85.0338 56.4901 87.1996 56.985 88.5368C57.4799 89.8741 58.0692 90.9132 58.9059 92.621C59.7427 94.3288 60.4113 94.0813 61.4148 95.0549C62.4184 96.0284 62.041 97.2207 61.8742 97.9549C61.7073 98.6891 61.1918 99.9033 60.7925 100.957C60.3933 102.012 59.8121 102.811 59.6891 103.822C59.566 104.832 58.3381 106.018 57.2333 106.193C56.1285 106.368 54.9513 106.979 53.5416 107.91C52.1319 108.841 48.7219 106.975 48.242 106.626C47.7621 106.277 41.2321 100.8 39.9523 99.8698C38.6725 98.94 36.8841 98.3739 35.2188 96.7974Z" stroke="black" stroke-width="0.437942"/>
<path d="M37.709 77.5762C38.487 78.0192 39.3087 78.7384 39.8611 78.6509C40.4135 78.5634 42.3837 79.3839 43.5035 80.1974" stroke="black" stroke-width="0.437942"/>
<path d="M47.6052 104.321C47.7583 105.288 48.3832 104.764 48.6156 104.444L48.86 103.981C48.5958 103.637 48.3037 103.248 47.9389 102.852C47.7271 102.623 47.4527 102.379 47.1407 102.129C47.2445 102.538 47.4827 103.548 47.6052 104.321Z" fill="white"/>
<path d="M48.9347 87.6892C49.2014 87.8829 49.7376 88.468 49.7496 89.2588M48.5818 94.3985C48.9952 93.7667 49.7873 92.0841 49.6484 90.4074M54.0456 89.5694C53.934 89.1624 53.7629 88.1419 53.9719 87.3161M51.0782 101.223C51.405 100.605 52.1024 99.6449 52.7929 99.5355C53.4834 99.4261 53.8977 99.3605 54.3557 99.5711C54.8137 99.7817 55.388 99.8323 55.9404 99.7448C56.3823 99.6748 56.8319 99.4149 57.0014 99.2936M52.8379 102.501C52.9081 102.348 53.1313 102.03 53.4628 101.978C53.8771 101.912 54.3351 102.122 54.4951 102.239M59.6403 99.8666L60.8025 98.2669M39.0093 95.6315C39.1624 96.5981 39.2868 98.2772 40.4572 98.5165C41.6276 98.7558 42.18 98.6683 43.2998 99.4819C44.1883 100.127 45.9419 101.171 47.1407 102.129M60.0558 102.49C59.4966 103.428 58.683 104.548 57.8982 104.956C57.1133 105.363 56.0154 104.688 55.1212 104.405C54.227 104.121 53.6022 104.645 52.9117 104.754C52.2212 104.864 51.1602 105.315 50.2878 105.17C49.7258 105.077 49.3386 104.603 48.86 103.981M47.1407 102.129C47.4527 102.379 47.7271 102.623 47.9389 102.852C48.3037 103.248 48.5958 103.637 48.86 103.981M47.1407 102.129C47.2445 102.538 47.4827 103.548 47.6052 104.321C47.7583 105.288 48.3832 104.764 48.6156 104.444L48.86 103.981" stroke="black" stroke-width="0.437942"/>
<path d="M39.4355 88.4844C39.9784 88.6343 41.5308 89.2001 43.3979 90.2633C45.7318 91.5924 46.7354 92.566 47.8483 94.23" stroke="black" stroke-width="0.437942"/>
<path d="M39.7314 88.5801L40.4532 93.1373C41.275 93.8565 45.6872 94.007 47.4825 93.7227C45.0619 90.5954 41.3066 88.9912 39.7314 88.5801Z" fill="white" stroke="black" stroke-width="0.437942"/>
<path d="M44.1066 93.8321C42.9549 92.9953 42.5302 90.7315 42.4619 89.7042C45.0269 90.8834 46.8805 92.8737 47.4866 93.7214C46.5974 93.7679 44.6765 93.8551 44.1066 93.8321Z" fill="#008086" stroke="black" stroke-width="0.437942"/>
<circle cx="44.1914" cy="91.6964" r="0.699093" transform="rotate(-9 44.1914 91.6964)" fill="white"/>
<circle cx="44.7137" cy="92.3204" r="0.838912" transform="rotate(-9 44.7137 92.3204)" fill="black"/>
<path d="M54.8535 89.2998C54.813 89.7593 55.0991 91.1484 55.2472 91.7856C56.1595 90.3954 56.6246 89.1609 56.7431 88.7174L56.0145 85.0107C55.6443 86.249 54.894 88.8404 54.8535 89.2998Z" fill="white" stroke="black" stroke-width="0.437942"/>
<path d="M56.2477 90.07C56.2412 88.5988 55.7884 87.17 55.5628 86.6395L54.8517 89.3002L54.9173 89.7145L55.2673 91.924C55.4537 91.6114 55.9108 90.8029 56.2477 90.07Z" fill="#008086" stroke="black" stroke-width="0.437942"/>
<path d="M55.6309 89.7423C55.6834 90.0737 55.2216 90.1374 54.9841 90.1279L54.831 89.1612C54.8867 88.9164 55.0531 88.4182 55.2741 88.3832C55.5503 88.3395 55.5653 89.328 55.6309 89.7423Z" fill="black" stroke="black" stroke-width="0.437942"/>
<rect y="22.3906" width="65.4723" height="126.31" rx="3.50353" transform="rotate(-9 0 22.3906)" fill="#005BA6"/>
</g>
<rect x="3.45996" y="16.2012" width="65.2154" height="126.287" rx="3.48979" transform="rotate(-9 3.45996 16.2012)" fill="#ED2C2B"/>
<rect x="5.98438" y="32.1426" width="65.2154" height="3.92601" transform="rotate(-9 5.98438 32.1426)" fill="white"/>
<rect x="6.18945" y="33.4355" width="65.2154" height="1.30867" transform="rotate(-9 6.18945 33.4355)" fill="#61B9F5"/>
<g clip-path="url(#clip0_40001101_49759)">
<rect x="6.59863" y="36.0195" width="65.2154" height="99.677" transform="rotate(-9 6.59863 36.0195)" fill="url(#paint0_linear_40001101_49759)"/>
<g filter="url(#filter1_f_40001101_49759)">
<ellipse cx="36.6228" cy="79.1861" rx="44.2306" ry="25.3214" transform="rotate(-29.5923 36.6228 79.1861)" fill="url(#paint1_radial_40001101_49759)" fill-opacity="0.6"/>
</g>
<path d="M22.93 52.6115C32.262 49.1314 41.3541 47.7209 48.5075 48.25C55.671 48.7799 60.8459 51.2493 62.4232 55.479C64.0005 59.7087 61.7062 64.9635 56.6389 70.0546C51.5788 75.1384 43.7832 80.0257 34.4512 83.5058C25.1192 86.986 16.0271 88.3965 8.87372 87.8674C1.71017 87.3375 -3.46463 84.868 -5.04206 80.6384C-6.61942 76.4087 -4.32508 71.1539 0.742268 66.0627C5.80243 60.9789 13.598 56.0916 22.93 52.6115Z" stroke="white" stroke-width="0.218112"/>
<path d="M22.93 52.6115C32.262 49.1314 41.3541 47.7209 48.5075 48.25C55.671 48.7799 60.8459 51.2493 62.4232 55.479C64.0005 59.7087 61.7062 64.9635 56.6389 70.0546C51.5788 75.1384 43.7832 80.0257 34.4512 83.5058C25.1192 86.986 16.0271 88.3965 8.87372 87.8674C1.71017 87.3375 -3.46463 84.868 -5.04206 80.6384C-6.61942 76.4087 -4.32508 71.1539 0.742268 66.0627C5.80243 60.9789 13.598 56.0916 22.93 52.6115Z" stroke="white" stroke-width="0.218112"/>
<g filter="url(#filter2_f_40001101_49759)">
<ellipse cx="44.6692" cy="38.5602" rx="33.3497" ry="36.05" transform="rotate(4.18613 44.6692 38.5602)" fill="url(#paint2_radial_40001101_49759)"/>
</g>
<g filter="url(#filter3_f_40001101_49759)">
<ellipse cx="43.4817" cy="64.9609" rx="33.3497" ry="36.05" transform="rotate(-29.5923 43.4817 64.9609)" fill="url(#paint3_radial_40001101_49759)"/>
</g>
<path d="M22.9298 52.6121C29.7846 50.0559 36.4806 49.0718 41.7633 49.543C47.0548 50.0151 50.8884 51.9415 52.0895 55.1621C53.2903 58.3827 51.6539 62.3481 47.9637 66.1696C44.2796 69.9848 38.5746 73.6264 31.7198 76.1827C24.8648 78.7391 18.1678 79.7226 12.8851 79.2513C7.59378 78.7792 3.7613 76.8532 2.56012 73.6328C1.35907 70.4121 2.99433 66.4463 6.68463 62.6247C10.3688 58.8094 16.0748 55.1685 22.9298 52.6121Z" stroke="white" stroke-width="0.218112"/>
<path d="M22.9298 52.6121C29.7846 50.0559 36.4806 49.0718 41.7633 49.543C47.0548 50.0151 50.8884 51.9415 52.0895 55.1621C53.2903 58.3827 51.6539 62.3481 47.9637 66.1696C44.2796 69.9848 38.5746 73.6264 31.7198 76.1827C24.8648 78.7391 18.1678 79.7226 12.8851 79.2513C7.59378 78.7792 3.7613 76.8532 2.56012 73.6328C1.35907 70.4121 2.99433 66.4463 6.68463 62.6247C10.3688 58.8094 16.0748 55.1685 22.9298 52.6121Z" stroke="white" stroke-width="0.218112"/>
<path d="M22.9294 52.6117C28.5359 50.5209 33.9858 49.6465 38.2627 49.9192C40.4014 50.0556 42.2421 50.478 43.6608 51.1747C45.0787 51.8709 46.0697 52.8381 46.5259 54.0616C46.9822 55.285 46.8665 56.6649 46.2507 58.1196C45.6346 59.575 44.5199 61.0996 42.9928 62.603C39.9389 65.6096 35.2472 68.5172 29.6407 70.608C24.034 72.6989 18.5834 73.5737 14.3064 73.3009C12.168 73.1644 10.3279 72.7416 8.90929 72.0451C7.49138 71.3488 6.50047 70.3816 6.04418 69.1581C5.58791 67.9347 5.7036 66.5548 6.31937 65.1001C6.93544 63.6448 8.04942 62.1204 9.57635 60.617C12.6303 57.6103 17.3227 54.7025 22.9294 52.6117Z" stroke="white" stroke-width="0.218112"/>
<path d="M22.9294 52.6117C28.5359 50.5209 33.9858 49.6465 38.2627 49.9192C40.4014 50.0556 42.2421 50.478 43.6608 51.1747C45.0787 51.8709 46.0697 52.8381 46.5259 54.0616C46.9822 55.285 46.8665 56.6649 46.2507 58.1196C45.6346 59.575 44.5199 61.0996 42.9928 62.603C39.9389 65.6096 35.2472 68.5172 29.6407 70.608C24.034 72.6989 18.5834 73.5737 14.3064 73.3009C12.168 73.1644 10.3279 72.7416 8.90929 72.0451C7.49138 71.3488 6.50047 70.3816 6.04418 69.1581C5.58791 67.9347 5.7036 66.5548 6.31937 65.1001C6.93544 63.6448 8.04942 62.1204 9.57635 60.617C12.6303 57.6103 17.3227 54.7025 22.9294 52.6117Z" stroke="white" stroke-width="0.218112"/>
<path d="M22.9298 52.6124C27.6824 50.8401 32.2683 50.009 35.8386 50.0956C37.6241 50.1388 39.15 50.4118 40.3141 50.9061C41.4778 51.4002 42.2707 52.1115 42.6128 53.0287C42.9548 53.9459 42.8212 55.0026 42.2652 56.1381C41.709 57.2739 40.7345 58.4794 39.4133 59.6812C36.7715 62.0843 32.7612 64.459 28.0086 66.2314C23.256 68.0037 18.67 68.8348 15.0998 68.7483C13.3143 68.705 11.7884 68.432 10.6243 67.9377C9.46053 67.4436 8.6677 66.7323 8.32562 65.8152C7.98357 64.8979 8.11715 63.8412 8.67315 62.7057C9.22938 61.5699 10.2039 60.3645 11.5251 59.1627C14.1669 56.7595 18.1772 54.3848 22.9298 52.6124Z" stroke="white" stroke-width="0.218112"/>
<path d="M22.9298 52.6124C27.6824 50.8401 32.2683 50.009 35.8386 50.0956C37.6241 50.1388 39.15 50.4118 40.3141 50.9061C41.4778 51.4002 42.2707 52.1115 42.6128 53.0287C42.9548 53.9459 42.8212 55.0026 42.2652 56.1381C41.709 57.2739 40.7345 58.4794 39.4133 59.6812C36.7715 62.0843 32.7612 64.459 28.0086 66.2314C23.256 68.0037 18.67 68.8348 15.0998 68.7483C13.3143 68.705 11.7884 68.432 10.6243 67.9377C9.46053 67.4436 8.6677 66.7323 8.32562 65.8152C7.98357 64.8979 8.11715 63.8412 8.67315 62.7057C9.22938 61.5699 10.2039 60.3645 11.5251 59.1627C14.1669 56.7595 18.1772 54.3848 22.9298 52.6124Z" stroke="white" stroke-width="0.218112"/>
<path d="M22.9293 52.6117C27.1578 51.0348 31.1579 50.0795 34.2055 49.8084C35.73 49.6728 37.01 49.7086 37.9586 49.92C38.9127 50.1327 39.5001 50.5153 39.6971 51.0435C39.894 51.5717 39.7002 52.2448 39.1185 53.0301C38.5399 53.8111 37.5963 54.6771 36.3552 55.5729C33.8743 57.3635 30.2254 59.2607 25.997 60.8376C21.7685 62.4145 17.7684 63.3698 14.7208 63.6409C13.1962 63.7765 11.916 63.7398 10.9673 63.5283C10.0135 63.3157 9.42626 62.9339 9.2292 62.4057C9.0322 61.8775 9.22564 61.2037 9.80752 60.4182C10.3861 59.6373 11.33 58.7721 12.5711 57.8764C15.052 56.0858 18.7009 54.1886 22.9293 52.6117Z" stroke="white" stroke-width="0.218112"/>
<path d="M22.9293 52.6117C27.1578 51.0348 31.1579 50.0795 34.2055 49.8084C35.73 49.6728 37.01 49.7086 37.9586 49.92C38.9127 50.1327 39.5001 50.5153 39.6971 51.0435C39.894 51.5717 39.7002 52.2448 39.1185 53.0301C38.5399 53.8111 37.5963 54.6771 36.3552 55.5729C33.8743 57.3635 30.2254 59.2607 25.997 60.8376C21.7685 62.4145 17.7684 63.3698 14.7208 63.6409C13.1962 63.7765 11.916 63.7398 10.9673 63.5283C10.0135 63.3157 9.42626 62.9339 9.2292 62.4057C9.0322 61.8775 9.22564 61.2037 9.80752 60.4182C10.3861 59.6373 11.33 58.7721 12.5711 57.8764C15.052 56.0858 18.7009 54.1886 22.9293 52.6117Z" stroke="white" stroke-width="0.218112"/>
<path d="M22.9303 52.6122C26.1107 51.4262 29.0737 50.5853 31.2925 50.1837C32.4026 49.9828 33.3211 49.8928 33.9852 49.9227C34.3178 49.9377 34.5806 49.9827 34.7692 50.0545C34.9579 50.1265 35.0576 50.219 35.0956 50.3205C35.1335 50.4222 35.119 50.558 35.0234 50.7362C34.9279 50.914 34.7588 51.1201 34.5172 51.3492C34.0348 51.8066 33.2816 52.34 32.311 52.915C30.3712 54.0644 27.581 55.3689 24.4007 56.555C21.2202 57.741 18.2565 58.5822 16.0376 58.9838C14.9275 59.1846 14.009 59.2748 13.3449 59.2448C13.0124 59.2298 12.7504 59.1845 12.5618 59.1126C12.3726 59.0405 12.273 58.9475 12.2351 58.8457C12.1973 58.744 12.212 58.6091 12.3076 58.431C12.4031 58.2532 12.5714 58.0474 12.8129 57.8183C13.2952 57.3609 14.0485 56.8275 15.0191 56.2525C16.959 55.1031 19.7499 53.7983 22.9303 52.6122Z" stroke="white" stroke-width="0.218112"/>
<path d="M22.9303 52.6122C26.1107 51.4262 29.0737 50.5853 31.2925 50.1837C32.4026 49.9828 33.3211 49.8928 33.9852 49.9227C34.3178 49.9377 34.5806 49.9827 34.7692 50.0545C34.9579 50.1265 35.0576 50.219 35.0956 50.3205C35.1335 50.4222 35.119 50.558 35.0234 50.7362C34.9279 50.914 34.7588 51.1201 34.5172 51.3492C34.0348 51.8066 33.2816 52.34 32.311 52.915C30.3712 54.0644 27.581 55.3689 24.4007 56.555C21.2202 57.741 18.2565 58.5822 16.0376 58.9838C14.9275 59.1846 14.009 59.2748 13.3449 59.2448C13.0124 59.2298 12.7504 59.1845 12.5618 59.1126C12.3726 59.0405 12.273 58.9475 12.2351 58.8457C12.1973 58.744 12.212 58.6091 12.3076 58.431C12.4031 58.2532 12.5714 58.0474 12.8129 57.8183C13.2952 57.3609 14.0485 56.8275 15.0191 56.2525C16.959 55.1031 19.7499 53.7983 22.9303 52.6122Z" stroke="white" stroke-width="0.218112"/>
<path d="M20.9588 47.3277C32.5035 43.0224 43.8624 41.5725 52.8923 42.7043C61.928 43.837 68.6002 47.5484 70.832 53.5325C73.0637 59.5168 70.4512 66.6915 64.3634 73.4641C58.2795 80.2322 48.7449 86.574 37.2002 90.8793C25.6556 95.1846 14.2966 96.6344 5.26672 95.5027C-3.76914 94.37 -10.4417 90.6579 -12.6733 84.6736C-14.9048 78.6893 -12.292 71.5154 -6.20433 64.7429C-0.120459 57.9747 9.4141 51.633 20.9588 47.3277Z" stroke="white" stroke-width="0.218112"/>
<path d="M20.9588 47.3277C32.5035 43.0224 43.8624 41.5725 52.8923 42.7043C61.928 43.837 68.6002 47.5484 70.832 53.5325C73.0637 59.5168 70.4512 66.6915 64.3634 73.4641C58.2795 80.2322 48.7449 86.574 37.2002 90.8793C25.6556 95.1846 14.2966 96.6344 5.26672 95.5027C-3.76914 94.37 -10.4417 90.6579 -12.6733 84.6736C-14.9048 78.6893 -12.292 71.5154 -6.20433 64.7429C-0.120459 57.9747 9.4141 51.633 20.9588 47.3277Z" stroke="white" stroke-width="0.218112"/>
<path d="M18.4536 40.608C32.4474 35.3894 46.3392 33.9593 57.4847 35.8611C68.6333 37.7634 77.0115 42.9937 80.0248 51.074C83.0379 59.1541 80.1301 68.5925 72.9494 77.3301C65.7708 86.0654 54.3351 94.0816 40.3413 99.3002C26.3475 104.519 12.4553 105.948 1.30987 104.046C-9.83864 102.144 -18.2165 96.9142 -21.2299 88.8342C-24.2432 80.754 -21.3356 71.3149 -14.1549 62.5771C-6.9762 53.8419 4.45983 45.8266 18.4536 40.608Z" stroke="white" stroke-width="0.218112"/>
<path d="M18.4536 40.608C32.4474 35.3894 46.3392 33.9593 57.4847 35.8611C68.6333 37.7634 77.0115 42.9937 80.0248 51.074C83.0379 59.1541 80.1301 68.5925 72.9494 77.3301C65.7708 86.0654 54.3351 94.0816 40.3413 99.3002C26.3475 104.519 12.4553 105.948 1.30987 104.046C-9.83864 102.144 -18.2165 96.9142 -21.2299 88.8342C-24.2432 80.754 -21.3356 71.3149 -14.1549 62.5771C-6.9762 53.8419 4.45983 45.8266 18.4536 40.608Z" stroke="white" stroke-width="0.218112"/>
<path d="M-9.04762 106.781C2.27055 93.9817 19.465 78.3258 8.74327 53.1957" stroke="white" stroke-width="0.436223"/>
<path d="M-0.777162 117.302C9.01964 99.2403 24.3855 85.9378 13.1486 47.1312" stroke="white" stroke-width="0.436223"/>
<path d="M14.6946 132.463C22.7683 100.917 31.0621 86.3952 14.9393 38.4566" stroke="white" stroke-width="0.436223"/>
<path d="M18.2051 29.5469C23.0801 45.5596 37.611 88.6598 40.6892 114.175" stroke="white" stroke-width="0.436223"/>
<path d="M24.5635 30.6016C30.932 52.5689 40.0814 84.2767 66.226 97.3334" stroke="white" stroke-width="0.436223"/>
<path d="M29.1631 30.9746C33.4217 43.0951 38.8185 71.9578 73.1648 84.6786" stroke="white" stroke-width="0.436223"/>
<path d="M-16.44 100.933C-0.100072 85.963 10.8592 76.1099 7.59599 62.456" stroke="white" stroke-width="0.436223"/>
<path d="M-23.0487 92.2128C-0.188147 77.5856 4.93866 73.4716 6.90561 65.0428" stroke="white" stroke-width="0.436223"/>
<path d="M-24.8481 82.5927C-2.23889 74.1964 0.134443 73.5454 6.82681 63.6802" stroke="white" stroke-width="0.436223"/>
<path d="M-26.2136 77.4421C-1.2948 67.9921 1.55162 66.8533 5.8173 64.2516" stroke="white" stroke-width="0.436223"/>
<path d="M82.7965 75.9997C62.5744 68.1961 42.8399 60.8656 36.9854 49.9609" stroke="white" stroke-width="0.436223"/>
<path d="M87.5716 60.1081C58.2892 59.3803 47.6359 59.0039 39.1475 50.5801" stroke="white" stroke-width="0.436223"/>
<path d="M54.5503 33.9416L77.1672 20.2571L59.9039 56.2616L52.4795 42.5534L53.4052 40.319L51.8551 38.6114L54.5503 33.9416Z" fill="#B6162A"/>
<path d="M55.8827 28.7481L73.2084 14.8241L64.3264 40.8131L55.8827 28.7481Z" fill="#991728"/>
<path d="M65.9786 29.977L73.721 21.8811L88.0235 85.8196L76.875 94.5222L72.5747 90.7583L57.8935 73.7545L53.4355 58.3643L57.8278 52.0787L62.3212 40.0524L63.7609 35.11L65.9786 29.977Z" fill="#D12B40"/>
<path d="M65.6805 108.89L83.8869 99.6753L83.1307 109.359L58.8082 121.629L21.1524 136.888L14.057 131.209L27.4476 125.182L65.6805 108.89Z" fill="#AA0E21"/>
<path d="M66.5119 54.5763L77.0497 50.6989L83.2426 89.7988L73.1653 96.5844L61.7755 61.6201L64.6774 59.7251L66.5119 54.5763Z" fill="#9A1B2C"/>
<path d="M15.9551 123.634L83.3314 88.5155L87.4481 98.774L19.448 131.23L15.9551 123.634Z" fill="#B91B2F"/>
<path d="M81.01 107.876L75.1815 111.897L71.3586 108.597L74.4426 107.233L78.9266 104.502L80.573 105.117L81.6242 104.95L81.01 107.876Z" fill="#830E1D"/>
<path d="M52.3026 121.38L17.0432 136.461L20.0373 142.183L33.3869 137.172L51.7988 130.956L61.84 128.019L68.6957 124.104L72.5383 118.175L86.6101 111.771L86.9766 104.304L79.7228 107.406L78.8485 108.69L73.8766 110.891L72.2484 112.092L66.3437 116.058L52.3026 121.38Z" fill="#B32536"/>
<path d="M86.4068 119.413L85.0124 110.609L81.0704 111.234L47.4931 129.281L51.2958 133.73L67.3455 134.286L86.4068 119.413Z" fill="#720512"/>
<path d="M39.3463 131.852L24.8016 139.947L92.9141 132.863L86.169 114.939L81.977 120.789L78.3237 124.937L67.5298 130.351L63.111 131.792L57.9206 132.614L52.3836 131.672L45.5222 130.873L39.3463 131.852Z" fill="#AA0E21"/>
<path d="M32.4811 128.897L20.9869 145.198L17.7715 124.896L27.758 123.315L32.6198 122.545L33.0465 125.238L32.4811 128.897Z" fill="#720512"/>
<g filter="url(#filter4_f_40001101_49759)">
<path d="M93.7227 10.9585L60.0239 36.6123L50.4896 40.5515L55.8207 44.2342L56.469 48.3273L45.8405 52.3294L50.3544 66.1892" stroke="#C1E6FE" stroke-width="2.61734"/>
</g>
<g filter="url(#filter5_f_40001101_49759)">
<path d="M93.7227 10.9585L60.0239 36.6123L50.4896 40.5515L55.8207 44.2342L56.469 48.3273L45.8405 52.3294L50.3544 66.1892" stroke="white" stroke-opacity="0.2" stroke-width="0.218112"/>
</g>
<g filter="url(#filter6_f_40001101_49759)">
<path d="M-1.32182 33.2998L18.9052 70.51L25.988 78.0103L19.6159 79.1849L17.3473 82.6529L25.4024 90.6589L15.6053 101.452" stroke="#C1E6FE" stroke-width="2.61734"/>
</g>
<g filter="url(#filter7_f_40001101_49759)">
<path d="M-1.32182 33.2998L18.9052 70.51L25.988 78.0103L19.6159 79.1849L17.3473 82.6529L25.4024 90.6589L15.6053 101.452" stroke="white" stroke-opacity="0.2" stroke-width="0.218112"/>
</g>
<path d="M60.4479 60.9064C63.0896 60.1568 60.5182 65.5327 60.4904 66.7517L54.1163 63.455C55.3463 62.8553 58.3346 61.5061 60.4479 60.9064Z" fill="#292421" stroke="black" stroke-width="0.218112"/>
<path d="M27.2073 65.9662C24.4633 66.0696 28.5701 70.3878 28.9732 71.5386L34.0167 66.4335C32.6616 66.2433 29.4025 65.8836 27.2073 65.9662Z" fill="#292421" stroke="black" stroke-width="0.218112"/>
<path d="M43.0069 56.8681L48.8432 62.3478L49.0057 62.5L48.9816 62.5038C47.8525 61.2442 45.7813 60.5804 43.5625 60.9318C41.344 61.2832 39.5801 62.5546 38.8954 64.1013L38.8713 64.1051L38.9788 63.9101L42.8362 56.8951L42.9036 56.7717L43.0069 56.8681Z" fill="#292421"/>
<path d="M43.0069 56.8681L43.0815 56.7886L43.0813 56.7884L43.0069 56.8681ZM48.8432 62.3478L48.7685 62.4273L48.7686 62.4273L48.8432 62.3478ZM49.0057 62.5L49.0228 62.6077L49.243 62.5728L49.0803 62.4204L49.0057 62.5ZM48.9816 62.5038L48.9004 62.5766L48.94 62.6208L48.9987 62.6115L48.9816 62.5038ZM43.5625 60.9318L43.5455 60.8241L43.5455 60.8241L43.5625 60.9318ZM38.8954 64.1013L38.9125 64.209L38.9711 64.1997L38.9951 64.1454L38.8954 64.1013ZM38.8713 64.1051L38.7758 64.0525L38.6681 64.2477L38.8884 64.2128L38.8713 64.1051ZM38.9788 63.9101L39.0743 63.9628L39.0744 63.9627L38.9788 63.9101ZM42.8362 56.8951L42.9317 56.9477L42.9319 56.9474L42.8362 56.8951ZM42.9036 56.7717L42.978 56.692L42.8753 56.5962L42.808 56.7194L42.9036 56.7717ZM43.0069 56.8681L42.9323 56.9476L48.7685 62.4273L48.8432 62.3478L48.9178 62.2682L43.0815 56.7886L43.0069 56.8681ZM48.8432 62.3478L48.7686 62.4273L48.9312 62.5796L49.0057 62.5L49.0803 62.4204L48.9177 62.2682L48.8432 62.3478ZM49.0057 62.5L48.9887 62.3923L48.9645 62.3961L48.9816 62.5038L48.9987 62.6115L49.0228 62.6077L49.0057 62.5ZM48.9816 62.5038L49.0628 62.431C47.9035 61.1378 45.792 60.4683 43.5455 60.8241L43.5625 60.9318L43.5796 61.0395C45.7706 60.6925 47.8014 61.3506 48.9004 62.5766L48.9816 62.5038ZM43.5625 60.9318L43.5455 60.8241C41.2991 61.1799 39.4987 62.4692 38.7957 64.0572L38.8954 64.1013L38.9951 64.1454C39.6616 62.6399 41.3888 61.3866 43.5796 61.0395L43.5625 60.9318ZM38.8954 64.1013L38.8784 63.9936L38.8542 63.9974L38.8713 64.1051L38.8884 64.2128L38.9125 64.209L38.8954 64.1013ZM38.8713 64.1051L38.9668 64.1578L39.0743 63.9628L38.9788 63.9101L38.8833 63.8574L38.7758 64.0525L38.8713 64.1051ZM38.9788 63.9101L39.0744 63.9627L42.9317 56.9477L42.8362 56.8951L42.7406 56.8426L38.8833 63.8576L38.9788 63.9101ZM42.8362 56.8951L42.9319 56.9474L42.9993 56.824L42.9036 56.7717L42.808 56.7194L42.7405 56.8428L42.8362 56.8951ZM42.9036 56.7717L42.8292 56.8515L42.9325 56.9478L43.0069 56.8681L43.0813 56.7884L42.978 56.692L42.9036 56.7717Z" fill="black"/>
<ellipse cx="46.5951" cy="80.1046" rx="21.0478" ry="18.5395" transform="rotate(-9 46.5951 80.1046)" fill="#292421"/>
<path d="M43.4336 60.8408C45.0012 60.5925 46.5001 60.8436 47.6569 61.4553C48.8136 62.0669 49.6347 63.0437 49.8251 64.2451C50.0154 65.4467 49.5363 66.6292 48.6251 67.5685C47.714 68.5077 46.3662 69.2097 44.7984 69.458C43.2307 69.7063 41.7319 69.4552 40.5751 68.8435C39.4183 68.2318 38.5972 67.2551 38.4069 66.0536C38.2167 64.8522 38.6957 63.6695 39.6068 62.7303C40.518 61.7911 41.866 61.0891 43.4336 60.8408Z" fill="#292421" stroke="black" stroke-width="0.218112"/>
<ellipse cx="46.3784" cy="78.0414" rx="15.4859" ry="12.1052" transform="rotate(-9 46.3784 78.0414)" fill="#E84042"/>
<path d="M59.7682 83.2517C61.36 80.9549 62.0976 78.3005 61.6728 75.6185C60.6269 69.0155 52.9316 64.7468 44.4844 66.0845C36.0371 67.4225 30.0367 73.8604 31.0824 80.4636C32.1259 87.0515 39.7885 91.3147 48.2128 90.0058C48.1964 90.0084 48.1802 90.0119 48.1638 90.0145C39.3 91.4184 31.1753 86.6246 30.0164 79.3075C28.8575 71.9905 35.1032 64.9206 43.9669 63.5167C52.8307 62.1128 60.9554 66.9066 62.1143 74.2237C62.6227 77.4333 61.7055 80.5945 59.7682 83.2517Z" fill="#F0893A"/>
<circle cx="56.2004" cy="71.7382" r="1.19961" transform="rotate(-9 56.2004 71.7382)" fill="#F0893A" stroke="black" stroke-width="0.218112"/>
<circle cx="35.0442" cy="76.1933" r="1.19961" transform="rotate(-9 35.0442 76.1933)" fill="#F0893A" stroke="black" stroke-width="0.218112"/>
<mask id="path-74-outside-1_40001101_49759" maskUnits="userSpaceOnUse" x="31.3041" y="72.5599" width="31.1459" height="20.3396" fill="black">
<rect fill="white" x="31.3041" y="72.5599" width="31.1459" height="20.3396"/>
<path d="M46.0029 75.7809C52.3812 74.7707 58.3062 77.2063 60.8822 81.4607C58.9187 85.6595 54.2326 89.0523 48.3629 89.9821C42.3908 90.9279 36.795 89.0711 33.6585 85.5688C34.8846 80.8179 39.7178 76.7764 46.0029 75.7809Z"/>
</mask>
<path d="M46.0029 75.7809C52.3812 74.7707 58.3062 77.2063 60.8822 81.4607C58.9187 85.6595 54.2326 89.0523 48.3629 89.9821C42.3908 90.9279 36.795 89.0711 33.6585 85.5688C34.8846 80.8179 39.7178 76.7764 46.0029 75.7809Z" fill="#E84042"/>
<path d="M46.0029 75.7809L45.9688 75.5655L46.0029 75.7809ZM60.8822 81.4607L61.0798 81.5531L61.1292 81.4474L61.0688 81.3477L60.8822 81.4607ZM48.3629 89.9821L48.397 90.1975L48.397 90.1975L48.3629 89.9821ZM33.6585 85.5688L33.4473 85.5143L33.4181 85.6274L33.496 85.7143L33.6585 85.5688ZM46.0029 75.7809L46.037 75.9963C52.3505 74.9964 58.1764 77.413 60.6957 81.5736L60.8822 81.4607L61.0688 81.3477C58.436 76.9996 52.4119 74.545 45.9688 75.5655L46.0029 75.7809ZM60.8822 81.4607L60.6847 81.3683C58.7571 85.4902 54.1403 88.8461 48.3288 89.7666L48.3629 89.9821L48.397 90.1975C54.3249 89.2585 59.0803 85.8289 61.0798 81.5531L60.8822 81.4607ZM48.3629 89.9821L48.3288 89.7666C42.4156 90.7032 36.8991 88.8605 33.8209 85.4233L33.6585 85.5688L33.496 85.7143C36.6909 89.2818 42.3661 91.1527 48.397 90.1975L48.3629 89.9821ZM33.6585 85.5688L33.8697 85.6233C35.0691 80.9757 39.8162 76.9816 46.037 75.9963L46.0029 75.7809L45.9688 75.5655C39.6193 76.5711 34.7001 80.66 33.4473 85.5143L33.6585 85.5688Z" fill="black" mask="url(#path-74-outside-1_40001101_49759)"/>
<mask id="path-76-outside-2_40001101_49759" maskUnits="userSpaceOnUse" x="36.0375" y="61.2576" width="19.5574" height="26.2075" fill="black">
<rect fill="white" x="36.0375" y="61.2576" width="19.5574" height="26.2075"/>
<path d="M43.9006 63.5276C44.6023 63.4165 45.2994 63.3439 45.9888 63.3086L46.1642 63.4173L46.206 63.4443L46.2138 63.4935C46.8236 67.3433 47.3202 70.1741 47.7889 72.2959C48.2578 74.4184 48.6981 75.8262 49.1916 76.8325C50.173 78.8327 51.3644 79.2561 53.5189 80.5816L53.6523 80.6623L53.5303 80.7597L47.2499 85.7292L47.1972 85.7711L47.1363 85.7422L40.0985 82.4402L40.0013 82.3943L40.0462 82.2972C40.4006 81.5078 40.8638 81.0287 41.2964 80.5083C41.7284 79.9887 42.1435 79.413 42.4319 78.4133C43.0122 76.4005 43.0833 72.6577 41.6901 64.2099L41.6863 64.1858L41.6932 64.161C41.7104 64.1035 41.7285 64.0475 41.7456 63.9925C42.444 63.8004 43.1633 63.6444 43.9006 63.5276Z"/>
</mask>
<path d="M43.9006 63.5276C44.6023 63.4165 45.2994 63.3439 45.9888 63.3086L46.1642 63.4173L46.206 63.4443L46.2138 63.4935C46.8236 67.3433 47.3202 70.1741 47.7889 72.2959C48.2578 74.4184 48.6981 75.8262 49.1916 76.8325C50.173 78.8327 51.3644 79.2561 53.5189 80.5816L53.6523 80.6623L53.5303 80.7597L47.2499 85.7292L47.1972 85.7711L47.1363 85.7422L40.0985 82.4402L40.0013 82.3943L40.0462 82.2972C40.4006 81.5078 40.8638 81.0287 41.2964 80.5083C41.7284 79.9887 42.1435 79.413 42.4319 78.4133C43.0122 76.4005 43.0833 72.6577 41.6901 64.2099L41.6863 64.1858L41.6932 64.161C41.7104 64.1035 41.7285 64.0475 41.7456 63.9925C42.444 63.8004 43.1633 63.6444 43.9006 63.5276Z" fill="#292421"/>
<path d="M43.9006 63.5276L43.8665 63.3122L43.8665 63.3122L43.9006 63.5276ZM45.9888 63.3086L46.1036 63.1232L46.0457 63.0873L45.9776 63.0908L45.9888 63.3086ZM46.1642 63.4173L46.2824 63.234L46.279 63.2319L46.1642 63.4173ZM46.206 63.4443L46.4214 63.4101L46.4062 63.3138L46.3242 63.261L46.206 63.4443ZM46.2138 63.4935L45.9984 63.5276L45.9984 63.5276L46.2138 63.4935ZM47.7889 72.2959L47.5759 72.3429L47.5759 72.3429L47.7889 72.2959ZM49.1916 76.8325L48.9958 76.9285L48.9958 76.9285L49.1916 76.8325ZM53.5189 80.5816L53.4046 80.7674L53.406 80.7682L53.5189 80.5816ZM53.6523 80.6623L53.7884 80.8327L54.0328 80.6376L53.7652 80.4757L53.6523 80.6623ZM53.5303 80.7597L53.6656 80.9308L53.6664 80.9302L53.5303 80.7597ZM47.2499 85.7292L47.1146 85.5581L47.114 85.5586L47.2499 85.7292ZM47.1972 85.7711L47.1037 85.9682L47.2267 86.0265L47.3331 85.9417L47.1972 85.7711ZM47.1363 85.7422L47.2298 85.5451L47.2289 85.5448L47.1363 85.7422ZM40.0985 82.4402L40.0054 82.6374L40.0059 82.6377L40.0985 82.4402ZM40.0013 82.3943L39.8033 82.3027L39.7124 82.4991L39.9082 82.5915L40.0013 82.3943ZM40.0462 82.2972L40.2442 82.3888L40.2452 82.3865L40.0462 82.2972ZM41.2964 80.5083L41.4641 80.6478L41.4641 80.6477L41.2964 80.5083ZM42.4319 78.4133L42.6414 78.4737L42.6415 78.4737L42.4319 78.4133ZM41.6901 64.2099L41.4747 64.2441L41.4749 64.2454L41.6901 64.2099ZM41.6863 64.1858L41.4762 64.1271L41.4634 64.1729L41.4709 64.2199L41.6863 64.1858ZM41.6932 64.161L41.4842 64.0985L41.4832 64.1023L41.6932 64.161ZM41.7456 63.9925L41.6878 63.7822L41.5729 63.8138L41.5374 63.9275L41.7456 63.9925ZM43.9006 63.5276L43.9347 63.743C44.6289 63.6331 45.3183 63.5613 45.9999 63.5264L45.9888 63.3086L45.9776 63.0908C45.2805 63.1265 44.5757 63.1999 43.8665 63.3122L43.9006 63.5276ZM45.9888 63.3086L45.8739 63.494L46.0493 63.6027L46.1642 63.4173L46.279 63.2319L46.1036 63.1232L45.9888 63.3086ZM46.1642 63.4173L46.0459 63.6006L46.0878 63.6276L46.206 63.4443L46.3242 63.261L46.2824 63.234L46.1642 63.4173ZM46.206 63.4443L45.9906 63.4784L45.9984 63.5276L46.2138 63.4935L46.4292 63.4593L46.4214 63.4101L46.206 63.4443ZM46.2138 63.4935L45.9984 63.5276C46.6082 67.378 47.1058 70.2143 47.5759 72.3429L47.7889 72.2959L48.0019 72.2488C47.5347 70.1339 47.0389 67.3086 46.4292 63.4593L46.2138 63.4935ZM47.7889 72.2959L47.5759 72.3429C48.0459 74.4706 48.4906 75.8986 48.9958 76.9285L49.1916 76.8325L49.3875 76.7364C48.9055 75.7538 48.4696 74.3663 48.0019 72.2488L47.7889 72.2959ZM49.1916 76.8325L48.9958 76.9285C50.012 78.9998 51.278 79.459 53.4046 80.7673L53.5189 80.5816L53.6332 80.3958C51.4508 79.0532 50.3339 78.6656 49.3874 76.7364L49.1916 76.8325ZM53.5189 80.5816L53.406 80.7682L53.5394 80.8489L53.6523 80.6623L53.7652 80.4757L53.6318 80.395L53.5189 80.5816ZM53.6523 80.6623L53.5162 80.4919L53.3942 80.5893L53.5303 80.7597L53.6664 80.9302L53.7884 80.8327L53.6523 80.6623ZM53.5303 80.7597L53.395 80.5887L47.1146 85.5581L47.2499 85.7292L47.3852 85.9002L53.6656 80.9308L53.5303 80.7597ZM47.2499 85.7292L47.114 85.5586L47.0613 85.6005L47.1972 85.7711L47.3331 85.9417L47.3858 85.8998L47.2499 85.7292ZM47.1972 85.7711L47.2907 85.5741L47.2298 85.5451L47.1363 85.7422L47.0428 85.9393L47.1037 85.9682L47.1972 85.7711ZM47.1363 85.7422L47.2289 85.5448L40.1912 82.2427L40.0985 82.4402L40.0059 82.6377L47.0436 85.9397L47.1363 85.7422ZM40.0985 82.4402L40.1916 82.243L40.0944 82.1971L40.0013 82.3943L39.9082 82.5915L40.0054 82.6374L40.0985 82.4402ZM40.0013 82.3943L40.1992 82.4859L40.2442 82.3888L40.0462 82.2972L39.8483 82.2056L39.8033 82.3027L40.0013 82.3943ZM40.0462 82.2972L40.2452 82.3865C40.5843 81.6312 41.022 81.1796 41.4641 80.6478L41.2964 80.5083L41.1287 80.3689C40.7056 80.8778 40.217 81.3844 39.8472 82.2079L40.0462 82.2972ZM41.2964 80.5083L41.4641 80.6477C41.9073 80.1146 42.3419 79.5125 42.6414 78.4737L42.4319 78.4133L42.2223 78.3529C41.9452 79.3136 41.5495 79.8627 41.1287 80.3689L41.2964 80.5083ZM42.4319 78.4133L42.6415 78.4737C43.237 76.4082 43.2981 72.62 41.9053 64.1745L41.6901 64.2099L41.4749 64.2454C42.8684 72.6954 42.7874 76.3929 42.2223 78.3529L42.4319 78.4133ZM41.6901 64.2099L41.9055 64.1758L41.9017 64.1517L41.6863 64.1858L41.4709 64.2199L41.4747 64.2441L41.6901 64.2099ZM41.6863 64.1858L41.8963 64.2446L41.9033 64.2197L41.6932 64.161L41.4832 64.1023L41.4762 64.1271L41.6863 64.1858ZM41.6932 64.161L41.9022 64.2235C41.9189 64.1676 41.9358 64.1152 41.9538 64.0575L41.7456 63.9925L41.5374 63.9275C41.5211 63.9799 41.5019 64.0394 41.4843 64.0985L41.6932 64.161ZM41.7456 63.9925L41.8035 64.2028C42.4941 64.0129 43.2054 63.8586 43.9347 63.743L43.9006 63.5276L43.8665 63.3122C43.1211 63.4302 42.394 63.588 41.6878 63.7822L41.7456 63.9925Z" fill="black" mask="url(#path-76-outside-2_40001101_49759)"/>
<circle cx="43.246" cy="84.0576" r="3.92601" transform="rotate(-9 43.246 84.0576)" fill="#292421" stroke="black" stroke-width="0.218112"/>
<circle cx="50.786" cy="82.8643" r="3.92601" transform="rotate(-9 50.786 82.8643)" fill="#292421" stroke="black" stroke-width="0.218112"/>
<path d="M50.1718 103.388L46.9815 83.246L40.8215 88.9696L50.1718 103.388Z" fill="#7D8283" stroke="black" stroke-width="0.218112"/>
<path d="M50.1716 103.389L46.9814 83.2461L54.6086 86.786L50.1716 103.389Z" fill="#7D8283" stroke="black" stroke-width="0.218112"/>
<path d="M43.9947 83.3865C44.9691 83 44.1208 81.2767 43.3848 79.5356C39.6376 69.6797 30.3896 63.5975 26.8699 61.7168C23.3503 59.8361 24.2928 61.4283 25.9673 62.5564C32.6699 66.3712 40.4351 79.0739 40.9691 80.2665C41.5032 81.459 43.0204 83.773 43.9947 83.3865Z" fill="#292421" stroke="black" stroke-width="0.218112"/>
<mask id="path-83-inside-3_40001101_49759" fill="white">
<path d="M41.6293 75.7094C42.2026 76.7333 42.7194 77.8098 43.1593 78.9396C42.5353 79.4553 41.5707 79.8424 40.7958 80.0732C40.7594 79.9995 40.7254 79.9289 40.6951 79.8618C40.5741 79.5935 40.0412 78.6733 39.2079 77.3763C40.6829 77.1107 41.3648 76.3948 41.6293 75.7094ZM37.0689 69.5768C37.9895 70.5516 38.8874 71.6119 39.726 72.757C39.217 73.3788 38.2657 74.0615 37.3085 74.5607C36.8216 73.8685 36.2988 73.1401 35.7414 72.4013C35.6426 72.2702 35.5416 72.1397 35.4409 72.0079C36.4071 71.4425 36.8724 70.4673 37.0689 69.5768ZM31.8775 64.9917C32.7937 65.67 33.7625 66.4446 34.7402 67.3156C34.3527 67.9198 33.7277 68.5849 33.0931 69.1081C32.3562 68.2527 31.5946 67.4224 30.8222 66.6498C31.1583 66.1758 31.5282 65.5845 31.8775 64.9917Z"/>
</mask>
<path d="M41.6293 75.7094C42.2026 76.7333 42.7194 77.8098 43.1593 78.9396C42.5353 79.4553 41.5707 79.8424 40.7958 80.0732C40.7594 79.9995 40.7254 79.9289 40.6951 79.8618C40.5741 79.5935 40.0412 78.6733 39.2079 77.3763C40.6829 77.1107 41.3648 76.3948 41.6293 75.7094ZM37.0689 69.5768C37.9895 70.5516 38.8874 71.6119 39.726 72.757C39.217 73.3788 38.2657 74.0615 37.3085 74.5607C36.8216 73.8685 36.2988 73.1401 35.7414 72.4013C35.6426 72.2702 35.5416 72.1397 35.4409 72.0079C36.4071 71.4425 36.8724 70.4673 37.0689 69.5768ZM31.8775 64.9917C32.7937 65.67 33.7625 66.4446 34.7402 67.3156C34.3527 67.9198 33.7277 68.5849 33.0931 69.1081C32.3562 68.2527 31.5946 67.4224 30.8222 66.6498C31.1583 66.1758 31.5282 65.5845 31.8775 64.9917Z" fill="#E84042"/>
<path d="M41.6293 75.7094L41.8196 75.6029L41.5929 75.198L41.4258 75.6309L41.6293 75.7094ZM43.1593 78.9396L43.2982 79.1077L43.4197 79.0073L43.3625 78.8604L43.1593 78.9396ZM40.7958 80.0732L40.6003 80.1699L40.6818 80.3348L40.8581 80.2823L40.7958 80.0732ZM40.6951 79.8618L40.894 79.7722L40.8939 79.7721L40.6951 79.8618ZM39.2079 77.3763L39.1692 77.1617L38.8479 77.2195L39.0244 77.4942L39.2079 77.3763ZM37.0689 69.5768L37.2274 69.4271L36.9446 69.1276L36.8559 69.5299L37.0689 69.5768ZM39.726 72.757L39.8948 72.8951L40.0018 72.7644L39.902 72.6281L39.726 72.757ZM37.3085 74.5607L37.1301 74.6862L37.24 74.8424L37.4094 74.7541L37.3085 74.5607ZM35.7414 72.4013L35.9156 72.2699L35.9156 72.2699L35.7414 72.4013ZM35.4409 72.0079L35.3307 71.8197L35.1176 71.9444L35.2676 72.1404L35.4409 72.0079ZM31.8775 64.9917L32.0073 64.8164L31.8126 64.6722L31.6896 64.881L31.8775 64.9917ZM34.7402 67.3156L34.9238 67.4334L35.0243 67.2766L34.8853 67.1528L34.7402 67.3156ZM33.0931 69.1081L32.9278 69.2504L33.0671 69.4121L33.2318 69.2764L33.0931 69.1081ZM30.8222 66.6498L30.6443 66.5237L30.5377 66.6739L30.6679 66.8041L30.8222 66.6498ZM41.6293 75.7094L41.439 75.816C42.0078 76.8318 42.5201 77.8991 42.956 79.0187L43.1593 78.9396L43.3625 78.8604C42.9187 77.7205 42.3975 76.6348 41.8196 75.6029L41.6293 75.7094ZM43.1593 78.9396L43.0203 78.7714C42.4308 79.2587 41.5005 79.6358 40.7336 79.8642L40.7958 80.0732L40.8581 80.2823C41.6409 80.0491 42.6397 79.652 43.2982 79.1077L43.1593 78.9396ZM40.7958 80.0732L40.9913 79.9766C40.9554 79.9039 40.9227 79.8359 40.894 79.7722L40.6951 79.8618L40.4962 79.9514C40.528 80.0219 40.5633 80.0951 40.6003 80.1699L40.7958 80.0732ZM40.6951 79.8618L40.8939 79.7721C40.7652 79.4865 40.223 78.5527 39.3914 77.2584L39.2079 77.3763L39.0244 77.4942C39.8594 78.7939 40.3831 79.7004 40.4963 79.9514L40.6951 79.8618ZM39.2079 77.3763L39.2466 77.591C40.7844 77.314 41.5368 76.555 41.8328 75.788L41.6293 75.7094L41.4258 75.6309C41.1929 76.2345 40.5813 76.9073 39.1692 77.1617L39.2079 77.3763ZM37.0689 69.5768L36.9103 69.7266C37.8254 70.6954 38.7174 71.7488 39.5501 72.8858L39.726 72.757L39.902 72.6281C39.0575 71.475 38.1536 70.4077 37.2274 69.4271L37.0689 69.5768ZM39.726 72.757L39.5572 72.6188C39.0748 73.2083 38.1525 73.8745 37.2076 74.3673L37.3085 74.5607L37.4094 74.7541C38.379 74.2484 39.3593 73.5493 39.8948 72.8951L39.726 72.757ZM37.3085 74.5607L37.4869 74.4352C36.9992 73.7419 36.4749 73.0113 35.9156 72.2699L35.7414 72.4013L35.5673 72.5327C36.1227 73.2688 36.644 73.9952 37.1301 74.6862L37.3085 74.5607ZM35.7414 72.4013L35.9156 72.2699C35.8161 72.1381 35.7139 72.0059 35.6141 71.8754L35.4409 72.0079L35.2676 72.1404C35.3693 72.2734 35.469 72.4023 35.5673 72.5327L35.7414 72.4013ZM35.4409 72.0079L35.551 72.1962C36.5892 71.5887 37.0782 70.5473 37.2819 69.6238L37.0689 69.5768L36.8559 69.5299C36.6667 70.3873 36.225 71.2964 35.3307 71.8197L35.4409 72.0079ZM31.8775 64.9917L31.7477 65.167C32.6592 65.8418 33.6229 66.6123 34.5951 67.4785L34.7402 67.3156L34.8853 67.1528C33.9021 66.2769 32.9281 65.4982 32.0073 64.8164L31.8775 64.9917ZM34.7402 67.3156L34.5566 67.1979C34.1844 67.7783 33.5764 68.427 32.9543 68.9398L33.0931 69.1081L33.2318 69.2764C33.879 68.7429 34.521 68.0614 34.9238 67.4334L34.7402 67.3156ZM33.0931 69.1081L33.2583 68.9657C32.5186 68.107 31.7534 67.2726 30.9764 66.4956L30.8222 66.6498L30.6679 66.8041C31.4359 67.5721 32.1938 68.3984 32.9278 69.2504L33.0931 69.1081ZM30.8222 66.6498L31.0001 66.776C31.3413 66.2949 31.7147 65.6978 32.0654 65.1024L31.8775 64.9917L31.6896 64.881C31.3418 65.4713 30.9754 66.0567 30.6443 66.5237L30.8222 66.6498Z" fill="black" mask="url(#path-83-inside-3_40001101_49759)"/>
<path d="M50.2974 82.3877C49.2513 82.3212 49.5256 80.4201 49.6875 78.5367C50.2057 68.0053 57.1215 59.3631 59.8878 56.4867C62.654 53.6104 62.2496 55.416 61.0056 57.0063C55.8099 62.7056 52.3502 77.1862 52.2108 78.4854C52.0714 79.7846 51.3436 82.4542 50.2974 82.3877Z" fill="#292421" stroke="black" stroke-width="0.218112"/>
<mask id="path-86-inside-4_40001101_49759" fill="white">
<path d="M50.1746 74.3555C49.9456 75.5065 49.786 76.6899 49.7167 77.9004C50.4699 78.1981 51.5073 78.2673 52.3156 78.2472C52.3274 78.1665 52.3374 78.0896 52.3454 78.017C52.3774 77.7248 52.5997 76.6845 52.9916 75.1927C51.5072 75.3958 50.6379 74.9253 50.1746 74.3555ZM52.6158 67.1139C52.0416 68.325 51.5158 69.6107 51.0722 70.9584C51.7483 71.3925 52.8634 71.7479 53.9278 71.9269C54.1769 71.1187 54.4496 70.2652 54.7512 69.3909C54.805 69.235 54.8608 69.0789 54.9162 68.9218C53.8223 68.6829 53.0777 67.9002 52.6158 67.1139ZM56.1371 61.1488C55.4754 62.077 54.7934 63.1131 54.1327 64.2436C54.6879 64.6984 55.4879 65.1371 56.2529 65.4384C56.6893 64.3976 57.1565 63.3729 57.6522 62.3998C57.1862 62.053 56.6523 61.6045 56.1371 61.1488Z"/>
</mask>
<path d="M50.1746 74.3555C49.9456 75.5065 49.786 76.6899 49.7167 77.9004C50.4699 78.1981 51.5073 78.2673 52.3156 78.2472C52.3274 78.1665 52.3374 78.0896 52.3454 78.017C52.3774 77.7248 52.5997 76.6845 52.9916 75.1927C51.5072 75.3958 50.6379 74.9253 50.1746 74.3555ZM52.6158 67.1139C52.0416 68.325 51.5158 69.6107 51.0722 70.9584C51.7483 71.3925 52.8634 71.7479 53.9278 71.9269C54.1769 71.1187 54.4496 70.2652 54.7512 69.3909C54.805 69.235 54.8608 69.0789 54.9162 68.9218C53.8223 68.6829 53.0777 67.9002 52.6158 67.1139ZM56.1371 61.1488C55.4754 62.077 54.7934 63.1131 54.1327 64.2436C54.6879 64.6984 55.4879 65.1371 56.2529 65.4384C56.6893 64.3976 57.1565 63.3729 57.6522 62.3998C57.1862 62.053 56.6523 61.6045 56.1371 61.1488Z" fill="#E84042"/>
<path d="M50.1746 74.3555L49.9607 74.3129L50.0512 73.8579L50.3438 74.2179L50.1746 74.3555ZM49.7167 77.9004L49.6365 78.1033L49.4899 78.0453L49.4989 77.888L49.7167 77.9004ZM52.3156 78.2472L52.5314 78.2786L52.5049 78.4606L52.321 78.4652L52.3156 78.2472ZM52.3454 78.017L52.5622 78.0408L52.5622 78.0408L52.3454 78.017ZM52.9916 75.1927L52.962 74.9766L53.2855 74.9323L53.2026 75.2481L52.9916 75.1927ZM52.6158 67.1139L52.4187 67.0205L52.5952 66.6483L52.8038 67.0034L52.6158 67.1139ZM51.0722 70.9584L50.9544 71.1419L50.8122 71.0506L50.865 70.8902L51.0722 70.9584ZM53.9278 71.9269L54.1363 71.9911L54.08 72.1737L53.8916 72.142L53.9278 71.9269ZM54.7512 69.3909L54.545 69.3198L54.545 69.3198L54.7512 69.3909ZM54.9162 68.9218L54.9627 68.7087L55.204 68.7614L55.1219 68.9943L54.9162 68.9218ZM56.1371 61.1488L55.9595 61.0222L56.1001 60.8249L56.2816 60.9854L56.1371 61.1488ZM54.1327 64.2436L53.9945 64.4124L53.8504 64.2944L53.9444 64.1336L54.1327 64.2436ZM56.2529 65.4384L56.4541 65.5227L56.3716 65.7195L56.173 65.6413L56.2529 65.4384ZM57.6522 62.3998L57.7825 62.2249L57.9302 62.3348L57.8466 62.4989L57.6522 62.3998ZM50.1746 74.3555L50.3885 74.398C50.1614 75.54 50.0031 76.7134 49.9344 77.9129L49.7167 77.9004L49.4989 77.888C49.5688 76.6665 49.7299 75.4729 49.9607 74.3129L50.1746 74.3555ZM49.7167 77.9004L49.7968 77.6976C50.5083 77.9788 51.51 78.049 52.3102 78.0291L52.3156 78.2472L52.321 78.4652C51.5046 78.4855 50.4314 78.4174 49.6365 78.1033L49.7167 77.9004ZM52.3156 78.2472L52.0998 78.2157C52.1113 78.137 52.121 78.0627 52.1286 77.9932L52.3454 78.017L52.5622 78.0408C52.5539 78.1165 52.5435 78.1961 52.5314 78.2786L52.3156 78.2472ZM52.3454 78.017L52.1286 77.9932C52.1627 77.6821 52.3895 76.626 52.7807 75.1372L52.9916 75.1927L53.2026 75.2481C52.8098 76.743 52.5922 77.7674 52.5622 78.0408L52.3454 78.017ZM52.9916 75.1927L53.0212 75.4088C51.4734 75.6206 50.5238 75.1308 50.0054 74.4931L50.1746 74.3555L50.3438 74.2179C50.7519 74.7198 51.5411 75.171 52.962 74.9766L52.9916 75.1927ZM52.6158 67.1139L52.8129 67.2074C52.2422 68.4111 51.7199 69.6883 51.2794 71.0266L51.0722 70.9584L50.865 70.8902C51.3118 69.5331 51.841 68.239 52.4187 67.0205L52.6158 67.1139ZM51.0722 70.9584L51.19 70.7748C51.831 71.1864 52.9134 71.5352 53.964 71.7118L53.9278 71.9269L53.8916 72.142C52.8134 71.9607 51.6656 71.5986 50.9544 71.1419L51.0722 70.9584ZM53.9278 71.9269L53.7194 71.8627C53.9689 71.053 54.2424 70.197 54.545 69.3198L54.7512 69.3909L54.9574 69.462C54.6568 70.3333 54.3848 71.1844 54.1363 71.9911L53.9278 71.9269ZM54.7512 69.3909L54.545 69.3198C54.5991 69.163 54.6556 69.0051 54.7105 68.8493L54.9162 68.9218L55.1219 68.9943C55.0661 69.1527 55.0108 69.307 54.9574 69.462L54.7512 69.3909ZM54.9162 68.9218L54.8696 69.1349C53.6944 68.8782 52.9069 68.0401 52.4277 67.2244L52.6158 67.1139L52.8038 67.0034C53.2486 67.7604 53.9502 68.4875 54.9627 68.7087L54.9162 68.9218ZM56.1371 61.1488L56.3147 61.2754C55.6564 62.1988 54.9781 63.2294 54.321 64.3537L54.1327 64.2436L53.9444 64.1336C54.6088 62.9968 55.2944 61.9551 55.9595 61.0222L56.1371 61.1488ZM54.1327 64.2436L54.2709 64.0749C54.8042 64.5117 55.5829 64.9401 56.3329 65.2354L56.2529 65.4384L56.173 65.6413C55.393 65.3341 54.5717 64.8851 53.9945 64.4124L54.1327 64.2436ZM56.2529 65.4384L56.0518 65.354C56.4898 64.3093 56.9593 63.2795 57.4579 62.3008L57.6522 62.3998L57.8466 62.4989C57.3537 63.4662 56.8888 64.4859 56.4541 65.5227L56.2529 65.4384ZM57.6522 62.3998L57.522 62.5748C57.0489 62.2227 56.5099 61.7697 55.9926 61.3122L56.1371 61.1488L56.2816 60.9854C56.7948 61.4394 57.3235 61.8833 57.7825 62.2249L57.6522 62.3998Z" fill="black" mask="url(#path-86-inside-4_40001101_49759)"/>
<path d="M42.5067 91.2424L47.8572 88.0763M43.8514 93.4586L48.2837 90.7691M45.2527 95.3345L48.7102 93.4619M46.365 97.4771L49.0856 95.8316M47.7492 99.2453L49.4438 98.0936" stroke="black" stroke-width="0.218112"/>
<path d="M53.8163 89.4514L47.7492 88.0936M53.2222 91.9747L48.1757 90.7865M52.4692 94.1918L48.6022 93.4793M52.0735 96.5732L48.9775 95.849M51.3034 98.6826L49.3358 98.111" stroke="black" stroke-width="0.218112"/>
</g>
<defs>
<filter id="filter0_d_40001101_49759" x="0" y="0.128425" width="98.5328" height="148.311" filterUnits="userSpaceOnUse" color-interpolation-filters="sRGB">
<feFlood flood-opacity="0" result="BackgroundImageFix"/>
<feColorMatrix in="SourceAlpha" type="matrix" values="0 0 0 0 0 0 0 0 0 0 0 0 0 0 0 0 0 0 127 0" result="hardAlpha"/>
<feOffset dx="7.82259" dy="-5.21506"/>
<feGaussianBlur stdDeviation="3.35755"/>
<feComposite in2="hardAlpha" operator="out"/>
<feColorMatrix type="matrix" values="0 0 0 0 0.784314 0 0 0 0 0.843137 0 0 0 0 0.909804 0 0 0 0.25 0"/>
<feBlend mode="normal" in2="BackgroundImageFix" result="effect1_dropShadow_40001101_49759"/>
<feBlend mode="normal" in="SourceGraphic" in2="effect1_dropShadow_40001101_49759" result="shape"/>
</filter>
<filter id="filter1_f_40001101_49759" x="-23.4611" y="28.5418" width="120.167" height="101.289" filterUnits="userSpaceOnUse" color-interpolation-filters="sRGB">
<feFlood flood-opacity="0" result="BackgroundImageFix"/>
<feBlend mode="normal" in="SourceGraphic" in2="BackgroundImageFix" result="shape"/>
<feGaussianBlur stdDeviation="9.81502" result="effect1_foregroundBlur_40001101_49759"/>
</filter>
<filter id="filter2_f_40001101_49759" x="-32.3196" y="-41.0989" width="153.977" height="159.319" filterUnits="userSpaceOnUse" color-interpolation-filters="sRGB">
<feFlood flood-opacity="0" result="BackgroundImageFix"/>
<feBlend mode="normal" in="SourceGraphic" in2="BackgroundImageFix" result="shape"/>
<feGaussianBlur stdDeviation="21.8112" result="effect1_foregroundBlur_40001101_49759"/>
</filter>
<filter id="filter3_f_40001101_49759" x="-99.6066" y="-79.5128" width="286.177" height="288.948" filterUnits="userSpaceOnUse" color-interpolation-filters="sRGB">
<feFlood flood-opacity="0" result="BackgroundImageFix"/>
<feBlend mode="normal" in="SourceGraphic" in2="BackgroundImageFix" result="shape"/>
<feGaussianBlur stdDeviation="54.5279" result="effect1_foregroundBlur_40001101_49759"/>
</filter>
<filter id="filter4_f_40001101_49759" x="41.1554" y="6.86441" width="56.4138" height="62.7829" filterUnits="userSpaceOnUse" color-interpolation-filters="sRGB">
<feFlood flood-opacity="0" result="BackgroundImageFix"/>
<feBlend mode="normal" in="SourceGraphic" in2="BackgroundImageFix" result="shape"/>
<feGaussianBlur stdDeviation="1.52678" result="effect1_foregroundBlur_40001101_49759"/>
</filter>
<filter id="filter5_f_40001101_49759" x="45.2679" y="10.4349" width="48.9574" height="56.224" filterUnits="userSpaceOnUse" color-interpolation-filters="sRGB">
<feFlood flood-opacity="0" result="BackgroundImageFix"/>
<feBlend mode="normal" in="SourceGraphic" in2="BackgroundImageFix" result="shape"/>
<feGaussianBlur stdDeviation="0.218112" result="effect1_foregroundBlur_40001101_49759"/>
</filter>
<filter id="filter6_f_40001101_49759" x="-5.52524" y="29.6203" width="37.1706" height="75.7653" filterUnits="userSpaceOnUse" color-interpolation-filters="sRGB">
<feFlood flood-opacity="0" result="BackgroundImageFix"/>
<feBlend mode="normal" in="SourceGraphic" in2="BackgroundImageFix" result="shape"/>
<feGaussianBlur stdDeviation="1.52678" result="effect1_foregroundBlur_40001101_49759"/>
</filter>
<filter id="filter7_f_40001101_49759" x="-1.85419" y="32.8118" width="28.4955" height="69.1498" filterUnits="userSpaceOnUse" color-interpolation-filters="sRGB">
<feFlood flood-opacity="0" result="BackgroundImageFix"/>
<feBlend mode="normal" in="SourceGraphic" in2="BackgroundImageFix" result="shape"/>
<feGaussianBlur stdDeviation="0.218112" result="effect1_foregroundBlur_40001101_49759"/>
</filter>
<linearGradient id="paint0_linear_40001101_49759" x1="39.2063" y1="36.0195" x2="39.0973" y2="123.919" gradientUnits="userSpaceOnUse">
<stop stop-color="#343257"/>
<stop offset="1" stop-color="#6531C6"/>
</linearGradient>
<radialGradient id="paint1_radial_40001101_49759" cx="0" cy="0" r="1" gradientUnits="userSpaceOnUse" gradientTransform="translate(36.6228 79.1861) rotate(90) scale(25.3214 44.2306)">
<stop offset="0.293269" stop-color="#A8E2F2"/>
<stop offset="1" stop-color="#322CEB"/>
</radialGradient>
<radialGradient id="paint2_radial_40001101_49759" cx="0" cy="0" r="1" gradientUnits="userSpaceOnUse" gradientTransform="translate(44.6692 38.5601) rotate(90) scale(36.05 33.3497)">
<stop offset="0.466346" stop-color="#9349CA"/>
<stop offset="1" stop-color="#1E1A75"/>
</radialGradient>
<radialGradient id="paint3_radial_40001101_49759" cx="0" cy="0" r="1" gradientUnits="userSpaceOnUse" gradientTransform="translate(43.4817 64.9609) rotate(90) scale(36.05 33.3497)">
<stop offset="0.466346" stop-color="#9349CA"/>
<stop offset="1" stop-color="#5FD8FD"/>
</radialGradient>
<clipPath id="clip0_40001101_49759">
<rect width="65.2154" height="99.677" fill="white" transform="translate(6.59863 36.0195) rotate(-9)"/>
</clipPath>
</defs>
</svg>
