<svg width="17" height="16" viewBox="0 0 17 16" fill="none" xmlns="http://www.w3.org/2000/svg">
<path d="M7.82688 1.76996C7.96894 1.4651 8.4024 1.4651 8.54446 1.76996L10.3641 5.67495C10.4218 5.79874 10.5392 5.88405 10.6748 5.90066L14.951 6.42456C15.2848 6.46546 15.4188 6.87771 15.1727 7.10702L12.0212 10.0444C11.9213 10.1375 11.8764 10.2755 11.9025 10.4095L12.7256 14.6383C12.7899 14.9685 12.4392 15.2233 12.1451 15.0601L8.37766 12.9705C8.25824 12.9043 8.1131 12.9043 7.99367 12.9705L4.22623 15.0601C3.93211 15.2233 3.58143 14.9685 3.64569 14.6383L4.46884 10.4095C4.49493 10.2755 4.45008 10.1375 4.35018 10.0444L1.19862 7.10703C0.952583 6.87771 1.08653 6.46546 1.42036 6.42456L5.69655 5.90066C5.8321 5.88405 5.94952 5.79874 6.0072 5.67495L7.82688 1.76996Z" fill="#AEC3DE"/>
</svg>
